<?xml version="1.0" encoding="utf-8"?>
<!-- Generator: Adobe Illustrator 21.0.0, SVG Export Plug-In . SVG Version: 6.00 Build 0)  -->
<svg version="1.1" id="Layer_1" xmlns="http://www.w3.org/2000/svg" xmlns:xlink="http://www.w3.org/1999/xlink" x="0px" y="0px"
	 viewBox="0 0 80 80" style="enable-background:new 0 0 80 80;" xml:space="preserve">
<style type="text/css">
	.st0{fill:#E8E7E7;}
	.st1{fill:#FFFFFF;}
	.st2{fill:#D1D2D8;}
	.st3{opacity:0.2;fill:#D1D2D8;enable-background:new    ;}
	.st4{fill:#C5C6C7;}
	.st5{fill:#AEAEAE;}
	.st6{fill:#B0B3B5;}
	.st7{fill:#DDDFDE;}
	.st8{fill:#DBDBD9;}
	.st9{fill:#E4E4E3;}
	.st10{fill:#EFEFEF;}
	.st11{fill:#ECECEE;}
	.st12{fill:#F7F8F9;}
	.st13{fill:#41B349;}
	.st14{fill:#80C576;}
	.st15{fill:#C23728;}
	.st16{fill:#CD483C;}
	.st17{fill:#C06B2A;}
	.st18{fill:#CE7C43;}
	.st19{fill:#7C8187;}
	.st20{opacity:0.3;fill:#7C8187;enable-background:new    ;}
	.st21{fill:#C2C2C2;}
	.st22{fill:#777576;}
	.st23{fill:#A4A3A3;}
	.st24{fill:#636467;}
	.st25{fill:#595A5B;}
	.st26{fill:#9A735A;}
	.st27{fill:#59595C;}
	.st28{fill:#C29C77;}
	.st29{opacity:0.2;fill:#C29C77;enable-background:new    ;}
	.st30{fill:#AEABA8;}
	.st31{fill:#888582;}
	.st32{opacity:0.2;fill:#888582;enable-background:new    ;}
	.st33{fill:#5C5653;}
	.st34{fill:#E7E6E7;}
	.st35{fill:#D0D1D1;}
	.st36{fill:#DCDCDB;}
	.st37{fill:#C6C4C3;}
	.st38{fill:#74BF45;}
	.st39{fill:#50A647;}
	.st40{fill:#429A45;}
	.st41{fill:#2D2D2D;}
	.st42{fill:#A19F9F;}
	.st43{fill:#474948;}
	.st44{opacity:0.3;fill:#515352;enable-background:new    ;}
	.st45{fill:#575858;}
	.st46{opacity:0.2;fill:#515352;enable-background:new    ;}
	.st47{fill:#515352;}
	.st48{fill:#3A3B3A;}
	.st49{fill:#72B1CB;}
	.st50{fill:#5F8FA9;}
	.st51{fill:#5988A6;}
	.st52{fill:#3C6984;}
	.st53{fill:#DFDFDF;}
	.st54{fill:#D7D7D6;}
	.st55{opacity:0.8;fill:#DFDFDF;enable-background:new    ;}
	.st56{fill:#EEBE69;}
	.st57{fill:#FFCD80;}
	.st58{fill:#AEADAD;}
	.st59{fill:#D2D2D2;}
	.st60{opacity:0.5;fill:#BBBBBB;enable-background:new    ;}
	.st61{fill:#BBBBBB;}
	.st62{opacity:0.2;fill:#444445;enable-background:new    ;}
	.st63{fill:#ECEAEA;}
	.st64{opacity:0.3;fill:#444445;enable-background:new    ;}
	.st65{fill:#525354;}
	.st66{fill:#6D6F6E;}
	.st67{fill:#3F3F3F;}
	.st68{fill:#5E5E5E;}
</style>
<g id="XMLID_122_">
	<g id="XMLID_124_">
		<polygon id="XMLID_126_" class="st0" points="4.6,19.8 4.6,52.9 3.8,52.4 3.8,19.2 		"/>
		<polygon id="XMLID_125_" class="st1" points="3.8,19.2 4.6,19.8 32.6,3.7 31.7,3.1 		"/>
	</g>
	<polygon id="XMLID_123_" class="st2" points="4.6,19.8 4.6,52.9 32.6,36.8 32.6,3.7 	"/>
	<polyline id="XMLID_16543_" class="st3" points="4.6,52.9 32.6,36.8 32.6,3.7 	"/>
</g>
<g id="XMLID_82_">
	<polygon id="XMLID_121_" class="st4" points="40.7,55.8 40.7,73.8 56.5,64.6 56.5,46.7 	"/>
	<polygon id="XMLID_120_" class="st5" points="40.1,72.5 48.6,77.5 66.6,67 58.2,62.1 	"/>
	<polygon id="XMLID_119_" class="st6" points="40.7,55.8 40.7,73.8 40.1,73.5 40.1,55.5 	"/>
	<polygon id="XMLID_118_" class="st4" points="40.7,54.9 40.7,72.8 56.5,63.8 56.5,45.7 	"/>
	<g id="XMLID_83_">
		<g id="XMLID_102_">
			<polygon id="XMLID_117_" class="st7" points="47.4,61.5 47.4,75.9 41.8,72.7 41.8,58.2 			"/>
			<polygon id="XMLID_116_" class="st0" points="47.4,61.5 47.4,63.8 41.8,60.6 41.8,58.2 			"/>
			<polygon id="XMLID_115_" class="st0" points="47.4,63.9 47.4,67.6 41.8,64.3 41.8,60.7 			"/>
			<polygon id="XMLID_114_" class="st0" points="47.4,67.7 47.4,74.6 41.8,71.4 41.8,64.5 			"/>
			<polygon id="XMLID_113_" class="st0" points="47.4,74.8 47.4,75.9 41.8,72.7 41.8,71.5 			"/>
			<g id="XMLID_105_">
				<polygon id="XMLID_112_" class="st8" points="45.9,65.2 45.9,65.9 43.1,64.2 43.1,63.5 				"/>
				<polygon id="XMLID_111_" class="st9" points="45.7,65.3 45.7,65.5 43.3,64.1 43.3,64 				"/>
				<g id="XMLID_106_">
					<polygon id="XMLID_110_" class="st8" points="46.8,64.3 46.8,65.3 42.5,62.8 42.5,61.7 					"/>
					<polygon id="XMLID_109_" class="st9" points="46.5,64.4 46.5,64.7 42.6,62.4 42.6,62.2 					"/>
					<g id="XMLID_107_">
						<path id="XMLID_108_" class="st9" d="M42.6,62.7l0.2,0.1l0,0v-0.1l0,0H42.6L42.6,62.7L42.6,62.7
							C42.6,62.7,42.7,62.7,42.6,62.7z"/>
					</g>
				</g>
			</g>
			<polygon id="XMLID_104_" class="st10" points="41.8,58.2 47.4,61.5 61.3,53.5 55.7,50.3 			"/>
			<polygon id="XMLID_103_" class="st11" points="47.4,61.5 47.4,75.9 61.3,67.9 61.3,53.5 			"/>
		</g>
		<g id="XMLID_99_">
			<path id="XMLID_101_" class="st12" d="M44.7,68.3L44.7,68.3c0.3,0.4,0.2,0.8-0.2,0.8l0,0c-0.2,0-0.3-0.2-0.5-0.3l0,0
				c-0.3-0.4-0.2-0.8,0.2-0.8l0,0C44.4,68.1,44.6,68.2,44.7,68.3z"/>
			<path id="XMLID_100_" class="st0" d="M44.7,68.4L44.7,68.4c0.2,0.3,0.2,0.6-0.2,0.6l0,0c-0.2,0-0.3-0.1-0.4-0.2l0,0
				c-0.2-0.3-0.2-0.6,0.2-0.6l0,0C44.4,68.2,44.6,68.2,44.7,68.4z"/>
		</g>
		<g id="XMLID_96_">
			<path id="XMLID_98_" class="st12" d="M44.7,69.6L44.7,69.6c0.2,0.2,0.1,0.5-0.2,0.5l0,0c-0.2,0-0.2-0.1-0.3-0.2l0,0
				c-0.2-0.2-0.1-0.5,0.2-0.5l0,0C44.4,69.5,44.5,69.6,44.7,69.6z"/>
			<path id="XMLID_97_" class="st0" d="M44.5,69.6L44.5,69.6c0.1,0.2,0.1,0.3-0.1,0.3l0,0c0,0-0.1,0-0.2-0.1l0,0
				c-0.1-0.2-0.1-0.3,0.1-0.3l0,0C44.4,69.6,44.5,69.6,44.5,69.6z"/>
		</g>
		<g id="XMLID_85_">
			<g id="XMLID_93_">
				<path id="XMLID_95_" class="st13" d="M44.4,70.4L44.4,70.4c0,0.1,0,0.2-0.1,0.2l0,0c0,0-0.1,0-0.1-0.1l0,0
					C44.2,70.4,44.2,70.3,44.4,70.4L44.4,70.4C44.4,70.3,44.4,70.4,44.4,70.4z"/>
				<path id="XMLID_94_" class="st14" d="M44.4,70.4L44.4,70.4c0,0.1,0,0.2,0,0.2C44.4,70.7,44.2,70.4,44.4,70.4L44.4,70.4
					L44.4,70.4z"/>
			</g>
			<g id="XMLID_90_">
				<path id="XMLID_92_" class="st15" d="M44,70.3L44,70.3c0,0.1,0,0.2-0.1,0.2l0,0c0,0-0.1,0-0.1-0.1l0,0
					C43.9,70.3,43.9,70.2,44,70.3L44,70.3C44,70.2,44,70.2,44,70.3z"/>
				<path id="XMLID_91_" class="st16" d="M44,70.2L44,70.2c0,0.1,0,0.2,0,0.2C44,70.4,43.9,70.2,44,70.2L44,70.2
					C44,70.2,44,70.3,44,70.2z"/>
			</g>
			<g id="XMLID_87_">
				<path id="XMLID_89_" class="st17" d="M44.7,70.7L44.7,70.7c0,0.1,0,0.2-0.1,0.2l0,0c0,0-0.1,0-0.1-0.1l0,0
					C44.5,70.7,44.5,70.6,44.7,70.7L44.7,70.7C44.7,70.6,44.7,70.6,44.7,70.7z"/>
				<path id="XMLID_88_" class="st18" d="M44.7,70.6L44.7,70.6c0,0.1,0,0.2,0,0.2C44.7,70.8,44.5,70.6,44.7,70.6L44.7,70.6
					L44.7,70.6z"/>
			</g>
		</g>
	</g>
</g>
<g id="XMLID_28_">
	<g id="XMLID_31_">
		<g id="XMLID_32_">
			<g id="XMLID_38_">
				<g id="XMLID_39_">
					<polygon id="XMLID_81_" class="st19" points="35.6,50 17.5,60.4 17.5,42.4 35.6,32 					"/>
					<polygon id="XMLID_16542_" class="st20" points="35.6,50 26.4,55.3 17.5,42.4 35.6,32 					"/>
					<polygon id="XMLID_80_" class="st21" points="4.7,53.1 17.5,60.4 17.5,42.4 48,60 48,78 48.6,78.3 48.6,59.6 4.7,34.3 					"/>
					<polyline id="XMLID_16549_" class="st6" points="17.5,60.4 17.5,42.4 48,60 48,78 48.6,78.3 48.6,59.6 4.7,34.3 					"/>
					<g id="XMLID_65_">
						<g id="XMLID_70_">
							<polygon id="XMLID_78_" class="st22" points="6,41 16.2,47 16.2,41.7 6,35.7 							"/>
							<polygon id="XMLID_75_" class="st23" points="16.1,46.6 16.2,46.5 16.2,41.9 6.4,36.2 6.1,36.3 6.1,40.9 							"/>
							<polygon id="XMLID_74_" class="st6" points="6.1,40.9 16.1,46.6 16.1,42 6.1,36.3 							"/>
							<polyline id="XMLID_16546_" class="st3" points="16.1,46.6 16.1,42 6.1,36.3 							"/>
							<polygon id="XMLID_73_" class="st23" points="15.7,42.4 16.1,42.2 16.1,42 15.7,42.2 							"/>
							<polygon id="XMLID_72_" class="st23" points="15.5,42.7 15.7,42.5 15.7,42.2 15.5,42.3 							"/>
							<polygon id="XMLID_71_" class="st24" points="6.1,36.3 16.1,42 16.2,41.9 6.4,36.2 							"/>
						</g>
						<polygon id="XMLID_69_" class="st24" points="6,36.4 15.9,42.1 16.1,42 6.1,36.3 						"/>
						<polygon id="XMLID_68_" class="st24" points="5.8,36.5 15.7,42.2 15.9,42.1 6,36.4 						"/>
						<polygon id="XMLID_67_" class="st24" points="5.6,36.6 15.5,42.3 15.7,42.2 5.8,36.5 						"/>
						<polygon id="XMLID_66_" class="st25" points="5.6,36.6 15.5,42.3 15.5,42.7 5.6,36.9 						"/>
					</g>
					<g id="XMLID_53_">
						<g id="XMLID_58_">
							<polygon id="XMLID_64_" class="st22" points="6,46.8 16.2,52.8 16.2,47.4 6,41.5 							"/>
							<polygon id="XMLID_63_" class="st23" points="16.1,52.4 16.2,52.3 16.2,47.7 6.4,42 6.1,42 6.1,46.7 							"/>
							<polygon id="XMLID_62_" class="st6" points="6.1,46.7 16.1,52.4 16.1,47.8 6.1,42 							"/>
							<polyline id="XMLID_16547_" class="st3" points="16.1,52.4 16.1,47.8 6.1,42 							"/>
							<polygon id="XMLID_61_" class="st23" points="15.7,48.2 16.1,48 16.1,47.8 15.7,48 							"/>
							<polygon id="XMLID_60_" class="st23" points="15.5,48.4 15.7,48.3 15.7,48 15.5,48.1 							"/>
							<polygon id="XMLID_59_" class="st24" points="6.1,42 16.1,47.8 16.2,47.7 6.4,42 							"/>
						</g>
						<polygon id="XMLID_57_" class="st24" points="6,42.1 15.9,47.9 16.1,47.8 6.1,42 						"/>
						<polygon id="XMLID_56_" class="st24" points="5.8,42.3 15.7,48 15.9,47.9 6,42.1 						"/>
						<polygon id="XMLID_55_" class="st24" points="5.6,42.4 15.5,48.1 15.7,48 5.8,42.3 						"/>
						<polygon id="XMLID_54_" class="st25" points="5.6,42.4 15.5,48.1 15.5,48.4 5.6,42.7 						"/>
					</g>
					<g id="XMLID_41_">
						<g id="XMLID_46_">
							<polygon id="XMLID_52_" class="st22" points="6,52.6 16.2,58.5 16.2,53.2 6,47.3 							"/>
							<polygon id="XMLID_51_" class="st23" points="16.1,58.1 16.2,58.1 16.2,53.5 6.4,47.8 6.1,47.8 6.1,52.4 							"/>
							<polygon id="XMLID_50_" class="st6" points="6.1,52.4 16.1,58.1 16.1,53.5 6.1,47.8 							"/>
							<polyline id="XMLID_16548_" class="st3" points="16.1,58.1 16.1,53.5 6.1,47.8 							"/>
							<polygon id="XMLID_49_" class="st23" points="15.7,54 16.1,53.8 16.1,53.5 15.7,53.8 							"/>
							<polygon id="XMLID_48_" class="st23" points="15.5,54.2 15.7,54.1 15.7,53.8 15.5,53.9 							"/>
							<polygon id="XMLID_47_" class="st24" points="6.1,47.8 16.1,53.5 16.2,53.5 6.4,47.8 							"/>
						</g>
						<polygon id="XMLID_45_" class="st24" points="6,47.9 15.9,53.6 16.1,53.5 6.1,47.8 						"/>
						<polygon id="XMLID_44_" class="st24" points="5.8,48 15.7,53.8 15.9,53.6 6,47.9 						"/>
						<polygon id="XMLID_43_" class="st24" points="5.6,48.1 15.5,53.9 15.7,53.8 5.8,48 						"/>
						<polygon id="XMLID_42_" class="st25" points="5.6,48.1 15.5,53.9 15.5,54.2 5.6,48.5 						"/>
					</g>
					<polygon id="XMLID_40_" class="st4" points="48.6,78.3 49.1,78 66.1,68.2 66.6,67.9 66.6,49.2 48.6,59.6 					"/>
				</g>
			</g>
			<g id="XMLID_33_">
				<g id="XMLID_34_">
					<polygon id="XMLID_37_" class="st26" points="4.7,33.1 4.7,34.3 48.6,59.6 48.6,58.5 					"/>
					<polygon id="XMLID_36_" class="st27" points="66.6,49.2 48.6,59.6 48.6,58.5 66.6,48.1 					"/>
					<polygon id="XMLID_35_" class="st28" points="4.6,33.1 48.4,58.5 66.5,48.1 22.6,22.7 					"/>
					<polygon class="st29" points="16.1,29.3 11.2,29.3 4.6,33.1 16.1,39.8 					"/>
					<polyline id="XMLID_16550_" class="st29" points="48.6,58.5 66.6,48.1 22.8,22.7 					"/>
					<polygon class="st29" points="19.8,24.5 19.3,24.7 19.3,41.6 26.3,45.6 26.3,24.8 25.8,24.5 					"/>
					<polygon class="st29" points="42.7,55 49,55 49,38.9 40.2,38.1 40.2,53.6 					"/>
				</g>
			</g>
		</g>
	</g>
	<g id="XMLID_29_">
		<polygon id="XMLID_30_" class="st6" points="40.1,73.5 48.6,78.3 48.6,77.5 40.1,72.5 		"/>
	</g>
</g>
<g>
	<g id="XMLID_16993_">
		<g id="XMLID_16994_">
			<path id="XMLID_17002_" class="st30" d="M48.7,46.9l4,2.3l0.1,0.2c0,0,0.2,0.2,0.4,0.1c0.1,0,5.9-3.4,5.9-3.4
				c0.2-0.2,0-0.6-0.5-0.9l0,0l-4-2.3c-0.2-0.1-0.2-0.1-0.4,0l-5.5,3.2V46.9z"/>
			<path class="st31" d="M54.3,42.9l-5.5,3.2v0.1l4,2.3l0.1,0.2c0,0,0.2,0.2,0.4,0.1c0.1,0,4.7-2.7,5.7-3.3
				c-0.1-0.1-0.2-0.2-0.3-0.2l0,0l-4-2.3C54.5,42.9,54.4,42.9,54.3,42.9z"/>
			<path class="st32" d="M58.7,45.3"/>
			<path class="st32" d="M54.6,43c-0.2-0.1-0.2-0.1-0.4,0l-5.5,3.2v0.1l4,2.3l0.1,0.2c0,0,0.2,0.2,0.4,0.1"/>
			<g id="XMLID_17000_">
				<path id="XMLID_17001_" class="st30" d="M48.9,46.8c-0.1-0.1-0.1,0.2-0.1,0.2c0,0.1,0,0.1,0.1,0.2c0.1,0,3.1,1.8,3.8,2.2
					c0.7,0.5,0.7-0.4,0-0.8c-0.7-0.4-3.8-2.1-3.8-2.2c-0.1-0.1-0.1,0.2-0.1,0.2C48.8,46.7,48.8,46.7,48.9,46.8L48.9,46.8z"/>
			</g>
			<g id="XMLID_16998_">
				<path id="XMLID_16999_" class="st33" d="M48.7,46.5c0,0.1,0.1,0.2,0.1,0.2c-0.2,0.2-0.1,0.3-0.1,0.4c0,0,0.1,0.1,0.2,0.2
					c0.1,0.1,3.2,1.9,3.9,2.3c0.7,0.5,0.9-0.6,0.4-0.9c-0.7-0.4-4.1-2.3-4.2-2.3C48.8,46.1,48.7,46.2,48.7,46.5z"/>
			</g>
			<g id="XMLID_16996_">
				<path id="XMLID_16997_" class="st34" d="M48.9,46.7c-0.1-0.1-0.1,0.1-0.1,0.2c0,0.1,0,0.1,0.1,0.2c0.2,0.1,3.1,1.8,3.8,2.2
					c0.4,0.2,0.6-0.4,0.2-0.6c-0.7-0.4-3.9-2.2-4-2.3S48.8,46.5,48.9,46.7C48.8,46.5,48.8,46.6,48.9,46.7L48.9,46.7z"/>
			</g>
			<path id="XMLID_16995_" class="st33" d="M48.9,46.8c0.9,0.5,3,1.7,3.6,2.1c0.1,0,0.2,0.2,0.2,0.2c0.2,0.1,0.1-0.1,0.1-0.2
				c0-0.1,0.2-0.1,0.1-0.2c0,0-0.2,0-0.2-0.1c-0.8-0.4-3.7-2-3.7-2C48.9,46.7,48.9,46.8,48.9,46.8z"/>
		</g>
	</g>
	<g id="XMLID_17003_">
		<g id="XMLID_17004_">
			<path id="XMLID_17012_" class="st30" d="M48.7,45.9l4,2.3l0.1,0.2c0,0,0.2,0.2,0.4,0.1c0.1,0,5.9-3.4,5.9-3.4
				c0.2-0.2,0-0.6-0.5-0.9l0,0l-4-2.3c-0.2-0.1-0.2-0.1-0.4,0l-5.5,3.2V45.9z"/>
			<path class="st31" d="M54.3,42l-5.5,3.2v0.1l4,2.3l0.1,0.2c0,0,0.2,0.2,0.4,0.1c0.1,0,4.7-2.7,5.7-3.3c-0.1-0.1-0.2-0.2-0.3-0.2
				l0,0l-4-2.3C54.5,42,54.4,42,54.3,42z"/>
			<path class="st32" d="M58.7,44.3"/>
			<path class="st32" d="M54.6,42c-0.2-0.1-0.2-0.1-0.4,0l-5.5,3.2v0.1l4,2.3l0.1,0.2c0,0,0.2,0.2,0.4,0.1"/>
			<g id="XMLID_17010_">
				<path id="XMLID_17011_" class="st30" d="M48.9,45.9c-0.1-0.1-0.1,0.2-0.1,0.2s0,0.1,0.1,0.2c0.1,0,3.1,1.8,3.8,2.2
					c0.7,0.5,0.7-0.4,0-0.8c-0.7-0.4-3.8-2.1-3.8-2.2c-0.1-0.1-0.1,0.2-0.1,0.2C48.8,45.7,48.8,45.8,48.9,45.9L48.9,45.9z"/>
			</g>
			<g id="XMLID_17008_">
				<path id="XMLID_17009_" class="st33" d="M48.7,45.5c0,0.1,0.1,0.2,0.1,0.2c-0.2,0.2-0.1,0.3-0.1,0.4c0,0,0.1,0.1,0.2,0.2
					c0.1,0.1,3.2,1.9,3.9,2.3c0.7,0.5,0.9-0.6,0.4-0.9c-0.7-0.4-4.1-2.3-4.2-2.3C48.8,45.2,48.7,45.2,48.7,45.5z"/>
			</g>
			<g id="XMLID_17006_">
				<path id="XMLID_17007_" class="st34" d="M48.9,45.7c-0.1-0.1-0.1,0.1-0.1,0.2c0,0.1,0,0.1,0.1,0.2c0.2,0.1,3.1,1.8,3.8,2.2
					c0.4,0.2,0.6-0.4,0.2-0.6c-0.7-0.4-3.9-2.2-4-2.3S48.8,45.5,48.9,45.7C48.8,45.5,48.8,45.6,48.9,45.7L48.9,45.7z"/>
			</g>
			<path id="XMLID_17005_" class="st33" d="M48.9,45.8c0.9,0.5,3,1.7,3.6,2.1c0.1,0,0.2,0.2,0.2,0.2c0.2,0.1,0.1-0.1,0.1-0.2
				c0-0.1,0.2-0.1,0.1-0.2c0,0-0.2,0-0.2-0.1c-0.8-0.4-3.7-2-3.7-2C48.9,45.6,48.9,45.8,48.9,45.8z"/>
		</g>
	</g>
	<g id="XMLID_17013_">
		<g id="XMLID_17014_">
			<path id="XMLID_17022_" class="st30" d="M48.7,44.9l4,2.3l0.1,0.2c0,0,0.2,0.2,0.4,0.1c0.1,0,5.9-3.4,5.9-3.4
				c0.2-0.2,0-0.6-0.5-0.9l0,0l-4-2.3c-0.2-0.1-0.2-0.1-0.4,0l-5.5,3.2V44.9z"/>
			<path class="st31" d="M54.3,41l-5.5,3.2l0,0l4,2.3l0.1,0.2c0,0,0.2,0.2,0.4,0.1c0.1,0,4.7-2.7,5.7-3.3c-0.1-0.1-0.2-0.2-0.3-0.2
				l0,0l-4-2.3C54.5,41,54.4,41,54.3,41z"/>
			<path class="st32" d="M58.7,43.4"/>
			<path class="st32" d="M54.6,41c-0.2-0.1-0.2-0.1-0.4,0l-5.5,3.2v0.1l4,2.3l0.1,0.2c0,0,0.2,0.2,0.4,0.1"/>
			<g id="XMLID_17020_">
				<path id="XMLID_17021_" class="st30" d="M48.9,44.9c-0.1-0.1-0.1,0.2-0.1,0.2c0,0.1,0,0.1,0.1,0.2c0.1,0,3.1,1.8,3.8,2.2
					c0.7,0.5,0.7-0.4,0-0.8c-0.7-0.4-3.8-2.1-3.8-2.2c-0.1-0.1-0.1,0.2-0.1,0.2C48.8,44.7,48.8,44.8,48.9,44.9L48.9,44.9z"/>
			</g>
			<g id="XMLID_17018_">
				<path id="XMLID_17019_" class="st33" d="M48.7,44.5c0,0.1,0.1,0.2,0.1,0.2c-0.2,0.2-0.1,0.3-0.1,0.4c0,0,0.1,0.1,0.2,0.2
					c0.1,0.1,3.2,1.9,3.9,2.3c0.7,0.5,0.9-0.6,0.4-0.9c-0.7-0.4-4.1-2.3-4.2-2.3C48.8,44.2,48.7,44.2,48.7,44.5z"/>
			</g>
			<g id="XMLID_17016_">
				<path id="XMLID_17017_" class="st34" d="M48.9,44.8c-0.1-0.1-0.1,0.1-0.1,0.2c0,0.1,0,0.1,0.1,0.2c0.2,0.1,3.1,1.8,3.8,2.2
					c0.4,0.2,0.6-0.4,0.2-0.6c-0.7-0.4-3.9-2.2-4-2.3S48.8,44.6,48.9,44.8C48.8,44.5,48.8,44.6,48.9,44.8L48.9,44.8z"/>
			</g>
			<path id="XMLID_17015_" class="st33" d="M48.9,44.9c0.9,0.5,3,1.7,3.6,2.1c0.1,0,0.2,0.2,0.2,0.2c0.2,0.1,0.1-0.1,0.1-0.2
				c0-0.1,0.2-0.1,0.1-0.2c0,0-0.2,0-0.2-0.1c-0.8-0.4-3.7-2-3.7-2C48.9,44.7,48.9,44.9,48.9,44.9z"/>
		</g>
	</g>
</g>
<g id="XMLID_16584_">
	<g id="XMLID_16585_">
		<path id="XMLID_16992_" class="st35" d="M24.3,31.3c0,0.1,0,0.1,0.1,0.2L35.6,38c0.2,0.1,0.4,0.1,0.5,0l4.5-2.6
			c0.1,0,0.1-0.1,0.1-0.2c0-0.1,0-0.5,0-0.5c0-0.1,0-0.2-0.1-0.2L29.4,28c-0.2-0.1-0.4-0.1-0.5,0l-4.5,2.6c-0.1,0-0.1,0.1-0.1,0.2
			S24.3,31.2,24.3,31.3z"/>
		<path class="st36" d="M24.4,30.7c0,0.1,0,0.5,0,0.5c0,0.1,0,0.1,0.1,0.2l11.2,6.5c0.1,0.1,0.2,0.1,0.2,0.1v-6.3L29.4,28
			c-0.2-0.1-0.4-0.1-0.5,0l-4.5,2.6C24.3,30.6,24.3,30.6,24.4,30.7z"/>
		<path id="XMLID_16991_" class="st37" d="M24.4,30.9l11.2,6.5c0.2,0.1,0.4,0.1,0.5,0l4.5-2.6c0.2-0.1,0.2-0.2,0-0.3L29.4,28
			c-0.2-0.1-0.4-0.1-0.5,0l-4.5,2.6C24.3,30.6,24.3,30.8,24.4,30.9z"/>
		<g id="XMLID_16586_">
			<g id="XMLID_16895_">
				<g id="XMLID_16964_">
					<g id="XMLID_16978_">
						<g id="XMLID_16985_">
							<g id="XMLID_16986_">
								<g id="XMLID_16987_">
									<g id="XMLID_16988_">
										<path id="XMLID_16990_" class="st36" d="M38.6,34.3C38.6,34.4,38.6,34.4,38.6,34.3l0.4,0.3c0,0,0.1,0,0.2,0l0.2-0.1v-0.1
											v-0.1c0-0.1,0-0.1,0-0.1L38.9,34c0,0-0.1,0-0.2,0L38.6,34.3C38.5,34.1,38.5,34.2,38.6,34.3L38.6,34.3z"/>
										<path id="XMLID_16989_" class="st35" d="M38.6,34l-0.2,0.1c-0.1,0.1-0.1,0.2,0,0.2l0.4,0.2c0,0,0.1,0,0.2,0l0.2-0.1
											c0.1-0.1,0.1-0.2,0-0.2L38.8,34C38.7,33.9,38.7,33.9,38.6,34z"/>
									</g>
								</g>
							</g>
						</g>
						<g id="XMLID_16979_">
							<g id="XMLID_16980_">
								<g id="XMLID_16981_">
									<g id="XMLID_16982_">
										<path id="XMLID_16984_" class="st36" d="M37.8,33.8L37.8,33.8l0.4,0.3c0,0,0.1,0,0.2,0l0.2-0.1l0,0v-0.1
											c0-0.1,0-0.1,0-0.1l-0.4-0.2c0,0-0.1,0-0.2,0L37.8,33.8L37.8,33.8L37.8,33.8z"/>
										<path id="XMLID_16983_" class="st35" d="M37.9,33.6l-0.2,0.1c-0.1,0.1-0.1,0.2,0,0.2l0.4,0.2c0,0,0.1,0,0.2,0l0.2-0.1
											c0.1-0.1,0.1-0.2,0-0.2l-0.4-0.2C38,33.5,37.9,33.5,37.9,33.6z"/>
									</g>
								</g>
							</g>
						</g>
					</g>
					<g id="XMLID_16965_">
						<g id="XMLID_16972_">
							<g id="XMLID_16973_">
								<g id="XMLID_16974_">
									<g id="XMLID_16975_">
										<path id="XMLID_16977_" class="st36" d="M37.1,33.5L37.1,33.5l0.4,0.3c0,0,0.1,0,0.2,0l0.2-0.1v-0.1v-0.1
											c0-0.1,0-0.1,0-0.1l-0.4-0.2c0,0-0.1,0-0.2,0L37.1,33.5L37.1,33.5L37.1,33.5z"/>
										<path id="XMLID_16976_" class="st35" d="M37.2,33.1L37,33.2c-0.1,0.1-0.1,0.2,0,0.2l0.4,0.2c0,0,0.1,0,0.2,0l0.2-0.1
											c0.1-0.1,0.1-0.2,0-0.2l-0.4-0.2C37.3,33.1,37.2,33.1,37.2,33.1z"/>
									</g>
								</g>
							</g>
						</g>
						<g id="XMLID_16966_">
							<g id="XMLID_16967_">
								<g id="XMLID_16968_">
									<g id="XMLID_16969_">
										<path id="XMLID_16971_" class="st36" d="M36.3,33.1L36.3,33.1l0.4,0.3c0,0,0.1,0,0.2,0l0.2-0.1v-0.1v-0.1
											c0-0.1,0-0.1,0-0.1l-0.4-0.2c0,0-0.1,0-0.2,0L36.3,33.1C36.3,32.9,36.2,33,36.3,33.1L36.3,33.1z"/>
										<path id="XMLID_16970_" class="st35" d="M36.5,32.7L36.5,32.7c-0.2,0.2-0.2,0.2-0.1,0.2l0.4,0.2c0,0,0.1,0,0.2,0l0.2-0.1
											c0.1-0.1,0.1-0.2,0-0.2l-0.4-0.2C36.6,32.7,36.5,32.7,36.5,32.7z"/>
									</g>
								</g>
							</g>
						</g>
					</g>
				</g>
				<g id="XMLID_16937_">
					<g id="XMLID_16951_">
						<g id="XMLID_16958_">
							<g id="XMLID_16959_">
								<g id="XMLID_16960_">
									<g id="XMLID_16961_">
										<path id="XMLID_16963_" class="st36" d="M35.6,32.6L35.6,32.6l0.4,0.3c0,0,0.1,0,0.2,0l0.2-0.1v-0.1l0,0
											c0-0.1,0-0.1,0-0.1L36,32.4c0,0-0.1,0-0.2,0L35.6,32.6C35.5,32.5,35.5,32.5,35.6,32.6L35.6,32.6z"/>
										<path id="XMLID_16962_" class="st35" d="M35.8,32.4l-0.2,0.1c-0.1,0.1-0.1,0.2,0,0.2l0.4,0.2c0,0,0.1,0,0.2,0l0.2-0.1
											c0.1-0.1,0.1-0.2,0-0.2L36,32.4C35.9,32.3,35.8,32.3,35.8,32.4z"/>
									</g>
								</g>
							</g>
						</g>
						<g id="XMLID_16952_">
							<g id="XMLID_16953_">
								<g id="XMLID_16954_">
									<g id="XMLID_16955_">
										<path id="XMLID_16957_" class="st36" d="M34.9,32.2C34.9,32.3,34.9,32.3,34.9,32.2l0.4,0.3c0,0,0.1,0,0.2,0l0.2-0.1v-0.1
											v-0.1c0-0.1,0-0.1,0-0.1L35.2,32c0,0-0.1,0-0.2,0L34.9,32.2L34.9,32.2L34.9,32.2z"/>
										<path id="XMLID_16956_" class="st35" d="M35.1,31.9L34.9,32c-0.1,0.1-0.1,0.2,0,0.2l0.4,0.2c0,0,0.1,0,0.2,0l0.2-0.1
											c0.1-0.1,0.1-0.2,0-0.2l-0.4-0.2C35.1,31.9,35.1,31.9,35.1,31.9z"/>
									</g>
								</g>
							</g>
						</g>
					</g>
					<g id="XMLID_16938_">
						<g id="XMLID_16945_">
							<g id="XMLID_16946_">
								<g id="XMLID_16947_">
									<g id="XMLID_16948_">
										<path id="XMLID_16950_" class="st36" d="M34.2,31.8L34.2,31.8l0.4,0.3c0,0,0.1,0,0.2,0L35,32v0v-0.1c0-0.1,0-0.1,0-0.1
											l-0.4-0.2c0,0-0.1,0-0.2,0L34.2,31.8C34.1,31.7,34.1,31.7,34.2,31.8L34.2,31.8z"/>
										<path id="XMLID_16949_" class="st35" d="M34.3,31.5l-0.2,0.1c-0.1,0.1-0.1,0.2,0,0.2l0.4,0.2c0,0,0.1,0,0.2,0l0.2-0.1
											c0.1-0.1,0.1-0.2,0-0.2l-0.4-0.2C34.4,31.5,34.3,31.5,34.3,31.5z"/>
									</g>
								</g>
							</g>
						</g>
						<g id="XMLID_16939_">
							<g id="XMLID_16940_">
								<g id="XMLID_16941_">
									<g id="XMLID_16942_">
										<path id="XMLID_16944_" class="st36" d="M33.4,31.4L33.4,31.4l0.4,0.3c0,0,0.1,0,0.2,0l0.2-0.1v-0.1v-0.1
											c0-0.1,0-0.1,0-0.1l-0.4-0.2c0,0-0.1,0-0.2,0L33.4,31.4C33.4,31.3,33.4,31.3,33.4,31.4L33.4,31.4z"/>
										<path id="XMLID_16943_" class="st35" d="M33.6,31.1L33.6,31.1c-0.2,0.2-0.2,0.2-0.1,0.2l0.4,0.2c0,0,0.1,0,0.2,0l0.2-0.1
											c0.1-0.1,0.1-0.2,0-0.2L33.9,31C33.7,31,33.6,31,33.6,31.1z"/>
									</g>
								</g>
							</g>
						</g>
					</g>
				</g>
				<g id="XMLID_16910_">
					<g id="XMLID_16924_">
						<g id="XMLID_16931_">
							<g id="XMLID_16932_">
								<g id="XMLID_16933_">
									<g id="XMLID_16934_">
										<path id="XMLID_16936_" class="st36" d="M32.7,31L32.7,31l0.4,0.3c0,0,0.1,0,0.2,0l0.2-0.1v-0.1V31c0-0.1,0-0.1,0-0.1
											L33,30.7c0,0-0.1,0-0.2,0L32.7,31C32.7,30.9,32.7,30.9,32.7,31L32.7,31z"/>
										<path id="XMLID_16935_" class="st35" d="M32.9,30.6l-0.2,0.1c-0.1,0.1-0.1,0.2,0,0.2l0.4,0.2c0,0,0.1,0,0.2,0l0.2-0.1
											c0.1-0.1,0.1-0.2,0-0.2l-0.4-0.2C33,30.6,32.9,30.6,32.9,30.6z"/>
									</g>
								</g>
							</g>
						</g>
						<g id="XMLID_16925_">
							<g id="XMLID_16926_">
								<g id="XMLID_16927_">
									<g id="XMLID_16928_">
										<path id="XMLID_16930_" class="st36" d="M32.1,30.6L32.1,30.6l0.4,0.3c0,0,0.1,0,0.2,0l0.2-0.1v-0.1v-0.1
											c0-0.1,0-0.1,0-0.1l-0.5-0.2c0,0-0.1,0-0.2,0L32,30.5c0-0.1,0,0,0,0L32.1,30.6z"/>
										<path id="XMLID_16929_" class="st35" d="M32.2,30.2L32,30.3c-0.1,0.1-0.1,0.2,0,0.2l0.4,0.2c0,0,0.1,0,0.2,0l0.2-0.1
											c0.1-0.1,0.1-0.2,0-0.2L32.2,30.2L32.2,30.2z"/>
									</g>
								</g>
							</g>
						</g>
					</g>
					<g id="XMLID_16911_">
						<g id="XMLID_16918_">
							<g id="XMLID_16919_">
								<g id="XMLID_16920_">
									<g id="XMLID_16921_">
										<path id="XMLID_16923_" class="st36" d="M31.3,30.2L31.3,30.2l0.4,0.3c0,0,0.1,0,0.2,0l0.2-0.1v-0.1v-0.1
											c0-0.1,0-0.1,0-0.1l-0.4-0.2c0,0-0.1,0-0.2,0L31.3,30.2C31.2,30,31.2,30,31.3,30.2L31.3,30.2z"/>
										<path id="XMLID_16922_" class="st35" d="M31.5,29.9L31.3,30c-0.1,0.1-0.1,0.2,0,0.2l0.4,0.2c0,0,0.1,0,0.2,0l0.2-0.1
											c0.1-0.1,0.1-0.2,0-0.2l-0.4-0.2C31.6,29.8,31.5,29.8,31.5,29.9z"/>
									</g>
								</g>
							</g>
						</g>
						<g id="XMLID_16912_">
							<g id="XMLID_16913_">
								<g id="XMLID_16914_">
									<g id="XMLID_16915_">
										<path id="XMLID_16917_" class="st36" d="M30.6,29.7L30.6,29.7L31,30c0,0,0.1,0,0.2,0l0.2-0.1v-0.1v-0.1c0-0.1,0-0.1,0-0.1
											L31,29.4c0,0-0.1,0-0.2,0L30.6,29.7L30.6,29.7L30.6,29.7z"/>
										<path id="XMLID_16916_" class="st35" d="M30.8,29.4l-0.2,0.1c-0.1,0.1-0.1,0.2,0,0.2l0.4,0.2c0,0,0.1,0,0.2,0l0.2-0.1
											c0.1-0.1,0.1-0.2,0-0.2L31,29.4C30.8,29.4,30.8,29.4,30.8,29.4z"/>
									</g>
								</g>
							</g>
						</g>
					</g>
				</g>
				<g id="XMLID_16896_">
					<g id="XMLID_16897_">
						<g id="XMLID_16904_">
							<g id="XMLID_16905_">
								<g id="XMLID_16906_">
									<g id="XMLID_16907_">
										<path id="XMLID_16909_" class="st36" d="M29.9,29.3L29.9,29.3l0.4,0.3c0,0,0.1,0,0.2,0l0.2-0.1v-0.1v-0.1
											c0-0.1,0-0.1,0-0.1L30.3,29c0,0-0.1,0-0.2,0L29.9,29.3C29.8,29.2,29.8,29.2,29.9,29.3L29.9,29.3z"/>
										<path id="XMLID_16908_" class="st35" d="M30,29l-0.2,0.1c-0.1,0.1-0.1,0.2,0,0.2l0.4,0.2c0,0,0.1,0,0.2,0l0.2-0.1
											c0.1-0.1,0.1-0.2,0-0.2L30.2,29C30.1,29,30,29,30,29z"/>
									</g>
								</g>
							</g>
						</g>
						<g id="XMLID_16898_">
							<g id="XMLID_16899_">
								<g id="XMLID_16900_">
									<g id="XMLID_16901_">
										<path id="XMLID_16903_" class="st36" d="M29.2,28.9L29.2,28.9l0.4,0.3c0,0,0.1,0,0.2,0l0.2-0.1V29v0c0-0.1,0-0.1,0-0.1
											l-0.4-0.2c0,0-0.1,0-0.2,0L29.2,28.9C29.1,28.8,29.1,28.8,29.2,28.9L29.2,28.9z"/>
										<path id="XMLID_16902_" class="st35" d="M29.3,28.6l-0.2,0.1c-0.1,0.1-0.1,0.2,0,0.2l0.4,0.2c0,0,0.1,0,0.2,0l0.2-0.1
											c0.1-0.1,0.1-0.2,0-0.2l-0.4-0.2C29.4,28.5,29.3,28.5,29.3,28.6z"/>
									</g>
								</g>
							</g>
						</g>
					</g>
				</g>
			</g>
			<g id="XMLID_16830_">
				<g id="XMLID_16886_">
					<g id="XMLID_16891_">
						<g id="XMLID_16892_">
							<path id="XMLID_16894_" class="st36" d="M29.4,29.9L29.4,29.9l0.4,0.3c0,0,0.1,0,0.2,0l0.4-0.2v-0.1v-0.1c0-0.1,0-0.1,0-0.1
								L30,29.5c0,0-0.1,0-0.2,0L29.4,29.9C29.3,29.7,29.3,29.8,29.4,29.9L29.4,29.9z"/>
							<path id="XMLID_16893_" class="st35" d="M29.8,29.4l-0.4,0.2c-0.1,0.1-0.1,0.2,0,0.2l0.4,0.2c0,0,0.1,0,0.2,0l0.4-0.2
								c0.1-0.1,0.1-0.2,0-0.2L30,29.4C29.9,29.4,29.8,29.4,29.8,29.4z"/>
						</g>
					</g>
					<g id="XMLID_16887_">
						<g id="XMLID_16888_">
							<path id="XMLID_16890_" class="st36" d="M30,30.2C30,30.3,30,30.3,30,30.2l0.4,0.3c0,0,0.1,0,0.2,0l0.4-0.2v-0.1v-0.1
								c0-0.1,0-0.1,0-0.1l-0.4-0.2c0,0-0.1,0-0.2,0L30,30.2C30,30.1,30,30.2,30,30.2L30,30.2z"/>
							<path id="XMLID_16889_" class="st35" d="M30.4,29.8L30.1,30c-0.1,0.1-0.1,0.2,0,0.2l0.4,0.2c0,0,0.1,0,0.2,0l0.4-0.2
								c0.1-0.1,0.1-0.2,0-0.2l-0.4-0.2C30.6,29.8,30.5,29.8,30.4,29.8z"/>
						</g>
					</g>
				</g>
				<g id="XMLID_16881_">
					<g id="XMLID_16882_">
						<g id="XMLID_16883_">
							<path id="XMLID_16885_" class="st36" d="M28.5,29.3C28.5,29.4,28.5,29.4,28.5,29.3l0.6,0.5c0,0,0.1,0,0.2,0l0.4-0.2v-0.1
								v-0.1c0-0.1,0-0.1,0-0.1L29,28.9c0,0-0.1,0-0.2,0L28.5,29.3C28.4,29.2,28.4,29.2,28.5,29.3L28.5,29.3z"/>
							<path id="XMLID_16884_" class="st35" d="M28.8,28.8L28.5,29c-0.1,0.1-0.1,0.2,0,0.2l0.6,0.4c0,0,0.1,0,0.2,0l0.4-0.2
								c0.1-0.1,0.1-0.2,0-0.2L29,28.8C29,28.8,28.9,28.8,28.8,28.8z"/>
						</g>
					</g>
				</g>
				<g id="XMLID_16872_">
					<g id="XMLID_16877_">
						<g id="XMLID_16878_">
							<path id="XMLID_16880_" class="st36" d="M30.8,30.6C30.8,30.7,30.8,30.7,30.8,30.6l0.4,0.3c0,0,0.1,0,0.2,0l0.4-0.2v-0.1
								v-0.1c0-0.1,0-0.1,0-0.1l-0.4-0.2c0,0-0.1,0-0.2,0L30.8,30.6L30.8,30.6L30.8,30.6z"/>
							<path id="XMLID_16879_" class="st35" d="M31.2,30.2l-0.4,0.2c-0.1,0.1-0.1,0.2,0,0.2l0.4,0.2c0,0,0.1,0,0.2,0l0.4-0.2
								c0.1-0.1,0.1-0.2,0-0.2l-0.4-0.2C31.3,30.2,31.2,30.2,31.2,30.2z"/>
						</g>
					</g>
					<g id="XMLID_16873_">
						<g id="XMLID_16874_">
							<path id="XMLID_16876_" class="st36" d="M31.5,31C31.5,31.1,31.5,31.1,31.5,31l0.4,0.3c0,0,0.1,0,0.2,0l0.4-0.2V31l0,0
								c0-0.1,0-0.1,0-0.1l-0.4-0.2c0,0-0.1,0-0.2,0L31.5,31L31.5,31L31.5,31z"/>
							<path id="XMLID_16875_" class="st35" d="M31.9,30.6l-0.4,0.2c-0.1,0.1-0.1,0.2,0,0.2l0.4,0.2c0,0,0.1,0,0.2,0l0.4-0.2
								c0.1-0.1,0.1-0.2,0-0.2l-0.4-0.2C32,30.6,31.9,30.6,31.9,30.6z"/>
						</g>
					</g>
				</g>
				<g id="XMLID_16863_">
					<g id="XMLID_16868_">
						<g id="XMLID_16869_">
							<path id="XMLID_16871_" class="st36" d="M32.2,31.5C32.2,31.6,32.2,31.6,32.2,31.5l0.4,0.3c0,0,0.1,0,0.2,0l0.4-0.2v-0.1
								v-0.1c0-0.1,0-0.1,0-0.1l-0.4-0.2c0,0-0.1,0-0.2,0L32.2,31.5C32.2,31.3,32.2,31.3,32.2,31.5L32.2,31.5z"/>
							<path id="XMLID_16870_" class="st35" d="M32.6,31l-0.4,0.2c-0.1,0.1-0.1,0.2,0,0.2l0.4,0.2c0,0,0.1,0,0.2,0l0.4-0.2
								c0.1-0.1,0.1-0.2,0-0.2L32.8,31C32.7,31,32.6,31,32.6,31z"/>
						</g>
					</g>
					<g id="XMLID_16864_">
						<g id="XMLID_16865_">
							<path id="XMLID_16867_" class="st36" d="M32.9,31.9C32.9,32,32.9,32,32.9,31.9l0.4,0.3c0,0,0.1,0,0.2,0l0.4-0.2v-0.1v-0.1
								c0-0.1,0-0.1,0-0.1l-0.4-0.2c0,0-0.1,0-0.2,0L32.9,31.9C32.9,31.7,32.9,31.7,32.9,31.9L32.9,31.9z"/>
							<path id="XMLID_16866_" class="st35" d="M33.3,31.4l-0.4,0.2c-0.1,0.1-0.1,0.2,0,0.2l0.4,0.2c0,0,0.1,0,0.2,0l0.4-0.2
								c0.1-0.1,0.1-0.2,0-0.2l-0.4-0.2C33.4,31.4,33.3,31.4,33.3,31.4z"/>
						</g>
					</g>
				</g>
				<g id="XMLID_16854_">
					<g id="XMLID_16859_">
						<g id="XMLID_16860_">
							<path id="XMLID_16862_" class="st36" d="M33.6,32.3C33.6,32.4,33.6,32.4,33.6,32.3l0.4,0.3c0,0,0.1,0,0.2,0l0.4-0.2v-0.1
								v-0.1c0-0.1,0-0.1,0-0.1l-0.4-0.2c0,0-0.1,0-0.2,0L33.6,32.3C33.6,32.1,33.5,32.2,33.6,32.3L33.6,32.3z"/>
							<path id="XMLID_16861_" class="st35" d="M34,31.8L33.6,32c-0.1,0.1-0.1,0.2,0,0.2l0.4,0.2c0,0,0.1,0,0.2,0l0.4-0.2
								c0.1-0.1,0.1-0.2,0-0.2l-0.4-0.2C34.1,31.8,34,31.8,34,31.8z"/>
						</g>
					</g>
					<g id="XMLID_16855_">
						<g id="XMLID_16856_">
							<path id="XMLID_16858_" class="st36" d="M34.3,32.7L34.3,32.7l0.4,0.3c0,0,0.1,0,0.2,0l0.4-0.2v-0.1v-0.1c0-0.1,0-0.1,0-0.1
								l-0.4-0.2c0,0-0.1,0-0.2,0L34.3,32.7C34.3,32.6,34.2,32.6,34.3,32.7L34.3,32.7z"/>
							<path id="XMLID_16857_" class="st35" d="M34.7,32.2l-0.4,0.2c-0.1,0.1-0.1,0.2,0,0.2l0.4,0.2c0,0,0.1,0,0.2,0l0.4-0.2
								c0.1-0.1,0.1-0.2,0-0.2l-0.4-0.2C34.8,32.2,34.7,32.2,34.7,32.2z"/>
						</g>
					</g>
				</g>
				<g id="XMLID_16845_">
					<g id="XMLID_16850_">
						<g id="XMLID_16851_">
							<path id="XMLID_16853_" class="st36" d="M35,33.1C35,33.2,35,33.2,35,33.1l0.4,0.3c0,0,0.1,0,0.2,0l0.4-0.2v-0.1V33
								c0-0.1,0-0.1,0-0.1l-0.4-0.2c0,0-0.1,0-0.2,0L35,33.1C35,33,34.9,33,35,33.1L35,33.1z"/>
							<path id="XMLID_16852_" class="st35" d="M35.4,32.7L35,32.9c-0.1,0.1-0.1,0.2,0,0.2l0.4,0.2c0,0,0.1,0,0.2,0l0.4-0.2
								c0.1-0.1,0.1-0.2,0-0.2l-0.4-0.2C35.5,32.6,35.4,32.6,35.4,32.7z"/>
						</g>
					</g>
					<g id="XMLID_16846_">
						<g id="XMLID_16847_">
							<path id="XMLID_16849_" class="st36" d="M35.8,33.5C35.8,33.6,35.8,33.6,35.8,33.5l0.4,0.3c0,0,0.1,0,0.2,0l0.4-0.2v-0.1
								v-0.1c0-0.1,0-0.1,0-0.1L36.3,33c0,0-0.1,0-0.2,0l-0.5,0.3c0.1,0,0,0,0,0L35.8,33.5z"/>
							<path id="XMLID_16848_" class="st35" d="M36.1,33.1l-0.4,0.2c-0.1,0.1-0.1,0.2,0,0.2l0.4,0.2c0,0,0.1,0,0.2,0l0.4-0.2
								c0.1-0.1,0.1-0.2,0-0.2L36.1,33.1C36.2,33,36.1,33,36.1,33.1z"/>
						</g>
					</g>
				</g>
				<g id="XMLID_16836_">
					<g id="XMLID_16841_">
						<g id="XMLID_16842_">
							<path id="XMLID_16844_" class="st36" d="M36.4,33.9C36.4,34,36.4,34,36.4,33.9l0.4,0.3c0,0,0.1,0,0.2,0l0.4-0.2v-0.1v-0.1
								c0-0.1,0-0.1,0-0.1L37,33.5c0,0-0.1,0-0.2,0L36.4,33.9C36.4,33.8,36.3,33.8,36.4,33.9L36.4,33.9z"/>
							<path id="XMLID_16843_" class="st35" d="M36.8,33.5l-0.4,0.2c-0.1,0.1-0.1,0.2,0,0.2l0.4,0.2c0,0,0.1,0,0.2,0l0.4-0.2
								c0.1-0.1,0.1-0.2,0-0.2L37,33.5C36.9,33.5,36.8,33.5,36.8,33.5z"/>
						</g>
					</g>
					<g id="XMLID_16837_">
						<g id="XMLID_16838_">
							<path id="XMLID_16840_" class="st36" d="M37.1,34.3C37.1,34.4,37.1,34.4,37.1,34.3l0.4,0.3c0,0,0.1,0,0.2,0l0.4-0.2v-0.1
								v-0.1c0-0.1,0-0.1,0-0.1l-0.4-0.2c0,0-0.1,0-0.2,0L37.1,34.3C37.1,34.2,37,34.2,37.1,34.3L37.1,34.3z"/>
							<path id="XMLID_16839_" class="st35" d="M37.5,33.8L37.1,34c-0.1,0.1-0.1,0.2,0,0.2l0.4,0.2c0,0,0.1,0,0.2,0l0.4-0.2
								c0.1-0.1,0.1-0.2,0-0.2l-0.4-0.2C37.6,33.8,37.6,33.8,37.5,33.8z"/>
						</g>
					</g>
				</g>
				<g id="XMLID_16831_">
					<g id="XMLID_16832_">
						<g id="XMLID_16833_">
							<path id="XMLID_16835_" class="st36" d="M37.8,34.7C37.8,34.8,37.8,34.8,37.8,34.7l0.4,0.3c0,0,0.1,0,0.2,0l0.4-0.2v-0.1
								v-0.1c0-0.1,0-0.1,0-0.1l-0.4-0.2c0,0-0.1,0-0.2,0L37.8,34.7C37.8,34.5,37.7,34.6,37.8,34.7L37.8,34.7z"/>
							<path id="XMLID_16834_" class="st35" d="M38.2,34.2l-0.4,0.2c-0.1,0.1-0.1,0.2,0,0.2l0.4,0.2c0,0,0.1,0,0.2,0l0.4-0.2
								c0.1-0.1,0.1-0.2,0-0.2l-0.4-0.2C38.3,34.2,38.3,34.2,38.2,34.2z"/>
						</g>
					</g>
				</g>
			</g>
			<g id="XMLID_16766_">
				<g id="XMLID_16825_">
					<g id="XMLID_16826_">
						<g id="XMLID_16827_">
							<path id="XMLID_16829_" class="st36" d="M36.8,34.9C36.8,35,36.8,35,36.8,34.9l0.6,0.5c0,0,0.1,0,0.2,0l0.4-0.2v-0.1V35
								c0-0.1,0-0.1,0-0.1l-0.6-0.4c0,0-0.1,0-0.2,0L36.8,34.9L36.8,34.9L36.8,34.9z"/>
							<path id="XMLID_16828_" class="st35" d="M37.2,34.5l-0.4,0.2c-0.1,0.1-0.1,0.2,0,0.2l0.6,0.4c0,0,0.1,0,0.2,0l0.4-0.2
								c0.1-0.1,0.1-0.2,0-0.2l-0.6-0.4C37.4,34.5,37.3,34.5,37.2,34.5z"/>
						</g>
					</g>
				</g>
				<g id="XMLID_16770_">
					<g id="XMLID_16821_">
						<g id="XMLID_16822_">
							<path id="XMLID_16824_" class="st36" d="M28.5,30.1C28.5,30.2,28.5,30.2,28.5,30.1l0.4,0.3c0,0,0.1,0,0.2,0l0.4-0.2v-0.1V30
								c0-0.1,0-0.1,0-0.1L29,29.7c0,0-0.1,0-0.2,0L28.5,30.1C28.4,29.9,28.4,30,28.5,30.1L28.5,30.1z"/>
							<path id="XMLID_16823_" class="st35" d="M28.8,29.6l-0.3,0.2c-0.1,0.1-0.1,0.2,0,0.2l0.4,0.2c0,0,0.1,0,0.2,0l0.4-0.2
								c0.1-0.1,0.1-0.2,0-0.2L29,29.6C29,29.6,28.9,29.6,28.8,29.6z"/>
						</g>
					</g>
					<g id="XMLID_16812_">
						<g id="XMLID_16817_">
							<g id="XMLID_16818_">
								<path id="XMLID_16820_" class="st36" d="M29.2,30.4v0.2c0,0.1,0,0.1,0,0.1l0.4,0.2c0,0,0.1,0,0.2,0l0.4-0.2v-0.1v-0.1
									c0-0.1,0-0.1,0-0.1l-0.4-0.3c0,0-0.1,0-0.2,0L29.2,30.4L29.2,30.4L29.2,30.4z"/>
								<path id="XMLID_16819_" class="st35" d="M29.6,30.1l-0.4,0.2c-0.1,0.1-0.1,0.2,0,0.2l0.4,0.2c0,0,0.1,0,0.2,0l0.4-0.2
									c0.1-0.1,0.1-0.2,0-0.2l-0.4-0.2C29.7,30,29.6,30,29.6,30.1z"/>
							</g>
						</g>
						<g id="XMLID_16813_">
							<g id="XMLID_16814_">
								<path id="XMLID_16816_" class="st36" d="M29.9,30.9C29.9,31,29.9,31,29.9,30.9l0.4,0.3c0,0,0.1,0,0.2,0l0.4-0.2v-0.1v-0.1
									c0-0.1,0-0.1,0-0.1l-0.4-0.2c0,0-0.1,0-0.2,0L29.9,30.9L29.9,30.9L29.9,30.9z"/>
								<path id="XMLID_16815_" class="st35" d="M30.3,30.5l-0.4,0.2c-0.1,0.1-0.1,0.2,0,0.2l0.4,0.2c0,0,0.1,0,0.2,0l0.4-0.2
									c0.1-0.1,0.1-0.2,0-0.2l-0.4-0.2C30.4,30.4,30.3,30.4,30.3,30.5z"/>
							</g>
						</g>
					</g>
					<g id="XMLID_16803_">
						<g id="XMLID_16808_">
							<g id="XMLID_16809_">
								<path id="XMLID_16811_" class="st36" d="M30.6,31.3C30.6,31.4,30.6,31.4,30.6,31.3l0.4,0.3c0,0,0.1,0,0.2,0l0.4-0.2v-0.1
									v-0.1c0-0.1,0-0.1,0-0.1L31.1,31c0,0-0.1,0-0.2,0L30.6,31.3C30.5,31.2,30.5,31.2,30.6,31.3L30.6,31.3z"/>
								<path id="XMLID_16810_" class="st35" d="M31,30.9l-0.4,0.2c-0.1,0.1-0.1,0.2,0,0.2l0.4,0.2c0,0,0.1,0,0.2,0l0.4-0.2
									c0.1-0.1,0.1-0.2,0-0.2l-0.4-0.2C31.1,30.9,31,30.9,31,30.9z"/>
							</g>
						</g>
						<g id="XMLID_16804_">
							<g id="XMLID_16805_">
								<path id="XMLID_16807_" class="st36" d="M31.3,31.7C31.3,31.8,31.3,31.8,31.3,31.7l0.4,0.3c0,0,0.1,0,0.2,0l0.4-0.2v-0.1
									v-0.1c0-0.1,0-0.1,0-0.1l-0.4-0.2c0,0-0.1,0-0.2,0L31.3,31.7C31.2,31.6,31.2,31.6,31.3,31.7L31.3,31.7z"/>
								<path id="XMLID_16806_" class="st35" d="M31.7,31.3l-0.4,0.2c-0.1,0.1-0.1,0.2,0,0.2l0.4,0.2c0,0,0.1,0,0.2,0l0.4-0.2
									c0.1-0.1,0.1-0.2,0-0.2l-0.4-0.2C31.8,31.3,31.7,31.3,31.7,31.3z"/>
							</g>
						</g>
					</g>
					<g id="XMLID_16794_">
						<g id="XMLID_16799_">
							<g id="XMLID_16800_">
								<path id="XMLID_16802_" class="st36" d="M32,32.1C32,32.2,32,32.2,32,32.1l0.4,0.3c0,0,0.1,0,0.2,0l0.4-0.2v-0.1V32
									c0-0.1,0-0.1,0-0.1l-0.4-0.2c0,0-0.1,0-0.2,0L32,32.1C31.9,32,31.9,32,32,32.1L32,32.1z"/>
								<path id="XMLID_16801_" class="st35" d="M32.4,31.7L32,31.9C31.9,32,31.9,32,32,32l0.4,0.2c0,0,0.1,0,0.2,0L33,32
									c0.1-0.1,0.1-0.2,0-0.2l-0.4-0.2C32.5,31.7,32.4,31.7,32.4,31.7z"/>
							</g>
						</g>
						<g id="XMLID_16795_">
							<g id="XMLID_16796_">
								<path id="XMLID_16798_" class="st36" d="M32.7,32.5C32.7,32.6,32.7,32.6,32.7,32.5l0.4,0.3c0,0,0.1,0,0.2,0l0.4-0.2v-0.1
									v-0.1c0-0.1,0-0.1,0-0.1l-0.4-0.2c0,0-0.1,0-0.2,0L32.7,32.5L32.7,32.5L32.7,32.5z"/>
								<path id="XMLID_16797_" class="st35" d="M33.1,32.1l-0.4,0.2c-0.1,0.1-0.1,0.2,0,0.2l0.4,0.2c0,0,0.1,0,0.2,0l0.4-0.2
									c0.1-0.1,0.1-0.2,0-0.2l-0.4-0.2C33.2,32,33.1,32,33.1,32.1z"/>
							</g>
						</g>
					</g>
					<g id="XMLID_16785_">
						<g id="XMLID_16790_">
							<g id="XMLID_16791_">
								<path id="XMLID_16793_" class="st36" d="M33.4,33C33.4,33.1,33.4,33.1,33.4,33l0.4,0.3c0,0,0.1,0,0.2,0l0.4-0.2V33v-0.1
									c0-0.1,0-0.1,0-0.1l-0.5-0.3c0,0-0.1,0-0.2,0l-0.5,0.3c0.1,0,0.1,0,0,0L33.4,33z"/>
								<path id="XMLID_16792_" class="st35" d="M33.8,32.5l-0.4,0.2c-0.1,0.1-0.1,0.2,0,0.2l0.4,0.2c0,0,0.1,0,0.2,0l0.4-0.2
									c0.1-0.1,0.1-0.2,0-0.2L34,32.5C33.9,32.4,33.8,32.4,33.8,32.5z"/>
							</g>
						</g>
						<g id="XMLID_16786_">
							<g id="XMLID_16787_">
								<path id="XMLID_16789_" class="st36" d="M34,33.4C34,33.5,34,33.5,34,33.4l0.4,0.3c0,0,0.1,0,0.2,0l0.4-0.2v-0.1v-0.1
									c0-0.1,0-0.1,0-0.1L34.6,33c0,0-0.1,0-0.2,0L34,33.4C34,33.2,34,33.2,34,33.4L34,33.4z"/>
								<path id="XMLID_16788_" class="st35" d="M34.5,32.9l-0.4,0.2c-0.1,0.1-0.1,0.2,0,0.2l0.4,0.2c0,0,0.1,0,0.2,0l0.4-0.2
									c0.1-0.1,0.1-0.2,0-0.2l-0.4-0.2C34.6,32.8,34.5,32.8,34.5,32.9z"/>
							</g>
						</g>
					</g>
					<g id="XMLID_16776_">
						<g id="XMLID_16781_">
							<g id="XMLID_16782_">
								<path id="XMLID_16784_" class="st36" d="M34.7,33.8L34.7,33.8l0.4,0.3c0,0,0.1,0,0.2,0l0.4-0.2v-0.1v-0.1c0-0.1,0-0.1,0-0.1
									l-0.4-0.2c0,0-0.1,0-0.2,0L34.7,33.8C34.7,33.6,34.7,33.6,34.7,33.8L34.7,33.8z"/>
								<path id="XMLID_16783_" class="st35" d="M35.1,33.3l-0.3,0.2c-0.1,0.1-0.1,0.2,0,0.2l0.4,0.2c0,0,0.1,0,0.2,0l0.4-0.2
									c0.1-0.1,0.1-0.2,0-0.2l-0.5-0.2C35.3,33.3,35.2,33.3,35.1,33.3z"/>
							</g>
						</g>
						<g id="XMLID_16777_">
							<g id="XMLID_16778_">
								<path id="XMLID_16780_" class="st36" d="M35.4,34.2L35.4,34.2l0.4,0.3c0,0,0.1,0,0.2,0l0.4-0.2v-0.1v-0.1c0-0.1,0-0.1,0-0.1
									L36,33.8c0,0-0.1,0-0.2,0L35.4,34.2C35.4,34,35.4,34.1,35.4,34.2L35.4,34.2z"/>
								<path id="XMLID_16779_" class="st35" d="M35.8,33.7l-0.4,0.2c-0.1,0.1-0.1,0.2,0,0.2l0.4,0.2c0,0,0.1,0,0.2,0l0.4-0.2
									c0.1-0.1,0.1-0.2,0-0.2L36,33.7C36,33.7,35.9,33.7,35.8,33.7z"/>
							</g>
						</g>
					</g>
					<g id="XMLID_16771_">
						<g id="XMLID_16772_">
							<g id="XMLID_16773_">
								<path id="XMLID_16775_" class="st36" d="M36.1,34.5C36.1,34.6,36.1,34.6,36.1,34.5l0.4,0.3c0,0,0.1,0,0.2,0l0.4-0.2v-0.1
									v-0.1c0-0.1,0-0.1,0-0.1l-0.4-0.2c0,0-0.1,0-0.2,0L36.1,34.5L36.1,34.5L36.1,34.5z"/>
								<path id="XMLID_16774_" class="st35" d="M36.5,34.1l-0.4,0.2c-0.1,0.1-0.1,0.2,0,0.2l0.4,0.2c0,0,0.1,0,0.2,0l0.4-0.2
									c0.1-0.1,0.1-0.2,0-0.2l-0.4-0.2C36.7,34.1,36.6,34.1,36.5,34.1z"/>
							</g>
						</g>
					</g>
				</g>
				<g id="XMLID_16767_">
					<path id="XMLID_16769_" class="st36" d="M26.9,30.1C26.9,30.2,26.9,30.2,26.9,30.1l0.3,0.2c0,0,0.1,0,0.2,0L28,30h0.1
						c0.1,0,0.1,0,0.2,0l0.4-0.2v-0.1v-0.1c0-0.1,0-0.1,0-0.1l-0.4-0.2c0,0-0.1,0-0.2,0L26.9,30.1C27,29.9,27,30,26.9,30.1
						L26.9,30.1z"/>
					<path id="XMLID_16768_" class="st35" d="M26.9,30l0.3,0.2c0,0,0.1,0,0.2,0l0.6-0.3h0.1c0.1,0,0.1,0,0.2,0l0.4-0.2
						c0.1-0.1,0.1-0.2,0-0.2l-0.4-0.2c0,0-0.1,0-0.2,0l-0.3,0.2l0,0L27,29.9C27,29.9,27,30,26.9,30z"/>
				</g>
			</g>
			<g id="XMLID_16705_">
				<g id="XMLID_16760_">
					<g id="XMLID_16761_">
						<g id="XMLID_16762_">
							<g id="XMLID_16763_">
								<path id="XMLID_16765_" class="st36" d="M36.1,35.3C36.1,35.4,36.1,35.4,36.1,35.3l0.8,0.5c0,0,0.1,0,0.2,0l0.4-0.2v-0.1
									v-0.1c0-0.1,0-0.1,0-0.1l-0.8-0.5c0,0-0.1,0-0.2,0L36.1,35.3C36,35.2,36,35.2,36.1,35.3L36.1,35.3z"/>
								<path id="XMLID_16764_" class="st35" d="M36.5,34.9l-0.4,0.2c-0.1,0.1-0.1,0.2,0,0.2l0.8,0.5c0,0,0.1,0,0.2,0l0.4-0.2
									c0.1-0.1,0.1-0.2,0-0.2l-0.8-0.5C36.5,34.9,36.5,34.9,36.5,34.9z"/>
							</g>
						</g>
					</g>
				</g>
				<g id="XMLID_16756_">
					<g id="XMLID_16757_">
						<path id="XMLID_16759_" class="st36" d="M27.6,30.4C27.6,30.5,27.6,30.5,27.6,30.4l0.4,0.3c0,0,0.1,0,0.2,0l0.4-0.2v-0.1v-0.1
							c0-0.1,0-0.1,0-0.1L28.2,30c0,0-0.1,0-0.2,0L27.6,30.4L27.6,30.4L27.6,30.4z"/>
						<path id="XMLID_16758_" class="st35" d="M28,30l-0.4,0.2c-0.1,0.1-0.1,0.2,0,0.2l0.4,0.2c0,0,0.1,0,0.2,0l0.4-0.2
							c0.1-0.1,0.1-0.2,0-0.2L28.2,30C28.1,29.9,28.1,29.9,28,30z"/>
					</g>
				</g>
				<g id="XMLID_16747_">
					<g id="XMLID_16752_">
						<g id="XMLID_16753_">
							<path id="XMLID_16755_" class="st36" d="M28.3,30.8C28.3,30.9,28.3,30.9,28.3,30.8l0.4,0.3c0,0,0.1,0,0.2,0l0.4-0.2v-0.1
								v-0.1c0-0.1,0-0.1,0-0.1l-0.4-0.2c0,0-0.1,0-0.2,0L28.3,30.8L28.3,30.8L28.3,30.8z"/>
							<path id="XMLID_16754_" class="st35" d="M28.7,30.4l-0.4,0.2c-0.1,0.1-0.1,0.2,0,0.2l0.4,0.2c0,0,0.1,0,0.2,0l0.4-0.2
								c0.1-0.1,0.1-0.2,0-0.2l-0.4-0.2C28.8,30.3,28.8,30.3,28.7,30.4z"/>
						</g>
					</g>
					<g id="XMLID_16748_">
						<g id="XMLID_16749_">
							<path id="XMLID_16751_" class="st36" d="M29,31.3L29,31.3l0.4,0.3c0,0,0.1,0,0.2,0l0.4-0.2v-0.1v-0.1c0-0.1,0-0.1,0-0.1
								l-0.4-0.2c0,0-0.1,0-0.2,0L29,31.3C29,31.1,29,31.1,29,31.3L29,31.3z"/>
							<path id="XMLID_16750_" class="st35" d="M29.4,30.8L29,31c-0.1,0.1-0.1,0.2,0,0.2l0.4,0.2c0,0,0.1,0,0.2,0l0.4-0.2
								c0-0.1,0-0.2,0-0.2l-0.4-0.2C29.5,30.8,29.4,30.8,29.4,30.8z"/>
						</g>
					</g>
				</g>
				<g id="XMLID_16738_">
					<g id="XMLID_16743_">
						<g id="XMLID_16744_">
							<path id="XMLID_16746_" class="st36" d="M29.7,31.7L29.7,31.7l0.4,0.3c0,0,0.1,0,0.2,0l0.4-0.2v-0.1v-0.1c0-0.1,0-0.1,0-0.1
								l-0.4-0.2c0,0-0.1,0-0.2,0L29.7,31.7C29.7,31.5,29.7,31.6,29.7,31.7L29.7,31.7z"/>
							<path id="XMLID_16745_" class="st35" d="M30.1,31.2l-0.4,0.2c-0.1,0.1-0.1,0.2,0,0.2l0.4,0.2c0,0,0.1,0,0.2,0l0.4-0.2
								c0.1-0.1,0.1-0.2,0-0.2l-0.4-0.2C30.2,31.2,30.1,31.2,30.1,31.2z"/>
						</g>
					</g>
					<g id="XMLID_16739_">
						<g id="XMLID_16740_">
							<path id="XMLID_16742_" class="st36" d="M30.4,32C30.4,32.1,30.4,32.1,30.4,32l0.4,0.3c0,0,0.1,0,0.2,0l0.4-0.2V32l0,0
								c0-0.1,0-0.1,0-0.1L31,31.7c0,0-0.1,0-0.2,0L30.4,32C30.4,31.9,30.4,32,30.4,32L30.4,32z"/>
							<path id="XMLID_16741_" class="st35" d="M30.8,31.6l-0.4,0.2c-0.1,0.1-0.1,0.2,0,0.2l0.4,0.2c0,0,0.1,0,0.2,0l0.4-0.2
								c0.1-0.1,0.1-0.2,0-0.2L31,31.6C30.9,31.6,30.8,31.6,30.8,31.6z"/>
						</g>
					</g>
				</g>
				<g id="XMLID_16729_">
					<g id="XMLID_16734_">
						<g id="XMLID_16735_">
							<path id="XMLID_16737_" class="st36" d="M31.1,32.4C31.1,32.5,31.1,32.5,31.1,32.4l0.4,0.3c0,0,0.1,0,0.2,0l0.4-0.2v-0.1
								v-0.1c0-0.1,0-0.1,0-0.1L31.7,32c0,0-0.1,0-0.2,0L31.1,32.4L31.1,32.4L31.1,32.4z"/>
							<path id="XMLID_16736_" class="st35" d="M31.5,32l-0.4,0.2c-0.1,0.1-0.1,0.2,0,0.2l0.4,0.2c0,0,0.1,0,0.2,0l0.4-0.2
								c0.1-0.1,0.1-0.2,0-0.2L31.7,32C31.6,32,31.5,32,31.5,32z"/>
						</g>
					</g>
					<g id="XMLID_16730_">
						<g id="XMLID_16731_">
							<path id="XMLID_16733_" class="st36" d="M31.8,32.9C31.8,33,31.8,33,31.8,32.9l0.4,0.3c0,0,0.1,0,0.2,0l0.4-0.2v-0.1v-0.1
								c0-0.1,0-0.1,0-0.1l-0.4-0.3c0,0-0.1,0-0.2,0l-0.5,0.3l0,0L31.8,32.9z"/>
							<path id="XMLID_16732_" class="st35" d="M32.2,32.4l-0.4,0.2c-0.1,0.1-0.1,0.2,0,0.2l0.4,0.2c0,0,0.1,0,0.2,0l0.4-0.2
								c0.1-0.1,0.1-0.2,0-0.2l-0.4-0.2C32.3,32.4,32.2,32.4,32.2,32.4z"/>
						</g>
					</g>
				</g>
				<g id="XMLID_16720_">
					<g id="XMLID_16725_">
						<g id="XMLID_16726_">
							<path id="XMLID_16728_" class="st36" d="M32.5,33.3C32.5,33.4,32.5,33.4,32.5,33.3l0.4,0.3c0,0,0.1,0,0.2,0l0.4-0.2v-0.1
								v-0.1c0-0.1,0-0.1,0-0.1l-0.4-0.2c0,0-0.1,0-0.2,0L32.5,33.3C32.5,33.1,32.5,33.1,32.5,33.3L32.5,33.3z"/>
							<path id="XMLID_16727_" class="st35" d="M32.9,32.8L32.5,33c-0.1,0.1-0.1,0.2,0,0.2l0.4,0.2c0,0,0.1,0,0.2,0l0.4-0.2
								c0.1-0.1,0.1-0.2,0-0.2l-0.4-0.2C33,32.8,32.9,32.8,32.9,32.8z"/>
						</g>
					</g>
					<g id="XMLID_16721_">
						<g id="XMLID_16722_">
							<path id="XMLID_16724_" class="st36" d="M33.3,33.7C33.3,33.8,33.3,33.8,33.3,33.7l0.4,0.3c0,0,0.1,0,0.2,0l0.4-0.2v-0.1
								v-0.1c0-0.1,0-0.1,0-0.1l-0.4-0.2c0,0-0.1,0-0.2,0L33.3,33.7C33.2,33.5,33.2,33.5,33.3,33.7L33.3,33.7z"/>
							<path id="XMLID_16723_" class="st35" d="M33.6,33.2l-0.4,0.2c-0.1,0.1-0.1,0.2,0,0.2l0.4,0.2c0,0,0.1,0,0.2,0l0.4-0.2
								c0.1-0.1,0.1-0.2,0-0.2l-0.4-0.2C33.7,33.2,33.6,33.2,33.6,33.2z"/>
						</g>
					</g>
				</g>
				<g id="XMLID_16711_">
					<g id="XMLID_16716_">
						<g id="XMLID_16717_">
							<path id="XMLID_16719_" class="st36" d="M34,34.1C34,34.2,34,34.2,34,34.1l0.4,0.3c0,0,0.1,0,0.2,0l0.4-0.2v-0.1V34
								c0-0.1,0-0.1,0-0.1l-0.4-0.2c0,0-0.1,0-0.2,0L34,34.1C33.9,33.9,33.9,34,34,34.1L34,34.1z"/>
							<path id="XMLID_16718_" class="st35" d="M34.3,33.6L34,33.8c-0.1,0.1-0.1,0.2,0,0.2l0.4,0.2c0,0,0.1,0,0.2,0L35,34
								c0.1-0.1,0.1-0.2,0-0.2l-0.4-0.2C34.4,33.6,34.3,33.6,34.3,33.6z"/>
						</g>
					</g>
					<g id="XMLID_16712_">
						<g id="XMLID_16713_">
							<path id="XMLID_16715_" class="st36" d="M34.7,34.5L34.7,34.5l0.4,0.3c0,0,0.1,0,0.2,0l0.4-0.2v-0.1v-0.1c0-0.1,0-0.1,0-0.1
								l-0.4-0.2c0,0-0.1,0-0.2,0L34.7,34.5L34.7,34.5L34.7,34.5z"/>
							<path id="XMLID_16714_" class="st35" d="M35.1,34.1l-0.4,0.2c-0.1,0.1-0.1,0.2,0,0.2l0.4,0.2c0,0,0.1,0,0.2,0l0.4-0.2
								c0.1-0.1,0.1-0.2,0-0.2l-0.4-0.2C35.1,34,35.1,34,35.1,34.1z"/>
						</g>
					</g>
				</g>
				<g id="XMLID_16706_">
					<g id="XMLID_16707_">
						<g id="XMLID_16708_">
							<path id="XMLID_16710_" class="st36" d="M35.4,34.9L35.4,34.9l0.4,0.3c0,0,0.1,0,0.2,0l0.4-0.2v-0.1v-0.1c0-0.1,0-0.1,0-0.1
								L36,34.5c0,0-0.1,0-0.2,0L35.4,34.9L35.4,34.9L35.4,34.9z"/>
							<path id="XMLID_16709_" class="st35" d="M35.8,34.5l-0.4,0.2c-0.1,0.1-0.1,0.2,0,0.2l0.4,0.2c0,0,0.1,0,0.2,0l0.4-0.2
								c0.1-0.1,0.1-0.2,0-0.2L36,34.5C35.8,34.4,35.8,34.4,35.8,34.5z"/>
						</g>
					</g>
				</g>
			</g>
			<g id="XMLID_16644_">
				<g id="XMLID_16700_">
					<g id="XMLID_16701_">
						<g id="XMLID_16702_">
							<path id="XMLID_16704_" class="st36" d="M35.6,35.8C35.6,35.9,35.6,35.9,35.6,35.8l0.5,0.4c0,0,0.1,0,0.2,0l0.4-0.2v-0.1l0,0
								c0-0.1,0-0.1,0-0.1l-0.5-0.4c0,0-0.1,0-0.2,0L35.6,35.8L35.6,35.8L35.6,35.8z"/>
							<path id="XMLID_16703_" class="st35" d="M36,35.4l-0.4,0.2c-0.1,0.1-0.1,0.2,0,0.2l0.5,0.3c0,0,0.1,0,0.2,0l0.4-0.2
								c0.1-0.1,0.1-0.2,0-0.2l-0.5-0.3C36.1,35.3,36,35.3,36,35.4z"/>
						</g>
					</g>
				</g>
				<g id="XMLID_16645_">
					<g id="XMLID_16696_">
						<g id="XMLID_16697_">
							<path id="XMLID_16699_" class="st36" d="M26.4,30.5C26.4,30.6,26.4,30.6,26.4,30.5l1.3,0.8c0,0,0.1,0,0.2,0l0.4-0.2V31v-0.1
								c0-0.1,0-0.1,0-0.1L27,30.1c0,0-0.1,0-0.2,0L26.4,30.5L26.4,30.5L26.4,30.5z"/>
							<path id="XMLID_16698_" class="st35" d="M26.8,30.1l-0.4,0.2c-0.1,0.1-0.1,0.2,0,0.2l1.3,0.7c0,0,0.1,0,0.2,0l0.4-0.2
								c0.1-0.1,0.1-0.2,0-0.2L27,30.1C26.8,30,26.8,30,26.8,30.1z"/>
						</g>
					</g>
					<g id="XMLID_16687_">
						<g id="XMLID_16692_">
							<g id="XMLID_16693_">
								<path id="XMLID_16695_" class="st36" d="M27.9,31.4C27.9,31.5,27.9,31.5,27.9,31.4l0.4,0.3c0,0,0.1,0,0.2,0l0.4-0.2v-0.1
									v-0.1c0-0.1,0-0.1,0-0.1L28.4,31c0,0-0.1,0-0.2,0l-0.5,0.3c0.1,0,0,0,0,0L27.9,31.4z"/>
								<path id="XMLID_16694_" class="st35" d="M28.3,31l-0.4,0.2c-0.1,0.1-0.1,0.2,0,0.2l0.4,0.2c0,0,0.1,0,0.2,0l0.4-0.2
									c0.1-0.1,0.1-0.2,0-0.2L28.3,31C28.4,30.9,28.3,30.9,28.3,31z"/>
							</g>
						</g>
						<g id="XMLID_16688_">
							<g id="XMLID_16689_">
								<path id="XMLID_16691_" class="st36" d="M28.6,31.8C28.6,31.9,28.6,31.9,28.6,31.8l0.4,0.3c0,0,0.1,0,0.2,0l0.4-0.2v-0.1
									v-0.1c0-0.1,0-0.1,0-0.1l-0.4-0.2c0,0-0.1,0-0.2,0L28.6,31.8C28.6,31.7,28.5,31.7,28.6,31.8L28.6,31.8z"/>
								<path id="XMLID_16690_" class="st35" d="M29,31.3l-0.4,0.2c-0.1,0.1-0.1,0.2,0,0.2L29,32c0,0,0.1,0,0.2,0l0.4-0.2
									c0.1-0.1,0.1-0.2,0-0.2l-0.4-0.2C29.1,31.3,29,31.3,29,31.3z"/>
							</g>
						</g>
					</g>
					<g id="XMLID_16678_">
						<g id="XMLID_16683_">
							<g id="XMLID_16684_">
								<path id="XMLID_16686_" class="st36" d="M29.3,32.2C29.3,32.3,29.3,32.3,29.3,32.2l0.4,0.3c0,0,0.1,0,0.2,0l0.4-0.2v-0.1
									v-0.1c0-0.1,0-0.1,0-0.1l-0.4-0.2c0,0-0.1,0-0.2,0L29.3,32.2C29.2,32,29.2,32.1,29.3,32.2L29.3,32.2z"/>
								<path id="XMLID_16685_" class="st35" d="M29.7,31.7L29.3,32c-0.1,0.1-0.1,0.2,0,0.2l0.4,0.2c0,0,0.1,0,0.2,0l0.4-0.2
									c0.1-0.1,0.1-0.2,0-0.2L29.7,31.7C29.8,31.7,29.7,31.7,29.7,31.7z"/>
							</g>
						</g>
						<g id="XMLID_16679_">
							<g id="XMLID_16680_">
								<path id="XMLID_16682_" class="st36" d="M30,32.6C30,32.7,30,32.7,30,32.6l0.4,0.3c0,0,0.1,0,0.2,0l0.4-0.2v-0.1v-0.1
									c0-0.1,0-0.1,0-0.1l-0.4-0.2c0,0-0.1,0-0.2,0L30,32.6C29.9,32.4,29.9,32.5,30,32.6L30,32.6z"/>
								<path id="XMLID_16681_" class="st35" d="M30.4,32.1L30,32.4c-0.1,0.1-0.1,0.2,0,0.2l0.4,0.2c0,0,0.1,0,0.2,0l0.4-0.2
									c0.1-0.1,0.1-0.2,0-0.2l-0.4-0.2C30.5,32.1,30.4,32.1,30.4,32.1z"/>
							</g>
						</g>
					</g>
					<g id="XMLID_16669_">
						<g id="XMLID_16674_">
							<g id="XMLID_16675_">
								<path id="XMLID_16677_" class="st36" d="M30.7,33C30.7,33.1,30.7,33.1,30.7,33l0.4,0.3c0,0,0.1,0,0.2,0l0.4-0.2V33v-0.1
									c0-0.1,0-0.1,0-0.1l-0.4-0.2c0,0-0.1,0-0.2,0L30.7,33L30.7,33L30.7,33z"/>
								<path id="XMLID_16676_" class="st35" d="M31.1,32.6l-0.4,0.2c-0.1,0.1-0.1,0.2,0,0.2l0.4,0.2c0,0,0.1,0,0.2,0l0.4-0.2
									c0.1-0.1,0.1-0.2,0-0.2l-0.4-0.2C31.2,32.5,31.1,32.5,31.1,32.6z"/>
							</g>
						</g>
						<g id="XMLID_16670_">
							<g id="XMLID_16671_">
								<path id="XMLID_16673_" class="st36" d="M31.4,33.4C31.4,33.5,31.4,33.5,31.4,33.4l0.4,0.3c0,0,0.1,0,0.2,0l0.4-0.2v-0.1
									v-0.1c0-0.1,0-0.1,0-0.1L31.9,33c0,0-0.1,0-0.2,0L31.4,33.4L31.4,33.4L31.4,33.4z"/>
								<path id="XMLID_16672_" class="st35" d="M31.8,33l-0.4,0.2c-0.1,0.1-0.1,0.2,0,0.2l0.4,0.2c0,0,0.1,0,0.2,0l0.4-0.2
									c0.1-0.1,0.1-0.2,0-0.2L31.9,33C31.9,32.9,31.8,32.9,31.8,33z"/>
							</g>
						</g>
					</g>
					<g id="XMLID_16660_">
						<g id="XMLID_16665_">
							<g id="XMLID_16666_">
								<path id="XMLID_16668_" class="st36" d="M32.1,33.8C32.1,33.9,32.1,33.9,32.1,33.8l0.4,0.3c0,0,0.1,0,0.2,0l0.4-0.2v-0.1
									v-0.1c0-0.1,0-0.1,0-0.1l-0.4-0.2c0,0-0.1,0-0.2,0L32.1,33.8C32,33.7,32,33.7,32.1,33.8L32.1,33.8z"/>
								<path id="XMLID_16667_" class="st35" d="M32.5,33.4l-0.4,0.2c-0.1,0.1-0.1,0.2,0,0.2l0.4,0.2c0,0,0.1,0,0.2,0l0.4-0.2
									c0.1-0.1,0.1-0.2,0-0.2l-0.4-0.2C32.6,33.4,32.5,33.4,32.5,33.4z"/>
							</g>
						</g>
						<g id="XMLID_16661_">
							<g id="XMLID_16662_">
								<path id="XMLID_16664_" class="st36" d="M32.8,34.2C32.8,34.3,32.8,34.3,32.8,34.2l0.4,0.3c0,0,0.1,0,0.2,0l0.4-0.2v-0.1
									v-0.1c0-0.1,0-0.1,0-0.1l-0.4-0.2c0,0-0.1,0-0.2,0L32.8,34.2C32.7,34.1,32.7,34.1,32.8,34.2L32.8,34.2z"/>
								<path id="XMLID_16663_" class="st35" d="M33.2,33.8L32.8,34c-0.1,0.1-0.1,0.2,0,0.2l0.4,0.2c0,0,0.1,0,0.2,0l0.4-0.2
									c0.1-0.1,0.1-0.2,0-0.2l-0.4-0.2C33.3,33.8,33.3,33.8,33.2,33.8z"/>
							</g>
						</g>
					</g>
					<g id="XMLID_16651_">
						<g id="XMLID_16656_">
							<g id="XMLID_16657_">
								<path id="XMLID_16659_" class="st36" d="M33.5,34.6C33.5,34.7,33.5,34.7,33.5,34.6l0.4,0.3c0,0,0.1,0,0.2,0l0.4-0.2v-0.1
									v-0.1c0-0.1,0-0.1,0-0.1L34,34.2c0,0-0.1,0-0.2,0L33.5,34.6C33.4,34.5,33.4,34.5,33.5,34.6L33.5,34.6z"/>
								<path id="XMLID_16658_" class="st35" d="M33.9,34.2l-0.4,0.2c-0.1,0.1-0.1,0.2,0,0.2l0.4,0.2c0,0,0.1,0,0.2,0l0.4-0.2
									c0.1-0.1,0.1-0.2,0-0.2L33.9,34.2C34,34.2,34,34.2,33.9,34.2z"/>
							</g>
						</g>
						<g id="XMLID_16652_">
							<g id="XMLID_16653_">
								<path id="XMLID_16655_" class="st36" d="M34.2,35C34.2,35.1,34.2,35.1,34.2,35l0.4,0.3c0,0,0.1,0,0.2,0l0.4-0.2V35v-0.1
									c0-0.1,0-0.1,0-0.1l-0.4-0.2c0,0-0.1,0-0.2,0L34.2,35L34.2,35L34.2,35z"/>
								<path id="XMLID_16654_" class="st35" d="M34.6,34.6l-0.4,0.2c-0.1,0.1-0.1,0.2,0,0.2l0.4,0.2c0,0,0.1,0,0.2,0l0.4-0.2
									c0.1-0.1,0.1-0.2,0-0.2l-0.4-0.2C34.7,34.5,34.7,34.5,34.6,34.6z"/>
							</g>
						</g>
					</g>
					<g id="XMLID_16646_">
						<g id="XMLID_16647_">
							<g id="XMLID_16648_">
								<path id="XMLID_16650_" class="st36" d="M35,35.5C35,35.6,35,35.6,35,35.5l0.4,0.3c0,0,0.1,0,0.2,0l0.4-0.2v-0.1v-0.1
									c0-0.1,0-0.1,0-0.1l-0.5-0.2c0,0-0.1,0-0.2,0l-0.5,0.2l0,0L35,35.5z"/>
								<path id="XMLID_16649_" class="st35" d="M35.4,35L35,35.2c-0.1,0.1-0.1,0.2,0,0.2l0.4,0.2c0,0,0.1,0,0.2,0l0.4-0.2
									c0.1-0.1,0.1-0.2,0-0.2L35.4,35C35.4,34.9,35.4,34.9,35.4,35z"/>
							</g>
						</g>
					</g>
				</g>
			</g>
			<g id="XMLID_16587_">
				<g id="XMLID_16603_">
					<g id="XMLID_16639_">
						<g id="XMLID_16640_">
							<g id="XMLID_16641_">
								<path id="XMLID_16643_" class="st36" d="M29.1,32.9C29.1,33,29.1,33,29.1,32.9l3.5,2.1c0,0,0.1,0,0.2,0l0.4-0.2v-0.1v-0.1
									c0-0.1,0-0.1,0-0.1l-3.5-2c0,0-0.1,0-0.2,0L29.1,32.9C29,32.7,29,32.7,29.1,32.9L29.1,32.9z"/>
								<path id="XMLID_16642_" class="st35" d="M29.5,32.4l-0.4,0.2c-0.1,0.1-0.1,0.2,0,0.2l3.5,2c0,0,0.1,0,0.2,0l0.4-0.2
									c0.1-0.1,0.1-0.2,0-0.2l-3.5-2C29.6,32.4,29.5,32.4,29.5,32.4z"/>
							</g>
						</g>
					</g>
					<g id="XMLID_16634_">
						<g id="XMLID_16635_">
							<g id="XMLID_16636_">
								<path id="XMLID_16638_" class="st36" d="M35.1,36.3C35.1,36.4,35.1,36.4,35.1,36.3l0.3,0.3c0,0,0.1,0,0.2,0l0.4-0.2v-0.1
									v-0.1c0-0.1,0-0.1,0-0.1L35.7,36c0,0-0.1,0-0.2,0L35.1,36.3L35.1,36.3L35.1,36.3z"/>
								<path id="XMLID_16637_" class="st35" d="M35.5,36l-0.4,0.2c-0.1,0.1-0.1,0.2,0,0.2l0.3,0.2c0,0,0.1,0,0.2,0l0.4-0.2
									c0.1-0.1,0.1-0.2,0-0.2L35.7,36C35.6,35.9,35.5,35.9,35.5,36z"/>
							</g>
						</g>
					</g>
					<g id="XMLID_16629_">
						<g id="XMLID_16630_">
							<g id="XMLID_16631_">
								<path id="XMLID_16633_" class="st36" d="M34.4,36L34.4,36l0.3,0.3c0,0,0.1,0,0.2,0l0.4-0.2V36v-0.1c0-0.1,0-0.1,0-0.1
									L35,35.6c0,0-0.1,0-0.2,0L34.4,36C34.4,35.9,34.4,35.9,34.4,36L34.4,36z"/>
								<path id="XMLID_16632_" class="st35" d="M34.9,35.6l-0.4,0.2c-0.1,0.1-0.1,0.2,0,0.2l0.3,0.2c0,0,0.1,0,0.2,0l0.4-0.2
									c0.1-0.1,0.1-0.2,0-0.2l-0.3-0.2C35,35.5,34.9,35.5,34.9,35.6z"/>
							</g>
						</g>
					</g>
					<g id="XMLID_16624_">
						<g id="XMLID_16625_">
							<g id="XMLID_16626_">
								<path id="XMLID_16628_" class="st36" d="M33.9,35.6L33.9,35.6l0.3,0.3c0,0,0.1,0,0.2,0l0.3-0.2v-0.1v-0.1c0-0.1,0-0.1,0-0.1
									l-0.3-0.2c0,0-0.1,0-0.2,0l-0.5,0.3c0-0.1,0-0.1,0,0L33.9,35.6L33.9,35.6z"/>
								<path id="XMLID_16627_" class="st35" d="M34.2,35.2l-0.4,0.2c-0.1,0.1-0.1,0.2,0,0.2l0.3,0.2c0,0,0.1,0,0.2,0l0.4-0.2
									c0.1-0.1,0.1-0.2,0-0.2l-0.3-0.2C34.3,35.2,34.3,35.2,34.2,35.2z"/>
							</g>
						</g>
					</g>
					<g id="XMLID_16619_">
						<g id="XMLID_16620_">
							<g id="XMLID_16621_">
								<path id="XMLID_16623_" class="st36" d="M32.9,35.2L32.9,35.2l0.6,0.4c0,0,0.1,0,0.2,0l0.4-0.2v-0.1v-0.1c0-0.1,0-0.1,0-0.1
									l-0.6-0.4c0,0-0.1,0-0.2,0L32.9,35c0-0.1,0,0,0,0V35.2z"/>
								<path id="XMLID_16622_" class="st35" d="M33.3,34.6l-0.4,0.2c-0.1,0.1-0.1,0.2,0,0.2l0.6,0.3c0,0,0.1,0,0.2,0l0.4-0.2
									c0.1-0.1,0.1-0.2,0-0.2l-0.6-0.3C33.4,34.6,33.3,34.6,33.3,34.6z"/>
							</g>
						</g>
					</g>
					<g id="XMLID_16614_">
						<g id="XMLID_16615_">
							<g id="XMLID_16616_">
								<path id="XMLID_16618_" class="st36" d="M28.3,32.4L28.3,32.4l0.6,0.4c0,0,0.1,0,0.2,0l0.4-0.2v-0.1v-0.1c0-0.1,0-0.1,0-0.1
									L28.8,32c0,0-0.1,0-0.2,0L28.3,32.4L28.3,32.4L28.3,32.4z"/>
								<path id="XMLID_16617_" class="st35" d="M28.6,32l-0.3,0.2c-0.1,0.1-0.1,0.2,0,0.2l0.6,0.3c0,0,0.1,0,0.2,0l0.4-0.2
									c0.1-0.1,0.1-0.2,0-0.2L28.8,32C28.7,31.9,28.6,31.9,28.6,32z"/>
							</g>
						</g>
					</g>
					<g id="XMLID_16609_">
						<g id="XMLID_16610_">
							<g id="XMLID_16611_">
								<path id="XMLID_16613_" class="st36" d="M27.5,32L27.5,32l0.3,0.3c0,0,0.1,0,0.2,0l0.4-0.2V32v-0.1c0-0.1,0-0.1,0-0.1
									l-0.3-0.2c0,0-0.1,0-0.2,0L27.5,32C27.5,31.9,27.5,31.9,27.5,32L27.5,32z"/>
								<path id="XMLID_16612_" class="st35" d="M27.9,31.6l-0.4,0.2c-0.1,0.1-0.1,0.2,0,0.2l0.3,0.2c0,0,0.1,0,0.2,0l0.4-0.2
									c0.1-0.1,0.1-0.2,0-0.2l-0.3-0.2C28.1,31.5,28,31.5,27.9,31.6z"/>
							</g>
						</g>
					</g>
					<g id="XMLID_16604_">
						<g id="XMLID_16605_">
							<g id="XMLID_16606_">
								<path id="XMLID_16608_" class="st36" d="M25.6,31L25.6,31l0.3,0.3c0,0,0.1,0,0.2,0l0.1-0.1v-0.1V31c0-0.1,0-0.1,0-0.1
									l-0.3-0.2c0,0-0.1,0-0.2,0l-0.1,0.1l0,0V31z"/>
								<path id="XMLID_16607_" class="st35" d="M25.8,30.6L25.8,30.6c-0.2,0.2-0.2,0.2-0.1,0.2L26,31c0,0,0.1,0,0.2,0l0.1-0.1
									c0.1-0.1,0.1-0.2,0-0.2L26,30.5C25.8,30.6,25.8,30.6,25.8,30.6z"/>
							</g>
						</g>
					</g>
				</g>
				<g id="XMLID_16598_">
					<g id="XMLID_16599_">
						<g id="XMLID_16600_">
							<path id="XMLID_16602_" class="st36" d="M26.8,31.7C26.8,31.8,26.8,31.8,26.8,31.7l0.3,0.3c0,0,0.1,0,0.2,0l0.1-0.1v-0.1
								v-0.1c0-0.1,0-0.1,0-0.1l-0.3-0.2c0,0-0.1,0-0.2,0l-0.1,0.1c0-0.1,0-0.1,0,0V31.7z"/>
							<path id="XMLID_16601_" class="st35" d="M27,31.4L27,31.4c-0.2,0.2-0.2,0.2-0.1,0.2l0.3,0.2c0,0,0.1,0,0.2,0l0.1-0.1
								c0.1-0.1,0.1-0.2,0-0.2l-0.3-0.2C27.1,31.3,27,31.3,27,31.4z"/>
						</g>
					</g>
				</g>
				<g id="XMLID_16593_">
					<g id="XMLID_16594_">
						<g id="XMLID_16595_">
							<path id="XMLID_16597_" class="st36" d="M26.5,31.2C26.5,31.3,26.5,31.3,26.5,31.2l0.3,0.3c0,0,0.1,0,0.2,0l0.1-0.1v-0.1
								v-0.1c0-0.1,0-0.1,0-0.1L26.8,31c0,0-0.1,0-0.2,0h-0.1c0.1-0.1,0-0.1,0,0V31.2z"/>
							<path id="XMLID_16596_" class="st35" d="M26.7,30.8L26.7,30.8C26.5,31,26.5,31,26.6,31l0.3,0.2c0,0,0.1,0,0.2,0l0.1-0.1
								c0.1-0.1,0.1-0.2,0-0.2l-0.3-0.2C26.8,30.8,26.7,30.8,26.7,30.8z"/>
						</g>
					</g>
				</g>
				<g id="XMLID_16588_">
					<g id="XMLID_16589_">
						<g id="XMLID_16590_">
							<path id="XMLID_16592_" class="st36" d="M26.2,31.3C26.2,31.4,26.2,31.4,26.2,31.3l0.3,0.3c0,0,0.1,0,0.2,0l0.1-0.1v-0.1
								v-0.1c0-0.1,0-0.1,0-0.1L26.5,31c0,0-0.1,0-0.2,0l-0.1,0.1c0-0.1,0,0,0,0V31.3z"/>
							<path id="XMLID_16591_" class="st35" d="M26.4,31L26.4,31c-0.2,0.2-0.2,0.2-0.1,0.2l0.3,0.2c0,0,0.1,0,0.2,0l0.1-0.1
								c0.1-0.1,0.1-0.2,0-0.2L26.5,31H26.4z"/>
						</g>
					</g>
				</g>
			</g>
		</g>
	</g>
</g>
<g id="XMLID_16580_">
	<path id="XMLID_16583_" class="st38" d="M43.9,37.8l3.4,2c0.6,0.4,0.6,1.3,0,1.6l-3.4,2c-0.7,0.4-1.5,0.4-2.2,0l-3.4-2
		c-0.6-0.4-0.6-1.3,0-1.6l3.4-2C42.4,37.4,43.2,37.4,43.9,37.8z"/>
	<path id="XMLID_16582_" class="st39" d="M43.9,37.6l3.4,2c0.6,0.4,0.6,1.3,0,1.6l-3.4,2c-0.7,0.4-1.5,0.4-2.2,0l-3.4-2
		c-0.6-0.4-0.6-1.3,0-1.6l3.4-2C42.4,37.2,43.2,37.2,43.9,37.6z"/>
	<path id="XMLID_16581_" class="st40" d="M41.7,37.7c0.7-0.4,1.5-0.4,2.2,0l3.4,2c0.6,0.4,0.6,1.3,0,1.6l-3.4,2
		c-0.7,0.4-1.5,0.4-2.2,0"/>
</g>
<g id="XMLID_16578_">
	<path id="XMLID_16579_" class="st41" d="M25.4,40.6c3.3,1.3,7,2.2,9.4,2.2c3.2,0.1,6.3-2,6.3-2l0.1,0.1c-0.1,0-3,2.1-6.3,2
		C32.5,42.9,28.7,42,25.4,40.6L25.4,40.6z"/>
</g>
<polygon id="XMLID_16561_" class="st42" points="23.2,24.6 23.2,36.6 22.6,36.9 22.6,24.9 "/>
<g id="XMLID_1_">
	<path id="XMLID_16551_" class="st43" d="M44.7,58.1c0,1,1.6,1.9,3.4,1.9s3.4-0.9,3.4-1.9c0-0.2,0-0.9,0-1c0-1-1.6-1.9-3.4-1.9
		s-3.4,0.9-3.4,1.9C44.7,57.3,44.7,57.9,44.7,58.1z"/>
	<path class="st44" d="M44.7,57.1c0,0.2,0,0.9,0,1c0,1,1.6,1.9,3.4,1.9c1.1,0,2-0.3,2.7-0.7v-3.4c-0.6-0.5-1.6-0.7-2.7-0.7
		C46.2,55.2,44.7,56,44.7,57.1z"/>
	<ellipse id="XMLID_16545_" class="st45" cx="48.2" cy="57.1" rx="3.4" ry="1.9"/>
	<path class="st46" d="M48.5,59v-3.3h-0.9V59c0.2,0,0.3,0,0.5,0S48.4,59,48.5,59L48.5,59z"/>
	<path id="XMLID_22_" class="st46" d="M51.5,57.1c0,1-1.6,1.9-3.4,1.9s-3.4-0.9-3.4-1.9"/>
	<rect id="XMLID_21_" x="47.8" y="49.4" class="st47" width="0.7" height="4.1"/>
	<rect x="47.8" y="49.5" class="st44" width="0.5" height="4.1"/>
	<path id="XMLID_20_" class="st47" d="M48.6,53.4h-0.9V56c0,0.2,0.2,0.2,0.5,0.2s0.5-0.1,0.5-0.2l0,0L48.6,53.4L48.6,53.4z"/>
	<rect id="XMLID_19_" x="47.9" y="47.7" class="st48" width="0.5" height="2"/>
	<path id="XMLID_18_" class="st47" d="M47.6,49.5L47.6,49.5c0,0.2,0.2,0.3,0.3,0.3h0.6c0.2,0,0.3-0.2,0.3-0.3l0,0
		c0-0.2-0.2-0.3-0.3-0.3h-0.6C47.6,49.2,47.5,49.3,47.6,49.5z"/>
	<path class="st44" d="M47.6,49.4L47.6,49.4c0,0.2,0.1,0.3,0.2,0.3h0.8c0.2,0,0.2-0.1,0.2-0.2v-0.1c0-0.2-0.1-0.2-0.2-0.2h-0.8
		C47.6,49.2,47.5,49.2,47.6,49.4z"/>
	<g id="XMLID_6_">
		<path id="XMLID_17_" class="st49" d="M44.3,46.6c0,0.8,1.7,1.4,3.9,1.4s3.9-0.6,3.9-1.4c0-0.1,0-0.2,0-0.2c0-2.4-2.3-4.2-2.6-5.4
			c-0.2-1-2.5-1-2.7,0c-0.3,1.3-2.6,3-2.6,5.4C44.2,46.3,44.2,46.5,44.3,46.6z"/>
		<path id="XMLID_16_" class="st50" d="M44.3,46.6c0,0.8,1.7,1.4,3.9,1.4s3.9-0.6,3.9-1.4c0-0.1,0.1-0.2,0-0.2
			c-2.7-1.4-2.5-3.9-2.8-5.1C49,40.3,47,40,46.8,41c-0.3,1.3-2.6,3-2.6,5.4C44.2,46.3,44.2,46.5,44.3,46.6z"/>
		<path id="XMLID_15_" class="st51" d="M44.2,46.6c0,0.8,1.7,1.4,3.9,1.4s-1.3-7-1.3-7c-0.3,1.3-2.6,3-2.6,5.4
			C44.2,46.3,44.2,46.5,44.2,46.6z"/>
		<path id="XMLID_14_" class="st52" d="M44.1,46.6c0,0.8,1.8,1.4,4,1.4s4-0.7,4-1.5v-0.2c0-0.9-1.8-1.5-4-1.5s-4,0.7-4,1.5
			C44.1,46.4,44.1,46.5,44.1,46.6z"/>
		<ellipse id="XMLID_13_" class="st53" cx="48.1" cy="46.6" rx="3.7" ry="1.3"/>
		<g id="XMLID_11_">
			<path id="XMLID_12_" class="st54" d="M48.1,47.9c0.5,0,1,0,1.4-0.1l-0.9-2.6h-0.1c-0.2,0-0.2,0-0.4,0c-2,0-3.7,0.6-3.7,1.3
				C44.4,47.3,46.1,47.9,48.1,47.9z"/>
		</g>
		<path class="st55" d="M44.6,46c0.5,0.5,1.9,0.9,3.5,0.9s3-0.3,3.5-0.9c-0.5-0.5-1.9-0.9-3.5-0.9C46.5,45.2,45.1,45.6,44.6,46z"/>
		<path class="st55" d="M48.2,45.2c-1.2,0-2.2,0.2-2.9,0.5c0.6,0.3,1.7,0.5,2.9,0.5s2.2-0.2,2.9-0.5C50.4,45.4,49.3,45.2,48.2,45.2z
			"/>
		<g id="XMLID_9_">
			<path id="XMLID_10_" class="st56" d="M49.4,45.3c-0.4-0.1-0.8-0.1-1.3-0.1c-0.4,0-0.9,0-1.3,0.1c-0.1,0.4,0.1,0.7,0.2,0.9
				c0.2,0.3,0.5,0.6,1.1,0.6s0.9-0.4,1.1-0.6C49.4,46,49.5,45.7,49.4,45.3z"/>
		</g>
		<g id="XMLID_7_">
			<path id="XMLID_8_" class="st57" d="M49.1,45.6c0,0-0.5,0-0.9,0.2s-0.8,0.5-0.7,0.5c0.2,0.1,0.3,0.2,0.5,0.2
				c0.5,0,0.8-0.2,0.9-0.5C49,46,49.1,45.9,49.1,45.6z"/>
		</g>
	</g>
	<g id="XMLID_3_">
		<path id="XMLID_5_" class="st52" d="M47.6,58c0,0.2,0.3,0.3,0.6,0.3c0.4,0,0.6-0.2,0.6-0.3v-0.2c0-0.2-0.3-0.3-0.6-0.3
			c-0.4,0-0.6,0.2-0.6,0.3V58z"/>
		<ellipse id="XMLID_4_" class="st50" cx="48.2" cy="57.8" rx="0.6" ry="0.3"/>
	</g>
</g>
<g>
	<g id="XMLID_16562_">
		<path id="XMLID_16567_" class="st37" d="M17.9,38.3c0,0.1,0,0.3,0,0.4c0,0.2,0.2,0.6,0.4,0.8l3.4,2c0.6,0.4,1.4,0.4,2,0l2.5-1.5
			c0.2-0.2,0.4-0.4,0.4-0.6c0-0.2,0-0.5,0-0.5c0-0.3-0.2-0.5-0.4-0.7l-3.4-2c-0.6-0.4-1.4-0.4-2,0l-2.5,1.5
			C18,37.8,17.9,38,17.9,38.3z"/>
		<path class="st58" d="M22.5,41.7c0.4,0.1,0.8,0,1.2-0.2l2.5-1.5c0.2-0.2,0.4-0.4,0.4-0.6c0-0.2,0-0.5,0-0.5c0-0.3-0.2-0.5-0.4-0.7
			l-3.4-2c0-0.1-0.1-0.1-0.1-0.1h-0.2C22.5,36.1,22.5,41.7,22.5,41.7z"/>
		<path id="XMLID_16566_" class="st59" d="M22.9,36.2l3.4,2c0.5,0.3,0.5,1,0,1.3L23.7,41c-0.6,0.4-1.4,0.4-2,0l-3.4-2
			c-0.5-0.3-0.5-1,0-1.3l2.5-1.5C21.5,35.8,22.2,35.8,22.9,36.2z"/>
		<path id="XMLID_16565_" class="st37" d="M20.8,36.2c0.6-0.4,1.4-0.4,2,0l3.4,2c0.5,0.3,0.5,1,0,1.3L23.7,41c-0.6,0.4-1.4,0.4-2,0"
			/>
		<path class="st60" d="M23.7,41l0.5-0.3c0-0.8,0-2.3,0-2.3c0-0.2-0.1-0.2-0.2-0.3l-1.5-0.9c-0.3-0.2-0.6-0.2-0.9,0L21,37.5
			c-0.1,0-0.2,0.2-0.2,0.2s0,2.6,0,2.7l0,0l0.8,0.5C22.3,41.3,23.1,41.3,23.7,41z"/>
		<g id="XMLID_16563_">
			<path id="XMLID_16564_" class="st61" d="M20.8,35.2c0,0,0,2.6,0,2.7c0,0.2,0.1,0.3,0.2,0.4l1.5,0.9c0.3,0.2,0.6,0.2,0.9,0
				l0.6-0.3c0.1,0,0.2-0.2,0.2-0.2c0-0.1,0-2.7,0-2.7c0-0.2-0.1-0.2-0.2-0.3l-1.4-0.9c-0.3-0.2-0.6-0.2-0.9,0L21.1,35
				C20.9,35.1,20.9,35.2,20.8,35.2z"/>
		</g>
		<path class="st62" d="M22.9,39.2c0.2,0.1,0.4,0,0.5-0.1l0.6-0.3c0.1,0,0.2-0.2,0.2-0.2c0-0.1,0-2.7,0-2.7c0-0.2-0.1-0.2-0.2-0.3
			l-1.2-0.7v4.3H22.9z"/>
		<path class="st62" d="M20.8,35.3c0,0,0,0.2,0,0.6c0,0.4,0,0.7,0,0.7c0,0.2,0.1,0.3,0.2,0.4l1.5,0.9c0.3,0.2,0.6,0.2,0.9,0l0.6-0.3
			c0.1,0,0.2-0.2,0.2-0.2s0-0.2,0-0.5c0-0.5,0-0.9,0-0.9c0-0.2-0.1-0.2-0.2-0.3l-1.4-0.9c-0.3-0.2-0.6-0.2-0.9,0L21.1,35
			C20.9,35.1,20.9,35.2,20.8,35.3z"/>
	</g>
	<polygon id="XMLID_16560_" class="st63" points="30.2,28.5 16.1,20.4 15.6,20.7 29.7,28.8 	"/>
	<polygon id="XMLID_16559_" class="st37" points="29.7,28.8 29.7,40.8 15.6,32.7 15.6,20.7 	"/>
	<polyline id="XMLID_16558_" class="st2" points="15.6,20.7 29.7,28.8 29.7,40.8 	"/>
	<polygon class="st64" points="16.4,22.9 28.9,30.1 28.9,29.2 16.4,22 	"/>
	<polygon id="XMLID_23_" class="st1" points="23.1,31.3 15.6,20.7 29.7,28.8 	"/>
	<polygon id="XMLID_16557_" class="st0" points="28.9,29.2 28.9,39.5 16.4,32.3 16.4,22 	"/>
</g>
<ellipse class="st50" cx="47.4" cy="46.7" rx="3.9" ry="2.7"/>
<g id="XMLID_24_">
	<g id="XMLID_25_">
		<polygon id="XMLID_27_" class="st0" points="49.5,45.5 49.5,78.7 48.6,78.2 48.6,44.9 		"/>
		<polygon id="XMLID_26_" class="st1" points="48.6,44.9 49.5,45.5 77.5,29.4 76.6,28.8 		"/>
	</g>
	<polygon class="st2" points="49.5,45.5 49.5,78.7 77.5,62.5 78.3,62 78.3,28.8 77.5,29.4 	"/>
	<polyline class="st3" points="78.3,28.8 77.5,29.4 49.5,45.5 49.5,78.7 	"/>
</g>
<g>
	<g id="XMLID_2_">
		<g id="XMLID_76_">
			<path id="XMLID_77_" class="st41" d="M41.7,41.4L41.7,41.4c0.5,0.1,1.1,0,1.5-0.2l1.6-0.9c0.9-0.5,0.6-1.5-0.5-1.7l0,0
				c-0.5-0.1-1.1,0-1.5,0.2l-1.6,0.9C40.4,40.3,40.6,41.2,41.7,41.4z"/>
		</g>
	</g>
	<path id="XMLID_79_" class="st65" d="M44.1,38.5c-0.3,0-0.4,0-0.7,0.1c-0.2,0.1-0.3,0.1-0.5,0.2c-0.2,0.2-0.4,0.2-0.5,0.3
		c-0.5,0.2-0.6,0.3-0.9,0.5c0.2,0.4,1.3,1.8,1.3,1.8c0.2-0.1,0.7-0.3,1.2-0.6c0.6-0.4,1.3-0.8,1.3-1C45.6,39.2,45.1,38.6,44.1,38.5z
		"/>
	<path id="XMLID_16573_" class="st66" d="M41.5,39.5c-0.2,0-0.4,0.3-0.5,0.3c-0.2,0.4-0.4,0.5-0.2,1c0.2,0.2,0.5,0.4,0.7,0.5
		c0.3,0.1,1,0.1,1.3,0C42.3,40.6,41.6,39.6,41.5,39.5z"/>
	<g id="XMLID_16570_">
		<path id="XMLID_16571_" class="st65" d="M41.3,40.6C41,40.8,41,40.8,40.9,41c-0.1,0.1,0,0.1,0,0.1c0.2-0.2,0.9-0.6,1.1-0.8
			C41.9,40.3,41.5,40.4,41.3,40.6z"/>
	</g>
	<path id="XMLID_86_" class="st67" d="M42.6,41c-0.1,0.1,0.2,0.3,0.2,0.3c0.2-0.1,0.7-0.3,1.2-0.6c0.6-0.4,1.3-0.8,1.3-1
		c0.2-0.2,0-0.7-0.1-0.7C44.9,39.8,43.3,40.8,42.6,41z"/>
	<path id="XMLID_130_" class="st68" d="M41.2,41.2c0.4,0.3,1.3,0.3,1.6,0.2c-0.1-0.2-0.1-0.2-0.2-0.4C42.2,41.3,41.7,41.3,41.2,41.2
		z"/>
</g>
<g id="Layer_2">
	<g id="XMLID_84_">
		<polygon id="XMLID_133_" class="st1" points="49.5,45.5 48.7,46 2.9,19.8 3.8,19.2 		"/>
		<polygon id="XMLID_132_" class="st0" points="48.7,46 48.7,79.2 2.9,52.9 2.9,19.8 		"/>
		<polyline id="XMLID_131_" class="st3" points="48.7,79.2 2.9,52.9 2.9,19.8 		"/>
	</g>
</g>
</svg>
