<?xml version="1.0" encoding="utf-8"?>
<!-- Generator: Adobe Illustrator 21.0.0, SVG Export Plug-In . SVG Version: 6.00 Build 0)  -->
<svg version="1.1" id="Layer_1" xmlns="http://www.w3.org/2000/svg" xmlns:xlink="http://www.w3.org/1999/xlink" x="0px" y="0px"
	 viewBox="0 0 80 80" style="enable-background:new 0 0 80 80;" xml:space="preserve">
<style type="text/css">
	.st0{fill:#FFFFFF;}
	.st1{fill:#E8E7E7;}
	.st2{opacity:0.2;fill:#D1D2D8;enable-background:new    ;}
	.st3{fill:#D1D2D8;}
	.st4{fill:#C5C6C7;}
	.st5{fill:#AEAEAE;}
	.st6{fill:#B0B3B5;}
	.st7{fill:#DDDFDE;}
	.st8{fill:#DBDBD9;}
	.st9{fill:#E4E4E3;}
	.st10{fill:#EFEFEF;}
	.st11{fill:#ECECEE;}
	.st12{fill:#F7F8F9;}
	.st13{fill:#41B349;}
	.st14{fill:#80C576;}
	.st15{fill:#C23728;}
	.st16{fill:#CD483C;}
	.st17{fill:#C06B2A;}
	.st18{fill:#CE7C43;}
	.st19{fill:#7C8187;}
	.st20{opacity:0.3;fill:#7C8187;enable-background:new    ;}
	.st21{fill:#C2C2C2;}
	.st22{fill:#777576;}
	.st23{fill:#A4A3A3;}
	.st24{fill:#636467;}
	.st25{fill:#595A5B;}
	.st26{fill:#9A735A;}
	.st27{fill:#59595C;}
	.st28{fill:#C29C77;}
	.st29{opacity:0.2;fill:#C29C77;enable-background:new    ;}
	.st30{fill:#474948;}
	.st31{opacity:0.3;fill:#515352;enable-background:new    ;}
	.st32{fill:#575858;}
	.st33{opacity:0.2;fill:#515352;enable-background:new    ;}
	.st34{fill:#515352;}
	.st35{fill:#3A3B3A;}
	.st36{fill:#72B1CB;}
	.st37{fill:#5F8FA9;}
	.st38{fill:#5988A6;}
	.st39{fill:#3C6984;}
	.st40{fill:#DFDFDF;}
	.st41{fill:#D7D7D6;}
	.st42{opacity:0.8;fill:#DFDFDF;enable-background:new    ;}
	.st43{fill:#EEBE69;}
	.st44{fill:#FFCD80;}
	.st45{fill:#D0D1D1;}
	.st46{fill:#DCDCDB;}
	.st47{fill:#C6C4C3;}
	.st48{fill:#74BF45;}
	.st49{fill:#50A647;}
	.st50{fill:#429A45;}
	.st51{fill:#2D2D2D;}
	.st52{fill:#525354;}
	.st53{fill:#6D6F6E;}
	.st54{fill:#AEADAD;}
	.st55{fill:#D2D2D2;}
	.st56{opacity:0.5;fill:#BBBBBB;enable-background:new    ;}
	.st57{fill:#BBBBBB;}
	.st58{opacity:0.2;fill:#444445;enable-background:new    ;}
	.st59{fill:#A19F9F;}
	.st60{fill:#ECEAEA;}
	.st61{fill:#E4E4E4;}
	.st62{fill:#444445;}
	.st63{fill:#404141;}
	.st64{opacity:0.4;fill:#444445;enable-background:new    ;}
	.st65{opacity:0.3;fill:#444445;enable-background:new    ;}
	.st66{fill:#AEABA8;}
	.st67{fill:#888582;}
	.st68{opacity:0.2;fill:#888582;enable-background:new    ;}
	.st69{fill:#5C5653;}
	.st70{fill:#E7E6E7;}
</style>
<g id="XMLID_23_">
	<g id="XMLID_127_">
		<polygon id="XMLID_129_" class="st0" points="2.2,28.4 3.1,29 49.5,2.4 48.5,1.9 		"/>
		<polygon id="XMLID_128_" class="st1" points="3.1,29 3.1,62.6 49.5,36 49.5,2.4 		"/>
		<polyline id="XMLID_16544_" class="st2" points="3.1,62.6 49.5,36 49.5,2.4 		"/>
	</g>
	<g id="XMLID_122_">
		<g id="XMLID_124_">
			<polygon id="XMLID_126_" class="st1" points="76.9,19.3 76.9,52.8 77.8,52.3 77.8,18.7 			"/>
			<polygon id="XMLID_125_" class="st0" points="77.8,18.7 76.9,19.3 48.5,3 49.5,2.4 			"/>
		</g>
		<polygon id="XMLID_123_" class="st3" points="76.9,19.3 76.9,52.8 48.5,36.5 48.5,3 		"/>
		<polyline id="XMLID_16543_" class="st2" points="76.9,52.8 48.5,36.5 48.5,3 		"/>
	</g>
	<g id="XMLID_82_">
		<polygon id="XMLID_121_" class="st4" points="30.5,49.9 30.5,68.1 14.5,58.8 14.5,40.6 		"/>
		<polygon id="XMLID_120_" class="st5" points="31.1,66.8 22.5,71.8 4.2,61.2 12.8,56.3 		"/>
		<polygon id="XMLID_119_" class="st6" points="30.5,49.9 30.5,68.1 31.1,67.8 31.1,49.6 		"/>
		<polygon id="XMLID_118_" class="st4" points="30.5,48.9 30.5,67.1 14.5,58 14.5,39.7 		"/>
		<g id="XMLID_83_">
			<g id="XMLID_102_">
				<polygon id="XMLID_117_" class="st7" points="23.7,55.7 23.7,70.2 29.4,67 29.4,52.3 				"/>
				<polygon id="XMLID_116_" class="st1" points="23.7,55.7 23.7,58 29.4,54.7 29.4,52.3 				"/>
				<polygon id="XMLID_115_" class="st1" points="23.7,58.1 23.7,61.8 29.4,58.5 29.4,54.8 				"/>
				<polygon id="XMLID_114_" class="st1" points="23.7,61.9 23.7,69 29.4,65.7 29.4,58.7 				"/>
				<polygon id="XMLID_113_" class="st1" points="23.7,69.1 23.7,70.2 29.4,67 29.4,65.8 				"/>
				<g id="XMLID_105_">
					<polygon id="XMLID_112_" class="st8" points="25.2,59.4 25.2,60.1 28,58.4 28,57.7 					"/>
					<polygon id="XMLID_111_" class="st9" points="25.4,59.6 25.4,59.7 27.8,58.3 27.8,58.2 					"/>
					<g id="XMLID_106_">
						<polygon id="XMLID_110_" class="st8" points="24.3,58.5 24.3,59.5 28.7,56.9 28.7,55.9 						"/>
						<polygon id="XMLID_109_" class="st9" points="24.6,58.6 24.6,58.9 28.5,56.6 28.5,56.4 						"/>
						<g id="XMLID_107_">
							<path id="XMLID_108_" class="st9" d="M28.5,56.9L28.3,57l0,0v-0.1l0,0H28.5L28.5,56.9L28.5,56.9
								C28.5,56.9,28.4,56.9,28.5,56.9z"/>
						</g>
					</g>
				</g>
				<polygon id="XMLID_104_" class="st10" points="29.4,52.3 23.7,55.7 9.6,47.5 15.3,44.3 				"/>
				<polygon id="XMLID_103_" class="st11" points="23.7,55.7 23.7,70.2 9.6,62.2 9.6,47.5 				"/>
			</g>
			<g id="XMLID_99_">
				<path id="XMLID_101_" class="st12" d="M26.4,62.5L26.4,62.5c-0.4,0.4-0.2,0.8,0.2,0.8l0,0c0.2,0,0.3-0.1,0.5-0.3l0,0
					c0.4-0.4,0.2-0.8-0.2-0.8l0,0C26.7,62.3,26.5,62.4,26.4,62.5z"/>
				<path id="XMLID_100_" class="st1" d="M26.5,62.6L26.5,62.6c-0.2,0.3-0.1,0.6,0.2,0.6l0,0c0.2,0,0.3,0,0.4-0.2l0,0
					c0.2-0.3,0.1-0.6-0.2-0.6l0,0C26.7,62.4,26.5,62.5,26.5,62.6z"/>
			</g>
			<g id="XMLID_96_">
				<path id="XMLID_98_" class="st12" d="M26.5,63.9L26.5,63.9c-0.1,0.3,0,0.5,0.2,0.5l0,0c0.1,0,0.2-0.1,0.3-0.2l0,0
					c0.1-0.3,0-0.5-0.2-0.5l0,0C26.7,63.7,26.6,63.8,26.5,63.9z"/>
				<path id="XMLID_97_" class="st1" d="M26.6,63.9L26.6,63.9c-0.1,0.1-0.1,0.3,0.1,0.3l0,0c0,0,0.1,0,0.2-0.1l0,0
					c0.1-0.1,0.1-0.3-0.1-0.3l0,0C26.7,63.8,26.6,63.9,26.6,63.9z"/>
			</g>
			<g id="XMLID_85_">
				<g id="XMLID_93_">
					<path id="XMLID_95_" class="st13" d="M26.9,64.6L26.9,64.6c-0.1,0.2-0.1,0.3,0,0.3l0,0c0,0,0.1,0,0.1-0.1l0,0
						C27,64.7,27,64.6,26.9,64.6L26.9,64.6C26.8,64.6,26.8,64.7,26.9,64.6z"/>
					<path id="XMLID_94_" class="st14" d="M26.9,64.7L26.9,64.7c-0.1,0.1-0.1,0.2-0.1,0.2C26.8,64.9,27,64.7,26.9,64.7L26.9,64.7
						C26.8,64.7,26.8,64.7,26.9,64.7z"/>
				</g>
				<g id="XMLID_90_">
					<path id="XMLID_92_" class="st15" d="M27.2,64.5L27.2,64.5c-0.1,0.1-0.1,0.2,0,0.3l0,0c0,0,0.1,0,0.1-0.1l0,0
						C27.3,64.6,27.3,64.5,27.2,64.5L27.2,64.5C27.1,64.5,27.1,64.5,27.2,64.5z"/>
					<path id="XMLID_91_" class="st16" d="M27.2,64.5L27.2,64.5c-0.1,0-0.1,0.1-0.1,0.2C27.1,64.7,27.3,64.5,27.2,64.5L27.2,64.5
						C27.2,64.5,27.1,64.5,27.2,64.5z"/>
				</g>
				<g id="XMLID_87_">
					<path id="XMLID_89_" class="st17" d="M26.5,64.9L26.5,64.9c0,0.1,0,0.2,0,0.3l0,0c0,0,0.1,0,0.1-0.1l0,0
						C26.6,65,26.6,64.9,26.5,64.9L26.5,64.9L26.5,64.9z"/>
					<path id="XMLID_88_" class="st18" d="M26.5,64.9L26.5,64.9c0,0,0,0.1-0.1,0.2C26.4,65.1,26.6,64.9,26.5,64.9L26.5,64.9
						L26.5,64.9z"/>
				</g>
			</g>
		</g>
	</g>
	<g id="XMLID_28_">
		<g id="XMLID_31_">
			<g id="XMLID_32_">
				<g id="XMLID_38_">
					<g id="XMLID_39_">
						<polygon id="XMLID_81_" class="st19" points="35.6,44 53.9,54.6 53.9,36.3 35.6,25.8 						"/>
						<polygon id="XMLID_16542_" class="st20" points="35.6,44 45,49.4 53.9,36.3 35.6,25.8 						"/>
						<polygon id="XMLID_80_" class="st21" points="66.9,47.1 53.9,54.6 53.9,36.3 23.1,54.2 23.1,72.4 22.5,72.7 22.5,53.8 
							66.9,28.1 						"/>
						<polyline id="XMLID_16549_" class="st6" points="53.9,54.6 53.9,36.3 23.1,54.2 23.1,72.4 22.5,72.7 22.5,53.8 66.9,28.1 
													"/>
						<g id="XMLID_65_">
							<g id="XMLID_70_">
								<polygon id="XMLID_78_" class="st22" points="65.6,34.9 55.3,41 55.3,35.6 65.6,29.6 								"/>
								<polygon id="XMLID_75_" class="st23" points="55.4,40.6 55.3,40.5 55.3,35.8 65.2,30 65.5,30.1 65.5,34.8 								"/>
								<polygon id="XMLID_74_" class="st6" points="65.5,34.8 55.4,40.6 55.4,35.9 65.5,30.1 								"/>
								<polyline id="XMLID_16546_" class="st2" points="55.4,40.6 55.4,35.9 65.5,30.1 								"/>
								<polygon id="XMLID_73_" class="st23" points="55.8,36.4 55.4,36.1 55.4,35.9 55.8,36.1 								"/>
								<polygon id="XMLID_72_" class="st23" points="56,36.6 55.8,36.4 55.8,36.1 56,36.2 								"/>
								<polygon id="XMLID_71_" class="st24" points="65.5,30.1 55.4,35.9 55.3,35.8 65.2,30 								"/>
							</g>
							<polygon id="XMLID_69_" class="st24" points="65.6,30.3 55.6,36 55.4,35.9 65.5,30.1 							"/>
							<polygon id="XMLID_68_" class="st24" points="65.8,30.3 55.8,36.1 55.6,36 65.6,30.3 							"/>
							<polygon id="XMLID_67_" class="st24" points="66,30.4 56,36.2 55.8,36.1 65.8,30.3 							"/>
							<polygon id="XMLID_66_" class="st25" points="66,30.4 56,36.2 56,36.6 66,30.7 							"/>
						</g>
						<g id="XMLID_53_">
							<g id="XMLID_58_">
								<polygon id="XMLID_64_" class="st22" points="65.6,40.8 55.3,46.8 55.3,41.4 65.6,35.4 								"/>
								<polygon id="XMLID_63_" class="st23" points="55.4,46.4 55.3,46.3 55.3,41.7 65.2,35.9 65.5,36 65.5,40.6 								"/>
								<polygon id="XMLID_62_" class="st6" points="65.5,40.6 55.4,46.4 55.4,41.7 65.5,36 								"/>
								<polyline id="XMLID_16547_" class="st2" points="55.4,46.4 55.4,41.7 65.5,36 								"/>
								<polygon id="XMLID_61_" class="st23" points="55.8,42.2 55.4,42 55.4,41.7 55.8,42 								"/>
								<polygon id="XMLID_60_" class="st23" points="56,42.4 55.8,42.3 55.8,42 56,42.1 								"/>
								<polygon id="XMLID_59_" class="st24" points="65.5,36 55.4,41.7 55.3,41.7 65.2,35.9 								"/>
							</g>
							<polygon id="XMLID_57_" class="st24" points="65.6,36 55.6,41.9 55.4,41.7 65.5,36 							"/>
							<polygon id="XMLID_56_" class="st24" points="65.8,36.2 55.8,42 55.6,41.9 65.6,36 							"/>
							<polygon id="XMLID_55_" class="st24" points="66,36.3 56,42.1 55.8,42 65.8,36.2 							"/>
							<polygon id="XMLID_54_" class="st25" points="66,36.3 56,42.1 56,42.4 66,36.6 							"/>
						</g>
						<g id="XMLID_41_">
							<g id="XMLID_46_">
								<polygon id="XMLID_52_" class="st22" points="65.6,46.7 55.3,52.7 55.3,47.3 65.6,41.3 								"/>
								<polygon id="XMLID_51_" class="st23" points="55.4,52.3 55.3,52.2 55.3,47.5 65.2,41.7 65.5,41.8 65.5,46.5 								"/>
								<polygon id="XMLID_50_" class="st6" points="65.5,46.5 55.4,52.3 55.4,47.6 65.5,41.8 								"/>
								<polyline id="XMLID_16548_" class="st2" points="55.4,52.3 55.4,47.6 65.5,41.8 								"/>
								<polygon id="XMLID_49_" class="st23" points="55.8,48.1 55.4,47.8 55.4,47.6 55.8,47.8 								"/>
								<polygon id="XMLID_48_" class="st23" points="56,48.2 55.8,48.2 55.8,47.8 56,47.9 								"/>
								<polygon id="XMLID_47_" class="st24" points="65.5,41.8 55.4,47.6 55.3,47.5 65.2,41.7 								"/>
							</g>
							<polygon id="XMLID_45_" class="st24" points="65.6,41.9 55.6,47.7 55.4,47.6 65.5,41.8 							"/>
							<polygon id="XMLID_44_" class="st24" points="65.8,42 55.8,47.8 55.6,47.7 65.6,41.9 							"/>
							<polygon id="XMLID_43_" class="st24" points="66,42.1 56,47.9 55.8,47.8 65.8,42 							"/>
							<polygon id="XMLID_42_" class="st25" points="66,42.1 56,47.9 56,48.2 66,42.5 							"/>
						</g>
						<polygon id="XMLID_40_" class="st4" points="22.5,72.7 22,72.4 4.8,62.5 4.2,62.2 4.2,43.2 22.5,53.8 						"/>
					</g>
				</g>
				<g id="XMLID_33_">
					<g id="XMLID_34_">
						<polygon id="XMLID_37_" class="st26" points="66.9,26.9 66.9,28.1 22.5,53.8 22.5,52.6 						"/>
						<polygon id="XMLID_36_" class="st27" points="4.2,43.2 22.5,53.8 22.5,52.6 4.2,42.1 						"/>
						<polygon id="XMLID_35_" class="st28" points="67.1,26.9 22.7,52.6 4.4,42.1 48.8,16.4 						"/>
						<polygon class="st29" points="55.4,23.1 60.3,23.1 67.1,26.9 55.4,33.7 						"/>
						<polyline id="XMLID_16550_" class="st29" points="22.5,52.6 4.2,42.1 48.6,16.4 						"/>
						<polygon class="st29" points="51.6,18.2 52.1,18.4 52.1,35.5 45.1,39.5 45.1,18.5 45.5,18.2 						"/>
						<polygon class="st29" points="28.4,49.1 22,49.1 22,32.8 31,31.9 31,47.7 						"/>
					</g>
				</g>
			</g>
		</g>
		<g id="XMLID_29_">
			<polygon id="XMLID_30_" class="st6" points="31.1,67.8 22.5,72.7 22.5,71.8 31.1,66.8 			"/>
		</g>
	</g>
	<g id="XMLID_24_">
		<g id="XMLID_25_">
			<polygon id="XMLID_27_" class="st1" points="31.5,45.3 31.5,78.9 32.4,78.4 32.4,44.8 			"/>
			<polygon id="XMLID_26_" class="st0" points="32.4,44.8 31.5,45.3 3.1,29 4.1,28.4 			"/>
		</g>
		<polygon class="st3" points="31.5,45.3 31.5,78.9 3.1,62.6 2.2,62 2.2,28.4 3.1,29 		"/>
		<polyline class="st2" points="2.2,28.4 3.1,29 31.5,45.3 31.5,78.9 		"/>
	</g>
</g>
<g id="XMLID_1_">
	<path id="XMLID_16551_" class="st30" d="M52.1,19.2c0,1-1.6,1.9-3.5,1.9s-3.5-0.9-3.5-1.9c0-0.1,0-0.8,0-1c0-1,1.6-1.9,3.5-1.9
		c1.9,0,3.5,0.9,3.5,1.9C52.1,18.4,52.1,19,52.1,19.2z"/>
	<path class="st31" d="M52,18.3c0,0.1,0,0.8,0,1c0,1-1.6,1.9-3.5,1.9c-1.1,0-2.1-0.3-2.7-0.7V17c0.6-0.5,1.6-0.7,2.7-0.7
		C50.5,16.3,52.1,17.1,52,18.3z"/>
	<ellipse id="XMLID_16545_" class="st32" cx="48.5" cy="18.2" rx="3.5" ry="1.9"/>
	<path class="st33" d="M48.2,20.1l0.1-3.3h0.9v3.3c-0.2,0-0.3,0-0.5,0S48.4,20.1,48.2,20.1L48.2,20.1z"/>
	<path id="XMLID_22_" class="st33" d="M45.1,18.2c0,1,1.6,1.9,3.5,1.9c1.9,0,3.5-0.9,3.5-1.9"/>
	<rect id="XMLID_21_" x="48.2" y="10.4" class="st34" width="0.7" height="4.2"/>
	<rect x="48.4" y="10.5" class="st31" width="0.5" height="4.1"/>
	<path id="XMLID_20_" class="st34" d="M48.2,14.5l1-0.1V17c0,0.1-0.2,0.2-0.5,0.2s-0.5,0-0.5-0.2l0,0V14.5L48.2,14.5z"/>
	<rect id="XMLID_19_" x="48.2" y="8.7" class="st35" width="0.6" height="2"/>
	<path id="XMLID_18_" class="st34" d="M49.2,10.5L49.2,10.5c0,0.1-0.1,0.3-0.3,0.3h-0.6c-0.1,0-0.3-0.1-0.3-0.3l0,0
		c0-0.1,0.1-0.3,0.3-0.3h0.6C49.1,10.2,49.3,10.3,49.2,10.5z"/>
	<path class="st31" d="M49.1,10.4v0.1c0,0.1,0,0.2-0.2,0.2h-0.8c-0.1,0-0.2,0-0.2-0.2v-0.1c0-0.1,0-0.2,0.2-0.2h0.8
		C49.1,10.2,49.3,10.2,49.1,10.4z"/>
	<g id="XMLID_6_">
		<path id="XMLID_17_" class="st36" d="M52.6,7.5c0,0.8-1.7,1.4-4,1.4s-4-0.6-4-1.4c0,0,0-0.1,0-0.2c0-2.5,2.3-4.3,2.6-5.5
			c0.3-1,2.6-1,2.8,0c0.3,1.3,2.6,3,2.6,5.5C52.6,7.3,52.6,7.5,52.6,7.5z"/>
		<path id="XMLID_16_" class="st37" d="M52.7,7.4c0,0.8-1.7,1.4-4,1.4s-4-0.6-4-1.4c0,0-0.1-0.2,0-0.2c2.6-1.4,2.5-3.9,2.8-5.1
			c0.3-1,2.3-1.3,2.5-0.3c0.3,1.3,2.6,3,2.6,5.5C52.6,7.3,52.6,7.5,52.7,7.4z"/>
		<path id="XMLID_15_" class="st38" d="M52.7,7.5c0,0.8-1.7,1.4-4,1.4S50,1.8,50,1.8c0.3,1.3,2.6,3,2.6,5.5
			C52.6,7.3,52.6,7.5,52.7,7.5z"/>
		<path id="XMLID_14_" class="st39" d="M52.7,7.6c0,0.8-1.8,1.4-4,1.4s-4-0.7-4-1.5V7.3c0-0.9,1.8-1.5,4-1.5s4,0.7,4,1.5
			C52.7,7.4,52.7,7.5,52.7,7.6z"/>
		<ellipse id="XMLID_13_" class="st40" cx="48.6" cy="7.6" rx="3.7" ry="1.3"/>
		<g id="XMLID_11_">
			<path id="XMLID_12_" class="st41" d="M48.6,9c-0.5,0-1,0-1.4-0.1l0.9-2.6h0.1c0.2,0,0.2,0,0.4,0c2,0,3.7,0.6,3.7,1.3
				S50.7,8.9,48.6,9z"/>
		</g>
		<path class="st42" d="M52.2,7c-0.6,0.5-1.9,0.9-3.6,0.9c-1.7,0-3.1-0.3-3.6-0.9c0.6-0.5,1.9-0.9,3.6-0.9C50.2,6.1,51.6,6.5,52.2,7
			z"/>
		<path class="st42" d="M48.5,6.1c1.2,0,2.2,0.3,2.9,0.6c-0.6,0.4-1.7,0.6-2.9,0.6c-1.2,0-2.2-0.3-2.9-0.6
			C46.3,6.4,47.4,6.1,48.5,6.1z"/>
		<g id="XMLID_9_">
			<path id="XMLID_10_" class="st43" d="M47.3,6.3c0.4-0.1,0.8-0.1,1.3-0.1c0.4,0,0.9,0,1.3,0.1C50,6.7,49.8,7,49.7,7.2
				c-0.2,0.3-0.5,0.6-1.1,0.6c-0.6,0-0.9-0.4-1.1-0.6C47.4,7,47.2,6.7,47.3,6.3z"/>
		</g>
		<g id="XMLID_7_">
			<path id="XMLID_8_" class="st44" d="M47.7,6.6c0,0,0.5,0,0.9,0.2C49,7,49.4,7.3,49.3,7.4c-0.2,0.1-0.4,0.2-0.6,0.2
				c-0.5,0-0.8-0.3-0.9-0.5C47.7,7,47.6,6.8,47.7,6.6z"/>
		</g>
	</g>
	<g id="XMLID_3_">
		<path id="XMLID_5_" class="st39" d="M49.2,19.2c0,0.1-0.3,0.3-0.6,0.3c-0.4,0-0.6-0.1-0.6-0.3V19c0-0.1,0.3-0.3,0.6-0.3
			c0.4,0,0.6,0.1,0.6,0.3V19.2z"/>
		<ellipse id="XMLID_4_" class="st37" cx="48.5" cy="19" rx="0.6" ry="0.3"/>
	</g>
</g>
<g id="XMLID_16552_">
	<g id="XMLID_16553_">
		<g id="XMLID_16584_">
			<g id="XMLID_16585_">
				<path id="XMLID_16992_" class="st45" d="M42.2,35.4c0,0.1,0,0.1-0.1,0.2l-11.3,6.6c-0.2,0.1-0.4,0.1-0.6,0l-4.5-2.6
					c-0.1,0-0.1-0.1-0.1-0.2s0-0.5,0-0.6c0-0.1,0-0.2,0.1-0.2L37,32c0.2-0.1,0.4-0.1,0.6,0l4.5,2.6c0.1,0,0.1,0.1,0.1,0.2
					C42.2,34.9,42.2,35.3,42.2,35.4z"/>
				<path class="st46" d="M42.1,34.6C42,34.7,42,35.1,42,35.2c0,0.1,0,0.1-0.1,0.2L30.6,42c0,0.1-0.1,0.1-0.2,0.1v-6.3L37,32
					c0.2-0.1,0.4-0.1,0.6,0L42.1,34.6C42.2,34.6,42.2,34.7,42.1,34.6z"/>
				<path id="XMLID_16991_" class="st47" d="M42.1,34.9l-11.3,6.6c-0.2,0.1-0.4,0.1-0.6,0l-4.5-2.6c-0.2-0.1-0.2-0.2,0-0.3L37,32
					c0.2-0.1,0.4-0.1,0.6,0l4.5,2.6C42.3,34.7,42.3,34.9,42.1,34.9z"/>
				<g id="XMLID_16586_">
					<g id="XMLID_16895_">
						<g id="XMLID_16964_">
							<g id="XMLID_16978_">
								<g id="XMLID_16985_">
									<g id="XMLID_16986_">
										<g id="XMLID_16987_">
											<g id="XMLID_16988_">
												<path id="XMLID_16990_" class="st46" d="M28,38.3c-0.1,0.2-0.1,0.2,0,0.2l-0.4,0.2c0,0-0.1,0-0.2,0l-0.2-0.1v-0.1v-0.1
													c0-0.1,0-0.1,0-0.1l0.4-0.2c0,0,0.1,0,0.2,0L28,38.3L28,38.3L28,38.3z"/>
												<path id="XMLID_16989_" class="st45" d="M27.8,38.1l0.2,0.1c0.1,0.1,0.1,0.2,0,0.2l-0.4,0.2c0,0-0.1,0-0.2,0l-0.2-0.1
													c-0.1-0.1-0.1-0.2,0-0.2l0.4-0.2C27.7,38,27.7,38,27.8,38.1z"/>
											</g>
										</g>
									</g>
								</g>
								<g id="XMLID_16979_">
									<g id="XMLID_16980_">
										<g id="XMLID_16981_">
											<g id="XMLID_16982_">
												<path id="XMLID_16984_" class="st46" d="M28.7,37.9L28.6,38l-0.4,0.3c0,0-0.1,0-0.2,0l-0.1-0.1v-0.1V38
													c0-0.1,0-0.1,0-0.1l0.4-0.2c0,0,0.1,0,0.2,0L28.7,37.9L28.7,37.9L28.7,37.9z"/>
												<path id="XMLID_16983_" class="st45" d="M28.4,37.7l0.2,0.1c0.1,0.1,0.1,0.2,0,0.2l-0.4,0.2c0,0-0.1,0-0.2,0l-0.1-0.1
													c-0.1-0.1-0.1-0.2,0-0.2L28.4,37.7C28.4,37.6,28.4,37.6,28.4,37.7z"/>
											</g>
										</g>
									</g>
								</g>
							</g>
							<g id="XMLID_16965_">
								<g id="XMLID_16972_">
									<g id="XMLID_16973_">
										<g id="XMLID_16974_">
											<g id="XMLID_16975_">
												<path id="XMLID_16977_" class="st46" d="M29.4,37.5c0,0.1,0,0.1,0.1,0.2L29,37.9c0,0-0.1,0-0.2,0l-0.2-0.1v-0.1v-0.1
													c0-0.1,0-0.1,0-0.1l0.4-0.2c0,0,0.1,0,0.2,0L29.4,37.5L29.4,37.5L29.4,37.5z"/>
												<path id="XMLID_16976_" class="st45" d="M29.2,37.2l0.2,0.1c0.1,0.1,0.1,0.2,0,0.2L29,37.7c0,0-0.1,0-0.2,0l-0.2-0.1
													c-0.1-0.1-0.1-0.2,0-0.2l0.4-0.2C29.1,37.2,29.2,37.2,29.2,37.2z"/>
											</g>
										</g>
									</g>
								</g>
								<g id="XMLID_16966_">
									<g id="XMLID_16967_">
										<g id="XMLID_16968_">
											<g id="XMLID_16969_">
												<path id="XMLID_16971_" class="st46" d="M30.2,37.1c-0.1,0.1-0.1,0.1,0,0.2l-0.4,0.2c0,0-0.1,0-0.2,0l-0.2-0.1v-0.1
													v-0.1c0-0.1,0-0.1,0-0.1l0.4-0.2c0,0,0.1,0,0.2,0L30.2,37.1C30.1,37,30.2,37.1,30.2,37.1L30.2,37.1z"/>
												<path id="XMLID_16970_" class="st45" d="M29.7,36.8l0.3,0.1c0.1,0.1,0.1,0.2,0,0.2l-0.3,0.2c0,0-0.1,0-0.2,0l-0.2-0.1
													c-0.1-0.1-0.1-0.2,0-0.2L29.7,36.8C29.8,36.8,29.9,36.8,29.7,36.8z"/>
											</g>
										</g>
									</g>
								</g>
							</g>
						</g>
						<g id="XMLID_16937_">
							<g id="XMLID_16951_">
								<g id="XMLID_16958_">
									<g id="XMLID_16959_">
										<g id="XMLID_16960_">
											<g id="XMLID_16961_">
												<path id="XMLID_16963_" class="st46" d="M30.9,36.7L30.9,36.7L30.5,37c0,0-0.1,0-0.2,0l-0.2-0.1v-0.1l0,0
													c0-0.1,0-0.1,0-0.1l0.4-0.2c0,0,0.1,0,0.2,0L30.9,36.7C30.9,36.6,30.9,36.6,30.9,36.7L30.9,36.7z"/>
												<path id="XMLID_16962_" class="st45" d="M30.7,36.4l0.2,0.1c0.1,0.1,0.1,0.2,0,0.2l-0.4,0.2c0,0-0.1,0-0.2,0l-0.2-0.1
													c-0.1-0.1-0.1-0.2,0-0.2l0.4-0.2C30.5,36.4,30.6,36.4,30.7,36.4z"/>
											</g>
										</g>
									</g>
								</g>
								<g id="XMLID_16952_">
									<g id="XMLID_16953_">
										<g id="XMLID_16954_">
											<g id="XMLID_16955_">
												<path id="XMLID_16957_" class="st46" d="M31.6,36.2c-0.1,0.2-0.1,0.2,0,0.2l-0.4,0.2c0,0-0.1,0-0.2,0l-0.2-0.1v-0.1
													v-0.1c0-0.1,0-0.1,0-0.1l0.4-0.2c0,0,0.1,0,0.2,0L31.6,36.2L31.6,36.2L31.6,36.2z"/>
												<path id="XMLID_16956_" class="st45" d="M31.4,35.9l0.2,0.1c0.1,0.1,0.1,0.2,0,0.2l-0.4,0.2c0,0-0.1,0-0.2,0h-0.2
													c-0.1-0.1-0.1-0.2,0-0.2l0.4-0.2C31.3,36,31.3,36,31.4,35.9z"/>
											</g>
										</g>
									</g>
								</g>
							</g>
							<g id="XMLID_16938_">
								<g id="XMLID_16945_">
									<g id="XMLID_16946_">
										<g id="XMLID_16947_">
											<g id="XMLID_16948_">
												<path id="XMLID_16950_" class="st46" d="M32.3,35.8L32.2,36l-0.3,0.2c0,0-0.1,0-0.2,0l-0.2-0.1V36v-0.1
													c0-0.1,0-0.1,0-0.1l0.4-0.2c0,0,0.1,0,0.2,0L32.3,35.8C32.3,35.7,32.3,35.8,32.3,35.8L32.3,35.8z"/>
												<path id="XMLID_16949_" class="st45" d="M32.1,35.5l0.2,0.1c0.1,0.1,0.1,0.2,0,0.2L31.9,36c0,0-0.1,0-0.2,0h-0.2
													c-0.1-0.1-0.1-0.2,0-0.2l0.4-0.2C32,35.6,32.1,35.6,32.1,35.5z"/>
											</g>
										</g>
									</g>
								</g>
								<g id="XMLID_16939_">
									<g id="XMLID_16940_">
										<g id="XMLID_16941_">
											<g id="XMLID_16942_">
												<path id="XMLID_16944_" class="st46" d="M33,35.4v0.2l-0.4,0.2c0,0-0.1,0-0.2,0l-0.2-0.1v-0.1v-0.1c0-0.1,0-0.1,0-0.1
													l0.4-0.2c0,0,0.1,0,0.2,0L33,35.4C33,35.3,33,35.3,33,35.4L33,35.4z"/>
												<path id="XMLID_16943_" class="st45" d="M32.8,35.1l0.2,0.1c0.1,0.1,0.1,0.2,0,0.2l-0.4,0.3c0,0-0.1,0-0.2,0l-0.2-0.1
													c-0.1-0.1-0.1-0.2,0-0.2l0.4-0.2C32.7,35.1,32.8,35.1,32.8,35.1z"/>
											</g>
										</g>
									</g>
								</g>
							</g>
						</g>
						<g id="XMLID_16910_">
							<g id="XMLID_16924_">
								<g id="XMLID_16931_">
									<g id="XMLID_16932_">
										<g id="XMLID_16933_">
											<g id="XMLID_16934_">
												<path id="XMLID_16936_" class="st46" d="M33.8,34.9l0,0.3l-0.4,0.2c0,0-0.1,0-0.2,0L33,35.3v-0.1v-0.1
													c0-0.1,0-0.1,0-0.1l0.4-0.3c0,0,0.1,0,0.2,0L33.8,34.9C33.7,34.9,33.7,34.9,33.8,34.9L33.8,34.9z"/>
												<path id="XMLID_16935_" class="st45" d="M33.6,34.7l0.2,0.1c0.1,0.1,0.1,0.2,0,0.2l-0.4,0.2c0,0-0.1,0-0.2,0L33,35.1
													c-0.1-0.1-0.1-0.2,0-0.2l0.4-0.2C33.4,34.7,33.5,34.7,33.6,34.7z"/>
											</g>
										</g>
									</g>
								</g>
								<g id="XMLID_16925_">
									<g id="XMLID_16926_">
										<g id="XMLID_16927_">
											<g id="XMLID_16928_">
												<path id="XMLID_16930_" class="st46" d="M34.5,34.5v0.2l-0.4,0.2c0,0-0.1,0-0.2,0l-0.2-0.1v-0.1v-0.1c0-0.1,0-0.1,0-0.1
													l0.4-0.2c0,0,0.1,0,0.2,0L34.5,34.5L34.5,34.5L34.5,34.5z"/>
												<path id="XMLID_16929_" class="st45" d="M34.3,34.3l0.2,0.1c0.1,0.1,0.1,0.2,0,0.2l-0.4,0.2c0,0-0.1,0-0.2,0l-0.2-0.1
													c-0.1-0.1-0.1-0.2,0-0.2l0.4-0.2C34.1,34.3,34.2,34.3,34.3,34.3z"/>
											</g>
										</g>
									</g>
								</g>
							</g>
							<g id="XMLID_16911_">
								<g id="XMLID_16918_">
									<g id="XMLID_16919_">
										<g id="XMLID_16920_">
											<g id="XMLID_16921_">
												<path id="XMLID_16923_" class="st46" d="M35.3,34.1c-0.1,0.2-0.1,0.2-0.1,0.3l-0.4,0.2c0,0-0.1,0-0.2,0l-0.2-0.1v-0.1
													v-0.1c0-0.1,0-0.1,0-0.1l0.4-0.2c0,0,0.1,0,0.2,0L35.3,34.1L35.3,34.1L35.3,34.1z"/>
												<path id="XMLID_16922_" class="st45" d="M35.1,33.9l0.2,0.1c0.1,0.1,0.1,0.2,0,0.2l-0.4,0.2c0,0-0.1,0-0.2,0l-0.2-0.1
													c-0.1-0.1-0.1-0.2,0-0.2l0.4-0.2C34.9,33.8,34.9,33.8,35.1,33.9z"/>
											</g>
										</g>
									</g>
								</g>
								<g id="XMLID_16912_">
									<g id="XMLID_16913_">
										<g id="XMLID_16914_">
											<g id="XMLID_16915_">
												<path id="XMLID_16917_" class="st46" d="M36,33.7v0.2l-0.4,0.2c0,0-0.1,0-0.2,0L35.2,34v-0.1v-0.1c0-0.1,0-0.1,0-0.1
													l0.4-0.2c0,0,0.1,0,0.2,0L36,33.7L36,33.7L36,33.7z"/>
												<path id="XMLID_16916_" class="st45" d="M35.8,33.4l0.2,0.1c0.1,0.1,0.1,0.2,0,0.2l-0.4,0.2c0,0-0.1,0-0.2,0l-0.2-0.1
													c-0.1-0.1-0.1-0.2,0-0.2l0.4-0.2C35.6,33.4,35.7,33.4,35.8,33.4z"/>
											</g>
										</g>
									</g>
								</g>
							</g>
						</g>
						<g id="XMLID_16896_">
							<g id="XMLID_16897_">
								<g id="XMLID_16904_">
									<g id="XMLID_16905_">
										<g id="XMLID_16906_">
											<g id="XMLID_16907_">
												<path id="XMLID_16909_" class="st46" d="M36.7,33.3l-0.1,0.2l-0.4,0.2c0,0-0.1,0-0.2,0l-0.1-0.1v-0.1v-0.1
													c0-0.1,0-0.1,0-0.1l0.4-0.2c0,0,0.1,0,0.2,0L36.7,33.3C36.7,33.2,36.7,33.3,36.7,33.3L36.7,33.3z"/>
												<path id="XMLID_16908_" class="st45" d="M36.4,33l0.2,0.1c0.1,0.1,0.1,0.2,0,0.2l-0.4,0.2c0,0-0.1,0-0.2,0l-0.1-0.1
													c-0.1-0.1-0.1-0.2,0-0.2l0.4-0.2C36.4,33,36.4,33,36.4,33z"/>
											</g>
										</g>
									</g>
								</g>
								<g id="XMLID_16898_">
									<g id="XMLID_16899_">
										<g id="XMLID_16900_">
											<g id="XMLID_16901_">
												<path id="XMLID_16903_" class="st46" d="M37.4,32.9L37.3,33L37,33.3c0,0-0.1,0-0.2,0l-0.2-0.1v-0.1V33
													c0-0.1,0-0.1,0-0.1l0.4-0.2c0,0,0.1,0,0.2,0L37.4,32.9C37.4,32.8,37.4,32.8,37.4,32.9L37.4,32.9z"/>
												<path id="XMLID_16902_" class="st45" d="M37.3,32.6l0.2,0.1c0.1,0.1,0.1,0.2,0,0.2L37,33.1c0,0-0.1,0-0.2,0L36.6,33
													c-0.1-0.1-0.1-0.2,0-0.2l0.4-0.2C37.1,32.6,37.2,32.6,37.3,32.6z"/>
											</g>
										</g>
									</g>
								</g>
							</g>
						</g>
					</g>
					<g id="XMLID_16830_">
						<g id="XMLID_16886_">
							<g id="XMLID_16891_">
								<g id="XMLID_16892_">
									<path id="XMLID_16894_" class="st46" d="M37.2,33.8C37.1,34,37.1,34,37.1,34l-0.4,0.2c0,0-0.1,0-0.2,0L36.1,34v-0.1v-0.1
										c0-0.1,0-0.1,0-0.1l0.4-0.2c0,0,0.1,0,0.2,0L37.2,33.8L37.2,33.8L37.2,33.8z"/>
									<path id="XMLID_16893_" class="st45" d="M36.7,33.4l0.4,0.2c0.1,0.1,0.1,0.2,0,0.2L36.7,34c0,0-0.1,0-0.2,0l-0.4-0.2
										c-0.1-0.1-0.1-0.2,0-0.2l0.4-0.2C36.6,33.4,36.7,33.4,36.7,33.4z"/>
								</g>
							</g>
							<g id="XMLID_16887_">
								<g id="XMLID_16888_">
									<path id="XMLID_16890_" class="st46" d="M36.4,34.2c0,0.2,0,0.2-0.1,0.2l-0.4,0.2c0,0-0.1,0-0.2,0l-0.4-0.2v-0.1v-0.1
										c0-0.1,0-0.1,0-0.1l0.4-0.2c0,0,0.1,0,0.2,0L36.4,34.2C36.4,34.1,36.4,34.2,36.4,34.2L36.4,34.2z"/>
									<path id="XMLID_16889_" class="st45" d="M36,33.8l0.4,0.2c0.1,0.1,0.1,0.2,0,0.2L36,34.4c0,0-0.1,0-0.2,0l-0.4-0.2
										c-0.1-0.1-0.1-0.2,0-0.2l0.4-0.2C35.9,33.8,36,33.8,36,33.8z"/>
								</g>
							</g>
						</g>
						<g id="XMLID_16881_">
							<g id="XMLID_16882_">
								<g id="XMLID_16883_">
									<path id="XMLID_16885_" class="st46" d="M38.1,33.3C38,33.4,38,33.4,38,33.4l-0.6,0.5c0,0-0.1,0-0.2,0l-0.4-0.2v-0.1v-0.1
										c0-0.1,0-0.1,0-0.1l0.6-0.4c0,0,0.1,0,0.2,0L38.1,33.3C38.1,33.2,38.1,33.3,38.1,33.3L38.1,33.3z"/>
									<path id="XMLID_16884_" class="st45" d="M37.5,32.9l0.5,0.2c0.1,0.1,0.1,0.2,0,0.2l-0.5,0.4c0,0-0.1,0-0.2,0l-0.4-0.2
										c-0.1-0.1-0.1-0.2,0-0.2L37.5,32.9C37.5,32.9,37.6,32.9,37.5,32.9z"/>
								</g>
							</g>
						</g>
						<g id="XMLID_16872_">
							<g id="XMLID_16877_">
								<g id="XMLID_16878_">
									<path id="XMLID_16880_" class="st46" d="M35.7,34.6c-0.1,0.2-0.1,0.2,0,0.2L35.3,35c0,0-0.1,0-0.2,0l-0.5-0.2v-0.1v-0.1
										c0-0.1,0-0.1,0-0.1l0.4-0.2c0,0,0.1,0,0.2,0L35.7,34.6L35.7,34.6L35.7,34.6z"/>
									<path id="XMLID_16879_" class="st45" d="M35.3,34.3l0.4,0.2c0.1,0.1,0.1,0.2,0,0.2l-0.4,0.2c0,0-0.1,0-0.2,0l-0.4-0.2
										c-0.1-0.1-0.1-0.2,0-0.2l0.4-0.2C35.2,34.2,35.3,34.2,35.3,34.3z"/>
								</g>
							</g>
							<g id="XMLID_16873_">
								<g id="XMLID_16874_">
									<path id="XMLID_16876_" class="st46" d="M35,35c-0.1,0.2-0.1,0.2-0.1,0.2l-0.4,0.2c0,0-0.1,0-0.2,0l-0.4-0.2v-0.1V35
										c0-0.1,0-0.1,0-0.1l0.4-0.2c0,0,0.1,0,0.2,0L35,35L35,35L35,35z"/>
									<path id="XMLID_16875_" class="st45" d="M34.5,34.6l0.4,0.2c0.1,0.1,0.1,0.2,0,0.2l-0.3,0.3c0,0-0.1,0-0.2,0L34,35.1
										c-0.1-0.1-0.1-0.2,0-0.2l0.4-0.2C34.5,34.6,34.5,34.6,34.5,34.6z"/>
								</g>
							</g>
						</g>
						<g id="XMLID_16863_">
							<g id="XMLID_16868_">
								<g id="XMLID_16869_">
									<path id="XMLID_16871_" class="st46" d="M34.2,35.6C34.2,35.7,34.2,35.7,34.2,35.6l-0.4,0.3c0,0-0.1,0-0.2,0l-0.3-0.2v-0.1
										v-0.1c0-0.1,0-0.1,0-0.1l0.4-0.2c0,0,0.1,0,0.2,0l0.5,0.3c-0.1-0.1-0.1-0.1,0,0L34.2,35.6z"/>
									<path id="XMLID_16870_" class="st45" d="M33.9,35.1l0.4,0.2c0.1,0.1,0.1,0.2,0,0.2l-0.4,0.2c0,0-0.1,0-0.2,0l-0.4-0.2
										c-0.1-0.1-0.1-0.2,0-0.2l0.4-0.2C33.7,35.1,33.8,35.1,33.9,35.1z"/>
								</g>
							</g>
							<g id="XMLID_16864_">
								<g id="XMLID_16865_">
									<path id="XMLID_16867_" class="st46" d="M33.7,35.9C33.6,36,33.6,36,33.6,36l-0.4,0.3c0,0-0.1,0-0.2,0L32.6,36l0,0v-0.1
										c0-0.1,0-0.1,0-0.1l0.4-0.2c0,0,0.1,0,0.2,0L33.7,35.9C33.6,35.8,33.6,35.8,33.7,35.9L33.7,35.9z"/>
									<path id="XMLID_16866_" class="st45" d="M33.2,35.5l0.4,0.2c0.1,0.1,0.1,0.2,0,0.2l-0.4,0.2c0,0-0.1,0-0.2,0l-0.4-0.2
										c-0.1-0.1-0.1-0.2,0-0.2l0.4-0.2C33,35.5,33.1,35.5,33.2,35.5z"/>
								</g>
							</g>
						</g>
						<g id="XMLID_16854_">
							<g id="XMLID_16859_">
								<g id="XMLID_16860_">
									<path id="XMLID_16862_" class="st46" d="M33,36.3c-0.1,0.1-0.1,0.1-0.1,0.2l-0.4,0.2c0,0-0.1,0-0.2,0l-0.4-0.2v-0.1v-0.1
										c0-0.1,0-0.1,0-0.1l0.4-0.2c0,0,0.1,0,0.2,0L33,36.3C32.9,36.2,33,36.3,33,36.3L33,36.3z"/>
									<path id="XMLID_16861_" class="st45" d="M32.5,35.9l0.4,0.2c0.1,0.1,0.1,0.2,0,0.2l-0.4,0.2c0,0-0.1,0-0.2,0l-0.4-0.2
										c-0.1-0.1-0.1-0.2,0-0.2l0.4-0.2C32.3,35.9,32.4,35.9,32.5,35.9z"/>
								</g>
							</g>
							<g id="XMLID_16855_">
								<g id="XMLID_16856_">
									<path id="XMLID_16858_" class="st46" d="M32.2,36.7c0,0.1,0,0.1-0.1,0.2l-0.4,0.2c0,0-0.1,0-0.2,0l-0.4-0.2v-0.1v-0.1
										c0-0.1,0-0.1,0-0.1l0.4-0.2c0,0,0.1,0,0.2,0L32.2,36.7L32.2,36.7L32.2,36.7z"/>
									<path id="XMLID_16857_" class="st45" d="M31.8,36.3l0.4,0.2c0.1,0.1,0.1,0.2,0,0.2l-0.4,0.2c0,0-0.1,0-0.2,0l-0.4-0.2
										c-0.1-0.1-0.1-0.2,0-0.2l0.4-0.2C31.6,36.3,31.7,36.3,31.8,36.3z"/>
								</g>
							</g>
						</g>
						<g id="XMLID_16845_">
							<g id="XMLID_16850_">
								<g id="XMLID_16851_">
									<path id="XMLID_16853_" class="st46" d="M31.5,37.1c0,0.1,0,0.1-0.1,0.2L31,37.5c0,0-0.1,0-0.2,0l-0.4-0.2v-0.1v-0.1
										c0-0.1,0-0.1,0-0.1l0.4-0.2c0,0,0.1,0,0.2,0L31.5,37.1L31.5,37.1L31.5,37.1z"/>
									<path id="XMLID_16852_" class="st45" d="M31.1,36.8l0.4,0.2c0.1,0.1,0.1,0.2,0,0.2l-0.4,0.2c0,0-0.1,0-0.2,0l-0.4-0.2
										c-0.1-0.1-0.1-0.2,0-0.2l0.4-0.2C30.9,36.7,31,36.7,31.1,36.8z"/>
								</g>
							</g>
							<g id="XMLID_16846_">
								<g id="XMLID_16847_">
									<path id="XMLID_16849_" class="st46" d="M30.8,37.5c-0.1,0.1-0.1,0.1-0.1,0.2L30.3,38c0,0-0.1,0-0.2,0l-0.4-0.2v-0.1v-0.2
										c0-0.1,0-0.1,0-0.1l0.4-0.2c0,0,0.1,0,0.2,0L30.8,37.5C30.7,37.5,30.8,37.5,30.8,37.5L30.8,37.5z"/>
									<path id="XMLID_16848_" class="st45" d="M30.4,37.2l0.4,0.2c0.1,0.1,0.1,0.2,0,0.2l-0.4,0.2c0,0-0.1,0-0.2,0l-0.4-0.2
										c-0.1-0.1-0.1-0.2,0-0.2l0.4-0.2C30.2,37.1,30.3,37.1,30.4,37.2z"/>
								</g>
							</g>
						</g>
						<g id="XMLID_16836_">
							<g id="XMLID_16841_">
								<g id="XMLID_16842_">
									<path id="XMLID_16844_" class="st46" d="M30.1,37.9C30,38.1,30,38.1,30,38.1l-0.4,0.2c0,0-0.1,0-0.2,0L29,38.1V38v-0.1
										c0-0.1,0-0.1,0-0.1l0.4-0.2c0,0,0.1,0,0.2,0L30.1,37.9C30,37.9,30.1,37.9,30.1,37.9L30.1,37.9z"/>
									<path id="XMLID_16843_" class="st45" d="M29.5,37.5l0.5,0.2c0.1,0.1,0.1,0.2,0,0.2l-0.3,0.2c0,0-0.1,0-0.2,0l-0.4-0.2
										c-0.1-0.1-0.1-0.2,0-0.2L29.5,37.5L29.5,37.5z"/>
								</g>
							</g>
							<g id="XMLID_16837_">
								<g id="XMLID_16838_">
									<path id="XMLID_16840_" class="st46" d="M29.4,38.3c-0.1,0.2-0.1,0.2-0.1,0.2l-0.4,0.2c0,0-0.1,0-0.2,0l-0.4-0.2v-0.1v-0.1
										c0-0.1,0-0.1,0-0.1l0.4-0.2c0,0,0.1,0,0.2,0L29.4,38.3C29.3,38.3,29.4,38.3,29.4,38.3L29.4,38.3z"/>
									<path id="XMLID_16839_" class="st45" d="M29,37.9l0.4,0.2c0.1,0.1,0.1,0.2,0,0.2L29,38.5c0,0-0.1,0-0.2,0l-0.4-0.2
										c-0.1-0.1-0.1-0.2,0-0.2l0.4-0.2C28.8,37.9,28.8,37.9,29,37.9z"/>
								</g>
							</g>
						</g>
						<g id="XMLID_16831_">
							<g id="XMLID_16832_">
								<g id="XMLID_16833_">
									<path id="XMLID_16835_" class="st46" d="M28.7,38.7c-0.1,0.2-0.1,0.2-0.1,0.2l-0.4,0.2c0,0-0.1,0-0.2,0l-0.4-0.2v-0.1v-0.1
										c0-0.1,0-0.1,0-0.1l0.4-0.2c0,0,0.1,0,0.2,0L28.7,38.7C28.6,38.7,28.7,38.7,28.7,38.7L28.7,38.7z"/>
									<path id="XMLID_16834_" class="st45" d="M28.2,38.4l0.4,0.2c0.1,0.1,0.1,0.2,0,0.2L28.2,39c0,0-0.1,0-0.2,0l-0.4-0.3
										c-0.1-0.1-0.1-0.2,0-0.2l0.4-0.2C28,38.3,28.1,38.3,28.2,38.4z"/>
								</g>
							</g>
						</g>
					</g>
					<g id="XMLID_16766_">
						<g id="XMLID_16825_">
							<g id="XMLID_16826_">
								<g id="XMLID_16827_">
									<path id="XMLID_16829_" class="st46" d="M29.6,39c0,0.1,0,0.1-0.1,0.2l-0.6,0.4c0,0-0.1,0-0.2,0l-0.4-0.2v-0.1v-0.1
										c0-0.1,0-0.1,0-0.1l0.6-0.4c0,0,0.1,0,0.2,0L29.6,39L29.6,39L29.6,39z"/>
									<path id="XMLID_16828_" class="st45" d="M29.2,38.7l0.4,0.2c0.1,0.1,0.1,0.2,0,0.2L29,39.5c0,0-0.1,0-0.2,0l-0.4-0.2
										c-0.1-0.1-0.1-0.2,0-0.2l0.6-0.4C29,38.6,29.1,38.6,29.2,38.7z"/>
								</g>
							</g>
						</g>
						<g id="XMLID_16770_">
							<g id="XMLID_16821_">
								<g id="XMLID_16822_">
									<path id="XMLID_16824_" class="st46" d="M38.1,34.1C38,34.2,38,34.2,38,34.2l-0.4,0.3c0,0-0.1,0-0.2,0L37,34.3v-0.1v-0.1
										c0-0.1,0-0.1,0-0.1l0.4-0.2c0,0,0.1,0,0.2,0L38.1,34.1C38.1,34,38.1,34.1,38.1,34.1L38.1,34.1z"/>
									<path id="XMLID_16823_" class="st45" d="M37.5,33.7l0.5,0.2c0.1,0.1,0.1,0.2,0,0.2l-0.3,0.2c0,0-0.1,0-0.2,0l-0.4-0.2
										c-0.1-0.1-0.1-0.2,0-0.2L37.5,33.7C37.5,33.7,37.6,33.7,37.5,33.7z"/>
								</g>
							</g>
							<g id="XMLID_16812_">
								<g id="XMLID_16817_">
									<g id="XMLID_16818_">
										<path id="XMLID_16820_" class="st46" d="M37.4,34.5L37.4,34.5c-0.1,0.1-0.1,0.1-0.1,0.2l-0.4,0.2c0,0-0.1,0-0.2,0
											l-0.4-0.2v-0.1v-0.1c0-0.1,0-0.1,0-0.1l0.4-0.2c0,0,0.1,0,0.2,0L37.4,34.5L37.4,34.5L37.4,34.5z"/>
										<path id="XMLID_16819_" class="st45" d="M37.1,34l0.4,0.2c0.1,0.1,0.1,0.2,0,0.2L37,34.7c0,0-0.1,0-0.2,0l-0.4-0.2
											c-0.1-0.1-0.1-0.2,0-0.2l0.4-0.2C36.8,34.1,36.9,34.1,37.1,34z"/>
									</g>
								</g>
								<g id="XMLID_16813_">
									<g id="XMLID_16814_">
										<path id="XMLID_16816_" class="st46" d="M36.7,34.9C36.6,35,36.6,35,36.6,35l-0.4,0.3c0,0-0.1,0-0.2,0L35.6,35l0,0v-0.1
											c0-0.1,0-0.1,0-0.1l0.4-0.2c0,0,0.1,0,0.2,0L36.7,34.9L36.7,34.9L36.7,34.9z"/>
										<path id="XMLID_16815_" class="st45" d="M36.2,34.5l0.4,0.2c0.1,0.1,0.1,0.2,0,0.2l-0.4,0.2c0,0-0.1,0-0.2,0l-0.4-0.2
											c-0.1-0.1-0.1-0.2,0-0.2l0.4-0.2C36.1,34.5,36.2,34.5,36.2,34.5z"/>
									</g>
								</g>
							</g>
							<g id="XMLID_16803_">
								<g id="XMLID_16808_">
									<g id="XMLID_16809_">
										<path id="XMLID_16811_" class="st46" d="M36,35.3c-0.1,0.2-0.1,0.2-0.1,0.2l-0.4,0.2c0,0-0.1,0-0.2,0l-0.4-0.2v-0.1v-0.1
											c0-0.1,0-0.1,0-0.1l0.4-0.2c0,0,0.1,0,0.2,0L36,35.3L36,35.3L36,35.3z"/>
										<path id="XMLID_16810_" class="st45" d="M35.5,34.9l0.4,0.2c0.1,0.1,0.1,0.2,0,0.2l-0.4,0.2c0,0-0.1,0-0.2,0l-0.4-0.2
											c-0.1-0.1-0.1-0.2,0-0.2l0.4-0.2C35.4,34.9,35.5,34.9,35.5,34.9z"/>
									</g>
								</g>
								<g id="XMLID_16804_">
									<g id="XMLID_16805_">
										<path id="XMLID_16807_" class="st46" d="M35.3,35.7c0,0.2,0,0.2,0,0.2l-0.5,0.2c0,0-0.1,0-0.2,0l-0.4-0.2v-0.1v-0.1
											c0-0.1,0-0.1,0-0.1l0.4-0.2c0,0,0.1,0,0.2,0L35.3,35.7C35.3,35.6,35.3,35.6,35.3,35.7L35.3,35.7z"/>
										<path id="XMLID_16806_" class="st45" d="M34.9,35.4l0.4,0.2c0.1,0.1,0.1,0.2,0,0.2L34.8,36c0,0-0.1,0-0.2,0l-0.4-0.3
											c-0.1-0.1-0.1-0.2,0-0.2l0.4-0.2C34.7,35.3,34.8,35.3,34.9,35.4z"/>
									</g>
								</g>
							</g>
							<g id="XMLID_16794_">
								<g id="XMLID_16799_">
									<g id="XMLID_16800_">
										<path id="XMLID_16802_" class="st46" d="M34.5,36.1c0,0.2,0,0.2-0.1,0.2L34,36.5c0,0-0.1,0-0.2,0l-0.4-0.2v-0.1v-0.1
											c0-0.1,0-0.1,0-0.1l0.4-0.2c0,0,0.1,0,0.2,0L34.5,36.1C34.5,36,34.5,36.1,34.5,36.1L34.5,36.1z"/>
										<path id="XMLID_16801_" class="st45" d="M34.1,35.7l0.4,0.2c0.1,0.1,0.1,0.2,0,0.2l-0.4,0.2c0,0-0.1,0-0.2,0l-0.4-0.2
											c-0.1-0.1-0.1-0.2,0-0.2l0.4-0.2C34,35.7,34.1,35.7,34.1,35.7z"/>
									</g>
								</g>
								<g id="XMLID_16795_">
									<g id="XMLID_16796_">
										<path id="XMLID_16798_" class="st46" d="M33.8,36.5c-0.1,0.2-0.1,0.2-0.1,0.2l-0.4,0.2c0,0-0.1,0-0.2,0l-0.4-0.2v-0.1
											v-0.1c0-0.1,0-0.1,0-0.1l0.4-0.2c0,0,0.1,0,0.2,0L33.8,36.5L33.8,36.5L33.8,36.5z"/>
										<path id="XMLID_16797_" class="st45" d="M33.4,36.2l0.4,0.2c0.1,0.1,0.1,0.2,0,0.2l-0.4,0.2c0,0-0.1,0-0.2,0l-0.4-0.2
											c-0.1-0.1-0.1-0.2,0-0.2l0.4-0.2C33.3,36.1,33.4,36.1,33.4,36.2z"/>
									</g>
								</g>
							</g>
							<g id="XMLID_16785_">
								<g id="XMLID_16790_">
									<g id="XMLID_16791_">
										<path id="XMLID_16793_" class="st46" d="M33.2,36.9c-0.1,0.2-0.1,0.2-0.1,0.2l-0.4,0.2c0,0-0.1,0-0.2,0l-0.4-0.2V37v-0.1
											c0-0.1,0-0.1,0-0.1l0.4-0.2c0,0,0.1,0,0.2,0L33.2,36.9C33.1,36.9,33.1,36.9,33.2,36.9L33.2,36.9z"/>
										<path id="XMLID_16792_" class="st45" d="M32.5,36.6l0.5,0.2c0.1,0.1,0.1,0.2,0,0.2l-0.3,0.2c0,0-0.1,0-0.2,0L32.1,37
											c-0.1-0.1-0.1-0.2,0-0.2L32.5,36.6C32.6,36.5,32.6,36.5,32.5,36.6z"/>
									</g>
								</g>
								<g id="XMLID_16786_">
									<g id="XMLID_16787_">
										<path id="XMLID_16789_" class="st46" d="M32.5,37.4c-0.1,0.1-0.1,0.1-0.1,0.2L32,37.8c0,0-0.1,0-0.2,0l-0.4-0.2v-0.1v-0.1
											c0-0.1,0-0.1,0-0.1l0.4-0.2c0,0,0.1,0,0.2,0L32.5,37.4C32.4,37.3,32.5,37.3,32.5,37.4L32.5,37.4z"/>
										<path id="XMLID_16788_" class="st45" d="M32,37l0.4,0.2c0.1,0.1,0.1,0.2,0,0.2L32,37.6c0,0-0.1,0-0.2,0l-0.4-0.2
											c-0.1-0.1-0.1-0.2,0-0.2l0.4-0.2C31.8,36.9,31.9,36.9,32,37z"/>
									</g>
								</g>
							</g>
							<g id="XMLID_16776_">
								<g id="XMLID_16781_">
									<g id="XMLID_16782_">
										<path id="XMLID_16784_" class="st46" d="M31.8,37.8c-0.1,0.1-0.1,0.1-0.1,0.2l-0.4,0.2c0,0-0.1,0-0.2,0L30.7,38v-0.1v-0.1
											c0-0.1,0-0.1,0-0.1l0.4-0.2c0,0,0.1,0,0.2,0L31.8,37.8C31.7,37.7,31.8,37.7,31.8,37.8L31.8,37.8z"/>
										<path id="XMLID_16783_" class="st45" d="M31.3,37.4l0.4,0.2c0.1,0.1,0.1,0.2,0,0.2L31.3,38c0,0-0.1,0-0.2,0l-0.4-0.2
											c-0.1-0.1-0.1-0.2,0-0.2l0.4-0.2C31.1,37.4,31.2,37.4,31.3,37.4z"/>
									</g>
								</g>
								<g id="XMLID_16777_">
									<g id="XMLID_16778_">
										<path id="XMLID_16780_" class="st46" d="M31.1,38.2C31,38.3,31,38.3,31.1,38.2l-0.5,0.4c0,0-0.1,0-0.2,0L30,38.4v-0.1
											v-0.1c0-0.1,0-0.1,0-0.1l0.4-0.2c0,0,0.1,0,0.2,0L31.1,38.2C31,38.1,31.1,38.2,31.1,38.2L31.1,38.2z"/>
										<path id="XMLID_16779_" class="st45" d="M30.4,37.8l0.5,0.2c0.1,0.1,0.1,0.2,0,0.2l-0.4,0.2c0,0-0.1,0-0.2,0L30,38.2
											c-0.1-0.1-0.1-0.2,0-0.2L30.4,37.8L30.4,37.8z"/>
									</g>
								</g>
							</g>
							<g id="XMLID_16771_">
								<g id="XMLID_16772_">
									<g id="XMLID_16773_">
										<path id="XMLID_16775_" class="st46" d="M30.3,38.6c0,0.1,0,0.1,0,0.2L29.9,39c0,0-0.1,0-0.2,0l-0.5-0.2v-0.1v-0.1
											c0-0.1,0-0.1,0-0.1l0.4-0.2c0,0,0.1,0,0.2,0L30.3,38.6L30.3,38.6L30.3,38.6z"/>
										<path id="XMLID_16774_" class="st45" d="M29.9,38.2l0.4,0.2c0.1,0.1,0.1,0.2,0,0.2l-0.4,0.2c0,0-0.1,0-0.2,0l-0.4-0.2
											c-0.1-0.1-0.1-0.2,0-0.2l0.4-0.2C29.7,38.2,29.8,38.2,29.9,38.2z"/>
									</g>
								</g>
							</g>
						</g>
						<g id="XMLID_16767_">
							<path id="XMLID_16769_" class="st46" d="M39.5,34.1C39.5,34.2,39.5,34.2,39.5,34.1l-0.3,0.3c0,0-0.1,0-0.2,0l-0.6-0.3h-0.1
								c-0.1,0-0.1,0-0.2,0l-0.4-0.2v-0.1v-0.1c0-0.1,0-0.1,0-0.1l0.4-0.2c0,0,0.1,0,0.2,0L39.5,34.1C39.5,34,39.5,34.1,39.5,34.1
								L39.5,34.1z"/>
							<path id="XMLID_16768_" class="st45" d="M39.5,33.9l-0.2,0.2c0,0-0.1,0-0.2,0l-0.6-0.3h-0.1c-0.1,0-0.1,0-0.2,0l-0.4-0.2
								c-0.1-0.1-0.1-0.2,0-0.2l0.4-0.2c0,0,0.1,0,0.2,0l0.3,0.2l0,0L39.5,33.9C39.5,34,39.5,34.1,39.5,33.9z"/>
						</g>
					</g>
					<g id="XMLID_16705_">
						<g id="XMLID_16760_">
							<g id="XMLID_16761_">
								<g id="XMLID_16762_">
									<g id="XMLID_16763_">
										<path id="XMLID_16765_" class="st46" d="M30.4,39.4C30.3,39.5,30.3,39.5,30.4,39.4L29.6,40c0,0-0.1,0-0.2,0l-0.5-0.1v-0.1
											v-0.1c0-0.1,0-0.1,0-0.1l0.8-0.5c0,0,0.1,0,0.2,0L30.4,39.4C30.4,39.3,30.4,39.3,30.4,39.4L30.4,39.4z"/>
										<path id="XMLID_16764_" class="st45" d="M30,39l0.4,0.2c0.1,0.1,0.1,0.2,0,0.2l-0.8,0.5c0,0-0.1,0-0.2,0L29,39.7
											c-0.1-0.1-0.1-0.2,0-0.2l0.8-0.5C29.9,39,29.9,39,30,39z"/>
									</g>
								</g>
							</g>
						</g>
						<g id="XMLID_16756_">
							<g id="XMLID_16757_">
								<path id="XMLID_16759_" class="st46" d="M39,34.4c-0.1,0.1-0.1,0.1-0.1,0.2l-0.4,0.2c0,0-0.1,0-0.2,0l-0.4-0.2v-0.1v-0.1
									c0-0.1,0-0.1,0-0.1l0.4-0.2c0,0,0.1,0,0.2,0L39,34.4L39,34.4L39,34.4z"/>
								<path id="XMLID_16758_" class="st45" d="M38.5,34.1l0.4,0.2c0.1,0.1,0.1,0.2,0,0.2l-0.4,0.2c0,0-0.1,0-0.2,0l-0.4-0.2
									c-0.1-0.1-0.1-0.2,0-0.2l0.4-0.2C38.4,34,38.4,34,38.5,34.1z"/>
							</g>
						</g>
						<g id="XMLID_16747_">
							<g id="XMLID_16752_">
								<g id="XMLID_16753_">
									<path id="XMLID_16755_" class="st46" d="M38.3,34.8c-0.1,0.1-0.1,0.1-0.1,0.2l-0.4,0.2c0,0-0.1,0-0.2,0L37.2,35v-0.1v-0.1
										c0-0.1,0-0.1,0-0.1l0.4-0.2c0,0,0.1,0,0.2,0L38.3,34.8L38.3,34.8L38.3,34.8z"/>
									<path id="XMLID_16754_" class="st45" d="M37.8,34.4l0.4,0.2c0.1,0.1,0.1,0.2,0,0.2L37.8,35c0,0-0.1,0-0.2,0l-0.4-0.1
										c-0.1-0.1-0.1-0.2,0-0.2l0.4-0.2C37.7,34.4,37.7,34.4,37.8,34.4z"/>
								</g>
							</g>
							<g id="XMLID_16748_">
								<g id="XMLID_16749_">
									<path id="XMLID_16751_" class="st46" d="M37.5,35.3c0,0.1,0,0.1-0.1,0.2L37,35.7c0,0-0.1,0-0.2,0l-0.4-0.2v-0.1v-0.1
										c0-0.1,0-0.1,0-0.1l0.4-0.2c0,0,0.1,0,0.2,0L37.5,35.3C37.5,35.2,37.5,35.2,37.5,35.3L37.5,35.3z"/>
									<path id="XMLID_16750_" class="st45" d="M37.1,34.9l0.4,0.2c0.1,0.1,0.1,0.2,0,0.2l-0.4,0.2c0,0-0.1,0-0.2,0l-0.4-0.2
										c-0.1-0.1-0.1-0.2,0-0.2l0.4-0.2C37,34.9,37.1,34.9,37.1,34.9z"/>
								</g>
							</g>
						</g>
						<g id="XMLID_16738_">
							<g id="XMLID_16743_">
								<g id="XMLID_16744_">
									<path id="XMLID_16746_" class="st46" d="M36.8,35.6c0,0.2,0,0.2,0,0.2L36.4,36c0,0-0.1,0-0.2,0l-0.5-0.2v-0.1v-0.1
										c0-0.1,0-0.1,0-0.1l0.4-0.2c0,0,0.1,0,0.2,0L36.8,35.6L36.8,35.6L36.8,35.6z"/>
									<path id="XMLID_16745_" class="st45" d="M36.4,35.3l0.4,0.2c0.1,0.1,0.1,0.2,0,0.2l-0.4,0.2c0,0-0.1,0-0.2,0l-0.4-0.2
										c-0.1-0.1-0.1-0.2,0-0.2l0.4-0.2C36.3,35.3,36.4,35.3,36.4,35.3z"/>
								</g>
							</g>
							<g id="XMLID_16739_">
								<g id="XMLID_16740_">
									<path id="XMLID_16742_" class="st46" d="M36.1,36C36,36.2,36,36.2,36,36.2l-0.4,0.2c0,0-0.1,0-0.2,0L35,36.2v-0.1V36
										c0-0.1,0-0.1,0-0.1l0.4-0.2c0,0,0.1,0,0.2,0L36.1,36L36.1,36L36.1,36z"/>
									<path id="XMLID_16741_" class="st45" d="M35.5,35.6l0.5,0.2c0.1,0.1,0.1,0.2,0,0.2l-0.3,0.2c0,0-0.1,0-0.2,0L35.1,36
										c-0.1-0.1-0.1-0.2,0-0.2L35.5,35.6C35.6,35.6,35.6,35.6,35.5,35.6z"/>
								</g>
							</g>
						</g>
						<g id="XMLID_16729_">
							<g id="XMLID_16734_">
								<g id="XMLID_16735_">
									<path id="XMLID_16737_" class="st46" d="M35.4,36.4c-0.1,0.2-0.1,0.2-0.1,0.2l-0.4,0.2c0,0-0.1,0-0.2,0l-0.4-0.2v-0.1v-0.1
										c0-0.1,0-0.1,0-0.1l0.4-0.2c0,0,0.1,0,0.2,0L35.4,36.4L35.4,36.4L35.4,36.4z"/>
									<path id="XMLID_16736_" class="st45" d="M35,36.1l0.4,0.2c0.1,0.1,0.1,0.2,0,0.2L35,36.7c0,0-0.1,0-0.2,0l-0.4-0.2
										c-0.1-0.1-0.1-0.2,0-0.2l0.4-0.2C34.9,36,34.9,36,35,36.1z"/>
								</g>
							</g>
							<g id="XMLID_16730_">
								<g id="XMLID_16731_">
									<path id="XMLID_16733_" class="st46" d="M34.6,37C34.6,37.1,34.6,37.1,34.6,37l-0.4,0.3c0,0-0.1,0-0.2,0l-0.4-0.2V37v-0.1
										c0-0.1,0-0.1,0-0.1l0.4-0.3c0,0,0.1,0,0.2,0l0.5,0.3l0,0L34.6,37z"/>
									<path id="XMLID_16732_" class="st45" d="M34.4,36.4l0.4,0.2c0.1,0.1,0.1,0.2,0,0.2l-0.5,0.3c0,0-0.1,0-0.2,0l-0.4-0.2
										c-0.1-0.1-0.1-0.2,0-0.2l0.4-0.2C34.1,36.4,34.2,36.4,34.4,36.4z"/>
								</g>
							</g>
						</g>
						<g id="XMLID_16720_">
							<g id="XMLID_16725_">
								<g id="XMLID_16726_">
									<path id="XMLID_16728_" class="st46" d="M34,37.3C33.9,37.4,33.9,37.4,34,37.3l-0.5,0.4c0,0-0.1,0-0.2,0l-0.4-0.2v-0.1
										v-0.1c0-0.1,0-0.1,0-0.1l0.4-0.2c0,0,0.1,0,0.2,0L34,37.3C34,37.2,34,37.2,34,37.3L34,37.3z"/>
									<path id="XMLID_16727_" class="st45" d="M33.6,36.9l0.4,0.2c0.1,0.1,0.1,0.2,0,0.2l-0.4,0.2c0,0-0.1,0-0.2,0L33,37.3
										c-0.1-0.1-0.1-0.2,0-0.2l0.4-0.2C33.4,36.9,33.5,36.9,33.6,36.9z"/>
								</g>
							</g>
							<g id="XMLID_16721_">
								<g id="XMLID_16722_">
									<path id="XMLID_16724_" class="st46" d="M33.3,37.7c-0.1,0.2-0.1,0.2-0.1,0.2l-0.4,0.2c0,0-0.1,0-0.2,0l-0.4-0.2v-0.1v-0.1
										c0-0.1,0-0.1,0-0.1l0.4-0.2c0,0,0.1,0,0.2,0L33.3,37.7C33.3,37.6,33.3,37.6,33.3,37.7L33.3,37.7z"/>
									<path id="XMLID_16723_" class="st45" d="M32.8,37.3l0.4,0.2c0.1,0.1,0.1,0.2,0,0.2l-0.4,0.2c0,0-0.1,0-0.2,0l-0.4-0.2
										c-0.1-0.1-0.1-0.2,0-0.2l0.4-0.2C32.7,37.3,32.8,37.3,32.8,37.3z"/>
								</g>
							</g>
						</g>
						<g id="XMLID_16711_">
							<g id="XMLID_16716_">
								<g id="XMLID_16717_">
									<path id="XMLID_16719_" class="st46" d="M32.6,38.1c-0.1,0.2-0.1,0.2-0.1,0.2l-0.4,0.2c0,0-0.1,0-0.2,0l-0.4-0.2v-0.1v-0.1
										c0-0.1,0-0.1,0-0.1l0.4-0.2c0,0,0.1,0,0.2,0L32.6,38.1C32.6,38,32.6,38.1,32.6,38.1L32.6,38.1z"/>
									<path id="XMLID_16718_" class="st45" d="M32.1,37.7l0.4,0.2c0.1,0.1,0.1,0.2,0,0.2l-0.4,0.2c0,0-0.1,0-0.2,0l-0.4-0.2
										c-0.1-0.1-0.1-0.2,0-0.2l0.4-0.2C32,37.7,32.1,37.7,32.1,37.7z"/>
								</g>
							</g>
							<g id="XMLID_16712_">
								<g id="XMLID_16713_">
									<path id="XMLID_16715_" class="st46" d="M31.8,38.5c0,0.2,0,0.2-0.1,0.2l-0.4,0.2c0,0-0.1,0-0.2,0l-0.4-0.2v-0.1v-0.1
										c0-0.1,0-0.1,0-0.1l0.4-0.2c0,0,0.1,0,0.2,0L31.8,38.5L31.8,38.5L31.8,38.5z"/>
									<path id="XMLID_16714_" class="st45" d="M31.4,38.2l0.4,0.2c0.1,0.1,0.1,0.2,0,0.2l-0.4,0.2c0,0-0.1,0-0.2,0l-0.4-0.2
										c-0.1-0.1-0.1-0.2,0-0.2l0.4-0.2C31.3,38.1,31.4,38.1,31.4,38.2z"/>
								</g>
							</g>
						</g>
						<g id="XMLID_16706_">
							<g id="XMLID_16707_">
								<g id="XMLID_16708_">
									<path id="XMLID_16710_" class="st46" d="M31.1,38.9c0,0.2,0,0.2-0.1,0.2l-0.4,0.2c0,0-0.1,0-0.2,0L30,39.1V39v-0.1
										c0-0.1,0-0.1,0-0.1l0.4-0.2c0,0,0.1,0,0.2,0L31.1,38.9L31.1,38.9L31.1,38.9z"/>
									<path id="XMLID_16709_" class="st45" d="M30.7,38.6l0.4,0.2c0.1,0.1,0.1,0.2,0,0.2l-0.4,0.2c0,0-0.1,0-0.2,0L30.1,39
										c-0.1-0.1-0.1-0.2,0-0.2l0.4-0.2C30.6,38.5,30.7,38.5,30.7,38.6z"/>
								</g>
							</g>
						</g>
					</g>
					<g id="XMLID_16644_">
						<g id="XMLID_16700_">
							<g id="XMLID_16701_">
								<g id="XMLID_16702_">
									<path id="XMLID_16704_" class="st46" d="M30.9,39.8C30.8,40,30.8,40,30.8,40l-0.6,0.3c0,0-0.1,0-0.2,0l-0.4-0.2V40v-0.1
										c0-0.1,0-0.1,0-0.1l0.6-0.3c0,0,0.1,0,0.2,0L30.9,39.8L30.9,39.8L30.9,39.8z"/>
									<path id="XMLID_16703_" class="st45" d="M30.5,39.5l0.4,0.2c0.1,0.1,0.1,0.2,0,0.2l-0.6,0.3c0,0-0.1,0-0.2,0L29.7,40
										c-0.1-0.1-0.1-0.2,0-0.2l0.6-0.3C30.3,39.4,30.4,39.4,30.5,39.5z"/>
								</g>
							</g>
						</g>
						<g id="XMLID_16645_">
							<g id="XMLID_16696_">
								<g id="XMLID_16697_">
									<path id="XMLID_16699_" class="st46" d="M40.2,34.5C40.2,34.6,40.2,34.6,40.2,34.5l-1.4,0.8c0,0-0.1,0-0.2,0l-0.4-0.2V35
										l0,0c0-0.1,0-0.1,0-0.1l1.3-0.7c0,0,0.1,0,0.2,0L40.2,34.5L40.2,34.5L40.2,34.5z"/>
									<path id="XMLID_16698_" class="st45" d="M39.8,34l0.4,0.2c0.1,0.1,0.1,0.2,0,0.2l-1.3,0.8c0,0-0.1,0-0.2,0L38.3,35
										c-0.1-0.1-0.1-0.2,0-0.2l1.3-0.7C39.7,34.1,39.8,34.1,39.8,34z"/>
								</g>
							</g>
							<g id="XMLID_16687_">
								<g id="XMLID_16692_">
									<g id="XMLID_16693_">
										<path id="XMLID_16695_" class="st46" d="M38.7,35.3c0,0.2,0,0.2-0.1,0.2l-0.4,0.2c0,0-0.1,0-0.2,0l-0.4-0.2v-0.1v-0.1
											c0-0.1,0-0.1,0-0.1L38,35c0,0,0.1,0,0.2,0L38.7,35.3L38.7,35.3L38.7,35.3z"/>
										<path id="XMLID_16694_" class="st45" d="M38.1,35l0.5,0.2c0.1,0.1,0.1,0.2,0,0.2l-0.4,0.2c0,0-0.1,0-0.2,0l-0.4-0.2
											c-0.1-0.1-0.1-0.2,0-0.2L38.1,35C38.1,34.9,38.2,34.9,38.1,35z"/>
									</g>
								</g>
								<g id="XMLID_16688_">
									<g id="XMLID_16689_">
										<path id="XMLID_16691_" class="st46" d="M38,35.8C37.9,36,37.9,36,37.9,36l-0.4,0.2c0,0-0.1,0-0.2,0L36.9,36v-0.1v-0.1
											c0-0.1,0-0.1,0-0.1l0.4-0.2c0,0,0.1,0,0.2,0L38,35.8C37.9,35.7,38,35.7,38,35.8L38,35.8z"/>
										<path id="XMLID_16690_" class="st45" d="M37.4,35.4l0.5,0.2c0.1,0.1,0.1,0.2,0,0.2L37.5,36c0,0-0.1,0-0.2,0L37,35.8
											c-0.1-0.1-0.1-0.2,0-0.2L37.4,35.4L37.4,35.4z"/>
									</g>
								</g>
							</g>
							<g id="XMLID_16678_">
								<g id="XMLID_16683_">
									<g id="XMLID_16684_">
										<path id="XMLID_16686_" class="st46" d="M37.3,36.2c-0.1,0.2-0.1,0.2-0.1,0.2l-0.4,0.2c0,0-0.1,0-0.2,0l-0.4-0.2v-0.1
											v-0.1c0-0.1,0-0.1,0-0.1l0.4-0.2c0,0,0.1,0,0.2,0L37.3,36.2C37.3,36.1,37.3,36.2,37.3,36.2L37.3,36.2z"/>
										<path id="XMLID_16685_" class="st45" d="M36.9,35.8l0.4,0.2c0.1,0.1,0.1,0.2,0,0.2l-0.4,0.2c0,0-0.1,0-0.2,0l-0.4-0.2
											c-0.1-0.1-0.1-0.2,0-0.2l0.4-0.2C36.7,35.8,36.8,35.8,36.9,35.8z"/>
									</g>
								</g>
								<g id="XMLID_16679_">
									<g id="XMLID_16680_">
										<path id="XMLID_16682_" class="st46" d="M36.6,36.6c-0.1,0.2-0.1,0.2,0,0.2L36.2,37c0,0-0.1,0-0.2,0l-0.5-0.2v-0.1v-0.1
											c0-0.1,0-0.1,0-0.1l0.4-0.2c0,0,0.1,0,0.2,0L36.6,36.6C36.6,36.5,36.6,36.6,36.6,36.6L36.6,36.6z"/>
										<path id="XMLID_16681_" class="st45" d="M36.2,36.2l0.4,0.2c0.1,0.1,0.1,0.2,0,0.2l-0.4,0.2c0,0-0.1,0-0.2,0l-0.4-0.2
											c-0.1-0.1-0.1-0.2,0-0.2l0.4-0.2C36,36.2,36,36.2,36.2,36.2z"/>
									</g>
								</g>
							</g>
							<g id="XMLID_16669_">
								<g id="XMLID_16674_">
									<g id="XMLID_16675_">
										<path id="XMLID_16677_" class="st46" d="M35.9,37c-0.1,0.2-0.1,0.2-0.1,0.2l-0.4,0.2c0,0-0.1,0-0.2,0l-0.4-0.2v-0.1V37
											c0-0.1,0-0.1,0-0.1l0.4-0.2c0,0,0.1,0,0.2,0L35.9,37L35.9,37L35.9,37z"/>
										<path id="XMLID_16676_" class="st45" d="M35.4,36.6l0.4,0.2c0.1,0.1,0.1,0.2,0,0.2l-0.3,0.3c0,0-0.1,0-0.2,0l-0.4-0.2
											c-0.1-0.1-0.1-0.2,0-0.2l0.4-0.2C35.3,36.6,35.3,36.6,35.4,36.6z"/>
									</g>
								</g>
								<g id="XMLID_16670_">
									<g id="XMLID_16671_">
										<path id="XMLID_16673_" class="st46" d="M35.2,37.4c-0.1,0.1-0.1,0.1-0.1,0.2l-0.4,0.2c0,0-0.1,0-0.2,0l-0.4-0.2v-0.1
											v-0.1c0-0.1,0-0.1,0-0.1l0.4-0.2c0,0,0.1,0,0.2,0L35.2,37.4L35.2,37.4L35.2,37.4z"/>
										<path id="XMLID_16672_" class="st45" d="M34.7,37.1l0.4,0.2c0.1,0.1,0.1,0.2,0,0.2l-0.4,0.2c0,0-0.1,0-0.2,0l-0.4-0.2
											c-0.1-0.1-0.1-0.2,0-0.2l0.4-0.2C34.5,37,34.6,37,34.7,37.1z"/>
									</g>
								</g>
							</g>
							<g id="XMLID_16660_">
								<g id="XMLID_16665_">
									<g id="XMLID_16666_">
										<path id="XMLID_16668_" class="st46" d="M34.5,37.9C34.4,38,34.4,38,34.5,37.9L34,38.2c0,0-0.1,0-0.2,0L33.4,38l0,0v-0.1
											c0-0.1,0-0.1,0-0.1l0.4-0.2c0,0,0.1,0,0.2,0L34.5,37.9C34.5,37.8,34.5,37.8,34.5,37.9L34.5,37.9z"/>
										<path id="XMLID_16667_" class="st45" d="M34,37.5l0.4,0.2c0.1,0.1,0.1,0.2,0,0.2L34,38.1c0,0-0.1,0-0.2,0l-0.4-0.2
											c-0.1-0.1-0.1-0.2,0-0.2l0.4-0.2C33.8,37.5,33.9,37.5,34,37.5z"/>
									</g>
								</g>
								<g id="XMLID_16661_">
									<g id="XMLID_16662_">
										<path id="XMLID_16664_" class="st46" d="M33.7,38.3c0,0.1,0,0.1-0.1,0.2l-0.4,0.2c0,0-0.1,0-0.2,0l-0.4-0.2v-0.1v-0.1
											c0-0.1,0-0.1,0-0.1L33,38c0,0,0.1,0,0.2,0L33.7,38.3C33.7,38.2,33.7,38.2,33.7,38.3L33.7,38.3z"/>
										<path id="XMLID_16663_" class="st45" d="M33.3,37.9l0.4,0.2c0.1,0.1,0.1,0.2,0,0.2l-0.4,0.2c0,0-0.1,0-0.2,0l-0.4-0.2
											c-0.1-0.1-0.1-0.2,0-0.2l0.4-0.2C33.1,37.9,33.2,37.9,33.3,37.9z"/>
									</g>
								</g>
							</g>
							<g id="XMLID_16651_">
								<g id="XMLID_16656_">
									<g id="XMLID_16657_">
										<path id="XMLID_16659_" class="st46" d="M33,38.7C33,38.8,33,38.8,33,38.7l-0.5,0.4c0,0-0.1,0-0.2,0l-0.4-0.2v-0.1v-0.1
											c0-0.1,0-0.1,0-0.1l0.4-0.2c0,0,0.1,0,0.2,0L33,38.7C33,38.6,33,38.7,33,38.7L33,38.7z"/>
										<path id="XMLID_16658_" class="st45" d="M32.6,38.3l0.4,0.2c0.1,0.1,0.1,0.2,0,0.2l-0.4,0.2c0,0-0.1,0-0.2,0L32,38.7
											c-0.1-0.1-0.1-0.2,0-0.2l0.4-0.2C32.5,38.3,32.5,38.3,32.6,38.3z"/>
									</g>
								</g>
								<g id="XMLID_16652_">
									<g id="XMLID_16653_">
										<path id="XMLID_16655_" class="st46" d="M32.3,39.1c-0.1,0.1-0.1,0.1-0.1,0.2l-0.4,0.2c0,0-0.1,0-0.2,0l-0.4-0.2v-0.1
											v-0.1c0-0.1,0-0.1,0-0.1l0.4-0.2c0,0,0.1,0,0.2,0L32.3,39.1L32.3,39.1L32.3,39.1z"/>
										<path id="XMLID_16654_" class="st45" d="M31.9,38.7l0.4,0.2c0.1,0.1,0.1,0.2,0,0.2l-0.4,0.2c0,0-0.1,0-0.2,0l-0.4-0.2
											c-0.1-0.1-0.1-0.2,0-0.2l0.4-0.2C31.8,38.7,31.8,38.7,31.9,38.7z"/>
									</g>
								</g>
							</g>
							<g id="XMLID_16646_">
								<g id="XMLID_16647_">
									<g id="XMLID_16648_">
										<path id="XMLID_16650_" class="st46" d="M31.6,39.4c-0.1,0.2-0.1,0.2,0,0.2l-0.4,0.2c0,0-0.1,0-0.2,0l-0.5-0.2v-0.1v-0.1
											c0-0.1,0-0.1,0-0.1l0.4-0.2c0,0,0.1,0,0.2,0L31.6,39.4L31.6,39.4L31.6,39.4z"/>
										<path id="XMLID_16649_" class="st45" d="M31.2,39.2l0.4,0.2c0.1,0.1,0.1,0.2,0,0.2l-0.4,0.2c0,0-0.1,0-0.2,0l-0.4-0.3
											c-0.1-0.1-0.1-0.2,0-0.2l0.4-0.2C31.1,39.1,31.1,39.1,31.2,39.2z"/>
									</g>
								</g>
							</g>
						</g>
					</g>
					<g id="XMLID_16587_">
						<g id="XMLID_16603_">
							<g id="XMLID_16639_">
								<g id="XMLID_16640_">
									<g id="XMLID_16641_">
										<path id="XMLID_16643_" class="st46" d="M37.5,36.9c-0.1,0.2-0.1,0.2-0.1,0.2l-3.6,2.1c0,0-0.1,0-0.2,0L33.2,39v-0.1v-0.1
											c0-0.1,0-0.1,0-0.1l3.6-2.1c0,0,0.1,0,0.2,0L37.5,36.9C37.5,36.8,37.5,36.8,37.5,36.9L37.5,36.9z"/>
										<path id="XMLID_16642_" class="st45" d="M37.1,36.5l0.4,0.2c0.1,0.1,0.1,0.2,0,0.2L33.9,39c0,0-0.1,0-0.2,0l-0.5-0.2
											c-0.1-0.1-0.1-0.2,0-0.2l3.6-2.1C36.9,36.5,37,36.5,37.1,36.5z"/>
									</g>
								</g>
							</g>
							<g id="XMLID_16634_">
								<g id="XMLID_16635_">
									<g id="XMLID_16636_">
										<path id="XMLID_16638_" class="st46" d="M31.4,40.4c-0.1,0.2-0.1,0.2-0.1,0.2L31,40.8c0,0-0.1,0-0.2,0l-0.4-0.2v-0.1v-0.1
											c0-0.1,0-0.1,0-0.1l0.3-0.2c0,0,0.1,0,0.2,0L31.4,40.4L31.4,40.4L31.4,40.4z"/>
										<path id="XMLID_16637_" class="st45" d="M30.9,40.1l0.4,0.2c0.1,0.1,0.1,0.2,0,0.2L31,40.7c0,0-0.1,0-0.2,0l-0.4-0.2
											c-0.1-0.1-0.1-0.2,0-0.2l0.3-0.2C30.8,40,30.9,40,30.9,40.1z"/>
									</g>
								</g>
							</g>
							<g id="XMLID_16629_">
								<g id="XMLID_16630_">
									<g id="XMLID_16631_">
										<path id="XMLID_16633_" class="st46" d="M32.1,40C32,40.2,32,40.2,32,40.2l-0.3,0.2c0,0-0.1,0-0.2,0l-0.4-0.2v-0.1V40
											c0-0.1,0-0.1,0-0.1l0.3-0.2c0,0,0.1,0,0.2,0L32.1,40C32,40,32,40,32.1,40L32.1,40z"/>
										<path id="XMLID_16632_" class="st45" d="M31.6,39.6l0.4,0.2c0.1,0.1,0.1,0.2,0,0.2l-0.3,0.3c0,0-0.1,0-0.2,0l-0.4-0.2
											c-0.1-0.1-0.1-0.2,0-0.2l0.3-0.2C31.5,39.6,31.5,39.6,31.6,39.6z"/>
									</g>
								</g>
							</g>
							<g id="XMLID_16624_">
								<g id="XMLID_16625_">
									<g id="XMLID_16626_">
										<path id="XMLID_16628_" class="st46" d="M32.6,39.7C32.6,39.8,32.6,39.8,32.6,39.7L32.3,40c0,0-0.1,0-0.2,0l-0.4-0.1v-0.1
											v-0.1c0-0.1,0-0.1,0-0.1l0.3-0.2c0,0,0.1,0,0.2,0l0.5,0.3c0-0.1,0-0.1,0,0H32.6z"/>
										<path id="XMLID_16627_" class="st45" d="M32.1,39.3l0.5,0.2c0.1,0.1,0.1,0.2,0,0.2l-0.3,0.2c0,0-0.1,0-0.2,0l-0.3-0.2
											c-0.1-0.1-0.1-0.2,0-0.2L32.1,39.3C32.1,39.3,32.2,39.3,32.1,39.3z"/>
									</g>
								</g>
							</g>
							<g id="XMLID_16619_">
								<g id="XMLID_16620_">
									<g id="XMLID_16621_">
										<path id="XMLID_16623_" class="st46" d="M33.6,39.1c-0.1,0.2-0.1,0.2-0.1,0.2l-0.6,0.3c0,0-0.1,0-0.2,0l-0.4-0.2v-0.1
											v-0.1c0-0.1,0-0.1,0-0.1l0.6-0.3c0,0,0.1,0,0.2,0L33.6,39.1L33.6,39.1L33.6,39.1z"/>
										<path id="XMLID_16622_" class="st45" d="M33.2,38.7l0.4,0.2c0.1,0.1,0.1,0.2,0,0.2L33,39.4c0,0-0.1,0-0.2,0l-0.4-0.2
											c-0.1-0.1-0.1-0.2,0-0.2l0.6-0.3C33,38.7,33.1,38.7,33.2,38.7z"/>
									</g>
								</g>
							</g>
							<g id="XMLID_16614_">
								<g id="XMLID_16615_">
									<g id="XMLID_16616_">
										<path id="XMLID_16618_" class="st46" d="M38.3,36.4c0,0.1,0,0.1,0,0.2l-0.6,0.3c0,0-0.1,0-0.2,0L37,36.7v-0.1v-0.1
											c0-0.1,0-0.1,0-0.1l0.6-0.3c0,0,0.1,0,0.2,0L38.3,36.4L38.3,36.4L38.3,36.4z"/>
										<path id="XMLID_16617_" class="st45" d="M37.9,36l0.4,0.2c0.1,0.1,0.1,0.2,0,0.2l-0.6,0.3c0,0-0.1,0-0.2,0l-0.4-0.2
											c-0.1-0.1-0.1-0.2,0-0.2l0.6-0.3C37.8,36,37.9,36,37.9,36z"/>
									</g>
								</g>
							</g>
							<g id="XMLID_16609_">
								<g id="XMLID_16610_">
									<g id="XMLID_16611_">
										<path id="XMLID_16613_" class="st46" d="M38.9,36C38.9,36.1,38.9,36.1,38.9,36l-0.3,0.3c0,0-0.1,0-0.2,0l-0.3-0.2V36l0,0
											c0-0.1,0-0.1,0-0.1l0.3-0.2c0,0,0.1,0,0.2,0l0.5,0.3c-0.1,0,0,0,0,0H38.9z"/>
										<path id="XMLID_16612_" class="st45" d="M38.4,35.6l0.5,0.2c0.1,0.1,0.1,0.2,0,0.2l-0.3,0.2c0,0-0.1,0-0.2,0L38.1,36
											c-0.1-0.1-0.1-0.2,0-0.2L38.4,35.6C38.4,35.6,38.5,35.6,38.4,35.6z"/>
									</g>
								</g>
							</g>
							<g id="XMLID_16604_">
								<g id="XMLID_16605_">
									<g id="XMLID_16606_">
										<path id="XMLID_16608_" class="st46" d="M40.9,34.9C40.9,35,40.9,35,40.9,34.9l-0.3,0.4c0,0-0.1,0-0.2,0l0,0v-0.1v-0.1
											c0-0.1,0-0.1,0-0.1l0.3-0.2C40.7,34.8,40.7,34.8,40.9,34.9L40.9,34.9L40.9,34.9L40.9,34.9z"/>
										<path id="XMLID_16607_" class="st45" d="M40.8,34.7L40.8,34.7C41,34.9,41,35,40.9,35l-0.3,0.2c0,0-0.1,0-0.2,0l-0.1-0.1
											c-0.1-0.1-0.1-0.2,0-0.2l0.3-0.2C40.7,34.7,40.8,34.7,40.8,34.7z"/>
									</g>
								</g>
							</g>
						</g>
						<g id="XMLID_16598_">
							<g id="XMLID_16599_">
								<g id="XMLID_16600_">
									<path id="XMLID_16602_" class="st46" d="M39.7,35.6l0.1,0.2c0,0.1,0,0.1,0,0.1l-0.3,0.2c0,0-0.1,0-0.2,0L39.2,36l0,0v-0.2
										c0-0.1,0-0.1,0-0.1l0.3-0.2C39.5,35.5,39.5,35.5,39.7,35.6L39.7,35.6L39.7,35.6L39.7,35.6z"/>
									<path id="XMLID_16601_" class="st45" d="M39.4,35.5l0.2,0.1c0.1,0.1,0.1,0.2,0,0.2L39.3,36c0,0-0.1,0-0.2,0v-0.1
										c-0.1-0.1-0.1-0.2,0-0.2L39.4,35.5C39.4,35.4,39.5,35.4,39.4,35.5z"/>
								</g>
							</g>
						</g>
						<g id="XMLID_16593_">
							<g id="XMLID_16594_">
								<g id="XMLID_16595_">
									<path id="XMLID_16597_" class="st46" d="M40,35.2C40,35.3,40,35.3,40,35.2l-0.2,0.4c0,0-0.1,0-0.2,0l-0.1-0.1v-0.1v-0.1
										c0-0.1,0-0.1,0-0.1l0.3-0.2c0,0,0,0,0.2,0.1l0,0c-0.1-0.1,0-0.1,0,0V35.2z"/>
									<path id="XMLID_16596_" class="st45" d="M39.7,34.8L39.7,34.8C39.9,34.9,39.9,35,39.7,34.8l-0.1,0.5c0,0-0.1,0-0.2,0l0,0
										c-0.1-0.1-0.1-0.2,0-0.2L39.7,34.8C39.8,34.9,39.8,34.9,39.7,34.8z"/>
								</g>
							</g>
						</g>
						<g id="XMLID_16588_">
							<g id="XMLID_16589_">
								<g id="XMLID_16590_">
									<path id="XMLID_16592_" class="st46" d="M40.3,35.3l0.1,0.2c0,0.1,0,0.1,0,0.1l-0.3,0.2c0,0-0.1,0-0.2,0l-0.1-0.1v-0.1
										v-0.1c0-0.1,0-0.1,0-0.1l0.3-0.2C40.1,35.2,40.1,35.2,40.3,35.3L40.3,35.3C40.3,35.2,40.3,35.3,40.3,35.3L40.3,35.3z"/>
									<path id="XMLID_16591_" class="st45" d="M40.2,35L40.2,35c0.2,0.2,0.2,0.3,0.1,0.3L40,35.6c0,0-0.1,0-0.2,0l-0.1-0.1
										c-0.1-0.1-0.1-0.2,0-0.2l0.3-0.2C40.1,35,40.2,35,40.2,35z"/>
								</g>
							</g>
						</g>
					</g>
				</g>
			</g>
		</g>
		<g id="XMLID_16580_">
			<path id="XMLID_16583_" class="st48" d="M44,28.4l-3.5,2c-0.6,0.4-0.6,1.3,0,1.7l3.5,2c0.7,0.4,1.5,0.4,2.2,0l3.5-2
				c0.6-0.4,0.6-1.3,0-1.7l-3.5-2C45.5,28,44.7,28,44,28.4z"/>
			<path id="XMLID_16582_" class="st49" d="M44,28.2l-3.5,2c-0.6,0.4-0.6,1.3,0,1.7l3.5,2c0.7,0.4,1.5,0.4,2.2,0l3.5-2
				c0.6-0.4,0.6-1.3,0-1.7l-3.5-2C45.5,27.8,44.7,27.8,44,28.2z"/>
			<path id="XMLID_16581_" class="st50" d="M46.2,28.2c-0.7-0.4-1.5-0.4-2.2,0l-3.5,2c-0.6,0.4-0.6,1.3,0,1.7l3.5,2
				c0.7,0.4,1.5,0.4,2.2,0"/>
		</g>
		<g id="XMLID_16568_">
			<g id="XMLID_16578_">
				<path id="XMLID_16579_" class="st51" d="M27.7,28.9c3.4-0.9,7.3-1.5,9.7-1.3c3.3,0.2,6.1,2.6,6.1,2.6l0.1-0.1
					c-0.1,0-3-2.4-6.2-2.6C35,27.3,31.1,27.9,27.7,28.9L27.7,28.9z"/>
			</g>
			<g id="XMLID_16569_">
				<g id="XMLID_16575_">
					<g id="XMLID_16576_">
						<path id="XMLID_16577_" class="st51" d="M46.4,32.5L46.4,32.5c-0.6,0.1-1.1,0-1.5-0.2l-1.7-0.9c-0.8-0.4-0.6-1.5,0.5-1.7l0,0
							c0.6-0.1,1.1,0,1.5,0.2l1.7,0.9C47.8,31.4,47.5,32.3,46.4,32.5z"/>
					</g>
				</g>
				<g id="XMLID_16572_">
					<path id="XMLID_16574_" class="st52" d="M46.6,32.6c-0.3,0.1-0.6,0.1-0.9,0s-1-0.6-1.6-1c-0.3-0.2-0.6-0.3-0.8-0.4
						c0.1-0.4,0.6-1.5,1.7-1.6c0.2,0,0.5,0.2,1,0.4c0.7,0.4,1.2,0.9,1.3,1.1C47.7,31.5,47.3,32.2,46.6,32.6z"/>
					<path id="XMLID_16573_" class="st53" d="M43.1,31c-0.1,0-0.2-0.1-0.3-0.2c-0.3-0.5,0-1.1,0.9-1.3c0.2-0.1,0.6-0.1,0.8-0.1
						c0.2,0.1,0.2,0.1,0.4,0.1C43.8,29.6,43.3,30.7,43.1,31z"/>
				</g>
				<g id="XMLID_16570_">
					<path id="XMLID_16571_" class="st52" d="M43.9,30c-0.3-0.1-0.6-0.1-0.7-0.1c0-0.1,0.1-0.1,0.1-0.1C43.5,29.8,43.7,29.9,43.9,30
						C43.8,30,43.8,30,43.9,30z"/>
				</g>
			</g>
		</g>
		<g id="XMLID_16554_">
			<g id="XMLID_16562_">
				<path id="XMLID_16567_" class="st47" d="M31,31.7c0,0.1,0,0.3,0,0.4c0,0.2-0.2,0.6-0.4,0.8l-3.5,2c-0.7,0.4-1.5,0.4-2.1,0
					l-2.5-1.4c-0.2-0.1-0.4-0.4-0.4-0.6c0-0.2,0-0.5,0-0.6c0-0.3,0.2-0.5,0.4-0.7l3.4-2c0.7-0.4,1.5-0.4,2.1,0l2.5,1.5
					C30.7,31.2,30.8,31.4,31,31.7z"/>
				<path class="st54" d="M26.2,35.1c-0.4,0.1-0.8,0-1.2-0.2l-2.5-1.4c-0.2-0.1-0.4-0.4-0.4-0.6c0-0.2,0-0.5,0-0.6
					c0-0.3,0.2-0.5,0.4-0.7l3.4-2c0-0.1,0.1-0.1,0.1-0.1h0.2V35.1z"/>
				<path id="XMLID_16566_" class="st55" d="M25.9,29.6l-3.4,2c-0.6,0.3-0.6,1,0,1.3l2.5,1.5c0.7,0.4,1.5,0.4,2.1,0l3.4-2
					c0.6-0.3,0.6-1,0-1.3l-2.6-1.5C27.3,29.2,26.5,29.2,25.9,29.6z"/>
				<path id="XMLID_16565_" class="st47" d="M27.9,29.6c-0.7-0.4-1.5-0.4-2.1,0l-3.4,2c-0.6,0.3-0.6,1,0,1.3l2.5,1.5
					c0.7,0.4,1.5,0.4,2.1,0"/>
				<path class="st56" d="M25,34.4l-0.6-0.2c0-0.8,0-2.3,0-2.3c0-0.1,0.1-0.2,0.2-0.3l1.5-0.9c0.3-0.2,0.6-0.2,0.9,0l0.6,0.3
					c0.1,0,0.2,0.1,0.2,0.2c0,0,0,2.6,0,2.7l0,0L27,34.4C26.4,34.8,25.6,34.8,25,34.4z"/>
				<g id="XMLID_16563_">
					<path id="XMLID_16564_" class="st57" d="M27.9,28.6c0,0,0,2.6,0,2.7c0,0.2-0.1,0.3-0.2,0.4l-1.5,0.9c-0.3,0.2-0.6,0.2-0.9,0
						l-0.6-0.3c-0.1,0-0.2-0.1-0.2-0.2s0-2.7,0-2.8c0-0.1,0.1-0.2,0.2-0.3l1.5-0.9c0.3-0.2,0.6-0.2,0.9,0l0.6,0.3
						C27.8,28.4,27.8,28.5,27.9,28.6z"/>
				</g>
				<path class="st58" d="M25.8,32.6c-0.2,0.1-0.4,0-0.6-0.1l-0.6-0.3c-0.1,0-0.2-0.1-0.2-0.2s0-2.7,0-2.8c0-0.1,0.1-0.2,0.2-0.3
					l1.2-0.7C25.8,28.2,25.8,32.6,25.8,32.6z"/>
				<path class="st58" d="M27.9,28.7c0,0,0,0.2,0,0.6c0,0.4,0,0.7,0,0.7c0,0.2-0.1,0.3-0.2,0.4l-1.5,0.9c-0.3,0.2-0.6,0.2-0.9,0
					L24.7,31c-0.1,0-0.2-0.1-0.2-0.2s0-0.3,0-0.6c0-0.5,0-0.9,0-0.9c0-0.1,0.1-0.2,0.2-0.3l1.5-0.9c0.3-0.2,0.6-0.2,0.9,0l0.6,0.3
					C27.8,28.4,27.8,28.5,27.9,28.7z"/>
			</g>
			<g id="XMLID_16555_">
				<polygon id="XMLID_16561_" class="st59" points="18.4,21.8 18.4,33.9 18.9,34.2 18.9,22.1 				"/>
				<polygon id="XMLID_16560_" class="st60" points="18.4,21.8 32.6,13.6 33.2,13.9 18.9,22.1 				"/>
				<polygon id="XMLID_16559_" class="st61" points="18.9,22.1 18.9,34.2 33.2,26 33.2,13.9 				"/>
				<polyline id="XMLID_16558_" class="st47" points="33.2,13.9 18.9,22.1 18.9,34.2 				"/>
				<polygon id="XMLID_16557_" class="st62" points="19.7,22.4 19.7,32.9 32.3,25.6 32.3,15.2 				"/>
				<polygon id="XMLID_16556_" class="st63" points="19.7,32.9 32.3,25.6 32.3,15.2 				"/>
				<polygon class="st64" points="19.7,22.4 32.1,15.3 32.1,25.4 19.7,32.6 				"/>
				<polygon class="st65" points="32.3,16.1 19.7,23.4 19.7,22.4 32.3,15.2 				"/>
			</g>
		</g>
	</g>
</g>
<g id="XMLID_16993_">
	<g id="XMLID_16994_">
		<path id="XMLID_17002_" class="st66" d="M66,26.2l-4,2.3l-0.1,0.2c0,0-0.2,0.2-0.4,0.1l-5.9-3.4c-0.1-0.2,0-0.7,0.5-0.9l0,0l4-2.3
			c0.2-0.1,0.2-0.1,0.4,0l5.5,3.2V26.2z"/>
		<path class="st67" d="M60.4,22l5.5,3.2v0.1l-4,2.3l-0.1,0.2c0,0-0.2,0.2-0.4,0.1c-0.1,0-4.8-2.7-5.8-3.3c0.1,0,0.2-0.1,0.3-0.2
			l0,0l4-2.3C60.1,22,60.3,22,60.4,22z"/>
		<path class="st68" d="M55.9,24.5"/>
		<path class="st68" d="M60,22.2c0.2-0.1,0.2-0.1,0.4,0l5.5,3.2v0.1l-4,2.3L61.8,28c0,0-0.2,0.2-0.4,0.1"/>
		<g id="XMLID_17000_">
			<path id="XMLID_17001_" class="st66" d="M65.8,26c0.1-0.1,0.1,0.2,0.1,0.2c0,0.1,0,0.1-0.1,0.2c-0.1,0-3.2,1.8-3.9,2.2
				c-0.7,0.5-0.7-0.4,0-0.8s3.8-2.1,3.9-2.2c0.1-0.1,0.1,0.1,0.1,0.2C65.9,25.8,65.9,25.9,65.8,26L65.8,26z"/>
		</g>
		<g id="XMLID_16998_">
			<path id="XMLID_16999_" class="st69" d="M66,25.6c0,0.1-0.1,0.2-0.1,0.2c0.2,0.2,0.1,0.3,0.1,0.4c0,0,0,0.1-0.1,0.2
				c-0.1,0.1-3.3,1.9-4,2.3c-0.7,0.5-0.9-0.6-0.4-0.9c0.7-0.4,4.2-2.3,4.3-2.4S66,25.4,66,25.6z"/>
		</g>
		<g id="XMLID_16996_">
			<path id="XMLID_16997_" class="st70" d="M65.8,25.8c0.1,0,0.1,0.2,0.2,0.1c0,0.1,0,0.1-0.1,0.2c-0.2,0.1-3.2,1.8-3.9,2.2
				c-0.4,0.3-0.7-0.4-0.2-0.6c0.7-0.4,3.9-2.2,4-2.3c0.1,0,0.1,0.1,0.1,0.2C65.9,25.6,65.9,25.7,65.8,25.8L65.8,25.8z"/>
		</g>
		<path id="XMLID_16995_" class="st69" d="M65.8,26.1c-0.8,0.4-3,1.7-3.6,2.1c-0.1,0-0.2,0.2-0.2,0.2c-0.2,0-0.1-0.1-0.1-0.2
			s-0.2-0.1-0.1-0.2c0,0,0.2,0,0.3-0.1c0.8-0.4,3.7-2.1,3.7-2.1S65.8,26,65.8,26.1z"/>
	</g>
</g>
<g id="XMLID_17003_">
	<g id="XMLID_17004_">
		<path id="XMLID_17012_" class="st66" d="M66,25l-4,2.4l-0.1,0.2c0,0-0.2,0.2-0.4,0.1l-5.9-3.4c-0.1-0.2,0-0.7,0.5-0.9l0,0l4-2.3
			c0.2-0.1,0.2-0.1,0.4,0l5.5,3.2V25z"/>
		<path class="st67" d="M60.4,21.1l5.5,3.2v0.1l-4,2.3l-0.1,0.2c0,0-0.2,0.2-0.4,0.1c-0.1,0-4.8-2.7-5.8-3.3c0.1,0,0.2-0.1,0.3-0.2
			l0,0l4-2.3C60.1,21.1,60.3,21.1,60.4,21.1z"/>
		<path class="st68" d="M55.9,23.5"/>
		<path class="st68" d="M60,21.1c0.2-0.1,0.2-0.1,0.4,0l5.5,3.2v0.1l-4,2.3l-0.1,0.2c0,0-0.2,0.2-0.4,0.1"/>
		<g id="XMLID_17010_">
			<path id="XMLID_17011_" class="st66" d="M65.8,25c0.1,0,0.1,0.1,0.1,0.2s0,0.1-0.1,0.2c-0.1,0-3.2,1.8-3.9,2.2
				c-0.7,0.5-0.7-0.4,0-0.8s3.8-2.1,3.9-2.2c0.1-0.1,0.1,0.1,0.1,0.2C65.9,24.8,65.9,24.9,65.8,25L65.8,25z"/>
		</g>
		<g id="XMLID_17008_">
			<path id="XMLID_17009_" class="st69" d="M66,24.6c0,0.1-0.1,0.2-0.1,0.2c0.2,0.2,0.1,0.3,0.1,0.4c0,0,0,0.1-0.1,0.1
				c-0.1,0.1-3.3,1.9-4,2.3c-0.7,0.5-0.9-0.6-0.4-0.9c0.7-0.4,4.2-2.3,4.3-2.4C65.9,24.3,66,24.3,66,24.6z"/>
		</g>
		<g id="XMLID_17006_">
			<path id="XMLID_17007_" class="st70" d="M65.8,24.8c0.1,0,0.1,0.2,0.2,0.1c0,0.1,0,0.1-0.1,0.2c-0.2,0.1-3.2,1.8-3.9,2.2
				c-0.4,0.3-0.7-0.4-0.2-0.6c0.7-0.4,3.9-2.2,4-2.3c0.1,0,0.1,0.1,0.1,0.2C65.9,24.6,65.9,24.7,65.8,24.8L65.8,24.8z"/>
		</g>
		<path id="XMLID_17005_" class="st69" d="M65.9,25.1c-0.8,0.4-3,1.7-3.6,2.1c-0.1,0-0.2,0.2-0.2,0.2c-0.2,0-0.1-0.1-0.1-0.2
			s-0.2-0.1-0.1-0.2c0,0,0.1,0,0.2-0.1c0.8-0.4,3.7-2.1,3.7-2.1S65.8,25,65.9,25.1z"/>
	</g>
</g>
<g id="XMLID_17013_">
	<g id="XMLID_17014_">
		<path id="XMLID_17022_" class="st66" d="M66,24.3l-4,2.2l-0.1,0.2c0,0-0.2,0.2-0.4,0.1l-5.9-3.4c-0.1-0.2,0-0.7,0.5-0.9l0,0l4-2.3
			c0.2-0.1,0.2-0.1,0.4,0l5.5,3.2V24.3z"/>
		<path class="st67" d="M60.5,20l5.5,3.2v0.1l-4,2.3l-0.2,0.2c0,0-0.2,0.2-0.4,0.1c-0.1,0-4.8-2.7-5.8-3.3c0.1,0,0.2-0.1,0.3-0.2
			l0,0l4-2.3C60.1,20.1,60.3,20.1,60.5,20z"/>
		<path class="st68" d="M55.9,22.5"/>
		<path class="st68" d="M60,20.2c0.2-0.1,0.2-0.1,0.4,0l5.5,3.2v0.1l-4,2.3L61.8,26c0,0-0.2,0.2-0.4,0.1"/>
		<g id="XMLID_17020_">
			<path id="XMLID_17021_" class="st66" d="M65.8,24c0.1-0.1,0.1,0.3,0.1,0.2c0,0.1,0,0.1-0.1,0.2c-0.1,0-3.2,1.8-3.9,2.2
				c-0.7,0.5-0.7-0.4,0-0.8s3.8-2.1,3.9-2.2c0.1-0.1,0.1,0.1,0.1,0.2C65.9,23.8,65.9,23.9,65.8,24L65.8,24z"/>
		</g>
		<g id="XMLID_17018_">
			<path id="XMLID_17019_" class="st69" d="M66,23.7c0,0.1-0.1,0.2-0.1,0.2c0.2,0.2,0.1,0.3,0.1,0.4c0,0,0,0-0.1,0.1
				c-0.1,0.1-3.3,1.9-4,2.3c-0.7,0.5-0.9-0.6-0.4-0.9c0.7-0.4,4.2-2.3,4.3-2.4S66,23.4,66,23.7z"/>
		</g>
		<g id="XMLID_17016_">
			<path id="XMLID_17017_" class="st70" d="M65.8,23.9c0.1,0,0.1,0.1,0.2,0.1c0,0.1,0,0.1-0.1,0.2c-0.2,0.1-3.2,1.8-3.9,2.2
				c-0.4,0.3-0.7-0.4-0.2-0.6c0.7-0.4,3.9-2.2,4-2.3c0.1,0,0.1,0.1,0.1,0.2C65.9,23.7,65.9,23.8,65.8,23.9L65.8,23.9z"/>
		</g>
		<path id="XMLID_17015_" class="st69" d="M65.8,24.1c-0.8,0.4-3,1.7-3.6,2.1c-0.1,0-0.2,0.2-0.2,0.2c-0.2,0-0.1-0.1-0.1-0.2
			s-0.2-0.1-0.1-0.2c0,0,0.2,0,0.3,0c0.8-0.4,3.7-2.1,3.7-2.1S65.8,24,65.8,24.1z"/>
	</g>
</g>
</svg>
