<?xml version="1.0" encoding="utf-8"?>
<!-- Generator: Adobe Illustrator 21.0.0, SVG Export Plug-In . SVG Version: 6.00 Build 0)  -->
<svg version="1.1" id="Layer_1" xmlns="http://www.w3.org/2000/svg" xmlns:xlink="http://www.w3.org/1999/xlink" x="0px" y="0px"
	 viewBox="0 0 80 80" style="enable-background:new 0 0 80 80;" xml:space="preserve">
<style type="text/css">
	.st0{fill:#FFFFFF;}
	.st1{fill:#E8E7E7;}
	.st2{opacity:0.2;fill:#D1D2D8;enable-background:new    ;}
	.st3{fill:#D1D2D8;}
	.st4{fill:#C5C6C7;}
	.st5{fill:#AEAEAE;}
	.st6{fill:#B0B3B5;}
	.st7{fill:#DDDFDE;}
	.st8{fill:#DBDBD9;}
	.st9{fill:#E4E4E3;}
	.st10{fill:#EFEFEF;}
	.st11{fill:#ECECEE;}
	.st12{fill:#F7F8F9;}
	.st13{fill:#41B349;}
	.st14{fill:#80C576;}
	.st15{fill:#C23728;}
	.st16{fill:#CD483C;}
	.st17{fill:#C06B2A;}
	.st18{fill:#CE7C43;}
	.st19{fill:#7C8187;}
	.st20{opacity:0.3;fill:#7C8187;enable-background:new    ;}
	.st21{fill:#C2C2C2;}
	.st22{fill:#777576;}
	.st23{fill:#A4A3A3;}
	.st24{fill:#636467;}
	.st25{fill:#595A5B;}
	.st26{fill:#9A735A;}
	.st27{fill:#59595C;}
	.st28{fill:#C29C77;}
	.st29{opacity:0.2;fill:#C29C77;enable-background:new    ;}
	.st30{fill:#474948;}
	.st31{opacity:0.3;fill:#515352;enable-background:new    ;}
	.st32{fill:#575858;}
	.st33{opacity:0.2;fill:#515352;enable-background:new    ;}
	.st34{fill:#515352;}
	.st35{fill:#3A3B3A;}
	.st36{fill:#72B1CB;}
	.st37{fill:#5F8FA9;}
	.st38{fill:#5988A6;}
	.st39{fill:#3C6984;}
	.st40{fill:#DFDFDF;}
	.st41{fill:#D7D7D6;}
	.st42{opacity:0.8;fill:#DFDFDF;enable-background:new    ;}
	.st43{fill:#EEBE69;}
	.st44{fill:#FFCD80;}
	.st45{fill:#D0D1D1;}
	.st46{fill:#DCDCDB;}
	.st47{fill:#C6C4C3;}
	.st48{fill:#74BF45;}
	.st49{fill:#50A647;}
	.st50{fill:#429A45;}
	.st51{fill:#2D2D2D;}
	.st52{fill:#525354;}
	.st53{fill:#6D6F6E;}
	.st54{fill:#AEADAD;}
	.st55{fill:#D2D2D2;}
	.st56{opacity:0.5;fill:#BBBBBB;enable-background:new    ;}
	.st57{fill:#BBBBBB;}
	.st58{opacity:0.2;fill:#444445;enable-background:new    ;}
	.st59{fill:#A19F9F;}
	.st60{fill:#ECEAEA;}
	.st61{fill:#E4E4E4;}
	.st62{fill:#444445;}
	.st63{fill:#404141;}
	.st64{opacity:0.4;fill:#444445;enable-background:new    ;}
	.st65{opacity:0.3;fill:#444445;enable-background:new    ;}
	.st66{fill:#AEABA8;}
	.st67{fill:#888582;}
	.st68{opacity:0.2;fill:#888582;enable-background:new    ;}
	.st69{fill:#5C5653;}
	.st70{fill:#E7E6E7;}
</style>
<g id="XMLID_23_">
	<g id="XMLID_127_">
		<polygon id="XMLID_129_" class="st0" points="31.5,1.9 30.5,2.4 76.9,29 77.8,28.4 		"/>
		<polygon id="XMLID_128_" class="st1" points="30.5,2.4 30.5,36 76.9,62.6 76.9,29 		"/>
		<polyline id="XMLID_16544_" class="st2" points="30.5,2.4 30.5,36 76.9,62.6 		"/>
	</g>
	<g id="XMLID_122_">
		<g id="XMLID_124_">
			<polygon id="XMLID_126_" class="st1" points="2.2,18.7 2.2,52.3 3.1,52.8 3.1,19.3 			"/>
			<polygon id="XMLID_125_" class="st0" points="30.5,2.4 31.5,3 3.1,19.3 2.2,18.7 			"/>
		</g>
		<polygon id="XMLID_123_" class="st3" points="31.5,3 31.5,36.5 3.1,52.8 3.1,19.3 		"/>
		<polyline id="XMLID_16543_" class="st2" points="31.5,3 31.5,36.5 3.1,52.8 		"/>
	</g>
	<g id="XMLID_82_">
		<polygon id="XMLID_121_" class="st4" points="65.5,40.6 65.5,58.8 49.5,68.1 49.5,49.9 		"/>
		<polygon id="XMLID_120_" class="st5" points="67.2,56.3 75.8,61.2 57.5,71.8 48.9,66.8 		"/>
		<polygon id="XMLID_119_" class="st6" points="48.9,49.6 48.9,67.8 49.5,68.1 49.5,49.9 		"/>
		<polygon id="XMLID_118_" class="st4" points="65.5,39.7 65.5,58 49.5,67.1 49.5,48.9 		"/>
		<g id="XMLID_83_">
			<g id="XMLID_102_">
				<polygon id="XMLID_117_" class="st7" points="50.6,52.3 50.6,67 56.3,70.2 56.3,55.7 				"/>
				<polygon id="XMLID_116_" class="st1" points="50.6,52.3 50.6,54.7 56.3,58 56.3,55.7 				"/>
				<polygon id="XMLID_115_" class="st1" points="50.6,54.8 50.6,58.5 56.3,61.8 56.3,58.1 				"/>
				<polygon id="XMLID_114_" class="st1" points="50.6,58.7 50.6,65.7 56.3,69 56.3,61.9 				"/>
				<polygon id="XMLID_113_" class="st1" points="50.6,65.8 50.6,67 56.3,70.2 56.3,69.1 				"/>
				<g id="XMLID_105_">
					<polygon id="XMLID_112_" class="st8" points="52,57.7 52,58.4 54.8,60.1 54.8,59.4 					"/>
					<polygon id="XMLID_111_" class="st9" points="52.2,58.2 52.2,58.3 54.6,59.7 54.6,59.6 					"/>
					<g id="XMLID_106_">
						<polygon id="XMLID_110_" class="st8" points="51.3,55.9 51.3,56.9 55.7,59.5 55.7,58.5 						"/>
						<polygon id="XMLID_109_" class="st9" points="51.5,56.4 51.5,56.6 55.4,58.9 55.4,58.6 						"/>
						<g id="XMLID_107_">
							<path id="XMLID_108_" class="st9" d="M51.5,56.9L51.5,56.9L51.5,56.9h0.2l0,0V57l0,0L51.5,56.9
								C51.6,56.9,51.5,56.9,51.5,56.9z"/>
						</g>
					</g>
				</g>
				<polygon id="XMLID_104_" class="st10" points="64.7,44.3 70.4,47.5 56.3,55.7 50.6,52.3 				"/>
				<polygon id="XMLID_103_" class="st11" points="70.4,47.5 70.4,62.2 56.3,70.2 56.3,55.7 				"/>
			</g>
			<g id="XMLID_99_">
				<path id="XMLID_101_" class="st12" d="M53.1,62.2L53.1,62.2c-0.4,0-0.6,0.4-0.2,0.8l0,0c0.2,0.2,0.3,0.3,0.5,0.3l0,0
					c0.4,0,0.6-0.4,0.2-0.8l0,0C53.5,62.4,53.3,62.3,53.1,62.2z"/>
				<path id="XMLID_100_" class="st1" d="M53.1,62.4L53.1,62.4c-0.3,0-0.4,0.3-0.2,0.6l0,0c0.1,0.2,0.2,0.2,0.4,0.2l0,0
					c0.3,0,0.4-0.3,0.2-0.6l0,0C53.5,62.5,53.3,62.4,53.1,62.4z"/>
			</g>
			<g id="XMLID_96_">
				<path id="XMLID_98_" class="st12" d="M53.2,63.7L53.2,63.7c-0.2,0-0.3,0.2-0.2,0.5l0,0c0.1,0.1,0.2,0.2,0.3,0.2l0,0
					c0.2,0,0.3-0.2,0.2-0.5l0,0C53.4,63.8,53.3,63.7,53.2,63.7z"/>
				<path id="XMLID_97_" class="st1" d="M53.2,63.8L53.2,63.8c-0.2,0-0.2,0.2-0.1,0.3l0,0c0.1,0.1,0.2,0.1,0.2,0.1l0,0
					c0.2,0,0.2-0.2,0.1-0.3l0,0C53.4,63.9,53.3,63.8,53.2,63.8z"/>
			</g>
			<g id="XMLID_85_">
				<g id="XMLID_93_">
					<path id="XMLID_95_" class="st13" d="M53.1,64.6L53.1,64.6c-0.1,0-0.1,0.1-0.1,0.2l0,0c0,0.1,0.1,0.1,0.1,0.1l0,0
						C53.2,64.9,53.2,64.8,53.1,64.6L53.1,64.6C53.2,64.7,53.2,64.6,53.1,64.6z"/>
					<path id="XMLID_94_" class="st14" d="M53.1,64.7L53.1,64.7c-0.1,0,0.1,0.2,0.1,0.2C53.2,64.9,53.2,64.8,53.1,64.7L53.1,64.7
						C53.2,64.7,53.2,64.7,53.1,64.7z"/>
				</g>
				<g id="XMLID_90_">
					<path id="XMLID_92_" class="st15" d="M52.8,64.5L52.8,64.5c-0.1,0-0.1,0.1-0.1,0.2l0,0c0,0.1,0.1,0.1,0.1,0.1l0,0
						C52.9,64.7,52.9,64.6,52.8,64.5L52.8,64.5C52.9,64.5,52.9,64.5,52.8,64.5z"/>
					<path id="XMLID_91_" class="st16" d="M52.8,64.5L52.8,64.5c-0.1,0,0.1,0.2,0.1,0.2C52.9,64.6,52.9,64.5,52.8,64.5L52.8,64.5
						C52.9,64.5,52.8,64.5,52.8,64.5z"/>
				</g>
				<g id="XMLID_87_">
					<path id="XMLID_89_" class="st17" d="M53.5,64.9L53.5,64.9c-0.1,0-0.1,0.1-0.1,0.2l0,0c0,0.1,0.1,0.1,0.1,0.1l0,0
						C53.5,65.1,53.5,65,53.5,64.9L53.5,64.9L53.5,64.9z"/>
					<path id="XMLID_88_" class="st18" d="M53.5,64.9L53.5,64.9c-0.1,0,0.1,0.2,0.1,0.2C53.5,65,53.5,64.9,53.5,64.9L53.5,64.9
						L53.5,64.9z"/>
				</g>
			</g>
		</g>
	</g>
	<g id="XMLID_28_">
		<g id="XMLID_31_">
			<g id="XMLID_32_">
				<g id="XMLID_38_">
					<g id="XMLID_39_">
						<polygon id="XMLID_81_" class="st19" points="44.4,25.8 26.1,36.3 26.1,54.6 44.4,44 						"/>
						<polygon id="XMLID_16542_" class="st20" points="44.4,25.8 26.1,36.3 35,49.4 44.4,44 						"/>
						<polygon id="XMLID_80_" class="st21" points="13.1,28.1 57.5,53.8 57.5,72.7 56.9,72.4 56.9,54.2 26.1,36.3 26.1,54.6 
							13.1,47.1 						"/>
						<polyline id="XMLID_16549_" class="st6" points="13.1,28.1 57.5,53.8 57.5,72.7 56.9,72.4 56.9,54.2 26.1,36.3 26.1,54.6 
													"/>
						<g id="XMLID_65_">
							<g id="XMLID_70_">
								<polygon id="XMLID_78_" class="st22" points="14.4,29.6 24.7,35.6 24.7,41 14.4,34.9 								"/>
								<polygon id="XMLID_75_" class="st23" points="14.5,34.8 14.5,30.1 14.8,30 24.7,35.8 24.7,40.5 24.6,40.6 								"/>
								<polygon id="XMLID_74_" class="st6" points="14.5,30.1 24.6,35.9 24.6,40.6 14.5,34.8 								"/>
								<polyline id="XMLID_16546_" class="st2" points="14.5,30.1 24.6,35.9 24.6,40.6 								"/>
								<polygon id="XMLID_73_" class="st23" points="24.2,36.1 24.6,35.9 24.6,36.1 24.2,36.4 								"/>
								<polygon id="XMLID_72_" class="st23" points="24,36.2 24.2,36.1 24.2,36.4 24,36.6 								"/>
								<polygon id="XMLID_71_" class="st24" points="14.8,30 24.7,35.8 24.6,35.9 14.5,30.1 								"/>
							</g>
							<polygon id="XMLID_69_" class="st24" points="14.5,30.1 24.6,35.9 24.4,36 14.4,30.3 							"/>
							<polygon id="XMLID_68_" class="st24" points="14.4,30.3 24.4,36 24.2,36.1 14.2,30.3 							"/>
							<polygon id="XMLID_67_" class="st24" points="14.2,30.3 24.2,36.1 24,36.2 14,30.4 							"/>
							<polygon id="XMLID_66_" class="st25" points="14,30.7 24,36.6 24,36.2 14,30.4 							"/>
						</g>
						<g id="XMLID_53_">
							<g id="XMLID_58_">
								<polygon id="XMLID_64_" class="st22" points="14.4,35.4 24.7,41.4 24.7,46.8 14.4,40.8 								"/>
								<polygon id="XMLID_63_" class="st23" points="14.5,40.6 14.5,36 14.8,35.9 24.7,41.7 24.7,46.3 24.6,46.4 								"/>
								<polygon id="XMLID_62_" class="st6" points="14.5,36 24.6,41.7 24.6,46.4 14.5,40.6 								"/>
								<polyline id="XMLID_16547_" class="st2" points="14.5,36 24.6,41.7 24.6,46.4 								"/>
								<polygon id="XMLID_61_" class="st23" points="24.2,42 24.6,41.7 24.6,42 24.2,42.2 								"/>
								<polygon id="XMLID_60_" class="st23" points="24,42.1 24.2,42 24.2,42.3 24,42.4 								"/>
								<polygon id="XMLID_59_" class="st24" points="14.8,35.9 24.7,41.7 24.6,41.7 14.5,36 								"/>
							</g>
							<polygon id="XMLID_57_" class="st24" points="14.5,36 24.6,41.7 24.4,41.9 14.4,36 							"/>
							<polygon id="XMLID_56_" class="st24" points="14.4,36 24.4,41.9 24.2,42 14.2,36.2 							"/>
							<polygon id="XMLID_55_" class="st24" points="14.2,36.2 24.2,42 24,42.1 14,36.3 							"/>
							<polygon id="XMLID_54_" class="st25" points="14,36.6 24,42.4 24,42.1 14,36.3 							"/>
						</g>
						<g id="XMLID_41_">
							<g id="XMLID_46_">
								<polygon id="XMLID_52_" class="st22" points="14.4,41.3 24.7,47.3 24.7,52.7 14.4,46.7 								"/>
								<polygon id="XMLID_51_" class="st23" points="14.5,46.5 14.5,41.8 14.8,41.7 24.7,47.5 24.7,52.2 24.6,52.3 								"/>
								<polygon id="XMLID_50_" class="st6" points="14.5,41.8 24.6,47.6 24.6,52.3 14.5,46.5 								"/>
								<polyline id="XMLID_16548_" class="st2" points="14.5,41.8 24.6,47.6 24.6,52.3 								"/>
								<polygon id="XMLID_49_" class="st23" points="24.2,47.8 24.6,47.6 24.6,47.8 24.2,48.1 								"/>
								<polygon id="XMLID_48_" class="st23" points="24,47.9 24.2,47.8 24.2,48.2 24,48.2 								"/>
								<polygon id="XMLID_47_" class="st24" points="14.8,41.7 24.7,47.5 24.6,47.6 14.5,41.8 								"/>
							</g>
							<polygon id="XMLID_45_" class="st24" points="14.5,41.8 24.6,47.6 24.4,47.7 14.4,41.9 							"/>
							<polygon id="XMLID_44_" class="st24" points="14.4,41.9 24.4,47.7 24.2,47.8 14.2,42 							"/>
							<polygon id="XMLID_43_" class="st24" points="14.2,42 24.2,47.8 24,47.9 14,42.1 							"/>
							<polygon id="XMLID_42_" class="st25" points="14,42.5 24,48.2 24,47.9 14,42.1 							"/>
						</g>
						<polygon id="XMLID_40_" class="st4" points="57.5,53.8 75.8,43.2 75.8,62.2 75.2,62.5 58,72.4 57.5,72.7 						"/>
					</g>
				</g>
				<g id="XMLID_33_">
					<g id="XMLID_34_">
						<polygon id="XMLID_37_" class="st26" points="57.5,52.6 57.5,53.8 13.1,28.1 13.1,26.9 						"/>
						<polygon id="XMLID_36_" class="st27" points="75.8,42.1 57.5,52.6 57.5,53.8 75.8,43.2 						"/>
						<polygon id="XMLID_35_" class="st28" points="31.2,16.4 75.6,42.1 57.3,52.6 12.9,26.9 						"/>
						<polygon class="st29" points="24.6,33.7 12.9,26.9 19.7,23.1 24.6,23.1 						"/>
						<polyline id="XMLID_16550_" class="st29" points="31.4,16.4 75.8,42.1 57.5,52.6 						"/>
						<polygon class="st29" points="34.5,18.2 34.9,18.5 34.9,39.5 27.9,35.5 27.9,18.4 28.4,18.2 						"/>
						<polygon class="st29" points="49,47.7 49,31.9 58,32.8 58,49.1 51.6,49.1 						"/>
					</g>
				</g>
			</g>
		</g>
		<g id="XMLID_29_">
			<polygon id="XMLID_30_" class="st6" points="48.9,66.8 57.5,71.8 57.5,72.7 48.9,67.8 			"/>
		</g>
	</g>
	<g id="XMLID_24_">
		<g id="XMLID_25_">
			<polygon id="XMLID_27_" class="st1" points="47.6,44.8 47.6,78.4 48.5,78.9 48.5,45.3 			"/>
			<polygon id="XMLID_26_" class="st0" points="75.9,28.4 76.9,29 48.5,45.3 47.6,44.8 			"/>
		</g>
		<polygon class="st3" points="76.9,29 77.8,28.4 77.8,62 76.9,62.6 48.5,78.9 48.5,45.3 		"/>
		<polyline class="st2" points="48.5,78.9 48.5,45.3 76.9,29 77.8,28.4 		"/>
	</g>
</g>
<g id="XMLID_1_">
	<path id="XMLID_16551_" class="st30" d="M27.9,18.2c0-1,1.6-1.9,3.5-1.9s3.5,0.9,3.5,1.9c0,0.2,0,0.9,0,1c0,1-1.6,1.9-3.5,1.9
		s-3.5-0.9-3.5-1.9C27.9,19,27.9,18.4,27.9,18.2z"/>
	<path class="st31" d="M31.5,16.3c1.1,0,2.1,0.2,2.7,0.7v3.5c-0.6,0.4-1.6,0.7-2.7,0.7c-1.9,0-3.5-0.9-3.5-1.9c0-0.2,0-0.9,0-1
		C27.9,17.1,29.5,16.3,31.5,16.3z"/>
	<ellipse id="XMLID_16545_" class="st32" cx="31.5" cy="18.2" rx="3.5" ry="1.9"/>
	<path class="st33" d="M31.8,20.1c-0.2,0-0.3,0-0.5,0s-0.3,0-0.5,0v-3.3h0.9L31.8,20.1L31.8,20.1z"/>
	<path id="XMLID_22_" class="st33" d="M27.9,18.2c0,1,1.6,1.9,3.5,1.9s3.5-0.9,3.5-1.9"/>
	<rect id="XMLID_21_" x="31.1" y="10.4" class="st34" width="0.7" height="4.2"/>
	<rect x="31.1" y="10.5" class="st31" width="0.5" height="4.1"/>
	<path id="XMLID_20_" class="st34" d="M31.8,14.5V17l0,0c0,0.2-0.2,0.2-0.5,0.2s-0.5-0.1-0.5-0.2v-2.6L31.8,14.5L31.8,14.5z"/>
	<rect id="XMLID_19_" x="31.2" y="8.7" class="st35" width="0.6" height="2"/>
	<path id="XMLID_18_" class="st34" d="M31.1,10.2h0.6c0.2,0,0.3,0.2,0.3,0.3l0,0c0,0.2-0.2,0.3-0.3,0.3h-0.6c-0.2,0-0.3-0.2-0.3-0.3
		l0,0C30.7,10.3,30.9,10.2,31.1,10.2z"/>
	<path class="st31" d="M31.1,10.2h0.8c0.2,0,0.2,0.1,0.2,0.2v0.1c0,0.2-0.1,0.2-0.2,0.2h-0.8c-0.2,0-0.2-0.1-0.2-0.2v-0.1
		C30.7,10.2,30.9,10.2,31.1,10.2z"/>
	<g id="XMLID_6_">
		<path id="XMLID_17_" class="st36" d="M27.4,7.3c0-2.5,2.3-4.2,2.6-5.5c0.2-1,2.5-1,2.8,0c0.3,1.2,2.6,3,2.6,5.5c0,0.1,0,0.2,0,0.2
			c0,0.8-1.7,1.4-4,1.4s-4-0.6-4-1.4C27.4,7.5,27.4,7.3,27.4,7.3z"/>
		<path id="XMLID_16_" class="st37" d="M27.4,7.3c0-2.5,2.3-4.2,2.6-5.5c0.2-1,2.2-0.7,2.5,0.3c0.3,1.2,0.2,3.7,2.8,5.1
			c0.1,0,0,0.2,0,0.2c0,0.8-1.7,1.4-4,1.4s-4-0.6-4-1.4C27.4,7.5,27.4,7.3,27.4,7.3z"/>
		<path id="XMLID_15_" class="st38" d="M27.4,7.3c0-2.5,2.3-4.2,2.6-5.5c0,0,3.6,7.1,1.3,7.1s-4-0.6-4-1.4
			C27.4,7.5,27.4,7.3,27.4,7.3z"/>
		<path id="XMLID_14_" class="st39" d="M27.3,7.3c0-0.8,1.8-1.5,4-1.5s4,0.6,4,1.5v0.2c0,0.8-1.8,1.5-4,1.5s-4-0.6-4-1.4
			C27.3,7.5,27.3,7.4,27.3,7.3z"/>
		<ellipse id="XMLID_13_" class="st40" cx="31.4" cy="7.6" rx="3.7" ry="1.3"/>
		<g id="XMLID_11_">
			<path id="XMLID_12_" class="st41" d="M27.7,7.6c0-0.7,1.7-1.3,3.7-1.3c0.2,0,0.2,0,0.4,0h0.1l0.9,2.6C32.4,9,31.9,9,31.4,9
				C29.3,8.9,27.7,8.3,27.7,7.6z"/>
		</g>
		<path class="st42" d="M31.4,6.1c1.7,0,3,0.4,3.6,0.9c-0.5,0.6-1.9,0.9-3.6,0.9s-3-0.4-3.6-0.9C28.4,6.5,29.8,6.1,31.4,6.1z"/>
		<path class="st42" d="M34.4,6.7c-0.7,0.3-1.7,0.6-2.9,0.6c-1.2,0-2.3-0.2-2.9-0.6c0.7-0.3,1.7-0.6,2.9-0.6
			C32.6,6.1,33.7,6.4,34.4,6.7z"/>
		<g id="XMLID_9_">
			<path id="XMLID_10_" class="st43" d="M32.5,7.2c-0.2,0.2-0.5,0.6-1.1,0.6s-0.9-0.3-1.1-0.6C30.2,7,30,6.7,30.1,6.3
				c0.4-0.1,0.9-0.1,1.3-0.1c0.5,0,0.9,0,1.3,0.1C32.8,6.7,32.6,7,32.5,7.2z"/>
		</g>
		<g id="XMLID_7_">
			<path id="XMLID_8_" class="st44" d="M32.2,7.1c-0.1,0.2-0.4,0.5-0.9,0.5c-0.2,0-0.4-0.1-0.6-0.2C30.6,7.3,31,7,31.4,6.8
				c0.4-0.2,0.9-0.2,0.9-0.2C32.4,6.8,32.3,7,32.2,7.1z"/>
		</g>
	</g>
	<g id="XMLID_3_">
		<path id="XMLID_5_" class="st39" d="M30.8,19c0-0.2,0.2-0.3,0.6-0.3c0.3,0,0.6,0.2,0.6,0.3v0.2c0,0.2-0.2,0.3-0.6,0.3
			c-0.3,0-0.6-0.2-0.6-0.3V19z"/>
		<ellipse id="XMLID_4_" class="st37" cx="31.5" cy="19" rx="0.6" ry="0.3"/>
	</g>
</g>
<g id="XMLID_16552_">
	<g id="XMLID_16553_">
		<g id="XMLID_16584_">
			<g id="XMLID_16585_">
				<path id="XMLID_16992_" class="st45" d="M37.8,34.8c0-0.1,0-0.2,0.1-0.2l4.5-2.6c0.2-0.1,0.4-0.1,0.6,0l11.3,6.6
					c0.1,0,0.1,0.1,0.1,0.2c0,0.1,0,0.5,0,0.6s0,0.2-0.1,0.2l-4.5,2.6c-0.2,0.1-0.4,0.1-0.6,0l-11.3-6.6c-0.1-0.1-0.1-0.1-0.1-0.2
					C37.8,35.3,37.8,34.9,37.8,34.8z"/>
				<path class="st46" d="M37.9,34.6l4.5-2.6c0.2-0.1,0.4-0.1,0.6,0l6.6,3.8v6.3c-0.1,0-0.2,0-0.2-0.1l-11.3-6.6
					C38,35.3,38,35.3,38,35.2C38,35.1,38,34.7,37.9,34.6C37.8,34.7,37.8,34.6,37.9,34.6z"/>
				<path id="XMLID_16991_" class="st47" d="M37.9,34.6l4.5-2.6c0.2-0.1,0.4-0.1,0.6,0l11.3,6.6c0.2,0.1,0.2,0.2,0,0.3l-4.5,2.6
					c-0.2,0.1-0.4,0.1-0.6,0l-11.3-6.6C37.7,34.9,37.7,34.7,37.9,34.6z"/>
				<g id="XMLID_16586_">
					<g id="XMLID_16895_">
						<g id="XMLID_16964_">
							<g id="XMLID_16978_">
								<g id="XMLID_16985_">
									<g id="XMLID_16986_">
										<g id="XMLID_16987_">
											<g id="XMLID_16988_">
												<path id="XMLID_16990_" class="st46" d="M52,38.3L52,38.3l0.2-0.2c0.1,0,0.2,0,0.2,0l0.4,0.2c0,0,0,0,0,0.1v0.1v0.1
													l-0.2,0.1c-0.1,0-0.2,0-0.2,0L52,38.5C52.1,38.5,52.1,38.5,52,38.3L52,38.3z"/>
												<path id="XMLID_16989_" class="st45" d="M52.4,38.1l0.4,0.2c0.1,0,0.1,0.1,0,0.2l-0.2,0.1c-0.1,0-0.2,0-0.2,0L52,38.4
													c-0.1,0-0.1-0.1,0-0.2l0.2-0.1C52.3,38,52.3,38,52.4,38.1z"/>
											</g>
										</g>
									</g>
								</g>
								<g id="XMLID_16979_">
									<g id="XMLID_16980_">
										<g id="XMLID_16981_">
											<g id="XMLID_16982_">
												<path id="XMLID_16984_" class="st46" d="M51.3,37.9L51.3,37.9l0.2-0.2c0.1,0,0.2,0,0.2,0l0.4,0.2c0,0,0,0,0,0.1v0.1v0.1
													L52,38.3c-0.1,0-0.2,0-0.2,0L51.4,38L51.3,37.9L51.3,37.9z"/>
												<path id="XMLID_16983_" class="st45" d="M51.7,37.7l0.4,0.2c0.1,0,0.1,0.1,0,0.2L52,38.2c-0.1,0-0.2,0-0.2,0L51.4,38
													c-0.1,0-0.1-0.1,0-0.2l0.2-0.1C51.6,37.6,51.6,37.6,51.7,37.7z"/>
											</g>
										</g>
									</g>
								</g>
							</g>
							<g id="XMLID_16965_">
								<g id="XMLID_16972_">
									<g id="XMLID_16973_">
										<g id="XMLID_16974_">
											<g id="XMLID_16975_">
												<path id="XMLID_16977_" class="st46" d="M50.6,37.5L50.6,37.5l0.2-0.2c0.1,0,0.2,0,0.2,0l0.4,0.2c0,0,0,0,0,0.1v0.1v0.1
													l-0.2,0.1c-0.1,0-0.2,0-0.2,0l-0.5-0.2C50.6,37.6,50.6,37.6,50.6,37.5L50.6,37.5z"/>
												<path id="XMLID_16976_" class="st45" d="M51,37.2l0.4,0.2c0.1,0,0.1,0.1,0,0.2l-0.2,0.1c-0.1,0-0.2,0-0.2,0l-0.4-0.2
													c-0.1,0-0.1-0.1,0-0.2l0.2-0.1C50.8,37.2,50.9,37.2,51,37.2z"/>
											</g>
										</g>
									</g>
								</g>
								<g id="XMLID_16966_">
									<g id="XMLID_16967_">
										<g id="XMLID_16968_">
											<g id="XMLID_16969_">
												<path id="XMLID_16971_" class="st46" d="M49.8,37.1C49.8,37.1,49.9,37,49.8,37.1l0.2-0.2c0.1,0,0.2,0,0.2,0l0.4,0.2
													c0,0,0,0,0,0.1v0.1v0.1l-0.2,0.1c-0.1,0-0.2,0-0.2,0l-0.4-0.2C49.9,37.2,49.9,37.2,49.8,37.1L49.8,37.1z"/>
												<path id="XMLID_16970_" class="st45" d="M50.3,36.8l0.4,0.2c0.1,0,0.1,0.1,0,0.2l-0.2,0.1c-0.1,0-0.2,0-0.2,0L50,37.1
													c-0.1,0-0.1-0.1,0-0.2L50.3,36.8C50.1,36.8,50.2,36.8,50.3,36.8z"/>
											</g>
										</g>
									</g>
								</g>
							</g>
						</g>
						<g id="XMLID_16937_">
							<g id="XMLID_16951_">
								<g id="XMLID_16958_">
									<g id="XMLID_16959_">
										<g id="XMLID_16960_">
											<g id="XMLID_16961_">
												<path id="XMLID_16963_" class="st46" d="M49.1,36.7C49.1,36.6,49.1,36.6,49.1,36.7l0.2-0.2c0.1,0,0.2,0,0.2,0l0.4,0.2
													c0,0,0,0,0,0.1l0,0v0.1L49.7,37c-0.1,0-0.2,0-0.2,0L49.1,36.7L49.1,36.7L49.1,36.7z"/>
												<path id="XMLID_16962_" class="st45" d="M49.5,36.4l0.4,0.2c0.1,0,0.1,0.1,0,0.2l-0.2,0.1c-0.1,0-0.2,0-0.2,0l-0.4-0.2
													c-0.1,0-0.1-0.1,0-0.2l0.2-0.1C49.4,36.4,49.5,36.4,49.5,36.4z"/>
											</g>
										</g>
									</g>
								</g>
								<g id="XMLID_16952_">
									<g id="XMLID_16953_">
										<g id="XMLID_16954_">
											<g id="XMLID_16955_">
												<path id="XMLID_16957_" class="st46" d="M48.4,36.2L48.4,36.2l0.2-0.2c0.1,0,0.2,0,0.2,0l0.4,0.2c0,0,0,0,0,0.1v0.1v0.1
													L49,36.6c-0.1,0-0.2,0-0.2,0l-0.4-0.2C48.5,36.4,48.5,36.4,48.4,36.2L48.4,36.2z"/>
												<path id="XMLID_16956_" class="st45" d="M48.8,36l0.4,0.2c0.1,0,0.1,0.1,0,0.2H49c-0.1,0-0.2,0-0.2,0l-0.4-0.2
													c-0.1,0-0.1-0.1,0-0.2l0.2-0.1C48.7,36,48.7,36,48.8,36z"/>
											</g>
										</g>
									</g>
								</g>
							</g>
							<g id="XMLID_16938_">
								<g id="XMLID_16945_">
									<g id="XMLID_16946_">
										<g id="XMLID_16947_">
											<g id="XMLID_16948_">
												<path id="XMLID_16950_" class="st46" d="M47.7,35.8C47.7,35.8,47.7,35.7,47.7,35.8l0.2-0.2c0.1,0,0.2,0,0.2,0l0.4,0.2
													c0,0,0,0,0,0.1V36v0.1l-0.2,0.1c-0.1,0-0.2,0-0.2,0L47.8,36L47.7,35.8L47.7,35.8z"/>
												<path id="XMLID_16949_" class="st45" d="M48.1,35.6l0.4,0.2c0.1,0,0.1,0.1,0,0.2h-0.2c-0.1,0-0.2,0-0.2,0l-0.4-0.2
													c-0.1,0-0.1-0.1,0-0.2l0.2-0.1C47.9,35.6,48,35.6,48.1,35.6z"/>
											</g>
										</g>
									</g>
								</g>
								<g id="XMLID_16939_">
									<g id="XMLID_16940_">
										<g id="XMLID_16941_">
											<g id="XMLID_16942_">
												<path id="XMLID_16944_" class="st46" d="M47,35.4C47,35.3,47,35.3,47,35.4l0.2-0.2c0.1,0,0.2,0,0.2,0l0.4,0.2
													c0,0,0,0,0,0.1v0.1v0.1l-0.2,0.1c-0.1,0-0.2,0-0.2,0L47,35.6V35.4L47,35.4z"/>
												<path id="XMLID_16943_" class="st45" d="M47.4,35.2l0.4,0.2c0.1,0,0.1,0.1,0,0.2l-0.2,0.1c-0.1,0-0.2,0-0.2,0L47,35.4
													c-0.1,0-0.1-0.1,0-0.2l0.2-0.1C47.2,35.1,47.3,35.1,47.4,35.2z"/>
											</g>
										</g>
									</g>
								</g>
							</g>
						</g>
						<g id="XMLID_16910_">
							<g id="XMLID_16924_">
								<g id="XMLID_16931_">
									<g id="XMLID_16932_">
										<g id="XMLID_16933_">
											<g id="XMLID_16934_">
												<path id="XMLID_16936_" class="st46" d="M46.2,34.9C46.3,34.9,46.3,34.9,46.2,34.9l0.2-0.2c0.1,0,0.2,0,0.2,0L47,35
													c0,0,0,0,0,0.1v0.1v0.1l-0.2,0.1c-0.1,0-0.2,0-0.2,0l-0.4-0.2L46.2,34.9L46.2,34.9z"/>
												<path id="XMLID_16935_" class="st45" d="M46.6,34.7l0.4,0.2c0.1,0,0.1,0.1,0,0.2l-0.2,0.1c-0.1,0-0.2,0-0.2,0L46.2,35
													c-0.1,0-0.1-0.1,0-0.2l0.2-0.1C46.5,34.7,46.6,34.7,46.6,34.7z"/>
											</g>
										</g>
									</g>
								</g>
								<g id="XMLID_16925_">
									<g id="XMLID_16926_">
										<g id="XMLID_16927_">
											<g id="XMLID_16928_">
												<path id="XMLID_16930_" class="st46" d="M45.5,34.5L45.5,34.5l0.2-0.2c0.1,0,0.2,0,0.2,0l0.4,0.2c0,0,0,0,0,0.1v0.1v0.1
													l-0.2,0.1c-0.1,0-0.2,0-0.2,0l-0.4-0.2V34.5L45.5,34.5z"/>
												<path id="XMLID_16929_" class="st45" d="M45.9,34.3l0.4,0.2c0.1,0,0.1,0.1,0,0.2l-0.2,0.1c-0.1,0-0.2,0-0.2,0l-0.4-0.2
													c-0.1,0-0.1-0.1,0-0.2l0.2-0.1C45.8,34.3,45.9,34.3,45.9,34.3z"/>
											</g>
										</g>
									</g>
								</g>
							</g>
							<g id="XMLID_16911_">
								<g id="XMLID_16918_">
									<g id="XMLID_16919_">
										<g id="XMLID_16920_">
											<g id="XMLID_16921_">
												<path id="XMLID_16923_" class="st46" d="M44.7,34.1L44.7,34.1L45,34c0.1,0,0.2,0,0.2,0l0.4,0.2c0,0,0,0,0,0.1v0.1v0.1
													l-0.2,0.1c-0.1,0-0.2,0-0.2,0l-0.4-0.2C44.8,34.3,44.8,34.3,44.7,34.1L44.7,34.1z"/>
												<path id="XMLID_16922_" class="st45" d="M45.1,33.9l0.4,0.2c0.1,0,0.1,0.1,0,0.2l-0.2,0.1c-0.1,0-0.2,0-0.2,0l-0.4-0.2
													c-0.1,0-0.1-0.1,0-0.2l0.2-0.1C45.1,33.8,45.1,33.8,45.1,33.9z"/>
											</g>
										</g>
									</g>
								</g>
								<g id="XMLID_16912_">
									<g id="XMLID_16913_">
										<g id="XMLID_16914_">
											<g id="XMLID_16915_">
												<path id="XMLID_16917_" class="st46" d="M44,33.7L44,33.7l0.2-0.2c0.1,0,0.2,0,0.2,0l0.4,0.2c0,0,0,0,0,0.1v0.1V34
													l-0.2,0.1c-0.1,0-0.2,0-0.2,0L44,33.9V33.7L44,33.7z"/>
												<path id="XMLID_16916_" class="st45" d="M44.4,33.4l0.4,0.2c0.1,0,0.1,0.1,0,0.2l-0.2,0.1c-0.1,0-0.2,0-0.2,0L44,33.7
													c-0.1,0-0.1-0.1,0-0.2l0.2-0.1C44.3,33.4,44.4,33.4,44.4,33.4z"/>
											</g>
										</g>
									</g>
								</g>
							</g>
						</g>
						<g id="XMLID_16896_">
							<g id="XMLID_16897_">
								<g id="XMLID_16904_">
									<g id="XMLID_16905_">
										<g id="XMLID_16906_">
											<g id="XMLID_16907_">
												<path id="XMLID_16909_" class="st46" d="M43.3,33.3C43.3,33.3,43.3,33.2,43.3,33.3l0.2-0.2c0.1,0,0.2,0,0.2,0l0.4,0.2
													c0,0,0,0,0,0.1v0.1v0.1L44,33.7c-0.1,0-0.2,0-0.2,0l-0.4-0.2L43.3,33.3L43.3,33.3z"/>
												<path id="XMLID_16908_" class="st45" d="M43.7,33l0.4,0.2c0.1,0,0.1,0.1,0,0.2L44,33.5c-0.1,0-0.2,0-0.2,0l-0.4-0.2
													c-0.1,0-0.1-0.1,0-0.2l0.2-0.1C43.6,33,43.6,33,43.7,33z"/>
											</g>
										</g>
									</g>
								</g>
								<g id="XMLID_16898_">
									<g id="XMLID_16899_">
										<g id="XMLID_16900_">
											<g id="XMLID_16901_">
												<path id="XMLID_16903_" class="st46" d="M42.6,32.9C42.6,32.8,42.6,32.8,42.6,32.9l0.2-0.2c0.1,0,0.2,0,0.2,0l0.4,0.2
													c0,0,0,0,0,0.1v0.1v0.1l-0.2,0.1c-0.1,0-0.2,0-0.2,0L42.7,33L42.6,32.9L42.6,32.9z"/>
												<path id="XMLID_16902_" class="st45" d="M43,32.6l0.4,0.2c0.1,0,0.1,0.1,0,0.2l-0.2,0.1c-0.1,0-0.2,0-0.2,0l-0.5-0.2
													c-0.1,0-0.1-0.1,0-0.2l0.2-0.1C42.8,32.6,42.9,32.6,43,32.6z"/>
											</g>
										</g>
									</g>
								</g>
							</g>
						</g>
					</g>
					<g id="XMLID_16830_">
						<g id="XMLID_16886_">
							<g id="XMLID_16891_">
								<g id="XMLID_16892_">
									<path id="XMLID_16894_" class="st46" d="M42.8,33.8L42.8,33.8l0.5-0.3c0.1,0,0.2,0,0.2,0l0.4,0.2c0,0,0,0,0,0.1v0.1V34
										l-0.4,0.2c-0.1,0-0.2,0-0.2,0L42.9,34C42.9,34,42.9,34,42.8,33.8L42.8,33.8z"/>
									<path id="XMLID_16893_" class="st45" d="M43.5,33.4l0.4,0.2c0.1,0,0.1,0.1,0,0.2L43.5,34c-0.1,0-0.2,0-0.2,0l-0.4-0.2
										c-0.1,0-0.1-0.1,0-0.2l0.4-0.2C43.3,33.4,43.4,33.4,43.5,33.4z"/>
								</g>
							</g>
							<g id="XMLID_16887_">
								<g id="XMLID_16888_">
									<path id="XMLID_16890_" class="st46" d="M43.6,34.2C43.6,34.2,43.6,34.1,43.6,34.2l0.5-0.3c0.1,0,0.2,0,0.2,0l0.4,0.2
										c0,0,0,0,0,0.1v0.1v0.1l-0.4,0.2c-0.1,0-0.2,0-0.2,0l-0.4-0.2C43.6,34.4,43.6,34.4,43.6,34.2L43.6,34.2z"/>
									<path id="XMLID_16889_" class="st45" d="M44.2,33.8l0.4,0.2c0.1,0,0.1,0.1,0,0.2l-0.4,0.2c-0.1,0-0.2,0-0.2,0l-0.4-0.2
										c-0.1,0-0.1-0.1,0-0.2l0.4-0.2C44,33.8,44.1,33.8,44.2,33.8z"/>
								</g>
							</g>
						</g>
						<g id="XMLID_16881_">
							<g id="XMLID_16882_">
								<g id="XMLID_16883_">
									<path id="XMLID_16885_" class="st46" d="M41.9,33.3C41.9,33.3,41.9,33.2,41.9,33.3l0.5-0.3c0.1,0,0.2,0,0.2,0l0.6,0.4
										c0,0,0,0,0,0.1v0.1v0.1l-0.4,0.2c-0.1,0-0.2,0-0.2,0L42,33.4C42,33.4,42,33.4,41.9,33.3L41.9,33.3z"/>
									<path id="XMLID_16884_" class="st45" d="M42.5,32.9l0.6,0.4c0.1,0,0.1,0.1,0,0.2l-0.4,0.2c-0.1,0-0.2,0-0.2,0L42,33.3
										c-0.1,0-0.1-0.1,0-0.2L42.5,32.9C42.4,32.9,42.5,32.9,42.5,32.9z"/>
								</g>
							</g>
						</g>
						<g id="XMLID_16872_">
							<g id="XMLID_16877_">
								<g id="XMLID_16878_">
									<path id="XMLID_16880_" class="st46" d="M44.3,34.6L44.3,34.6l0.5-0.3c0.1,0,0.2,0,0.2,0l0.4,0.2c0,0,0,0,0,0.1v0.1v0.1
										L44.9,35c-0.1,0-0.2,0-0.2,0l-0.4-0.2C44.4,34.8,44.4,34.8,44.3,34.6L44.3,34.6z"/>
									<path id="XMLID_16879_" class="st45" d="M44.9,34.3l0.4,0.2c0.1,0,0.1,0.1,0,0.2l-0.4,0.2c-0.1,0-0.2,0-0.2,0l-0.4-0.2
										c-0.1,0-0.1-0.1,0-0.2l0.4-0.2C44.7,34.2,44.8,34.2,44.9,34.3z"/>
								</g>
							</g>
							<g id="XMLID_16873_">
								<g id="XMLID_16874_">
									<path id="XMLID_16876_" class="st46" d="M45,35L45,35l0.5-0.3c0.1,0,0.2,0,0.2,0l0.4,0.2c0,0,0,0,0,0.1v0.1v0.1l-0.4,0.2
										c-0.1,0-0.2,0-0.2,0l-0.4-0.2C45.1,35.2,45.1,35.2,45,35L45,35z"/>
									<path id="XMLID_16875_" class="st45" d="M45.6,34.7l0.4,0.2c0.1,0,0.1,0.1,0,0.2l-0.4,0.2c-0.1,0-0.2,0-0.2,0L45.1,35
										c-0.1,0-0.1-0.1,0-0.2l0.4-0.2C45.5,34.6,45.5,34.6,45.6,34.7z"/>
								</g>
							</g>
						</g>
						<g id="XMLID_16863_">
							<g id="XMLID_16868_">
								<g id="XMLID_16869_">
									<path id="XMLID_16871_" class="st46" d="M45.6,35.5C45.7,35.4,45.7,35.4,45.6,35.5l0.5-0.3c0.1,0,0.2,0,0.2,0l0.4,0.2
										c0,0,0,0,0,0.1v0.1v0.1l-0.3,0.2c-0.1,0-0.2,0-0.2,0l-0.4-0.2c0,0,0,0,0-0.1L45.6,35.5z"/>
									<path id="XMLID_16870_" class="st45" d="M46.3,35.1l0.4,0.2c0.1,0,0.1,0.1,0,0.2l-0.4,0.2c-0.1,0-0.2,0-0.2,0l-0.4-0.2
										c-0.1,0-0.1-0.1,0-0.2l0.4-0.2C46.2,35.1,46.3,35.1,46.3,35.1z"/>
								</g>
							</g>
							<g id="XMLID_16864_">
								<g id="XMLID_16865_">
									<path id="XMLID_16867_" class="st46" d="M46.3,35.9C46.4,35.8,46.4,35.8,46.3,35.9l0.5-0.3c0.1,0,0.2,0,0.2,0l0.4,0.2
										c0,0,0,0,0,0.1V36l0,0L47,36.3c-0.1,0-0.2,0-0.2,0L46.4,36C46.4,36,46.4,36,46.3,35.9L46.3,35.9z"/>
									<path id="XMLID_16866_" class="st45" d="M47,35.5l0.4,0.2c0.1,0,0.1,0.1,0,0.2L47,36.1c-0.1,0-0.2,0-0.2,0l-0.4-0.2
										c-0.1,0-0.1-0.1,0-0.2l0.4-0.2C46.9,35.5,47,35.5,47,35.5z"/>
								</g>
							</g>
						</g>
						<g id="XMLID_16854_">
							<g id="XMLID_16859_">
								<g id="XMLID_16860_">
									<path id="XMLID_16862_" class="st46" d="M47,36.3C47,36.3,47.1,36.2,47,36.3l0.5-0.3c0.1,0,0.2,0,0.2,0l0.4,0.2
										c0,0,0,0,0,0.1v0.1v0.1l-0.4,0.2c-0.1,0-0.2,0-0.2,0l-0.4-0.2C47.1,36.4,47.1,36.4,47,36.3L47,36.3z"/>
									<path id="XMLID_16861_" class="st45" d="M47.7,35.9l0.4,0.2c0.1,0,0.1,0.1,0,0.2l-0.4,0.2c-0.1,0-0.2,0-0.2,0l-0.4-0.2
										c-0.1,0-0.1-0.1,0-0.2l0.4-0.2C47.6,35.9,47.7,35.9,47.7,35.9z"/>
								</g>
							</g>
							<g id="XMLID_16855_">
								<g id="XMLID_16856_">
									<path id="XMLID_16858_" class="st46" d="M47.8,36.7L47.8,36.7l0.5-0.3c0.1,0,0.2,0,0.2,0l0.4,0.2c0,0,0,0,0,0.1v0.1v0.1
										l-0.4,0.2c-0.1,0-0.2,0-0.2,0l-0.4-0.2C47.8,36.8,47.8,36.8,47.8,36.7L47.8,36.7z"/>
									<path id="XMLID_16857_" class="st45" d="M48.4,36.3l0.4,0.2c0.1,0,0.1,0.1,0,0.2l-0.4,0.2c-0.1,0-0.2,0-0.2,0l-0.4-0.2
										c-0.1,0-0.1-0.1,0-0.2l0.4-0.2C48.3,36.3,48.4,36.3,48.4,36.3z"/>
								</g>
							</g>
						</g>
						<g id="XMLID_16845_">
							<g id="XMLID_16850_">
								<g id="XMLID_16851_">
									<path id="XMLID_16853_" class="st46" d="M48.5,37.1L48.5,37.1l0.5-0.3c0.1,0,0.2,0,0.2,0l0.4,0.2c0,0,0,0,0,0.1v0.1v0.1
										l-0.4,0.2c-0.1,0-0.2,0-0.2,0l-0.4-0.2C48.5,37.2,48.5,37.2,48.5,37.1L48.5,37.1z"/>
									<path id="XMLID_16852_" class="st45" d="M49.1,36.8l0.4,0.2c0.1,0,0.1,0.1,0,0.2l-0.4,0.2c-0.1,0-0.2,0-0.2,0l-0.4-0.2
										c-0.1,0-0.1-0.1,0-0.2l0.4-0.2C49,36.7,49.1,36.7,49.1,36.8z"/>
								</g>
							</g>
							<g id="XMLID_16846_">
								<g id="XMLID_16847_">
									<path id="XMLID_16849_" class="st46" d="M49.2,37.5C49.2,37.5,49.3,37.5,49.2,37.5l0.5-0.3c0.1,0,0.2,0,0.2,0l0.4,0.2
										c0,0,0,0,0,0.1v0.2v0.1L49.9,38c-0.1,0-0.2,0-0.2,0l-0.4-0.3C49.3,37.6,49.3,37.6,49.2,37.5L49.2,37.5z"/>
									<path id="XMLID_16848_" class="st45" d="M49.8,37.2l0.4,0.2c0.1,0,0.1,0.1,0,0.2l-0.4,0.2c-0.1,0-0.2,0-0.2,0l-0.4-0.2
										c-0.1,0-0.1-0.1,0-0.2l0.4-0.2C49.7,37.1,49.8,37.1,49.8,37.2z"/>
								</g>
							</g>
						</g>
						<g id="XMLID_16836_">
							<g id="XMLID_16841_">
								<g id="XMLID_16842_">
									<path id="XMLID_16844_" class="st46" d="M49.9,37.9C49.9,37.9,50,37.9,49.9,37.9l0.5-0.3c0.1,0,0.2,0,0.2,0l0.4,0.2
										c0,0,0,0,0,0.1V38v0.1l-0.4,0.2c-0.1,0-0.2,0-0.2,0L50,38.1C50,38.1,50,38.1,49.9,37.9L49.9,37.9z"/>
									<path id="XMLID_16843_" class="st45" d="M50.5,37.5l0.4,0.2c0.1,0,0.1,0.1,0,0.2l-0.4,0.2c-0.1,0-0.2,0-0.2,0L50,37.9
										c-0.1,0-0.1-0.1,0-0.2L50.5,37.5L50.5,37.5z"/>
								</g>
							</g>
							<g id="XMLID_16837_">
								<g id="XMLID_16838_">
									<path id="XMLID_16840_" class="st46" d="M50.6,38.3C50.6,38.3,50.7,38.3,50.6,38.3l0.5-0.3c0.1,0,0.2,0,0.2,0l0.4,0.2
										c0,0,0,0,0,0.1v0.1v0.1l-0.4,0.2c-0.1,0-0.2,0-0.2,0l-0.4-0.2C50.7,38.5,50.7,38.5,50.6,38.3L50.6,38.3z"/>
									<path id="XMLID_16839_" class="st45" d="M51.2,37.9l0.4,0.2c0.1,0,0.1,0.1,0,0.2l-0.4,0.2c-0.1,0-0.2,0-0.2,0l-0.4-0.2
										c-0.1,0-0.1-0.1,0-0.2l0.4-0.2C51.2,37.9,51.2,37.9,51.2,37.9z"/>
								</g>
							</g>
						</g>
						<g id="XMLID_16831_">
							<g id="XMLID_16832_">
								<g id="XMLID_16833_">
									<path id="XMLID_16835_" class="st46" d="M51.3,38.7C51.3,38.7,51.4,38.7,51.3,38.7l0.5-0.3c0.1,0,0.2,0,0.2,0l0.4,0.2
										c0,0,0,0,0,0.1v0.1v0.1L52,39.1c-0.1,0-0.2,0-0.2,0l-0.4-0.2C51.4,38.9,51.4,38.9,51.3,38.7L51.3,38.7z"/>
									<path id="XMLID_16834_" class="st45" d="M52,38.3l0.4,0.2c0.1,0,0.1,0.1,0,0.2L52,39c-0.1,0-0.2,0-0.2,0l-0.4-0.2
										c-0.1,0-0.1-0.1,0-0.2l0.4-0.2C51.9,38.3,52,38.3,52,38.3z"/>
								</g>
							</g>
						</g>
					</g>
					<g id="XMLID_16766_">
						<g id="XMLID_16825_">
							<g id="XMLID_16826_">
								<g id="XMLID_16827_">
									<path id="XMLID_16829_" class="st46" d="M50.4,39L50.4,39l0.5-0.3c0.1,0,0.2,0,0.2,0l0.6,0.4c0,0,0,0,0,0.1v0.1v0.1
										l-0.4,0.2c-0.1,0-0.2,0-0.2,0l-0.6-0.4C50.4,39.1,50.4,39.1,50.4,39L50.4,39z"/>
									<path id="XMLID_16828_" class="st45" d="M51,38.7l0.6,0.4c0.1,0,0.1,0.1,0,0.2l-0.4,0.2c-0.1,0-0.2,0-0.2,0l-0.6-0.4
										c-0.1,0-0.1-0.1,0-0.2l0.4-0.2C50.9,38.6,51,38.6,51,38.7z"/>
								</g>
							</g>
						</g>
						<g id="XMLID_16770_">
							<g id="XMLID_16821_">
								<g id="XMLID_16822_">
									<path id="XMLID_16824_" class="st46" d="M41.9,34.1C41.9,34.1,41.9,34,41.9,34.1l0.5-0.3c0.1,0,0.2,0,0.2,0L43,34
										c0,0,0,0,0,0.1v0.1v0.1l-0.4,0.2c-0.1,0-0.2,0-0.2,0L42,34.2C42,34.2,42,34.2,41.9,34.1L41.9,34.1z"/>
									<path id="XMLID_16823_" class="st45" d="M42.5,33.7l0.4,0.2c0.1,0,0.1,0.1,0,0.2l-0.4,0.2c-0.1,0-0.2,0-0.2,0L42,34.1
										c-0.1,0-0.1-0.1,0-0.2L42.5,33.7C42.4,33.7,42.5,33.7,42.5,33.7z"/>
								</g>
							</g>
							<g id="XMLID_16812_">
								<g id="XMLID_16817_">
									<g id="XMLID_16818_">
										<path id="XMLID_16820_" class="st46" d="M42.6,34.5L42.6,34.5l0.5-0.3c0.1,0,0.2,0,0.2,0l0.4,0.2c0,0,0,0,0,0.1v0.1v0.1
											l-0.4,0.2c-0.1,0-0.2,0-0.2,0l-0.4-0.2C42.7,34.6,42.7,34.6,42.6,34.5L42.6,34.5L42.6,34.5z"/>
										<path id="XMLID_16819_" class="st45" d="M43.2,34.1l0.4,0.2c0.1,0,0.1,0.1,0,0.2l-0.4,0.2c-0.1,0-0.2,0-0.2,0l-0.5-0.3
											c-0.1,0-0.1-0.1,0-0.2l0.4-0.2C43.1,34.1,43.2,34.1,43.2,34.1z"/>
									</g>
								</g>
								<g id="XMLID_16813_">
									<g id="XMLID_16814_">
										<path id="XMLID_16816_" class="st46" d="M43.3,34.9L43.3,34.9l0.5-0.3c0.1,0,0.2,0,0.2,0l0.4,0.2c0,0,0,0,0,0.1V35l0,0
											L44,35.3c-0.1,0-0.2,0-0.2,0L43.4,35C43.4,35,43.4,35,43.3,34.9L43.3,34.9z"/>
										<path id="XMLID_16815_" class="st45" d="M44,34.5l0.4,0.2c0.1,0,0.1,0.1,0,0.2L44,35.1c-0.1,0-0.2,0-0.2,0l-0.4-0.2
											c-0.1,0-0.1-0.1,0-0.2l0.4-0.2C43.8,34.5,43.9,34.5,44,34.5z"/>
									</g>
								</g>
							</g>
							<g id="XMLID_16803_">
								<g id="XMLID_16808_">
									<g id="XMLID_16809_">
										<path id="XMLID_16811_" class="st46" d="M44,35.3L44,35.3l0.5-0.3c0.1,0,0.2,0,0.2,0l0.4,0.2c0,0,0,0,0,0.1v0.1v0.1
											l-0.4,0.2c-0.1,0-0.2,0-0.2,0l-0.4-0.2C44.1,35.5,44.1,35.5,44,35.3L44,35.3z"/>
										<path id="XMLID_16810_" class="st45" d="M44.7,34.9l0.4,0.2c0.1,0,0.1,0.1,0,0.2l-0.4,0.2c-0.1,0-0.2,0-0.2,0l-0.4-0.2
											c-0.1,0-0.1-0.1,0-0.2l0.4-0.2C44.5,34.9,44.6,34.9,44.7,34.9z"/>
									</g>
								</g>
								<g id="XMLID_16804_">
									<g id="XMLID_16805_">
										<path id="XMLID_16807_" class="st46" d="M44.7,35.7C44.7,35.6,44.7,35.6,44.7,35.7l0.5-0.3c0.1,0,0.2,0,0.2,0l0.4,0.2
											c0,0,0,0,0,0.1v0.1v0.1l-0.4,0.2c-0.1,0-0.2,0-0.2,0l-0.5-0.2C44.7,35.9,44.7,35.9,44.7,35.7L44.7,35.7z"/>
										<path id="XMLID_16806_" class="st45" d="M45.4,35.3l0.4,0.2c0.1,0,0.1,0.1,0,0.2L45.4,36c-0.1,0-0.2,0-0.2,0l-0.5-0.2
											c-0.1,0-0.1-0.1,0-0.2l0.4-0.2C45.2,35.3,45.3,35.3,45.4,35.3z"/>
									</g>
								</g>
							</g>
							<g id="XMLID_16794_">
								<g id="XMLID_16799_">
									<g id="XMLID_16800_">
										<path id="XMLID_16802_" class="st46" d="M45.5,36.1C45.5,36.1,45.5,36,45.5,36.1l0.5-0.3c0.1,0,0.2,0,0.2,0l0.4,0.2
											c0,0,0,0,0,0.1v0.1v0.1l-0.4,0.2c-0.1,0-0.2,0-0.2,0l-0.4-0.2C45.5,36.3,45.5,36.3,45.5,36.1L45.5,36.1z"/>
										<path id="XMLID_16801_" class="st45" d="M46.1,35.7l0.4,0.2c0.1,0,0.1,0.1,0,0.2l-0.4,0.2c-0.1,0-0.2,0-0.2,0l-0.4-0.2
											c-0.1,0-0.1-0.1,0-0.2l0.4-0.2C45.9,35.7,46,35.7,46.1,35.7z"/>
									</g>
								</g>
								<g id="XMLID_16795_">
									<g id="XMLID_16796_">
										<path id="XMLID_16798_" class="st46" d="M46.2,36.5L46.2,36.5l0.5-0.3c0.1,0,0.2,0,0.2,0l0.4,0.2c0,0,0,0,0,0.1v0.1v0.1
											l-0.4,0.2c-0.1,0-0.2,0-0.2,0l-0.4-0.2C46.3,36.7,46.3,36.7,46.2,36.5L46.2,36.5z"/>
										<path id="XMLID_16797_" class="st45" d="M46.8,36.2l0.4,0.2c0.1,0,0.1,0.1,0,0.2l-0.4,0.2c-0.1,0-0.2,0-0.2,0l-0.4-0.2
											c-0.1,0-0.1-0.1,0-0.2l0.4-0.2C46.6,36.1,46.7,36.1,46.8,36.2z"/>
									</g>
								</g>
							</g>
							<g id="XMLID_16785_">
								<g id="XMLID_16790_">
									<g id="XMLID_16791_">
										<path id="XMLID_16793_" class="st46" d="M46.8,36.9C46.9,36.9,46.9,36.9,46.8,36.9l0.5-0.3c0.1,0,0.2,0,0.2,0l0.4,0.2
											c0,0,0,0,0,0.1V37v0.1l-0.4,0.2c-0.1,0-0.2,0-0.2,0l-0.4-0.2C46.9,37.1,46.9,37.1,46.8,36.9L46.8,36.9z"/>
										<path id="XMLID_16792_" class="st45" d="M47.5,36.6l0.4,0.2c0.1,0,0.1,0.1,0,0.2l-0.4,0.2c-0.1,0-0.2,0-0.2,0L47,37
											c-0.1,0-0.1-0.1,0-0.2L47.5,36.6C47.4,36.5,47.4,36.5,47.5,36.6z"/>
									</g>
								</g>
								<g id="XMLID_16786_">
									<g id="XMLID_16787_">
										<path id="XMLID_16789_" class="st46" d="M47.5,37.4C47.5,37.3,47.6,37.3,47.5,37.4l0.5-0.3c0.1,0,0.2,0,0.2,0l0.4,0.2
											c0,0,0,0,0,0.1v0.1v0.1l-0.4,0.2c-0.1,0-0.2,0-0.2,0l-0.4-0.2C47.6,37.5,47.6,37.5,47.5,37.4L47.5,37.4z"/>
										<path id="XMLID_16788_" class="st45" d="M48.2,37l0.4,0.2c0.1,0,0.1,0.1,0,0.2l-0.4,0.2c-0.1,0-0.2,0-0.2,0l-0.4-0.2
											c-0.1,0-0.1-0.1,0-0.2L48,37C48.1,36.9,48.2,36.9,48.2,37z"/>
									</g>
								</g>
							</g>
							<g id="XMLID_16776_">
								<g id="XMLID_16781_">
									<g id="XMLID_16782_">
										<path id="XMLID_16784_" class="st46" d="M48.2,37.8C48.2,37.7,48.3,37.7,48.2,37.8l0.5-0.3c0.1,0,0.2,0,0.2,0l0.4,0.2
											c0,0,0,0,0,0.1v0.1V38l-0.4,0.2c-0.1,0-0.2,0-0.2,0L48.3,38C48.3,37.9,48.3,37.9,48.2,37.8L48.2,37.8z"/>
										<path id="XMLID_16783_" class="st45" d="M48.9,37.4l0.4,0.2c0.1,0,0.1,0.1,0,0.2L48.9,38c-0.1,0-0.2,0-0.2,0l-0.4-0.2
											c-0.1,0-0.1-0.1,0-0.2l0.4-0.2C48.8,37.4,48.9,37.4,48.9,37.4z"/>
									</g>
								</g>
								<g id="XMLID_16777_">
									<g id="XMLID_16778_">
										<path id="XMLID_16780_" class="st46" d="M48.9,38.2C48.9,38.2,49,38.1,48.9,38.2l0.5-0.3c0.1,0,0.2,0,0.2,0l0.4,0.2
											c0,0,0,0,0,0.1v0.1v0.1l-0.4,0.2c-0.1,0-0.2,0-0.2,0L48.9,38.2C49,38.3,49,38.3,48.9,38.2L48.9,38.2z"/>
										<path id="XMLID_16779_" class="st45" d="M49.6,37.8L50,38c0.1,0,0.1,0.1,0,0.2l-0.3,0.2c-0.1,0-0.2,0-0.2,0l-0.4-0.2
											c-0.1,0-0.1-0.1,0-0.2L49.6,37.8L49.6,37.8z"/>
									</g>
								</g>
							</g>
							<g id="XMLID_16771_">
								<g id="XMLID_16772_">
									<g id="XMLID_16773_">
										<path id="XMLID_16775_" class="st46" d="M49.7,38.6L49.7,38.6l0.5-0.3c0.1,0,0.2,0,0.2,0l0.4,0.2c0,0,0,0,0,0.1v0.1v0.1
											L50.3,39c-0.1,0-0.2,0-0.2,0l-0.4-0.2C49.7,38.7,49.7,38.7,49.7,38.6L49.7,38.6z"/>
										<path id="XMLID_16774_" class="st45" d="M50.3,38.2l0.4,0.2c0.1,0,0.1,0.1,0,0.2l-0.4,0.2c-0.1,0-0.2,0-0.2,0l-0.4-0.2
											c-0.1,0-0.1-0.1,0-0.2l0.4-0.2C50.2,38.2,50.3,38.2,50.3,38.2z"/>
									</g>
								</g>
							</g>
						</g>
						<g id="XMLID_16767_">
							<path id="XMLID_16769_" class="st46" d="M40.5,34.1C40.5,34.1,40.5,34,40.5,34.1l1.2-0.7c0.1,0,0.2,0,0.2,0l0.4,0.2
								c0,0,0,0,0,0.1v0.1v0.1l-0.4,0.2c-0.1,0-0.1,0-0.2,0h-0.1L41,34.4c-0.1,0-0.2,0-0.2,0L40.5,34.1
								C40.5,34.2,40.5,34.2,40.5,34.1L40.5,34.1z"/>
							<path id="XMLID_16768_" class="st45" d="M40.5,33.9l0.8-0.5l0,0l0.3-0.2c0.1,0,0.2,0,0.2,0l0.4,0.2c0.1,0,0.1,0.1,0,0.2
								l-0.4,0.2c-0.1,0-0.1,0-0.2,0h-0.1l-0.6,0.3c-0.1,0-0.2,0-0.2,0L40.5,33.9C40.5,34.1,40.5,34,40.5,33.9z"/>
						</g>
					</g>
					<g id="XMLID_16705_">
						<g id="XMLID_16760_">
							<g id="XMLID_16761_">
								<g id="XMLID_16762_">
									<g id="XMLID_16763_">
										<path id="XMLID_16765_" class="st46" d="M49.6,39.4C49.6,39.3,49.6,39.3,49.6,39.4l0.5-0.3c0.1,0,0.2,0,0.2,0l0.8,0.5
											c0,0,0,0,0,0.1v0.1v0.1L50.6,40c-0.1,0-0.2,0-0.2,0L49.6,39.4C49.7,39.5,49.7,39.5,49.6,39.4L49.6,39.4z"/>
										<path id="XMLID_16764_" class="st45" d="M50.2,39l0.8,0.5c0.1,0,0.1,0.1,0,0.2l-0.4,0.2c-0.1,0-0.2,0-0.2,0l-0.8-0.5
											c-0.1,0-0.1-0.1,0-0.2L50,39C50.1,39,50.1,39,50.2,39z"/>
									</g>
								</g>
							</g>
						</g>
						<g id="XMLID_16756_">
							<g id="XMLID_16757_">
								<path id="XMLID_16759_" class="st46" d="M41,34.4L41,34.4l0.5-0.3c0.1,0,0.2,0,0.2,0l0.4,0.2c0,0,0,0,0,0.1v0.1v0.1
									l-0.4,0.2c-0.1,0-0.2,0-0.2,0l-0.4-0.2C41.1,34.5,41.1,34.5,41,34.4L41,34.4z"/>
								<path id="XMLID_16758_" class="st45" d="M41.7,34.1l0.4,0.2c0.1,0,0.1,0.1,0,0.2l-0.4,0.2c-0.1,0-0.2,0-0.2,0l-0.4-0.2
									c-0.1,0-0.1-0.1,0-0.2l0.4-0.2C41.6,34,41.6,34,41.7,34.1z"/>
							</g>
						</g>
						<g id="XMLID_16747_">
							<g id="XMLID_16752_">
								<g id="XMLID_16753_">
									<path id="XMLID_16755_" class="st46" d="M41.7,34.8L41.7,34.8l0.5-0.3c0.1,0,0.2,0,0.2,0l0.4,0.2c0,0,0,0,0,0.1v0.1V35
										l-0.4,0.2c-0.1,0-0.2,0-0.2,0L41.8,35C41.8,34.9,41.8,34.9,41.7,34.8L41.7,34.8z"/>
									<path id="XMLID_16754_" class="st45" d="M42.4,34.5l0.4,0.2c0.1,0,0.1,0.1,0,0.2L42.4,35c-0.1,0-0.2,0-0.2,0l-0.4-0.2
										c-0.1,0-0.1-0.1,0-0.2l0.4-0.2C42.3,34.4,42.3,34.4,42.4,34.5z"/>
								</g>
							</g>
							<g id="XMLID_16748_">
								<g id="XMLID_16749_">
									<path id="XMLID_16751_" class="st46" d="M42.5,35.3C42.5,35.2,42.5,35.2,42.5,35.3L43,35c0.1,0,0.2,0,0.2,0l0.4,0.2
										c0,0,0,0,0,0.1v0.1v0.1l-0.4,0.2c-0.1,0-0.2,0-0.2,0l-0.4-0.2C42.5,35.4,42.5,35.4,42.5,35.3L42.5,35.3z"/>
									<path id="XMLID_16750_" class="st45" d="M43.1,34.9l0.4,0.2c0.1,0,0.1,0.1,0,0.2l-0.4,0.2c-0.1,0-0.2,0-0.2,0l-0.4-0.2
										c-0.1,0-0.1-0.1,0-0.2l0.4-0.2C42.9,34.9,43,34.9,43.1,34.9z"/>
								</g>
							</g>
						</g>
						<g id="XMLID_16738_">
							<g id="XMLID_16743_">
								<g id="XMLID_16744_">
									<path id="XMLID_16746_" class="st46" d="M43.2,35.6L43.2,35.6l0.5-0.3c0.1,0,0.2,0,0.2,0l0.4,0.2c0,0,0,0,0,0.1v0.1v0.1
										L43.8,36c-0.1,0-0.2,0-0.2,0l-0.4-0.2C43.2,35.8,43.2,35.8,43.2,35.6L43.2,35.6z"/>
									<path id="XMLID_16745_" class="st45" d="M43.8,35.3l0.4,0.2c0.1,0,0.1,0.1,0,0.2l-0.4,0.2c-0.1,0-0.2,0-0.2,0l-0.4-0.2
										c-0.1,0-0.1-0.1,0-0.2l0.4-0.2C43.6,35.3,43.7,35.3,43.8,35.3z"/>
								</g>
							</g>
							<g id="XMLID_16739_">
								<g id="XMLID_16740_">
									<path id="XMLID_16742_" class="st46" d="M43.9,36L43.9,36l0.5-0.3c0.1,0,0.2,0,0.2,0l0.4,0.2c0,0,0,0,0,0.1v0.1v0.1
										l-0.4,0.2c-0.1,0-0.2,0-0.2,0L44,36.2C44,36.2,44,36.2,43.9,36L43.9,36z"/>
									<path id="XMLID_16741_" class="st45" d="M44.5,35.6l0.4,0.2c0.1,0,0.1,0.1,0,0.2l-0.4,0.2c-0.1,0-0.2,0-0.2,0L44,36
										c-0.1,0-0.1-0.1,0-0.2L44.5,35.6C44.4,35.6,44.4,35.6,44.5,35.6z"/>
								</g>
							</g>
						</g>
						<g id="XMLID_16729_">
							<g id="XMLID_16734_">
								<g id="XMLID_16735_">
									<path id="XMLID_16737_" class="st46" d="M44.6,36.4L44.6,36.4l0.5-0.3c0.1,0,0.2,0,0.2,0l0.4,0.2c0,0,0,0,0,0.1v0.1v0.1
										l-0.4,0.2c-0.1,0-0.2,0-0.2,0l-0.4-0.2C44.7,36.6,44.7,36.6,44.6,36.4L44.6,36.4z"/>
									<path id="XMLID_16736_" class="st45" d="M45.2,36.1l0.4,0.2c0.1,0,0.1,0.1,0,0.2l-0.4,0.2c-0.1,0-0.2,0-0.2,0l-0.4-0.2
										c-0.1,0-0.1-0.1,0-0.2l0.4-0.2C45.1,36,45.1,36,45.2,36.1z"/>
								</g>
							</g>
							<g id="XMLID_16730_">
								<g id="XMLID_16731_">
									<path id="XMLID_16733_" class="st46" d="M45.3,36.8L45.3,36.8l0.5-0.3c0.1,0,0.2,0,0.2,0l0.4,0.3c0,0,0,0,0,0.1V37v0.1
										L46,37.3c-0.1,0-0.2,0-0.2,0l-0.4-0.2c0,0,0,0,0-0.1L45.3,36.8z"/>
									<path id="XMLID_16732_" class="st45" d="M45.9,36.5l0.4,0.2c0.1,0,0.1,0.1,0,0.2l-0.4,0.2c-0.1,0-0.2,0-0.2,0l-0.5-0.3
										c-0.1,0-0.1-0.1,0-0.2l0.4-0.2C45.8,36.4,45.9,36.4,45.9,36.5z"/>
								</g>
							</g>
						</g>
						<g id="XMLID_16720_">
							<g id="XMLID_16725_">
								<g id="XMLID_16726_">
									<path id="XMLID_16728_" class="st46" d="M46,37.3C46,37.2,46,37.2,46,37.3l0.5-0.3c0.1,0,0.2,0,0.2,0l0.4,0.2
										c0,0,0,0,0,0.1v0.1v0.1l-0.4,0.2c-0.1,0-0.2,0-0.2,0L46,37.3C46.1,37.4,46.1,37.4,46,37.3L46,37.3z"/>
									<path id="XMLID_16727_" class="st45" d="M46.6,36.9l0.4,0.2c0.1,0,0.1,0.1,0,0.2l-0.4,0.2c-0.1,0-0.2,0-0.2,0L46,37.3
										c-0.1,0-0.1-0.1,0-0.2l0.4-0.2C46.5,36.9,46.6,36.9,46.6,36.9z"/>
								</g>
							</g>
							<g id="XMLID_16721_">
								<g id="XMLID_16722_">
									<path id="XMLID_16724_" class="st46" d="M46.7,37.7C46.7,37.6,46.7,37.6,46.7,37.7l0.5-0.3c0.1,0,0.2,0,0.2,0l0.4,0.2
										c0,0,0,0,0,0.1v0.1v0.1l-0.4,0.2c-0.1,0-0.2,0-0.2,0l-0.4-0.2C46.8,37.9,46.8,37.9,46.7,37.7L46.7,37.7z"/>
									<path id="XMLID_16723_" class="st45" d="M47.4,37.3l0.4,0.2c0.1,0,0.1,0.1,0,0.2l-0.4,0.2c-0.1,0-0.2,0-0.2,0l-0.4-0.2
										c-0.1,0-0.1-0.1,0-0.2l0.4-0.2C47.2,37.3,47.3,37.3,47.4,37.3z"/>
								</g>
							</g>
						</g>
						<g id="XMLID_16711_">
							<g id="XMLID_16716_">
								<g id="XMLID_16717_">
									<path id="XMLID_16719_" class="st46" d="M47.4,38.1C47.4,38.1,47.4,38,47.4,38.1l0.5-0.3c0.1,0,0.2,0,0.2,0l0.4,0.2
										c0,0,0,0,0,0.1v0.1v0.1l-0.4,0.2c-0.1,0-0.2,0-0.2,0l-0.4-0.2C47.5,38.3,47.5,38.3,47.4,38.1L47.4,38.1z"/>
									<path id="XMLID_16718_" class="st45" d="M48.1,37.7l0.4,0.2c0.1,0,0.1,0.1,0,0.2l-0.4,0.2c-0.1,0-0.2,0-0.2,0l-0.4-0.2
										c-0.1,0-0.1-0.1,0-0.2l0.4-0.2C47.9,37.7,48,37.7,48.1,37.7z"/>
								</g>
							</g>
							<g id="XMLID_16712_">
								<g id="XMLID_16713_">
									<path id="XMLID_16715_" class="st46" d="M48.2,38.5L48.2,38.5l0.5-0.3c0.1,0,0.2,0,0.2,0l0.4,0.2c0,0,0,0,0,0.1v0.1v0.1
										l-0.4,0.2c-0.1,0-0.2,0-0.2,0l-0.4-0.2C48.2,38.7,48.2,38.7,48.2,38.5L48.2,38.5z"/>
									<path id="XMLID_16714_" class="st45" d="M48.8,38.2l0.4,0.2c0.1,0,0.1,0.1,0,0.2l-0.4,0.2c-0.1,0-0.2,0-0.2,0l-0.4-0.2
										c-0.1,0-0.1-0.1,0-0.2l0.4-0.2C48.6,38.1,48.7,38.1,48.8,38.2z"/>
								</g>
							</g>
						</g>
						<g id="XMLID_16706_">
							<g id="XMLID_16707_">
								<g id="XMLID_16708_">
									<path id="XMLID_16710_" class="st46" d="M48.9,38.9L48.9,38.9l0.5-0.3c0.1,0,0.2,0,0.2,0l0.4,0.2c0,0,0,0,0,0.1V39v0.1
										l-0.4,0.2c-0.1,0-0.2,0-0.2,0L49,39.1C48.9,39.1,48.9,39.1,48.9,38.9L48.9,38.9z"/>
									<path id="XMLID_16709_" class="st45" d="M49.5,38.6l0.4,0.2c0.1,0,0.1,0.1,0,0.2l-0.4,0.2c-0.1,0-0.2,0-0.2,0L48.9,39
										c-0.1,0-0.1-0.1,0-0.2l0.4-0.2C49.3,38.5,49.4,38.5,49.5,38.6z"/>
								</g>
							</g>
						</g>
					</g>
					<g id="XMLID_16644_">
						<g id="XMLID_16700_">
							<g id="XMLID_16701_">
								<g id="XMLID_16702_">
									<path id="XMLID_16704_" class="st46" d="M49.1,39.8L49.1,39.8l0.5-0.3c0.1,0,0.2,0,0.2,0l0.6,0.3c0,0,0,0,0,0.1V40v0.1
										L50,40.3c-0.1,0-0.2,0-0.2,0L49.2,40C49.2,40,49.2,40,49.1,39.8L49.1,39.8z"/>
									<path id="XMLID_16703_" class="st45" d="M49.7,39.5l0.6,0.3c0.1,0,0.1,0.1,0,0.2l-0.4,0.2c-0.1,0-0.2,0-0.2,0l-0.6-0.3
										c-0.1,0-0.1-0.1,0-0.2l0.4-0.2C49.6,39.4,49.7,39.4,49.7,39.5z"/>
								</g>
							</g>
						</g>
						<g id="XMLID_16645_">
							<g id="XMLID_16696_">
								<g id="XMLID_16697_">
									<path id="XMLID_16699_" class="st46" d="M39.8,34.5L39.8,34.5l0.5-0.3c0.1,0,0.2,0,0.2,0l1.3,0.7c0,0,0,0,0,0.1l0,0v0.1
										l-0.4,0.2c-0.1,0-0.2,0-0.2,0L39.8,34.5C39.8,34.6,39.8,34.6,39.8,34.5L39.8,34.5z"/>
									<path id="XMLID_16698_" class="st45" d="M40.4,34.1l1.3,0.7c0.1,0,0.1,0.1,0,0.2l-0.4,0.2c-0.1,0-0.2,0-0.2,0l-1.3-0.8
										c-0.1,0-0.1-0.1,0-0.2l0.4-0.2C40.2,34.1,40.3,34.1,40.4,34.1z"/>
								</g>
							</g>
							<g id="XMLID_16687_">
								<g id="XMLID_16692_">
									<g id="XMLID_16693_">
										<path id="XMLID_16695_" class="st46" d="M41.3,35.3L41.3,35.3l0.5-0.3c0.1,0,0.2,0,0.2,0l0.4,0.2c0,0,0,0,0,0.1v0.1v0.1
											L42,35.7c-0.1,0-0.2,0-0.2,0l-0.4-0.2C41.3,35.5,41.3,35.5,41.3,35.3L41.3,35.3z"/>
										<path id="XMLID_16694_" class="st45" d="M41.9,35l0.5,0.2c0.1,0,0.1,0.1,0,0.2L42,35.6c-0.1,0-0.2,0-0.2,0l-0.4-0.2
											c-0.1,0-0.1-0.1,0-0.2L41.9,35C41.8,34.9,41.9,34.9,41.9,35z"/>
									</g>
								</g>
								<g id="XMLID_16688_">
									<g id="XMLID_16689_">
										<path id="XMLID_16691_" class="st46" d="M42,35.8C42,35.7,42.1,35.7,42,35.8l0.5-0.3c0.1,0,0.2,0,0.2,0l0.4,0.2
											c0,0,0,0,0,0.1v0.1V36l-0.4,0.2c-0.1,0-0.2,0-0.2,0L42.1,36C42.1,36,42.1,36,42,35.8L42,35.8z"/>
										<path id="XMLID_16690_" class="st45" d="M42.6,35.4l0.4,0.2c0.1,0,0.1,0.1,0,0.2L42.7,36c-0.1,0-0.2,0-0.2,0l-0.4-0.2
											c-0.1,0-0.1-0.1,0-0.2L42.6,35.4L42.6,35.4z"/>
									</g>
								</g>
							</g>
							<g id="XMLID_16678_">
								<g id="XMLID_16683_">
									<g id="XMLID_16684_">
										<path id="XMLID_16686_" class="st46" d="M42.7,36.2C42.7,36.2,42.7,36.1,42.7,36.2l0.5-0.3c0.1,0,0.2,0,0.2,0l0.4,0.2
											c0,0,0,0,0,0.1v0.1v0.1l-0.4,0.2c-0.1,0-0.2,0-0.2,0l-0.4-0.2C42.8,36.4,42.8,36.4,42.7,36.2L42.7,36.2z"/>
										<path id="XMLID_16685_" class="st45" d="M43.3,35.8l0.4,0.2c0.1,0,0.1,0.1,0,0.2l-0.4,0.2c-0.1,0-0.2,0-0.2,0l-0.4-0.2
											c-0.1,0-0.1-0.1,0-0.2l0.4-0.2C43.2,35.8,43.3,35.8,43.3,35.8z"/>
									</g>
								</g>
								<g id="XMLID_16679_">
									<g id="XMLID_16680_">
										<path id="XMLID_16682_" class="st46" d="M43.4,36.6C43.4,36.6,43.4,36.5,43.4,36.6l0.5-0.3c0.1,0,0.2,0,0.2,0l0.4,0.2
											c0,0,0,0,0,0.1v0.1v0.1L44,37c-0.1,0-0.2,0-0.2,0l-0.4-0.2C43.5,36.8,43.5,36.8,43.4,36.6L43.4,36.6z"/>
										<path id="XMLID_16681_" class="st45" d="M44,36.2l0.4,0.2c0.1,0,0.1,0.1,0,0.2L44,36.8c-0.1,0-0.2,0-0.2,0l-0.4-0.2
											c-0.1,0-0.1-0.1,0-0.2l0.4-0.2C44,36.2,44,36.2,44,36.2z"/>
									</g>
								</g>
							</g>
							<g id="XMLID_16669_">
								<g id="XMLID_16674_">
									<g id="XMLID_16675_">
										<path id="XMLID_16677_" class="st46" d="M44.1,37L44.1,37l0.5-0.3c0.1,0,0.2,0,0.2,0l0.4,0.2c0,0,0,0,0,0.1v0.1v0.1
											l-0.4,0.2c-0.1,0-0.2,0-0.2,0l-0.4-0.2C44.2,37.2,44.2,37.2,44.1,37L44.1,37z"/>
										<path id="XMLID_16676_" class="st45" d="M44.7,36.7l0.4,0.2c0.1,0,0.1,0.1,0,0.2l-0.4,0.2c-0.1,0-0.2,0-0.2,0L44.2,37
											c-0.1,0-0.1-0.1,0-0.2l0.4-0.2C44.7,36.6,44.7,36.6,44.7,36.7z"/>
									</g>
								</g>
								<g id="XMLID_16670_">
									<g id="XMLID_16671_">
										<path id="XMLID_16673_" class="st46" d="M44.8,37.4L44.8,37.4l0.5-0.3c0.1,0,0.2,0,0.2,0l0.4,0.2c0,0,0,0,0,0.1v0.1v0.1
											l-0.4,0.2c-0.1,0-0.2,0-0.2,0l-0.4-0.2C44.9,37.5,44.9,37.5,44.8,37.4L44.8,37.4z"/>
										<path id="XMLID_16672_" class="st45" d="M45.5,37.1l0.4,0.2c0.1,0,0.1,0.1,0,0.2l-0.4,0.2c-0.1,0-0.2,0-0.2,0l-0.4-0.2
											c-0.1,0-0.1-0.1,0-0.2l0.4-0.2C45.4,37,45.5,37,45.5,37.1z"/>
									</g>
								</g>
							</g>
							<g id="XMLID_16660_">
								<g id="XMLID_16665_">
									<g id="XMLID_16666_">
										<path id="XMLID_16668_" class="st46" d="M45.5,37.9C45.5,37.8,45.5,37.8,45.5,37.9l0.5-0.3c0.1,0,0.2,0,0.2,0l0.4,0.2
											c0,0,0,0,0,0.1V38l0,0l-0.4,0.2c-0.1,0-0.2,0-0.2,0L45.5,37.9C45.6,38,45.6,38,45.5,37.9L45.5,37.9z"/>
										<path id="XMLID_16667_" class="st45" d="M46.2,37.5l0.4,0.2c0.1,0,0.1,0.1,0,0.2l-0.4,0.2c-0.1,0-0.2,0-0.2,0l-0.4-0.2
											c-0.1,0-0.1-0.1,0-0.2l0.4-0.2C46.1,37.5,46.2,37.5,46.2,37.5z"/>
									</g>
								</g>
								<g id="XMLID_16661_">
									<g id="XMLID_16662_">
										<path id="XMLID_16664_" class="st46" d="M46.3,38.3C46.3,38.2,46.3,38.2,46.3,38.3l0.5-0.3c0.1,0,0.2,0,0.2,0l0.4,0.2
											c0,0,0,0,0,0.1v0.1v0.1L47,38.7c-0.1,0-0.2,0-0.2,0l-0.4-0.2C46.3,38.4,46.3,38.4,46.3,38.3L46.3,38.3z"/>
										<path id="XMLID_16663_" class="st45" d="M46.9,37.9l0.4,0.2c0.1,0,0.1,0.1,0,0.2l-0.4,0.2c-0.1,0-0.2,0-0.2,0l-0.4-0.2
											c-0.1,0-0.1-0.1,0-0.2l0.4-0.2C46.8,37.9,46.9,37.9,46.9,37.9z"/>
									</g>
								</g>
							</g>
							<g id="XMLID_16651_">
								<g id="XMLID_16656_">
									<g id="XMLID_16657_">
										<path id="XMLID_16659_" class="st46" d="M47,38.7C47,38.7,47,38.6,47,38.7l0.5-0.3c0.1,0,0.2,0,0.2,0l0.4,0.2
											c0,0,0,0,0,0.1v0.1v0.1l-0.4,0.2c-0.1,0-0.2,0-0.2,0L47,38.7C47,38.8,47,38.8,47,38.7L47,38.7z"/>
										<path id="XMLID_16658_" class="st45" d="M47.6,38.3l0.4,0.2c0.1,0,0.1,0.1,0,0.2l-0.4,0.2c-0.1,0-0.2,0-0.2,0L47,38.7
											c-0.1,0-0.1-0.1,0-0.2l0.4-0.2C47.5,38.3,47.5,38.3,47.6,38.3z"/>
									</g>
								</g>
								<g id="XMLID_16652_">
									<g id="XMLID_16653_">
										<path id="XMLID_16655_" class="st46" d="M47.7,39.1L47.7,39.1l0.5-0.3c0.1,0,0.2,0,0.2,0l0.4,0.2c0,0,0,0,0,0.1v0.1v0.1
											l-0.4,0.2c-0.1,0-0.2,0-0.2,0l-0.4-0.2C47.8,39.2,47.8,39.2,47.7,39.1L47.7,39.1z"/>
										<path id="XMLID_16654_" class="st45" d="M48.3,38.7l0.4,0.2c0.1,0,0.1,0.1,0,0.2l-0.4,0.2c-0.1,0-0.2,0-0.2,0l-0.4-0.2
											c-0.1,0-0.1-0.1,0-0.2l0.4-0.2C48.2,38.7,48.2,38.7,48.3,38.7z"/>
									</g>
								</g>
							</g>
							<g id="XMLID_16646_">
								<g id="XMLID_16647_">
									<g id="XMLID_16648_">
										<path id="XMLID_16650_" class="st46" d="M48.4,39.4L48.4,39.4l0.5-0.3c0.1,0,0.2,0,0.2,0l0.4,0.2c0,0,0,0,0,0.1v0.1v0.1
											L49,39.8c-0.1,0-0.2,0-0.2,0l-0.4-0.2C48.5,39.6,48.5,39.6,48.4,39.4L48.4,39.4z"/>
										<path id="XMLID_16649_" class="st45" d="M49,39.1l0.4,0.2c0.1,0,0.1,0.1,0,0.2L49,39.8c-0.1,0-0.2,0-0.2,0l-0.4-0.2
											c-0.1,0-0.1-0.1,0-0.2l0.4-0.2C48.9,39.1,48.9,39.1,49,39.1z"/>
									</g>
								</g>
							</g>
						</g>
					</g>
					<g id="XMLID_16587_">
						<g id="XMLID_16603_">
							<g id="XMLID_16639_">
								<g id="XMLID_16640_">
									<g id="XMLID_16641_">
										<path id="XMLID_16643_" class="st46" d="M42.5,36.9C42.5,36.8,42.5,36.8,42.5,36.9l0.5-0.3c0.1,0,0.2,0,0.2,0l3.6,2.1
											c0,0,0,0,0,0.1v0.1V39l-0.4,0.2c-0.1,0-0.2,0-0.2,0l-3.6-2.1C42.6,37.1,42.6,37.1,42.5,36.9L42.5,36.9z"/>
										<path id="XMLID_16642_" class="st45" d="M43.2,36.5l3.6,2.1c0.1,0,0.1,0.1,0,0.2L46.3,39c-0.1,0-0.2,0-0.2,0l-3.6-2.1
											c-0.1,0-0.1-0.1,0-0.2l0.4-0.2C43,36.5,43.1,36.5,43.2,36.5z"/>
									</g>
								</g>
							</g>
							<g id="XMLID_16634_">
								<g id="XMLID_16635_">
									<g id="XMLID_16636_">
										<path id="XMLID_16638_" class="st46" d="M48.6,40.4L48.6,40.4l0.5-0.3c0.1,0,0.2,0,0.2,0l0.3,0.2c0,0,0,0,0,0.1v0.1v0.1
											l-0.4,0.2c-0.1,0-0.2,0-0.2,0l-0.3-0.2C48.7,40.6,48.7,40.6,48.6,40.4L48.6,40.4z"/>
										<path id="XMLID_16637_" class="st45" d="M49.3,40.1l0.3,0.2c0.1,0,0.1,0.1,0,0.2l-0.4,0.2c-0.1,0-0.2,0-0.2,0l-0.3-0.2
											c-0.1,0-0.1-0.1,0-0.2l0.4-0.2C49.1,40,49.2,40,49.3,40.1z"/>
									</g>
								</g>
							</g>
							<g id="XMLID_16629_">
								<g id="XMLID_16630_">
									<g id="XMLID_16631_">
										<path id="XMLID_16633_" class="st46" d="M47.9,40C48,40,48,40,47.9,40l0.5-0.3c0.1,0,0.2,0,0.2,0l0.3,0.2c0,0,0,0,0,0.1
											v0.1v0.1l-0.4,0.2c-0.1,0-0.2,0-0.2,0L48,40.2C48,40.2,48,40.2,47.9,40L47.9,40z"/>
										<path id="XMLID_16632_" class="st45" d="M48.6,39.7l0.3,0.2c0.1,0,0.1,0.1,0,0.2l-0.4,0.2c-0.1,0-0.2,0-0.2,0L48,40
											c-0.1,0-0.1-0.1,0-0.2l0.4-0.2C48.5,39.6,48.5,39.6,48.6,39.7z"/>
									</g>
								</g>
							</g>
							<g id="XMLID_16624_">
								<g id="XMLID_16625_">
									<g id="XMLID_16626_">
										<path id="XMLID_16628_" class="st46" d="M47.3,39.7C47.3,39.6,47.3,39.6,47.3,39.7l0.5-0.3c0.1,0,0.2,0,0.2,0l0.3,0.2
											c0,0,0,0,0,0.1v0.1v0.1L47.9,40c-0.1,0-0.2,0-0.2,0l-0.3-0.2c0,0,0,0,0-0.1H47.3z"/>
										<path id="XMLID_16627_" class="st45" d="M47.9,39.3l0.3,0.2c0.1,0,0.1,0.1,0,0.2l-0.3,0.2c-0.1,0-0.2,0-0.2,0l-0.3-0.2
											c-0.1,0-0.1-0.1,0-0.2L47.9,39.3C47.8,39.3,47.9,39.3,47.9,39.3z"/>
									</g>
								</g>
							</g>
							<g id="XMLID_16619_">
								<g id="XMLID_16620_">
									<g id="XMLID_16621_">
										<path id="XMLID_16623_" class="st46" d="M46.4,39.1L46.4,39.1l0.5-0.3c0.1,0,0.2,0,0.2,0l0.6,0.3c0,0,0,0,0,0.1v0.1v0.1
											l-0.4,0.2c-0.1,0-0.2,0-0.2,0l-0.6-0.3C46.5,39.3,46.5,39.3,46.4,39.1L46.4,39.1z"/>
										<path id="XMLID_16622_" class="st45" d="M47,38.7l0.6,0.3c0.1,0,0.1,0.1,0,0.2l-0.4,0.2c-0.1,0-0.2,0-0.2,0l-0.6-0.3
											c-0.1,0-0.1-0.1,0-0.2l0.4-0.2C46.9,38.7,47,38.7,47,38.7z"/>
									</g>
								</g>
							</g>
							<g id="XMLID_16614_">
								<g id="XMLID_16615_">
									<g id="XMLID_16616_">
										<path id="XMLID_16618_" class="st46" d="M41.7,36.4L41.7,36.4l0.5-0.3c0.1,0,0.2,0,0.2,0l0.6,0.3c0,0,0,0,0,0.1v0.1v0.1
											l-0.5,0.2c-0.1,0-0.2,0-0.2,0l-0.6-0.3C41.7,36.5,41.7,36.5,41.7,36.4L41.7,36.4z"/>
										<path id="XMLID_16617_" class="st45" d="M42.3,36l0.6,0.3c0.1,0,0.1,0.1,0,0.2l-0.4,0.2c-0.1,0-0.2,0-0.2,0l-0.6-0.3
											c-0.1,0-0.1-0.1,0-0.2l0.4-0.2C42.1,36,42.2,36,42.3,36z"/>
									</g>
								</g>
							</g>
							<g id="XMLID_16609_">
								<g id="XMLID_16610_">
									<g id="XMLID_16611_">
										<path id="XMLID_16613_" class="st46" d="M40.9,36C40.9,36,41,36,40.9,36l0.5-0.3c0.1,0,0.2,0,0.2,0l0.3,0.2c0,0,0,0,0,0.1
											l0,0v0.1l-0.3,0.2c-0.1,0-0.2,0-0.2,0l-0.3-0.2c0,0,0,0,0-0.1H40.9z"/>
										<path id="XMLID_16612_" class="st45" d="M41.6,35.6l0.3,0.2c0.1,0,0.1,0.1,0,0.2l-0.3,0.2c-0.1,0-0.2,0-0.2,0L41.1,36
											c-0.1,0-0.1-0.1,0-0.2L41.6,35.6C41.5,35.6,41.6,35.6,41.6,35.6z"/>
									</g>
								</g>
							</g>
							<g id="XMLID_16604_">
								<g id="XMLID_16605_">
									<g id="XMLID_16606_">
										<path id="XMLID_16608_" class="st46" d="M39.1,34.9L39.1,34.9L39.1,34.9c0.2-0.1,0.2-0.1,0.2-0.1l0.3,0.2c0,0,0,0,0,0.1
											v0.1v0.1l0,0c-0.1,0-0.2,0-0.2,0L39.1,34.9C39.1,35,39.1,35,39.1,34.9L39.1,34.9z"/>
										<path id="XMLID_16607_" class="st45" d="M39.4,34.7l0.3,0.2c0.1,0,0.1,0.1,0,0.2l-0.1,0.1c-0.1,0-0.2,0-0.2,0L39.1,35
											c-0.1,0-0.1-0.1,0-0.2l0.1-0.1C39.2,34.7,39.3,34.7,39.4,34.7z"/>
									</g>
								</g>
							</g>
						</g>
						<g id="XMLID_16598_">
							<g id="XMLID_16599_">
								<g id="XMLID_16600_">
									<path id="XMLID_16602_" class="st46" d="M40.3,35.6L40.3,35.6L40.3,35.6c0.2-0.1,0.2-0.1,0.2-0.1l0.3,0.2c0,0,0,0,0,0.1V36
										l0,0l-0.1,0.1c-0.1,0-0.2,0-0.2,0l-0.3-0.2c0,0,0,0,0-0.1L40.3,35.6L40.3,35.6z"/>
									<path id="XMLID_16601_" class="st45" d="M40.6,35.5l0.3,0.2c0.1,0,0.1,0.1,0,0.2l0,0.1c-0.1,0-0.2,0-0.2,0l-0.3-0.2
										c-0.1,0-0.1-0.1,0-0.2L40.6,35.5C40.5,35.4,40.6,35.4,40.6,35.5z"/>
								</g>
							</g>
						</g>
						<g id="XMLID_16593_">
							<g id="XMLID_16594_">
								<g id="XMLID_16595_">
									<path id="XMLID_16597_" class="st46" d="M40,35.1C40,35,40.1,35,40,35.1L40,35.1c0.2-0.1,0.2-0.1,0.2-0.1l0.3,0.2
										c0,0,0,0,0,0.1v0.1v0.1l-0.1,0.1c-0.1,0-0.2,0-0.2,0L40,35.3c0,0,0,0,0-0.1V35.1z"/>
									<path id="XMLID_16596_" class="st45" d="M40.3,34.9l0.3,0.2c0.1,0,0.1,0.1,0,0.2l0,0c-0.1,0-0.2,0-0.2,0L40.3,34.9
										c-0.2,0.1-0.2,0-0.1-0.1h0.1C40.2,34.9,40.2,34.9,40.3,34.9z"/>
								</g>
							</g>
						</g>
						<g id="XMLID_16588_">
							<g id="XMLID_16589_">
								<g id="XMLID_16590_">
									<path id="XMLID_16592_" class="st46" d="M39.7,35.3C39.7,35.3,39.7,35.2,39.7,35.3L39.7,35.3c0.2-0.1,0.2-0.1,0.2-0.1
										l0.3,0.2c0,0,0,0,0,0.1v0.1v0.1l-0.1,0.1c-0.1,0-0.2,0-0.2,0l-0.3-0.2c0,0,0,0,0-0.1L39.7,35.3L39.7,35.3z"/>
									<path id="XMLID_16591_" class="st45" d="M40,35.1l0.3,0.2c0.1,0,0.1,0.1,0,0.2l-0.1,0.1c-0.1,0-0.2,0-0.2,0l-0.3-0.3
										c-0.1,0-0.1-0.1,0-0.2l0.1-0.1C39.8,35,39.9,35,40,35.1z"/>
								</g>
							</g>
						</g>
					</g>
				</g>
			</g>
		</g>
		<g id="XMLID_16580_">
			<path id="XMLID_16583_" class="st48" d="M33.8,28.4l-3.5,2c-0.6,0.4-0.6,1.3,0,1.7l3.5,2c0.7,0.4,1.5,0.4,2.2,0l3.5-2
				c0.6-0.4,0.6-1.3,0-1.7l-3.5-2C35.3,28,34.5,28,33.8,28.4z"/>
			<path id="XMLID_16582_" class="st49" d="M33.8,28.2l-3.5,2c-0.6,0.4-0.6,1.3,0,1.7l3.5,2c0.7,0.4,1.5,0.4,2.2,0l3.5-2
				c0.6-0.4,0.6-1.3,0-1.7l-3.5-2C35.3,27.8,34.5,27.8,33.8,28.2z"/>
			<path id="XMLID_16581_" class="st50" d="M33.8,33.9c0.7,0.4,1.5,0.4,2.2,0l3.5-2c0.6-0.4,0.6-1.3,0-1.7l-3.5-2
				c-0.7-0.4-1.5-0.4-2.2,0"/>
		</g>
		<g id="XMLID_16568_">
			<g id="XMLID_16578_">
				<path id="XMLID_16579_" class="st51" d="M52.3,28.9c-3.4-1-7.3-1.6-9.7-1.4c-3.2,0.2-6.1,2.6-6.2,2.6l0.1,0.1
					c0,0,2.8-2.4,6.1-2.6C45,27.4,48.9,28,52.3,28.9L52.3,28.9z"/>
			</g>
			<g id="XMLID_16569_">
				<g id="XMLID_16575_">
					<g id="XMLID_16576_">
						<path id="XMLID_16577_" class="st51" d="M33.1,30.8l1.7-0.9c0.4-0.2,0.9-0.3,1.5-0.2l0,0c1.1,0.2,1.3,1.3,0.5,1.7l-1.7,0.9
							c-0.4,0.2-0.9,0.3-1.5,0.2l0,0C32.5,32.3,32.2,31.4,33.1,30.8z"/>
					</g>
				</g>
				<g id="XMLID_16572_">
					<path id="XMLID_16574_" class="st52" d="M32.7,31.1c0.1-0.2,0.6-0.7,1.3-1.1c0.5-0.2,0.8-0.4,1-0.4c1.1,0.1,1.6,1.2,1.7,1.6
						c-0.2,0.1-0.5,0.2-0.8,0.4c-0.6,0.4-1.3,0.9-1.6,1s-0.6,0.1-0.9,0C32.7,32.2,32.3,31.5,32.7,31.1z"/>
					<path id="XMLID_16573_" class="st53" d="M35.1,29.5c0.2,0,0.2,0,0.4-0.1c0.2,0,0.6,0,0.8,0.1c0.9,0.2,1.2,0.8,0.9,1.3
						C37.1,30.9,37,31,36.9,31C36.7,30.7,36.2,29.6,35.1,29.5z"/>
				</g>
				<g id="XMLID_16570_">
					<path id="XMLID_16571_" class="st52" d="M36.1,30c0.2-0.1,0.4-0.2,0.6-0.2c0,0,0.1,0,0.1,0.1C36.7,29.9,36.4,29.9,36.1,30
						C36.2,30,36.2,30,36.1,30z"/>
				</g>
			</g>
		</g>
		<g id="XMLID_16554_">
			<g id="XMLID_16562_">
				<path id="XMLID_16567_" class="st47" d="M49.5,31.1l2.5-1.5c0.6-0.4,1.4-0.4,2.1,0l3.4,2c0.2,0.2,0.4,0.4,0.4,0.7
					c0,0.1,0,0.4,0,0.6c0,0.2-0.2,0.5-0.4,0.6L55,34.9c-0.6,0.4-1.4,0.4-2.1,0l-3.5-2c-0.2-0.2-0.4-0.6-0.4-0.8c0-0.1,0-0.3,0-0.4
					C49.2,31.4,49.3,31.2,49.5,31.1z"/>
				<path class="st54" d="M53.8,29.5H54c0,0,0.1,0,0.1,0.1l3.4,2c0.2,0.2,0.4,0.4,0.4,0.7c0,0.1,0,0.4,0,0.6c0,0.2-0.2,0.5-0.4,0.6
					L55,34.9c-0.4,0.2-0.8,0.3-1.2,0.2V29.5z"/>
				<path id="XMLID_16566_" class="st55" d="M52.1,29.6l-2.6,1.5c-0.6,0.3-0.6,1,0,1.3l3.4,2c0.6,0.4,1.4,0.4,2.1,0l2.5-1.5
					c0.6-0.3,0.6-1,0-1.3l-3.4-2C53.5,29.2,52.7,29.2,52.1,29.6z"/>
				<path id="XMLID_16565_" class="st47" d="M53,34.4c0.6,0.4,1.4,0.4,2.1,0l2.5-1.5c0.6-0.3,0.6-1,0-1.3l-3.4-2
					c-0.6-0.4-1.4-0.4-2.1,0"/>
				<path class="st56" d="M53,34.4l-0.8-0.5l0,0c0-0.1,0-2.7,0-2.7c0-0.1,0.1-0.2,0.2-0.2l0.6-0.3c0.3-0.2,0.6-0.2,0.9,0l1.5,0.9
					c0.1,0.1,0.2,0.2,0.2,0.3c0,0,0,1.5,0,2.3L55,34.4C54.4,34.8,53.6,34.8,53,34.4z"/>
				<g id="XMLID_16563_">
					<path id="XMLID_16564_" class="st57" d="M52.3,28.4l0.6-0.3c0.3-0.2,0.6-0.2,0.9,0l1.5,0.9c0.1,0.1,0.2,0.2,0.2,0.3
						c0,0.1,0,2.7,0,2.8s-0.1,0.2-0.2,0.2l-0.6,0.3c-0.3,0.2-0.6,0.2-0.9,0l-1.5-0.9c-0.1-0.1-0.2-0.2-0.2-0.4c0-0.1,0-2.7,0-2.7
						C52.2,28.5,52.2,28.4,52.3,28.4z"/>
				</g>
				<path class="st58" d="M54.2,28.2l1.2,0.7c0.1,0.1,0.2,0.2,0.2,0.3c0,0.1,0,2.7,0,2.8s-0.1,0.2-0.2,0.2l-0.6,0.3
					c-0.2,0.1-0.4,0.2-0.6,0.1C54.2,32.6,54.2,28.2,54.2,28.2z"/>
				<path class="st58" d="M52.3,28.4l0.6-0.3c0.3-0.2,0.6-0.2,0.9,0l1.5,0.9c0.1,0.1,0.2,0.2,0.2,0.3c0,0,0,0.4,0,0.9
					c0,0.3,0,0.5,0,0.6S55.4,31,55.3,31l-0.6,0.3c-0.3,0.2-0.6,0.2-0.9,0l-1.5-0.9c-0.1-0.1-0.2-0.2-0.2-0.4c0,0,0-0.3,0-0.7
					c0-0.4,0-0.6,0-0.6C52.2,28.5,52.2,28.4,52.3,28.4z"/>
			</g>
			<g id="XMLID_16555_">
				<polygon id="XMLID_16561_" class="st59" points="61.1,22.1 61.1,34.2 61.6,33.9 61.6,21.8 				"/>
				<polygon id="XMLID_16560_" class="st60" points="61.1,22.1 46.8,13.9 47.4,13.6 61.6,21.8 				"/>
				<polygon id="XMLID_16559_" class="st61" points="46.8,13.9 46.8,26 61.1,34.2 61.1,22.1 				"/>
				<polyline id="XMLID_16558_" class="st47" points="61.1,34.2 61.1,22.1 46.8,13.9 				"/>
				<polygon id="XMLID_16557_" class="st62" points="47.7,15.2 47.7,25.6 60.3,32.9 60.3,22.4 				"/>
				<polygon id="XMLID_16556_" class="st63" points="47.7,15.2 47.7,25.6 60.3,32.9 				"/>
				<polygon class="st64" points="60.3,32.6 47.9,25.4 47.9,15.3 60.3,22.4 				"/>
				<polygon class="st65" points="47.7,15.2 60.3,22.4 60.3,23.4 47.7,16.1 				"/>
			</g>
		</g>
	</g>
</g>
<g id="XMLID_16993_">
	<g id="XMLID_16994_">
		<path id="XMLID_17002_" class="st66" d="M14,25.4l5.5-3.2c0.2-0.1,0.2-0.1,0.4,0l4,2.3l0,0c0.5,0.2,0.6,0.7,0.5,0.9l-5.9,3.4
			c-0.2,0.1-0.4-0.1-0.4-0.1L18,28.5l-4-2.3V25.4z"/>
		<path class="st67" d="M20.1,22.1l4,2.3l0,0c0.1,0.1,0.2,0.2,0.3,0.2c-1,0.6-5.7,3.3-5.8,3.3c-0.2,0.1-0.4-0.1-0.4-0.1l-0.1-0.2
			l-4-2.3v-0.1l5.5-3.2C19.7,22,19.9,22,20.1,22.1z"/>
		<path class="st68" d="M24.1,24.5"/>
		<path class="st68" d="M18.6,28.1c-0.2,0.1-0.4-0.1-0.4-0.1l-0.1-0.2l-4-2.3v-0.1l5.5-3.2c0.2-0.1,0.2-0.1,0.4,0"/>
		<g id="XMLID_17000_">
			<path id="XMLID_17001_" class="st66" d="M14.2,26c-0.1-0.1-0.1-0.2-0.1-0.2c0-0.1,0-0.3,0.1-0.2c0.1,0.1,3.2,1.8,3.9,2.2
				s0.7,1.3,0,0.8c-0.7-0.4-3.8-2.2-3.9-2.2c-0.1-0.1-0.1-0.1-0.1-0.2C14.1,26.2,14.1,25.9,14.2,26L14.2,26z"/>
		</g>
		<g id="XMLID_16998_">
			<path id="XMLID_16999_" class="st69" d="M14.2,25.4c0.1,0.1,3.6,2,4.3,2.4c0.5,0.3,0.3,1.4-0.4,0.9c-0.7-0.4-3.9-2.2-4-2.3
				C14,26.3,14,26.2,14,26.2c0-0.1-0.1-0.2,0.1-0.4c0,0-0.1-0.1-0.1-0.2C14,25.4,14.1,25.3,14.2,25.4z"/>
		</g>
		<g id="XMLID_16996_">
			<path id="XMLID_16997_" class="st70" d="M14.2,25.8c-0.1-0.1-0.1-0.2-0.1-0.2c0-0.1,0-0.2,0.1-0.2c0.1,0.1,3.3,1.9,4,2.3
				c0.5,0.2,0.2,0.9-0.2,0.6c-0.7-0.4-3.7-2.1-3.9-2.2C14,26,14,26,14,25.9C14.1,26,14.1,25.8,14.2,25.8L14.2,25.8z"/>
		</g>
		<path id="XMLID_16995_" class="st69" d="M14.2,25.8c0,0,2.9,1.7,3.7,2.1C18,28,18.2,28,18.2,28c0.1,0.1-0.1,0.1-0.1,0.2
			s0.1,0.2-0.1,0.2c0,0-0.1-0.2-0.2-0.2c-0.6-0.4-2.8-1.7-3.6-2.1C14.2,26,14.2,25.8,14.2,25.8z"/>
	</g>
</g>
<g id="XMLID_17003_">
	<g id="XMLID_17004_">
		<path id="XMLID_17012_" class="st66" d="M14,24.3l5.5-3.2c0.2-0.1,0.2-0.1,0.4,0l4,2.3l0,0c0.5,0.2,0.6,0.7,0.5,0.9l-5.9,3.4
			c-0.2,0.1-0.4-0.1-0.4-0.1L18,27.4L14,25V24.3z"/>
		<path class="st67" d="M20.1,21.2l4,2.3l0,0c0.1,0.1,0.2,0.2,0.3,0.2c-1,0.6-5.7,3.3-5.8,3.3c-0.2,0.1-0.4-0.1-0.4-0.1l-0.1-0.2
			l-4-2.3v-0.1l5.5-3.2C19.7,21.1,19.9,21.1,20.1,21.2z"/>
		<path class="st68" d="M24.1,23.5"/>
		<path class="st68" d="M18.6,27c-0.2,0.1-0.4-0.1-0.4-0.1l-0.1-0.2l-4-2.3v-0.1l5.5-3.2c0.2-0.1,0.2-0.1,0.4,0"/>
		<g id="XMLID_17010_">
			<path id="XMLID_17011_" class="st66" d="M14.2,25c-0.1-0.1-0.1-0.2-0.1-0.2c0-0.1,0-0.3,0.1-0.2c0.1,0.1,3.2,1.8,3.9,2.2
				s0.7,1.3,0,0.8c-0.7-0.4-3.8-2.2-3.9-2.2c-0.1-0.1-0.1-0.1-0.1-0.2S14.1,25,14.2,25L14.2,25z"/>
		</g>
		<g id="XMLID_17008_">
			<path id="XMLID_17009_" class="st69" d="M14.2,24.3c0.1,0.1,3.6,2,4.3,2.4c0.5,0.3,0.3,1.4-0.4,0.9c-0.7-0.4-3.9-2.2-4-2.3
				c-0.1,0-0.1-0.1-0.1-0.1c0-0.1-0.1-0.2,0.1-0.4c0,0-0.1-0.1-0.1-0.2C14,24.3,14.1,24.3,14.2,24.3z"/>
		</g>
		<g id="XMLID_17006_">
			<path id="XMLID_17007_" class="st70" d="M14.2,24.8c-0.1-0.1-0.1-0.2-0.1-0.2c0-0.1,0-0.2,0.1-0.2c0.1,0.1,3.3,1.9,4,2.3
				c0.5,0.2,0.2,0.9-0.2,0.6c-0.7-0.4-3.7-2.1-3.9-2.2C14,25,14,25,14,24.9C14.1,25,14.1,24.8,14.2,24.8L14.2,24.8z"/>
		</g>
		<path id="XMLID_17005_" class="st69" d="M14.2,24.8c0,0,2.9,1.7,3.7,2.1C18,27,18.1,27,18.1,27c0.1,0.1-0.1,0.1-0.1,0.2
			s0.1,0.2-0.1,0.2c0,0-0.1-0.2-0.2-0.2c-0.6-0.4-2.8-1.7-3.6-2.1C14.2,25,14.2,24.8,14.2,24.8z"/>
	</g>
</g>
<g id="XMLID_17013_">
	<g id="XMLID_17014_">
		<path id="XMLID_17022_" class="st66" d="M14,23.4l5.5-3.2c0.2-0.1,0.2-0.1,0.4,0l4,2.3l0,0c0.5,0.2,0.6,0.7,0.5,0.9l-5.9,3.4
			c-0.2,0.1-0.4-0.1-0.4-0.1L18,26.5l-4-2.2V23.4z"/>
		<path class="st67" d="M20.1,20.1l4,2.3l0,0c0.1,0.1,0.2,0.2,0.3,0.2c-1,0.6-5.7,3.3-5.8,3.3c-0.2,0.1-0.4-0.1-0.4-0.1L18,25.6
			l-4-2.3v-0.1l5.5-3.2C19.7,20.1,19.9,20.1,20.1,20.1z"/>
		<path class="st68" d="M24.1,22.5"/>
		<path class="st68" d="M18.6,26.1c-0.2,0.1-0.4-0.1-0.4-0.1l-0.1-0.2l-4-2.3v-0.1l5.5-3.2c0.2-0.1,0.2-0.1,0.4,0"/>
		<g id="XMLID_17020_">
			<path id="XMLID_17021_" class="st66" d="M14.2,24c-0.1-0.1-0.1-0.2-0.1-0.2c0-0.1,0-0.3,0.1-0.2c0.1,0.1,3.2,1.8,3.9,2.2
				s0.7,1.3,0,0.8c-0.7-0.4-3.8-2.2-3.9-2.2c-0.1-0.1-0.1-0.1-0.1-0.2C14.1,24.3,14.1,23.9,14.2,24L14.2,24z"/>
		</g>
		<g id="XMLID_17018_">
			<path id="XMLID_17019_" class="st69" d="M14.2,23.4c0.1,0.1,3.6,2,4.3,2.4c0.5,0.3,0.3,1.4-0.4,0.9c-0.7-0.4-3.9-2.2-4-2.3
				C14,24.3,14,24.3,14,24.3c0-0.1-0.1-0.2,0.1-0.4c0,0-0.1-0.1-0.1-0.2C14,23.4,14.1,23.3,14.2,23.4z"/>
		</g>
		<g id="XMLID_17016_">
			<path id="XMLID_17017_" class="st70" d="M14.2,23.9c-0.1-0.1-0.1-0.2-0.1-0.2c0-0.1,0-0.2,0.1-0.2c0.1,0.1,3.3,1.9,4,2.3
				c0.5,0.2,0.2,0.9-0.2,0.6c-0.7-0.4-3.7-2.1-3.9-2.2C14,24.1,14,24.1,14,24C14.1,24,14.1,23.9,14.2,23.9L14.2,23.9z"/>
		</g>
		<path id="XMLID_17015_" class="st69" d="M14.2,23.9c0,0,2.9,1.7,3.7,2.1c0.1,0,0.3,0,0.3,0c0.1,0.1-0.1,0.1-0.1,0.2
			s0.1,0.2-0.1,0.2c0,0-0.1-0.2-0.2-0.2c-0.6-0.4-2.8-1.7-3.6-2.1C14.2,24,14.2,23.9,14.2,23.9z"/>
	</g>
</g>
</svg>
