<?xml version="1.0" encoding="utf-8"?>
<!-- Generator: Adobe Illustrator 20.1.0, SVG Export Plug-In . SVG Version: 6.00 Build 0)  -->
<svg version="1.1" id="Layer_1" xmlns="http://www.w3.org/2000/svg" xmlns:xlink="http://www.w3.org/1999/xlink" x="0px" y="0px"
	 viewBox="0 0 100 100" style="enable-background:new 0 0 100 100;" xml:space="preserve">
<style type="text/css">
	.st0{fill:#301F12;}
	.st1{fill:#563E2E;}
	.st2{fill:#008895;}
	.st3{fill:#01B4B3;}
	.st4{opacity:0.2;fill:#056378;}
	.st5{opacity:0.2;}
	.st6{fill:#056378;}
	.st7{fill:#029A9A;}
	.st8{fill:#CAE9F0;}
	.st9{fill:#96B9BE;}
	.st10{fill:#49C1C2;}
	.st11{fill:#12A1A4;}
</style>
<g id="XMLID_35245_">
	<g id="XMLID_35278_">
		<polygon id="XMLID_35280_" class="st0" points="91.9,50 95.8,47.7 95.8,45.6 91.9,47.8 		"/>
		<polygon id="XMLID_35279_" class="st1" points="91.9,47.8 88,45.6 88,47.8 91.9,50 		"/>
	</g>
	<g id="XMLID_35275_">
		<polygon id="XMLID_35277_" class="st0" points="8.1,75 12,72.7 12,70.6 8.1,72.8 		"/>
		<polygon id="XMLID_35276_" class="st1" points="8.1,72.8 4.2,70.6 4.2,72.7 8.1,75 		"/>
	</g>
	<g id="XMLID_35272_">
		<polygon id="XMLID_35274_" class="st0" points="28.4,86.7 32.3,84.4 32.3,82.3 28.4,84.5 		"/>
		<polygon id="XMLID_35273_" class="st1" points="28.4,84.5 24.5,82.3 24.5,84.4 28.4,86.7 		"/>
	</g>
	<g id="XMLID_35246_">
		<g id="XMLID_35253_">
			<polygon id="XMLID_35271_" class="st2" points="64.2,17.6 64.2,27.4 88.4,41.4 88.4,31.6 			"/>
			<g id="XMLID_35269_">
				<polygon id="XMLID_35270_" class="st3" points="83,33.4 63.9,22.4 11.3,52.7 30.9,64 				"/>
			</g>
			<polygon class="st4" points="64.2,44.5 83,33.4 64.2,22.6 			"/>
			<g id="XMLID_42095_" class="st5">
				<polyline id="XMLID_42097_" class="st6" points="11.3,52.7 30.9,64 83,33.4 				"/>
			</g>
			<g id="XMLID_35267_">
				<polygon id="XMLID_35268_" class="st7" points="57.2,48.9 37.6,37.6 37.1,37.8 56.7,49.1 				"/>
			</g>
			<g id="XMLID_35264_">
				<path id="XMLID_35266_" class="st8" d="M22.5,65.3c0.6,0.5,2.2-3.4,3-8.1c0.3-1.6,1-3.3,1.2-5.1c0.2-1.9-1.2-3.8-1.2-3.8
					c-0.1-0.1-0.6-0.1-0.7,0.4c0,0-0.6,5.6-1.2,9.2C22.9,61.3,22.3,65.1,22.5,65.3z"/>
				<path id="XMLID_35265_" class="st9" d="M38.5,66.6c0,0.3-0.3,0.6-0.6,0.5c-1.3-0.3-5.7-1.1-7.5-1.1c-2.9,0-6-0.3-7.3-0.3
					c-0.3,0-0.6-0.2-0.6-0.5c0-1.6,2-4.2,2.7-8.1c0.2-1.4,0.1-4.2,0.2-5.4c0.1-1.7-0.2-2.6-0.3-3.4c0-0.3,0.3-0.4,0.5-0.3
					c1.3,0.8,4.3,2.1,6.4,2.7c1.3,0.4,3.6,0.5,4.2,0.6c1.4,0.2,2.4,0.7,3.1,1.4c0.4,0.4,0.2,1.3,0.1,1.6c-0.4,0.9-0.8,2.7-1,5.8
					C38.2,63.2,38.6,65.5,38.5,66.6z"/>
			</g>
			<polygon id="XMLID_35263_" class="st10" points="71.6,13.3 64.2,17.6 88.4,31.6 95.8,27.3 			"/>
			<polyline id="XMLID_42099_" class="st3" points="64.2,17.6 88.4,31.6 95.8,27.3 			"/>
			<polygon id="XMLID_35262_" class="st6" points="95.8,43.4 95.8,27.3 88.4,31.6 88.4,47.7 			"/>
			<g id="XMLID_35258_">
				<polygon id="XMLID_35261_" class="st10" points="88.4,24.2 84.2,21.8 31.6,52.2 35.8,54.6 				"/>
				<polyline id="XMLID_42100_" class="st3" points="31.6,52.2 35.8,54.6 88.4,24.2 				"/>
				<polygon id="XMLID_35260_" class="st2" points="35.8,67.4 30,64.1 31.6,52.2 35.8,54.6 				"/>
				<polygon id="XMLID_35259_" class="st6" points="88.4,24.2 35.8,54.6 35.8,78.1 88.4,47.7 				"/>
				<polyline id="XMLID_42094_" class="st4" points="88.4,24.2 35.8,54.6 35.8,78.1 				"/>
			</g>
			<g id="XMLID_35256_">
				<polygon id="XMLID_35257_" class="st0" points="95.8,43.4 28.4,82.4 28.4,84.5 95.8,45.6 				"/>
			</g>
			<g id="XMLID_35254_">
				<polygon id="XMLID_35255_" class="st1" points="4.2,68.4 28.4,82.4 28.4,84.5 4.2,70.6 				"/>
			</g>
		</g>
		<g id="XMLID_35250_">
			<g id="XMLID_35251_">
				<polygon id="XMLID_35252_" class="st11" points="30.9,68.9 14.1,59.2 14.1,54.3 30.9,64 				"/>
			</g>
		</g>
		<polygon id="XMLID_35249_" class="st2" points="28.4,66.2 4.2,52.3 4.2,68.4 28.4,82.4 		"/>
		<polygon id="XMLID_35248_" class="st10" points="11.6,48 4.2,52.3 28.4,66.2 35.8,61.9 		"/>
		<polyline id="XMLID_42098_" class="st3" points="4.2,52.3 28.4,66.2 35.8,61.9 		"/>
		<polygon id="XMLID_35247_" class="st6" points="35.8,78.1 35.8,61.9 28.4,66.2 28.4,82.4 		"/>
		<polygon id="XMLID_42090_" class="st4" points="35.8,78.1 35.8,61.9 28.4,66.2 28.4,82.4 		"/>
	</g>
</g>
</svg>
