<?xml version="1.0" encoding="utf-8"?>
<!-- Generator: Adobe Illustrator 21.0.0, SVG Export Plug-In . SVG Version: 6.00 Build 0)  -->
<svg version="1.1" id="Layer_1" xmlns="http://www.w3.org/2000/svg" xmlns:xlink="http://www.w3.org/1999/xlink" x="0px" y="0px"
	 viewBox="0 0 100 100" style="enable-background:new 0 0 100 100;" xml:space="preserve">
<style type="text/css">
	.st0{fill:#301F12;}
	.st1{fill:#563E2E;}
	.st2{fill:#008895;}
	.st3{fill:#01B4B3;}
	.st4{opacity:0.2;fill:#056378;enable-background:new    ;}
	.st5{opacity:0.2;}
	.st6{fill:#056378;}
	.st7{fill:#029A9A;}
	.st8{fill:#CAE9F0;}
	.st9{fill:#96B9BE;}
	.st10{fill:#49C1C2;}
	.st11{fill:#12A1A4;}
</style>
<g id="XMLID_35245_">
	<g id="XMLID_35278_">
		<polygon id="XMLID_35280_" class="st0" points="8.1,47.8 4.2,45.6 4.2,47.7 8.1,50 		"/>
		<polygon id="XMLID_35279_" class="st1" points="8.1,50 12,47.8 12,45.6 8.1,47.8 		"/>
	</g>
	<g id="XMLID_35275_">
		<polygon id="XMLID_35277_" class="st0" points="91.9,72.8 88,70.6 88,72.7 91.9,75 		"/>
		<polygon id="XMLID_35276_" class="st1" points="91.9,75 95.8,72.7 95.8,70.6 91.9,72.8 		"/>
	</g>
	<g id="XMLID_35272_">
		<polygon id="XMLID_35274_" class="st0" points="71.6,84.5 67.7,82.3 67.7,84.4 71.6,86.7 		"/>
		<polygon id="XMLID_35273_" class="st1" points="71.6,86.7 75.5,84.4 75.5,82.3 71.6,84.5 		"/>
	</g>
	<g id="XMLID_35246_">
		<g id="XMLID_35253_">
			<polygon id="XMLID_35271_" class="st2" points="11.6,31.6 11.6,41.4 35.8,27.4 35.8,17.6 			"/>
			<g id="XMLID_35269_">
				<polygon id="XMLID_35270_" class="st3" points="69.1,64 88.7,52.7 36.1,22.4 17,33.4 				"/>
			</g>
			<polygon class="st4" points="35.8,22.6 17,33.4 35.8,44.5 			"/>
			<g id="XMLID_42095_" class="st5">
				<polyline id="XMLID_42097_" class="st6" points="17,33.4 69.1,64 88.7,52.7 				"/>
			</g>
			<g id="XMLID_35267_">
				<polygon id="XMLID_35268_" class="st7" points="43.3,49.1 62.9,37.8 62.4,37.6 42.8,48.9 				"/>
			</g>
			<g id="XMLID_35264_">
				<path id="XMLID_35266_" class="st8" d="M76.4,57.9c-0.6-3.6-1.2-9.2-1.2-9.2c-0.1-0.5-0.6-0.5-0.7-0.4c0,0-1.4,1.9-1.2,3.8
					c0.2,1.8,0.9,3.5,1.2,5.1c0.8,4.7,2.4,8.6,3,8.1C77.7,65.1,77.1,61.3,76.4,57.9z"/>
				<path id="XMLID_35265_" class="st9" d="M61.6,60.1c-0.2-3.1-0.6-4.9-1-5.8c-0.1-0.3-0.3-1.2,0.1-1.6c0.7-0.7,1.7-1.2,3.1-1.4
					c0.6-0.1,2.9-0.2,4.2-0.6c2.1-0.6,5.1-1.9,6.4-2.7c0.2-0.1,0.5,0,0.5,0.3c-0.1,0.8-0.4,1.7-0.3,3.4c0.1,1.2,0,4,0.2,5.4
					c0.7,3.9,2.7,6.5,2.7,8.1c0,0.3-0.3,0.5-0.6,0.5c-1.3,0-4.4,0.3-7.3,0.3c-1.8,0-6.2,0.8-7.5,1.1c-0.3,0.1-0.6-0.2-0.6-0.5
					C61.4,65.5,61.8,63.2,61.6,60.1z"/>
			</g>
			<polygon id="XMLID_35263_" class="st10" points="4.2,27.3 11.6,31.6 35.8,17.6 28.4,13.3 			"/>
			<polyline id="XMLID_42099_" class="st3" points="4.2,27.3 11.6,31.6 35.8,17.6 			"/>
			<polygon id="XMLID_35262_" class="st6" points="11.6,47.7 11.6,31.6 4.2,27.3 4.2,43.4 			"/>
			<g id="XMLID_35258_">
				<polygon id="XMLID_35261_" class="st10" points="64.2,54.6 68.4,52.2 15.8,21.8 11.6,24.2 				"/>
				<polyline id="XMLID_42100_" class="st3" points="11.6,24.2 64.2,54.6 68.4,52.2 				"/>
				<polygon id="XMLID_35260_" class="st2" points="64.2,54.6 68.4,52.2 70,64.1 64.2,67.4 				"/>
				<polygon id="XMLID_35259_" class="st6" points="11.6,47.7 64.2,78.1 64.2,54.6 11.6,24.2 				"/>
				<polyline id="XMLID_42094_" class="st4" points="64.2,78.1 64.2,54.6 11.6,24.2 				"/>
			</g>
			<g id="XMLID_35256_">
				<polygon id="XMLID_35257_" class="st0" points="4.2,45.6 71.6,84.5 71.6,82.4 4.2,43.4 				"/>
			</g>
			<g id="XMLID_35254_">
				<polygon id="XMLID_35255_" class="st1" points="95.8,70.6 71.6,84.5 71.6,82.4 95.8,68.4 				"/>
			</g>
		</g>
		<g id="XMLID_35250_">
			<g id="XMLID_35251_">
				<polygon id="XMLID_35252_" class="st11" points="69.1,64 85.9,54.3 85.9,59.2 69.1,68.9 				"/>
			</g>
		</g>
		<polygon id="XMLID_35249_" class="st2" points="71.6,82.4 95.8,68.4 95.8,52.3 71.6,66.2 		"/>
		<polygon id="XMLID_35248_" class="st10" points="64.2,61.9 71.6,66.2 95.8,52.3 88.4,48 		"/>
		<polyline id="XMLID_42098_" class="st3" points="64.2,61.9 71.6,66.2 95.8,52.3 		"/>
		<polygon id="XMLID_35247_" class="st6" points="71.6,82.4 71.6,66.2 64.2,61.9 64.2,78.1 		"/>
		<polygon id="XMLID_42090_" class="st4" points="71.6,82.4 71.6,66.2 64.2,61.9 64.2,78.1 		"/>
	</g>
</g>
</svg>
