<?xml version="1.0" encoding="utf-8"?>
<!-- Generator: Adobe Illustrator 20.1.0, SVG Export Plug-In . SVG Version: 6.00 Build 0)  -->
<svg version="1.1" id="Layer_1" xmlns="http://www.w3.org/2000/svg" xmlns:xlink="http://www.w3.org/1999/xlink" x="0px" y="0px"
	 viewBox="0 0 100 100" style="enable-background:new 0 0 100 100;" xml:space="preserve">
<style type="text/css">
	.st0{fill:#301F12;}
	.st1{fill:#563E2E;}
	.st2{fill:#008895;}
	.st3{fill:#49C1C2;}
	.st4{fill:#01B4B3;}
	.st5{fill:#056378;}
	.st6{opacity:0.2;}
	.st7{opacity:0.2;fill:#056378;enable-background:new    ;}
	.st8{fill:#029A9A;}
	.st9{fill:#008E88;}
	.st10{fill:#12A1A4;}
	.st11{fill:#B8E3EC;}
	.st12{fill:#CAE9F0;}
</style>
<g id="XMLID_38747_">
	<g id="XMLID_38798_">
		<polygon id="XMLID_38800_" class="st0" points="8.1,49.6 4.2,47.4 4.2,49.6 8.1,51.8 		"/>
		<polygon id="XMLID_38799_" class="st1" points="8.1,51.8 12,49.6 12,47.4 8.1,49.6 		"/>
	</g>
	<g id="XMLID_38795_">
		<polygon id="XMLID_38797_" class="st0" points="91.9,74.6 88,72.4 88,74.5 91.9,76.8 		"/>
		<polygon id="XMLID_38796_" class="st1" points="91.9,76.8 95.8,74.5 95.8,72.4 91.9,74.6 		"/>
	</g>
	<g id="XMLID_38792_">
		<polygon id="XMLID_38794_" class="st0" points="71.6,86.3 67.7,84.1 67.7,86.2 71.6,88.5 		"/>
		<polygon id="XMLID_38793_" class="st1" points="71.6,88.5 75.5,86.2 75.5,84.1 71.6,86.3 		"/>
	</g>
	<g id="XMLID_38748_">
		<g id="XMLID_38782_">
			<polygon id="XMLID_38791_" class="st2" points="11.6,33.4 11.6,43.2 30,32.6 30,22.7 			"/>
			<polygon id="XMLID_38790_" class="st3" points="4.2,29.1 11.6,33.4 35.8,19.4 28.4,15.1 			"/>
			<polyline id="XMLID_42121_" class="st4" points="11.6,33.4 35.8,19.4 28.4,15.1 			"/>
			<polygon id="XMLID_38789_" class="st5" points="11.6,49.5 11.6,33.4 4.2,29.1 4.2,45.2 			"/>
			<g id="XMLID_38787_">
				<polygon id="XMLID_38788_" class="st5" points="11.6,49.5 64.2,79.9 64.2,74.1 11.6,43.7 				"/>
			</g>
			<g id="XMLID_42118_" class="st6">
				<polyline id="XMLID_42120_" class="st5" points="64.2,79.9 64.2,74.1 11.6,43.7 				"/>
			</g>
			<g id="XMLID_38785_">
				<polygon id="XMLID_38786_" class="st0" points="4.2,47.4 71.6,86.3 71.6,84.2 4.2,45.2 				"/>
			</g>
			<g id="XMLID_38783_">
				<polygon id="XMLID_38784_" class="st1" points="95.8,72.4 71.6,86.3 71.6,84.2 95.8,70.2 				"/>
			</g>
		</g>
		<polygon id="XMLID_38781_" class="st3" points="84.2,44.3 88.4,41.9 35.8,11.5 31.6,13.9 		"/>
		<polyline id="XMLID_42116_" class="st4" points="31.6,13.9 84.2,44.3 88.4,41.9 		"/>
		<polygon id="XMLID_38780_" class="st2" points="84.2,44.3 88.4,41.9 88.4,54.8 82.6,58.1 		"/>
		<polygon id="XMLID_38779_" class="st5" points="30,27.7 82.6,58.1 84.2,44.3 31.6,13.9 		"/>
		<polyline id="XMLID_42115_" class="st7" points="31.6,13.9 30,27.7 82.6,58.1 		"/>
		<g id="XMLID_38771_">
			<g id="XMLID_38777_">
				<polygon id="XMLID_38778_" class="st4" points="37.2,53.9 56.3,42.9 30,27.7 10.9,38.8 				"/>
			</g>
			<polygon class="st7" points="18.8,34.2 18.1,34.6 18.1,42.9 34.1,52.1 34.1,34.2 			"/>
			<g id="XMLID_38772_">
				<g id="XMLID_38775_">
					<polygon id="XMLID_38776_" class="st8" points="37.2,53.9 37.2,58.8 10.9,43.6 10.9,38.8 					"/>
				</g>
				<g id="XMLID_38773_">
					<polygon id="XMLID_38774_" class="st9" points="37.2,59.3 37.2,58.8 10.9,43.6 10.9,44.1 					"/>
				</g>
			</g>
		</g>
		<g id="XMLID_38755_">
			<g id="XMLID_38769_">
				<polygon id="XMLID_38770_" class="st4" points="63.5,69.1 82.6,58.1 56.3,42.9 37.2,53.9 				"/>
			</g>
			<polygon class="st7" points="64.2,68.7 82.6,58.1 64.2,47.5 			"/>
			<g id="XMLID_38767_">
				<polygon id="XMLID_38768_" class="st8" points="37.6,54.2 56.7,43.2 56.3,42.9 37.2,53.9 				"/>
			</g>
			<g id="XMLID_38763_">
				<polygon id="XMLID_38766_" class="st10" points="63.5,69.1 80.3,59.4 80.3,64.3 63.5,74 				"/>
				<g id="XMLID_38764_">
					<polygon id="XMLID_38765_" class="st9" points="63.5,74.5 63.5,74 80.3,64.3 80.3,64.8 					"/>
				</g>
			</g>
			<g id="XMLID_38756_">
				<g id="XMLID_38761_">
					<polygon id="XMLID_38762_" class="st8" points="63.5,69.1 63.5,74 37.2,58.8 37.2,53.9 					"/>
				</g>
				<g id="XMLID_38759_">
					<polygon id="XMLID_38760_" class="st9" points="37.2,58.8 37.6,59 37.6,54.2 37.2,53.9 					"/>
				</g>
				<g id="XMLID_38757_">
					<polygon id="XMLID_38758_" class="st9" points="63.5,74.5 63.5,74 37.2,58.8 37.2,59.3 					"/>
				</g>
			</g>
		</g>
		<g id="XMLID_38752_">
			<path id="XMLID_38754_" class="st11" d="M19.2,26.8c0.6-3.6,1.2-9.2,1.2-9.2c0.1-0.5,0.6-0.5,0.7-0.4c0,0,1.4,1.9,1.2,3.8
				c-0.2,1.8-0.9,3.5-1.2,5.1c-0.8,4.7-2.4,8.6-3,8.1C17.9,34,18.5,30.2,19.2,26.8z"/>
			<path id="XMLID_38753_" class="st12" d="M34,29c0.2-3.1,0.6-4.9,1-5.8c0.1-0.3,0.3-1.2-0.1-1.6c-0.7-0.7-1.7-1.2-3.1-1.4
				c-0.6-0.1-2.9-0.2-4.2-0.6c-2.1-0.6-5.1-1.9-6.4-2.7c-0.2-0.1-0.5,0-0.5,0.3c0.1,0.8,0.4,1.7,0.3,3.4c-0.1,1.2,0,4-0.2,5.4
				c-0.7,3.9-2.7,6.5-2.7,8.1c0,0.3,0.3,0.5,0.6,0.5c1.3,0,4.4,0.3,7.3,0.3c1.8,0,6.2,0.8,7.5,1.1c0.3,0.1,0.6-0.2,0.6-0.5
				C34.1,34.4,33.8,32.1,34,29z"/>
		</g>
		<polygon id="XMLID_38751_" class="st2" points="71.6,84.2 95.8,70.2 95.8,54.1 71.6,68 		"/>
		<polygon id="XMLID_38750_" class="st3" points="64.2,63.7 71.6,68 95.8,54.1 88.4,49.8 		"/>
		<polyline id="XMLID_42117_" class="st4" points="88.4,49.8 64.2,63.7 71.6,68 		"/>
		<polygon id="XMLID_38749_" class="st5" points="71.6,84.2 71.6,68 64.2,63.7 64.2,79.9 		"/>
		<polygon id="XMLID_42111_" class="st7" points="71.6,84.2 71.6,68 64.2,63.7 64.2,79.9 		"/>
	</g>
</g>
</svg>
