<?xml version="1.0" encoding="utf-8"?>
<!-- Generator: Adobe Illustrator 21.0.0, SVG Export Plug-In . SVG Version: 6.00 Build 0)  -->
<svg version="1.1" id="Layer_1" xmlns="http://www.w3.org/2000/svg" xmlns:xlink="http://www.w3.org/1999/xlink" x="0px" y="0px"
	 viewBox="0 0 80 80" style="enable-background:new 0 0 80 80;" xml:space="preserve">
<style type="text/css">
	.st0{fill:#E8E7E7;}
	.st1{fill:#FFFFFF;}
	.st2{fill:#D1D2D8;}
	.st3{opacity:0.2;fill:#D1D2D8;enable-background:new    ;}
	.st4{fill:#C5C6C7;}
	.st5{fill:#AEAEAE;}
	.st6{fill:#B0B3B5;}
	.st7{fill:#DDDFDE;}
	.st8{fill:#DBDBD9;}
	.st9{fill:#E4E4E3;}
	.st10{fill:#EFEFEF;}
	.st11{fill:#ECECEE;}
	.st12{fill:#F7F8F9;}
	.st13{fill:#41B349;}
	.st14{fill:#80C576;}
	.st15{fill:#C23728;}
	.st16{fill:#CD483C;}
	.st17{fill:#C06B2A;}
	.st18{fill:#CE7C43;}
	.st19{fill:#7C8187;}
	.st20{opacity:0.3;fill:#7C8187;enable-background:new    ;}
	.st21{fill:#C2C2C2;}
	.st22{fill:#777576;}
	.st23{fill:#A4A3A3;}
	.st24{fill:#636467;}
	.st25{fill:#595A5B;}
	.st26{fill:#9A735A;}
	.st27{fill:#59595C;}
	.st28{fill:#C29C77;}
	.st29{opacity:0.2;fill:#C29C77;enable-background:new    ;}
	.st30{fill:#AEABA8;}
	.st31{fill:#888582;}
	.st32{opacity:0.2;fill:#888582;enable-background:new    ;}
	.st33{fill:#5C5653;}
	.st34{fill:#E7E6E7;}
	.st35{fill:#D0D1D1;}
	.st36{fill:#DCDCDB;}
	.st37{fill:#C6C4C3;}
	.st38{fill:#74BF45;}
	.st39{fill:#50A647;}
	.st40{fill:#429A45;}
	.st41{fill:#2D2D2D;}
	.st42{fill:#A19F9F;}
	.st43{fill:#474948;}
	.st44{opacity:0.3;fill:#515352;enable-background:new    ;}
	.st45{fill:#575858;}
	.st46{opacity:0.2;fill:#515352;enable-background:new    ;}
	.st47{fill:#515352;}
	.st48{fill:#3A3B3A;}
	.st49{fill:#72B1CB;}
	.st50{fill:#5F8FA9;}
	.st51{fill:#5988A6;}
	.st52{fill:#3C6984;}
	.st53{fill:#DFDFDF;}
	.st54{fill:#D7D7D6;}
	.st55{opacity:0.8;fill:#DFDFDF;enable-background:new    ;}
	.st56{fill:#EEBE69;}
	.st57{fill:#FFCD80;}
	.st58{fill:#AEADAD;}
	.st59{fill:#D2D2D2;}
	.st60{opacity:0.5;fill:#BBBBBB;enable-background:new    ;}
	.st61{fill:#BBBBBB;}
	.st62{opacity:0.2;fill:#444445;enable-background:new    ;}
	.st63{fill:#ECEAEA;}
	.st64{opacity:0.3;fill:#444445;enable-background:new    ;}
	.st65{fill:#525354;}
	.st66{fill:#6D6F6E;}
	.st67{fill:#3F3F3F;}
	.st68{fill:#5E5E5E;}
</style>
<g id="XMLID_122_">
	<g id="XMLID_124_">
		<polygon id="XMLID_126_" class="st0" points="77.4,19.2 77.4,52.4 76.6,52.9 76.6,19.8 		"/>
		<polygon id="XMLID_125_" class="st1" points="49.5,3.1 48.6,3.7 76.6,19.8 77.4,19.2 		"/>
	</g>
	<polygon id="XMLID_123_" class="st2" points="48.6,3.7 48.6,36.8 76.6,52.9 76.6,19.8 	"/>
	<polyline id="XMLID_16543_" class="st3" points="48.6,3.7 48.6,36.8 76.6,52.9 	"/>
</g>
<g id="XMLID_82_">
	<polygon id="XMLID_121_" class="st4" points="24.7,46.7 24.7,64.6 40.5,73.8 40.5,55.8 	"/>
	<polygon id="XMLID_120_" class="st5" points="23,62.1 14.6,67 32.6,77.5 41.1,72.5 	"/>
	<polygon id="XMLID_119_" class="st6" points="41.1,55.5 41.1,73.5 40.5,73.8 40.5,55.8 	"/>
	<polygon id="XMLID_118_" class="st4" points="24.7,45.7 24.7,63.8 40.5,72.8 40.5,54.9 	"/>
	<g id="XMLID_83_">
		<g id="XMLID_102_">
			<polygon id="XMLID_117_" class="st7" points="39.4,58.2 39.4,72.7 33.8,75.9 33.8,61.5 			"/>
			<polygon id="XMLID_116_" class="st0" points="39.4,58.2 39.4,60.6 33.8,63.8 33.8,61.5 			"/>
			<polygon id="XMLID_115_" class="st0" points="39.4,60.7 39.4,64.3 33.8,67.6 33.8,63.9 			"/>
			<polygon id="XMLID_114_" class="st0" points="39.4,64.5 39.4,71.4 33.8,74.6 33.8,67.7 			"/>
			<polygon id="XMLID_113_" class="st0" points="39.4,71.5 39.4,72.7 33.8,75.9 33.8,74.8 			"/>
			<g id="XMLID_105_">
				<polygon id="XMLID_112_" class="st8" points="38.1,63.5 38.1,64.2 35.3,65.9 35.3,65.2 				"/>
				<polygon id="XMLID_111_" class="st9" points="37.9,64 37.9,64.1 35.5,65.5 35.5,65.3 				"/>
				<g id="XMLID_106_">
					<polygon id="XMLID_110_" class="st8" points="38.7,61.7 38.7,62.8 34.4,65.3 34.4,64.3 					"/>
					<polygon id="XMLID_109_" class="st9" points="38.6,62.2 38.6,62.4 34.7,64.7 34.7,64.4 					"/>
					<g id="XMLID_107_">
						<path id="XMLID_108_" class="st9" d="M38.6,62.7L38.6,62.7L38.6,62.7h-0.2l0,0v0.1l0,0L38.6,62.7
							C38.5,62.7,38.6,62.7,38.6,62.7z"/>
					</g>
				</g>
			</g>
			<polygon id="XMLID_104_" class="st10" points="25.5,50.3 19.9,53.5 33.8,61.5 39.4,58.2 			"/>
			<polygon id="XMLID_103_" class="st11" points="19.9,53.5 19.9,67.9 33.8,75.9 33.8,61.5 			"/>
		</g>
		<g id="XMLID_99_">
			<path id="XMLID_101_" class="st12" d="M36.9,68L36.9,68c0.4,0,0.5,0.4,0.2,0.8l0,0c-0.2,0.2-0.3,0.3-0.5,0.3l0,0
				c-0.4,0-0.5-0.4-0.2-0.8l0,0C36.6,68.2,36.8,68.1,36.9,68z"/>
			<path id="XMLID_100_" class="st0" d="M36.9,68.2L36.9,68.2c0.3,0,0.4,0.3,0.2,0.6l0,0C37,68.9,36.8,69,36.7,69l0,0
				c-0.3,0-0.4-0.3-0.2-0.6l0,0C36.6,68.2,36.8,68.2,36.9,68.2z"/>
		</g>
		<g id="XMLID_96_">
			<path id="XMLID_98_" class="st12" d="M36.8,69.5L36.8,69.5c0.2,0,0.3,0.2,0.2,0.5l0,0c-0.1,0.1-0.2,0.2-0.3,0.2l0,0
				c-0.2,0-0.3-0.2-0.2-0.5l0,0C36.7,69.6,36.8,69.5,36.8,69.5z"/>
			<path id="XMLID_97_" class="st0" d="M36.8,69.6L36.8,69.6c0.2,0,0.2,0.2,0.1,0.3l0,0C36.8,70,36.8,70,36.8,70l0,0
				C36.6,70,36.6,69.8,36.8,69.6L36.8,69.6C36.7,69.6,36.8,69.6,36.8,69.6z"/>
		</g>
		<g id="XMLID_85_">
			<g id="XMLID_93_">
				<path id="XMLID_95_" class="st13" d="M36.9,70.3L36.9,70.3c0.1,0,0.1,0.1,0.1,0.2l0,0c0,0.1-0.1,0.1-0.1,0.1l0,0
					C36.8,70.6,36.8,70.5,36.9,70.3L36.9,70.3C36.8,70.4,36.8,70.3,36.9,70.3z"/>
				<path id="XMLID_94_" class="st14" d="M36.9,70.4L36.9,70.4c0.1,0-0.1,0.2-0.1,0.2C36.8,70.6,36.8,70.5,36.9,70.4L36.9,70.4
					C36.8,70.4,36.8,70.4,36.9,70.4z"/>
			</g>
			<g id="XMLID_90_">
				<path id="XMLID_92_" class="st15" d="M37.2,70.2L37.2,70.2c0.1,0,0.1,0.1,0.1,0.2l0,0c0,0.1-0.1,0.1-0.1,0.1l0,0
					C37.2,70.4,37.2,70.3,37.2,70.2L37.2,70.2L37.2,70.2z"/>
				<path id="XMLID_91_" class="st16" d="M37.2,70.2L37.2,70.2c0.1,0-0.1,0.2-0.1,0.2C37.2,70.3,37.2,70.3,37.2,70.2L37.2,70.2
					C37.2,70.3,37.2,70.2,37.2,70.2z"/>
			</g>
			<g id="XMLID_87_">
				<path id="XMLID_89_" class="st17" d="M36.6,70.6L36.6,70.6c0.1,0,0.1,0.1,0.1,0.2l0,0c0,0.1-0.1,0.1-0.1,0.1l0,0
					C36.5,70.8,36.5,70.7,36.6,70.6L36.6,70.6C36.5,70.6,36.5,70.6,36.6,70.6z"/>
				<path id="XMLID_88_" class="st18" d="M36.6,70.6L36.6,70.6c0.1,0-0.1,0.2-0.1,0.2C36.5,70.7,36.5,70.7,36.6,70.6L36.6,70.6
					C36.5,70.6,36.5,70.6,36.6,70.6z"/>
			</g>
		</g>
	</g>
</g>
<g id="XMLID_28_">
	<g id="XMLID_31_">
		<g id="XMLID_32_">
			<g id="XMLID_38_">
				<g id="XMLID_39_">
					<polygon id="XMLID_81_" class="st19" points="45.6,32 63.7,42.4 63.7,60.4 45.6,50 					"/>
					<polygon id="XMLID_16542_" class="st20" points="45.6,32 63.7,42.4 54.8,55.3 45.6,50 					"/>
					<polygon id="XMLID_80_" class="st21" points="76.5,34.3 32.6,59.6 32.6,78.3 33.2,78 33.2,60 63.7,42.4 63.7,60.4 76.5,53.1 
											"/>
					<polyline id="XMLID_16549_" class="st6" points="76.5,34.3 32.6,59.6 32.6,78.3 33.2,78 33.2,60 63.7,42.4 63.7,60.4 					"/>
					<g id="XMLID_65_">
						<g id="XMLID_70_">
							<polygon id="XMLID_78_" class="st22" points="75.2,35.7 65,41.7 65,47 75.2,41 							"/>
							<polygon id="XMLID_75_" class="st23" points="75.1,40.9 75.1,36.3 74.8,36.2 65,41.9 65,46.5 65.1,46.6 							"/>
							<polygon id="XMLID_74_" class="st6" points="75.1,36.3 65.1,42 65.1,46.6 75.1,40.9 							"/>
							<polyline id="XMLID_16546_" class="st3" points="75.1,36.3 65.1,42 65.1,46.6 							"/>
							<polygon id="XMLID_73_" class="st23" points="65.5,42.2 65.1,42 65.1,42.2 65.5,42.4 							"/>
							<polygon id="XMLID_72_" class="st23" points="65.7,42.3 65.5,42.2 65.5,42.5 65.7,42.7 							"/>
							<polygon id="XMLID_71_" class="st24" points="74.8,36.2 65,41.9 65.1,42 75.1,36.3 							"/>
						</g>
						<polygon id="XMLID_69_" class="st24" points="75.1,36.3 65.1,42 65.3,42.1 75.2,36.4 						"/>
						<polygon id="XMLID_68_" class="st24" points="75.2,36.4 65.3,42.1 65.5,42.2 75.4,36.5 						"/>
						<polygon id="XMLID_67_" class="st24" points="75.4,36.5 65.5,42.2 65.7,42.3 75.6,36.6 						"/>
						<polygon id="XMLID_66_" class="st25" points="75.6,36.9 65.7,42.7 65.7,42.3 75.6,36.6 						"/>
					</g>
					<g id="XMLID_53_">
						<g id="XMLID_58_">
							<polygon id="XMLID_64_" class="st22" points="75.2,41.5 65,47.4 65,52.8 75.2,46.8 							"/>
							<polygon id="XMLID_63_" class="st23" points="75.1,46.7 75.1,42 74.8,42 65,47.7 65,52.3 65.1,52.4 							"/>
							<polygon id="XMLID_62_" class="st6" points="75.1,42 65.1,47.8 65.1,52.4 75.1,46.7 							"/>
							<polyline id="XMLID_16547_" class="st3" points="75.1,42 65.1,47.8 65.1,52.4 							"/>
							<polygon id="XMLID_61_" class="st23" points="65.5,48 65.1,47.8 65.1,48 65.5,48.2 							"/>
							<polygon id="XMLID_60_" class="st23" points="65.7,48.1 65.5,48 65.5,48.3 65.7,48.4 							"/>
							<polygon id="XMLID_59_" class="st24" points="74.8,42 65,47.7 65.1,47.8 75.1,42 							"/>
						</g>
						<polygon id="XMLID_57_" class="st24" points="75.1,42 65.1,47.8 65.3,47.9 75.2,42.1 						"/>
						<polygon id="XMLID_56_" class="st24" points="75.2,42.1 65.3,47.9 65.5,48 75.4,42.3 						"/>
						<polygon id="XMLID_55_" class="st24" points="75.4,42.3 65.5,48 65.7,48.1 75.6,42.4 						"/>
						<polygon id="XMLID_54_" class="st25" points="75.6,42.7 65.7,48.4 65.7,48.1 75.6,42.4 						"/>
					</g>
					<g id="XMLID_41_">
						<g id="XMLID_46_">
							<polygon id="XMLID_52_" class="st22" points="75.2,47.3 65,53.2 65,58.5 75.2,52.6 							"/>
							<polygon id="XMLID_51_" class="st23" points="75.1,52.4 75.1,47.8 74.8,47.8 65,53.5 65,58.1 65.1,58.1 							"/>
							<polygon id="XMLID_50_" class="st6" points="75.1,47.8 65.1,53.5 65.1,58.1 75.1,52.4 							"/>
							<polyline id="XMLID_16548_" class="st3" points="75.1,47.8 65.1,53.5 65.1,58.1 							"/>
							<polygon id="XMLID_49_" class="st23" points="65.5,53.8 65.1,53.5 65.1,53.8 65.5,54 							"/>
							<polygon id="XMLID_48_" class="st23" points="65.7,53.9 65.5,53.8 65.5,54.1 65.7,54.2 							"/>
							<polygon id="XMLID_47_" class="st24" points="74.8,47.8 65,53.5 65.1,53.5 75.1,47.8 							"/>
						</g>
						<polygon id="XMLID_45_" class="st24" points="75.1,47.8 65.1,53.5 65.3,53.6 75.2,47.9 						"/>
						<polygon id="XMLID_44_" class="st24" points="75.2,47.9 65.3,53.6 65.5,53.8 75.4,48 						"/>
						<polygon id="XMLID_43_" class="st24" points="75.4,48 65.5,53.8 65.7,53.9 75.6,48.1 						"/>
						<polygon id="XMLID_42_" class="st25" points="75.6,48.5 65.7,54.2 65.7,53.9 75.6,48.1 						"/>
					</g>
					<polygon id="XMLID_40_" class="st4" points="32.6,59.6 14.6,49.2 14.6,67.9 15.1,68.2 32.1,78 32.6,78.3 					"/>
				</g>
			</g>
			<g id="XMLID_33_">
				<g id="XMLID_34_">
					<polygon id="XMLID_37_" class="st26" points="32.6,58.5 32.6,59.6 76.5,34.3 76.5,33.1 					"/>
					<polygon id="XMLID_36_" class="st27" points="14.6,48.1 32.6,58.5 32.6,59.6 14.6,49.2 					"/>
					<polygon id="XMLID_35_" class="st28" points="58.6,22.7 14.7,48.1 32.8,58.5 76.6,33.1 					"/>
					<polygon class="st29" points="65.1,39.8 76.6,33.1 70,29.3 65.1,29.3 					"/>
					<polyline id="XMLID_16550_" class="st29" points="58.4,22.7 14.6,48.1 32.6,58.5 					"/>
					<polygon class="st29" points="55.4,24.5 54.9,24.8 54.9,45.6 61.9,41.6 61.9,24.7 61.4,24.5 					"/>
					<polygon class="st29" points="41,53.6 41,38.1 32.2,38.9 32.2,55 38.5,55 					"/>
				</g>
			</g>
		</g>
	</g>
	<g id="XMLID_29_">
		<polygon id="XMLID_30_" class="st6" points="41.1,72.5 32.6,77.5 32.6,78.3 41.1,73.5 		"/>
	</g>
</g>
<g>
	<g id="XMLID_16993_">
		<g id="XMLID_16994_">
			<path id="XMLID_17002_" class="st30" d="M32.5,46.2L27,43c-0.2-0.1-0.2-0.1-0.4,0l-4,2.3l0,0c-0.5,0.2-0.6,0.7-0.5,0.9
				c0,0,5.8,3.4,5.9,3.4c0.2,0.1,0.4-0.1,0.4-0.1l0.1-0.2l4-2.3C32.5,46.9,32.5,46.2,32.5,46.2z"/>
			<path class="st31" d="M26.5,43l-4,2.3l0,0c-0.1,0.1-0.2,0.2-0.3,0.2c1,0.5,5.6,3.3,5.7,3.3c0.2,0.1,0.4-0.1,0.4-0.1l0.1-0.2
				l4-2.3v-0.1l-5.5-3.2C26.8,42.9,26.7,42.9,26.5,43z"/>
			<path class="st32" d="M22.5,45.3"/>
			<path class="st32" d="M28,48.8c0.2,0.1,0.4-0.1,0.4-0.1l0.1-0.2l4-2.3v-0.1L27,43c-0.2-0.1-0.2-0.1-0.4,0"/>
			<g id="XMLID_17000_">
				<path id="XMLID_17001_" class="st30" d="M32.3,46.8c0.1-0.1,0.1-0.2,0.1-0.2c0-0.1,0-0.3-0.1-0.2s-3.1,1.8-3.8,2.2
					c-0.7,0.4-0.7,1.3,0,0.8c0.7-0.4,3.8-2.2,3.8-2.2c0.1-0.1,0.1-0.1,0.1-0.2C32.4,47.1,32.4,46.7,32.3,46.8L32.3,46.8z"/>
			</g>
			<g id="XMLID_16998_">
				<path id="XMLID_16999_" class="st33" d="M32.3,46.2c-0.1,0.1-3.5,2-4.2,2.3c-0.5,0.3-0.3,1.4,0.4,0.9c0.7-0.4,3.8-2.2,3.9-2.3
					s0.2-0.2,0.2-0.2c0-0.1,0.1-0.2-0.1-0.4c0,0,0.1-0.1,0.1-0.2C32.5,46.2,32.4,46.1,32.3,46.2z"/>
			</g>
			<g id="XMLID_16996_">
				<path id="XMLID_16997_" class="st34" d="M32.3,46.7c0.1-0.1,0.1-0.2,0.1-0.2c0-0.1,0-0.2-0.1-0.2c-0.1,0.1-3.3,1.9-4,2.3
					c-0.5,0.2-0.2,0.9,0.2,0.6c0.7-0.4,3.7-2.1,3.8-2.2C32.4,46.9,32.4,46.9,32.3,46.7C32.4,46.8,32.4,46.7,32.3,46.7L32.3,46.7z"/>
			</g>
			<path id="XMLID_16995_" class="st33" d="M32.3,46.7c0,0-2.9,1.6-3.7,2c-0.1,0.1-0.2,0.1-0.2,0.1c-0.1,0.1,0.1,0.1,0.1,0.2
				c0,0.1-0.1,0.2,0.1,0.2c0,0,0.1-0.2,0.2-0.2c0.6-0.4,2.7-1.6,3.6-2.1C32.3,46.8,32.3,46.7,32.3,46.7z"/>
		</g>
	</g>
	<g id="XMLID_17003_">
		<g id="XMLID_17004_">
			<path id="XMLID_17012_" class="st30" d="M32.5,45.2L27,42c-0.2-0.1-0.2-0.1-0.4,0l-4,2.3l0,0c-0.5,0.2-0.6,0.7-0.5,0.9
				c0,0,5.8,3.4,5.9,3.4c0.2,0.1,0.4-0.1,0.4-0.1l0.1-0.2l4-2.3C32.5,45.9,32.5,45.2,32.5,45.2z"/>
			<path class="st31" d="M26.5,42l-4,2.3l0,0c-0.1,0.1-0.2,0.2-0.3,0.2c1,0.5,5.6,3.3,5.7,3.3c0.2,0.1,0.4-0.1,0.4-0.1l0.1-0.2
				l4-2.3v-0.1L26.9,42C26.8,42,26.7,42,26.5,42z"/>
			<path class="st32" d="M22.5,44.3"/>
			<path class="st32" d="M28,47.8c0.2,0.1,0.4-0.1,0.4-0.1l0.1-0.2l4-2.3v-0.1L27,42c-0.2-0.1-0.2-0.1-0.4,0"/>
			<g id="XMLID_17010_">
				<path id="XMLID_17011_" class="st30" d="M32.3,45.9c0.1-0.1,0.1-0.2,0.1-0.2c0-0.1,0-0.3-0.1-0.2s-3.1,1.8-3.8,2.2
					c-0.7,0.4-0.7,1.3,0,0.8c0.7-0.4,3.8-2.2,3.8-2.2c0.1-0.1,0.1-0.1,0.1-0.2S32.4,45.8,32.3,45.9L32.3,45.9z"/>
			</g>
			<g id="XMLID_17008_">
				<path id="XMLID_17009_" class="st33" d="M32.3,45.2c-0.1,0.1-3.5,2-4.2,2.3c-0.5,0.3-0.3,1.4,0.4,0.9c0.7-0.4,3.8-2.2,3.9-2.3
					s0.2-0.2,0.2-0.2c0-0.1,0.1-0.2-0.1-0.4c0,0,0.1-0.1,0.1-0.2C32.5,45.2,32.4,45.2,32.3,45.2z"/>
			</g>
			<g id="XMLID_17006_">
				<path id="XMLID_17007_" class="st34" d="M32.3,45.6c0.1-0.1,0.1-0.2,0.1-0.2c0-0.1,0-0.2-0.1-0.2c-0.1,0.1-3.3,1.9-4,2.3
					c-0.5,0.2-0.2,0.9,0.2,0.6c0.7-0.4,3.7-2.1,3.8-2.2C32.4,45.8,32.4,45.8,32.3,45.6C32.4,45.8,32.4,45.6,32.3,45.6L32.3,45.6z"/>
			</g>
			<path id="XMLID_17005_" class="st33" d="M32.3,45.6c0,0-2.9,1.6-3.7,2c-0.1,0.1-0.2,0.1-0.2,0.1c-0.1,0.1,0.1,0.1,0.1,0.2
				c0,0.1-0.1,0.2,0.1,0.2c0,0,0.1-0.2,0.2-0.2c0.6-0.4,2.7-1.6,3.6-2.1C32.3,45.8,32.3,45.6,32.3,45.6z"/>
		</g>
	</g>
	<g id="XMLID_17013_">
		<g id="XMLID_17014_">
			<path id="XMLID_17022_" class="st30" d="M32.5,44.2L27,41c-0.2-0.1-0.2-0.1-0.4,0l-4,2.3l0,0c-0.5,0.2-0.6,0.7-0.5,0.9
				c0,0,5.8,3.4,5.9,3.4c0.2,0.1,0.4-0.1,0.4-0.1l0.1-0.2l4-2.3C32.5,44.9,32.5,44.2,32.5,44.2z"/>
			<path class="st31" d="M26.5,41l-4,2.3l0,0c-0.1,0.1-0.2,0.2-0.3,0.2c1,0.5,5.6,3.3,5.7,3.3c0.2,0.1,0.4-0.1,0.4-0.1l0.1-0.2
				l4-2.3l0,0L26.9,41C26.8,41,26.7,41,26.5,41z"/>
			<path class="st32" d="M22.5,43.4"/>
			<path class="st32" d="M28,46.9c0.2,0.1,0.4-0.1,0.4-0.1l0.1-0.2l4-2.3v-0.1L27,41c-0.2-0.1-0.2-0.1-0.4,0"/>
			<g id="XMLID_17020_">
				<path id="XMLID_17021_" class="st30" d="M32.3,44.9c0.1-0.1,0.1-0.2,0.1-0.2c0-0.1,0-0.3-0.1-0.2s-3.1,1.8-3.8,2.2
					c-0.7,0.4-0.7,1.3,0,0.8c0.7-0.4,3.8-2.2,3.8-2.2c0.1-0.1,0.1-0.1,0.1-0.2C32.4,45.1,32.4,44.8,32.3,44.9L32.3,44.9z"/>
			</g>
			<g id="XMLID_17018_">
				<path id="XMLID_17019_" class="st33" d="M32.3,44.2c-0.1,0.1-3.5,2-4.2,2.3c-0.5,0.3-0.3,1.4,0.4,0.9c0.7-0.4,3.8-2.2,3.9-2.3
					s0.2-0.2,0.2-0.2c0-0.1,0.1-0.2-0.1-0.4c0,0,0.1-0.1,0.1-0.2C32.5,44.2,32.4,44.2,32.3,44.2z"/>
			</g>
			<g id="XMLID_17016_">
				<path id="XMLID_17017_" class="st34" d="M32.3,44.7c0.1-0.1,0.1-0.2,0.1-0.2c0-0.1,0-0.2-0.1-0.2c-0.1,0.1-3.3,1.9-4,2.3
					c-0.5,0.2-0.2,0.9,0.2,0.6c0.7-0.4,3.7-2.1,3.8-2.2C32.4,44.9,32.4,44.9,32.3,44.7C32.4,44.9,32.4,44.7,32.3,44.7L32.3,44.7z"/>
			</g>
			<path id="XMLID_17015_" class="st33" d="M32.3,44.7c0,0-2.9,1.6-3.7,2c-0.1,0.1-0.2,0.1-0.2,0.1c-0.1,0.1,0.1,0.1,0.1,0.2
				c0,0.1-0.1,0.2,0.1,0.2c0,0,0.1-0.2,0.2-0.2c0.6-0.4,2.7-1.6,3.6-2.1C32.3,44.9,32.3,44.7,32.3,44.7z"/>
		</g>
	</g>
</g>
<g id="XMLID_16584_">
	<g id="XMLID_16585_">
		<path id="XMLID_16992_" class="st35" d="M56.9,30.7c0-0.1,0-0.2-0.1-0.2L52.3,28c-0.2-0.1-0.4-0.1-0.5,0l-11.2,6.5
			c-0.1,0-0.1,0.1-0.1,0.2c0,0.1,0,0.5,0,0.5c0,0.1,0,0.2,0.1,0.2l4.5,2.6c0.2,0.1,0.4,0.1,0.5,0l11.2-6.5c0.1-0.1,0.1-0.1,0.1-0.2
			S56.9,30.8,56.9,30.7z"/>
		<path class="st36" d="M56.8,30.6L52.3,28c-0.2-0.1-0.4-0.1-0.5,0l-6.5,3.8V38c0.1,0,0.2,0,0.2-0.1l11.2-6.5
			c0.1-0.1,0.1-0.1,0.1-0.2s0-0.5,0-0.5C56.9,30.6,56.9,30.6,56.8,30.6z"/>
		<path id="XMLID_16991_" class="st37" d="M56.8,30.6L52.3,28c-0.2-0.1-0.4-0.1-0.5,0l-11.2,6.5c-0.2,0.1-0.2,0.2,0,0.3l4.5,2.6
			c0.2,0.1,0.4,0.1,0.5,0l11.2-6.5C56.9,30.8,56.9,30.6,56.8,30.6z"/>
		<g id="XMLID_16586_">
			<g id="XMLID_16895_">
				<g id="XMLID_16964_">
					<g id="XMLID_16978_">
						<g id="XMLID_16985_">
							<g id="XMLID_16986_">
								<g id="XMLID_16987_">
									<g id="XMLID_16988_">
										<path id="XMLID_16990_" class="st36" d="M42.8,34.2L42.8,34.2L42.6,34c-0.1,0-0.2,0-0.2,0l-0.5,0.2c0,0,0,0,0,0.1v0.1v0.1
											l0.2,0.1c0.1,0,0.2,0,0.2,0l0.4-0.2C42.7,34.4,42.7,34.4,42.8,34.2L42.8,34.2z"/>
										<path id="XMLID_16989_" class="st35" d="M42.4,34L42,34.2c-0.1,0-0.1,0.1,0,0.2l0.2,0.1c0.1,0,0.2,0,0.2,0l0.4-0.2
											c0.1,0,0.1-0.1,0-0.2L42.6,34C42.5,33.9,42.5,33.9,42.4,34z"/>
									</g>
								</g>
							</g>
						</g>
						<g id="XMLID_16979_">
							<g id="XMLID_16980_">
								<g id="XMLID_16981_">
									<g id="XMLID_16982_">
										<path id="XMLID_16984_" class="st36" d="M43.5,33.8L43.5,33.8l-0.2-0.2c-0.1,0-0.2,0-0.2,0l-0.4,0.2c0,0,0,0,0,0.1V34v0.1
											l0.2,0.1c0.1,0,0.2,0,0.2,0l0.4-0.2V33.8L43.5,33.8z"/>
										<path id="XMLID_16983_" class="st35" d="M43.1,33.6l-0.4,0.2c-0.1,0-0.1,0.1,0,0.2l0.2,0.1c0.1,0,0.2,0,0.2,0l0.4-0.2
											c0.1,0,0.1-0.1,0-0.2l-0.2-0.1C43.3,33.5,43.2,33.5,43.1,33.6z"/>
									</g>
								</g>
							</g>
						</g>
					</g>
					<g id="XMLID_16965_">
						<g id="XMLID_16972_">
							<g id="XMLID_16973_">
								<g id="XMLID_16974_">
									<g id="XMLID_16975_">
										<path id="XMLID_16977_" class="st36" d="M44.2,33.4L44.2,33.4L44,33.2c-0.1,0-0.2,0-0.2,0l-0.4,0.2c0,0,0,0,0,0.1v0.1v0.1
											l0.2,0.1c0.1,0,0.2,0,0.2,0l0.4-0.2C44.1,33.5,44.1,33.5,44.2,33.4L44.2,33.4z"/>
										<path id="XMLID_16976_" class="st35" d="M43.8,33.1l-0.4,0.2c-0.1,0-0.1,0.1,0,0.2l0.2,0.1c0.1,0,0.2,0,0.2,0l0.4-0.2
											c0.1,0,0.1-0.1,0-0.2L44,33.1C44,33.1,43.9,33.1,43.8,33.1z"/>
									</g>
								</g>
							</g>
						</g>
						<g id="XMLID_16966_">
							<g id="XMLID_16967_">
								<g id="XMLID_16968_">
									<g id="XMLID_16969_">
										<path id="XMLID_16971_" class="st36" d="M45,33C45,33,44.9,32.9,45,33l-0.2-0.2c-0.1,0-0.2,0-0.2,0L44.2,33c0,0,0,0,0,0.1
											v0.1v0.1l0.2,0.1c0.1,0,0.2,0,0.2,0l0.4-0.2C44.9,33.1,44.9,33.1,45,33L45,33z"/>
										<path id="XMLID_16970_" class="st35" d="M44.5,32.7L44.1,33c-0.1,0-0.1,0.1,0,0.2l0.2,0.1c0.1,0,0.2,0,0.2,0l0.4-0.2
											c0.1,0,0.1-0.1,0-0.2l-0.1-0.1C44.7,32.7,44.6,32.7,44.5,32.7z"/>
									</g>
								</g>
							</g>
						</g>
					</g>
				</g>
				<g id="XMLID_16937_">
					<g id="XMLID_16951_">
						<g id="XMLID_16958_">
							<g id="XMLID_16959_">
								<g id="XMLID_16960_">
									<g id="XMLID_16961_">
										<path id="XMLID_16963_" class="st36" d="M45.7,32.6C45.7,32.5,45.7,32.5,45.7,32.6l-0.2-0.2c-0.1,0-0.2,0-0.2,0l-0.4,0.2
											c0,0,0,0,0,0.1l0,0v0.1l0.2,0.1c0.1,0,0.2,0,0.2,0L45.7,32.6L45.7,32.6L45.7,32.6z"/>
										<path id="XMLID_16962_" class="st35" d="M45.3,32.4l-0.4,0.2c-0.1,0-0.1,0.1,0,0.2l0.2,0.1c0.1,0,0.2,0,0.2,0l0.4-0.2
											c0.1,0,0.1-0.1,0-0.2l-0.2-0.1C45.4,32.3,45.3,32.3,45.3,32.4z"/>
									</g>
								</g>
							</g>
						</g>
						<g id="XMLID_16952_">
							<g id="XMLID_16953_">
								<g id="XMLID_16954_">
									<g id="XMLID_16955_">
										<path id="XMLID_16957_" class="st36" d="M46.4,32.1L46.4,32.1L46.1,32c-0.1,0-0.2,0-0.2,0l-0.4,0.2c0,0,0,0,0,0.1v0.1v0.1
											l0.2,0.1c0.1,0,0.2,0,0.2,0l0.4-0.2C46.3,32.3,46.3,32.3,46.4,32.1L46.4,32.1z"/>
										<path id="XMLID_16956_" class="st35" d="M46,31.9l-0.4,0.2c-0.1,0-0.1,0.1,0,0.2l0.2,0.1c0.1,0,0.2,0,0.2,0l0.4-0.2
											c0.1,0,0.1-0.1,0-0.2l-0.2-0.1C46.1,31.9,46.1,31.9,46,31.9z"/>
									</g>
								</g>
							</g>
						</g>
					</g>
					<g id="XMLID_16938_">
						<g id="XMLID_16945_">
							<g id="XMLID_16946_">
								<g id="XMLID_16947_">
									<g id="XMLID_16948_">
										<path id="XMLID_16950_" class="st36" d="M47.1,31.7L47.1,31.7l-0.2-0.2c-0.1,0-0.2,0-0.2,0l-0.4,0.2c0,0,0,0,0,0.1V32l0,0
											l0.2,0.1c0.1,0,0.2,0,0.2,0l0.4-0.2V31.7L47.1,31.7z"/>
										<path id="XMLID_16949_" class="st35" d="M46.7,31.5l-0.4,0.2c-0.1,0-0.1,0.1,0,0.2l0.2,0.1c0.1,0,0.2,0,0.2,0l0.4-0.2
											c0.1,0,0.1-0.1,0-0.2l-0.2-0.1C46.9,31.5,46.8,31.5,46.7,31.5z"/>
									</g>
								</g>
							</g>
						</g>
						<g id="XMLID_16939_">
							<g id="XMLID_16940_">
								<g id="XMLID_16941_">
									<g id="XMLID_16942_">
										<path id="XMLID_16944_" class="st36" d="M47.8,31.3L47.8,31.3l-0.2-0.2c-0.1,0-0.2,0-0.2,0L47,31.3c0,0,0,0,0,0.1v0.1v0.1
											l0.2,0.1c0.1,0,0.2,0,0.2,0l0.4-0.2V31.3L47.8,31.3z"/>
										<path id="XMLID_16943_" class="st35" d="M47.4,31.1L47,31.3c-0.1,0-0.1,0.1,0,0.2l0.2,0.1c0.1,0,0.2,0,0.2,0l0.4-0.2
											c0.1,0,0.1-0.1,0-0.2l-0.1-0.1C47.6,31,47.5,31,47.4,31.1z"/>
									</g>
								</g>
							</g>
						</g>
					</g>
				</g>
				<g id="XMLID_16910_">
					<g id="XMLID_16924_">
						<g id="XMLID_16931_">
							<g id="XMLID_16932_">
								<g id="XMLID_16933_">
									<g id="XMLID_16934_">
										<path id="XMLID_16936_" class="st36" d="M48.6,30.9C48.5,30.9,48.5,30.9,48.6,30.9l-0.2-0.2c-0.1,0-0.2,0-0.2,0L47.8,31
											c0,0,0,0,0,0.1v0.1v0.1l0.2,0.1c0.1,0,0.2,0,0.2,0l0.4-0.2L48.6,30.9L48.6,30.9z"/>
										<path id="XMLID_16935_" class="st35" d="M48.1,30.6l-0.4,0.2c-0.1,0-0.1,0.1,0,0.2l0.2,0.1c0.1,0,0.2,0,0.2,0l0.4-0.2
											c0.1,0,0.1-0.1,0-0.2l-0.2-0.1C48.3,30.6,48.2,30.6,48.1,30.6z"/>
									</g>
								</g>
							</g>
						</g>
						<g id="XMLID_16925_">
							<g id="XMLID_16926_">
								<g id="XMLID_16927_">
									<g id="XMLID_16928_">
										<path id="XMLID_16930_" class="st36" d="M49.3,30.5C49.3,30.5,49.3,30.4,49.3,30.5L49,30.3c-0.1,0-0.2,0-0.2,0l-0.5,0.2
											c0,0,0,0,0,0.1v0.1v0.1l0.2,0.1c0.1,0,0.2,0,0.2,0l0.4-0.2v-0.1L49.3,30.5z"/>
										<path id="XMLID_16929_" class="st35" d="M48.9,30.2l-0.5,0.2c-0.1,0-0.1,0.1,0,0.2l0.2,0.1c0.1,0,0.2,0,0.2,0l0.4-0.2
											c0.1,0,0.1-0.1,0-0.2L48.9,30.2L48.9,30.2z"/>
									</g>
								</g>
							</g>
						</g>
					</g>
					<g id="XMLID_16911_">
						<g id="XMLID_16918_">
							<g id="XMLID_16919_">
								<g id="XMLID_16920_">
									<g id="XMLID_16921_">
										<path id="XMLID_16923_" class="st36" d="M50,30.1C50,30,50,30,50,30.1l-0.2-0.2c-0.1,0-0.2,0-0.2,0l-0.4,0.2
											c0,0,0,0,0,0.1v0.1v0.1l0.2,0.1c0.1,0,0.2,0,0.2,0l0.4-0.2C49.9,30.2,49.9,30.2,50,30.1L50,30.1z"/>
										<path id="XMLID_16922_" class="st35" d="M49.6,29.9l-0.4,0.2c-0.1,0-0.1,0.1,0,0.2l0.2,0.1c0.1,0,0.2,0,0.2,0l0.4-0.2
											c0.1,0,0.1-0.1,0-0.2l-0.2-0.1C49.7,29.8,49.6,29.8,49.6,29.9z"/>
									</g>
								</g>
							</g>
						</g>
						<g id="XMLID_16912_">
							<g id="XMLID_16913_">
								<g id="XMLID_16914_">
									<g id="XMLID_16915_">
										<path id="XMLID_16917_" class="st36" d="M50.7,29.6L50.7,29.6l-0.2-0.2c-0.1,0-0.2,0-0.2,0l-0.4,0.2c0,0,0,0,0,0.1v0.1
											v0.1l0.2,0.1c0.1,0,0.2,0,0.2,0l0.4-0.2V29.6L50.7,29.6z"/>
										<path id="XMLID_16916_" class="st35" d="M50.3,29.4l-0.4,0.2c-0.1,0-0.1,0.1,0,0.2l0.2,0.1c0.1,0,0.2,0,0.2,0l0.4-0.2
											c0.1,0,0.1-0.1,0-0.2l-0.2-0.1C50.4,29.4,50.4,29.4,50.3,29.4z"/>
									</g>
								</g>
							</g>
						</g>
					</g>
				</g>
				<g id="XMLID_16896_">
					<g id="XMLID_16897_">
						<g id="XMLID_16904_">
							<g id="XMLID_16905_">
								<g id="XMLID_16906_">
									<g id="XMLID_16907_">
										<path id="XMLID_16909_" class="st36" d="M51.4,29.2L51.4,29.2L51.2,29c-0.1,0-0.2,0-0.2,0l-0.4,0.2c0,0,0,0,0,0.1v0.1v0.1
											l0.2,0.1c0.1,0,0.2,0,0.2,0l0.4-0.2V29.2L51.4,29.2z"/>
										<path id="XMLID_16908_" class="st35" d="M51,29l-0.4,0.2c-0.1,0-0.1,0.1,0,0.2l0.2,0.1c0.1,0,0.2,0,0.2,0l0.4-0.2
											c0.1,0,0.1-0.1,0-0.2L51.2,29C51.2,29,51.1,29,51,29z"/>
									</g>
								</g>
							</g>
						</g>
						<g id="XMLID_16898_">
							<g id="XMLID_16899_">
								<g id="XMLID_16900_">
									<g id="XMLID_16901_">
										<path id="XMLID_16903_" class="st36" d="M52.1,28.8L52.1,28.8l-0.2-0.2c-0.1,0-0.2,0-0.2,0l-0.4,0.2c0,0,0,0,0,0.1V29v0.1
											l0.2,0.1c0.1,0,0.2,0,0.2,0L52,29L52.1,28.8L52.1,28.8z"/>
										<path id="XMLID_16902_" class="st35" d="M51.7,28.6l-0.4,0.2c-0.1,0-0.1,0.1,0,0.2l0.2,0.1c0.1,0,0.2,0,0.2,0l0.4-0.2
											c0.1,0,0.1-0.1,0-0.2l-0.2-0.1C51.9,28.5,51.8,28.5,51.7,28.6z"/>
									</g>
								</g>
							</g>
						</g>
					</g>
				</g>
			</g>
			<g id="XMLID_16830_">
				<g id="XMLID_16886_">
					<g id="XMLID_16891_">
						<g id="XMLID_16892_">
							<path id="XMLID_16894_" class="st36" d="M51.9,29.8C51.9,29.8,51.9,29.7,51.9,29.8l-0.5-0.3c-0.1,0-0.2,0-0.2,0l-0.4,0.2
								c0,0,0,0,0,0.1v0.1V30l0.4,0.2c0.1,0,0.2,0,0.2,0l0.4-0.2C51.8,29.9,51.8,29.9,51.9,29.8L51.9,29.8z"/>
							<path id="XMLID_16893_" class="st35" d="M51.2,29.4l-0.4,0.2c-0.1,0-0.1,0.1,0,0.2l0.4,0.2c0.1,0,0.2,0,0.2,0l0.4-0.2
								c0.1,0,0.1-0.1,0-0.2l-0.4-0.2C51.4,29.4,51.3,29.4,51.2,29.4z"/>
						</g>
					</g>
					<g id="XMLID_16887_">
						<g id="XMLID_16888_">
							<path id="XMLID_16890_" class="st36" d="M51.2,30.2C51.2,30.2,51.2,30.1,51.2,30.2l-0.4-0.3c-0.1,0-0.2,0-0.2,0l-0.4,0.2
								c0,0,0,0,0,0.1v0.1v0.1l0.4,0.2c0.1,0,0.2,0,0.2,0l0.4-0.2C51.2,30.3,51.2,30.3,51.2,30.2L51.2,30.2z"/>
							<path id="XMLID_16889_" class="st35" d="M50.5,29.8L50.1,30c-0.1,0-0.1,0.1,0,0.2l0.4,0.2c0.1,0,0.2,0,0.2,0l0.4-0.2
								c0.1,0,0.1-0.1,0-0.2l-0.3-0.2C50.7,29.8,50.6,29.8,50.5,29.8z"/>
						</g>
					</g>
				</g>
				<g id="XMLID_16881_">
					<g id="XMLID_16882_">
						<g id="XMLID_16883_">
							<path id="XMLID_16885_" class="st36" d="M52.8,29.2L52.8,29.2l-0.5-0.3c-0.1,0-0.2,0-0.2,0l-0.6,0.4c0,0,0,0,0,0.1v0.1v0.1
								l0.4,0.2c0.1,0,0.2,0,0.2,0l0.6-0.4C52.7,29.4,52.7,29.4,52.8,29.2L52.8,29.2z"/>
							<path id="XMLID_16884_" class="st35" d="M52.2,28.8l-0.6,0.4c-0.1,0-0.1,0.1,0,0.2l0.4,0.2c0.1,0,0.2,0,0.2,0l0.6-0.4
								c0.1,0,0.1-0.1,0-0.2l-0.3-0.2C52.3,28.8,52.2,28.8,52.2,28.8z"/>
						</g>
					</g>
				</g>
				<g id="XMLID_16872_">
					<g id="XMLID_16877_">
						<g id="XMLID_16878_">
							<path id="XMLID_16880_" class="st36" d="M50.4,30.6L50.4,30.6L50,30.2c-0.1,0-0.2,0-0.2,0l-0.4,0.2c0,0,0,0,0,0.1v0.1v0.1
								l0.4,0.2c0.1,0,0.2,0,0.2,0l0.4-0.2C50.4,30.7,50.4,30.7,50.4,30.6L50.4,30.6z"/>
							<path id="XMLID_16879_" class="st35" d="M49.8,30.2l-0.4,0.2c-0.1,0-0.1,0.1,0,0.2l0.4,0.2c0.1,0,0.2,0,0.2,0l0.4-0.2
								c0.1,0,0.1-0.1,0-0.2L50,30.2C50,30.2,49.9,30.2,49.8,30.2z"/>
						</g>
					</g>
					<g id="XMLID_16873_">
						<g id="XMLID_16874_">
							<path id="XMLID_16876_" class="st36" d="M49.7,31L49.7,31l-0.5-0.3c-0.1,0-0.2,0-0.2,0l-0.4,0.2c0,0,0,0,0,0.1v0v0.1l0.4,0.2
								c0.1,0,0.2,0,0.2,0l0.4-0.2C49.7,31.1,49.7,31.1,49.7,31L49.7,31z"/>
							<path id="XMLID_16875_" class="st35" d="M49.1,30.6l-0.4,0.2c-0.1,0-0.1,0.1,0,0.2l0.4,0.2c0.1,0,0.2,0,0.2,0l0.4-0.2
								c0.1,0,0.1-0.1,0-0.2l-0.4-0.2C49.3,30.6,49.2,30.6,49.1,30.6z"/>
						</g>
					</g>
				</g>
				<g id="XMLID_16863_">
					<g id="XMLID_16868_">
						<g id="XMLID_16869_">
							<path id="XMLID_16871_" class="st36" d="M49.1,31.4C49,31.3,49,31.3,49.1,31.4l-0.5-0.3c-0.1,0-0.2,0-0.2,0L48,31.3
								c0,0,0,0,0,0.1v0.1v0.1l0.4,0.2c0.1,0,0.2,0,0.2,0l0.4-0.2C49,31.6,49,31.6,49.1,31.4L49.1,31.4z"/>
							<path id="XMLID_16870_" class="st35" d="M48.4,31L48,31.3c-0.1,0-0.1,0.1,0,0.2l0.4,0.2c0.1,0,0.2,0,0.2,0l0.4-0.2
								c0.1,0,0.1-0.1,0-0.2L48.6,31C48.6,31,48.5,31,48.4,31z"/>
						</g>
					</g>
					<g id="XMLID_16864_">
						<g id="XMLID_16865_">
							<path id="XMLID_16867_" class="st36" d="M48.4,31.8C48.3,31.7,48.3,31.7,48.4,31.8l-0.5-0.3c-0.1,0-0.2,0-0.2,0l-0.4,0.2
								c0,0,0,0,0,0.1v0.1V32l0.4,0.2c0.1,0,0.2,0,0.2,0l0.4-0.2C48.3,32,48.3,32,48.4,31.8L48.4,31.8z"/>
							<path id="XMLID_16866_" class="st35" d="M47.7,31.4l-0.4,0.2c-0.1,0-0.1,0.1,0,0.2l0.4,0.2c0.1,0,0.2,0,0.2,0l0.4-0.2
								c0.1,0,0.1-0.1,0-0.2l-0.4-0.2C47.9,31.4,47.8,31.4,47.7,31.4z"/>
						</g>
					</g>
				</g>
				<g id="XMLID_16854_">
					<g id="XMLID_16859_">
						<g id="XMLID_16860_">
							<path id="XMLID_16862_" class="st36" d="M47.7,32.2C47.7,32.2,47.6,32.1,47.7,32.2l-0.5-0.3c-0.1,0-0.2,0-0.2,0l-0.4,0.2
								c0,0,0,0,0,0.1v0.1v0.1l0.4,0.2c0.1,0,0.2,0,0.2,0l0.4-0.2C47.6,32.4,47.6,32.4,47.7,32.2L47.7,32.2z"/>
							<path id="XMLID_16861_" class="st35" d="M47.1,31.8L46.7,32c-0.1,0-0.1,0.1,0,0.2l0.4,0.2c0.1,0,0.2,0,0.2,0l0.4-0.2
								c0.1,0,0.1-0.1,0-0.2l-0.4-0.2C47.2,31.8,47.1,31.8,47.1,31.8z"/>
						</g>
					</g>
					<g id="XMLID_16855_">
						<g id="XMLID_16856_">
							<path id="XMLID_16858_" class="st36" d="M47,32.6C47,32.6,46.9,32.6,47,32.6l-0.5-0.3c-0.1,0-0.2,0-0.2,0L46,32.5
								c0,0,0,0,0,0.1v0.1v0.1l0.4,0.2c0.1,0,0.2,0,0.2,0l0.4-0.2C46.9,32.7,46.9,32.7,47,32.6L47,32.6z"/>
							<path id="XMLID_16857_" class="st35" d="M46.4,32.2L46,32.4c-0.1,0-0.1,0.1,0,0.2l0.4,0.2c0.1,0,0.2,0,0.2,0l0.4-0.2
								c0.1,0,0.1-0.1,0-0.2l-0.4-0.2C46.5,32.2,46.4,32.2,46.4,32.2z"/>
						</g>
					</g>
				</g>
				<g id="XMLID_16845_">
					<g id="XMLID_16850_">
						<g id="XMLID_16851_">
							<path id="XMLID_16853_" class="st36" d="M46.3,33C46.3,33,46.2,33,46.3,33l-0.5-0.2c-0.1,0-0.2,0-0.2,0L45.3,33
								c0,0,0,0,0,0.1v0.1v0.1l0.4,0.2c0.1,0,0.2,0,0.2,0l0.4-0.2c0,0,0,0,0-0.1L46.3,33z"/>
							<path id="XMLID_16852_" class="st35" d="M45.7,32.7l-0.4,0.2c-0.1,0-0.1,0.1,0,0.2l0.4,0.2c0.1,0,0.2,0,0.2,0l0.4-0.2
								c0.1,0,0.1-0.1,0-0.2l-0.4-0.2C45.8,32.6,45.7,32.6,45.7,32.7z"/>
						</g>
					</g>
					<g id="XMLID_16846_">
						<g id="XMLID_16847_">
							<path id="XMLID_16849_" class="st36" d="M45.6,33.4C45.6,33.4,45.5,33.4,45.6,33.4l-0.5-0.3c-0.1,0-0.2,0-0.2,0l-0.5,0.3
								c0,0,0,0,0,0.1v0.1v0.1l0.4,0.2c0.1,0,0.2,0,0.2,0l0.4-0.2c0,0,0,0,0-0.1L45.6,33.4z"/>
							<path id="XMLID_16848_" class="st35" d="M45,33.1l-0.5,0.2c-0.1,0-0.1,0.1,0,0.2l0.4,0.2c0.1,0,0.2,0,0.2,0l0.4-0.2
								c0.1,0,0.1-0.1,0-0.2L45,33.1C45.1,33,45,33,45,33.1z"/>
						</g>
					</g>
				</g>
				<g id="XMLID_16836_">
					<g id="XMLID_16841_">
						<g id="XMLID_16842_">
							<path id="XMLID_16844_" class="st36" d="M44.9,33.8C44.9,33.8,44.8,33.8,44.9,33.8l-0.5-0.3c-0.1,0-0.2,0-0.2,0l-0.4,0.2
								c0,0,0,0,0,0.1v0.1V34l0.4,0.2c0.1,0,0.2,0,0.2,0l0.4-0.2C44.8,34,44.8,34,44.9,33.8L44.9,33.8z"/>
							<path id="XMLID_16843_" class="st35" d="M44.3,33.5l-0.4,0.2c-0.1,0-0.1,0.1,0,0.2l0.4,0.2c0.1,0,0.2,0,0.2,0l0.4-0.2
								c0.1,0,0.1-0.1,0-0.2l-0.4-0.2C44.4,33.5,44.3,33.5,44.3,33.5z"/>
						</g>
					</g>
					<g id="XMLID_16837_">
						<g id="XMLID_16838_">
							<path id="XMLID_16840_" class="st36" d="M44.2,34.2C44.2,34.2,44.1,34.2,44.2,34.2l-0.5-0.3c-0.1,0-0.2,0-0.2,0l-0.4,0.2
								c0,0,0,0,0,0.1v0.1v0.1l0.4,0.2c0.1,0,0.2,0,0.2,0l0.4-0.2C44.1,34.4,44.1,34.4,44.2,34.2L44.2,34.2z"/>
							<path id="XMLID_16839_" class="st35" d="M43.6,33.8L43.2,34c-0.1,0-0.1,0.1,0,0.2l0.4,0.2c0.1,0,0.2,0,0.2,0l0.4-0.2
								c0.1,0,0.1-0.1,0-0.2l-0.4-0.2C43.6,33.8,43.6,33.8,43.6,33.8z"/>
						</g>
					</g>
				</g>
				<g id="XMLID_16831_">
					<g id="XMLID_16832_">
						<g id="XMLID_16833_">
							<path id="XMLID_16835_" class="st36" d="M43.5,34.6C43.5,34.6,43.4,34.5,43.5,34.6L43,34.3c-0.1,0-0.2,0-0.2,0l-0.4,0.2
								c0,0,0,0,0,0.1v0.1v0.1l0.4,0.2c0.1,0,0.2,0,0.2,0l0.4-0.2C43.4,34.8,43.4,34.8,43.5,34.6L43.5,34.6z"/>
							<path id="XMLID_16834_" class="st35" d="M42.9,34.2l-0.4,0.2c-0.1,0-0.1,0.1,0,0.2l0.4,0.2c0.1,0,0.2,0,0.2,0l0.4-0.2
								c0.1,0,0.1-0.1,0-0.2L42.9,34.2C42.9,34.2,42.9,34.2,42.9,34.2z"/>
						</g>
					</g>
				</g>
			</g>
			<g id="XMLID_16766_">
				<g id="XMLID_16825_">
					<g id="XMLID_16826_">
						<g id="XMLID_16827_">
							<path id="XMLID_16829_" class="st36" d="M44.4,34.9L44.4,34.9L44,34.5c-0.1,0-0.2,0-0.2,0l-0.6,0.4c0,0,0,0,0,0.1v0.1v0.1
								l0.4,0.2c0.1,0,0.2,0,0.2,0L44.4,34.9C44.4,35,44.4,35,44.4,34.9L44.4,34.9z"/>
							<path id="XMLID_16828_" class="st35" d="M43.8,34.5l-0.6,0.4c-0.1,0-0.1,0.1,0,0.2l0.4,0.2c0.1,0,0.2,0,0.2,0l0.6-0.4
								c0.1,0,0.1-0.1,0-0.2L44,34.5C43.9,34.5,43.8,34.5,43.8,34.5z"/>
						</g>
					</g>
				</g>
				<g id="XMLID_16770_">
					<g id="XMLID_16821_">
						<g id="XMLID_16822_">
							<path id="XMLID_16824_" class="st36" d="M52.8,30C52.8,30,52.8,29.9,52.8,30l-0.5-0.3c-0.1,0-0.2,0-0.2,0l-0.4,0.2
								c0,0,0,0,0,0.1v0.1v0.1l0.4,0.2c0.1,0,0.2,0,0.2,0l0.4-0.2C52.7,30.2,52.7,30.2,52.8,30L52.8,30z"/>
							<path id="XMLID_16823_" class="st35" d="M52.2,29.6l-0.4,0.2c-0.1,0-0.1,0.1,0,0.2l0.4,0.2c0.1,0,0.2,0,0.2,0l0.4-0.2
								c0.1,0,0.1-0.1,0-0.2l-0.3-0.2C52.3,29.6,52.2,29.6,52.2,29.6z"/>
						</g>
					</g>
					<g id="XMLID_16812_">
						<g id="XMLID_16817_">
							<g id="XMLID_16818_">
								<path id="XMLID_16820_" class="st36" d="M52.1,30.4L52.1,30.4l-0.5-0.3c-0.1,0-0.2,0-0.2,0L51,30.4c0,0,0,0,0,0.1v0.1v0.1
									l0.4,0.2c0.1,0,0.2,0,0.2,0l0.4-0.2c0,0,0,0,0-0.1L52.1,30.4L52.1,30.4z"/>
								<path id="XMLID_16819_" class="st35" d="M51.5,30.1l-0.4,0.2c-0.1,0-0.1,0.1,0,0.2l0.4,0.2c0.1,0,0.2,0,0.2,0l0.4-0.2
									c0.1,0,0.1-0.1,0-0.2l-0.4-0.2C51.6,30,51.5,30,51.5,30.1z"/>
							</g>
						</g>
						<g id="XMLID_16813_">
							<g id="XMLID_16814_">
								<path id="XMLID_16816_" class="st36" d="M51.4,30.8L51.4,30.8l-0.5-0.3c-0.1,0-0.2,0-0.2,0l-0.4,0.2c0,0,0,0,0,0.1v0.1V31
									l0.4,0.2c0.1,0,0.2,0,0.2,0l0.4-0.2C51.3,31,51.3,31,51.4,30.8L51.4,30.8z"/>
								<path id="XMLID_16815_" class="st35" d="M50.8,30.5l-0.4,0.2c-0.1,0-0.1,0.1,0,0.2l0.4,0.2c0.1,0,0.2,0,0.2,0l0.4-0.2
									c0.1,0,0.1-0.1,0-0.2L51,30.5C50.9,30.4,50.8,30.4,50.8,30.5z"/>
							</g>
						</g>
					</g>
					<g id="XMLID_16803_">
						<g id="XMLID_16808_">
							<g id="XMLID_16809_">
								<path id="XMLID_16811_" class="st36" d="M50.7,31.3C50.7,31.2,50.7,31.2,50.7,31.3L50.2,31c-0.1,0-0.2,0-0.2,0l-0.4,0.2
									c0,0,0,0,0,0.1v0.1v0.1l0.4,0.2c0.1,0,0.2,0,0.2,0l0.4-0.2C50.6,31.4,50.6,31.4,50.7,31.3L50.7,31.3z"/>
								<path id="XMLID_16810_" class="st35" d="M50.1,30.9l-0.4,0.2c-0.1,0-0.1,0.1,0,0.2l0.4,0.2c0.1,0,0.2,0,0.2,0l0.4-0.2
									c0.1,0,0.1-0.1,0-0.2l-0.4-0.2C50.2,30.9,50.1,30.9,50.1,30.9z"/>
							</g>
						</g>
						<g id="XMLID_16804_">
							<g id="XMLID_16805_">
								<path id="XMLID_16807_" class="st36" d="M50,31.7C50,31.6,50,31.6,50,31.7l-0.5-0.3c-0.1,0-0.2,0-0.2,0L49,31.6
									c0,0,0,0,0,0.1v0.1v0.1l0.4,0.2c0.1,0,0.2,0,0.2,0l0.4-0.2C49.9,31.8,49.9,31.8,50,31.7L50,31.7z"/>
								<path id="XMLID_16806_" class="st35" d="M49.4,31.3L49,31.5c-0.1,0-0.1,0.1,0,0.2l0.4,0.2c0.1,0,0.2,0,0.2,0l0.4-0.2
									c0.1,0,0.1-0.1,0-0.2l-0.4-0.2C49.5,31.3,49.4,31.3,49.4,31.3z"/>
							</g>
						</g>
					</g>
					<g id="XMLID_16794_">
						<g id="XMLID_16799_">
							<g id="XMLID_16800_">
								<path id="XMLID_16802_" class="st36" d="M49.3,32L49.3,32l-0.5-0.3c-0.1,0-0.2,0-0.2,0L48.3,32c0,0,0,0,0,0.1v0.1v0.1
									l0.4,0.2c0.1,0,0.2,0,0.2,0l0.4-0.2C49.2,32.2,49.2,32.2,49.3,32L49.3,32z"/>
								<path id="XMLID_16801_" class="st35" d="M48.7,31.7l-0.4,0.2c-0.1,0-0.1,0.1,0,0.2l0.4,0.2c0.1,0,0.2,0,0.2,0l0.4-0.2
									c0.1,0,0.1-0.1,0-0.2l-0.4-0.2C48.8,31.7,48.7,31.7,48.7,31.7z"/>
							</g>
						</g>
						<g id="XMLID_16795_">
							<g id="XMLID_16796_">
								<path id="XMLID_16798_" class="st36" d="M48.6,32.4L48.6,32.4l-0.5-0.3c-0.1,0-0.2,0-0.2,0l-0.4,0.2c0,0,0,0,0,0.1v0.1v0.1
									l0.4,0.2c0.1,0,0.2,0,0.2,0l0.4-0.2C48.5,32.6,48.5,32.6,48.6,32.4L48.6,32.4z"/>
								<path id="XMLID_16797_" class="st35" d="M47.9,32.1l-0.4,0.2c-0.1,0-0.1,0.1,0,0.2l0.4,0.2c0.1,0,0.2,0,0.2,0l0.4-0.2
									c0.1,0,0.1-0.1,0-0.2l-0.4-0.2C48.1,32,48,32,47.9,32.1z"/>
							</g>
						</g>
					</g>
					<g id="XMLID_16785_">
						<g id="XMLID_16790_">
							<g id="XMLID_16791_">
								<path id="XMLID_16793_" class="st36" d="M47.9,32.8L47.9,32.8l-0.5-0.3c-0.1,0-0.2,0-0.2,0l-0.5,0.3c0,0,0,0,0,0.1V33v0.1
									l0.4,0.2c0.1,0,0.2,0,0.2,0l0.4-0.2c0,0,0,0,0-0.1L47.9,32.8z"/>
								<path id="XMLID_16792_" class="st35" d="M47.2,32.5l-0.4,0.2c-0.1,0-0.1,0.1,0,0.2l0.4,0.2c0.1,0,0.2,0,0.2,0l0.4-0.2
									c0.1,0,0.1-0.1,0-0.2l-0.4-0.2C47.4,32.4,47.3,32.4,47.2,32.5z"/>
							</g>
						</g>
						<g id="XMLID_16786_">
							<g id="XMLID_16787_">
								<path id="XMLID_16789_" class="st36" d="M47.2,33.3C47.2,33.2,47.2,33.2,47.2,33.3L46.8,33c-0.1,0-0.2,0-0.2,0l-0.4,0.2
									c0,0,0,0,0,0.1v0.1v0.1l0.4,0.2c0.1,0,0.2,0,0.2,0l0.4-0.2C47.2,33.5,47.2,33.5,47.2,33.3L47.2,33.3z"/>
								<path id="XMLID_16788_" class="st35" d="M46.5,32.9l-0.4,0.2c-0.1,0-0.1,0.1,0,0.2l0.4,0.2c0.1,0,0.2,0,0.2,0l0.4-0.2
									c0.1,0,0.1-0.1,0-0.2l-0.4-0.2C46.7,32.8,46.6,32.8,46.5,32.9z"/>
							</g>
						</g>
					</g>
					<g id="XMLID_16776_">
						<g id="XMLID_16781_">
							<g id="XMLID_16782_">
								<path id="XMLID_16784_" class="st36" d="M46.5,33.7C46.5,33.6,46.5,33.6,46.5,33.7L46,33.4c-0.1,0-0.2,0-0.2,0l-0.4,0.2
									c0,0,0,0,0,0.1v0.1v0.1l0.4,0.2c0.1,0,0.2,0,0.2,0l0.4-0.2C46.5,33.8,46.5,33.8,46.5,33.7L46.5,33.7z"/>
								<path id="XMLID_16783_" class="st35" d="M45.9,33.3l-0.5,0.2c-0.1,0-0.1,0.1,0,0.2l0.4,0.2c0.1,0,0.2,0,0.2,0l0.4-0.2
									c0.1,0,0.1-0.1,0-0.2l-0.3-0.2C46,33.3,45.9,33.3,45.9,33.3z"/>
							</g>
						</g>
						<g id="XMLID_16777_">
							<g id="XMLID_16778_">
								<path id="XMLID_16780_" class="st36" d="M45.8,34.1C45.8,34.1,45.8,34,45.8,34.1l-0.5-0.3c-0.1,0-0.2,0-0.2,0L44.8,34
									c0,0,0,0,0,0.1v0.1v0.1l0.4,0.2c0.1,0,0.2,0,0.2,0l0.4-0.2C45.8,34.2,45.8,34.2,45.8,34.1L45.8,34.1z"/>
								<path id="XMLID_16779_" class="st35" d="M45.2,33.7l-0.4,0.2c-0.1,0-0.1,0.1,0,0.2l0.4,0.2c0.1,0,0.2,0,0.2,0l0.4-0.2
									c0.1,0,0.1-0.1,0-0.2l-0.4-0.2C45.3,33.7,45.2,33.7,45.2,33.7z"/>
							</g>
						</g>
					</g>
					<g id="XMLID_16771_">
						<g id="XMLID_16772_">
							<g id="XMLID_16773_">
								<path id="XMLID_16775_" class="st36" d="M45.1,34.5L45.1,34.5l-0.5-0.3c-0.1,0-0.2,0-0.2,0L44,34.4c0,0,0,0,0,0.1v0.1v0.1
									l0.4,0.2c0.1,0,0.2,0,0.2,0l0.4-0.2C45.1,34.6,45.1,34.6,45.1,34.5L45.1,34.5z"/>
								<path id="XMLID_16774_" class="st35" d="M44.5,34.1l-0.4,0.2c-0.1,0-0.1,0.1,0,0.2l0.4,0.2c0.1,0,0.2,0,0.2,0l0.4-0.2
									c0.1,0,0.1-0.1,0-0.2l-0.4-0.2C44.6,34.1,44.5,34.1,44.5,34.1z"/>
							</g>
						</g>
					</g>
				</g>
				<g id="XMLID_16767_">
					<path id="XMLID_16769_" class="st36" d="M54.2,30C54.2,30,54.2,29.9,54.2,30l-1.1-0.7c-0.1,0-0.2,0-0.2,0l-0.4,0.2
						c0,0,0,0,0,0.1v0.1v0.1l0.4,0.2c0.1,0,0.1,0,0.2,0h0.1l0.6,0.3c0.1,0,0.2,0,0.2,0l0.3-0.2C54.3,30.2,54.3,30.2,54.2,30L54.2,30
						z"/>
					<path id="XMLID_16768_" class="st35" d="M54.2,29.9l-0.8-0.5l0,0l-0.3-0.2c-0.1,0-0.2,0-0.2,0l-0.4,0.2c-0.1,0-0.1,0.1,0,0.2
						l0.4,0.2c0.1,0,0.1,0,0.2,0h0.1l0.6,0.3c0.1,0,0.2,0,0.2,0L54.2,29.9C54.2,30,54.2,29.9,54.2,29.9z"/>
				</g>
			</g>
			<g id="XMLID_16705_">
				<g id="XMLID_16760_">
					<g id="XMLID_16761_">
						<g id="XMLID_16762_">
							<g id="XMLID_16763_">
								<path id="XMLID_16765_" class="st36" d="M45.2,35.2L45.2,35.2l-0.5-0.3c-0.1,0-0.2,0-0.2,0l-0.8,0.5c0,0,0,0,0,0.1v0.1v0.1
									l0.4,0.2c0.1,0,0.2,0,0.2,0l0.8-0.5C45.1,35.4,45.1,35.4,45.2,35.2L45.2,35.2z"/>
								<path id="XMLID_16764_" class="st35" d="M44.6,34.9l-0.8,0.5c-0.1,0-0.1,0.1,0,0.2l0.4,0.2c0.1,0,0.2,0,0.2,0l0.8-0.5
									c0.1,0,0.1-0.1,0-0.2l-0.4-0.2C44.7,34.9,44.7,34.9,44.6,34.9z"/>
							</g>
						</g>
					</g>
				</g>
				<g id="XMLID_16756_">
					<g id="XMLID_16757_">
						<path id="XMLID_16759_" class="st36" d="M53.7,30.3L53.7,30.3L53.2,30c-0.1,0-0.2,0-0.2,0l-0.4,0.2c0,0,0,0,0,0.1v0.1v0.1
							l0.4,0.2c0.1,0,0.2,0,0.2,0l0.4-0.2C53.6,30.5,53.6,30.5,53.7,30.3L53.7,30.3z"/>
						<path id="XMLID_16758_" class="st35" d="M53,30l-0.4,0.2c-0.1,0-0.1,0.1,0,0.2l0.4,0.2c0.1,0,0.2,0,0.2,0l0.4-0.2
							c0.1,0,0.1-0.1,0-0.2L53.2,30C53.1,29.9,53.1,29.9,53,30z"/>
					</g>
				</g>
				<g id="XMLID_16747_">
					<g id="XMLID_16752_">
						<g id="XMLID_16753_">
							<path id="XMLID_16755_" class="st36" d="M52.9,30.7L52.9,30.7l-0.5-0.3c-0.1,0-0.2,0-0.2,0l-0.4,0.2c0,0,0,0,0,0.1v0.1v0.1
								l0.4,0.2c0.1,0,0.2,0,0.2,0l0.4-0.2C52.9,30.9,52.9,30.9,52.9,30.7L52.9,30.7z"/>
							<path id="XMLID_16754_" class="st35" d="M52.3,30.4l-0.4,0.2c-0.1,0-0.1,0.1,0,0.2l0.4,0.2c0.1,0,0.2,0,0.2,0l0.4-0.2
								c0.1,0,0.1-0.1,0-0.2l-0.4-0.2C52.4,30.3,52.4,30.3,52.3,30.4z"/>
						</g>
					</g>
					<g id="XMLID_16748_">
						<g id="XMLID_16749_">
							<path id="XMLID_16751_" class="st36" d="M52.2,31.2C52.2,31.1,52.2,31.1,52.2,31.2l-0.5-0.3c-0.1,0-0.2,0-0.2,0l-0.4,0.2
								c0,0,0,0,0,0.1v0.1v0.1l0.4,0.2c0.1,0,0.2,0,0.2,0l0.4-0.2C52.2,31.3,52.2,31.3,52.2,31.2L52.2,31.2z"/>
							<path id="XMLID_16750_" class="st35" d="M51.6,30.8L51.2,31c-0.1,0-0.1,0.1,0,0.2l0.4,0.2c0.1,0,0.2,0,0.2,0l0.4-0.2
								c0.1,0,0.1-0.1,0-0.2l-0.4-0.2C51.8,30.8,51.7,30.8,51.6,30.8z"/>
						</g>
					</g>
				</g>
				<g id="XMLID_16738_">
					<g id="XMLID_16743_">
						<g id="XMLID_16744_">
							<path id="XMLID_16746_" class="st36" d="M51.5,31.6C51.5,31.6,51.5,31.5,51.5,31.6L51,31.3c-0.1,0-0.2,0-0.2,0l-0.4,0.2
								c0,0,0,0,0,0.1v0.1v0.1l0.4,0.2c0.1,0,0.2,0,0.2,0l0.4-0.2C51.5,31.7,51.5,31.7,51.5,31.6L51.5,31.6z"/>
							<path id="XMLID_16745_" class="st35" d="M50.9,31.2l-0.4,0.2c-0.1,0-0.1,0.1,0,0.2l0.4,0.2c0.1,0,0.2,0,0.2,0l0.4-0.2
								c0.1,0,0.1-0.1,0-0.2l-0.4-0.2C51.1,31.2,51,31.2,50.9,31.2z"/>
						</g>
					</g>
					<g id="XMLID_16739_">
						<g id="XMLID_16740_">
							<path id="XMLID_16742_" class="st36" d="M50.8,32C50.8,32,50.8,31.9,50.8,32l-0.5-0.3c-0.1,0-0.2,0-0.2,0l-0.4,0.2
								c0,0,0,0,0,0.1l0,0v0.1l0.4,0.2c0.1,0,0.2,0,0.2,0L50.8,32C50.8,32.1,50.8,32.1,50.8,32L50.8,32z"/>
							<path id="XMLID_16741_" class="st35" d="M50.2,31.6l-0.4,0.2c-0.1,0-0.1,0.1,0,0.2l0.4,0.2c0.1,0,0.2,0,0.2,0l0.4-0.2
								c0.1,0,0.1-0.1,0-0.2l-0.4-0.2C50.4,31.6,50.3,31.6,50.2,31.6z"/>
						</g>
					</g>
				</g>
				<g id="XMLID_16729_">
					<g id="XMLID_16734_">
						<g id="XMLID_16735_">
							<path id="XMLID_16737_" class="st36" d="M50.1,32.4L50.1,32.4L49.7,32c-0.1,0-0.2,0-0.2,0l-0.4,0.2c0,0,0,0,0,0.1v0.1v0.1
								l0.4,0.2c0.1,0,0.2,0,0.2,0L50.1,32.4C50.1,32.5,50.1,32.5,50.1,32.4L50.1,32.4z"/>
							<path id="XMLID_16736_" class="st35" d="M49.5,32l-0.4,0.2c-0.1,0-0.1,0.1,0,0.2l0.4,0.2c0.1,0,0.2,0,0.2,0l0.4-0.2
								c0.1,0,0.1-0.1,0-0.2L49.7,32C49.7,32,49.6,32,49.5,32z"/>
						</g>
					</g>
					<g id="XMLID_16730_">
						<g id="XMLID_16731_">
							<path id="XMLID_16733_" class="st36" d="M49.4,32.7L49.4,32.7L49,32.4c-0.1,0-0.2,0-0.2,0l-0.4,0.3c0,0,0,0,0,0.1v0.1V33
								l0.4,0.2c0.1,0,0.2,0,0.2,0l0.4-0.2c0,0,0,0,0-0.1V32.7z"/>
							<path id="XMLID_16732_" class="st35" d="M48.8,32.4l-0.4,0.2c-0.1,0-0.1,0.1,0,0.2l0.4,0.2c0.1,0,0.2,0,0.2,0l0.4-0.2
								c0.1,0,0.1-0.1,0-0.2L49,32.4C49,32.4,48.9,32.4,48.8,32.4z"/>
						</g>
					</g>
				</g>
				<g id="XMLID_16720_">
					<g id="XMLID_16725_">
						<g id="XMLID_16726_">
							<path id="XMLID_16728_" class="st36" d="M48.7,33.2C48.7,33.1,48.7,33.1,48.7,33.2l-0.5-0.3c-0.1,0-0.2,0-0.2,0l-0.4,0.2
								c0,0,0,0,0,0.1v0.1v0.1l0.4,0.2c0.1,0,0.2,0,0.2,0l0.4-0.2C48.7,33.4,48.7,33.4,48.7,33.2L48.7,33.2z"/>
							<path id="XMLID_16727_" class="st35" d="M48.1,32.8L47.7,33c-0.1,0-0.1,0.1,0,0.2l0.4,0.2c0.1,0,0.2,0,0.2,0l0.4-0.2
								c0.1,0,0.1-0.1,0-0.2l-0.4-0.2C48.3,32.8,48.2,32.8,48.1,32.8z"/>
						</g>
					</g>
					<g id="XMLID_16721_">
						<g id="XMLID_16722_">
							<path id="XMLID_16724_" class="st36" d="M48,33.6C48,33.5,48,33.5,48,33.6l-0.5-0.3c-0.1,0-0.2,0-0.2,0L47,33.5
								c0,0,0,0,0,0.1v0.1v0.1l0.4,0.2c0.1,0,0.2,0,0.2,0l0.4-0.2C47.9,33.8,47.9,33.8,48,33.6L48,33.6z"/>
							<path id="XMLID_16723_" class="st35" d="M47.4,33.2L47,33.5c-0.1,0-0.1,0.1,0,0.2l0.4,0.2c0.1,0,0.2,0,0.2,0l0.4-0.2
								c0.1,0,0.1-0.1,0-0.2l-0.4-0.2C47.6,33.2,47.5,33.2,47.4,33.2z"/>
						</g>
					</g>
				</g>
				<g id="XMLID_16711_">
					<g id="XMLID_16716_">
						<g id="XMLID_16717_">
							<path id="XMLID_16719_" class="st36" d="M47.3,34C47.3,34,47.3,33.9,47.3,34l-0.5-0.3c-0.1,0-0.2,0-0.2,0l-0.4,0.2
								c0,0,0,0,0,0.1v0.1v0.1l0.4,0.2c0.1,0,0.2,0,0.2,0l0.4-0.2C47.2,34.2,47.2,34.2,47.3,34L47.3,34z"/>
							<path id="XMLID_16718_" class="st35" d="M46.7,33.6l-0.4,0.2c-0.1,0-0.1,0.1,0,0.2l0.4,0.2c0.1,0,0.2,0,0.2,0l0.4-0.2
								c0.1,0,0.1-0.1,0-0.2l-0.4-0.2C46.9,33.6,46.8,33.6,46.7,33.6z"/>
						</g>
					</g>
					<g id="XMLID_16712_">
						<g id="XMLID_16713_">
							<path id="XMLID_16715_" class="st36" d="M46.6,34.4L46.6,34.4l-0.5-0.3c-0.1,0-0.2,0-0.2,0l-0.4,0.2c0,0,0,0,0,0.1v0.1v0.1
								l0.4,0.2c0.1,0,0.2,0,0.2,0l0.4-0.2C46.5,34.5,46.5,34.5,46.6,34.4L46.6,34.4z"/>
							<path id="XMLID_16714_" class="st35" d="M46,34.1l-0.4,0.2c-0.1,0-0.1,0.1,0,0.2l0.4,0.2c0.1,0,0.2,0,0.2,0l0.4-0.2
								c0.1,0,0.1-0.1,0-0.2l-0.4-0.2C46.1,34,46.1,34,46,34.1z"/>
						</g>
					</g>
				</g>
				<g id="XMLID_16706_">
					<g id="XMLID_16707_">
						<g id="XMLID_16708_">
							<path id="XMLID_16710_" class="st36" d="M45.9,34.8L45.9,34.8l-0.5-0.3c-0.1,0-0.2,0-0.2,0l-0.4,0.2c0,0,0,0,0,0.1v0.1V35
								l0.4,0.2c0.1,0,0.2,0,0.2,0l0.4-0.2C45.8,34.9,45.8,34.9,45.9,34.8L45.9,34.8z"/>
							<path id="XMLID_16709_" class="st35" d="M45.3,34.5l-0.4,0.2c-0.1,0-0.1,0.1,0,0.2l0.4,0.2c0.1,0,0.2,0,0.2,0l0.4-0.2
								c0.1,0,0.1-0.1,0-0.2l-0.4-0.2C45.4,34.4,45.4,34.4,45.3,34.5z"/>
						</g>
					</g>
				</g>
			</g>
			<g id="XMLID_16644_">
				<g id="XMLID_16700_">
					<g id="XMLID_16701_">
						<g id="XMLID_16702_">
							<path id="XMLID_16704_" class="st36" d="M45.7,35.7L45.7,35.7l-0.5-0.3c-0.1,0-0.2,0-0.2,0l-0.5,0.4c0,0,0,0,0,0.1l0,0V36
								l0.4,0.2c0.1,0,0.2,0,0.2,0l0.5-0.3C45.6,35.9,45.6,35.9,45.7,35.7L45.7,35.7z"/>
							<path id="XMLID_16703_" class="st35" d="M45.1,35.4l-0.5,0.3c-0.1,0-0.1,0.1,0,0.2l0.4,0.2c0.1,0,0.2,0,0.2,0l0.5-0.3
								c0.1,0,0.1-0.1,0-0.2l-0.4-0.2C45.2,35.3,45.1,35.3,45.1,35.4z"/>
						</g>
					</g>
				</g>
				<g id="XMLID_16645_">
					<g id="XMLID_16696_">
						<g id="XMLID_16697_">
							<path id="XMLID_16699_" class="st36" d="M54.9,30.4L54.9,30.4l-0.5-0.3c-0.1,0-0.2,0-0.2,0L53,30.8c0,0,0,0,0,0.1V31l0,0
								l0.4,0.2c0.1,0,0.2,0,0.2,0l1.3-0.7C54.8,30.6,54.8,30.6,54.9,30.4L54.9,30.4z"/>
							<path id="XMLID_16698_" class="st35" d="M54.3,30.1L53,30.8c-0.1,0-0.1,0.1,0,0.2l0.4,0.2c0.1,0,0.2,0,0.2,0l1.3-0.7
								c0.1,0,0.1-0.1,0-0.2l-0.4-0.2C54.4,30,54.4,30,54.3,30.1z"/>
						</g>
					</g>
					<g id="XMLID_16687_">
						<g id="XMLID_16692_">
							<g id="XMLID_16693_">
								<path id="XMLID_16695_" class="st36" d="M53.4,31.3C53.4,31.3,53.3,31.3,53.4,31.3L52.9,31c-0.1,0-0.2,0-0.2,0l-0.5,0.3
									c0,0,0,0,0,0.1v0.1v0.1l0.4,0.2c0.1,0,0.2,0,0.2,0l0.4-0.2c0,0,0,0,0-0.1L53.4,31.3z"/>
								<path id="XMLID_16694_" class="st35" d="M52.8,31l-0.5,0.2c-0.1,0-0.1,0.1,0,0.2l0.4,0.2c0.1,0,0.2,0,0.2,0l0.4-0.2
									c0.1,0,0.1-0.1,0-0.2L52.8,31C52.9,30.9,52.8,30.9,52.8,31z"/>
							</g>
						</g>
						<g id="XMLID_16688_">
							<g id="XMLID_16689_">
								<path id="XMLID_16691_" class="st36" d="M52.7,31.7C52.7,31.7,52.6,31.7,52.7,31.7l-0.5-0.3c-0.1,0-0.2,0-0.2,0l-0.4,0.2
									c0,0,0,0,0,0.1v0.1v0.1l0.4,0.2c0.1,0,0.2,0,0.2,0l0.4-0.2C52.6,31.9,52.6,31.9,52.7,31.7L52.7,31.7z"/>
								<path id="XMLID_16690_" class="st35" d="M52.1,31.3l-0.4,0.2c-0.1,0-0.1,0.1,0,0.2l0.4,0.2c0.1,0,0.2,0,0.2,0l0.4-0.2
									c0.1,0,0.1-0.1,0-0.2l-0.4-0.2C52.2,31.3,52.1,31.3,52.1,31.3z"/>
							</g>
						</g>
					</g>
					<g id="XMLID_16678_">
						<g id="XMLID_16683_">
							<g id="XMLID_16684_">
								<path id="XMLID_16686_" class="st36" d="M52,32.1C52,32.1,52,32,52,32.1l-0.5-0.3c-0.1,0-0.2,0-0.2,0L51,32c0,0,0,0,0,0.1
									v0.1v0.1l0.4,0.2c0.1,0,0.2,0,0.2,0l0.4-0.2C51.9,32.3,51.9,32.3,52,32.1L52,32.1z"/>
								<path id="XMLID_16685_" class="st35" d="M51.4,31.7L50.9,32c-0.1,0-0.1,0.1,0,0.2l0.4,0.2c0.1,0,0.2,0,0.2,0l0.4-0.2
									c0.1,0,0.1-0.1,0-0.2l-0.3-0.2C51.5,31.7,51.4,31.7,51.4,31.7z"/>
							</g>
						</g>
						<g id="XMLID_16679_">
							<g id="XMLID_16680_">
								<path id="XMLID_16682_" class="st36" d="M51.3,32.5C51.3,32.5,51.3,32.4,51.3,32.5l-0.5-0.3c-0.1,0-0.2,0-0.2,0l-0.4,0.2
									c0,0,0,0,0,0.1v0.1v0.1l0.4,0.2c0.1,0,0.2,0,0.2,0l0.4-0.2C51.2,32.7,51.2,32.7,51.3,32.5L51.3,32.5z"/>
								<path id="XMLID_16681_" class="st35" d="M50.7,32.1l-0.4,0.2c-0.1,0-0.1,0.1,0,0.2l0.4,0.2c0.1,0,0.2,0,0.2,0l0.4-0.2
									c0.1,0,0.1-0.1,0-0.2l-0.4-0.2C50.8,32.1,50.7,32.1,50.7,32.1z"/>
							</g>
						</g>
					</g>
					<g id="XMLID_16669_">
						<g id="XMLID_16674_">
							<g id="XMLID_16675_">
								<path id="XMLID_16677_" class="st36" d="M50.6,32.9L50.6,32.9l-0.5-0.3c-0.1,0-0.2,0-0.2,0l-0.4,0.2c0,0,0,0,0,0.1V33v0.1
									l0.4,0.2c0.1,0,0.2,0,0.2,0l0.4-0.2C50.5,33.1,50.5,33.1,50.6,32.9L50.6,32.9z"/>
								<path id="XMLID_16676_" class="st35" d="M50,32.6l-0.4,0.2c-0.1,0-0.1,0.1,0,0.2l0.4,0.2c0.1,0,0.2,0,0.2,0l0.4-0.2
									c0.1,0,0.1-0.1,0-0.2l-0.4-0.2C50.1,32.5,50,32.5,50,32.6z"/>
							</g>
						</g>
						<g id="XMLID_16670_">
							<g id="XMLID_16671_">
								<path id="XMLID_16673_" class="st36" d="M49.9,33.3L49.9,33.3L49.4,33c-0.1,0-0.2,0-0.2,0l-0.4,0.2c0,0,0,0,0,0.1v0.1v0.1
									l0.4,0.2c0.1,0,0.2,0,0.2,0l0.4-0.2C49.8,33.5,49.8,33.5,49.9,33.3L49.9,33.3z"/>
								<path id="XMLID_16672_" class="st35" d="M49.3,33l-0.4,0.2c-0.1,0-0.1,0.1,0,0.2l0.4,0.2c0.1,0,0.2,0,0.2,0l0.4-0.2
									c0.1,0,0.1-0.1,0-0.2L49.4,33C49.4,32.9,49.3,32.9,49.3,33z"/>
							</g>
						</g>
					</g>
					<g id="XMLID_16660_">
						<g id="XMLID_16665_">
							<g id="XMLID_16666_">
								<path id="XMLID_16668_" class="st36" d="M49.2,33.8C49.2,33.7,49.2,33.7,49.2,33.8l-0.5-0.3c-0.1,0-0.2,0-0.2,0l-0.4,0.2
									c0,0,0,0,0,0.1v0.1V34l0.4,0.2c0.1,0,0.2,0,0.2,0l0.4-0.2C49.1,33.9,49.1,33.9,49.2,33.8L49.2,33.8z"/>
								<path id="XMLID_16667_" class="st35" d="M48.6,33.4l-0.4,0.2c-0.1,0-0.1,0.1,0,0.2l0.4,0.2c0.1,0,0.2,0,0.2,0l0.4-0.2
									c0.1,0,0.1-0.1,0-0.2l-0.4-0.2C48.7,33.4,48.6,33.4,48.6,33.4z"/>
							</g>
						</g>
						<g id="XMLID_16661_">
							<g id="XMLID_16662_">
								<path id="XMLID_16664_" class="st36" d="M48.5,34.2C48.5,34.1,48.5,34.1,48.5,34.2L48,33.8c-0.1,0-0.2,0-0.2,0L47.4,34
									c0,0,0,0,0,0.1v0.1v0.1l0.4,0.2c0.1,0,0.2,0,0.2,0L48.5,34.2C48.4,34.3,48.4,34.3,48.5,34.2L48.5,34.2z"/>
								<path id="XMLID_16663_" class="st35" d="M47.9,33.8L47.5,34c-0.1,0-0.1,0.1,0,0.2l0.4,0.2c0.1,0,0.2,0,0.2,0l0.4-0.2
									c0.1,0,0.1-0.1,0-0.2L47.9,33.8C47.9,33.8,47.9,33.8,47.9,33.8z"/>
							</g>
						</g>
					</g>
					<g id="XMLID_16651_">
						<g id="XMLID_16656_">
							<g id="XMLID_16657_">
								<path id="XMLID_16659_" class="st36" d="M47.8,34.5L47.8,34.5l-0.5-0.3c-0.1,0-0.2,0-0.2,0l-0.4,0.2c0,0,0,0,0,0.1v0.1v0.1
									l0.4,0.2c0.1,0,0.2,0,0.2,0l0.4-0.2C47.7,34.7,47.7,34.7,47.8,34.5L47.8,34.5z"/>
								<path id="XMLID_16658_" class="st35" d="M47.2,34.2l-0.4,0.2c-0.1,0-0.1,0.1,0,0.2l0.4,0.2c0.1,0,0.2,0,0.2,0l0.4-0.2
									c0.1,0,0.1-0.1,0-0.2l-0.4-0.2C47.2,34.2,47.2,34.2,47.2,34.2z"/>
							</g>
						</g>
						<g id="XMLID_16652_">
							<g id="XMLID_16653_">
								<path id="XMLID_16655_" class="st36" d="M47.1,34.9L47.1,34.9l-0.5-0.3c-0.1,0-0.2,0-0.2,0L46,34.8c0,0,0,0,0,0.1V35v0.1
									l0.4,0.2c0.1,0,0.2,0,0.2,0l0.4-0.2C47,35.1,47,35.1,47.1,34.9L47.1,34.9z"/>
								<path id="XMLID_16654_" class="st35" d="M46.5,34.6l-0.4,0.2c-0.1,0-0.1,0.1,0,0.2l0.4,0.2c0.1,0,0.2,0,0.2,0L47,35
									c0.1,0,0.1-0.1,0-0.2L46.5,34.6C46.5,34.5,46.5,34.5,46.5,34.6z"/>
							</g>
						</g>
					</g>
					<g id="XMLID_16646_">
						<g id="XMLID_16647_">
							<g id="XMLID_16648_">
								<path id="XMLID_16650_" class="st36" d="M46.4,35.3L46.4,35.3l-0.5-0.2c-0.1,0-0.2,0-0.2,0l-0.5,0.2c0,0,0,0,0,0.1v0.1v0.1
									l0.4,0.2c0.1,0,0.2,0,0.2,0l0.4-0.2c0,0,0,0,0-0.1L46.4,35.3z"/>
								<path id="XMLID_16649_" class="st35" d="M45.8,35l-0.5,0.2c-0.1,0-0.1,0.1,0,0.2l0.4,0.2c0.1,0,0.2,0,0.2,0l0.4-0.2
									c0.1,0,0.1-0.1,0-0.2L45.8,35C45.8,34.9,45.8,34.9,45.8,35z"/>
							</g>
						</g>
					</g>
				</g>
			</g>
			<g id="XMLID_16587_">
				<g id="XMLID_16603_">
					<g id="XMLID_16639_">
						<g id="XMLID_16640_">
							<g id="XMLID_16641_">
								<path id="XMLID_16643_" class="st36" d="M52.2,32.8C52.2,32.7,52.2,32.7,52.2,32.8l-0.5-0.3c-0.1,0-0.2,0-0.2,0l-3.5,2
									c0,0,0,0,0,0.1v0.1v0.1l0.4,0.2c0.1,0,0.2,0,0.2,0l3.5-2C52.1,33,52.1,33,52.2,32.8L52.2,32.8z"/>
								<path id="XMLID_16642_" class="st35" d="M51.5,32.4l-3.5,2c-0.1,0-0.1,0.1,0,0.2l0.4,0.2c0.1,0,0.2,0,0.2,0l3.5-2
									c0.1,0,0.1-0.1,0-0.2l-0.4-0.2C51.7,32.4,51.6,32.4,51.5,32.4z"/>
							</g>
						</g>
					</g>
					<g id="XMLID_16634_">
						<g id="XMLID_16635_">
							<g id="XMLID_16636_">
								<path id="XMLID_16638_" class="st36" d="M46.1,36.3L46.1,36.3L45.7,36c-0.1,0-0.2,0-0.2,0l-0.3,0.2c0,0,0,0,0,0.1v0.1v0.1
									l0.4,0.2c0.1,0,0.2,0,0.2,0l0.3-0.2C46.1,36.4,46.1,36.4,46.1,36.3L46.1,36.3z"/>
								<path id="XMLID_16637_" class="st35" d="M45.5,36l-0.3,0.2c-0.1,0-0.1,0.1,0,0.2l0.4,0.2c0.1,0,0.2,0,0.2,0l0.3-0.2
									c0.1,0,0.1-0.1,0-0.2L45.7,36C45.7,35.9,45.6,35.9,45.5,36z"/>
							</g>
						</g>
					</g>
					<g id="XMLID_16629_">
						<g id="XMLID_16630_">
							<g id="XMLID_16631_">
								<path id="XMLID_16633_" class="st36" d="M46.9,35.9C46.8,35.9,46.8,35.9,46.9,35.9l-0.5-0.3c-0.1,0-0.2,0-0.2,0l-0.3,0.2
									c0,0,0,0,0,0.1V36l0,0l0.4,0.2c0.1,0,0.2,0,0.2,0L46.9,35.9C46.8,36,46.8,36,46.9,35.9L46.9,35.9z"/>
								<path id="XMLID_16632_" class="st35" d="M46.1,35.6l-0.3,0.2c-0.1,0-0.1,0.1,0,0.2l0.4,0.2c0.1,0,0.2,0,0.2,0l0.3-0.2
									c0.1,0,0.1-0.1,0-0.2l-0.4-0.2C46.3,35.5,46.2,35.5,46.1,35.6z"/>
							</g>
						</g>
					</g>
					<g id="XMLID_16624_">
						<g id="XMLID_16625_">
							<g id="XMLID_16626_">
								<path id="XMLID_16628_" class="st36" d="M47.5,35.6C47.5,35.5,47.5,35.5,47.5,35.6L47,35.2c-0.1,0-0.2,0-0.2,0l-0.3,0.2
									c0,0,0,0,0,0.1v0.1v0.1l0.3,0.2c0.1,0,0.2,0,0.2,0l0.3-0.2c0,0,0,0,0-0.1H47.5z"/>
								<path id="XMLID_16627_" class="st35" d="M46.9,35.2l-0.3,0.2c-0.1,0-0.1,0.1,0,0.2l0.4,0.2c0.1,0,0.2,0,0.2,0l0.3-0.2
									c0.1,0,0.1-0.1,0-0.2L46.9,35.2C46.9,35.2,46.9,35.2,46.9,35.2z"/>
							</g>
						</g>
					</g>
					<g id="XMLID_16619_">
						<g id="XMLID_16620_">
							<g id="XMLID_16621_">
								<path id="XMLID_16623_" class="st36" d="M48.3,35C48.3,35,48.3,34.9,48.3,35l-0.5-0.3c-0.1,0-0.2,0-0.2,0L47,35.1
									c0,0,0,0,0,0.1v0.1v0.1l0.4,0.2c0.1,0,0.2,0,0.2,0l0.6-0.3c0,0,0,0,0-0.1L48.3,35z"/>
								<path id="XMLID_16622_" class="st35" d="M47.7,34.6l-0.6,0.3c-0.1,0-0.1,0.1,0,0.2l0.4,0.2c0.1,0,0.2,0,0.2,0l0.6-0.3
									c0.1,0,0.1-0.1,0-0.2l-0.4-0.2C47.9,34.6,47.8,34.6,47.7,34.6z"/>
							</g>
						</g>
					</g>
					<g id="XMLID_16614_">
						<g id="XMLID_16615_">
							<g id="XMLID_16616_">
								<path id="XMLID_16618_" class="st36" d="M53,32.3L53,32.3L52.6,32c-0.1,0-0.2,0-0.2,0l-0.6,0.3c0,0,0,0,0,0.1v0.1v0.1
									l0.4,0.2c0.1,0,0.2,0,0.2,0l0.6-0.3C52.9,32.4,52.9,32.4,53,32.3L53,32.3z"/>
								<path id="XMLID_16617_" class="st35" d="M52.4,32l-0.6,0.3c-0.1,0-0.1,0.1,0,0.2l0.4,0.2c0.1,0,0.2,0,0.2,0l0.6-0.3
									c0.1,0,0.1-0.1,0-0.2L52.6,32C52.6,31.9,52.5,31.9,52.4,32z"/>
							</g>
						</g>
					</g>
					<g id="XMLID_16609_">
						<g id="XMLID_16610_">
							<g id="XMLID_16611_">
								<path id="XMLID_16613_" class="st36" d="M53.7,31.9L53.7,31.9l-0.5-0.3c-0.1,0-0.2,0-0.2,0l-0.3,0.2c0,0,0,0,0,0.1V32l0,0
									l0.4,0.2c0.1,0,0.2,0,0.2,0l0.3-0.2C53.7,32,53.7,32,53.7,31.9L53.7,31.9z"/>
								<path id="XMLID_16612_" class="st35" d="M53.1,31.6l-0.3,0.2c-0.1,0-0.1,0.1,0,0.2l0.4,0.2c0.1,0,0.2,0,0.2,0l0.3-0.2
									c0.1,0,0.1-0.1,0-0.2l-0.4-0.2C53.2,31.5,53.1,31.5,53.1,31.6z"/>
							</g>
						</g>
					</g>
					<g id="XMLID_16604_">
						<g id="XMLID_16605_">
							<g id="XMLID_16606_">
								<path id="XMLID_16608_" class="st36" d="M55.6,30.8L55.6,30.8L55.6,30.8c-0.2-0.1-0.2-0.1-0.2-0.1L55.1,31c0,0,0,0,0,0.1
									v0.1v0.1l0.1,0.1c0.1,0,0.2,0,0.2,0l0.3-0.2c0,0,0,0,0-0.1C55.6,31,55.6,30.8,55.6,30.8z"/>
								<path id="XMLID_16607_" class="st35" d="M55.3,30.6L55,30.9c-0.1,0-0.1,0.1,0,0.2l0.1,0.1c0.1,0,0.2,0,0.2,0l0.3-0.2
									c0.1,0,0.1-0.1,0-0.2l-0.1-0.1C55.4,30.6,55.4,30.6,55.3,30.6z"/>
							</g>
						</g>
					</g>
				</g>
				<g id="XMLID_16598_">
					<g id="XMLID_16599_">
						<g id="XMLID_16600_">
							<path id="XMLID_16602_" class="st36" d="M54.4,31.6C54.4,31.5,54.4,31.5,54.4,31.6L54.4,31.6c-0.2-0.1-0.2-0.1-0.2-0.1
								l-0.3,0.2c0,0,0,0,0,0.1v0.1V32l0.1,0.1c0.1,0,0.2,0,0.2,0l0.3-0.2c0,0,0,0,0-0.1C54.4,31.7,54.4,31.6,54.4,31.6z"/>
							<path id="XMLID_16601_" class="st35" d="M54,31.4l-0.3,0.2c-0.1,0-0.1,0.1,0,0.2l0.1,0.1c0.1,0,0.2,0,0.2,0l0.3-0.2
								c0.1,0,0.1-0.1,0-0.2l-0.1-0.1C54.2,31.3,54.1,31.3,54,31.4z"/>
						</g>
					</g>
				</g>
				<g id="XMLID_16593_">
					<g id="XMLID_16594_">
						<g id="XMLID_16595_">
							<path id="XMLID_16597_" class="st36" d="M54.7,31C54.7,31,54.6,31,54.7,31L54.7,31c-0.2,0-0.3,0-0.3,0l-0.3,0.2
								c0,0,0,0,0,0.1v0.1v0.1l0.1,0.1c0.1,0,0.2,0,0.2,0l0.3-0.2c0,0,0,0,0-0.1S54.7,31,54.7,31z"/>
							<path id="XMLID_16596_" class="st35" d="M54.4,30.8L54,31c-0.1,0-0.1,0.1,0,0.2l0.1,0.1c0.1,0,0.2,0,0.2,0l0.3-0.2
								c0.1,0,0.1-0.1,0-0.2L54.4,30.8L54.4,30.8z"/>
						</g>
					</g>
				</g>
				<g id="XMLID_16588_">
					<g id="XMLID_16589_">
						<g id="XMLID_16590_">
							<path id="XMLID_16592_" class="st36" d="M55,31.2C55,31.2,55,31.1,55,31.2L55,31.2c-0.2-0.1-0.2-0.1-0.2-0.1l-0.3,0.2
								c0,0,0,0,0,0.1v0.1v0.1l0.1,0.1c0.1,0,0.2,0,0.2,0l0.3-0.2c0,0,0,0,0-0.1C55,31.3,55,31.2,55,31.2z"/>
							<path id="XMLID_16591_" class="st35" d="M54.7,31l-0.3,0.2c-0.1,0-0.1,0.1,0,0.2l0.1,0.1c0.1,0,0.2,0,0.2,0l0.3-0.2
								c0.1,0,0.1-0.1,0-0.2L54.7,31L54.7,31z"/>
						</g>
					</g>
				</g>
			</g>
		</g>
	</g>
</g>
<g id="XMLID_16580_">
	<path id="XMLID_16583_" class="st38" d="M39.5,37.8l3.4,2c0.6,0.4,0.6,1.3,0,1.6l-3.4,2c-0.7,0.4-1.5,0.4-2.2,0l-3.4-2
		c-0.6-0.4-0.6-1.3,0-1.6l3.4-2C38,37.4,38.8,37.4,39.5,37.8z"/>
	<path id="XMLID_16582_" class="st39" d="M39.5,37.6l3.4,2c0.6,0.4,0.6,1.3,0,1.6l-3.4,2c-0.7,0.4-1.5,0.4-2.2,0l-3.4-2
		c-0.6-0.4-0.6-1.3,0-1.6l3.4-2C38,37.2,38.8,37.2,39.5,37.6z"/>
	<path id="XMLID_16581_" class="st40" d="M39.5,43.2c-0.7,0.4-1.5,0.4-2.2,0l-3.4-2c-0.6-0.4-0.6-1.3,0-1.6l3.4-2
		c0.7-0.4,1.5-0.4,2.2,0"/>
</g>
<g id="XMLID_16578_">
	<path id="XMLID_16579_" class="st41" d="M55.8,40.7c-3.3,1.3-7,2.2-9.4,2.2c-3.2,0.1-6.3-2-6.3-2l0.1-0.1c0,0,3,2.1,6.3,2
		C48.7,42.8,52.5,42,55.8,40.7L55.8,40.7z"/>
</g>
<polygon id="XMLID_16561_" class="st42" points="58.6,24.9 58.6,36.9 58,36.6 58,24.6 "/>
<g id="XMLID_1_">
	<path id="XMLID_16551_" class="st43" d="M36.5,57.1c0-1-1.6-1.9-3.4-1.9c-1.9,0-3.4,0.9-3.4,1.9c0,0.2,0,0.9,0,1
		c0,1,1.6,1.9,3.4,1.9c1.9,0,3.4-0.9,3.4-1.9C36.5,57.9,36.5,57.3,36.5,57.1z"/>
	<path class="st44" d="M32.9,55.2c-1.1,0-2,0.2-2.7,0.7v3.4c0.6,0.4,1.6,0.7,2.7,0.7c1.9,0,3.4-0.9,3.4-1.9c0-0.2,0-0.9,0-1
		C36.5,56,34.9,55.2,32.9,55.2z"/>
	<ellipse id="XMLID_16545_" class="st45" cx="32.9" cy="57.1" rx="3.4" ry="1.9"/>
	<path class="st46" d="M32.5,59c0.2,0,0.3,0,0.5,0s0.3,0,0.5,0v-3.3h-0.9L32.5,59L32.5,59z"/>
	<path id="XMLID_22_" class="st46" d="M36.5,57.1c0,1-1.6,1.9-3.4,1.9c-1.9,0-3.4-0.9-3.4-1.9"/>
	<rect id="XMLID_21_" x="32.6" y="49.4" class="st47" width="0.7" height="4.1"/>
	<rect x="32.9" y="49.5" class="st44" width="0.5" height="4.1"/>
	<path id="XMLID_20_" class="st47" d="M32.5,53.5V56l0,0c0,0.2,0.2,0.2,0.5,0.2c0.2,0,0.5-0.1,0.5-0.2v-2.6L32.5,53.5L32.5,53.5z"/>
	<rect id="XMLID_19_" x="32.7" y="47.7" class="st48" width="0.5" height="2"/>
	<path id="XMLID_18_" class="st47" d="M33.3,49.2h-0.6c-0.2,0-0.3,0.2-0.3,0.3l0,0c0,0.2,0.2,0.3,0.3,0.3h0.6c0.2,0,0.3-0.2,0.3-0.3
		l0,0C33.6,49.3,33.5,49.2,33.3,49.2z"/>
	<path class="st44" d="M33.3,49.2h-0.8c-0.2,0-0.2,0.1-0.2,0.2v0.1c0,0.2,0.1,0.2,0.2,0.2h0.8c0.2,0,0.2-0.1,0.2-0.2v-0.1
		C33.6,49.2,33.5,49.2,33.3,49.2z"/>
	<g id="XMLID_6_">
		<path id="XMLID_17_" class="st49" d="M36.9,46.3c0-2.4-2.3-4.1-2.6-5.4c-0.2-1-2.5-1-2.7,0c-0.3,1.2-2.6,3-2.6,5.4
			c0,0.1,0,0.2,0,0.2c0,0.8,1.7,1.4,3.9,1.4s3.9-0.6,3.9-1.4C36.9,46.5,36.9,46.3,36.9,46.3z"/>
		<path id="XMLID_16_" class="st50" d="M36.9,46.3c0-2.4-2.3-4.1-2.6-5.4c-0.2-1-2.2-0.7-2.5,0.3c-0.3,1.2-0.2,3.7-2.8,5.1
			c-0.1,0,0,0.2,0,0.2c0,0.8,1.7,1.4,3.9,1.4s3.9-0.6,3.9-1.4C36.9,46.5,36.9,46.3,36.9,46.3z"/>
		<path id="XMLID_15_" class="st51" d="M36.9,46.3c0-2.4-2.3-4.1-2.6-5.4c0,0-3.5,7-1.3,7s3.9-0.6,3.9-1.4
			C36.9,46.5,36.9,46.3,36.9,46.3z"/>
		<path id="XMLID_14_" class="st52" d="M37,46.3c0-0.8-1.8-1.5-4-1.5s-4,0.6-4,1.5v0.2c0,0.8,1.8,1.5,4,1.5s4-0.6,4-1.4
			C37,46.5,37,46.4,37,46.3z"/>
		<ellipse id="XMLID_13_" class="st53" cx="33" cy="46.6" rx="3.7" ry="1.3"/>
		<g id="XMLID_11_">
			<path id="XMLID_12_" class="st54" d="M36.7,46.6c0-0.7-1.6-1.3-3.7-1.3c-0.2,0-0.2,0-0.4,0h-0.1l-0.9,2.6C32,48,32.5,48,33,48
				C35.1,47.9,36.7,47.3,36.7,46.6z"/>
		</g>
		<path class="st55" d="M33,45.2c-1.6,0-3,0.4-3.5,0.9C30,46.6,31.4,47,33,47c1.6,0,3-0.4,3.5-0.9C36,45.6,34.6,45.2,33,45.2z"/>
		<path class="st55" d="M30,45.7c0.7,0.3,1.7,0.5,2.9,0.5s2.3-0.2,2.9-0.5c-0.7-0.3-1.7-0.5-2.9-0.5C31.8,45.2,30.8,45.4,30,45.7z"
			/>
		<g id="XMLID_9_">
			<path id="XMLID_10_" class="st56" d="M31.9,46.2c0.2,0.2,0.5,0.6,1.1,0.6s0.9-0.3,1.1-0.6c0.1-0.2,0.2-0.5,0.2-0.9
				c-0.4-0.1-0.9-0.1-1.3-0.1c-0.5,0-0.9,0-1.3,0.1C31.6,45.7,31.8,46,31.9,46.2z"/>
		</g>
		<g id="XMLID_7_">
			<path id="XMLID_8_" class="st57" d="M32.2,46.1c0.1,0.2,0.4,0.5,0.9,0.5c0.2,0,0.4-0.1,0.5-0.2c0.1-0.1-0.3-0.4-0.7-0.5
				c-0.4-0.2-0.9-0.2-0.9-0.2C32,45.9,32.1,46,32.2,46.1z"/>
		</g>
	</g>
	<g id="XMLID_3_">
		<path id="XMLID_5_" class="st52" d="M33.6,57.8c0-0.2-0.2-0.3-0.6-0.3c-0.3,0-0.6,0.2-0.6,0.3V58c0,0.2,0.2,0.3,0.6,0.3
			c0.3,0,0.6-0.2,0.6-0.3V57.8z"/>
		<ellipse id="XMLID_4_" class="st50" cx="32.9" cy="57.8" rx="0.6" ry="0.3"/>
	</g>
</g>
<g>
	<g id="XMLID_16562_">
		<path id="XMLID_16567_" class="st37" d="M63,37.7l-2.5-1.5c-0.6-0.4-1.4-0.4-2,0l-3.4,2c-0.2,0.2-0.4,0.4-0.4,0.7
			c0,0.1,0,0.4,0,0.5c0,0.2,0.2,0.5,0.4,0.6l2.5,1.5c0.6,0.4,1.4,0.4,2,0l3.4-2c0.2-0.2,0.4-0.5,0.4-0.8c0-0.1,0-0.3,0-0.4
			C63.3,38,63.1,37.8,63,37.7z"/>
		<path class="st58" d="M58.7,36.1h-0.2c0,0-0.1,0-0.1,0.1l-3.4,2c-0.2,0.2-0.4,0.4-0.4,0.7c0,0.1,0,0.4,0,0.5
			c0,0.2,0.2,0.5,0.4,0.6l2.5,1.5c0.4,0.2,0.8,0.3,1.2,0.2V36.1z"/>
		<path id="XMLID_16566_" class="st59" d="M60.3,36.2l2.5,1.5c0.5,0.3,0.5,1,0,1.3l-3.4,2c-0.6,0.4-1.4,0.4-2,0l-2.5-1.5
			c-0.5-0.3-0.5-1,0-1.3l3.4-2C59,35.8,59.7,35.8,60.3,36.2z"/>
		<path id="XMLID_16565_" class="st37" d="M59.5,41c-0.6,0.4-1.4,0.4-2,0l-2.6-1.5c-0.5-0.3-0.5-1,0-1.3l3.4-2c0.6-0.4,1.4-0.4,2,0"
			/>
		<path class="st60" d="M59.5,41l0.8-0.5l0,0c0-0.1,0-2.7,0-2.7c0-0.1-0.1-0.2-0.2-0.2l-0.6-0.3c-0.3-0.2-0.6-0.2-0.9,0l-1.5,0.9
			c-0.1,0.1-0.2,0.2-0.2,0.3c0,0,0,1.5,0,2.3l0.5,0.3C58,41.3,58.8,41.3,59.5,41z"/>
		<g id="XMLID_16563_">
			<path id="XMLID_16564_" class="st61" d="M60.1,35l-0.6-0.3c-0.3-0.2-0.6-0.2-0.9,0l-1.4,0.9c-0.1,0.1-0.2,0.2-0.2,0.3
				s0,2.7,0,2.7c0,0.1,0.1,0.2,0.2,0.2l0.6,0.3c0.3,0.2,0.6,0.2,0.9,0l1.5-0.9c0.1-0.1,0.2-0.2,0.2-0.4c0-0.1,0-2.7,0-2.7
				C60.3,35.2,60.3,35.1,60.1,35z"/>
		</g>
		<path class="st62" d="M58.3,34.9l-1.2,0.7c-0.1,0.1-0.2,0.2-0.2,0.3s0,2.7,0,2.7c0,0.1,0.1,0.2,0.2,0.2l0.6,0.3
			c0.2,0.1,0.4,0.2,0.5,0.1v-4.3H58.3z"/>
		<path class="st62" d="M60.1,35l-0.6-0.3c-0.3-0.2-0.6-0.2-0.9,0l-1.4,0.9c-0.1,0.1-0.2,0.2-0.2,0.3c0,0,0,0.4,0,0.9
			c0,0.3,0,0.5,0,0.5c0,0.1,0.1,0.2,0.2,0.2l0.6,0.3c0.3,0.2,0.6,0.2,0.9,0l1.5-0.9c0.1-0.1,0.2-0.2,0.2-0.4c0,0,0-0.3,0-0.7
			s0-0.6,0-0.6C60.3,35.2,60.3,35.1,60.1,35z"/>
	</g>
	<polygon id="XMLID_16560_" class="st63" points="51.5,28.8 65.6,20.7 65,20.4 51,28.5 	"/>
	<polygon id="XMLID_16559_" class="st37" points="65.6,20.7 65.6,32.7 51.5,40.8 51.5,28.8 	"/>
	<polyline id="XMLID_16558_" class="st2" points="51.5,40.8 51.5,28.8 65.6,20.7 	"/>
	<polygon class="st64" points="64.7,22 52.3,29.2 52.3,30.1 64.7,22.9 	"/>
	<polygon id="XMLID_23_" class="st1" points="51.5,28.8 65.6,20.7 58.1,31.3 	"/>
	<polygon id="XMLID_16557_" class="st0" points="64.7,22 64.7,32.3 52.3,39.5 52.3,29.2 	"/>
</g>
<ellipse class="st50" cx="33.7" cy="46.7" rx="3.9" ry="2.7"/>
<g id="XMLID_24_">
	<g id="XMLID_25_">
		<polygon id="XMLID_27_" class="st0" points="32.6,44.9 32.6,78.2 31.7,78.7 31.7,45.5 		"/>
		<polygon id="XMLID_26_" class="st1" points="4.6,28.8 3.7,29.4 31.7,45.5 32.6,44.9 		"/>
	</g>
	<polygon class="st2" points="3.7,29.4 2.9,28.8 2.9,62 3.7,62.5 31.7,78.7 31.7,45.5 	"/>
	<polyline class="st3" points="31.7,78.7 31.7,45.5 3.7,29.4 2.9,28.8 	"/>
</g>
<g>
	<g id="XMLID_2_">
		<g id="XMLID_76_">
			<path id="XMLID_77_" class="st41" d="M39.9,39.7l-1.6-0.9c-0.4-0.2-0.9-0.3-1.5-0.2l0,0c-1.1,0.2-1.3,1.3-0.5,1.7l1.6,0.9
				c0.4,0.2,0.9,0.3,1.5,0.2l0,0C40.5,41.2,40.8,40.3,39.9,39.7z"/>
		</g>
	</g>
	<path id="XMLID_79_" class="st65" d="M35.9,39.8c0.1,0.2,0.7,0.6,1.3,1c0.5,0.2,0.9,0.5,1.2,0.6c0,0,1-1.4,1.3-1.8
		c-0.2-0.2-0.4-0.2-0.9-0.5c-0.2-0.2-0.4-0.2-0.5-0.3c-0.2-0.2-0.3-0.2-0.5-0.2c-0.3-0.1-0.4-0.1-0.7-0.1
		C36.1,38.6,35.6,39.2,35.9,39.8z"/>
	<path id="XMLID_16573_" class="st66" d="M38.4,41.3c0.2,0.1,0.9,0.1,1.3,0c0.2-0.1,0.5-0.3,0.7-0.5c0.2-0.5,0.1-0.6-0.2-1
		c-0.1-0.1-0.3-0.3-0.5-0.3C39.6,39.6,38.8,40.6,38.4,41.3z"/>
	<g id="XMLID_16570_">
		<path id="XMLID_16571_" class="st65" d="M39.1,40.3c0.2,0.1,0.9,0.5,1.1,0.8c0,0,0.1,0,0.1-0.1c-0.2-0.2-0.2-0.2-0.4-0.4
			C39.7,40.4,39.2,40.3,39.1,40.3z"/>
	</g>
	<path id="XMLID_86_" class="st67" d="M36,39.1c-0.1,0-0.2,0.5-0.1,0.7c0.1,0.2,0.7,0.6,1.3,1c0.5,0.2,0.9,0.5,1.2,0.6
		c0,0,0.2-0.2,0.2-0.3C37.8,40.8,36.3,39.8,36,39.1z"/>
	<path id="XMLID_130_" class="st68" d="M38.6,41c-0.1,0.2-0.1,0.2-0.2,0.4c0.2,0.1,1.1,0.2,1.6-0.2C39.4,41.3,39,41.3,38.6,41z"/>
</g>
<g id="Layer_2">
	<g id="XMLID_127_">
		<polygon id="XMLID_129_" class="st1" points="77.4,19.2 78.3,19.8 32.5,46 31.7,45.5 		"/>
		<polygon id="XMLID_128_" class="st0" points="78.3,19.8 78.3,52.9 32.5,79.2 32.5,46 		"/>
		<polyline id="XMLID_16544_" class="st3" points="78.3,19.8 78.3,52.9 32.5,79.2 		"/>
	</g>
</g>
</svg>
