<?xml version="1.0" encoding="utf-8"?>
<!-- Generator: Adobe Illustrator 21.0.0, SVG Export Plug-In . SVG Version: 6.00 Build 0)  -->
<svg version="1.1" xmlns="http://www.w3.org/2000/svg" xmlns:xlink="http://www.w3.org/1999/xlink" x="0px" y="0px"
	 viewBox="0 0 100 100" style="enable-background:new 0 0 100 100;" xml:space="preserve">
<style type="text/css">
	.st0{fill:#E8E7E7;}
	.st1{fill:#FFFFFF;}
	.st2{fill:#D1D2D8;}
	.st3{opacity:0.2;fill:#D1D2D8;enable-background:new    ;}
	.st4{fill:#C5C7C9;}
	.st5{fill:#9C9FA0;}
	.st6{fill:#EFF0F0;}
	.st7{fill:#1B1E1E;}
	.st8{fill:#252828;}
	.st9{fill:#474847;}
	.st10{fill:#3F4040;}
	.st11{fill:#3A3A3A;}
	.st12{fill:#353535;}
	.st13{fill:#1F2121;}
	.st14{fill:#2A2B2A;}
	.st15{fill:#393A39;}
	.st16{fill:#C5C6C7;}
	.st17{fill:#AEAEAE;}
	.st18{fill:#B0B3B5;}
	.st19{fill:#DDDFDE;}
	.st20{fill:#DBDBD9;}
	.st21{fill:#E4E4E3;}
	.st22{fill:#EFEFEF;}
	.st23{fill:#ECECEE;}
	.st24{fill:#F7F8F9;}
	.st25{fill:#41B349;}
	.st26{fill:#80C576;}
	.st27{fill:#C23728;}
	.st28{fill:#CD483C;}
	.st29{fill:#C06B2A;}
	.st30{fill:#CE7C43;}
	.st31{fill:#7C8187;}
	.st32{opacity:0.3;fill:#7C8187;enable-background:new    ;}
	.st33{fill:#C2C2C2;}
	.st34{fill:#777576;}
	.st35{fill:#A4A3A3;}
	.st36{fill:#636467;}
	.st37{fill:#595A5B;}
	.st38{fill:#9A735A;}
	.st39{fill:#59595C;}
	.st40{fill:#C29C77;}
	.st41{opacity:0.2;fill:#C29C77;enable-background:new    ;}
	.st42{fill:#AEABA8;}
	.st43{fill:#888582;}
	.st44{opacity:0.2;fill:#888582;enable-background:new    ;}
	.st45{fill:#5C5653;}
	.st46{fill:#E7E6E7;}
	.st47{fill:#D0D1D1;}
	.st48{fill:#DCDCDB;}
	.st49{fill:#C6C4C3;}
	.st50{fill:#74BF45;}
	.st51{fill:#50A647;}
	.st52{fill:#429A45;}
	.st53{fill:#2D2D2D;}
	.st54{fill:#A19F9F;}
	.st55{fill:#474948;}
	.st56{opacity:0.3;fill:#515352;enable-background:new    ;}
	.st57{fill:#575858;}
	.st58{opacity:0.2;fill:#515352;enable-background:new    ;}
	.st59{fill:#515352;}
	.st60{fill:#3A3B3A;}
	.st61{fill:#72B1CB;}
	.st62{fill:#5F8FA9;}
	.st63{fill:#5988A6;}
	.st64{fill:#3C6984;}
	.st65{fill:#DFDFDF;}
	.st66{fill:#D7D7D6;}
	.st67{opacity:0.8;fill:#DFDFDF;enable-background:new    ;}
	.st68{fill:#EEBE69;}
	.st69{fill:#FFCD80;}
	.st70{fill:#AEADAD;}
	.st71{fill:#D2D2D2;}
	.st72{opacity:0.5;fill:#BBBBBB;enable-background:new    ;}
	.st73{fill:#BBBBBB;}
	.st74{opacity:0.2;fill:#444445;enable-background:new    ;}
	.st75{fill:#ECEAEA;}
	.st76{opacity:0.3;fill:#444445;enable-background:new    ;}
	.st77{fill:#525354;}
	.st78{fill:#6D6F6E;}
	.st79{fill:#3F3F3F;}
	.st80{fill:#5E5E5E;}
</style>
<g id="Layer_1">
	<g id="XMLID_122_">
		<g id="XMLID_124_">
			<polygon id="XMLID_126_" class="st0" points="97.7,23.1 97.7,65.5 96.6,66.2 96.6,23.8 			"/>
			<polygon id="XMLID_125_" class="st1" points="62,2.5 60.8,3.2 96.6,23.8 97.7,23.1 			"/>
		</g>
		<polygon id="XMLID_123_" class="st2" points="60.8,3.2 60.8,45.6 96.6,66.2 96.6,23.8 		"/>
		<polyline id="XMLID_16543_" class="st3" points="60.8,3.2 60.8,45.6 96.6,66.2 		"/>
	</g>
	<g id="XMLID_55739_">
		<g id="XMLID_55747_">
			<g id="XMLID_55803_">
				<g id="XMLID_55807_">
					<path id="XMLID_55809_" class="st4" d="M58.6,30.9c0-0.2-0.1-0.4-0.4-0.5l0,0c-0.3-0.2-0.7-0.2-1-0.1v0
						c-0.4,0.1-0.7,0.4-0.7,0.6c0,0.2,0,4.4,0,4.5c0,0.2,0.1,0.4,0.4,0.5c0.3,0.2,0.7,0.2,1,0.1l0,0c0.4-0.1,0.7-0.4,0.7-0.6V30.9z"
						/>
					<path class="st5" d="M58.2,30.4c-0.3-0.2-0.7-0.2-1-0.1v0c-0.4,0.1-0.7,0.4-0.7,0.6c0,0,0,0.2,0,0.4c0,0.8,0,1.6,0,1.6
						c0,0.2,0.1,0.4,0.4,0.5c0.3,0.2,0.7,0.2,1,0.1c0.4-0.1,0.7-0.4,0.7-0.6v-2.1C58.6,30.8,58.5,30.6,58.2,30.4z"/>
					<path id="XMLID_55808_" class="st6" d="M58.2,30.4L58.2,30.4c0.6,0.4,0.4,1-0.3,1.2l0,0c-0.3,0.1-0.7,0-1-0.1l0,0
						c-0.6-0.4-0.4-1,0.3-1.2v0C57.6,30.2,58,30.3,58.2,30.4z"/>
				</g>
			</g>
			<g id="XMLID_55786_">
				<path id="XMLID_55789_" class="st7" d="M63.5,33.1L63.5,33.1c0,0-4.8-2.8-4.8-2.8l0,0c-0.4-0.2-1-0.3-1.5-0.2l0,0
					c-1.1,0.3-1.4,1.2-0.5,1.7c0,0,4.7,2.8,4.8,2.8l0,0c0.4,0.2,1,0.3,1.5,0.2l0,0C64.1,34.6,64.4,33.6,63.5,33.1z"/>
				<path id="XMLID_55788_" class="st8" d="M64.2,33.2c0-0.3-0.2-0.6-0.5-0.8l0,0c0,0-5-2.9-5-2.9l0,0c-0.4-0.2-1-0.3-1.5-0.2v0
					c-0.6,0.1-1,0.5-1,0.9c0,0.1,0,0.4,0,0.4c0,0.3,0.2,0.5,0.5,0.7c0,0,5,2.9,5,2.9c0.4,0.2,1,0.3,1.5,0.2l0,0c0.6-0.1,1-0.5,1-0.9
					C64.2,33.5,64.2,33.2,64.2,33.2z"/>
				<path id="XMLID_55787_" class="st9" d="M63.5,32L63.5,32c0,0-4.8-2.8-4.8-2.8l0,0c-0.4-0.2-1-0.3-1.5-0.2l0,0
					c-1.1,0.3-1.4,1.2-0.5,1.7c0,0,4.7,2.8,4.8,2.8l0,0c0.4,0.2,1,0.3,1.5,0.2l0,0C64.1,33.4,64.4,32.5,63.5,32z"/>
				<path id="XMLID_39098_" class="st10" d="M61.5,33.5L61.5,33.5c0.4,0.2,1,0.3,1.5,0.2l0,0c1.1-0.3,1.4-1.2,0.5-1.7l0,0
					c0,0-4.8-2.8-4.8-2.8l0,0c-0.4-0.2-1-0.3-1.5-0.2l0,0"/>
			</g>
		</g>
		<g id="XMLID_55755_">
			<path id="XMLID_55785_" class="st9" d="M55.4,52L55.4,52c0.8,0.5,0.5,1.3-0.4,1.5l0,0c-0.4,0.1-0.9,0-1.3-0.2l0,0
				c-0.8-0.5-0.5-1.3,0.4-1.5l0,0C54.5,51.7,55,51.8,55.4,52z"/>
			<path id="XMLID_55784_" class="st9" d="M55.4,52L55.4,52c0.8,0.5,0.5,1.3-0.4,1.5l0,0c-0.4,0.1-0.9,0-1.3-0.2l0,0
				c-0.8-0.5-0.5-1.3,0.4-1.5l0,0C54.5,51.7,55,51.8,55.4,52z"/>
			<path id="XMLID_55783_" class="st9" d="M58.2,46.9L58.2,46.9c0.8,0.5,0.5,1.3-0.4,1.5l0,0c-0.4,0.1-0.9,0-1.3-0.2l0,0
				c-0.8-0.5-0.5-1.3,0.4-1.5l0,0C57.3,46.6,57.8,46.7,58.2,46.9z"/>
			<path id="XMLID_55782_" class="st9" d="M47.9,48.5L47.9,48.5c0.8,0.5,0.5,1.3-0.4,1.5l0,0c-0.4,0.1-0.9,0-1.3-0.2l0,0
				c-0.8-0.5-0.5-1.3,0.4-1.5l0,0C47.1,48.2,47.6,48.3,47.9,48.5z"/>
			<path id="XMLID_55781_" class="st9" d="M48.6,56.3L48.6,56.3c0.8,0.5,0.5,1.3-0.4,1.5l0,0c-0.4,0.1-0.9,0-1.3-0.2l0,0
				c-0.8-0.5-0.5-1.3,0.4-1.5l0,0C47.8,56,48.3,56.1,48.6,56.3z"/>
			<path id="XMLID_55780_" class="st9" d="M58,58.1L58,58.1c0.8,0.5,0.5,1.3-0.4,1.5l0,0c-0.4,0.1-0.9,0-1.3-0.2l0,0
				c-0.8-0.5-0.5-1.3,0.4-1.5v0C57.1,57.8,57.6,57.9,58,58.1z"/>
			<path id="XMLID_55779_" class="st9" d="M64.3,51.8L64.3,51.8c0.8,0.5,0.5,1.3-0.4,1.5l0,0c-0.4,0.1-0.9,0-1.3-0.2l0,0
				c-0.8-0.5-0.5-1.3,0.4-1.5l0,0C63.4,51.5,63.9,51.6,64.3,51.8z"/>
			<path id="XMLID_55778_" class="st11" d="M47.9,49.2L47.9,49.2c0.8,0.5,0.5,1.3-0.4,1.5l0,0c-0.4,0.1-0.9,0-1.3-0.2l0,0
				c-0.8-0.5-0.5-1.3,0.4-1.5l0,0C47.1,48.9,47.6,49,47.9,49.2z"/>
			<path id="XMLID_55777_" class="st11" d="M58.2,47.6L58.2,47.6c0.8,0.5,0.5,1.3-0.4,1.5l0,0c-0.4,0.1-0.9,0-1.3-0.2l0,0
				c-0.8-0.5-0.5-1.3,0.4-1.5l0,0C57.3,47.4,57.8,47.4,58.2,47.6z"/>
			<path id="XMLID_55776_" class="st11" d="M48.6,57.1L48.6,57.1c0.8,0.5,0.5,1.3-0.4,1.5l0,0c-0.4,0.1-0.9,0-1.3-0.2l0,0
				c-0.8-0.5-0.5-1.3,0.4-1.5l0,0C47.8,56.8,48.3,56.8,48.6,57.1z"/>
			<path id="XMLID_55775_" class="st11" d="M58,58.8L58,58.8c0.8,0.5,0.5,1.3-0.4,1.5l0,0c-0.4,0.1-0.9,0-1.3-0.2l0,0
				c-0.8-0.5-0.5-1.3,0.4-1.5l0,0C57.1,58.5,57.6,58.6,58,58.8z"/>
			<path id="XMLID_55774_" class="st11" d="M64.3,52.5L64.3,52.5c0.8,0.5,0.5,1.3-0.4,1.5l0,0c-0.4,0.1-0.9,0-1.3-0.2l0,0
				c-0.8-0.5-0.5-1.3,0.4-1.5l0,0C63.4,52.2,63.9,52.3,64.3,52.5z"/>
			<path id="XMLID_55773_" class="st11" d="M47.9,49.6L47.9,49.6c0.8,0.5,0.5,1.3-0.4,1.5l0,0c-0.4,0.1-0.9,0-1.3-0.2l0,0
				c-0.8-0.5-0.5-1.3,0.4-1.5l0,0C47.1,49.4,47.6,49.4,47.9,49.6z"/>
			<path id="XMLID_55772_" class="st11" d="M58.2,48.1L58.2,48.1c0.8,0.5,0.5,1.3-0.4,1.5l0,0c-0.4,0.1-0.9,0-1.3-0.2l0,0
				c-0.8-0.5-0.5-1.3,0.4-1.5l0,0C57.3,47.8,57.8,47.8,58.2,48.1z"/>
			<path id="XMLID_55771_" class="st11" d="M48.6,57.5L48.6,57.5c0.8,0.5,0.5,1.3-0.4,1.5l0,0c-0.4,0.1-0.9,0-1.3-0.2l0,0
				c-0.8-0.5-0.5-1.3,0.4-1.5l0,0C47.8,57.2,48.3,57.3,48.6,57.5z"/>
			<path id="XMLID_55770_" class="st11" d="M58,59.2L58,59.2c0.8,0.5,0.5,1.3-0.4,1.5l0,0c-0.4,0.1-0.9,0-1.3-0.2l0,0
				c-0.8-0.5-0.5-1.3,0.4-1.5l0,0C57.1,59,57.6,59,58,59.2z"/>
			<path id="XMLID_55769_" class="st11" d="M64.3,53L64.3,53c0.8,0.5,0.5,1.3-0.4,1.5l0,0c-0.4,0.1-0.9,0-1.3-0.2v0
				c-0.8-0.5-0.5-1.3,0.4-1.5l0,0C63.4,52.7,63.9,52.7,64.3,53z"/>
			<path id="XMLID_55768_" class="st9" d="M54.4,53.1l-0.5-0.4l-6.9,3.6c0,0,0,0,0,0l-0.1,0l0,0c-0.6,0.3-0.6,1,0,1.4l0,0
				c0.4,0.2,0.9,0.3,1.3,0.2l0,0c0.3-0.1,0.5-0.2,0.7-0.4L54.4,53.1z"/>
			<path id="XMLID_55767_" class="st9" d="M54.5,52.2l-6.7-3.8l0,0c-0.3-0.2-0.8-0.2-1.2-0.1l0,0c-1,0.2-1.2,1.1-0.4,1.5l0,0
				c0.2,0.1,0.4,0.2,0.6,0.2l7,2.6L54.5,52.2z"/>
			<path id="XMLID_55766_" class="st9" d="M58.6,47.7L58.6,47.7c0.1-0.3-0.1-0.6-0.4-0.8l0,0c-0.4-0.2-0.9-0.3-1.3-0.2l0,0
				c-0.5,0.1-0.8,0.4-0.9,0.8l0,0l0,0c0,0,0,0.1,0,0.1l-1.6,4.8l0.6,0l3.5-4.4C58.6,47.9,58.6,47.8,58.6,47.7L58.6,47.7z"/>
			<path id="XMLID_55765_" class="st9" d="M64.3,51.8c-0.3-0.2-0.7-0.3-1.1-0.2l0,0l-8.4,0.8l0.2,0.6l8.1,0.4c0.1,0,0.3,0,0.4,0l0,0
				l0,0c0.1,0,0.2,0,0.3,0C64.8,53.1,65,52.2,64.3,51.8z"/>
			<path id="XMLID_55764_" class="st9" d="M58.3,58.5L58.3,58.5L58.3,58.5C58.3,58.4,58.3,58.4,58.3,58.5l-3.6-5.9l-0.5,0.1l1.5,6.1
				l0,0c0,0.2,0.1,0.5,0.5,0.7l0,0c0.4,0.2,0.9,0.3,1.3,0.2C58.3,59.4,58.6,58.9,58.3,58.5z"/>
			<path id="XMLID_55763_" class="st9" d="M55.4,52L55.4,52c0.8,0.5,0.5,1.3-0.4,1.5l0,0c-0.4,0.1-0.9,0-1.3-0.2l0,0
				c-0.8-0.5-0.5-1.3,0.4-1.5l0,0C54.5,51.7,55,51.8,55.4,52z"/>
			<path id="XMLID_55762_" class="st9" d="M54.4,53.1l-0.5-0.4l-6.9,3.6c0,0,0,0,0,0l-0.1,0l0,0c-0.6,0.3-0.6,1,0,1.4l0,0
				c0.4,0.2,0.9,0.3,1.3,0.2l0,0c0.3-0.1,0.5-0.2,0.7-0.4L54.4,53.1z"/>
			<path id="XMLID_55761_" class="st9" d="M54.5,52.2l-6.7-3.8l0,0c-0.3-0.2-0.8-0.2-1.2-0.1l0,0c-1,0.2-1.2,1.1-0.4,1.5l0,0
				c0.2,0.1,0.4,0.2,0.6,0.2l7,2.6L54.5,52.2z"/>
			<path id="XMLID_55760_" class="st9" d="M58.6,47.7L58.6,47.7c0.1-0.3-0.1-0.6-0.4-0.8l0,0c-0.4-0.2-0.9-0.3-1.3-0.2l0,0
				c-0.5,0.1-0.8,0.4-0.9,0.8l0,0l0,0c0,0,0,0.1,0,0.1l-1.6,4.8l0.6,0l3.5-4.4C58.6,47.9,58.6,47.8,58.6,47.7L58.6,47.7z"/>
			<path id="XMLID_55759_" class="st9" d="M64.3,51.8c-0.3-0.2-0.7-0.3-1.1-0.2l0,0l-8.4,0.8l0.2,0.6l8.1,0.4c0.1,0,0.3,0,0.4,0l0,0
				l0,0c0.1,0,0.2,0,0.3,0C64.8,53.1,65,52.2,64.3,51.8z"/>
			<path id="XMLID_55758_" class="st9" d="M58.3,58.5L58.3,58.5L58.3,58.5C58.3,58.4,58.3,58.4,58.3,58.5l-3.6-5.9l-0.5,0.1l1.5,6.1
				l0,0c0,0.2,0.1,0.5,0.5,0.7l0,0c0.4,0.2,0.9,0.3,1.3,0.2C58.3,59.4,58.6,58.9,58.3,58.5z"/>
			<path id="XMLID_55757_" class="st8" d="M64.3,51.2c-0.3-0.2-0.7-0.3-1.1-0.2l0,0l-7.5,0.7c-0.1-0.1-0.2-0.2-0.3-0.2l3.1-3.5
				c0-0.1,0.1-0.1,0.1-0.2l0,0h0c0-0.1,0-0.1,0-0.2c0-0.1,0-0.6,0-0.6c0-0.2-0.2-0.5-0.5-0.6c-0.4-0.2-0.9-0.3-1.3-0.2l0,0
				c-0.5,0.1-0.8,0.4-0.9,0.8l0,0l0,0c0,0,0,0.1,0,0.1l-1.5,4.2c-0.1,0-0.2,0-0.4,0l0,0c-0.1,0-0.1,0-0.2,0l-6.1-3.5l0,0
				c-0.3-0.2-0.8-0.2-1.2-0.1c-0.5,0.1-0.8,0.4-0.9,0.8c0,0.1,0,0.6,0,0.7c0,0.2,0.1,0.5,0.5,0.7l0,0c0.2,0.1,0.4,0.2,0.6,0.2
				l6.4,2.4l-6.2,3.2c0,0,0,0,0,0l-0.1,0l0,0c-0.3,0.2-0.4,0.4-0.4,0.7c0,0.1,0,0.6,0,0.7c0,0.2,0.2,0.4,0.5,0.6l0,0
				c0.4,0.2,0.9,0.3,1.3,0.2l0,0c0.3-0.1,0.5-0.2,0.7-0.4l5.1-4c0.2,0.1,0.4,0.1,0.6,0.1l1.3,5.2l0,0c0,0.2,0.1,0.5,0.5,0.7
				c0.4,0.2,0.9,0.3,1.3,0.2c0.5-0.1,0.9-0.5,0.9-0.8c0-0.1,0-0.6,0-0.7c0-0.1,0-0.2-0.1-0.3l0,0l0,0c0,0,0,0,0-0.1l-2.8-4.5
				c0.1-0.1,0.2-0.2,0.2-0.3l7.3,0.4c0.1,0,0.3,0,0.4,0l0,0l0,0c0.1,0,0.2,0,0.3,0c0.6-0.1,0.9-0.5,0.9-0.8c0-0.1,0-0.6,0-0.7
				C64.7,51.5,64.5,51.3,64.3,51.2z"/>
			<path id="XMLID_55756_" class="st12" d="M64.3,51.2c-0.3-0.2-0.7-0.3-1.1-0.2l0,0l-7.5,0.7c-0.1-0.1-0.2-0.2-0.3-0.3l0,0
				c-0.1,0-0.1-0.1-0.2-0.1l3.3-4c0-0.1,0.1-0.1,0.1-0.2l0,0h0c0.1-0.3-0.1-0.6-0.4-0.8c-0.4-0.2-0.9-0.3-1.3-0.2l0,0
				c-0.5,0.1-0.8,0.4-0.9,0.8l0,0l0,0c0,0,0,0.1,0,0.1l-1.5,4.2c-0.1,0-0.2,0-0.4,0l0,0c-0.1,0-0.1,0-0.2,0l-6.1-3.5l0,0
				c-0.3-0.2-0.8-0.2-1.2-0.1c-1,0.2-1.2,1.1-0.4,1.5l0,0c0.2,0.1,0.4,0.2,0.6,0.2l6.4,2.4c-0.1,0.2-0.1,0.4,0,0.5l-6.4,3.3
				c0,0,0,0,0,0l-0.1,0l0,0c-0.6,0.3-0.6,1,0,1.4l0,0c0.4,0.2,0.9,0.3,1.3,0.2l0,0c0.3-0.1,0.5-0.2,0.7-0.4l5.1-4
				c0.2,0.1,0.4,0.1,0.6,0.1l1.3,5.2l0,0c0,0.2,0.1,0.5,0.5,0.7c0.4,0.2,0.9,0.3,1.3,0.2c0.7-0.2,1-0.7,0.8-1.1l0,0l0,0
				c0,0,0,0,0-0.1l-3-5c0.2-0.1,0.4-0.3,0.5-0.5l7.3,0.4c0.1,0,0.3,0,0.4,0l0,0l0,0c0.1,0,0.2,0,0.3,0C64.8,52.5,65,51.6,64.3,51.2z
				"/>
		</g>
		<path id="XMLID_55754_" class="st4" d="M54.5,38.1l-1,0.6c0,0,0,12.8,0,13.2c0,0.3,0.3,0.8,1,0.8c0.6,0,1-0.4,1-0.8
			c0-0.3,0-13.2,0-13.2L54.5,38.1z"/>
		<path id="XMLID_39095_" class="st5" d="M54.5,34.3l-1,0.6c0,0,0,12.8,0,13.2c0,0.3,0.3,0.8,1,0.8c0.6,0,1-0.4,1-0.8
			c0-0.3,0-13.2,0-13.2L54.5,34.3z"/>
		<g id="XMLID_55746_">
			<path id="XMLID_55745_" class="st13" d="M62.5,36.3l-6-2.5c-2.2-1.5-5.1-1.6-7.4-0.3l-2.3,1.3c-0.9,0.5-1.4,1.5-1.5,2.4
				c0,0.3,0,1.6,0,1.9c0,0.6,0.3,1.2,0.7,1.7c0.3,0.3,6,4.5,6,4.5c2.1,1,4.5,0.9,6.5-0.1l3.9-2.3c0.7-0.6,1.2-1.3,1.4-2
				c0.1-0.5,0.1-2.2,0.1-2.6C63.7,37.6,63.3,36.8,62.5,36.3z"/>
			<path class="st7" d="M62.5,36.3l-6-2.5c-0.6-0.4-1.2-0.7-1.9-0.9v13.2c1.3,0.1,2.7-0.2,3.9-0.8l3.9-2.3c0.7-0.6,1.2-1.3,1.4-2
				c0.1-0.5,0.1-2.2,0.1-2.6C63.7,37.6,63.3,36.8,62.5,36.3z"/>
			<path id="XMLID_55744_" class="st8" d="M56.5,33.8l6,2.5c1.8,1.2,1.7,3.9-0.2,5l-3.9,2.3c-2,1.1-4.4,1.2-6.5,0.3
				c0,0-5.6-4.2-5.9-4.4c-1.3-1.3-1.1-3.6,0.7-4.6l2.3-1.3C51.4,32.2,54.3,32.3,56.5,33.8z"/>
			<path id="XMLID_55738_" class="st14" d="M62.5,35.6c1.8,1.2,1.7,3.9-0.2,5L58.5,43c-2,1.1-4.4,1.2-6.5,0.3c0,0-5.7-4.2-6-4.5
				c-1.1-1.3-0.9-3.5,0.8-4.5l2.3-1.3c1.7-1,3.8-1.2,5.6-0.6C55.3,32.5,62.5,35.6,62.5,35.6z"/>
		</g>
		<g id="XMLID_55750_">
			<path id="XMLID_55795_" class="st9" d="M53.2,26l-1-6.9c-0.4-2.6-3.2-4.6-5.3-3.6l-2.8,1.2c-2.2,1-3.5,3.2-3.6,5.8l-0.2,8.2
				c0,2.8,3.1,5.2,5.4,4.2l4.1-1.8C52.3,32,53.7,29.2,53.2,26z"/>
			<path id="XMLID_55794_" class="st10" d="M54.1,26.3l-1-6.9c-0.4-2.6-3.2-4.6-5.3-3.6L45,17.1c-2.2,1-3.5,3.2-3.6,5.8L41.2,31
				c0,2.8,3.1,5.2,5.4,4.2l4.1-1.8C53.2,32.2,54.5,29.5,54.1,26.3z"/>
			<path id="XMLID_55793_" class="st15" d="M54.8,26.8l-0.5-3.4l-0.5-3.4c-0.4-2.6-3.2-4.6-5.3-3.6l-2.8,1.2c-2.2,1-3.5,3.2-3.6,5.8
				L42,25.6l0,1l-0.1,4.9c0,2.8,3.1,5.2,5.4,4.2l4.1-1.8C53.8,32.8,55.2,30,54.8,26.8z"/>
			<g id="XMLID_55749_">
				<path id="XMLID_55751_" class="st8" d="M55.8,26.7l-1-3.9l-0.4-2.6c-0.4-2.6-3.2-4.6-5.3-3.6l-2.8,1.2c-2.2,1-3.5,3.2-3.6,5.8
					l-0.1,2.2l0,1l-0.3,4.7c0,2.8,3.2,4.7,5.5,3.7l4.1-1.8C54.5,32.3,56.2,29.9,55.8,26.7z"/>
				<path id="XMLID_39089_" class="st7" d="M46.3,17.8c-2.2,1-3.5,3.2-3.6,5.8l-0.1,2.2l0,1l-0.3,4.7c0,2.8,3.2,4.7,5.5,3.7l4.1-1.8
					c2.6-1.1,4.3-3.6,3.8-6.8l-1-3.9"/>
				<path id="XMLID_55752_" class="st7" d="M46.5,35.6c-0.8,0-1.6-0.2-2.3-0.7c-1.2-0.8-1.9-2-1.9-3.3l0.3-4.7l0.1-3.2
					c0-2.7,1.4-4.9,3.6-5.9l2.8-1.2c0.9-0.4,2-0.3,3,0.3c1.3,0.7,2.2,2,2.4,3.4l0.4,2.6l1,3.9c0.2,1.5-0.1,3-0.8,4.2
					C54.3,32,53.3,33,52,33.5l-4.1,1.8C47.5,35.5,47,35.6,46.5,35.6z M50.2,16.4c-0.4,0-0.8,0.1-1.1,0.2l-2.8,1.2
					c-2.2,1-3.5,3.1-3.5,5.8l-0.1,3.2l-0.3,4.7c0,1.3,0.7,2.5,1.8,3.2c1.1,0.7,2.5,0.9,3.6,0.4l4.1-1.8c1.3-0.6,2.3-1.5,3-2.6
					c0.7-1.2,1-2.6,0.8-4.1l-1-3.9l-0.4-2.6c-0.2-1.3-1.1-2.6-2.3-3.3C51.4,16.5,50.8,16.4,50.2,16.4z"/>
			</g>
		</g>
		<g id="XMLID_55748_">
			<g id="XMLID_55796_">
				<g id="XMLID_55800_">
					<path id="XMLID_55802_" class="st4" d="M48.1,37c0-0.2-0.1-0.4-0.4-0.5l0,0c-0.3-0.2-0.7-0.2-1-0.1l0,0
						c-0.4,0.1-0.7,0.4-0.7,0.6c0,0.2,0,4.4,0,4.5c0,0.2,0.1,0.4,0.4,0.5c0.3,0.2,0.7,0.2,1,0.1l0,0c0.4-0.1,0.7-0.4,0.7-0.6V37z"/>
					<path class="st5" d="M47.8,36.5c-0.3-0.2-0.7-0.2-1-0.1c-0.4,0.1-0.7,0.4-0.7,0.6c0,0,0,0.2,0,0.4c0,0.8,0,1.6,0,1.6
						c0,0.2,0.1,0.4,0.4,0.5c0.3,0.2,0.7,0.2,1,0.1c0.4-0.1,0.7-0.4,0.7-0.6V37C48.1,36.8,48,36.6,47.8,36.5z"/>
					<path id="XMLID_55801_" class="st6" d="M47.8,36.5L47.8,36.5c0.6,0.4,0.4,1-0.3,1.2l0,0c-0.3,0.1-0.7,0-1-0.1l0,0
						c-0.6-0.4-0.4-1,0.3-1.2l0,0C47.1,36.3,47.5,36.3,47.8,36.5z"/>
				</g>
			</g>
			<g id="XMLID_55740_">
				<path id="XMLID_55743_" class="st7" d="M53.1,39.2L53.1,39.2c0,0-4.8-2.8-4.8-2.8l0,0c-0.4-0.2-1-0.3-1.5-0.2l0,0
					c-1.1,0.3-1.4,1.2-0.5,1.7c0,0,4.7,2.8,4.8,2.8l0,0c0.4,0.2,1,0.3,1.5,0.2l0,0C53.7,40.6,53.9,39.7,53.1,39.2z"/>
				<path id="XMLID_55742_" class="st8" d="M53.7,39.2c0-0.3-0.2-0.6-0.5-0.8l0,0c0,0-5-2.9-5-2.9l0,0c-0.4-0.2-1-0.3-1.5-0.2l0,0
					c-0.6,0.1-1,0.5-1,0.9c0,0.1,0,0.4,0,0.4c0,0.3,0.2,0.5,0.5,0.7c0,0,5,2.9,5,2.9c0.4,0.2,1,0.3,1.5,0.2l0,0c0.6-0.1,1-0.5,1-0.9
					C53.7,39.6,53.7,39.3,53.7,39.2z"/>
				<path id="XMLID_55741_" class="st9" d="M53.1,38L53.1,38c0,0-4.8-2.8-4.8-2.8l0,0c-0.4-0.2-1-0.3-1.5-0.2l0,0
					c-1.1,0.3-1.4,1.2-0.5,1.7c0,0,4.7,2.8,4.8,2.8l0,0c0.4,0.2,1,0.3,1.5,0.2l0,0C53.7,39.5,53.9,38.5,53.1,38z"/>
				<path id="XMLID_39097_" class="st10" d="M51.1,39.6L51.1,39.6c0.4,0.2,1,0.3,1.5,0.2l0,0c1.1-0.3,1.4-1.2,0.5-1.7l0,0
					c0,0-4.8-2.8-4.8-2.8l0,0c-0.4-0.2-1-0.3-1.5-0.2l0,0"/>
			</g>
		</g>
	</g>
	<g id="XMLID_82_">
		<polygon id="XMLID_121_" class="st16" points="30.3,58.2 30.3,81.2 50.5,92.9 50.5,69.9 		"/>
		<polygon id="XMLID_120_" class="st17" points="28.1,78 17.3,84.2 40.4,97.6 51.2,91.3 		"/>
		<polygon id="XMLID_119_" class="st18" points="51.2,69.5 51.2,92.5 50.5,92.9 50.5,69.9 		"/>
		<polygon id="XMLID_118_" class="st16" points="30.3,57 30.3,80.1 50.5,91.7 50.5,68.7 		"/>
		<g id="XMLID_83_">
			<g id="XMLID_102_">
				<polygon id="XMLID_117_" class="st19" points="49.1,73 49.1,91.5 41.9,95.6 41.9,77.2 				"/>
				<polygon id="XMLID_116_" class="st0" points="49.1,73 49.1,76 41.9,80.1 41.9,77.2 				"/>
				<polygon id="XMLID_115_" class="st0" points="49.1,76.1 49.1,80.8 41.9,85 41.9,80.3 				"/>
				<polygon id="XMLID_114_" class="st0" points="49.1,81 49.1,89.9 41.9,94 41.9,85.1 				"/>
				<polygon id="XMLID_113_" class="st0" points="49.1,90 49.1,91.5 41.9,95.6 41.9,94.2 				"/>
				<g id="XMLID_105_">
					<polygon id="XMLID_112_" class="st20" points="47.4,79.8 47.4,80.7 43.8,82.8 43.8,81.9 					"/>
					<polygon id="XMLID_111_" class="st21" points="47.1,80.4 47.1,80.5 44.1,82.3 44.1,82.1 					"/>
					<g id="XMLID_106_">
						<polygon id="XMLID_110_" class="st20" points="48.2,77.5 48.2,78.8 42.7,82 42.7,80.8 						"/>
						<polygon id="XMLID_109_" class="st21" points="48,78.1 48,78.4 43,81.3 43,80.9 						"/>
						<g id="XMLID_107_">
							<path id="XMLID_108_" class="st21" d="M48,78.7L48,78.7L48,78.7h-0.2l0,0v0.1l0,0L48,78.7C47.9,78.7,48,78.7,48,78.7z"/>
						</g>
					</g>
				</g>
				<polygon id="XMLID_104_" class="st22" points="31.3,62.8 24.1,66.9 41.9,77.2 49.1,73 				"/>
				<polygon id="XMLID_103_" class="st23" points="24.1,66.9 24.1,85.4 41.9,95.6 41.9,77.2 				"/>
			</g>
			<g id="XMLID_99_">
				<path id="XMLID_101_" class="st24" d="M45.9,85.5L45.9,85.5c0.5,0,0.7,0.5,0.3,1l0,0c-0.2,0.2-0.4,0.4-0.6,0.4l0,0
					c-0.5,0-0.7-0.5-0.3-1l0,0C45.5,85.7,45.7,85.6,45.9,85.5z"/>
				<path id="XMLID_100_" class="st0" d="M45.9,85.7L45.9,85.7c0.4,0,0.5,0.4,0.2,0.8l0,0c-0.1,0.2-0.3,0.3-0.5,0.3l0,0
					c-0.4,0-0.5-0.4-0.2-0.8l0,0C45.5,85.8,45.7,85.7,45.9,85.7z"/>
			</g>
			<g id="XMLID_96_">
				<path id="XMLID_98_" class="st24" d="M45.8,87.4L45.8,87.4c0.3,0,0.4,0.3,0.2,0.6l0,0c-0.1,0.1-0.2,0.2-0.4,0.2l0,0
					c-0.3,0-0.4-0.3-0.2-0.6l0,0C45.6,87.5,45.7,87.4,45.8,87.4z"/>
				<path id="XMLID_97_" class="st0" d="M45.8,87.5L45.8,87.5c0.2,0,0.2,0.2,0.1,0.4l0,0C45.8,88,45.7,88,45.7,88l0,0
					c-0.2,0-0.2-0.2-0.1-0.4l0,0C45.6,87.6,45.7,87.5,45.8,87.5z"/>
			</g>
			<g id="XMLID_85_">
				<g id="XMLID_93_">
					<path id="XMLID_95_" class="st25" d="M45.9,88.5L45.9,88.5c0.1,0,0.1,0.1,0.1,0.2l0,0c0,0.1-0.1,0.1-0.1,0.1l0,0
						C45.8,88.8,45.8,88.7,45.9,88.5L45.9,88.5C45.8,88.6,45.8,88.5,45.9,88.5z"/>
					<path id="XMLID_94_" class="st26" d="M45.9,88.6L45.9,88.6c0.1,0-0.1,0.3-0.1,0.2C45.8,88.8,45.8,88.7,45.9,88.6L45.9,88.6
						C45.8,88.6,45.8,88.6,45.9,88.6z"/>
				</g>
				<g id="XMLID_90_">
					<path id="XMLID_92_" class="st27" d="M46.3,88.3L46.3,88.3c0.1,0,0.1,0.1,0.1,0.2l0,0c0,0.1-0.1,0.1-0.1,0.1l0,0
						C46.2,88.6,46.2,88.5,46.3,88.3L46.3,88.3C46.2,88.3,46.2,88.3,46.3,88.3z"/>
					<path id="XMLID_91_" class="st28" d="M46.3,88.3L46.3,88.3c0.1,0-0.1,0.3-0.1,0.2C46.2,88.5,46.2,88.4,46.3,88.3L46.3,88.3
						C46.2,88.4,46.3,88.3,46.3,88.3z"/>
				</g>
				<g id="XMLID_87_">
					<path id="XMLID_89_" class="st29" d="M45.5,88.8L45.5,88.8c0.1,0,0.1,0.1,0.1,0.2l0,0c0,0.1-0.1,0.1-0.1,0.1l0,0
						C45.4,89.1,45.4,89,45.5,88.8L45.5,88.8C45.4,88.8,45.4,88.8,45.5,88.8z"/>
					<path id="XMLID_88_" class="st30" d="M45.5,88.8L45.5,88.8c0.1,0-0.1,0.3-0.1,0.2C45.4,89,45.4,88.9,45.5,88.8L45.5,88.8
						C45.4,88.8,45.4,88.8,45.5,88.8z"/>
				</g>
			</g>
		</g>
	</g>
	<g id="XMLID_28_">
		<g id="XMLID_31_">
			<g id="XMLID_32_">
				<g id="XMLID_38_">
					<g id="XMLID_39_">
						<polygon id="XMLID_81_" class="st31" points="57,39.4 80.1,52.7 80.1,75.8 57,62.5 						"/>
						<polygon id="XMLID_16542_" class="st32" points="57,39.4 80.1,52.7 68.8,69.3 57,62.5 						"/>
						<polygon id="XMLID_80_" class="st33" points="96.5,42.4 40.4,74.8 40.4,98.7 41.1,98.3 41.1,75.3 80.1,52.7 80.1,75.8 
							96.5,66.4 						"/>
						<polyline id="XMLID_16549_" class="st18" points="96.5,42.4 40.4,74.8 40.4,98.7 41.1,98.3 41.1,75.3 80.1,52.7 80.1,75.8 
													"/>
						<g id="XMLID_65_">
							<g id="XMLID_70_">
								<polygon id="XMLID_78_" class="st34" points="94.9,44.2 81.8,51.8 81.8,58.6 94.9,51 								"/>
								<polygon id="XMLID_75_" class="st35" points="94.7,50.8 94.7,44.9 94.4,44.8 81.8,52.1 81.8,58 82,58.1 								"/>
								<polygon id="XMLID_74_" class="st18" points="94.7,44.9 82,52.2 82,58.1 94.7,50.8 								"/>
								<polyline id="XMLID_16546_" class="st3" points="94.7,44.9 82,52.2 82,58.1 								"/>
								<polygon id="XMLID_73_" class="st35" points="82.5,52.5 82,52.2 82,52.5 82.5,52.8 								"/>
								<polygon id="XMLID_72_" class="st35" points="82.7,52.6 82.5,52.5 82.5,52.9 82.7,53.1 								"/>
								<polygon id="XMLID_71_" class="st36" points="94.4,44.8 81.8,52.1 82,52.2 94.7,44.9 								"/>
							</g>
							<polygon id="XMLID_69_" class="st36" points="94.7,44.9 82,52.2 82.2,52.4 94.9,45.1 							"/>
							<polygon id="XMLID_68_" class="st36" points="94.9,45.1 82.2,52.4 82.5,52.5 95.1,45.2 							"/>
							<polygon id="XMLID_67_" class="st36" points="95.1,45.2 82.5,52.5 82.7,52.6 95.4,45.3 							"/>
							<polygon id="XMLID_66_" class="st37" points="95.4,45.7 82.7,53.1 82.7,52.6 95.4,45.3 							"/>
						</g>
						<g id="XMLID_53_">
							<g id="XMLID_58_">
								<polygon id="XMLID_64_" class="st34" points="94.9,51.6 81.8,59.2 81.8,66 94.9,58.4 								"/>
								<polygon id="XMLID_63_" class="st35" points="94.7,58.2 94.7,52.3 94.4,52.2 81.8,59.5 81.8,65.4 82,65.5 								"/>
								<polygon id="XMLID_62_" class="st18" points="94.7,52.3 82,59.6 82,65.5 94.7,58.2 								"/>
								<polyline id="XMLID_16547_" class="st3" points="94.7,52.3 82,59.6 82,65.5 								"/>
								<polygon id="XMLID_61_" class="st35" points="82.5,59.9 82,59.6 82,59.9 82.5,60.2 								"/>
								<polygon id="XMLID_60_" class="st35" points="82.7,60 82.5,59.9 82.5,60.3 82.7,60.4 								"/>
								<polygon id="XMLID_59_" class="st36" points="94.4,52.2 81.8,59.5 82,59.6 94.7,52.3 								"/>
							</g>
							<polygon id="XMLID_57_" class="st36" points="94.7,52.3 82,59.6 82.2,59.8 94.9,52.4 							"/>
							<polygon id="XMLID_56_" class="st36" points="94.9,52.4 82.2,59.8 82.5,59.9 95.1,52.6 							"/>
							<polygon id="XMLID_55_" class="st36" points="95.1,52.6 82.5,59.9 82.7,60 95.4,52.7 							"/>
							<polygon id="XMLID_54_" class="st37" points="95.4,53.1 82.7,60.4 82.7,60 95.4,52.7 							"/>
						</g>
						<g id="XMLID_41_">
							<g id="XMLID_46_">
								<polygon id="XMLID_52_" class="st34" points="94.9,59 81.8,66.6 81.8,73.4 94.9,65.8 								"/>
								<polygon id="XMLID_51_" class="st35" points="94.7,65.6 94.7,59.7 94.4,59.6 81.8,66.9 81.8,72.8 82,72.9 								"/>
								<polygon id="XMLID_50_" class="st18" points="94.7,59.7 82,67 82,72.9 94.7,65.6 								"/>
								<polyline id="XMLID_16548_" class="st3" points="94.7,59.7 82,67 82,72.9 								"/>
								<polygon id="XMLID_49_" class="st35" points="82.5,67.3 82,67 82,67.3 82.5,67.6 								"/>
								<polygon id="XMLID_48_" class="st35" points="82.7,67.4 82.5,67.3 82.5,67.7 82.7,67.8 								"/>
								<polygon id="XMLID_47_" class="st36" points="94.4,59.6 81.8,66.9 82,67 94.7,59.7 								"/>
							</g>
							<polygon id="XMLID_45_" class="st36" points="94.7,59.7 82,67 82.2,67.1 94.9,59.8 							"/>
							<polygon id="XMLID_44_" class="st36" points="94.9,59.8 82.2,67.1 82.5,67.3 95.1,59.9 							"/>
							<polygon id="XMLID_43_" class="st36" points="95.1,59.9 82.5,67.3 82.7,67.4 95.4,60.1 							"/>
							<polygon id="XMLID_42_" class="st37" points="95.4,60.5 82.7,67.8 82.7,67.4 95.4,60.1 							"/>
						</g>
						<polygon id="XMLID_40_" class="st16" points="40.4,74.8 17.3,61.5 17.3,85.4 18,85.8 39.7,98.3 40.4,98.7 						"/>
					</g>
				</g>
				<g id="XMLID_33_">
					<g id="XMLID_34_">
						<polygon id="XMLID_37_" class="st38" points="40.4,73.3 40.4,74.8 96.5,42.4 96.5,40.9 						"/>
						<polygon id="XMLID_36_" class="st39" points="17.3,60 40.4,73.3 40.4,74.8 17.3,61.5 						"/>
						<polygon id="XMLID_35_" class="st40" points="73.6,27.6 17.5,60 40.6,73.3 96.7,40.9 						"/>
						<polygon class="st41" points="82,49.4 96.7,40.9 88.2,36 82,36 						"/>
						<polyline id="XMLID_16550_" class="st41" points="73.4,27.6 17.3,60 40.4,73.3 						"/>
						<polygon class="st41" points="69.5,29.9 68.9,30.2 68.9,56.8 77.8,51.7 77.8,30.1 77.2,29.9 						"/>
						<polygon class="st41" points="51.1,67.1 51.1,47.2 39.8,48.3 39.8,68.9 47.9,68.9 						"/>
					</g>
				</g>
			</g>
		</g>
		<g id="XMLID_29_">
			<polygon id="XMLID_30_" class="st18" points="51.2,91.3 40.4,97.6 40.4,98.7 51.2,92.5 			"/>
		</g>
	</g>
	<g>
		<g id="XMLID_16993_">
			<g id="XMLID_16994_">
				<path id="XMLID_17002_" class="st42" d="M40.2,57.6l-7-4.1c-0.2-0.1-0.3-0.1-0.5,0l-5.1,2.9l0,0c-0.6,0.3-0.8,0.9-0.6,1.1
					c0,0,7.4,4.3,7.5,4.3c0.2,0.1,0.5-0.1,0.5-0.1l0.1-0.3l5.1-2.9V57.6z"/>
				<path class="st43" d="M32.6,53.5l-5.1,2.9l0,0c-0.1,0.1-0.3,0.2-0.4,0.3c1.3,0.7,7.2,4.2,7.3,4.2c0.2,0.1,0.5-0.1,0.5-0.1
					l0.1-0.3l5.1-2.9v-0.1l-7-4.1C33,53.4,32.8,53.4,32.6,53.5z"/>
				<path class="st44" d="M27.5,56.5"/>
				<path class="st44" d="M34.5,61c0.2,0.1,0.5-0.1,0.5-0.1l0.1-0.3l5.1-2.9v-0.1l-7-4.1c-0.2-0.1-0.3-0.1-0.5,0"/>
				<g id="XMLID_17000_">
					<path id="XMLID_17001_" class="st42" d="M40,58.4c0.1-0.1,0.1-0.2,0.1-0.2c0-0.1,0-0.4-0.1-0.3c-0.1,0.1-4,2.3-4.9,2.8
						s-0.9,1.6,0,1c0.9-0.5,4.8-2.8,4.9-2.8c0.1-0.1,0.1-0.1,0.1-0.2C40.1,58.7,40.1,58.3,40,58.4L40,58.4z"/>
				</g>
				<g id="XMLID_16998_">
					<path id="XMLID_16999_" class="st45" d="M40,57.6c-0.1,0.1-4.5,2.5-5.4,3c-0.6,0.4-0.4,1.8,0.5,1.2c0.9-0.5,4.9-2.8,5-2.9
						c0.1-0.1,0.2-0.2,0.2-0.2c0-0.1,0.1-0.3-0.1-0.5c0,0,0.1-0.1,0.1-0.2C40.3,57.6,40.1,57.5,40,57.6z"/>
				</g>
				<g id="XMLID_16996_">
					<path id="XMLID_16997_" class="st46" d="M40,58.2c0.1-0.1,0.1-0.2,0.1-0.2c0-0.1,0-0.3-0.1-0.2c-0.1,0.1-4.2,2.4-5.1,2.9
						c-0.6,0.3-0.3,1.1,0.2,0.8c0.9-0.5,4.7-2.7,4.9-2.8c0.1-0.1,0.1-0.1,0.1-0.2C40.1,58.4,40.1,58.2,40,58.2L40,58.2z"/>
				</g>
				<path id="XMLID_16995_" class="st45" d="M40,58.2c0,0-3.7,2.1-4.7,2.6c-0.1,0.1-0.3,0.1-0.3,0.1c-0.1,0.1,0.1,0.1,0.1,0.2
					c0,0.1-0.1,0.3,0.1,0.2c0,0,0.1-0.2,0.2-0.2c0.8-0.5,3.5-2.1,4.6-2.7C40,58.4,40,58.2,40,58.2z"/>
			</g>
		</g>
		<g id="XMLID_17003_">
			<g id="XMLID_17004_">
				<path id="XMLID_17012_" class="st42" d="M40.2,56.3l-7-4.1c-0.2-0.1-0.3-0.1-0.5,0l-5.1,2.9l0,0C27,55.4,26.8,56,27,56.2
					c0,0,7.4,4.3,7.5,4.3c0.2,0.1,0.5-0.1,0.5-0.1l0.1-0.3l5.1-2.9V56.3z"/>
				<path class="st43" d="M32.6,52.3l-5.1,2.9l0,0c-0.1,0.1-0.3,0.2-0.4,0.3c1.3,0.7,7.2,4.2,7.3,4.2c0.2,0.1,0.5-0.1,0.5-0.1
					l0.1-0.3l5.1-2.9v-0.1l-7-4.1C33,52.2,32.8,52.2,32.6,52.3z"/>
				<path class="st44" d="M27.5,55.2"/>
				<path class="st44" d="M34.5,59.7c0.2,0.1,0.5-0.1,0.5-0.1l0.1-0.3l5.1-2.9v-0.1l-7-4.1c-0.2-0.1-0.3-0.1-0.5,0"/>
				<g id="XMLID_17010_">
					<path id="XMLID_17011_" class="st42" d="M40,57.2c0.1-0.1,0.1-0.2,0.1-0.2c0-0.1,0-0.4-0.1-0.3c-0.1,0.1-4,2.3-4.9,2.8
						s-0.9,1.6,0,1c0.9-0.5,4.8-2.8,4.9-2.8c0.1-0.1,0.1-0.1,0.1-0.2S40.1,57.1,40,57.2L40,57.2z"/>
				</g>
				<g id="XMLID_17008_">
					<path id="XMLID_17009_" class="st45" d="M40,56.3c-0.1,0.1-4.5,2.5-5.4,3c-0.6,0.4-0.4,1.8,0.5,1.2c0.9-0.5,4.9-2.8,5-2.9
						c0.1-0.1,0.2-0.2,0.2-0.2c0-0.1,0.1-0.3-0.1-0.5c0,0,0.1-0.1,0.1-0.2C40.3,56.3,40.1,56.3,40,56.3z"/>
				</g>
				<g id="XMLID_17006_">
					<path id="XMLID_17007_" class="st46" d="M40,56.9c0.1-0.1,0.1-0.2,0.1-0.2c0-0.1,0-0.3-0.1-0.2c-0.1,0.1-4.2,2.4-5.1,2.9
						c-0.6,0.3-0.3,1.1,0.2,0.8c0.9-0.5,4.7-2.7,4.9-2.8c0.1-0.1,0.1-0.1,0.1-0.2C40.1,57.1,40.1,56.9,40,56.9L40,56.9z"/>
				</g>
				<path id="XMLID_17005_" class="st45" d="M40,56.9c0,0-3.7,2.1-4.7,2.6c-0.1,0.1-0.3,0.1-0.3,0.1c-0.1,0.1,0.1,0.1,0.1,0.2
					c0,0.1-0.1,0.3,0.1,0.2c0,0,0.1-0.2,0.2-0.2c0.8-0.5,3.5-2.1,4.6-2.7C40,57.1,40,56.9,40,56.9z"/>
			</g>
		</g>
		<g id="XMLID_17013_">
			<g id="XMLID_17014_">
				<path id="XMLID_17022_" class="st42" d="M40.2,55.1l-7-4.1c-0.2-0.1-0.3-0.1-0.5,0l-5.1,2.9l0,0C27,54.2,26.8,54.8,27,55
					c0,0,7.4,4.3,7.5,4.3c0.2,0.1,0.5-0.1,0.5-0.1l0.1-0.3l5.1-2.9V55.1z"/>
				<path class="st43" d="M32.6,51l-5.1,2.9l0,0c-0.1,0.1-0.3,0.2-0.4,0.3c1.3,0.7,7.2,4.2,7.3,4.2c0.2,0.1,0.5-0.1,0.5-0.1L35,58
					l5.1-2.9v0l-7-4.1C33,50.9,32.8,50.9,32.6,51z"/>
				<path class="st44" d="M27.5,54"/>
				<path class="st44" d="M34.5,58.5c0.2,0.1,0.5-0.1,0.5-0.1l0.1-0.3l5.1-2.9v-0.1l-7-4.1c-0.2-0.1-0.3-0.1-0.5,0"/>
				<g id="XMLID_17020_">
					<path id="XMLID_17021_" class="st42" d="M40,55.9c0.1-0.1,0.1-0.2,0.1-0.2c0-0.1,0-0.4-0.1-0.3c-0.1,0.1-4,2.3-4.9,2.8
						s-0.9,1.6,0,1c0.9-0.5,4.8-2.8,4.9-2.8c0.1-0.1,0.1-0.1,0.1-0.2C40.1,56.2,40.1,55.8,40,55.9L40,55.9z"/>
				</g>
				<g id="XMLID_17018_">
					<path id="XMLID_17019_" class="st45" d="M40,55.1c-0.1,0.1-4.5,2.5-5.4,3c-0.6,0.4-0.4,1.8,0.5,1.2c0.9-0.5,4.9-2.8,5-2.9
						c0.1-0.1,0.2-0.2,0.2-0.2c0-0.1,0.1-0.3-0.1-0.5c0,0,0.1-0.1,0.1-0.2C40.3,55.1,40.1,55,40,55.1z"/>
				</g>
				<g id="XMLID_17016_">
					<path id="XMLID_17017_" class="st46" d="M40,55.7c0.1-0.1,0.1-0.2,0.1-0.2c0-0.1,0-0.3-0.1-0.2s-4.2,2.4-5.1,2.9
						c-0.6,0.3-0.3,1.1,0.2,0.8c0.9-0.5,4.7-2.7,4.9-2.8c0.1-0.1,0.1-0.1,0.1-0.2C40.1,55.9,40.1,55.7,40,55.7L40,55.7z"/>
				</g>
				<path id="XMLID_17015_" class="st45" d="M40,55.7c0,0-3.7,2.1-4.7,2.6c-0.1,0.1-0.3,0.1-0.3,0.1c-0.1,0.1,0.1,0.1,0.1,0.2
					c0,0.1-0.1,0.3,0.1,0.2c0,0,0.1-0.2,0.2-0.2c0.8-0.5,3.5-2.1,4.6-2.7C40,55.9,40,55.7,40,55.7z"/>
			</g>
		</g>
	</g>
	<g id="XMLID_16584_">
		<g id="XMLID_16585_">
			<path id="XMLID_16992_" class="st47" d="M71.4,37.8c0-0.1,0-0.2-0.1-0.2l-5.7-3.3c-0.2-0.1-0.5-0.1-0.7,0l-14.3,8.3
				c-0.1,0-0.1,0.1-0.1,0.2c0,0.1,0,0.6,0,0.7c0,0.1,0,0.2,0.1,0.2l5.7,3.3c0.2,0.1,0.5,0.1,0.7,0l14.3-8.3c0.1-0.1,0.1-0.1,0.1-0.2
				S71.4,37.9,71.4,37.8z"/>
			<path class="st48" d="M71.3,37.6l-5.7-3.3c-0.2-0.1-0.5-0.1-0.7,0l-8.3,4.8v8c0.1,0,0.2,0,0.3-0.1l14.3-8.3
				c0.1-0.1,0.1-0.1,0.1-0.2c0-0.1,0-0.6,0-0.7C71.4,37.7,71.4,37.6,71.3,37.6z"/>
			<path id="XMLID_16991_" class="st49" d="M71.3,37.6l-5.7-3.3c-0.2-0.1-0.5-0.1-0.7,0l-14.3,8.3c-0.2,0.1-0.2,0.3,0,0.4l5.7,3.3
				c0.2,0.1,0.5,0.1,0.7,0L71.3,38C71.5,37.9,71.5,37.7,71.3,37.6z"/>
			<g id="XMLID_16586_">
				<g id="XMLID_16895_">
					<g id="XMLID_16964_">
						<g id="XMLID_16978_">
							<g id="XMLID_16985_">
								<g id="XMLID_16986_">
									<g id="XMLID_16987_">
										<g id="XMLID_16988_">
											<path id="XMLID_16990_" class="st48" d="M53.4,42.3C53.4,42.3,53.4,42.2,53.4,42.3l-0.3-0.2c-0.1,0-0.2,0-0.2,0l-0.6,0.3
												c0,0,0,0,0,0.1v0.1v0.1l0.2,0.1c0.1,0,0.2,0,0.2,0l0.5-0.3c0,0,0,0,0-0.1L53.4,42.3z"/>
											<path id="XMLID_16989_" class="st47" d="M52.9,42l-0.5,0.3c-0.1,0-0.1,0.1,0,0.2l0.2,0.1c0.1,0,0.2,0,0.2,0l0.5-0.3
												c0.1,0,0.1-0.1,0-0.2L53.1,42C53,41.9,53,41.9,52.9,42z"/>
										</g>
									</g>
								</g>
							</g>
							<g id="XMLID_16979_">
								<g id="XMLID_16980_">
									<g id="XMLID_16981_">
										<g id="XMLID_16982_">
											<path id="XMLID_16984_" class="st48" d="M54.3,41.7L54.3,41.7L54,41.5c-0.1,0-0.2,0-0.2,0l-0.5,0.3c0,0,0,0,0,0.1V42v0.1
												l0.2,0.1c0.1,0,0.2,0,0.2,0l0.5-0.3L54.3,41.7L54.3,41.7z"/>
											<path id="XMLID_16983_" class="st47" d="M53.8,41.5l-0.5,0.3c-0.1,0-0.1,0.1,0,0.2l0.2,0.1c0.1,0,0.2,0,0.2,0l0.5-0.3
												c0.1,0,0.1-0.1,0-0.2L54,41.5C54,41.4,53.9,41.4,53.8,41.5z"/>
										</g>
									</g>
								</g>
							</g>
						</g>
						<g id="XMLID_16965_">
							<g id="XMLID_16972_">
								<g id="XMLID_16973_">
									<g id="XMLID_16974_">
										<g id="XMLID_16975_">
											<path id="XMLID_16977_" class="st48" d="M55.2,41.2L55.2,41.2L54.9,41c-0.1,0-0.2,0-0.2,0l-0.5,0.3c0,0,0,0,0,0.1v0.1
												v0.1l0.2,0.1c0.1,0,0.2,0,0.2,0l0.5-0.3C55.1,41.4,55.1,41.4,55.2,41.2L55.2,41.2z"/>
											<path id="XMLID_16976_" class="st47" d="M54.7,40.9l-0.5,0.3c-0.1,0-0.1,0.1,0,0.2l0.2,0.1c0.1,0,0.2,0,0.2,0l0.5-0.3
												c0.1,0,0.1-0.1,0-0.2l-0.2-0.1C54.9,40.9,54.8,40.9,54.7,40.9z"/>
										</g>
									</g>
								</g>
							</g>
							<g id="XMLID_16966_">
								<g id="XMLID_16967_">
									<g id="XMLID_16968_">
										<g id="XMLID_16969_">
											<path id="XMLID_16971_" class="st48" d="M56.2,40.7C56.2,40.7,56.1,40.6,56.2,40.7l-0.3-0.2c-0.1,0-0.2,0-0.2,0l-0.5,0.3
												c0,0,0,0,0,0.1V41v0.1l0.2,0.1c0.1,0,0.2,0,0.2,0l0.5-0.3C56.1,40.9,56.1,40.9,56.2,40.7L56.2,40.7z"/>
											<path id="XMLID_16970_" class="st47" d="M55.6,40.4l-0.5,0.3c-0.1,0-0.1,0.1,0,0.2l0.2,0.1c0.1,0,0.2,0,0.2,0l0.5-0.3
												c0.1,0,0.1-0.1,0-0.2l-0.1-0.1C55.8,40.3,55.7,40.3,55.6,40.4z"/>
										</g>
									</g>
								</g>
							</g>
						</g>
					</g>
					<g id="XMLID_16937_">
						<g id="XMLID_16951_">
							<g id="XMLID_16958_">
								<g id="XMLID_16959_">
									<g id="XMLID_16960_">
										<g id="XMLID_16961_">
											<path id="XMLID_16963_" class="st48" d="M57.1,40.2C57.1,40.1,57.1,40.1,57.1,40.2L56.8,40c-0.1,0-0.2,0-0.2,0l-0.5,0.3
												c0,0,0,0,0,0.1v0v0.1l0.2,0.1c0.1,0,0.2,0,0.2,0L57.1,40.2L57.1,40.2L57.1,40.2z"/>
											<path id="XMLID_16962_" class="st47" d="M56.6,39.9l-0.5,0.3c-0.1,0-0.1,0.1,0,0.2l0.2,0.1c0.1,0,0.2,0,0.2,0l0.5-0.3
												c0.1,0,0.1-0.1,0-0.2l-0.2-0.1C56.7,39.8,56.6,39.8,56.6,39.9z"/>
										</g>
									</g>
								</g>
							</g>
							<g id="XMLID_16952_">
								<g id="XMLID_16953_">
									<g id="XMLID_16954_">
										<g id="XMLID_16955_">
											<path id="XMLID_16957_" class="st48" d="M58,39.6L58,39.6l-0.3-0.2c-0.1,0-0.2,0-0.2,0L57,39.7c0,0,0,0,0,0.1v0.1V40
												l0.2,0.1c0.1,0,0.2,0,0.2,0l0.5-0.3c0,0,0,0,0-0.1L58,39.6z"/>
											<path id="XMLID_16956_" class="st47" d="M57.5,39.3L57,39.6c-0.1,0-0.1,0.1,0,0.2l0.2,0.1c0.1,0,0.2,0,0.2,0l0.5-0.3
												c0.1,0,0.1-0.1,0-0.2l-0.2-0.1C57.6,39.3,57.6,39.3,57.5,39.3z"/>
										</g>
									</g>
								</g>
							</g>
						</g>
						<g id="XMLID_16938_">
							<g id="XMLID_16945_">
								<g id="XMLID_16946_">
									<g id="XMLID_16947_">
										<g id="XMLID_16948_">
											<path id="XMLID_16950_" class="st48" d="M58.9,39.1C58.9,39.1,58.9,39,58.9,39.1l-0.3-0.2c-0.1,0-0.2,0-0.2,0l-0.5,0.3
												c0,0,0,0,0,0.1v0.1v0.1l0.2,0.1c0.1,0,0.2,0,0.2,0l0.5-0.3L58.9,39.1L58.9,39.1z"/>
											<path id="XMLID_16949_" class="st47" d="M58.4,38.8l-0.5,0.3c-0.1,0-0.1,0.1,0,0.2l0.2,0.1c0.1,0,0.2,0,0.2,0l0.5-0.3
												c0.1,0,0.1-0.1,0-0.2l-0.2-0.1C58.6,38.8,58.5,38.8,58.4,38.8z"/>
										</g>
									</g>
								</g>
							</g>
							<g id="XMLID_16939_">
								<g id="XMLID_16940_">
									<g id="XMLID_16941_">
										<g id="XMLID_16942_">
											<path id="XMLID_16944_" class="st48" d="M59.8,38.6C59.8,38.5,59.8,38.5,59.8,38.6l-0.2-0.2c-0.1,0-0.2,0-0.2,0l-0.5,0.3
												c0,0,0,0,0,0.1v0.1V39l0.2,0.1c0.1,0,0.2,0,0.2,0l0.5-0.3V38.6L59.8,38.6z"/>
											<path id="XMLID_16943_" class="st47" d="M59.3,38.3l-0.5,0.3c-0.1,0-0.1,0.1,0,0.2l0.2,0.1c0.1,0,0.2,0,0.2,0l0.5-0.3
												c0.1,0,0.1-0.1,0-0.2l-0.1-0.1C59.5,38.2,59.4,38.2,59.3,38.3z"/>
										</g>
									</g>
								</g>
							</g>
						</g>
					</g>
					<g id="XMLID_16910_">
						<g id="XMLID_16924_">
							<g id="XMLID_16931_">
								<g id="XMLID_16932_">
									<g id="XMLID_16933_">
										<g id="XMLID_16934_">
											<path id="XMLID_16936_" class="st48" d="M60.8,38C60.7,38,60.7,38,60.8,38l-0.3-0.2c-0.1,0-0.2,0-0.2,0l-0.5,0.3
												c0,0,0,0,0,0.1v0.1v0.1l0.2,0.1c0.1,0,0.2,0,0.2,0l0.5-0.3L60.8,38L60.8,38z"/>
											<path id="XMLID_16935_" class="st47" d="M60.2,37.7L59.7,38c-0.1,0-0.1,0.1,0,0.2l0.2,0.1c0.1,0,0.2,0,0.2,0l0.5-0.3
												c0.1,0,0.1-0.1,0-0.2l-0.2-0.1C60.4,37.7,60.3,37.7,60.2,37.7z"/>
										</g>
									</g>
								</g>
							</g>
							<g id="XMLID_16925_">
								<g id="XMLID_16926_">
									<g id="XMLID_16927_">
										<g id="XMLID_16928_">
											<path id="XMLID_16930_" class="st48" d="M61.7,37.5C61.7,37.5,61.7,37.4,61.7,37.5l-0.3-0.2c-0.1,0-0.2,0-0.2,0l-0.6,0.3
												c0,0,0,0,0,0.1v0.1v0.1l0.2,0.1c0.1,0,0.2,0,0.2,0l0.5-0.3v-0.1L61.7,37.5z"/>
											<path id="XMLID_16929_" class="st47" d="M61.2,37.2l-0.6,0.3c-0.1,0-0.1,0.1,0,0.2l0.2,0.1c0.1,0,0.2,0,0.2,0l0.5-0.3
												c0.1,0,0.1-0.1,0-0.2l-0.2-0.1H61.2z"/>
										</g>
									</g>
								</g>
							</g>
						</g>
						<g id="XMLID_16911_">
							<g id="XMLID_16918_">
								<g id="XMLID_16919_">
									<g id="XMLID_16920_">
										<g id="XMLID_16921_">
											<path id="XMLID_16923_" class="st48" d="M62.6,37C62.6,36.9,62.6,36.9,62.6,37l-0.3-0.2c-0.1,0-0.2,0-0.2,0l-0.5,0.3
												c0,0,0,0,0,0.1v0.1v0.1l0.2,0.1c0.1,0,0.2,0,0.2,0l0.5-0.3C62.5,37.2,62.5,37.2,62.6,37L62.6,37z"/>
											<path id="XMLID_16922_" class="st47" d="M62.1,36.7L61.6,37c-0.1,0-0.1,0.1,0,0.2l0.2,0.1c0.1,0,0.2,0,0.2,0l0.5-0.3
												c0.1,0,0.1-0.1,0-0.2l-0.2-0.1C62.2,36.6,62.1,36.6,62.1,36.7z"/>
										</g>
									</g>
								</g>
							</g>
							<g id="XMLID_16912_">
								<g id="XMLID_16913_">
									<g id="XMLID_16914_">
										<g id="XMLID_16915_">
											<path id="XMLID_16917_" class="st48" d="M63.5,36.4L63.5,36.4l-0.3-0.2c-0.1,0-0.2,0-0.2,0l-0.5,0.3c0,0,0,0,0,0.1v0.1
												v0.1l0.2,0.1c0.1,0,0.2,0,0.2,0l0.5-0.3L63.5,36.4L63.5,36.4z"/>
											<path id="XMLID_16916_" class="st47" d="M63,36.1l-0.5,0.3c-0.1,0-0.1,0.1,0,0.2l0.2,0.1c0.1,0,0.2,0,0.2,0l0.5-0.3
												c0.1,0,0.1-0.1,0-0.2l-0.2-0.1C63.2,36.1,63.1,36.1,63,36.1z"/>
										</g>
									</g>
								</g>
							</g>
						</g>
					</g>
					<g id="XMLID_16896_">
						<g id="XMLID_16897_">
							<g id="XMLID_16904_">
								<g id="XMLID_16905_">
									<g id="XMLID_16906_">
										<g id="XMLID_16907_">
											<path id="XMLID_16909_" class="st48" d="M64.4,35.9C64.4,35.9,64.4,35.8,64.4,35.9l-0.3-0.2c-0.1,0-0.2,0-0.2,0L63.4,36
												c0,0,0,0,0,0.1v0.1v0.1l0.2,0.1c0.1,0,0.2,0,0.2,0l0.5-0.3V36L64.4,35.9z"/>
											<path id="XMLID_16908_" class="st47" d="M63.9,35.6l-0.5,0.3c-0.1,0-0.1,0.1,0,0.2l0.2,0.1c0.1,0,0.2,0,0.2,0l0.5-0.3
												c0.1,0,0.1-0.1,0-0.2l-0.2-0.1C64.1,35.6,64,35.6,63.9,35.6z"/>
										</g>
									</g>
								</g>
							</g>
							<g id="XMLID_16898_">
								<g id="XMLID_16899_">
									<g id="XMLID_16900_">
										<g id="XMLID_16901_">
											<path id="XMLID_16903_" class="st48" d="M65.3,35.4C65.3,35.3,65.3,35.3,65.3,35.4L65,35.2c-0.1,0-0.2,0-0.2,0l-0.5,0.3
												c0,0,0,0,0,0.1v0.1v0.1l0.2,0.1c0.1,0,0.2,0,0.2,0l0.5-0.3L65.3,35.4L65.3,35.4z"/>
											<path id="XMLID_16902_" class="st47" d="M64.8,35.1l-0.5,0.3c-0.1,0-0.1,0.1,0,0.2l0.2,0.1c0.1,0,0.2,0,0.2,0l0.5-0.3
												c0.1,0,0.1-0.1,0-0.2L65,35.1C65,35,64.9,35,64.8,35.1z"/>
										</g>
									</g>
								</g>
							</g>
						</g>
					</g>
				</g>
				<g id="XMLID_16830_">
					<g id="XMLID_16886_">
						<g id="XMLID_16891_">
							<g id="XMLID_16892_">
								<path id="XMLID_16894_" class="st48" d="M65,36.6C65,36.6,65,36.5,65,36.6l-0.6-0.4c-0.1,0-0.2,0-0.2,0l-0.5,0.3
									c0,0,0,0,0,0.1v0.1v0.1l0.5,0.3c0.1,0,0.2,0,0.2,0l0.5-0.3C64.9,36.8,64.9,36.8,65,36.6L65,36.6z"/>
								<path id="XMLID_16893_" class="st47" d="M64.2,36.1l-0.5,0.3c-0.1,0-0.1,0.1,0,0.2l0.5,0.3c0.1,0,0.2,0,0.2,0l0.5-0.3
									c0.1,0,0.1-0.1,0-0.2l-0.5-0.3C64.4,36.1,64.3,36.1,64.2,36.1z"/>
							</g>
						</g>
						<g id="XMLID_16887_">
							<g id="XMLID_16888_">
								<path id="XMLID_16890_" class="st48" d="M64.1,37.1C64.1,37.1,64.1,37,64.1,37.1l-0.5-0.4c-0.1,0-0.2,0-0.2,0L62.9,37
									c0,0,0,0,0,0.1v0.1v0.1l0.5,0.3c0.1,0,0.2,0,0.2,0l0.5-0.3C64.1,37.3,64.1,37.3,64.1,37.1L64.1,37.1z"/>
								<path id="XMLID_16889_" class="st47" d="M63.3,36.6l-0.5,0.3c-0.1,0-0.1,0.1,0,0.2l0.5,0.3c0.1,0,0.2,0,0.2,0l0.5-0.3
									c0.1,0,0.1-0.1,0-0.2l-0.4-0.3C63.5,36.6,63.4,36.6,63.3,36.6z"/>
							</g>
						</g>
					</g>
					<g id="XMLID_16881_">
						<g id="XMLID_16882_">
							<g id="XMLID_16883_">
								<path id="XMLID_16885_" class="st48" d="M66.2,35.9C66.2,35.9,66.2,35.8,66.2,35.9l-0.6-0.4c-0.1,0-0.2,0-0.2,0L64.6,36
									c0,0,0,0,0,0.1v0.1v0.1l0.5,0.3c0.1,0,0.2,0,0.2,0l0.8-0.5C66.1,36.1,66.1,36.1,66.2,35.9L66.2,35.9z"/>
								<path id="XMLID_16884_" class="st47" d="M65.4,35.4l-0.8,0.5c-0.1,0-0.1,0.1,0,0.2l0.5,0.3c0.1,0,0.2,0,0.2,0l0.8-0.5
									c0.1,0,0.1-0.1,0-0.2l-0.4-0.3C65.6,35.4,65.5,35.4,65.4,35.4z"/>
							</g>
						</g>
					</g>
					<g id="XMLID_16872_">
						<g id="XMLID_16877_">
							<g id="XMLID_16878_">
								<path id="XMLID_16880_" class="st48" d="M63.2,37.6L63.2,37.6l-0.6-0.4c-0.1,0-0.2,0-0.2,0l-0.5,0.3c0,0,0,0,0,0.1v0.1v0.1
									l0.5,0.3c0.1,0,0.2,0,0.2,0l0.5-0.3C63.1,37.8,63.1,37.8,63.2,37.6L63.2,37.6z"/>
								<path id="XMLID_16879_" class="st47" d="M62.4,37.2l-0.5,0.3c-0.1,0-0.1,0.1,0,0.2l0.5,0.3c0.1,0,0.2,0,0.2,0l0.5-0.3
									c0.1,0,0.1-0.1,0-0.2l-0.5-0.3C62.6,37.1,62.5,37.1,62.4,37.2z"/>
							</g>
						</g>
						<g id="XMLID_16873_">
							<g id="XMLID_16874_">
								<path id="XMLID_16876_" class="st48" d="M62.3,38.1L62.3,38.1l-0.6-0.4c-0.1,0-0.2,0-0.2,0L61,38c0,0,0,0,0,0.1v0.1v0.1
									l0.5,0.3c0.1,0,0.2,0,0.2,0l0.5-0.3C62.2,38.3,62.2,38.3,62.3,38.1L62.3,38.1z"/>
								<path id="XMLID_16875_" class="st47" d="M61.5,37.7L61,38c-0.1,0-0.1,0.1,0,0.2l0.5,0.3c0.1,0,0.2,0,0.2,0l0.5-0.3
									c0.1,0,0.1-0.1,0-0.2l-0.5-0.3C61.7,37.6,61.6,37.6,61.5,37.7z"/>
							</g>
						</g>
					</g>
					<g id="XMLID_16863_">
						<g id="XMLID_16868_">
							<g id="XMLID_16869_">
								<path id="XMLID_16871_" class="st48" d="M61.5,38.7C61.4,38.6,61.4,38.6,61.5,38.7l-0.6-0.4c-0.1,0-0.2,0-0.2,0l-0.5,0.3
									c0,0,0,0,0,0.1v0.1v0.1l0.5,0.3c0.1,0,0.2,0,0.2,0l0.5-0.3C61.4,38.9,61.4,38.9,61.5,38.7L61.5,38.7z"/>
								<path id="XMLID_16870_" class="st47" d="M60.6,38.2l-0.5,0.3c-0.1,0-0.1,0.1,0,0.2l0.5,0.3c0.1,0,0.2,0,0.2,0l0.5-0.3
									c0.1,0,0.1-0.1,0-0.2l-0.5-0.3C60.8,38.2,60.7,38.2,60.6,38.2z"/>
							</g>
						</g>
						<g id="XMLID_16864_">
							<g id="XMLID_16865_">
								<path id="XMLID_16867_" class="st48" d="M60.6,39.2C60.5,39.1,60.5,39.1,60.6,39.2L60,38.8c-0.1,0-0.2,0-0.2,0l-0.5,0.3
									c0,0,0,0,0,0.1v0.1v0.1l0.5,0.3c0.1,0,0.2,0,0.2,0l0.5-0.3C60.5,39.4,60.5,39.4,60.6,39.2L60.6,39.2z"/>
								<path id="XMLID_16866_" class="st47" d="M59.7,38.7L59.2,39c-0.1,0-0.1,0.1,0,0.2l0.5,0.3c0.1,0,0.2,0,0.2,0l0.5-0.3
									c0.1,0,0.1-0.1,0-0.2l-0.5-0.3C59.9,38.7,59.8,38.7,59.7,38.7z"/>
							</g>
						</g>
					</g>
					<g id="XMLID_16854_">
						<g id="XMLID_16859_">
							<g id="XMLID_16860_">
								<path id="XMLID_16862_" class="st48" d="M59.7,39.7C59.7,39.7,59.6,39.6,59.7,39.7l-0.6-0.4c-0.1,0-0.2,0-0.2,0l-0.5,0.3
									c0,0,0,0,0,0.1v0.1v0.1l0.5,0.3c0.1,0,0.2,0,0.2,0l0.5-0.3C59.6,39.9,59.6,39.9,59.7,39.7L59.7,39.7z"/>
								<path id="XMLID_16861_" class="st47" d="M58.9,39.2l-0.5,0.3c-0.1,0-0.1,0.1,0,0.2l0.5,0.3c0.1,0,0.2,0,0.2,0l0.5-0.3
									c0.1,0,0.1-0.1,0-0.2l-0.5-0.3C59,39.2,58.9,39.2,58.9,39.2z"/>
							</g>
						</g>
						<g id="XMLID_16855_">
							<g id="XMLID_16856_">
								<path id="XMLID_16858_" class="st48" d="M58.8,40.2C58.8,40.2,58.7,40.2,58.8,40.2l-0.6-0.4c-0.1,0-0.2,0-0.2,0l-0.5,0.3
									c0,0,0,0,0,0.1v0.1v0.1l0.5,0.3c0.1,0,0.2,0,0.2,0l0.5-0.3C58.7,40.4,58.7,40.4,58.8,40.2L58.8,40.2z"/>
								<path id="XMLID_16857_" class="st47" d="M58,39.7L57.5,40c-0.1,0-0.1,0.1,0,0.2l0.5,0.3c0.1,0,0.2,0,0.2,0l0.5-0.3
									c0.1,0,0.1-0.1,0-0.2l-0.5-0.3C58.1,39.7,58,39.7,58,39.7z"/>
							</g>
						</g>
					</g>
					<g id="XMLID_16845_">
						<g id="XMLID_16850_">
							<g id="XMLID_16851_">
								<path id="XMLID_16853_" class="st48" d="M57.9,40.7C57.9,40.7,57.8,40.7,57.9,40.7l-0.6-0.3c-0.1,0-0.2,0-0.2,0l-0.5,0.3
									c0,0,0,0,0,0.1v0.1V41l0.5,0.3c0.1,0,0.2,0,0.2,0l0.5-0.3c0,0,0,0,0-0.1L57.9,40.7z"/>
								<path id="XMLID_16852_" class="st47" d="M57.1,40.3l-0.5,0.3c-0.1,0-0.1,0.1,0,0.2l0.5,0.3c0.1,0,0.2,0,0.2,0l0.5-0.3
									c0.1,0,0.1-0.1,0-0.2l-0.5-0.3C57.2,40.2,57.1,40.2,57.1,40.3z"/>
							</g>
						</g>
						<g id="XMLID_16846_">
							<g id="XMLID_16847_">
								<path id="XMLID_16849_" class="st48" d="M57,41.2C57,41.2,56.9,41.2,57,41.2l-0.6-0.4c-0.1,0-0.2,0-0.2,0l-0.6,0.4
									c0,0,0,0,0,0.1v0.1v0.1l0.5,0.3c0.1,0,0.2,0,0.2,0l0.5-0.3c0,0,0,0,0-0.1L57,41.2z"/>
								<path id="XMLID_16848_" class="st47" d="M56.2,40.8l-0.6,0.3c-0.1,0-0.1,0.1,0,0.2l0.5,0.3c0.1,0,0.2,0,0.2,0l0.5-0.3
									c0.1,0,0.1-0.1,0-0.2l-0.5-0.3C56.3,40.7,56.2,40.7,56.2,40.8z"/>
							</g>
						</g>
					</g>
					<g id="XMLID_16836_">
						<g id="XMLID_16841_">
							<g id="XMLID_16842_">
								<path id="XMLID_16844_" class="st48" d="M56.1,41.8C56.1,41.7,56,41.7,56.1,41.8l-0.6-0.4c-0.1,0-0.2,0-0.2,0l-0.5,0.3
									c0,0,0,0,0,0.1v0.1V42l0.5,0.3c0.1,0,0.2,0,0.2,0L56,42C56,42,56,42,56.1,41.8L56.1,41.8z"/>
								<path id="XMLID_16843_" class="st47" d="M55.3,41.3l-0.5,0.3c-0.1,0-0.1,0.1,0,0.2l0.5,0.3c0.1,0,0.2,0,0.2,0l0.5-0.3
									c0.1,0,0.1-0.1,0-0.2l-0.5-0.3C55.4,41.3,55.3,41.3,55.3,41.3z"/>
							</g>
						</g>
						<g id="XMLID_16837_">
							<g id="XMLID_16838_">
								<path id="XMLID_16840_" class="st48" d="M55.2,42.3C55.2,42.3,55.1,42.2,55.2,42.3l-0.6-0.4c-0.1,0-0.2,0-0.2,0l-0.5,0.3
									c0,0,0,0,0,0.1v0.1v0.1l0.5,0.3c0.1,0,0.2,0,0.2,0l0.5-0.3C55.1,42.5,55.1,42.5,55.2,42.3L55.2,42.3z"/>
								<path id="XMLID_16839_" class="st47" d="M54.4,41.8l-0.5,0.3c-0.1,0-0.1,0.1,0,0.2l0.5,0.3c0.1,0,0.2,0,0.2,0l0.5-0.3
									c0.1,0,0.1-0.1,0-0.2l-0.5-0.3C54.5,41.8,54.4,41.8,54.4,41.8z"/>
							</g>
						</g>
					</g>
					<g id="XMLID_16831_">
						<g id="XMLID_16832_">
							<g id="XMLID_16833_">
								<path id="XMLID_16835_" class="st48" d="M54.3,42.8C54.3,42.8,54.2,42.7,54.3,42.8l-0.6-0.4c-0.1,0-0.2,0-0.2,0L53,42.7
									c0,0,0,0,0,0.1v0.1V43l0.5,0.3c0.1,0,0.2,0,0.2,0l0.5-0.3c0,0,0,0,0-0.1L54.3,42.8z"/>
								<path id="XMLID_16834_" class="st47" d="M53.5,42.3L53,42.6c-0.1,0-0.1,0.1,0,0.2l0.5,0.3c0.1,0,0.2,0,0.2,0l0.5-0.3
									c0.1,0,0.1-0.1,0-0.2l-0.5-0.3C53.6,42.3,53.5,42.3,53.5,42.3z"/>
							</g>
						</g>
					</g>
				</g>
				<g id="XMLID_16766_">
					<g id="XMLID_16825_">
						<g id="XMLID_16826_">
							<g id="XMLID_16827_">
								<path id="XMLID_16829_" class="st48" d="M55.5,43.1C55.5,43.1,55.4,43.1,55.5,43.1l-0.6-0.4c-0.1,0-0.2,0-0.2,0l-0.8,0.5
									c0,0,0,0,0,0.1v0.1v0.1l0.5,0.3c0.1,0,0.2,0,0.2,0l0.8-0.5C55.4,43.3,55.4,43.3,55.5,43.1L55.5,43.1z"/>
								<path id="XMLID_16828_" class="st47" d="M54.7,42.7l-0.8,0.5c-0.1,0-0.1,0.1,0,0.2l0.5,0.3c0.1,0,0.2,0,0.2,0l0.8-0.5
									c0.1,0,0.1-0.1,0-0.2l-0.5-0.3C54.8,42.6,54.7,42.6,54.7,42.7z"/>
							</g>
						</g>
					</g>
					<g id="XMLID_16770_">
						<g id="XMLID_16821_">
							<g id="XMLID_16822_">
								<path id="XMLID_16824_" class="st48" d="M66.2,36.9C66.2,36.9,66.2,36.8,66.2,36.9l-0.6-0.4c-0.1,0-0.2,0-0.2,0l-0.5,0.3
									c0,0,0,0,0,0.1V37v0.1l0.5,0.3c0.1,0,0.2,0,0.2,0l0.5-0.3C66.1,37.1,66.1,37.1,66.2,36.9L66.2,36.9z"/>
								<path id="XMLID_16823_" class="st47" d="M65.4,36.4l-0.5,0.3c-0.1,0-0.1,0.1,0,0.2l0.5,0.3c0.1,0,0.2,0,0.2,0l0.5-0.3
									c0.1,0,0.1-0.1,0-0.2l-0.4-0.3C65.6,36.4,65.5,36.4,65.4,36.4z"/>
							</g>
						</g>
						<g id="XMLID_16812_">
							<g id="XMLID_16817_">
								<g id="XMLID_16818_">
									<path id="XMLID_16820_" class="st48" d="M65.3,37.4L65.3,37.4L64.7,37c-0.1,0-0.2,0-0.2,0L64,37.4c0,0,0,0,0,0.1v0.1v0.1
										l0.5,0.3c0.1,0,0.2,0,0.2,0l0.5-0.3c0,0,0,0,0-0.1L65.3,37.4L65.3,37.4z"/>
									<path id="XMLID_16819_" class="st47" d="M64.5,37L64,37.3c-0.1,0-0.1,0.1,0,0.2l0.5,0.3c0.1,0,0.2,0,0.2,0l0.5-0.3
										c0.1,0,0.1-0.1,0-0.2L64.7,37C64.7,36.9,64.6,36.9,64.5,37z"/>
								</g>
							</g>
							<g id="XMLID_16813_">
								<g id="XMLID_16814_">
									<path id="XMLID_16816_" class="st48" d="M64.4,37.9L64.4,37.9l-0.6-0.4c-0.1,0-0.2,0-0.2,0l-0.5,0.3c0,0,0,0,0,0.1V38v0.1
										l0.5,0.3c0.1,0,0.2,0,0.2,0l0.5-0.3c0,0,0,0,0-0.1L64.4,37.9z"/>
									<path id="XMLID_16815_" class="st47" d="M63.6,37.5l-0.5,0.3c-0.1,0-0.1,0.1,0,0.2l0.5,0.3c0.1,0,0.2,0,0.2,0l0.5-0.3
										c0.1,0,0.1-0.1,0-0.2l-0.5-0.3C63.8,37.4,63.7,37.4,63.6,37.5z"/>
								</g>
							</g>
						</g>
						<g id="XMLID_16803_">
							<g id="XMLID_16808_">
								<g id="XMLID_16809_">
									<path id="XMLID_16811_" class="st48" d="M63.5,38.5C63.5,38.4,63.5,38.4,63.5,38.5l-0.6-0.4c-0.1,0-0.2,0-0.2,0l-0.5,0.3
										c0,0,0,0,0,0.1v0.1v0.1l0.5,0.3c0.1,0,0.2,0,0.2,0l0.5-0.3c0,0,0,0,0-0.1L63.5,38.5z"/>
									<path id="XMLID_16810_" class="st47" d="M62.7,38l-0.5,0.3c-0.1,0-0.1,0.1,0,0.2l0.5,0.3c0.1,0,0.2,0,0.2,0l0.5-0.3
										c0.1,0,0.1-0.1,0-0.2L62.9,38C62.9,38,62.8,38,62.7,38z"/>
								</g>
							</g>
							<g id="XMLID_16804_">
								<g id="XMLID_16805_">
									<path id="XMLID_16807_" class="st48" d="M62.6,39C62.6,38.9,62.6,38.9,62.6,39L62,38.6c-0.1,0-0.2,0-0.2,0l-0.5,0.3
										c0,0,0,0,0,0.1v0.1v0.1l0.5,0.3c0.1,0,0.2,0,0.2,0l0.5-0.3C62.5,39.2,62.5,39.2,62.6,39L62.6,39z"/>
									<path id="XMLID_16806_" class="st47" d="M61.8,38.5l-0.5,0.3c-0.1,0-0.1,0.1,0,0.2l0.5,0.3c0.1,0,0.2,0,0.2,0l0.5-0.3
										c0.1,0,0.1-0.1,0-0.2L62,38.5C62,38.5,61.9,38.5,61.8,38.5z"/>
								</g>
							</g>
						</g>
						<g id="XMLID_16794_">
							<g id="XMLID_16799_">
								<g id="XMLID_16800_">
									<path id="XMLID_16802_" class="st48" d="M61.7,39.5C61.7,39.5,61.7,39.4,61.7,39.5l-0.6-0.4c-0.1,0-0.2,0-0.2,0l-0.5,0.3
										c0,0,0,0,0,0.1v0.1v0.1l0.5,0.3c0.1,0,0.2,0,0.2,0l0.5-0.3C61.6,39.7,61.6,39.7,61.7,39.5L61.7,39.5z"/>
									<path id="XMLID_16801_" class="st47" d="M60.9,39l-0.5,0.3c-0.1,0-0.1,0.1,0,0.2l0.5,0.3c0.1,0,0.2,0,0.2,0l0.5-0.3
										c0.1,0,0.1-0.1,0-0.2L61.1,39C61.1,39,61,39,60.9,39z"/>
								</g>
							</g>
							<g id="XMLID_16795_">
								<g id="XMLID_16796_">
									<path id="XMLID_16798_" class="st48" d="M60.8,40L60.8,40l-0.6-0.4c-0.1,0-0.2,0-0.2,0l-0.5,0.3c0,0,0,0,0,0.1v0.1v0.1
										l0.5,0.3c0.1,0,0.2,0,0.2,0l0.5-0.3C60.7,40.2,60.7,40.2,60.8,40L60.8,40z"/>
									<path id="XMLID_16797_" class="st47" d="M60,39.6l-0.5,0.3c-0.1,0-0.1,0.1,0,0.2l0.5,0.3c0.1,0,0.2,0,0.2,0l0.5-0.3
										c0.1,0,0.1-0.1,0-0.2l-0.5-0.3C60.2,39.5,60.1,39.5,60,39.6z"/>
								</g>
							</g>
						</g>
						<g id="XMLID_16785_">
							<g id="XMLID_16790_">
								<g id="XMLID_16791_">
									<path id="XMLID_16793_" class="st48" d="M60,40.5C59.9,40.5,59.9,40.5,60,40.5l-0.6-0.4c-0.1,0-0.2,0-0.2,0l-0.6,0.4
										c0,0,0,0,0,0.1v0.1v0.1l0.5,0.3c0.1,0,0.2,0,0.2,0l0.5-0.3c0,0,0,0,0-0.1L60,40.5z"/>
									<path id="XMLID_16792_" class="st47" d="M59.1,40.1l-0.5,0.3c-0.1,0-0.1,0.1,0,0.2l0.5,0.3c0.1,0,0.2,0,0.2,0l0.5-0.3
										c0.1,0,0.1-0.1,0-0.2l-0.5-0.3C59.3,40,59.2,40,59.1,40.1z"/>
								</g>
							</g>
							<g id="XMLID_16786_">
								<g id="XMLID_16787_">
									<path id="XMLID_16789_" class="st48" d="M59.1,41.1C59.1,41,59,41,59.1,41.1l-0.6-0.4c-0.1,0-0.2,0-0.2,0L57.8,41
										c0,0,0,0,0,0.1v0.1v0.1l0.5,0.3c0.1,0,0.2,0,0.2,0l0.5-0.3C59,41.3,59,41.3,59.1,41.1L59.1,41.1z"/>
									<path id="XMLID_16788_" class="st47" d="M58.2,40.6l-0.5,0.3c-0.1,0-0.1,0.1,0,0.2l0.5,0.3c0.1,0,0.2,0,0.2,0l0.5-0.3
										c0.1,0,0.1-0.1,0-0.2l-0.5-0.3C58.4,40.5,58.3,40.5,58.2,40.6z"/>
								</g>
							</g>
						</g>
						<g id="XMLID_16776_">
							<g id="XMLID_16781_">
								<g id="XMLID_16782_">
									<path id="XMLID_16784_" class="st48" d="M58.2,41.6C58.2,41.5,58.1,41.5,58.2,41.6l-0.6-0.4c-0.1,0-0.2,0-0.2,0l-0.5,0.3
										c0,0,0,0,0,0.1v0.1v0.1l0.5,0.3c0.1,0,0.2,0,0.2,0l0.5-0.3C58.1,41.8,58.1,41.8,58.2,41.6L58.2,41.6z"/>
									<path id="XMLID_16783_" class="st47" d="M57.4,41.1l-0.6,0.3c-0.1,0-0.1,0.1,0,0.2l0.5,0.3c0.1,0,0.2,0,0.2,0l0.5-0.3
										c0.1,0,0.1-0.1,0-0.2l-0.4-0.3C57.5,41.1,57.4,41.1,57.4,41.1z"/>
								</g>
							</g>
							<g id="XMLID_16777_">
								<g id="XMLID_16778_">
									<path id="XMLID_16780_" class="st48" d="M57.3,42.1C57.3,42.1,57.2,42,57.3,42.1l-0.6-0.4c-0.1,0-0.2,0-0.2,0L56,42
										c0,0,0,0,0,0.1v0.1v0.1l0.5,0.3c0.1,0,0.2,0,0.2,0l0.5-0.3C57.2,42.3,57.2,42.3,57.3,42.1L57.3,42.1z"/>
									<path id="XMLID_16779_" class="st47" d="M56.5,41.6L56,41.9c-0.1,0-0.1,0.1,0,0.2l0.5,0.3c0.1,0,0.2,0,0.2,0l0.5-0.3
										c0.1,0,0.1-0.1,0-0.2l-0.5-0.3C56.6,41.6,56.5,41.6,56.5,41.6z"/>
								</g>
							</g>
						</g>
						<g id="XMLID_16771_">
							<g id="XMLID_16772_">
								<g id="XMLID_16773_">
									<path id="XMLID_16775_" class="st48" d="M56.4,42.6C56.4,42.6,56.3,42.6,56.4,42.6l-0.6-0.4c-0.1,0-0.2,0-0.2,0l-0.5,0.3
										c0,0,0,0,0,0.1v0.1v0.1l0.5,0.3c0.1,0,0.2,0,0.2,0l0.5-0.3C56.3,42.8,56.3,42.8,56.4,42.6L56.4,42.6z"/>
									<path id="XMLID_16774_" class="st47" d="M55.6,42.1l-0.5,0.3c-0.1,0-0.1,0.1,0,0.2l0.5,0.3c0.1,0,0.2,0,0.2,0l0.5-0.3
										c0.1,0,0.1-0.1,0-0.2l-0.5-0.3C55.7,42.1,55.6,42.1,55.6,42.1z"/>
								</g>
							</g>
						</g>
					</g>
					<g id="XMLID_16767_">
						<path id="XMLID_16769_" class="st48" d="M68,36.9C68,36.9,68,36.8,68,36.9L66.6,36c-0.1,0-0.2,0-0.2,0l-0.5,0.3c0,0,0,0,0,0.1
							v0.1v0.1l0.5,0.3c0.1,0,0.1,0,0.2,0h0.1l0.8,0.4c0.1,0,0.2,0,0.2,0l0.4-0.2C68.1,37.1,68.1,37.1,68,36.9L68,36.9z"/>
						<path id="XMLID_16768_" class="st47" d="M68,36.7l-1-0.6l0,0l-0.4-0.2c-0.1,0-0.2,0-0.2,0l-0.5,0.3c-0.1,0-0.1,0.1,0,0.2
							l0.5,0.3c0.1,0,0.1,0,0.2,0h0.1l0.8,0.4c0.1,0,0.2,0,0.2,0l0.4-0.2C68,36.9,68,36.8,68,36.7z"/>
					</g>
				</g>
				<g id="XMLID_16705_">
					<g id="XMLID_16760_">
						<g id="XMLID_16761_">
							<g id="XMLID_16762_">
								<g id="XMLID_16763_">
									<path id="XMLID_16765_" class="st48" d="M56.5,43.6C56.5,43.5,56.5,43.5,56.5,43.6l-0.6-0.4c-0.1,0-0.2,0-0.2,0l-1,0.6
										c0,0,0,0,0,0.1V44v0.1l0.5,0.3c0.1,0,0.2,0,0.2,0l1-0.6C56.4,43.8,56.4,43.8,56.5,43.6L56.5,43.6z"/>
									<path id="XMLID_16764_" class="st47" d="M55.7,43.1l-1,0.6c-0.1,0-0.1,0.1,0,0.2l0.5,0.3c0.1,0,0.2,0,0.2,0l1-0.6
										c0.1,0,0.1-0.1,0-0.2l-0.5-0.3C55.9,43.1,55.8,43.1,55.7,43.1z"/>
								</g>
							</g>
						</g>
					</g>
					<g id="XMLID_16756_">
						<g id="XMLID_16757_">
							<path id="XMLID_16759_" class="st48" d="M67.3,37.3L67.3,37.3l-0.6-0.4c-0.1,0-0.2,0-0.2,0L66,37.2c0,0,0,0,0,0.1v0.1v0.1
								l0.5,0.3c0.1,0,0.2,0,0.2,0l0.5-0.3C67.2,37.5,67.2,37.5,67.3,37.3L67.3,37.3z"/>
							<path id="XMLID_16758_" class="st47" d="M66.5,36.9L66,37.2c-0.1,0-0.1,0.1,0,0.2l0.5,0.3c0.1,0,0.2,0,0.2,0l0.5-0.3
								c0.1,0,0.1-0.1,0-0.2l-0.5-0.3C66.6,36.8,66.6,36.8,66.5,36.9z"/>
						</g>
					</g>
					<g id="XMLID_16747_">
						<g id="XMLID_16752_">
							<g id="XMLID_16753_">
								<path id="XMLID_16755_" class="st48" d="M66.4,37.8L66.4,37.8l-0.6-0.4c-0.1,0-0.2,0-0.2,0l-0.5,0.3c0,0,0,0,0,0.1v0.1V38
									l0.5,0.3c0.1,0,0.2,0,0.2,0l0.5-0.3C66.3,38,66.3,38,66.4,37.8L66.4,37.8z"/>
								<path id="XMLID_16754_" class="st47" d="M65.6,37.4l-0.5,0.3c-0.1,0-0.1,0.1,0,0.2l0.5,0.3c0.1,0,0.2,0,0.2,0l0.5-0.3
									c0.1,0,0.1-0.1,0-0.2l-0.5-0.3C65.7,37.3,65.7,37.3,65.6,37.4z"/>
							</g>
						</g>
						<g id="XMLID_16748_">
							<g id="XMLID_16749_">
								<path id="XMLID_16751_" class="st48" d="M65.5,38.4C65.5,38.3,65.5,38.3,65.5,38.4L64.9,38c-0.1,0-0.2,0-0.2,0l-0.5,0.3
									c0,0,0,0,0,0.1v0.1v0.1l0.5,0.3c0.1,0,0.2,0,0.2,0l0.5-0.3C65.4,38.6,65.4,38.6,65.5,38.4L65.5,38.4z"/>
								<path id="XMLID_16750_" class="st47" d="M64.7,37.9l-0.5,0.3c-0.1,0-0.1,0.1,0,0.2l0.5,0.3c0.1,0,0.2,0,0.2,0l0.5-0.3
									c0.1,0,0.1-0.1,0-0.2l-0.5-0.3C64.9,37.9,64.8,37.9,64.7,37.9z"/>
							</g>
						</g>
					</g>
					<g id="XMLID_16738_">
						<g id="XMLID_16743_">
							<g id="XMLID_16744_">
								<path id="XMLID_16746_" class="st48" d="M64.6,38.9C64.6,38.9,64.6,38.8,64.6,38.9L64,38.5c-0.1,0-0.2,0-0.2,0l-0.5,0.3
									c0,0,0,0,0,0.1V39v0.1l0.5,0.3c0.1,0,0.2,0,0.2,0l0.5-0.3C64.5,39.1,64.5,39.1,64.6,38.9L64.6,38.9z"/>
								<path id="XMLID_16745_" class="st47" d="M63.8,38.4l-0.5,0.3c-0.1,0-0.1,0.1,0,0.2l0.5,0.3c0.1,0,0.2,0,0.2,0l0.5-0.3
									c0.1,0,0.1-0.1,0-0.2L64,38.4C64,38.4,63.9,38.4,63.8,38.4z"/>
							</g>
						</g>
						<g id="XMLID_16739_">
							<g id="XMLID_16740_">
								<path id="XMLID_16742_" class="st48" d="M63.7,39.4C63.7,39.4,63.7,39.3,63.7,39.4L63.1,39c-0.1,0-0.2,0-0.2,0l-0.5,0.3
									c0,0,0,0,0,0.1v0.1v0.1l0.5,0.3c0.1,0,0.2,0,0.2,0l0.5-0.3C63.6,39.6,63.6,39.6,63.7,39.4L63.7,39.4z"/>
								<path id="XMLID_16741_" class="st47" d="M62.9,38.9l-0.5,0.3c-0.1,0-0.1,0.1,0,0.2l0.5,0.3c0.1,0,0.2,0,0.2,0l0.5-0.3
									c0.1,0,0.1-0.1,0-0.2l-0.5-0.3C63.1,38.9,63,38.9,62.9,38.9z"/>
							</g>
						</g>
					</g>
					<g id="XMLID_16729_">
						<g id="XMLID_16734_">
							<g id="XMLID_16735_">
								<path id="XMLID_16737_" class="st48" d="M62.8,39.9L62.8,39.9l-0.6-0.4c-0.1,0-0.2,0-0.2,0l-0.5,0.3c0,0,0,0,0,0.1V40v0.1
									l0.5,0.3c0.1,0,0.2,0,0.2,0l0.5-0.3C62.7,40.1,62.7,40.1,62.8,39.9L62.8,39.9z"/>
								<path id="XMLID_16736_" class="st47" d="M62,39.5l-0.5,0.3c-0.1,0-0.1,0.1,0,0.2l0.5,0.3c0.1,0,0.2,0,0.2,0l0.5-0.3
									c0.1,0,0.1-0.1,0-0.2l-0.5-0.3C62.2,39.4,62.1,39.4,62,39.5z"/>
							</g>
						</g>
						<g id="XMLID_16730_">
							<g id="XMLID_16731_">
								<path id="XMLID_16733_" class="st48" d="M61.9,40.4L61.9,40.4L61.3,40c-0.1,0-0.2,0-0.2,0l-0.5,0.4c0,0,0,0,0,0.1v0.1v0.1
									l0.5,0.3c0.1,0,0.2,0,0.2,0l0.5-0.3c0,0,0,0,0-0.1L61.9,40.4z"/>
								<path id="XMLID_16732_" class="st47" d="M61.1,40l-0.5,0.3c-0.1,0-0.1,0.1,0,0.2l0.5,0.3c0.1,0,0.2,0,0.2,0l0.5-0.3
									c0.1,0,0.1-0.1,0-0.2L61.3,40C61.3,39.9,61.2,39.9,61.1,40z"/>
							</g>
						</g>
					</g>
					<g id="XMLID_16720_">
						<g id="XMLID_16725_">
							<g id="XMLID_16726_">
								<path id="XMLID_16728_" class="st48" d="M61,41C61,40.9,61,40.9,61,41l-0.6-0.4c-0.1,0-0.2,0-0.2,0l-0.5,0.3c0,0,0,0,0,0.1
									v0.1v0.1l0.5,0.3c0.1,0,0.2,0,0.2,0l0.5-0.3C60.9,41.2,60.9,41.2,61,41L61,41z"/>
								<path id="XMLID_16727_" class="st47" d="M60.2,40.5l-0.5,0.3c-0.1,0-0.1,0.1,0,0.2l0.5,0.3c0.1,0,0.2,0,0.2,0l0.5-0.3
									c0.1,0,0.1-0.1,0-0.2l-0.5-0.3C60.4,40.5,60.3,40.5,60.2,40.5z"/>
							</g>
						</g>
						<g id="XMLID_16721_">
							<g id="XMLID_16722_">
								<path id="XMLID_16724_" class="st48" d="M60.1,41.5C60.1,41.4,60.1,41.4,60.1,41.5l-0.6-0.4c-0.1,0-0.2,0-0.2,0l-0.5,0.3
									c0,0,0,0,0,0.1v0.1v0.1l0.5,0.3c0.1,0,0.2,0,0.2,0l0.5-0.3C60,41.7,60,41.7,60.1,41.5L60.1,41.5z"/>
								<path id="XMLID_16723_" class="st47" d="M59.3,41l-0.5,0.3c-0.1,0-0.1,0.1,0,0.2l0.5,0.3c0.1,0,0.2,0,0.2,0l0.5-0.3
									c0.1,0,0.1-0.1,0-0.2L59.5,41C59.5,41,59.4,41,59.3,41z"/>
							</g>
						</g>
					</g>
					<g id="XMLID_16711_">
						<g id="XMLID_16716_">
							<g id="XMLID_16717_">
								<path id="XMLID_16719_" class="st48" d="M59.2,42C59.2,42,59.2,41.9,59.2,42l-0.6-0.4c-0.1,0-0.2,0-0.2,0l-0.5,0.3
									c0,0,0,0,0,0.1v0.1v0.1l0.5,0.3c0.1,0,0.2,0,0.2,0l0.5-0.3C59.1,42.2,59.1,42.2,59.2,42L59.2,42z"/>
								<path id="XMLID_16718_" class="st47" d="M58.4,41.5l-0.5,0.3c-0.1,0-0.1,0.1,0,0.2l0.5,0.3c0.1,0,0.2,0,0.2,0l0.5-0.3
									c0.1,0,0.1-0.1,0-0.2l-0.5-0.3C58.6,41.5,58.5,41.5,58.4,41.5z"/>
							</g>
						</g>
						<g id="XMLID_16712_">
							<g id="XMLID_16713_">
								<path id="XMLID_16715_" class="st48" d="M58.3,42.5L58.3,42.5l-0.6-0.4c-0.1,0-0.2,0-0.2,0L57,42.4c0,0,0,0,0,0.1v0.1v0.1
									l0.5,0.3c0.1,0,0.2,0,0.2,0l0.5-0.3C58.2,42.7,58.2,42.7,58.3,42.5L58.3,42.5z"/>
								<path id="XMLID_16714_" class="st47" d="M57.5,42.1L57,42.4c-0.1,0-0.1,0.1,0,0.2l0.5,0.3c0.1,0,0.2,0,0.2,0l0.5-0.3
									c0.1,0,0.1-0.1,0-0.2l-0.5-0.3C57.7,42,57.6,42,57.5,42.1z"/>
							</g>
						</g>
					</g>
					<g id="XMLID_16706_">
						<g id="XMLID_16707_">
							<g id="XMLID_16708_">
								<path id="XMLID_16710_" class="st48" d="M57.4,43L57.4,43l-0.6-0.4c-0.1,0-0.2,0-0.2,0l-0.5,0.3c0,0,0,0,0,0.1v0.1v0.1
									l0.5,0.3c0.1,0,0.2,0,0.2,0l0.5-0.3C57.3,43.2,57.3,43.2,57.4,43L57.4,43z"/>
								<path id="XMLID_16709_" class="st47" d="M56.6,42.6l-0.5,0.3c-0.1,0-0.1,0.1,0,0.2l0.5,0.3c0.1,0,0.2,0,0.2,0l0.5-0.3
									c0.1,0,0.1-0.1,0-0.2l-0.5-0.3C56.8,42.5,56.7,42.5,56.6,42.6z"/>
							</g>
						</g>
					</g>
				</g>
				<g id="XMLID_16644_">
					<g id="XMLID_16700_">
						<g id="XMLID_16701_">
							<g id="XMLID_16702_">
								<path id="XMLID_16704_" class="st48" d="M57.1,44.2L57.1,44.2l-0.6-0.4c-0.1,0-0.2,0-0.2,0l-0.7,0.5c0,0,0,0,0,0.1l0,0v0.1
									l0.5,0.3c0.1,0,0.2,0,0.2,0l0.7-0.4C57,44.4,57,44.4,57.1,44.2L57.1,44.2z"/>
								<path id="XMLID_16703_" class="st47" d="M56.3,43.8l-0.7,0.4c-0.1,0-0.1,0.1,0,0.2l0.5,0.3c0.1,0,0.2,0,0.2,0l0.7-0.4
									c0.1,0,0.1-0.1,0-0.2l-0.5-0.3C56.5,43.7,56.4,43.7,56.3,43.8z"/>
							</g>
						</g>
					</g>
					<g id="XMLID_16645_">
						<g id="XMLID_16696_">
							<g id="XMLID_16697_">
								<path id="XMLID_16699_" class="st48" d="M68.9,37.4L68.9,37.4L68.3,37c-0.1,0-0.2,0-0.2,0l-1.6,0.9c0,0,0,0,0,0.1v0.1v0.1
									l0.5,0.3c0.1,0,0.2,0,0.2,0l1.6-0.9C68.8,37.6,68.8,37.6,68.9,37.4L68.9,37.4z"/>
								<path id="XMLID_16698_" class="st47" d="M68.1,37l-1.6,0.9c-0.1,0-0.1,0.1,0,0.2l0.5,0.3c0.1,0,0.2,0,0.2,0l1.6-0.9
									c0.1,0,0.1-0.1,0-0.2L68.3,37C68.3,36.9,68.2,36.9,68.1,37z"/>
							</g>
						</g>
						<g id="XMLID_16687_">
							<g id="XMLID_16692_">
								<g id="XMLID_16693_">
									<path id="XMLID_16695_" class="st48" d="M67,38.5C67,38.5,66.9,38.5,67,38.5l-0.6-0.4c-0.1,0-0.2,0-0.2,0l-0.6,0.4
										c0,0,0,0,0,0.1v0.1v0.1l0.5,0.3c0.1,0,0.2,0,0.2,0l0.5-0.3c0,0,0,0,0-0.1L67,38.5z"/>
									<path id="XMLID_16694_" class="st47" d="M66.2,38.1l-0.6,0.3c-0.1,0-0.1,0.1,0,0.2l0.5,0.3c0.1,0,0.2,0,0.2,0l0.5-0.3
										c0.1,0,0.1-0.1,0-0.2l-0.5-0.3C66.3,38,66.2,38,66.2,38.1z"/>
								</g>
							</g>
							<g id="XMLID_16688_">
								<g id="XMLID_16689_">
									<path id="XMLID_16691_" class="st48" d="M66.1,39.1C66.1,39,66,39,66.1,39.1l-0.6-0.4c-0.1,0-0.2,0-0.2,0L64.8,39
										c0,0,0,0,0,0.1v0.1v0.1l0.5,0.3c0.1,0,0.2,0,0.2,0l0.5-0.3C66,39.3,66,39.3,66.1,39.1L66.1,39.1z"/>
									<path id="XMLID_16690_" class="st47" d="M65.3,38.6l-0.5,0.3c-0.1,0-0.1,0.1,0,0.2l0.5,0.3c0.1,0,0.2,0,0.2,0l0.5-0.3
										c0.1,0,0.1-0.1,0-0.2l-0.5-0.3C65.4,38.6,65.3,38.6,65.3,38.6z"/>
								</g>
							</g>
						</g>
						<g id="XMLID_16678_">
							<g id="XMLID_16683_">
								<g id="XMLID_16684_">
									<path id="XMLID_16686_" class="st48" d="M65.2,39.6C65.2,39.6,65.2,39.5,65.2,39.6l-0.6-0.4c-0.1,0-0.2,0-0.2,0l-0.5,0.3
										c0,0,0,0,0,0.1v0.1v0.1l0.5,0.3c0.1,0,0.2,0,0.2,0l0.5-0.3C65.1,39.8,65.1,39.8,65.2,39.6L65.2,39.6z"/>
									<path id="XMLID_16685_" class="st47" d="M64.4,39.1l-0.6,0.3c-0.1,0-0.1,0.1,0,0.2l0.5,0.3c0.1,0,0.2,0,0.2,0l0.5-0.3
										c0.1,0,0.1-0.1,0-0.2l-0.4-0.3C64.5,39.1,64.4,39.1,64.4,39.1z"/>
								</g>
							</g>
							<g id="XMLID_16679_">
								<g id="XMLID_16680_">
									<path id="XMLID_16682_" class="st48" d="M64.3,40.1C64.3,40.1,64.3,40,64.3,40.1l-0.6-0.4c-0.1,0-0.2,0-0.2,0L63,40
										c0,0,0,0,0,0.1v0.1v0.1l0.5,0.3c0.1,0,0.2,0,0.2,0l0.5-0.3C64.2,40.3,64.2,40.3,64.3,40.1L64.3,40.1z"/>
									<path id="XMLID_16681_" class="st47" d="M63.5,39.6L63,39.9c-0.1,0-0.1,0.1,0,0.2l0.5,0.3c0.1,0,0.2,0,0.2,0l0.5-0.3
										c0.1,0,0.1-0.1,0-0.2l-0.5-0.3C63.6,39.6,63.5,39.6,63.5,39.6z"/>
								</g>
							</g>
						</g>
						<g id="XMLID_16669_">
							<g id="XMLID_16674_">
								<g id="XMLID_16675_">
									<path id="XMLID_16677_" class="st48" d="M63.4,40.6L63.4,40.6l-0.6-0.4c-0.1,0-0.2,0-0.2,0l-0.5,0.3c0,0,0,0,0,0.1v0.1v0.1
										l0.5,0.3c0.1,0,0.2,0,0.2,0l0.5-0.3C63.3,40.8,63.3,40.8,63.4,40.6L63.4,40.6z"/>
									<path id="XMLID_16676_" class="st47" d="M62.6,40.2l-0.5,0.3c-0.1,0-0.1,0.1,0,0.2l0.5,0.3c0.1,0,0.2,0,0.2,0l0.5-0.3
										c0.1,0,0.1-0.1,0-0.2l-0.5-0.3C62.7,40.1,62.6,40.1,62.6,40.2z"/>
								</g>
							</g>
							<g id="XMLID_16670_">
								<g id="XMLID_16671_">
									<path id="XMLID_16673_" class="st48" d="M62.5,41.1L62.5,41.1l-0.6-0.4c-0.1,0-0.2,0-0.2,0L61.2,41c0,0,0,0,0,0.1v0.1v0.1
										l0.5,0.3c0.1,0,0.2,0,0.2,0l0.5-0.3C62.4,41.3,62.4,41.3,62.5,41.1L62.5,41.1z"/>
									<path id="XMLID_16672_" class="st47" d="M61.7,40.7L61.2,41c-0.1,0-0.1,0.1,0,0.2l0.5,0.3c0.1,0,0.2,0,0.2,0l0.5-0.3
										c0.1,0,0.1-0.1,0-0.2l-0.5-0.3C61.8,40.6,61.7,40.6,61.7,40.7z"/>
								</g>
							</g>
						</g>
						<g id="XMLID_16660_">
							<g id="XMLID_16665_">
								<g id="XMLID_16666_">
									<path id="XMLID_16668_" class="st48" d="M61.6,41.7C61.6,41.6,61.6,41.6,61.6,41.7L61,41.3c-0.1,0-0.2,0-0.2,0l-0.5,0.3
										c0,0,0,0,0,0.1v0.1v0.1l0.5,0.3c0.1,0,0.2,0,0.2,0l0.5-0.3C61.5,41.9,61.5,41.9,61.6,41.7L61.6,41.7z"/>
									<path id="XMLID_16667_" class="st47" d="M60.8,41.2l-0.5,0.3c-0.1,0-0.1,0.1,0,0.2l0.5,0.3c0.1,0,0.2,0,0.2,0l0.5-0.3
										c0.1,0,0.1-0.1,0-0.2L61,41.2C60.9,41.2,60.8,41.2,60.8,41.2z"/>
								</g>
							</g>
							<g id="XMLID_16661_">
								<g id="XMLID_16662_">
									<path id="XMLID_16664_" class="st48" d="M60.7,42.2C60.7,42.1,60.7,42.1,60.7,42.2l-0.6-0.4c-0.1,0-0.2,0-0.2,0l-0.5,0.3
										c0,0,0,0,0,0.1v0.1v0.1l0.5,0.3c0.1,0,0.2,0,0.2,0l0.5-0.3c0,0,0,0,0-0.1L60.7,42.2z"/>
									<path id="XMLID_16663_" class="st47" d="M59.9,41.7L59.4,42c-0.1,0-0.1,0.1,0,0.2l0.5,0.3c0.1,0,0.2,0,0.2,0l0.5-0.3
										c0.1,0,0.1-0.1,0-0.2l-0.5-0.3C60,41.7,59.9,41.7,59.9,41.7z"/>
								</g>
							</g>
						</g>
						<g id="XMLID_16651_">
							<g id="XMLID_16656_">
								<g id="XMLID_16657_">
									<path id="XMLID_16659_" class="st48" d="M59.8,42.7C59.8,42.7,59.8,42.6,59.8,42.7l-0.6-0.4c-0.1,0-0.2,0-0.2,0l-0.5,0.3
										c0,0,0,0,0,0.1v0.1v0.1l0.5,0.3c0.1,0,0.2,0,0.2,0l0.5-0.3C59.7,42.9,59.7,42.9,59.8,42.7L59.8,42.7z"/>
									<path id="XMLID_16658_" class="st47" d="M59,42.2l-0.5,0.3c-0.1,0-0.1,0.1,0,0.2L59,43c0.1,0,0.2,0,0.2,0l0.5-0.3
										c0.1,0,0.1-0.1,0-0.2l-0.5-0.3C59.1,42.2,59.1,42.2,59,42.2z"/>
								</g>
							</g>
							<g id="XMLID_16652_">
								<g id="XMLID_16653_">
									<path id="XMLID_16655_" class="st48" d="M58.9,43.2L58.9,43.2l-0.6-0.4c-0.1,0-0.2,0-0.2,0l-0.5,0.3c0,0,0,0,0,0.1v0.1v0.1
										l0.5,0.3c0.1,0,0.2,0,0.2,0l0.5-0.3C58.8,43.4,58.8,43.4,58.9,43.2L58.9,43.2z"/>
									<path id="XMLID_16654_" class="st47" d="M58.1,42.8l-0.5,0.3c-0.1,0-0.1,0.1,0,0.2l0.5,0.3c0.1,0,0.2,0,0.2,0l0.5-0.3
										c0.1,0,0.1-0.1,0-0.2l-0.5-0.3C58.2,42.7,58.2,42.7,58.1,42.8z"/>
								</g>
							</g>
						</g>
						<g id="XMLID_16646_">
							<g id="XMLID_16647_">
								<g id="XMLID_16648_">
									<path id="XMLID_16650_" class="st48" d="M58,43.7L58,43.7l-0.6-0.3c-0.1,0-0.2,0-0.2,0l-0.6,0.3c0,0,0,0,0,0.1v0.1V44
										l0.5,0.3c0.1,0,0.2,0,0.2,0l0.5-0.3c0,0,0,0,0-0.1L58,43.7z"/>
									<path id="XMLID_16649_" class="st47" d="M57.2,43.3l-0.6,0.3c-0.1,0-0.1,0.1,0,0.2l0.5,0.3c0.1,0,0.2,0,0.2,0l0.5-0.3
										c0.1,0,0.1-0.1,0-0.2l-0.5-0.3C57.3,43.2,57.3,43.2,57.2,43.3z"/>
								</g>
							</g>
						</g>
					</g>
				</g>
				<g id="XMLID_16587_">
					<g id="XMLID_16603_">
						<g id="XMLID_16639_">
							<g id="XMLID_16640_">
								<g id="XMLID_16641_">
									<path id="XMLID_16643_" class="st48" d="M65.4,40.5C65.4,40.4,65.4,40.4,65.4,40.5l-0.6-0.4c-0.1,0-0.2,0-0.2,0l-4.5,2.6
										c0,0,0,0,0,0.1v0.1V43l0.5,0.3c0.1,0,0.2,0,0.2,0l4.5-2.6C65.3,40.7,65.3,40.7,65.4,40.5L65.4,40.5z"/>
									<path id="XMLID_16642_" class="st47" d="M64.6,40l-4.5,2.6c-0.1,0-0.1,0.1,0,0.2l0.5,0.3c0.1,0,0.2,0,0.2,0l4.5-2.6
										c0.1,0,0.1-0.1,0-0.2L64.8,40C64.8,40,64.7,40,64.6,40z"/>
								</g>
							</g>
						</g>
						<g id="XMLID_16634_">
							<g id="XMLID_16635_">
								<g id="XMLID_16636_">
									<path id="XMLID_16638_" class="st48" d="M57.7,44.9L57.7,44.9l-0.6-0.4c-0.1,0-0.2,0-0.2,0l-0.4,0.3c0,0,0,0,0,0.1V45v0.1
										l0.5,0.3c0.1,0,0.2,0,0.2,0l0.4-0.3C57.6,45.1,57.6,45.1,57.7,44.9L57.7,44.9z"/>
									<path id="XMLID_16637_" class="st47" d="M56.9,44.5l-0.4,0.3c-0.1,0-0.1,0.1,0,0.2l0.5,0.3c0.1,0,0.2,0,0.2,0l0.4-0.3
										c0.1,0,0.1-0.1,0-0.2l-0.5-0.3C57.1,44.4,57,44.4,56.9,44.5z"/>
								</g>
							</g>
						</g>
						<g id="XMLID_16629_">
							<g id="XMLID_16630_">
								<g id="XMLID_16631_">
									<path id="XMLID_16633_" class="st48" d="M58.6,44.4C58.5,44.4,58.5,44.4,58.6,44.4L58,44c-0.1,0-0.2,0-0.2,0l-0.4,0.3
										c0,0,0,0,0,0.1v0.1v0.1l0.5,0.3c0.1,0,0.2,0,0.2,0l0.4-0.3C58.5,44.6,58.5,44.6,58.6,44.4L58.6,44.4z"/>
									<path id="XMLID_16632_" class="st47" d="M57.7,44l-0.4,0.3c-0.1,0-0.1,0.1,0,0.2l0.5,0.3c0.1,0,0.2,0,0.2,0l0.4-0.3
										c0.1,0,0.1-0.1,0-0.2L57.9,44C57.9,43.9,57.8,43.9,57.7,44z"/>
								</g>
							</g>
						</g>
						<g id="XMLID_16624_">
							<g id="XMLID_16625_">
								<g id="XMLID_16626_">
									<path id="XMLID_16628_" class="st48" d="M59.4,44C59.4,43.9,59.4,43.9,59.4,44l-0.6-0.4c-0.1,0-0.2,0-0.2,0l-0.4,0.3
										c0,0,0,0,0,0.1v0.1v0.1l0.4,0.2c0.1,0,0.2,0,0.2,0l0.4-0.3c0,0,0,0,0-0.1L59.4,44z"/>
									<path id="XMLID_16627_" class="st47" d="M58.6,43.5l-0.4,0.3c-0.1,0-0.1,0.1,0,0.2l0.5,0.3c0.1,0,0.2,0,0.2,0l0.4-0.3
										c0.1,0,0.1-0.1,0-0.2l-0.5-0.3C58.7,43.5,58.6,43.5,58.6,43.5z"/>
								</g>
							</g>
						</g>
						<g id="XMLID_16619_">
							<g id="XMLID_16620_">
								<g id="XMLID_16621_">
									<path id="XMLID_16623_" class="st48" d="M60.5,43.3C60.5,43.3,60.5,43.2,60.5,43.3l-0.6-0.4c-0.1,0-0.2,0-0.2,0l-0.8,0.5
										c0,0,0,0,0,0.1v0.1v0.1l0.5,0.3c0.1,0,0.2,0,0.2,0l0.8-0.4c0,0,0,0,0-0.1L60.5,43.3z"/>
									<path id="XMLID_16622_" class="st47" d="M59.7,42.8l-0.8,0.4c-0.1,0-0.1,0.1,0,0.2l0.5,0.3c0.1,0,0.2,0,0.2,0l0.8-0.4
										c0.1,0,0.1-0.1,0-0.2l-0.5-0.3C59.9,42.8,59.8,42.8,59.7,42.8z"/>
								</g>
							</g>
						</g>
						<g id="XMLID_16614_">
							<g id="XMLID_16615_">
								<g id="XMLID_16616_">
									<path id="XMLID_16618_" class="st48" d="M66.5,39.8L66.5,39.8l-0.6-0.4c-0.1,0-0.2,0-0.2,0l-0.8,0.4c0,0,0,0,0,0.1V40v0.1
										l0.5,0.3c0.1,0,0.2,0,0.2,0l0.8-0.4C66.4,40,66.4,40,66.5,39.8L66.5,39.8z"/>
									<path id="XMLID_16617_" class="st47" d="M65.7,39.4l-0.8,0.4c-0.1,0-0.1,0.1,0,0.2l0.5,0.3c0.1,0,0.2,0,0.2,0l0.8-0.4
										c0.1,0,0.1-0.1,0-0.2L66,39.4C65.9,39.3,65.8,39.3,65.7,39.4z"/>
								</g>
							</g>
						</g>
						<g id="XMLID_16609_">
							<g id="XMLID_16610_">
								<g id="XMLID_16611_">
									<path id="XMLID_16613_" class="st48" d="M67.4,39.3C67.4,39.3,67.3,39.3,67.4,39.3l-0.6-0.4c-0.1,0-0.2,0-0.2,0l-0.4,0.3
										c0,0,0,0,0,0.1v0.1v0.1l0.5,0.3c0.1,0,0.2,0,0.2,0l0.4-0.3C67.3,39.5,67.3,39.5,67.4,39.3L67.4,39.3z"/>
									<path id="XMLID_16612_" class="st47" d="M66.6,38.9l-0.4,0.3c-0.1,0-0.1,0.1,0,0.2l0.5,0.3c0.1,0,0.2,0,0.2,0l0.4-0.3
										c0.1,0,0.1-0.1,0-0.2l-0.5-0.3C66.7,38.8,66.6,38.8,66.6,38.9z"/>
								</g>
							</g>
						</g>
						<g id="XMLID_16604_">
							<g id="XMLID_16605_">
								<g id="XMLID_16606_">
									<path id="XMLID_16608_" class="st48" d="M69.8,37.9L69.8,37.9L69.8,37.9c-0.2-0.1-0.3-0.1-0.3-0.1l-0.4,0.3c0,0,0,0,0,0.1
										v0.1v0.1l0.1,0.1c0.1,0,0.2,0,0.2,0l0.4-0.3c0,0,0,0,0-0.1V37.9z"/>
									<path id="XMLID_16607_" class="st47" d="M69.4,37.7L69,38c-0.1,0-0.1,0.1,0,0.2l0.1,0.1c0.1,0,0.2,0,0.2,0l0.4-0.3
										c0.1,0,0.1-0.1,0-0.2l-0.1-0.1C69.6,37.7,69.5,37.7,69.4,37.7z"/>
								</g>
							</g>
						</g>
					</g>
					<g id="XMLID_16598_">
						<g id="XMLID_16599_">
							<g id="XMLID_16600_">
								<path id="XMLID_16602_" class="st48" d="M68.2,38.9C68.2,38.8,68.2,38.8,68.2,38.9L68.2,38.9c-0.2-0.1-0.3-0.1-0.3-0.1
									l-0.4,0.3c0,0,0,0,0,0.1v0.1v0.1l0.1,0.1c0.1,0,0.2,0,0.2,0l0.4-0.3c0,0,0,0,0-0.1V38.9z"/>
								<path id="XMLID_16601_" class="st47" d="M67.8,38.7L67.4,39c-0.1,0-0.1,0.1,0,0.2l0.1,0.1c0.1,0,0.2,0,0.2,0l0.4-0.3
									c0.1,0,0.1-0.1,0-0.2L68,38.7C68,38.6,67.9,38.6,67.8,38.7z"/>
							</g>
						</g>
					</g>
					<g id="XMLID_16593_">
						<g id="XMLID_16594_">
							<g id="XMLID_16595_">
								<path id="XMLID_16597_" class="st48" d="M68.6,38.2C68.6,38.1,68.5,38.1,68.6,38.2L68.6,38.2c-0.2-0.1-0.3-0.1-0.3-0.1
									l-0.4,0.3c0,0,0,0,0,0.1v0.1v0.1l0.1,0.1c0.1,0,0.2,0,0.2,0l0.4-0.3c0,0,0,0,0-0.1V38.2z"/>
								<path id="XMLID_16596_" class="st47" d="M68.2,37.9l-0.4,0.3c-0.1,0-0.1,0.1,0,0.2l0.1,0.1c0.1,0,0.2,0,0.2,0l0.4-0.3
									c0.1,0,0.1-0.1,0-0.2l-0.1-0.1C68.4,37.9,68.3,37.9,68.2,37.9z"/>
							</g>
						</g>
					</g>
					<g id="XMLID_16588_">
						<g id="XMLID_16589_">
							<g id="XMLID_16590_">
								<path id="XMLID_16592_" class="st48" d="M69,38.4C69,38.4,69,38.3,69,38.4L69,38.4c-0.2-0.1-0.3-0.1-0.3-0.1l-0.4,0.3
									c0,0,0,0,0,0.1v0.1v0.1l0.1,0.1c0.1,0,0.2,0,0.2,0l0.4-0.3c0,0,0,0,0-0.1V38.4z"/>
								<path id="XMLID_16591_" class="st47" d="M68.6,38.2l-0.4,0.2c-0.1,0-0.1,0.1,0,0.2l0.1,0.1c0.1,0,0.2,0,0.2,0l0.4-0.3
									c0.1,0,0.1-0.1,0-0.2l-0.1-0.1C68.8,38.1,68.7,38.1,68.6,38.2z"/>
							</g>
						</g>
					</g>
				</g>
			</g>
		</g>
	</g>
	<g id="XMLID_16580_">
		<path id="XMLID_16583_" class="st50" d="M49.2,46.8l4.4,2.5c0.8,0.5,0.8,1.6,0,2.1l-4.4,2.5c-0.9,0.5-1.9,0.5-2.8,0L42,51.4
			c-0.8-0.5-0.8-1.6,0-2.1l4.4-2.5C47.3,46.3,48.3,46.3,49.2,46.8z"/>
		<path id="XMLID_16582_" class="st51" d="M49.2,46.6l4.4,2.5c0.8,0.5,0.8,1.6,0,2.1l-4.4,2.5c-0.9,0.5-1.9,0.5-2.8,0L42,51.2
			c-0.8-0.5-0.8-1.6,0-2.1l4.4-2.5C47.3,46.1,48.3,46.1,49.2,46.6z"/>
		<path id="XMLID_16581_" class="st52" d="M49.2,53.8c-0.9,0.5-1.9,0.5-2.8,0L42,51.3c-0.8-0.5-0.8-1.6,0-2.1l4.4-2.5
			c0.9-0.5,1.9-0.5,2.8,0"/>
	</g>
	<g id="XMLID_16578_">
		<path id="XMLID_16579_" class="st53" d="M70,50.6c-4.2,1.7-9,2.8-12,2.8c-4.1,0.1-8-2.6-8.1-2.6l0.1-0.1c0,0,3.8,2.7,8,2.6
			C60.9,53.3,65.8,52.2,70,50.6L70,50.6z"/>
	</g>
	<polygon id="XMLID_16561_" class="st54" points="73.6,30.4 73.6,45.7 72.8,45.3 72.8,30 	"/>
	<g id="XMLID_1_">
		<path id="XMLID_16551_" class="st55" d="M45.3,71.6c0-1.3-2-2.4-4.4-2.4s-4.4,1.1-4.4,2.4c0,0.2,0,1.1,0,1.3c0,1.3,2,2.4,4.4,2.4
			s4.4-1.1,4.4-2.4C45.3,72.6,45.3,71.8,45.3,71.6z"/>
		<path class="st56" d="M40.8,69.1c-1.4,0-2.6,0.3-3.4,0.9v4.4c0.8,0.5,2,0.9,3.4,0.9c2.4,0,4.4-1.1,4.4-2.4c0-0.2,0-1.1,0-1.3
			C45.3,70.2,43.3,69.1,40.8,69.1z"/>
		<ellipse id="XMLID_16545_" class="st57" cx="40.8" cy="71.6" rx="4.4" ry="2.4"/>
		<path class="st58" d="M40.3,74c0.2,0,0.4,0,0.6,0c0.2,0,0.4,0,0.6,0v-4.2h-1.1L40.3,74L40.3,74z"/>
		<path id="XMLID_22_" class="st58" d="M45.3,71.6c0,1.3-2,2.4-4.4,2.4s-4.4-1.1-4.4-2.4"/>
		<rect id="XMLID_21_" x="40.4" y="61.7" class="st59" width="0.9" height="5.3"/>
		<rect x="40.7" y="61.8" class="st56" width="0.6" height="5.2"/>
		<path id="XMLID_20_" class="st59" d="M40.3,66.9v3.2l0,0c0,0.2,0.3,0.3,0.6,0.3s0.6-0.1,0.6-0.3v-3.3L40.3,66.9L40.3,66.9z"/>
		<rect id="XMLID_19_" x="40.5" y="59.5" class="st60" width="0.7" height="2.5"/>
		<path id="XMLID_18_" class="st59" d="M41.2,61.4h-0.8c-0.2,0-0.4,0.2-0.4,0.4l0,0c0,0.2,0.2,0.4,0.4,0.4h0.8
			c0.2,0,0.4-0.2,0.4-0.4l0,0C41.7,61.6,41.5,61.4,41.2,61.4z"/>
		<path class="st56" d="M41.3,61.4h-1c-0.2,0-0.3,0.1-0.3,0.3v0.1c0,0.2,0.1,0.3,0.3,0.3h1c0.2,0,0.3-0.1,0.3-0.3v-0.1
			C41.7,61.5,41.5,61.4,41.3,61.4z"/>
		<g id="XMLID_6_">
			<path id="XMLID_17_" class="st61" d="M45.9,57.8c0-3.1-2.9-5.3-3.3-6.9c-0.3-1.3-3.2-1.3-3.5,0c-0.4,1.5-3.3,3.8-3.3,6.9
				c0,0.1,0,0.2,0,0.3c0,1,2.2,1.8,5,1.8s5-0.8,5-1.8C45.9,58,45.9,57.8,45.9,57.8z"/>
			<path id="XMLID_16_" class="st62" d="M45.9,57.8c0-3.1-2.9-5.3-3.3-6.9c-0.3-1.3-2.8-0.9-3.2,0.4c-0.4,1.5-0.2,4.7-3.6,6.5
				c-0.1,0,0,0.2,0,0.3c0,1,2.2,1.8,5,1.8s5-0.8,5-1.8C45.9,58,45.9,57.8,45.9,57.8z"/>
			<path id="XMLID_15_" class="st63" d="M45.9,57.8c0-3.1-2.9-5.3-3.3-6.9c0,0-4.5,9-1.7,9s5-0.8,5-1.8C45.9,58,45.9,57.8,45.9,57.8
				z"/>
			<path id="XMLID_14_" class="st64" d="M46,57.8c0-1-2.3-1.9-5.1-1.9s-5.1,0.8-5.1,1.9V58c0,1,2.3,1.9,5.1,1.9s5.1-0.8,5.1-1.8
				C46,58,46,57.9,46,57.8z"/>
			<ellipse id="XMLID_13_" class="st65" cx="40.9" cy="58.1" rx="4.7" ry="1.7"/>
			<g id="XMLID_11_">
				<path id="XMLID_12_" class="st66" d="M45.6,58.1c0-0.9-2.1-1.7-4.7-1.7c-0.2,0-0.3,0-0.5,0h-0.1l-1.2,3.3
					c0.5,0.1,1.2,0.1,1.8,0.1C43.5,59.8,45.6,59,45.6,58.1z"/>
			</g>
			<path class="st67" d="M40.9,56.3c-2.1,0-3.8,0.5-4.5,1.1c0.6,0.7,2.4,1.1,4.5,1.1s3.8-0.5,4.5-1.1C44.7,56.8,42.9,56.3,40.9,56.3
				z"/>
			<path class="st67" d="M37.1,57c0.9,0.4,2.2,0.7,3.7,0.7s2.9-0.3,3.7-0.7c-0.9-0.4-2.2-0.7-3.7-0.7C39.4,56.3,38,56.6,37.1,57z"/>
			<g id="XMLID_9_">
				<path id="XMLID_10_" class="st68" d="M39.5,57.6c0.2,0.3,0.6,0.8,1.4,0.8c0.8,0,1.2-0.4,1.4-0.8c0.1-0.2,0.3-0.6,0.2-1.1
					c-0.5-0.1-1.1-0.1-1.6-0.1c-0.6,0-1.1,0-1.6,0.1C39.1,57,39.3,57.4,39.5,57.6z"/>
			</g>
			<g id="XMLID_7_">
				<path id="XMLID_8_" class="st69" d="M39.8,57.5c0.1,0.3,0.5,0.6,1.1,0.6c0.3,0,0.5-0.1,0.7-0.2c0.1-0.1-0.4-0.5-0.9-0.7
					c-0.5-0.3-1.1-0.3-1.1-0.3C39.6,57.2,39.7,57.4,39.8,57.5z"/>
			</g>
		</g>
		<g id="XMLID_3_">
			<path id="XMLID_5_" class="st64" d="M41.6,72.5c0-0.2-0.3-0.4-0.8-0.4c-0.4,0-0.8,0.2-0.8,0.4v0.2c0,0.2,0.3,0.4,0.8,0.4
				c0.4,0,0.8-0.2,0.8-0.4V72.5z"/>
			<ellipse id="XMLID_4_" class="st62" cx="40.8" cy="72.5" rx="0.8" ry="0.4"/>
		</g>
	</g>
	<g>
		<g id="XMLID_16562_">
			<path id="XMLID_16567_" class="st49" d="M79.2,46.7l-3.2-1.9c-0.8-0.5-1.8-0.5-2.6,0l-4.3,2.5c-0.3,0.2-0.5,0.5-0.5,0.9
				c0,0.1,0,0.5,0,0.7c0,0.3,0.2,0.6,0.5,0.8l3.2,1.9c0.8,0.5,1.8,0.5,2.6,0l4.3-2.6c0.3-0.2,0.5-0.7,0.5-1c0-0.1,0-0.4,0-0.5
				C79.6,47.1,79.4,46.9,79.2,46.7z"/>
			<path class="st70" d="M73.7,44.7h-0.3c0,0-0.1,0-0.1,0.1L69,47.3c-0.3,0.2-0.5,0.5-0.5,0.9c0,0.1,0,0.5,0,0.7
				c0,0.3,0.2,0.6,0.5,0.8l3.2,1.9c0.5,0.3,1,0.4,1.5,0.3C73.7,51.9,73.7,44.7,73.7,44.7z"/>
			<path id="XMLID_16566_" class="st71" d="M75.8,44.8l3.2,1.9c0.7,0.4,0.7,1.3,0,1.7l-4.3,2.5c-0.8,0.5-1.8,0.5-2.6,0L68.9,49
				c-0.7-0.4-0.7-1.3,0-1.7l4.3-2.5C74.1,44.3,75.1,44.3,75.8,44.8z"/>
			<path id="XMLID_16565_" class="st49" d="M74.8,50.9c-0.8,0.5-1.8,0.5-2.6,0L68.9,49c-0.7-0.4-0.7-1.3,0-1.7l4.3-2.5
				c0.8-0.5,1.8-0.5,2.6,0"/>
			<path class="st72" d="M74.8,50.9l1-0.6l0,0c0-0.1,0-3.4,0-3.4c0-0.1-0.1-0.3-0.2-0.3l-0.8-0.4c-0.4-0.2-0.8-0.2-1.2,0l-1.9,1.1
				c-0.1,0.1-0.2,0.2-0.2,0.4c0,0,0,1.9,0,2.9l0.7,0.4C72.9,51.4,73.9,51.4,74.8,50.9z"/>
			<g id="XMLID_16563_">
				<path id="XMLID_16564_" class="st73" d="M75.6,43.3l-0.8-0.4c-0.4-0.2-0.8-0.2-1.2,0L71.8,44c-0.1,0.1-0.2,0.2-0.2,0.4
					c0,0.1,0,3.4,0,3.5s0.1,0.3,0.2,0.3l0.8,0.4c0.4,0.2,0.8,0.2,1.2,0l1.9-1.1c0.1-0.1,0.2-0.3,0.2-0.5c0-0.1,0-3.4,0-3.4
					C75.8,43.5,75.8,43.4,75.6,43.3z"/>
			</g>
			<path class="st74" d="M73.3,43.1L71.8,44c-0.1,0.1-0.2,0.2-0.2,0.4c0,0.1,0,3.4,0,3.5s0.1,0.3,0.2,0.3l0.8,0.4
				c0.2,0.1,0.5,0.2,0.7,0.1V43.1z"/>
			<path class="st74" d="M75.6,43.3l-0.8-0.4c-0.4-0.2-0.8-0.2-1.2,0L71.8,44c-0.1,0.1-0.2,0.2-0.2,0.4c0,0,0,0.5,0,1.2
				c0,0.4,0,0.6,0,0.7c0,0.1,0.1,0.3,0.2,0.3l0.8,0.4c0.4,0.2,0.8,0.2,1.2,0l1.9-1.1c0.1-0.1,0.2-0.3,0.2-0.5c0,0,0-0.4,0-0.9
				s0-0.8,0-0.8C75.8,43.5,75.8,43.4,75.6,43.3z"/>
		</g>
		<polygon id="XMLID_16560_" class="st75" points="64.6,35.4 82.6,25 81.8,24.6 63.9,35 		"/>
		<polygon id="XMLID_16559_" class="st49" points="82.6,25 82.6,40.3 64.6,50.7 64.6,35.4 		"/>
		<polyline id="XMLID_16558_" class="st2" points="64.6,50.7 64.6,35.4 82.6,25 		"/>
		<polygon class="st76" points="81.4,26.6 65.6,35.8 65.6,37 81.4,27.8 		"/>
		<polygon id="XMLID_23_" class="st1" points="64.6,35.4 82.6,25 73,38.6 		"/>
		<polygon id="XMLID_16557_" class="st0" points="81.4,26.6 81.4,39.8 65.6,49 65.6,35.8 		"/>
	</g>
	<ellipse class="st62" cx="41.8" cy="58.3" rx="5" ry="3.4"/>
	<g id="XMLID_24_">
		<g id="XMLID_25_">
			<polygon id="XMLID_27_" class="st0" points="40.4,56 40.4,98.5 39.2,99.2 39.2,56.7 			"/>
			<polygon id="XMLID_26_" class="st1" points="4.6,35.4 3.4,36.1 39.2,56.7 40.4,56 			"/>
		</g>
		<polygon class="st2" points="3.4,36.1 2.3,35.4 2.3,77.8 3.4,78.5 39.2,99.2 39.2,56.7 		"/>
		<polyline class="st3" points="39.2,99.2 39.2,56.7 3.4,36.1 2.3,35.4 		"/>
	</g>
	<g>
		<g id="XMLID_2_">
			<g id="XMLID_76_">
				<path id="XMLID_77_" class="st53" d="M49.7,49.3l-2.1-1.2c-0.5-0.3-1.2-0.4-1.9-0.3l0,0c-1.4,0.3-1.7,1.6-0.6,2.2l2.1,1.2
					c0.5,0.3,1.2,0.4,1.9,0.3l0,0C50.5,51.2,50.8,50,49.7,49.3z"/>
			</g>
		</g>
		<path id="XMLID_79_" class="st77" d="M44.6,49.4c0.1,0.2,0.9,0.8,1.7,1.3c0.6,0.3,1.2,0.7,1.5,0.8c0,0,1.3-1.8,1.6-2.3
			c-0.3-0.2-0.5-0.3-1.1-0.6c-0.3-0.2-0.5-0.3-0.7-0.4C47.3,48,47.2,48,47,47.9c-0.4-0.1-0.5-0.1-0.9-0.1
			C44.9,47.9,44.2,48.7,44.6,49.4z"/>
		<path id="XMLID_16573_" class="st78" d="M47.8,51.4c0.3,0.1,1.1,0.1,1.6,0c0.3-0.1,0.6-0.4,0.9-0.6c0.3-0.6,0.1-0.8-0.2-1.3
			c-0.1-0.1-0.4-0.4-0.6-0.4C49.3,49.2,48.3,50.4,47.8,51.4z"/>
		<g id="XMLID_16570_">
			<path id="XMLID_16571_" class="st77" d="M48.7,50c0.2,0.1,1.2,0.7,1.4,1c0,0,0.1,0,0.1-0.1c-0.2-0.2-0.2-0.2-0.5-0.5
				C49.5,50.2,48.8,50,48.7,50z"/>
		</g>
		<path id="XMLID_86_" class="st79" d="M44.7,48.5c-0.1,0-0.3,0.6-0.1,0.9c0.1,0.2,0.9,0.8,1.7,1.3c0.6,0.3,1.2,0.7,1.5,0.8
			c0,0,0.3-0.3,0.2-0.4C47,50.7,45.1,49.4,44.7,48.5z"/>
		<path id="XMLID_130_" class="st80" d="M48.1,51c-0.1,0.2-0.1,0.2-0.2,0.5c0.3,0.1,1.4,0.2,2-0.3C49.1,51.3,48.5,51.3,48.1,51z"/>
	</g>
</g>
<g id="Layer_2">
	<g id="XMLID_127_">
		<polygon id="XMLID_129_" class="st1" points="97.7,23.1 98.9,23.8 40.3,57.4 39.2,56.7 		"/>
		<polygon id="XMLID_128_" class="st0" points="98.9,23.8 98.9,66.2 40.3,99.8 40.3,57.4 		"/>
		<polyline id="XMLID_16544_" class="st3" points="98.9,23.8 98.9,66.2 40.3,99.8 		"/>
	</g>
</g>
</svg>
