<?xml version="1.0" encoding="utf-8"?>
<!-- Generator: Adobe Illustrator 21.0.0, SVG Export Plug-In . SVG Version: 6.00 Build 0)  -->
<svg version="1.1" id="Layer_1" xmlns="http://www.w3.org/2000/svg" xmlns:xlink="http://www.w3.org/1999/xlink" x="0px" y="0px"
	 viewBox="0 0 80 80" style="enable-background:new 0 0 80 80;" xml:space="preserve">
<style type="text/css">
	.st0{fill:#81A520;}
	.st1{fill:#BBC83C;}
	.st2{fill:#A1BA3A;}
	.st3{fill:none;}
	.st4{fill:#AABE38;}
</style>
<g id="XMLID_55791_">
	<g id="XMLID_55792_">
		<path class="st0" d="M58.4,35.5c0,0-32.7-0.1-34.6,1.4c-7.1,5.5-6.4,27.3,23.9,21.5L58.4,35.5z"/>
	</g>
	<g id="XMLID_55797_">
		<g id="XMLID_55834_">
			<path class="st1" d="M47.9,58.4c5-1.2,9.5-6,11-10c1.1-3.1,1.5-7.6,0.1-11.7c-0.7-2.2-3-3.5-3.4-4.5c-1.6-4.2-2-6.4-5.9-8.3
				c-2.2-1.1-6.4-0.3-7.2-0.1c-2.7,0.4-6.5,2.6-8.3,6.4c-0.8,1.5-2,2.7-4.9,4.2c-1.4,0.7-3,0.4-5.5,2.7c-1.5,1.4-2.6,5.5-2.7,7.2
				c-0.3,4,1.8,8,5.9,11C32.3,59.3,42.3,59.8,47.9,58.4z"/>
		</g>
		<g>
			<path class="st2" d="M58.9,41.9c-1.5,4-6,8.7-11,10c-5.6,1.4-15.5,0.8-20.9-3.1c-2.7-2-4.6-4.5-5.3-7.2c-0.3,1-0.4,1.9-0.4,2.6
				c-0.3,4,1.8,8,5.9,11c5.5,4,15.4,4.5,20.9,3.1c5-1.2,9.5-6,11-10c1-2.5,1.4-5.9,0.7-9.3C59.5,40.2,59.2,41.1,58.9,41.9z"/>
		</g>
		<g id="XMLID_55805_">
			<g id="XMLID_55799_">
				<path class="st3" d="M46.2,40.6"/>
			</g>
		</g>
	</g>
	<g id="XMLID_55798_">
		<path class="st2" d="M34.3,30.1c0,0-3,13.6,5.9,29.2C40.1,59.3,28.9,45.5,34.3,30.1z"/>
	</g>
	<g id="XMLID_55810_">
		<path class="st4" d="M38.1,55.9v-0.1l0.5-0.1v0.1L38.1,55.9z M39.3,55.7v-0.1l0.5-0.1v0.1L39.3,55.7z M37.5,55.6L37,55.2l0.1-0.1
			l0.5,0.4L37.5,55.6z M40.5,55.6v-0.1l0.5-0.1v0.1L40.5,55.6z M41.7,55.3v-0.1l0.5-0.1v0.1L41.7,55.3z M42.8,55.2V55l0.5-0.1V55
			L42.8,55.2z M44.1,55v-0.1l0.5-0.1v0.1L44.1,55z M36.6,54.9L36,54.5l0.1-0.1l0.5,0.4L36.6,54.9z M45.3,54.9v-0.1l0.5-0.1v0.1
			L45.3,54.9z M46.5,54.6v-0.1l0.5-0.1v0.1L46.5,54.6z M47.7,54.5v-0.1l0.5-0.1v0.1L47.7,54.5z M48.8,54.4v-0.1l0.5-0.1v0.1
			L48.8,54.4z M35.5,54.2l-0.5-0.4l0.1-0.1l0.5,0.4L35.5,54.2z M50.1,54.1v-0.1l0.5-0.1v0.1L50.1,54.1z M51.3,53.9v-0.1l0.5-0.1v0.1
			L51.3,53.9z M52.5,53.8v-0.1l0.5-0.1v0.1L52.5,53.8z M53.6,53.5v-0.1l0.5-0.1v0.1L53.6,53.5z M34.5,53.5L34,53.1l0.1-0.1l0.5,0.4
			L34.5,53.5z M54.6,53h-0.1l0.1-0.5h0.1L54.6,53z M33.6,52.9L33,52.4l0.1-0.1l0.5,0.4L33.6,52.9z M32.5,52.2l-0.4-0.4l0.1-0.1
			l0.5,0.4L32.5,52.2z M55,51.8h-0.1l0.1-0.5h0.1L55,51.8z M31.5,51.5L31,51.1l0.1-0.1l0.5,0.4L31.5,51.5z M30.6,50.8L30,50.4
			l0.1-0.1l0.5,0.4L30.6,50.8z M55.4,50.7h-0.1l0.1-0.5h0.1L55.4,50.7z M29.5,50.1l-0.4-0.4l0.1-0.1l0.5,0.4L29.5,50.1z M55.7,49.4
			h-0.1l0.1-0.5h0.1L55.7,49.4z M28.5,49.4L28,49l0.1-0.1l0.5,0.4L28.5,49.4z M27.6,48.8L27,48.4l0.1-0.1l0.5,0.4L27.6,48.8z
			 M56.1,48.4h-0.1l0.1-0.5h0.1L56.1,48.4z M26.5,48.1l-0.4-0.4l0.1-0.1l0.5,0.4L26.5,48.1z M25.5,47.4L25,47l0.1-0.1l0.5,0.4
			L25.5,47.4z M56.5,47.1h-0.1l0.1-0.5h0.1L56.5,47.1z M24.6,46.7L24,46.3l0.1-0.1l0.5,0.4L24.6,46.7z M56.7,46h-0.1l0.1-0.5h0.1
			L56.7,46z M23.5,46l-0.5-0.4l0.1-0.1l0.5,0.4L23.5,46z M22.5,45.4L22,44.9l0.1-0.1l0.5,0.4L22.5,45.4z M57.2,44.8H57l0.1-0.5h0.1
			L57.2,44.8z M21.6,44.7L21,44.3l0.1-0.1l0.5,0.4L21.6,44.7z M57.6,43.7h-0.1l0.1-0.5h0.1L57.6,43.7z M57.8,42.6h-0.1l0.1-0.5H58
			L57.8,42.6z M58.2,41.4h-0.1l0.1-0.5h0.1L58.2,41.4z M58.7,40.3h-0.1l0.1-0.5h0.1L58.7,40.3z M58.9,39.1h-0.1l0.1-0.5h0.1
			L58.9,39.1z"/>
	</g>
	<g id="XMLID_55811_">
		<path class="st4" d="M35.9,58.4l-0.1-0.1l0.4-0.4l0.1,0.1L35.9,58.4z M36.7,57.6l-0.1-0.1l0.4-0.4l0.1,0.1L36.7,57.6z M37.5,56.8
			l-0.1-0.1l0.4-0.4l0.1,0.1L37.5,56.8z"/>
	</g>
	<g id="XMLID_55804_">
		<path class="st2" d="M55.7,32.1c0,0,4.9,11.5-3.4,24.4C52.1,56.5,62.5,46.6,55.7,32.1z"/>
	</g>
	<g id="XMLID_55813_">
		<path class="st4" d="M38.2,55.9h-0.1v-0.5h0.1V55.9z M38.2,54.6h-0.1v-0.5h0.1V54.6z M54.8,53.8l-0.3-0.3l0.1-0.1l0.3,0.3
			L54.8,53.8z M38.3,53.4h-0.1v-0.5h0.1V53.4z M54.4,53h-0.1v-0.5h0.1V53z M38.3,52.2h-0.1v-0.5h0.1V52.2z M54.4,51.8h-0.1v-0.5h0.1
			V51.8z M38.5,50.9h-0.1v-0.5h0.1V50.9z M54.4,50.5h-0.1V50h0.1V50.5z M38.5,49.7h-0.1v-0.5h0.1V49.7z M54.4,49.3h-0.1v-0.5h0.1
			V49.3z M38.6,48.5h-0.1v-0.5h0.1V48.5z M54.4,48.2h-0.1v-0.5h0.1V48.2z M38.6,47.4h-0.1v-0.5h0.1V47.4z M54.4,47h-0.1v-0.7h0.1V47
			z M38.7,46.2h-0.1v-0.5h0.1V46.2z M54.4,45.8h-0.1v-0.5h0.1V45.8z M38.9,44.9h-0.3v-0.5h0.1L38.9,44.9z M54.4,44.5h-0.1V44h0.1
			V44.5z M38.9,43.7h-0.1v-0.5h0.1V43.7z M54.4,43.3h-0.1v-0.5h0.1V43.3z M39,42.5h-0.1v-0.5H39V42.5z M54.4,42.1h-0.1v-0.5h0.1
			V42.1z M39,41.3h-0.1v-0.5H39V41.3z M54.4,40.9h-0.1v-0.5h0.1V40.9z M39.2,40H39v-0.4l0.4-0.1v0.1h-0.3V40z M40,39.8v-0.1l0.5-0.1
			v0.1L40,39.8z M54.4,39.6h-0.1v-0.5h0.1V39.6z M41.2,39.5v-0.1l0.5-0.1v0.1L41.2,39.5z M42.3,39.2v-0.1l0.5-0.1v0.1L42.3,39.2z
			 M43.5,39.1v-0.1l0.5-0.1v0.1L43.5,39.1z M44.7,38.8v-0.1l0.5-0.1v0.1L44.7,38.8z M46,38.5v-0.1l0.5-0.1v0.1L46,38.5z M54.4,38.5
			h-0.1V38h0.1V38.5z M47.1,38.4v-0.1l0.5-0.1v0.1L47.1,38.4z M48.3,38.1V38l0.5-0.1V38L48.3,38.1z M49.5,37.9v-0.1l0.5-0.1v0.1
			L49.5,37.9z M50.6,37.7v-0.1l0.5-0.1v0.1L50.6,37.7z M51.8,37.4v-0.1l0.5-0.1v0.1L51.8,37.4z M54.4,37.3h-0.1V37l0,0v-0.1h0.3v0.4
			H54.4z M53.1,37.2V37l0.5-0.1V37L53.1,37.2z"/>
	</g>
	<g id="XMLID_55812_">
		<path class="st4" d="M38.9,39.9l-0.3-0.5l0.1-0.1l0.3,0.5L38.9,39.9z M38.3,38.8l-0.3-0.5l0.1-0.1l0.3,0.5L38.3,38.8z M37.8,37.7
			l-0.3-0.5l0.1-0.1l0.3,0.5L37.8,37.7z M37.2,36.6L37,36.1l0.1-0.1l0.3,0.5L37.2,36.6z M36.7,35.5L36.4,35l0.1-0.1l0.3,0.5
			L36.7,35.5z M36,34.6L35.7,34l0.1-0.1l0.3,0.5L36,34.6z M35.5,33.5l-0.3-0.5l0.1-0.1l0.3,0.5L35.5,33.5z M34.9,32.4l-0.3-0.5
			l0.1-0.1l0.3,0.5L34.9,32.4z M34.4,31.3l-0.3-0.4l0.1-0.1l0.3,0.4L34.4,31.3z"/>
	</g>
	<g id="XMLID_55817_">
		<path class="st4" d="M54.4,36.9h-0.1l0.1-0.5h0.1L54.4,36.9z M54.8,35.7h-0.1l0.1-0.5H55L54.8,35.7z M55.2,34.6h-0.1l0.1-0.5h0.1
			L55.2,34.6z M55.7,33.4h-0.1l0.1-0.5h0.1L55.7,33.4z"/>
	</g>
</g>
</svg>
