<?xml version="1.0" encoding="utf-8"?>
<!-- Generator: Adobe Illustrator 21.0.0, SVG Export Plug-In . SVG Version: 6.00 Build 0)  -->
<svg version="1.1" id="Layer_1" xmlns="http://www.w3.org/2000/svg" xmlns:xlink="http://www.w3.org/1999/xlink" x="0px" y="0px"
	 viewBox="0 0 80 80" style="enable-background:new 0 0 80 80;" xml:space="preserve">
<style type="text/css">
	.st0{fill:#995827;}
	.st1{fill:#B2662F;}
	.st2{fill:#E8E7E7;}
	.st3{fill:#BDD3CF;}
	.st4{fill:#FFFFFF;}
	.st5{fill:#EFEFEF;}
	.st6{fill:#A3B6B3;}
	.st7{opacity:0.2;fill:#A3B6B3;enable-background:new    ;}
	.st8{fill:#AC692D;}
	.st9{fill:#73401C;}
	.st10{fill:#E7E6E6;}
	.st11{fill:#994B33;}
	.st12{fill:#A75535;}
</style>
<g id="XMLID_37848_">
	<g id="XMLID_37887_">
		<g id="XMLID_37888_">
			<path id="XMLID_37891_" class="st0" d="M13.6,46.4c0,0.2,0.2,0.4,0.6,0.5l0,0c0.2,0.1,0.6,0,0.8-0.1l0,0c0.2-0.1,0.3-0.2,0.3-0.4
				c0-0.1,0-1.8,0-2s-0.2-0.4-0.6-0.5l0,0c-0.2-0.1-0.6,0-0.8,0.1l0,0c-0.2,0.1-0.3,0.2-0.3,0.4C13.6,44.5,13.6,46.3,13.6,46.4z"/>
			<path id="XMLID_37890_" class="st0" d="M14.9,45.9L14.9,45.9c1.1,0.3,1.4,1.3,0.5,1.8l0,0c-0.4,0.2-1,0.3-1.5,0.2l0,0
				c-1.1-0.3-1.4-1.3-0.5-1.8l0,0C13.8,45.8,14.4,45.8,14.9,45.9z"/>
			<path id="XMLID_37889_" class="st1" d="M14.8,46.9c-0.2,0.5-1.5,0.4-1.1,0.6l0,0c0.3,0.2,0.8,0.3,1.2,0.2l0,0
				c0.9-0.2,1.1-1,0.4-1.4C15.3,46.3,14.9,46.5,14.8,46.9z"/>
		</g>
	</g>
	<g id="XMLID_37878_">
		<g id="XMLID_37883_">
			<path id="XMLID_37886_" class="st0" d="M45,64.3c0,0.2,0.2,0.4,0.6,0.5l0,0c0.2,0.1,0.6,0,0.8-0.1l0,0c0.2-0.1,0.3-0.2,0.3-0.4
				c0-0.1,0-1.8,0-2s-0.2-0.4-0.6-0.5l0,0c-0.2-0.1-0.6,0-0.8,0.1l0,0C45.1,62,45,62.1,45,62.3S45,64.2,45,64.3z"/>
			<path id="XMLID_37885_" class="st0" d="M46.3,63.8L46.3,63.8c1.1,0.3,1.4,1.3,0.5,1.8l0,0c-0.4,0.2-1,0.3-1.5,0.2l0,0
				c-1.1-0.3-1.4-1.3-0.5-1.8l0,0C45.3,63.8,45.8,63.7,46.3,63.8z"/>
			<path id="XMLID_37884_" class="st1" d="M46.2,64.9c-0.2,0.5-1.5,0.4-1.1,0.6l0,0c0.3,0.2,0.8,0.3,1.2,0.2l0,0
				c0.9-0.2,1.1-1,0.4-1.4C46.7,64.3,46.3,64.4,46.2,64.9z"/>
		</g>
		<g id="XMLID_37879_">
			<path id="XMLID_37882_" class="st0" d="M64.9,52.8c0,0.2,0.2,0.4,0.6,0.5l0,0c0.2,0.1,0.6,0,0.8-0.1l0,0c0.2-0.1,0.3-0.2,0.3-0.4
				c0-0.1,0-1.8,0-2s-0.2-0.4-0.6-0.5l0,0c-0.2-0.1-0.6,0-0.8,0.1l0,0c-0.2,0.1-0.3,0.2-0.3,0.4S64.9,52.7,64.9,52.8z"/>
			<path id="XMLID_37881_" class="st0" d="M66.3,52.3L66.3,52.3c1.1,0.3,1.4,1.3,0.5,1.8l0,0c-0.4,0.2-1,0.3-1.5,0.2l0,0
				c-1.1-0.3-1.4-1.3-0.5-1.8l0,0C65.2,52.3,65.8,52.2,66.3,52.3z"/>
			<path id="XMLID_37880_" class="st1" d="M66.2,53.4c-0.2,0.5-1.5,0.4-1.1,0.6l0,0c0.3,0.2,0.8,0.3,1.2,0.2l0,0
				c0.9-0.2,1.1-1,0.4-1.4C66.7,52.8,66.2,52.9,66.2,53.4z"/>
		</g>
	</g>
	<g id="XMLID_37852_">
		<polygon id="XMLID_37877_" class="st2" points="45.8,63.1 67.3,50.6 34.4,31.6 12.8,44 		"/>
		<g id="XMLID_37873_">
			<path id="XMLID_37876_" class="st3" d="M18.7,45.6l21.5-12.4c0,0,0-12.9,0-13.4s-0.1-1-0.8-1.7L39,19.3L18.7,31.1
				C18.7,31.1,18.7,45.6,18.7,45.6z"/>
			<path id="XMLID_37875_" class="st4" d="M34.4,15.5c-0.2,0-0.5,0.1-0.7,0.2l-20.8,12l5.8,3.4l20.7-12c0.2-0.2,0.3-0.6,0.2-0.8
				c0,0-1.1-1-2.3-1.8C36.1,15.8,34.6,15.5,34.4,15.5z"/>
			<path id="XMLID_41641_" class="st5" d="M18.7,31.1l20.7-12c0.2-0.2,0.3-0.6,0.2-0.8c0,0-1.1-1-2.3-1.8c-1.2-0.7-2.7-1-2.9-1
				s-0.5,0.1-0.7,0.2"/>
			<path id="XMLID_37874_" class="st6" d="M12.9,42.3V27.7c0-0.1,1.4,0.3,2.9,1.1c1.4,0.8,2.9,2.1,2.9,2.3v14.6L12.9,42.3z"/>
			<path id="XMLID_41637_" class="st7" d="M12.9,27.7c0-0.1,1.4,0.3,2.9,1.1c1.4,0.8,2.9,2.1,2.9,2.3v14.6"/>
		</g>
		<g id="XMLID_37870_">
			<g id="XMLID_37871_">
				<polygon id="XMLID_37872_" class="st8" points="67.3,48.9 45.8,61.4 45.8,63.1 67.3,50.6 				"/>
			</g>
		</g>
		<polygon id="XMLID_37869_" class="st9" points="45.8,63.1 45.8,61.4 12.8,42.3 12.8,44 		"/>
		<g id="XMLID_37857_">
			<g id="XMLID_37865_">
				<g id="XMLID_37867_">
					<path id="XMLID_37868_" class="st3" d="M36.7,15.2c-1.1,0.8-1.7,1.7-2,2.6c0,0.1-1.6,4.7,0.2,12.3c0.1,0.3-0.9-9.5,1.2-12.5
						c1-1.4,4.4-1.8,4.4-2.9C40.5,13.5,37.8,14.4,36.7,15.2z"/>
				</g>
				<path id="XMLID_37866_" class="st10" d="M26.6,33.1c-6.2,3.5-7.9,5.7-7.8,6.7c0,0,0.2,2.9-0.1,5.8l0.6,0.3l16-9.7v-4.6
					c0-0.6,0-1.1-0.4-1.5C34.5,29.8,31,30.7,26.6,33.1z"/>
			</g>
			<g id="XMLID_37858_">
				<g id="XMLID_37861_">
					<polygon id="XMLID_37864_" class="st3" points="55.4,29.8 61.2,26.7 61.2,43.3 53,46.1 					"/>
					<polyline id="XMLID_41642_" class="st7" points="61.2,43.3 53,46.1 55.4,29.8 					"/>
					<path id="XMLID_37863_" class="st6" d="M36,17.6c2,0.1,6.9,2.3,9.9,4c3.9,2.1,8.3,6.6,9.5,7.9c0.1,0.1,0.1,0.3,0.1,0.3
						c0.6,3.5,0.1,12.3,0.1,12.3l-10.5-6.7l-10.2-4.5c0,0-0.4-3.7-0.4-6.7s0.5-5.4,0.5-5.4C35,18.6,35.1,17.5,36,17.6z"/>
					<path id="XMLID_41638_" class="st7" d="M35,18.8c0-0.1,0.1-1.2,0.9-1.2c2,0.1,6.9,2.3,9.9,4c3.9,2.1,8.3,6.6,9.5,7.9
						c0.1,0.1,0.1,0.3,0.1,0.3c0.6,3.5,0.1,12.3,0.1,12.3"/>
					<path id="XMLID_37862_" class="st4" d="M35.6,18.1c0.6,0.1,5.6,1.8,9.7,4.1c6.2,3.5,8.5,5.7,10.1,7.5c0.3,0.4,5.8-1.5,5.8-3.1
						s-3.2-4.5-9.9-8c-5.8-3-10-4.6-11.4-4.3c-0.5,0.1-1.2,0.3-1.9,0.7c-2.1,1.3-3,3-3,3.7C35,18.7,35.2,18.1,35.6,18.1z"/>
					<path id="XMLID_41645_" class="st5" d="M39.8,14.3c-0.5,0.1-1.2,0.3-1.9,0.7c-2.1,1.3-3,3-3,3.7c0,0,0.2-0.6,0.7-0.5
						c0.6,0.1,5.6,1.8,9.7,4.1c6.2,3.5,8.5,5.7,10.1,7.5c0.3,0.4,5.8-1.5,5.8-3.1"/>
				</g>
				<path id="XMLID_37860_" class="st6" d="M39.5,57.7c0,0,0.2-1.6,0.3-3.5c0.1-2,0-3.7,0-3.7c0-0.6-0.4-1.2-0.9-1.5l-8.6-6
					c-0.5-0.3-11-4.5-11-3.8c0,0-0.1,1.3-0.1,3.5s0.1,3.3,0.1,3.3L39.5,57.7z"/>
				<path id="XMLID_41636_" class="st7" d="M39.4,57.7c0,0,0.2-1.6,0.3-3.5c0.1-2,0-3.7,0-3.7c0-0.6-0.4-1.2-0.9-1.5l-8.6-6
					c-0.5-0.3-11-4.5-11-3.8c0,0-0.1,1.3-0.1,3.5"/>
				<path id="XMLID_37859_" class="st5" d="M32.9,31L20,38.4c-0.5,0.3-0.7,0.7-0.7,1.4c0,0,0.2-0.7,1.3-0.3c1.6,0.6,3.6,1.1,7.4,3.2
					c5,2.8,8.7,5.3,10.6,6.9c0.4,0.4,0.9,1.2,1,2.2c0,0,0.2,2.9-0.1,5.8l0.5,0.3l16-9.7v-4.6c0-1.1-0.6-2-1.4-2.8
					c-2.5-2.3-4.9-4-10-6.8c-2.8-1.5-7.6-3.5-7.6-3.5C35.1,29.9,34.1,30.1,32.9,31z"/>
			</g>
		</g>
		<g id="XMLID_37853_">
			<path id="XMLID_37856_" class="st3" d="M45.8,61.3l21.5-12.4c0,0,0-12.9,0-13.4s-0.1-1-0.8-1.7L66.1,35L45.8,46.8V61.3z"/>
			<path id="XMLID_37855_" class="st4" d="M61.6,31.2c-0.2,0-0.5,0.1-0.7,0.2L40,43.4l5.8,3.4l20.7-12c0.2-0.2,0.3-0.6,0.2-0.8
				c0,0-1.1-1-2.3-1.8C63.2,31.4,61.7,31.2,61.6,31.2z"/>
			<path id="XMLID_41640_" class="st5" d="M66.8,34"/>
			<path id="XMLID_41633_" class="st5" d="M61.6,31.2c-0.2,0-0.5,0.1-0.7,0.2L40,43.4l5.8,3.4"/>
			<path id="XMLID_37854_" class="st6" d="M40,58V43.4c0-0.1,1.4,0.3,2.9,1.1c1.4,0.8,2.9,2.1,2.9,2.3v14.6L40,58z"/>
			<path id="XMLID_41635_" class="st7" d="M40,43.4c0-0.1,1.4,0.3,2.9,1.1c1.4,0.8,2.9,2.1,2.9,2.3v14.6"/>
		</g>
	</g>
	<g id="XMLID_37849_">
		<path id="XMLID_37851_" class="st11" d="M28.3,28.2c0.6-2.8,1-7.2,1-7.2c0.1-0.4,0.5-0.4,0.6-0.3c0,0,1,1.5,0.9,3
			c-0.1,1.4-0.7,2.8-0.9,4c-0.6,3.8-2,6.8-2.4,6.4C27.3,34,27.8,31,28.3,28.2z"/>
		<path id="XMLID_37850_" class="st12" d="M40.1,30.4c0.2-2.5,0.5-3.9,0.8-4.6c0-0.1,0.2-0.9-0.1-1.2c-0.5-0.5-1.3-1-2.4-1.1
			c-0.5-0.1-2.3-0.2-3.3-0.5c-1.7-0.5-4.1-1.5-5.1-2.1c-0.2-0.2-0.4,0-0.4,0.2c0,0.6,0.3,1.2,0.2,2.6c0,0.9,0.1,3.1-0.1,4.2
			c-0.5,3-2.1,5-2.1,6.3c-0.1,0.3,0.2,0.4,0.4,0.4c1-0.1,3.4,0.2,5.7,0.2c1.4-0.1,4.9,0.6,5.9,0.8c0.2,0.1,0.5-0.1,0.5-0.4
			C40.1,34.3,39.8,32.5,40.1,30.4z"/>
	</g>
</g>
</svg>
