<?xml version="1.0" encoding="utf-8"?>
<!-- Generator: Adobe Illustrator 21.0.0, SVG Export Plug-In . SVG Version: 6.00 Build 0)  -->
<svg version="1.1" id="Layer_1" xmlns="http://www.w3.org/2000/svg" xmlns:xlink="http://www.w3.org/1999/xlink" x="0px" y="0px"
	 viewBox="0 0 80 80" style="enable-background:new 0 0 80 80;" xml:space="preserve">
<style type="text/css">
	.st0{fill:#525354;}
	.st1{fill:#59595C;}
	.st2{fill:#383939;}
	.st3{fill:#323233;}
	.st4{opacity:0.3;fill:#323233;}
	.st5{fill:#2B2A2B;}
	.st6{fill:#202021;}
	.st7{fill:#565759;}
	.st8{fill:#3D3D3F;}
	.st9{fill:#4E4D50;}
	.st10{fill:#5D5E61;}
	.st11{fill:#9D9FA2;}
	.st12{fill:#B1B4B6;}
	.st13{fill:#424243;}
	.st14{fill:#38383A;}
	.st15{fill:#3F3F40;}
</style>
<g id="XMLID_121_">
	<g id="XMLID_470_">
		<g id="XMLID_471_">
			<polygon id="XMLID_475_" class="st0" points="38.5,61.2 38.5,61.7 48.7,55.8 48.7,55.3 			"/>
			<polygon id="XMLID_474_" class="st1" points="33.4,58.3 38.5,61.2 38.5,61.7 33.4,58.7 			"/>
			<polygon id="XMLID_473_" class="st2" points="43.6,52.4 33.4,58.3 38.5,61.2 48.7,55.3 			"/>
			<polyline id="XMLID_472_" class="st3" points="38.5,61.2 48.7,55.3 43.6,52.4 			"/>
			<polygon class="st4" points="38.5,61.2 38.1,61 38.1,55.5 40.1,54.4 43.2,54.4 43.2,58.5 			"/>
		</g>
	</g>
	<g id="XMLID_465_">
		<polygon id="XMLID_469_" class="st5" points="43.2,52.3 43.2,55.4 38.6,58 38.6,55 		"/>
		<polygon id="XMLID_468_" class="st6" points="43.2,50.7 43.2,53.7 38.6,56.3 38.6,53.3 		"/>
		<polygon id="XMLID_467_" class="st3" points="38.1,54.7 38.6,55 38.6,58 38.1,57.7 		"/>
		<polygon id="XMLID_466_" class="st7" points="42.7,52 43.2,52.3 38.6,55 38.1,54.7 		"/>
	</g>
	<g id="XMLID_430_">
		<polygon id="XMLID_464_" class="st3" points="59.3,15.5 59.3,42.1 21.5,64 21.5,37.3 		"/>
		<polyline id="XMLID_463_" class="st5" points="21.5,64 21.5,37.3 59.3,15.5 		"/>
		<polygon id="XMLID_462_" class="st8" points="20.7,36.8 21.5,37.3 21.5,64 20.7,63.5 		"/>
		<polygon id="XMLID_461_" class="st9" points="59.3,42.6 59.3,43.2 21.5,65 21.5,64.5 		"/>
		<polygon id="XMLID_460_" class="st10" points="20.7,64 21.5,64.5 21.5,65 20.7,64.5 		"/>
		<polygon id="XMLID_459_" class="st11" points="59.3,42.1 59.3,42.6 21.5,64.5 21.5,64 		"/>
		<polygon id="XMLID_458_" class="st12" points="20.7,63.5 21.5,64 21.5,64.5 20.7,64 		"/>
		<polygon id="XMLID_457_" class="st7" points="58.5,15 59.3,15.5 21.5,37.3 20.7,36.8 		"/>
		<g id="XMLID_431_">
			<polygon id="XMLID_456_" class="st13" points="48.3,30.7 48.3,40.3 34.7,48.1 34.7,38.5 			"/>
			<polyline id="XMLID_455_" class="st14" points="34.7,48.1 34.7,38.5 48.3,30.7 			"/>
			<g id="XMLID_444_">
				<polygon id="XMLID_454_" class="st9" points="36.5,38.3 36.5,44.2 35.9,44.5 35.9,38.7 				"/>
				<polygon id="XMLID_453_" class="st9" points="37.7,37.6 37.7,43.4 37.1,43.8 37.1,38 				"/>
				<polygon id="XMLID_452_" class="st9" points="38.9,36.9 38.9,42.7 38.3,43.1 38.3,37.2 				"/>
				<polygon id="XMLID_451_" class="st9" points="40.2,36.1 40.2,42 39.5,42.4 39.5,36.5 				"/>
				<polygon id="XMLID_450_" class="st9" points="41.4,35.4 41.4,41.3 40.8,41.6 40.8,35.8 				"/>
				<polygon id="XMLID_449_" class="st9" points="42.6,34.7 42.6,40.5 42,40.9 42,35.1 				"/>
				<polygon id="XMLID_448_" class="st9" points="43.8,34 43.8,39.8 43.2,40.2 43.2,34.3 				"/>
				<polygon id="XMLID_447_" class="st9" points="45,33.2 45,39.1 44.4,39.5 44.4,33.6 				"/>
				<polygon id="XMLID_446_" class="st9" points="46.3,32.5 46.3,38.4 45.6,38.7 45.6,32.9 				"/>
				<polygon id="XMLID_445_" class="st9" points="47.5,31.8 47.5,37.6 46.9,38 46.9,32.2 				"/>
			</g>
			<polygon id="XMLID_443_" class="st9" points="33.8,38 34.7,38.5 34.7,48.1 33.8,47.6 			"/>
			<g id="XMLID_433_">
				<g id="XMLID_439_">
					<path id="XMLID_442_" class="st15" d="M34,39.1c-0.1,0.2,0,0.5,0.1,0.6c0.1,0.1,0.3,0.1,0.4-0.1c0.1-0.2,0-0.5-0.1-0.6
						C34.2,38.9,34,38.9,34,39.1z"/>
					<path id="XMLID_441_" class="st15" d="M34,40.7c-0.1,0.2,0,0.5,0.1,0.6c0.1,0.2,0.3,0.1,0.4-0.1c0.1-0.2,0-0.5-0.1-0.6
						C34.2,40.5,34,40.5,34,40.7z"/>
					<path id="XMLID_440_" class="st15" d="M34,42.3c-0.1,0.2,0,0.5,0.1,0.6c0.1,0.2,0.3,0.1,0.4-0.1c0.1-0.2,0-0.5-0.1-0.6
						C34.2,42.1,34,42.1,34,42.3z"/>
				</g>
				<g id="XMLID_434_">
					<path id="XMLID_438_" class="st15" d="M34.1,44.1c0,0.1,0,0.2,0,0.3c0.1,0.1,0.2,0.1,0.2,0c0-0.1,0-0.2,0-0.3
						C34.2,44,34.1,44,34.1,44.1z"/>
					<path id="XMLID_437_" class="st15" d="M34.1,44.9c0,0.1,0,0.2,0,0.3c0.1,0.1,0.2,0.1,0.2,0c0-0.1,0-0.2,0-0.3
						C34.2,44.8,34.1,44.8,34.1,44.9z"/>
					<path id="XMLID_436_" class="st15" d="M34.1,45.8c0,0.1,0,0.2,0,0.3c0.1,0.1,0.2,0.1,0.2,0c0-0.1,0-0.2,0-0.3
						C34.2,45.7,34.1,45.7,34.1,45.8z"/>
					<path id="XMLID_435_" class="st15" d="M34.1,46.6c0,0.1,0,0.2,0,0.3c0.1,0.1,0.2,0.1,0.2,0c0-0.1,0-0.2,0-0.3
						C34.2,46.5,34.1,46.5,34.1,46.6z"/>
				</g>
			</g>
			<polygon id="XMLID_432_" class="st7" points="47.3,30.2 48.3,30.7 34.7,38.5 33.8,38 			"/>
		</g>
	</g>
</g>
</svg>
