<?xml version="1.0" encoding="utf-8"?>
<!-- Generator: Adobe Illustrator 21.0.0, SVG Export Plug-In . SVG Version: 6.00 Build 0)  -->
<svg version="1.1" id="Layer_1" xmlns="http://www.w3.org/2000/svg" xmlns:xlink="http://www.w3.org/1999/xlink" x="0px" y="0px"
	 viewBox="0 0 80 80" style="enable-background:new 0 0 80 80;" xml:space="preserve">
<style type="text/css">
	.st0{fill:#301F12;}
	.st1{fill:#563E2E;}
	.st2{fill:#008895;}
	.st3{fill:#01B4B3;}
	.st4{opacity:0.2;fill:#056378;enable-background:new    ;}
	.st5{opacity:0.2;}
	.st6{fill:#056378;}
	.st7{fill:#029A9A;}
	.st8{fill:#CAE9F0;}
	.st9{fill:#96B9BE;}
	.st10{fill:#49C1C2;}
	.st11{fill:#12A1A4;}
</style>
<g id="XMLID_35245_">
	<g id="XMLID_35278_">
		<polygon id="XMLID_35280_" class="st0" points="74.3,40 77.5,38.1 77.5,36.4 74.3,38.2 		"/>
		<polygon id="XMLID_35279_" class="st1" points="74.3,38.2 71.1,36.4 71.1,38.2 74.3,40 		"/>
	</g>
	<g id="XMLID_35275_">
		<polygon id="XMLID_35277_" class="st0" points="5.7,60.5 8.9,58.6 8.9,56.9 5.7,58.7 		"/>
		<polygon id="XMLID_35276_" class="st1" points="5.7,58.7 2.5,56.9 2.5,58.6 5.7,60.5 		"/>
	</g>
	<g id="XMLID_35272_">
		<polygon id="XMLID_35274_" class="st0" points="22.3,70 25.5,68.2 25.5,66.4 22.3,68.2 		"/>
		<polygon id="XMLID_35273_" class="st1" points="22.3,68.2 19.1,66.4 19.1,68.2 22.3,70 		"/>
	</g>
	<g id="XMLID_35246_">
		<g id="XMLID_35253_">
			<polygon id="XMLID_35271_" class="st2" points="51.6,13.5 51.6,21.5 71.4,33 71.4,24.9 			"/>
			<g id="XMLID_35269_">
				<polygon id="XMLID_35270_" class="st3" points="67,26.4 51.4,17.4 8.3,42.2 24.4,51.5 				"/>
			</g>
			<polygon class="st4" points="51.6,35.5 67,26.4 51.6,17.6 			"/>
			<g id="XMLID_42095_" class="st5">
				<polyline id="XMLID_42097_" class="st6" points="8.3,42.2 24.4,51.5 67,26.4 				"/>
			</g>
			<g id="XMLID_35267_">
				<polygon id="XMLID_35268_" class="st7" points="45.9,39.1 29.8,29.8 29.4,30 45.5,39.3 				"/>
			</g>
			<g id="XMLID_35264_">
				<path id="XMLID_35266_" class="st8" d="M17.5,52.5c0.5,0.4,1.8-2.8,2.5-6.6c0.2-1.3,0.8-2.7,1-4.2c0.2-1.6-1-3.1-1-3.1
					c-0.1-0.1-0.5-0.1-0.6,0.3c0,0-0.5,4.6-1,7.5C17.8,49.3,17.3,52.4,17.5,52.5z"/>
				<path id="XMLID_35265_" class="st9" d="M30.6,53.6c0,0.2-0.2,0.5-0.5,0.4c-1.1-0.2-4.7-0.9-6.1-0.9c-2.4,0-4.9-0.2-6-0.2
					c-0.2,0-0.5-0.2-0.5-0.4c0-1.3,1.6-3.4,2.2-6.6c0.2-1.1,0.1-3.4,0.2-4.4c0.1-1.4-0.2-2.1-0.2-2.8c0-0.2,0.2-0.3,0.4-0.2
					c1.1,0.7,3.5,1.7,5.2,2.2c1.1,0.3,2.9,0.4,3.4,0.5c1.1,0.2,2,0.6,2.5,1.1c0.3,0.3,0.2,1.1,0.1,1.3c-0.3,0.7-0.7,2.2-0.8,4.7
					C30.3,50.8,30.7,52.7,30.6,53.6z"/>
			</g>
			<polygon id="XMLID_35263_" class="st10" points="57.7,10 51.6,13.5 71.4,24.9 77.5,21.4 			"/>
			<polyline id="XMLID_42099_" class="st3" points="51.6,13.5 71.4,24.9 77.5,21.4 			"/>
			<polygon id="XMLID_35262_" class="st6" points="77.5,34.6 77.5,21.4 71.4,24.9 71.4,38.1 			"/>
			<g id="XMLID_35258_">
				<polygon id="XMLID_35261_" class="st10" points="71.4,18.9 68,16.9 24.9,41.8 28.4,43.8 				"/>
				<polyline id="XMLID_42100_" class="st3" points="24.9,41.8 28.4,43.8 71.4,18.9 				"/>
				<polygon id="XMLID_35260_" class="st2" points="28.4,54.2 23.6,51.5 24.9,41.8 28.4,43.8 				"/>
				<polygon id="XMLID_35259_" class="st6" points="71.4,18.9 28.4,43.8 28.4,63 71.4,38.1 				"/>
				<polyline id="XMLID_42094_" class="st4" points="71.4,18.9 28.4,43.8 28.4,63 				"/>
			</g>
			<g id="XMLID_35256_">
				<polygon id="XMLID_35257_" class="st0" points="77.5,34.6 22.3,66.5 22.3,68.2 77.5,36.4 				"/>
			</g>
			<g id="XMLID_35254_">
				<polygon id="XMLID_35255_" class="st1" points="2.5,55.1 22.3,66.5 22.3,68.2 2.5,56.9 				"/>
			</g>
		</g>
		<g id="XMLID_35250_">
			<g id="XMLID_35251_">
				<polygon id="XMLID_35252_" class="st11" points="24.4,55.5 10.6,47.5 10.6,43.5 24.4,51.5 				"/>
			</g>
		</g>
		<polygon id="XMLID_35249_" class="st2" points="22.3,53.3 2.5,41.9 2.5,55.1 22.3,66.5 		"/>
		<polygon id="XMLID_35248_" class="st10" points="8.6,38.4 2.5,41.9 22.3,53.3 28.4,49.7 		"/>
		<polyline id="XMLID_42098_" class="st3" points="2.5,41.9 22.3,53.3 28.4,49.7 		"/>
		<polygon id="XMLID_35247_" class="st6" points="28.4,63 28.4,49.7 22.3,53.3 22.3,66.5 		"/>
		<polygon id="XMLID_42090_" class="st4" points="28.4,63 28.4,49.7 22.3,53.3 22.3,66.5 		"/>
	</g>
</g>
</svg>
