<?xml version="1.0" encoding="utf-8"?>
<!-- Generator: Adobe Illustrator 21.0.0, SVG Export Plug-In . SVG Version: 6.00 Build 0)  -->
<svg version="1.1" id="Layer_1" xmlns="http://www.w3.org/2000/svg" xmlns:xlink="http://www.w3.org/1999/xlink" x="0px" y="0px"
	 viewBox="0 0 80 80" style="enable-background:new 0 0 80 80;" xml:space="preserve">
<style type="text/css">
	.st0{fill:#301F12;}
	.st1{fill:#563E2E;}
	.st2{fill:#008895;}
	.st3{fill:#49C1C2;}
	.st4{fill:#01B4B3;}
	.st5{fill:#056378;}
	.st6{opacity:0.2;}
	.st7{opacity:0.2;fill:#056378;enable-background:new    ;}
	.st8{fill:#029A9A;}
	.st9{fill:#008E88;}
	.st10{fill:#12A1A4;}
	.st11{fill:#B8E3EC;}
	.st12{fill:#CAE9F0;}
</style>
<g id="XMLID_38747_">
	<g id="XMLID_38798_">
		<polygon id="XMLID_38800_" class="st0" points="5.7,39.7 2.5,37.9 2.5,39.7 5.7,41.5 		"/>
		<polygon id="XMLID_38799_" class="st1" points="5.7,41.5 8.9,39.7 8.9,37.9 5.7,39.7 		"/>
	</g>
	<g id="XMLID_38795_">
		<polygon id="XMLID_38797_" class="st0" points="74.3,60.1 71.1,58.3 71.1,60.1 74.3,61.9 		"/>
		<polygon id="XMLID_38796_" class="st1" points="74.3,61.9 77.5,60.1 77.5,58.3 74.3,60.1 		"/>
	</g>
	<g id="XMLID_38792_">
		<polygon id="XMLID_38794_" class="st0" points="57.7,69.7 54.5,67.9 54.5,69.6 57.7,71.5 		"/>
		<polygon id="XMLID_38793_" class="st1" points="57.7,71.5 60.9,69.6 60.9,67.9 57.7,69.7 		"/>
	</g>
	<g id="XMLID_38748_">
		<g id="XMLID_38782_">
			<polygon id="XMLID_38791_" class="st2" points="8.6,26.4 8.6,34.4 23.6,25.8 23.6,17.6 			"/>
			<polygon id="XMLID_38790_" class="st3" points="2.5,22.9 8.6,26.4 28.4,14.9 22.3,11.4 			"/>
			<polyline id="XMLID_42121_" class="st4" points="8.6,26.4 28.4,14.9 22.3,11.4 			"/>
			<polygon id="XMLID_38789_" class="st5" points="8.6,39.6 8.6,26.4 2.5,22.9 2.5,36.1 			"/>
			<g id="XMLID_38787_">
				<polygon id="XMLID_38788_" class="st5" points="8.6,39.6 51.6,64.5 51.6,59.7 8.6,34.8 				"/>
			</g>
			<g id="XMLID_42118_" class="st6">
				<polyline id="XMLID_42120_" class="st5" points="51.6,64.5 51.6,59.7 8.6,34.8 				"/>
			</g>
			<g id="XMLID_38785_">
				<polygon id="XMLID_38786_" class="st0" points="2.5,37.9 57.7,69.7 57.7,68 2.5,36.1 				"/>
			</g>
			<g id="XMLID_38783_">
				<polygon id="XMLID_38784_" class="st1" points="77.5,58.3 57.7,69.7 57.7,68 77.5,56.5 				"/>
			</g>
		</g>
		<polygon id="XMLID_38781_" class="st3" points="68,35.3 71.4,33.4 28.4,8.5 24.9,10.4 		"/>
		<polyline id="XMLID_42116_" class="st4" points="24.9,10.4 68,35.3 71.4,33.4 		"/>
		<polygon id="XMLID_38780_" class="st2" points="68,35.3 71.4,33.4 71.4,43.9 66.7,46.6 		"/>
		<polygon id="XMLID_38779_" class="st5" points="23.6,21.7 66.7,46.6 68,35.3 24.9,10.4 		"/>
		<polyline id="XMLID_42115_" class="st7" points="24.9,10.4 23.6,21.7 66.7,46.6 		"/>
		<g id="XMLID_38771_">
			<g id="XMLID_38777_">
				<polygon id="XMLID_38778_" class="st4" points="29.5,43.2 45.2,34.2 23.6,21.7 8,30.8 				"/>
			</g>
			<polygon class="st7" points="14.5,27.1 13.9,27.4 13.9,34.2 27,41.7 27,27.1 			"/>
			<g id="XMLID_38772_">
				<g id="XMLID_38775_">
					<polygon id="XMLID_38776_" class="st8" points="29.5,43.2 29.5,47.2 8,34.8 8,30.8 					"/>
				</g>
				<g id="XMLID_38773_">
					<polygon id="XMLID_38774_" class="st9" points="29.5,47.6 29.5,47.2 8,34.8 8,35.2 					"/>
				</g>
			</g>
		</g>
		<g id="XMLID_38755_">
			<g id="XMLID_38769_">
				<polygon id="XMLID_38770_" class="st4" points="51.1,55.6 66.7,46.6 45.2,34.2 29.5,43.2 				"/>
			</g>
			<polygon class="st7" points="51.6,55.3 66.7,46.6 51.6,38 			"/>
			<g id="XMLID_38767_">
				<polygon id="XMLID_38768_" class="st8" points="29.8,43.4 45.5,34.4 45.2,34.2 29.5,43.2 				"/>
			</g>
			<g id="XMLID_38763_">
				<polygon id="XMLID_38766_" class="st10" points="51.1,55.6 64.8,47.7 64.8,51.7 51.1,59.7 				"/>
				<g id="XMLID_38764_">
					<polygon id="XMLID_38765_" class="st9" points="51.1,60.1 51.1,59.7 64.8,51.7 64.8,52.1 					"/>
				</g>
			</g>
			<g id="XMLID_38756_">
				<g id="XMLID_38761_">
					<polygon id="XMLID_38762_" class="st8" points="51.1,55.6 51.1,59.7 29.5,47.2 29.5,43.2 					"/>
				</g>
				<g id="XMLID_38759_">
					<polygon id="XMLID_38760_" class="st9" points="29.5,47.2 29.8,47.4 29.8,43.4 29.5,43.2 					"/>
				</g>
				<g id="XMLID_38757_">
					<polygon id="XMLID_38758_" class="st9" points="51.1,60.1 51.1,59.7 29.5,47.2 29.5,47.6 					"/>
				</g>
			</g>
		</g>
		<g id="XMLID_38752_">
			<path id="XMLID_38754_" class="st11" d="M14.8,21c0.5-2.9,1-7.5,1-7.5c0.1-0.4,0.5-0.4,0.6-0.3c0,0,1.1,1.6,1,3.1
				c-0.2,1.5-0.7,2.9-1,4.2c-0.7,3.8-2,7-2.5,6.6C13.7,26.9,14.2,23.8,14.8,21z"/>
			<path id="XMLID_38753_" class="st12" d="M26.9,22.8c0.2-2.5,0.5-4,0.8-4.7c0.1-0.2,0.2-1-0.1-1.3c-0.6-0.6-1.4-1-2.5-1.1
				c-0.5-0.1-2.4-0.2-3.4-0.5c-1.7-0.5-4.2-1.6-5.2-2.2c-0.2-0.1-0.4,0-0.4,0.2c0.1,0.7,0.3,1.4,0.2,2.8c-0.1,1,0,3.3-0.2,4.4
				c-0.6,3.2-2.2,5.3-2.2,6.6c0,0.2,0.2,0.4,0.5,0.4c1.1,0,3.6,0.2,6,0.2c1.5,0,5.1,0.7,6.1,0.9c0.2,0.1,0.5-0.2,0.5-0.4
				C27,27.2,26.7,25.3,26.9,22.8z"/>
		</g>
		<polygon id="XMLID_38751_" class="st2" points="57.7,68 77.5,56.5 77.5,43.4 57.7,54.7 		"/>
		<polygon id="XMLID_38750_" class="st3" points="51.6,51.2 57.7,54.7 77.5,43.4 71.4,39.8 		"/>
		<polyline id="XMLID_42117_" class="st4" points="71.4,39.8 51.6,51.2 57.7,54.7 		"/>
		<polygon id="XMLID_38749_" class="st5" points="57.7,68 57.7,54.7 51.6,51.2 51.6,64.5 		"/>
		<polygon id="XMLID_42111_" class="st7" points="57.7,68 57.7,54.7 51.6,51.2 51.6,64.5 		"/>
	</g>
</g>
</svg>
