<?xml version="1.0" encoding="utf-8"?>
<!-- Generator: Adobe Illustrator 21.0.0, SVG Export Plug-In . SVG Version: 6.00 Build 0)  -->
<svg version="1.1" id="Layer_1" xmlns="http://www.w3.org/2000/svg" xmlns:xlink="http://www.w3.org/1999/xlink" x="0px" y="0px"
	 viewBox="0 0 80 80" style="enable-background:new 0 0 80 80;" xml:space="preserve">
<style type="text/css">
	.st0{fill:#989495;}
	.st1{fill:#565152;}
	.st2{fill:#9B2569;}
	.st3{opacity:0.1;fill:#530E35;enable-background:new    ;}
	.st4{fill:#600F3A;}
	.st5{fill:#530E35;}
	.st6{fill:#7F1A51;}
</style>
<g id="XMLID_36655_">
	<g id="XMLID_36662_">
		<g id="XMLID_36675_">
			<polygon id="XMLID_36677_" class="st0" points="60.2,53.9 60.2,58.4 62.3,57.2 62.3,52.7 			"/>
			<polygon id="XMLID_36676_" class="st1" points="58.1,57.2 60.2,58.4 60.2,53.9 58.1,52.7 			"/>
		</g>
		<polygon id="XMLID_36671_" class="st0" points="40.2,63.8 40.2,65.5 62.3,52.7 62.3,51 		"/>
		<g id="XMLID_36667_">
			<polygon id="XMLID_36670_" class="st0" points="20.2,53.9 20.2,58.4 22.2,57.2 22.2,52.7 			"/>
			<polygon id="XMLID_36669_" class="st1" points="18.1,57.2 20.2,58.4 20.2,53.9 18.1,52.7 			"/>
		</g>
		<polygon id="XMLID_36666_" class="st1" points="18.1,52.7 40.2,65.5 40.2,63.8 18.1,51 		"/>
		<g id="XMLID_36663_">
			<polygon id="XMLID_36665_" class="st0" points="40.2,65.5 40.2,70 42.3,68.8 42.3,64.3 			"/>
			<polygon id="XMLID_36664_" class="st1" points="38.1,68.8 40.2,70 40.2,65.5 38.1,64.3 			"/>
		</g>
	</g>
	<path id="XMLID_36658_" class="st2" d="M14,26v22.1c0,0.9,0.5,1.7,1.2,2.1c0.7,0.5,22.1,12.9,22.8,13.4c0.8,0.4,1.7,0.5,2.6,0
		L62,51.2c2.6-1.5,3.2-5.1,2-7.4c-0.4-0.7-0.8-1.2-1.4-1.6c-0.3-0.2-22.9-13.4-23-13.5c-1.8-1.1-4.4-1.1-6.3,0l-14.2,8.1l-0.3-11
		c0-1.7-1.5-3.1-3-2.2c-0.2,0.1-0.7,0.4-1.1,0.7S14,25.3,14,26z"/>
	<path class="st3" d="M14,26v22.1c0,0.9,0.5,1.7,1.2,2.1c0.7,0.5,22.1,12.9,22.7,13.2c0.8,0.4,1.7,0.5,2.6,0l1.7-1V30.2
		c-1.6-0.9-2.6-1.5-2.6-1.5c-1.8-1.1-4.4-1.1-6.3,0l-14.2,8.1l-0.3-11c0-1.7-1.5-3.1-3-2.2c-0.2,0.1-0.7,0.4-1.1,0.7S14,25.3,14,26z
		"/>
	<path id="XMLID_36657_" class="st4" d="M14,26v22.1c0,0.9,0.5,1.7,1.2,2.1c0.7,0.5,22.1,12.9,22.8,13.3c0.8,0.4,1.7,0.5,2.6,0
		l0.1-26.4c0,0-22.3-13.1-23-13.5c-0.6-0.3-1.2-0.4-1.9,0c-0.2,0.1-0.7,0.4-1.1,0.7S14,25.3,14,26z"/>
	<path id="XMLID_42178_" class="st5" d="M38,63.6c0.8,0.4,1.7,0.5,2.6,0l0.1-26.4c0,0-22.3-13.1-23-13.5c-0.6-0.3-1.2-0.4-1.9,0
		c-0.2,0.1-0.7,0.4-1.1,0.7C14.3,24.6,14,25.3,14,26"/>
	<path id="XMLID_36656_" class="st6" d="M36.7,39.3v22c0,2,2.1,3.2,3.8,2.2l21.4-12.4c2.6-1.5,3.2-5.1,2-7.4
		C62.4,41,58.7,40.5,56,42l-13.6,7.7c-0.4,0.3-0.6,0.7-0.6,1.1v5c0,0.2,0.2,0.3,0.3,0.2l17.1-9.8l0.3-1.8l0.3,1.8l1,1.4l-1.2-0.9
		l-17.4,9.7c-0.3,0.2-0.6,0-0.6-0.3v-17c0-1.7-1.5-3.1-3-2.2c-0.2,0.1-0.7,0.4-1.1,0.7C37.1,37.9,36.7,38.6,36.7,39.3z"/>
</g>
</svg>
