<?xml version="1.0" encoding="utf-8"?>
<!-- Generator: Adobe Illustrator 21.0.0, SVG Export Plug-In . SVG Version: 6.00 Build 0)  -->
<svg version="1.1" id="Layer_1" xmlns="http://www.w3.org/2000/svg" xmlns:xlink="http://www.w3.org/1999/xlink" x="0px" y="0px"
	 viewBox="0 0 80 80" style="enable-background:new 0 0 80 80;" xml:space="preserve">
<style type="text/css">
	.st0{fill:#995827;}
	.st1{fill:#B2662F;}
	.st2{fill:#E8E7E7;}
	.st3{fill:#EFEFEF;}
	.st4{fill:#A75535;}
	.st5{fill:#893E25;}
	.st6{fill:#BDD3CF;}
	.st7{fill:#FFFFFF;}
	.st8{fill:#A3B6B3;}
	.st9{fill:#AC692D;}
	.st10{fill:#73401C;}
	.st11{opacity:0.2;}
	.st12{opacity:0.2;fill:#A3B6B3;}
</style>
<g id="XMLID_37809_">
	<g id="XMLID_37843_">
		<g id="XMLID_37844_">
			<path id="XMLID_37847_" class="st0" d="M66.5,43.7c0-0.2-0.1-0.3-0.3-0.4l0,0c-0.2-0.1-0.6-0.2-0.8-0.1l0,0
				c-0.4,0.1-0.6,0.3-0.6,0.5c0,0.2,0,1.9,0,2c0,0.2,0.1,0.3,0.3,0.4l0,0c0.2,0.1,0.6,0.2,0.8,0.1l0,0c0.4-0.1,0.6-0.3,0.6-0.5
				C66.5,45.6,66.5,43.8,66.5,43.7z"/>
			<path id="XMLID_37846_" class="st0" d="M66.7,45.4L66.7,45.4c0.9,0.5,0.6,1.5-0.5,1.8l0,0c-0.5,0.1-1.1,0-1.5-0.2l0,0
				c-0.9-0.5-0.6-1.5,0.5-1.8l0,0C65.7,45.1,66.3,45.2,66.7,45.4z"/>
			<path id="XMLID_37845_" class="st1" d="M64.8,45.6c-0.7,0.4-0.5,1.2,0.4,1.4l0,0c0.4,0.1,0.9,0,1.2-0.2l0,0
				c0.4-0.2-0.9-0.1-1.1-0.6C65.2,45.8,64.8,45.6,64.8,45.6z"/>
		</g>
	</g>
	<g id="XMLID_37834_">
		<g id="XMLID_37839_">
			<path id="XMLID_37842_" class="st0" d="M35.1,61.6c0-0.2-0.1-0.3-0.3-0.4l0,0C34.6,61,34.2,61,34,61.1l0,0
				c-0.4,0.1-0.6,0.3-0.6,0.5c0,0.2,0,1.9,0,2c0,0.2,0.1,0.3,0.3,0.4l0,0c0.2,0.1,0.6,0.2,0.8,0.1l0,0c0.4-0.1,0.6-0.3,0.6-0.5
				C35.1,63.5,35.1,61.8,35.1,61.6z"/>
			<path id="XMLID_37841_" class="st0" d="M35.3,63.3L35.3,63.3c0.9,0.5,0.6,1.5-0.5,1.8l0,0c-0.5,0.1-1.1,0-1.5-0.2l0,0
				c-0.9-0.5-0.6-1.5,0.5-1.8l0,0C34.3,63,34.8,63.1,35.3,63.3z"/>
			<path id="XMLID_37840_" class="st1" d="M33.4,63.6c-0.7,0.4-0.5,1.2,0.4,1.4l0,0c0.4,0.1,0.9,0,1.2-0.2l0,0
				c0.4-0.2-0.9-0.1-1.1-0.6C33.8,63.7,33.4,63.6,33.4,63.6z"/>
		</g>
		<g id="XMLID_37835_">
			<path id="XMLID_37838_" class="st0" d="M15.2,50.1c0-0.2-0.1-0.3-0.3-0.4l0,0c-0.2-0.1-0.6-0.2-0.8-0.1l0,0
				c-0.4,0.1-0.6,0.3-0.6,0.5c0,0.2,0,1.9,0,2c0,0.2,0.1,0.3,0.3,0.4l0,0c0.2,0.1,0.6,0.2,0.8,0.1l0,0c0.4-0.1,0.6-0.3,0.6-0.5
				C15.2,52,15.2,50.3,15.2,50.1z"/>
			<path id="XMLID_37837_" class="st0" d="M15.3,51.8L15.3,51.8c0.9,0.5,0.6,1.5-0.5,1.8l0,0c-0.5,0.1-1.1,0-1.5-0.2l0,0
				c-0.9-0.5-0.6-1.5,0.5-1.8l0,0C14.3,51.5,14.9,51.6,15.3,51.8z"/>
			<path id="XMLID_37836_" class="st1" d="M13.4,52.1c-0.7,0.4-0.5,1.2,0.4,1.4l0,0c0.4,0.1,0.9,0,1.2-0.2l0,0
				c0.4-0.2-0.9-0.1-1.1-0.6C13.9,52.2,13.4,52.1,13.4,52.1z"/>
		</g>
	</g>
	<g id="XMLID_37810_">
		<polygon id="XMLID_37833_" class="st2" points="67.3,43.3 45.7,30.9 12.8,49.9 34.3,62.4 		"/>
		<path id="XMLID_37832_" class="st3" d="M39.5,27.6c0,0-4.8,2-7.6,3.5c-5.1,2.8-7.5,4.5-10,6.8c-0.8,0.8-1.4,1.7-1.4,2.8v4.6
			l16,9.7l0.5-0.3c-0.3-2.9-0.1-5.8-0.1-5.8c0.1-1,0.6-1.8,1-2.2c1.9-1.6,5.6-4.1,10.6-6.9c3.8-2.1,5.8-2.6,7.4-3.2
			c1.1-0.4,1.3,0.3,1.3,0.3c0-0.7-0.2-1.1-0.7-1.4L43.7,28C42.3,27.2,41.4,26.9,39.5,27.6z"/>
		<g id="XMLID_37829_">
			<path id="XMLID_37831_" class="st4" d="M26.5,44.6c0.4,0.4,2.2-2.4,3.4-5.9c0.4-1.1,1.2-2.4,1.5-3.8c0.3-1.4-0.6-2.8-0.6-2.8
				c-0.1-0.1-0.5-0.1-0.6,0.3c0,0-1.1,4.1-2,6.7C27.3,41.7,26.4,44.5,26.5,44.6z"/>
			<path id="XMLID_37830_" class="st5" d="M39.8,45.7c0,0.2-0.3,0.4-0.6,0.4c-1-0.2-4.7-0.8-6.2-0.8c-2.4,0-5-0.3-6.1-0.3
				c-0.3,0-0.5-0.1-0.4-0.4c0.2-1.2,2.2-3.1,3.2-5.9c0.4-1,0.6-3.1,0.7-3.9c0.3-1.3,0.1-1.9,0.1-2.5c0-0.2,0.3-0.3,0.5-0.2
				c1,0.6,3.4,1.5,5.1,2c1.1,0.3,3,0.4,3.5,0.5c1.1,0.1,1.9,0.5,2.4,1c0.3,0.3,0,1-0.1,1.2c-0.4,0.7-1,2-1.5,4.3
				C39.9,43.2,40,44.9,39.8,45.7z"/>
		</g>
		<g id="XMLID_37825_">
			<path id="XMLID_37828_" class="st6" d="M61.4,30.4L41.1,18.6l-0.4-1.2c-0.7,0.7-0.8,1.2-0.8,1.7c0,0.5,0,13.4,0,13.4L61.4,45
				V30.4z"/>
			<path id="XMLID_37827_" class="st7" d="M42.8,15.8c-1.2,0.8-2.3,1.8-2.3,1.8c-0.1,0.2,0,0.6,0.2,0.8l20.7,12l5.8-3.4L46.4,15
				c-0.2-0.1-0.5-0.2-0.7-0.2C45.5,14.8,44,15.1,42.8,15.8z"/>
			<path id="XMLID_41634_" class="st3" d="M45.7,14.8"/>
			<path id="XMLID_41631_" class="st3" d="M40.5,17.7c-0.1,0.2,0,0.6,0.2,0.8l20.7,12l5.8-3.4"/>
			<path id="XMLID_37826_" class="st8" d="M61.4,45V30.4c0-0.2,1.5-1.5,2.9-2.3c1.5-0.8,2.9-1.2,2.9-1.1v14.6L61.4,45z"/>
		</g>
		<g id="XMLID_37822_">
			<g id="XMLID_37823_">
				<polygon id="XMLID_37824_" class="st9" points="12.8,49.9 34.3,62.4 34.3,60.7 12.8,48.2 				"/>
			</g>
		</g>
		<polygon id="XMLID_37821_" class="st10" points="67.3,43.3 67.3,41.6 34.3,60.7 34.3,62.4 		"/>
		<g id="XMLID_37815_">
			<g id="XMLID_37816_">
				<g id="XMLID_37819_">
					<polygon id="XMLID_37820_" class="st6" points="40.3,53.2 32,50.4 34.6,34.6 40.4,37.8 					"/>
				</g>
				<g id="XMLID_41624_" class="st11">
					<polyline id="XMLID_41629_" class="st8" points="40.4,37.8 40.3,53.2 32,50.4 					"/>
				</g>
				<path id="XMLID_37818_" class="st8" d="M61.4,30.4c-0.1-2-0.6-3.7-0.6-3.7c0-0.2-0.1-1.2-0.9-1.2c-2,0.1-6.9,2.3-9.9,4
					c-3.8,2.1-8.2,6.6-9.5,7.9c-0.1,0.1-0.1,0.3-0.1,0.3c-0.6,3.5-0.6,14.1-0.5,15.7c0.1,1.9,0.2,3.8,0.2,3.8L61.4,45
					C61.4,45,61.5,31,61.4,30.4z"/>
				<path id="XMLID_41627_" class="st12" d="M61.4,30.4c-0.1-2-0.6-3.7-0.6-3.7c0-0.2-0.1-1.2-0.9-1.2c-2,0.1-6.9,2.3-9.9,4
					c-3.8,2.1-8.2,6.6-9.5,7.9c-0.1,0.1-0.1,0.3-0.1,0.3c-0.6,3.5-0.6,14.1-0.5,15.7c0.1,1.9,0.2,3.8,0.2,3.8"/>
				<path id="XMLID_37817_" class="st7" d="M60.8,26.7c0-0.7-0.9-2.4-3-3.7c-0.7-0.4-1.4-0.6-1.9-0.7c-1.4-0.3-5.6,1.3-11.4,4.3
					c-6.7,3.5-9.9,6.4-9.9,8c0,1.6,5.5,3.5,5.8,3.1c1.6-1.8,3.9-4,10.1-7.5c4.1-2.3,9.1-4,9.7-4.1C60.6,26,60.8,26.7,60.8,26.7z"/>
				<path id="XMLID_41630_" class="st3" d="M34.6,34.6c0,1.6,5.5,3.5,5.8,3.1c1.6-1.8,3.9-4,10.1-7.5c4.1-2.3,9.1-4,9.7-4.1
					c0.5-0.1,0.7,0.5,0.7,0.5c0-0.7-0.9-2.4-3-3.7c-0.7-0.4-1.4-0.6-1.9-0.7"/>
			</g>
		</g>
		<g id="XMLID_37811_">
			<path id="XMLID_37814_" class="st6" d="M34.3,46.1L14,34.3l-0.4-1.2c-0.7,0.7-0.8,1.2-0.8,1.7c0,0.5,0,13.4,0,13.4l21.5,12.4
				V46.1z"/>
			<path id="XMLID_37813_" class="st7" d="M15.7,31.5c-1.2,0.8-2.3,1.8-2.3,1.8c-0.1,0.2,0,0.6,0.2,0.8l20.7,12l5.8-3.4l-20.9-12
				c-0.2-0.1-0.5-0.2-0.7-0.2C18.4,30.5,16.9,30.7,15.7,31.5z"/>
			<path id="XMLID_41632_" class="st3" d="M18.6,30.5"/>
			<path id="XMLID_41628_" class="st3" d="M13.3,33.3c-0.1,0.2,0,0.6,0.2,0.8l20.7,12l5.8-3.4"/>
			<path id="XMLID_37812_" class="st8" d="M34.3,60.7V46.1c0-0.2,1.5-1.5,2.9-2.3c1.5-0.8,2.9-1.2,2.9-1.1v14.6L34.3,60.7z"/>
			<path id="XMLID_41626_" class="st12" d="M34.3,60.7V46.1c0-0.2,1.5-1.5,2.9-2.3c1.5-0.8,2.9-1.2,2.9-1.1"/>
		</g>
	</g>
</g>
</svg>
