<?xml version="1.0" encoding="utf-8"?>
<!-- Generator: Adobe Illustrator 21.0.0, SVG Export Plug-In . SVG Version: 6.00 Build 0)  -->
<svg version="1.1" id="Layer_1" xmlns="http://www.w3.org/2000/svg" xmlns:xlink="http://www.w3.org/1999/xlink" x="0px" y="0px"
	 viewBox="0 0 80 80" style="enable-background:new 0 0 80 80;" xml:space="preserve">
<style type="text/css">
	.st0{fill:#C5C6C7;}
	.st1{opacity:0.2;fill:#C5C6C7;}
	.st2{fill:#92989E;}
	.st3{opacity:0.2;fill:#868E92;}
	.st4{fill:#333538;}
	.st5{fill:#59595C;}
	.st6{fill:#636467;}
	.st7{opacity:0.2;fill:#636467;}
	.st8{fill:#B1B1B1;}
	.st9{fill:#D2D2D2;}
	.st10{fill:#C2C1C1;}
	.st11{fill:#BBBBBB;}
	.st12{opacity:0.3;fill:#C2C1C1;}
	.st13{fill:#D5D6D5;}
	.st14{fill:#B1B4B6;}
	.st15{fill:#AEAEAE;}
	.st16{fill:#353434;}
	.st17{fill:#3E3C39;}
	.st18{fill:#D0D1D1;}
	.st19{fill:#C6C4C3;}
	.st20{fill:#DCDCDB;}
	.st21{fill:#F3F4F5;}
	.st22{fill:#C5C6D4;}
	.st23{fill:#DADAE0;}
	.st24{fill:#7D888D;}
	.st25{fill:#707C80;}
	.st26{fill:#B7C3C5;}
	.st27{fill:#9CACB2;}
	.st28{opacity:0.2;fill:#707C80;}
	.st29{fill:#A9B4B6;}
	.st30{opacity:0.2;fill:#A9B4B6;}
	.st31{fill:#CCDBDD;}
	.st32{fill:#95CDD6;}
	.st33{opacity:0.5;fill:#95CDD6;}
	.st34{opacity:0.3;fill:#80BCC9;}
	.st35{opacity:0.2;}
	.st36{fill:#DBE9E9;}
	.st37{fill:#8C999D;}
	.st38{fill:#5F6D71;}
	.st39{fill:#BAC8CB;}
	.st40{fill:#6A787B;}
	.st41{fill:#A3A3A3;}
	.st42{fill:#CBCACA;}
	.st43{fill:#AEADA9;}
	.st44{fill:#A8A7A7;}
	.st45{fill:#CECDCB;}
</style>
<polygon id="XMLID_1279_" class="st0" points="33.2,19.6 59.8,34.9 59.8,61.3 33.2,46 "/>
<polygon id="XMLID_1278_" class="st1" points="33.2,19.6 59.8,34.9 59.8,45.3 33.2,46 "/>
<polygon id="XMLID_1277_" class="st2" points="78.5,23 28,52.2 28,79.7 28.8,79.2 28.8,52.7 59.8,34.9 59.8,61.3 78.5,50.5 "/>
<polyline id="XMLID_1276_" class="st3" points="78.5,23 28,52.2 28,79.7 28.8,79.2 28.8,52.7 59.8,34.9 59.8,61.3 "/>
<polygon id="XMLID_1236_" class="st0" points="28,52.2 1.5,36.9 1.5,64.4 2.3,64.8 27.2,79.2 28,79.7 "/>
<polyline id="XMLID_1235_" class="st1" points="27.2,79.2 28,79.7 28,52.2 1.5,36.9 "/>
<g id="XMLID_1227_">
	<g id="XMLID_1228_">
		<polygon id="XMLID_1232_" class="st4" points="28,50.5 28,52.2 78.5,23 78.5,21.3 		"/>
		<polygon id="XMLID_1231_" class="st5" points="1.5,35.2 28,50.5 28,52.2 1.5,36.9 		"/>
		<polygon id="XMLID_1230_" class="st6" points="52,6 1.5,35.2 28,50.5 78.5,21.3 		"/>
		<polyline id="XMLID_1229_" class="st7" points="1.4,35.2 27.9,50.5 78.5,21.3 		"/>
		<polygon class="st7" points="12.1,41.3 28,50.5 41.4,42.7 41.4,13 37.5,14.4 12.1,29.1 		"/>
	</g>
</g>
<g id="XMLID_16235_">
	<g id="XMLID_16281_">
		<path id="XMLID_16284_" class="st8" d="M55.5,16.2c0-1.9-2.8-3.4-6.2-3.4c-3.4,0-6.2,1.5-6.2,3.4c0,0.2,0,0.1,0,0.3
			c0,1.9,2.8,3.4,6.2,3.4c3.4,0,6.2-1.5,6.2-3.4C55.5,16.3,55.5,16.4,55.5,16.2z"/>
		<ellipse id="XMLID_16283_" class="st9" cx="49.3" cy="16.2" rx="6.2" ry="3.4"/>
		<path id="XMLID_16282_" class="st10" d="M55.5,16.2c0,1.9-2.8,3.4-6.2,3.4c-3.4,0-6.2-1.5-6.2-3.4"/>
	</g>
	<g id="XMLID_16277_">
		<ellipse id="XMLID_16280_" class="st8" cx="49.3" cy="15.9" rx="2.7" ry="1.5"/>
		<g id="XMLID_16278_">
			<path id="XMLID_16279_" class="st11" d="M49.3,17.3c1.4,0,2.6-0.6,2.7-1.4c-0.1-0.8-1.3-1.4-2.7-1.4c-1.4,0-2.6,0.6-2.7,1.4
				C46.7,16.7,47.9,17.3,49.3,17.3z"/>
		</g>
		<path class="st12" d="M46.5,19.3c0.8,0.2,1.7,0.3,2.7,0.3c1,0,1.9-0.1,2.7-0.3v-4.1h-5.4V19.3z"/>
	</g>
	<g id="XMLID_16238_">
		<g id="XMLID_16239_">
			<g id="XMLID_16273_">
				<path id="XMLID_16274_" class="st10" d="M53.2,12.3c-0.4-0.1-0.8,0.1-1,0.4c-0.3,0.3-1.5,2.9-0.7,2.8c0.8-0.1,2.2-1.3,2.3-1.9
					c0.1-0.3,0-0.7,0-0.7C53.7,12.7,53.5,12.4,53.2,12.3z M51.8,14.6c-0.5,0.1,0.4-1.5,0.6-1.7c0.2-0.2,0.3-0.3,0.6-0.2
					c0.3,0.1,0.4,0.4,0.4,0.6C53.4,13.9,52.5,14.4,51.8,14.6z"/>
			</g>
			<path id="XMLID_16272_" class="st8" d="M45.9,12.4c0,1.5,1.1,3.5,1.1,3.6c0.2,0.5,1.2,1,2.3,1c1.1,0,2.1-0.4,2.3-1
				c0-0.1,1.1-2.1,1.1-3.6C52.7,10.9,45.9,10.9,45.9,12.4z"/>
			<path class="st12" d="M49.3,17c0.7,0,1.2-0.1,1.7-0.4c0.2-0.7,0.7-2.6,0.7-4.1c0-0.5-0.5-0.9-1.1-1.1c-0.8-0.1-1.8-0.1-2.6,0
				c-0.6,0.2-1.1,0.6-1.1,1.1c0,1.5,0.5,3.4,0.7,4.1C48,16.8,48.6,17,49.3,17z"/>
			<g id="XMLID_16267_">
				<g id="XMLID_16268_">
					<path id="XMLID_16269_" class="st8" d="M53.3,12.5c-0.4-0.1-0.7,0.1-1,0.3c-0.3,0.3-1.7,2.9-0.9,2.8c0.8-0.1,2.2-0.9,2.4-1.9
						C54,13.3,53.9,12.7,53.3,12.5z M53.4,13.7c-0.2,0.5-0.5,0.8-1.5,1.1c-0.5,0.1,0.4-1.5,0.5-1.7c0.2-0.2,0.3-0.3,0.6-0.2
						C53.4,13.1,53.6,13.4,53.4,13.7z"/>
				</g>
			</g>
			<path id="XMLID_16266_" class="st10" d="M52.7,11.9c0-1-1.5-1.9-3.4-1.9c-1.9,0-3.4,0.8-3.4,1.9c0,0.1,0,0.2,0,0.3
				c0,1,1.5,1.9,3.4,1.9c1.9,0,3.4-0.8,3.4-1.9C52.7,12.1,52.7,12.1,52.7,11.9z"/>
			<ellipse id="XMLID_16265_" class="st13" cx="49.3" cy="11.9" rx="3.4" ry="1.9"/>
			<path id="XMLID_16264_" class="st10" d="M52.7,11.9c0,1-1.5,1.9-3.4,1.9c-1.9,0-3.4-0.8-3.4-1.9"/>
			<ellipse id="XMLID_16263_" class="st14" cx="49.3" cy="12" rx="2.9" ry="1.6"/>
			<g id="XMLID_16240_">
				<path id="XMLID_16262_" class="st15" d="M49.3,11.1c1.4,0,2.6,0.6,2.7,1.3c0.1-0.2,0.2-0.3,0.2-0.5c0-0.9-1.3-1.6-2.9-1.6
					c-1.6,0-2.9,0.7-2.9,1.6c0,0.2,0.1,0.4,0.2,0.5C46.7,11.7,47.9,11.1,49.3,11.1z"/>
				<path class="st12" d="M49.3,10.9c-1.4,0-2.6,0.6-2.8,1.3c0,0.1,0.1,0.2,0.1,0.3c0.2-0.8,1.3-1.3,2.7-1.3c1.4,0,2.6,0.6,2.7,1.3
					c0.1-0.1,0.1-0.2,0.1-0.3C51.9,11.5,50.7,10.9,49.3,10.9z"/>
				<path id="XMLID_16261_" class="st16" d="M49.3,13.6c1.3,0,2.3-0.4,2.7-1.1c-0.2-0.8-1.3-1.3-2.7-1.3c-1.4,0-2.6,0.6-2.7,1.3
					C46.9,13.1,48,13.6,49.3,13.6z"/>
				<g id="XMLID_16257_">
					<ellipse id="XMLID_16260_" class="st17" cx="48.1" cy="12.6" rx="0.4" ry="0.2"/>
					<ellipse id="XMLID_16259_" class="st16" cx="48.1" cy="12.6" rx="0.3" ry="0.2"/>
					<path id="XMLID_16258_" class="st17" d="M48,12.6c0-0.1,0.1-0.1,0.2-0.1c0,0,0.1,0,0.1,0c0,0-0.1,0-0.2,0
						C48,12.6,48,12.7,48,12.6C48,12.6,48,12.6,48,12.6z"/>
				</g>
				<g id="XMLID_16253_">
					<ellipse id="XMLID_16256_" class="st17" cx="48.1" cy="11.6" rx="0.3" ry="0.2"/>
					<ellipse id="XMLID_16255_" class="st16" cx="48.1" cy="11.6" rx="0.2" ry="0.1"/>
					<path id="XMLID_16254_" class="st17" d="M48,11.6c0,0,0.1-0.1,0.1-0.1c0,0,0.1,0,0.1,0c0,0-0.1,0-0.1,0
						C48.1,11.6,48.1,11.7,48,11.6C48,11.7,48,11.7,48,11.6z"/>
				</g>
				<g id="XMLID_16249_">
					<ellipse id="XMLID_16252_" class="st17" cx="51.2" cy="12.6" rx="0.3" ry="0.2"/>
					<ellipse id="XMLID_16251_" class="st16" cx="51.2" cy="12.6" rx="0.2" ry="0.1"/>
					<path id="XMLID_16250_" class="st17" d="M51,12.6c0,0,0.1-0.1,0.1-0.1c0,0,0.1,0,0.1,0c0,0-0.1,0-0.1,0
						C51.1,12.6,51.1,12.7,51,12.6C51.1,12.6,51,12.6,51,12.6z"/>
				</g>
				<g id="XMLID_16245_">
					<ellipse id="XMLID_16248_" class="st17" cx="49.4" cy="13.1" rx="0.3" ry="0.2"/>
					<ellipse id="XMLID_16247_" class="st16" cx="49.4" cy="13.1" rx="0.2" ry="0.1"/>
					<path id="XMLID_16246_" class="st17" d="M49.3,13.1c0,0,0.1-0.1,0.1-0.1c0,0,0.1,0,0.1,0c0,0-0.1,0-0.1,0
						C49.4,13.1,49.4,13.2,49.3,13.1C49.3,13.1,49.3,13.1,49.3,13.1z"/>
				</g>
				<g id="XMLID_16241_">
					<ellipse id="XMLID_16244_" class="st17" cx="50.2" cy="12" rx="0.4" ry="0.2"/>
					<ellipse id="XMLID_16243_" class="st16" cx="50.2" cy="12" rx="0.3" ry="0.2"/>
					<path id="XMLID_16242_" class="st17" d="M50,12c0-0.1,0.1-0.1,0.2-0.1c0,0,0.1,0,0.1,0c0,0-0.1,0-0.1,0C50.1,12,50.1,12,50,12
						C50,12,50,12,50,12z"/>
				</g>
			</g>
		</g>
	</g>
</g>
<g id="XMLID_44929_">
	<path id="XMLID_45336_" class="st18" d="M37,25.9c0-0.1,0-0.1-0.1-0.2L32,22.9c-0.2-0.1-0.4-0.1-0.6,0l-12.4,7.2
		c-0.1,0-0.1,0.1-0.1,0.2c0,0.1,0,0.2,0,0.2c0,0.1,0,0.1,0.1,0.2l4.9,2.8c0.2,0.1,0.4,0.1,0.6,0l12.4-7.2c0.1,0,0.1-0.1,0.1-0.2
		C37,26.1,37,26,37,25.9z"/>
	<path id="XMLID_45335_" class="st19" d="M36.9,25.8L32,22.9c-0.2-0.1-0.4-0.1-0.6,0l-12.4,7.2c-0.1,0.1-0.1,0.3,0,0.4l4.9,2.8
		c0.2,0.1,0.4,0.1,0.6,0l12.4-7.2C37.1,26,37.1,25.8,36.9,25.8z"/>
	<g id="XMLID_44930_">
		<g id="XMLID_45270_">
			<g id="XMLID_45326_">
				<g id="XMLID_45331_">
					<g id="XMLID_45332_">
						<path id="XMLID_45334_" class="st20" d="M31.9,24.5C31.9,24.5,31.9,24.5,31.9,24.5l-0.5-0.4c-0.1,0-0.2,0-0.2,0l-0.5,0.3
							c0,0,0,0,0,0.1v0.1c0,0,0,0.1,0,0.1l0.5,0.3c0.1,0,0.2,0,0.2,0l0.5-0.3C31.9,24.7,31.9,24.7,31.9,24.5L31.9,24.5z"/>
						<path id="XMLID_45333_" class="st21" d="M31.1,24.2l-0.5,0.3c-0.1,0-0.1,0.1,0,0.2l0.5,0.3c0.1,0,0.2,0,0.2,0l0.5-0.3
							c0.1,0,0.1-0.1,0-0.2l-0.5-0.3C31.3,24.1,31.2,24.1,31.1,24.2z"/>
					</g>
				</g>
				<g id="XMLID_45327_">
					<g id="XMLID_45328_">
						<path id="XMLID_45330_" class="st20" d="M31,25C31,25,31,25,31,25l-0.5-0.4c-0.1,0-0.2,0-0.2,0L29.8,25c0,0,0,0,0,0.1v0.1
							c0,0,0,0.1,0,0.1l0.5,0.3c0.1,0,0.2,0,0.2,0l0.5-0.3C31,25.2,31,25.2,31,25L31,25z"/>
						<path id="XMLID_45329_" class="st21" d="M30.3,24.7L29.8,25c-0.1,0-0.1,0.1,0,0.2l0.5,0.3c0.1,0,0.2,0,0.2,0l0.5-0.3
							c0.1,0,0.1-0.1,0-0.2l-0.5-0.3C30.4,24.6,30.3,24.6,30.3,24.7z"/>
					</g>
				</g>
			</g>
			<g id="XMLID_45321_">
				<g id="XMLID_45322_">
					<g id="XMLID_45323_">
						<path id="XMLID_45325_" class="st20" d="M33,23.9C33,23.8,33,23.8,33,23.9l-0.5-0.4c-0.1,0-0.2,0-0.2,0L31.5,24c0,0,0,0,0,0.1
							l0,0.1c0,0,0,0.1,0,0.1l0.5,0.3c0.1,0,0.2,0,0.2,0L33,24C33,24,33,24,33,23.9L33,23.9z"/>
						<path id="XMLID_45324_" class="st21" d="M32.3,23.5L31.5,24c-0.1,0-0.1,0.1,0,0.2l0.5,0.3c0.1,0,0.2,0,0.2,0L33,24
							c0.1,0,0.1-0.1,0-0.2l-0.5-0.3C32.4,23.5,32.3,23.5,32.3,23.5z"/>
					</g>
				</g>
			</g>
			<g id="XMLID_45312_">
				<g id="XMLID_45317_">
					<g id="XMLID_45318_">
						<path id="XMLID_45320_" class="st20" d="M30.2,25.5C30.2,25.5,30.2,25.5,30.2,25.5l-0.5-0.4c-0.1,0-0.2,0-0.2,0l-0.5,0.3
							c0,0,0,0,0,0.1l0,0.1c0,0,0,0.1,0,0.1l0.5,0.3c0.1,0,0.2,0,0.2,0l0.5-0.3C30.2,25.7,30.2,25.7,30.2,25.5L30.2,25.5z"/>
						<path id="XMLID_45319_" class="st21" d="M29.4,25.2l-0.5,0.3c-0.1,0-0.1,0.1,0,0.2l0.5,0.3c0.1,0,0.2,0,0.2,0l0.5-0.3
							c0.1,0,0.1-0.1,0-0.2l-0.5-0.3C29.6,25.1,29.5,25.1,29.4,25.2z"/>
					</g>
				</g>
				<g id="XMLID_45313_">
					<g id="XMLID_45314_">
						<path id="XMLID_45316_" class="st20" d="M29.3,26C29.3,26,29.3,26,29.3,26l-0.5-0.4c-0.1,0-0.2,0-0.2,0L28,26c0,0,0,0,0,0.1
							l0,0.1c0,0,0,0.1,0,0.1l0.5,0.3c0.1,0,0.2,0,0.2,0l0.5-0.3C29.3,26.2,29.3,26.2,29.3,26L29.3,26z"/>
						<path id="XMLID_45315_" class="st21" d="M28.5,25.7L28,26c-0.1,0-0.1,0.1,0,0.2l0.5,0.3c0.1,0,0.2,0,0.2,0l0.5-0.3
							c0.1,0,0.1-0.1,0-0.2l-0.5-0.3C28.7,25.6,28.6,25.6,28.5,25.7z"/>
					</g>
				</g>
			</g>
			<g id="XMLID_45303_">
				<g id="XMLID_45308_">
					<g id="XMLID_45309_">
						<path id="XMLID_45311_" class="st20" d="M28.5,26.5C28.4,26.5,28.4,26.5,28.5,26.5l-0.5-0.4c-0.1,0-0.2,0-0.2,0l-0.5,0.3
							c0,0,0,0,0,0.1v0.1c0,0,0,0.1,0,0.1l0.5,0.3c0.1,0,0.2,0,0.2,0l0.5-0.3C28.4,26.7,28.5,26.6,28.5,26.5L28.5,26.5z"/>
						<path id="XMLID_45310_" class="st21" d="M27.7,26.2l-0.5,0.3c-0.1,0-0.1,0.1,0,0.2l0.5,0.3c0.1,0,0.2,0,0.2,0l0.5-0.3
							c0.1,0,0.1-0.1,0-0.2l-0.5-0.3C27.8,26.1,27.8,26.1,27.7,26.2z"/>
					</g>
				</g>
				<g id="XMLID_45304_">
					<g id="XMLID_45305_">
						<path id="XMLID_45307_" class="st20" d="M27.6,27C27.6,27,27.6,27,27.6,27l-0.5-0.4c-0.1,0-0.2,0-0.2,0L26.3,27c0,0,0,0,0,0.1
							l0,0.1c0,0,0,0.1,0,0.1l0.5,0.3c0.1,0,0.2,0,0.2,0l0.5-0.3C27.6,27.2,27.6,27.1,27.6,27L27.6,27z"/>
						<path id="XMLID_45306_" class="st21" d="M26.8,26.7L26.3,27c-0.1,0-0.1,0.1,0,0.2l0.5,0.3c0.1,0,0.2,0,0.2,0l0.5-0.3
							c0.1,0,0.1-0.1,0-0.2l-0.5-0.3C27,26.6,26.9,26.6,26.8,26.7z"/>
					</g>
				</g>
			</g>
			<g id="XMLID_45294_">
				<g id="XMLID_45299_">
					<g id="XMLID_45300_">
						<path id="XMLID_45302_" class="st20" d="M26.7,27.5C26.7,27.5,26.7,27.5,26.7,27.5l-0.5-0.4c-0.1,0-0.2,0-0.2,0l-0.5,0.3
							c0,0,0,0,0,0.1v0.1c0,0,0,0.1,0,0.1L26,28c0.1,0,0.2,0,0.2,0l0.5-0.3C26.7,27.7,26.7,27.6,26.7,27.5L26.7,27.5z"/>
						<path id="XMLID_45301_" class="st21" d="M26,27.2l-0.5,0.3c-0.1,0-0.1,0.1,0,0.2l0.5,0.3c0.1,0,0.2,0,0.2,0l0.5-0.3
							c0.1,0,0.1-0.1,0-0.2l-0.5-0.3C26.1,27.1,26,27.1,26,27.2z"/>
					</g>
				</g>
				<g id="XMLID_45295_">
					<g id="XMLID_45296_">
						<path id="XMLID_45298_" class="st20" d="M25.9,28C25.9,28,25.9,28,25.9,28l-0.5-0.4c-0.1,0-0.2,0-0.2,0l-0.5,0.3
							c0,0,0,0,0,0.1l0,0.1c0,0,0,0.1,0,0.1l0.5,0.3c0.1,0,0.2,0,0.2,0l0.5-0.3C25.9,28.2,25.9,28.1,25.9,28L25.9,28z"/>
						<path id="XMLID_45297_" class="st21" d="M25.1,27.7l-0.5,0.3c-0.1,0-0.1,0.1,0,0.2l0.5,0.3c0.1,0,0.2,0,0.2,0l0.5-0.3
							c0.1,0,0.1-0.1,0-0.2l-0.5-0.3C25.3,27.6,25.2,27.6,25.1,27.7z"/>
					</g>
				</g>
			</g>
			<g id="XMLID_45285_">
				<g id="XMLID_45290_">
					<g id="XMLID_45291_">
						<path id="XMLID_45293_" class="st20" d="M25,28.5C25,28.5,25,28.5,25,28.5l-0.5-0.4c-0.1,0-0.2,0-0.2,0l-0.5,0.3
							c0,0,0,0,0,0.1v0.1c0,0,0,0.1,0,0.1l0.5,0.3c0.1,0,0.2,0,0.2,0l0.5-0.3C25,28.7,25,28.6,25,28.5L25,28.5z"/>
						<path id="XMLID_45292_" class="st21" d="M24.2,28.2l-0.5,0.3c-0.1,0-0.1,0.1,0,0.2l0.5,0.3c0.1,0,0.2,0,0.2,0l0.5-0.3
							c0.1,0,0.1-0.1,0-0.2l-0.5-0.3C24.4,28.1,24.3,28.1,24.2,28.2z"/>
					</g>
				</g>
				<g id="XMLID_45286_">
					<g id="XMLID_45287_">
						<path id="XMLID_45289_" class="st20" d="M24.2,29C24.2,29,24.1,28.9,24.2,29l-0.5-0.4c-0.1,0-0.2,0-0.2,0l-0.5,0.3
							c0,0,0,0,0,0.1l0,0.1c0,0,0,0.1,0,0.1l0.5,0.3c0.1,0,0.2,0,0.2,0l0.5-0.3C24.1,29.2,24.2,29.1,24.2,29L24.2,29z"/>
						<path id="XMLID_45288_" class="st21" d="M23.4,28.6l-0.5,0.3c-0.1,0-0.1,0.1,0,0.2l0.5,0.3c0.1,0,0.2,0,0.2,0l0.5-0.3
							c0.1,0,0.1-0.1,0-0.2l-0.5-0.3C23.5,28.6,23.5,28.6,23.4,28.6z"/>
					</g>
				</g>
			</g>
			<g id="XMLID_45276_">
				<g id="XMLID_45281_">
					<g id="XMLID_45282_">
						<path id="XMLID_45284_" class="st20" d="M23.3,29.5C23.3,29.5,23.3,29.4,23.3,29.5l-0.5-0.4c-0.1,0-0.2,0-0.2,0L22,29.4
							c0,0,0,0,0,0.1v0.1c0,0,0,0.1,0,0.1l0.5,0.3c0.1,0,0.2,0,0.2,0l0.5-0.3C23.3,29.7,23.3,29.6,23.3,29.5L23.3,29.5z"/>
						<path id="XMLID_45283_" class="st21" d="M22.5,29.1L22,29.4c-0.1,0-0.1,0.1,0,0.2l0.5,0.3c0.1,0,0.2,0,0.2,0l0.5-0.3
							c0.1,0,0.1-0.1,0-0.2l-0.5-0.3C22.7,29.1,22.6,29.1,22.5,29.1z"/>
					</g>
				</g>
				<g id="XMLID_45277_">
					<g id="XMLID_45278_">
						<path id="XMLID_45280_" class="st20" d="M22.4,30C22.4,30,22.4,29.9,22.4,30l-0.5-0.4c-0.1,0-0.2,0-0.2,0l-0.5,0.3
							c0,0,0,0,0,0.1l0,0.1c0,0,0,0.1,0,0.1l0.5,0.3c0.1,0,0.2,0,0.2,0l0.5-0.3C22.4,30.2,22.4,30.1,22.4,30L22.4,30z"/>
						<path id="XMLID_45279_" class="st21" d="M21.7,29.6l-0.5,0.3c-0.1,0-0.1,0.1,0,0.2l0.5,0.3c0.1,0,0.2,0,0.2,0l0.5-0.3
							c0.1,0,0.1-0.1,0-0.2l-0.5-0.3C21.8,29.6,21.7,29.6,21.7,29.6z"/>
					</g>
				</g>
			</g>
			<g id="XMLID_45271_">
				<g id="XMLID_45272_">
					<g id="XMLID_45273_">
						<path id="XMLID_45275_" class="st20" d="M21.6,30.5C21.6,30.5,21.6,30.4,21.6,30.5L21,30.1c-0.1,0-0.2,0-0.2,0l-0.5,0.3
							c0,0,0,0,0,0.1v0.1c0,0,0,0.1,0,0.1l0.5,0.3c0.1,0,0.2,0,0.2,0l0.5-0.3C21.6,30.6,21.6,30.6,21.6,30.5L21.6,30.5z"/>
						<path id="XMLID_45274_" class="st21" d="M20.8,30.1l-0.5,0.3c-0.1,0-0.1,0.1,0,0.2l0.5,0.3c0.1,0,0.2,0,0.2,0l0.5-0.3
							c0.1,0,0.1-0.1,0-0.2L21,30.1C21,30.1,20.9,30.1,20.8,30.1z"/>
					</g>
				</g>
			</g>
		</g>
		<g id="XMLID_45174_">
			<g id="XMLID_45243_">
				<g id="XMLID_45257_">
					<g id="XMLID_45264_">
						<g id="XMLID_45265_">
							<g id="XMLID_45266_">
								<g id="XMLID_45267_">
									<path id="XMLID_45269_" class="st20" d="M20.7,30C20.7,30,20.7,29.9,20.7,30l-0.3-0.2c-0.1,0-0.2,0-0.2,0l-0.5,0.3
										c0,0,0,0,0,0.1l0,0.1c0,0,0,0.1,0,0.1l0.2,0.1c0.1,0,0.2,0,0.2,0l0.5-0.3C20.7,30.2,20.8,30.1,20.7,30L20.7,30z"/>
									<path id="XMLID_45268_" class="st21" d="M20.3,29.8l-0.5,0.3c-0.1,0-0.1,0.1,0,0.2l0.2,0.1c0.1,0,0.2,0,0.2,0l0.5-0.3
										c0.1,0,0.1-0.1,0-0.2l-0.2-0.1C20.4,29.8,20.3,29.8,20.3,29.8z"/>
								</g>
							</g>
						</g>
					</g>
					<g id="XMLID_45258_">
						<g id="XMLID_45259_">
							<g id="XMLID_45260_">
								<g id="XMLID_45261_">
									<path id="XMLID_45263_" class="st20" d="M21.6,29.5C21.6,29.5,21.6,29.4,21.6,29.5l-0.3-0.2c-0.1,0-0.2,0-0.2,0l-0.5,0.3
										c0,0,0,0,0,0.1l0,0.1c0,0,0,0.1,0,0.1l0.2,0.1c0.1,0,0.2,0,0.2,0l0.5-0.3C21.6,29.6,21.6,29.6,21.6,29.5L21.6,29.5z"/>
									<path id="XMLID_45262_" class="st21" d="M21.1,29.3l-0.5,0.3c-0.1,0-0.1,0.1,0,0.2l0.2,0.1c0.1,0,0.2,0,0.2,0l0.5-0.3
										c0.1,0,0.1-0.1,0-0.2l-0.2-0.1C21.3,29.2,21.2,29.2,21.1,29.3z"/>
								</g>
							</g>
						</g>
					</g>
				</g>
				<g id="XMLID_45244_">
					<g id="XMLID_45251_">
						<g id="XMLID_45252_">
							<g id="XMLID_45253_">
								<g id="XMLID_45254_">
									<path id="XMLID_45256_" class="st20" d="M22.5,29C22.5,28.9,22.5,28.9,22.5,29l-0.3-0.2c-0.1,0-0.2,0-0.2,0l-0.5,0.3
										c0,0,0,0,0,0.1v0.1c0,0,0,0.1,0,0.1l0.2,0.1c0.1,0,0.2,0,0.2,0l0.5-0.3C22.5,29.1,22.5,29.1,22.5,29L22.5,29z"/>
									<path id="XMLID_45255_" class="st21" d="M22,28.8l-0.5,0.3c-0.1,0-0.1,0.1,0,0.2l0.2,0.1c0.1,0,0.2,0,0.2,0l0.5-0.3
										c0.1,0,0.1-0.1,0-0.2l-0.2-0.1C22.2,28.7,22.1,28.7,22,28.8z"/>
								</g>
							</g>
						</g>
					</g>
					<g id="XMLID_45245_">
						<g id="XMLID_45246_">
							<g id="XMLID_45247_">
								<g id="XMLID_45248_">
									<path id="XMLID_45250_" class="st20" d="M23.4,28.5C23.4,28.4,23.4,28.4,23.4,28.5l-0.3-0.2c-0.1,0-0.2,0-0.2,0l-0.5,0.3
										c0,0,0,0,0,0.1v0.1c0,0,0,0.1,0,0.1l0.2,0.1c0.1,0,0.2,0,0.2,0l0.5-0.3C23.4,28.6,23.4,28.6,23.4,28.5L23.4,28.5z"/>
									<path id="XMLID_45249_" class="st21" d="M22.9,28.3l-0.5,0.3c-0.1,0-0.1,0.1,0,0.2l0.2,0.1c0.1,0,0.2,0,0.2,0l0.5-0.3
										c0.1,0,0.1-0.1,0-0.2l-0.2-0.1C23,28.2,23,28.2,22.9,28.3z"/>
								</g>
							</g>
						</g>
					</g>
				</g>
			</g>
			<g id="XMLID_45216_">
				<g id="XMLID_45230_">
					<g id="XMLID_45237_">
						<g id="XMLID_45238_">
							<g id="XMLID_45239_">
								<g id="XMLID_45240_">
									<path id="XMLID_45242_" class="st20" d="M24.3,28C24.3,27.9,24.2,27.9,24.3,28L24,27.8c-0.1,0-0.2,0-0.2,0l-0.5,0.3
										c0,0,0,0,0,0.1l0,0.1c0,0,0,0.1,0,0.1l0.2,0.1c0.1,0,0.2,0,0.2,0l0.5-0.3C24.3,28.1,24.3,28.1,24.3,28L24.3,28z"/>
									<path id="XMLID_45241_" class="st21" d="M23.8,27.8l-0.5,0.3c-0.1,0-0.1,0.1,0,0.2l0.2,0.1c0.1,0,0.2,0,0.2,0l0.5-0.3
										c0.1,0,0.1-0.1,0-0.2L24,27.8C23.9,27.7,23.8,27.7,23.8,27.8z"/>
								</g>
							</g>
						</g>
					</g>
					<g id="XMLID_45231_">
						<g id="XMLID_45232_">
							<g id="XMLID_45233_">
								<g id="XMLID_45234_">
									<path id="XMLID_45236_" class="st20" d="M25.1,27.4C25.1,27.4,25.1,27.4,25.1,27.4l-0.3-0.2c-0.1,0-0.2,0-0.2,0l-0.5,0.3
										c0,0,0,0,0,0.1l0,0.1c0,0,0,0.1,0,0.1l0.2,0.1c0.1,0,0.2,0,0.2,0l0.5-0.3C25.1,27.6,25.1,27.6,25.1,27.4L25.1,27.4z"/>
									<path id="XMLID_45235_" class="st21" d="M24.6,27.3l-0.5,0.3c-0.1,0-0.1,0.1,0,0.2l0.2,0.1c0.1,0,0.2,0,0.2,0l0.5-0.3
										c0.1,0,0.1-0.1,0-0.2l-0.2-0.1C24.8,27.2,24.7,27.2,24.6,27.3z"/>
								</g>
							</g>
						</g>
					</g>
				</g>
				<g id="XMLID_45217_">
					<g id="XMLID_45224_">
						<g id="XMLID_45225_">
							<g id="XMLID_45226_">
								<g id="XMLID_45227_">
									<path id="XMLID_45229_" class="st20" d="M26,26.9C26,26.9,26,26.9,26,26.9l-0.3-0.2c-0.1,0-0.2,0-0.2,0L25,27
										c0,0,0,0,0,0.1v0.1c0,0,0,0.1,0,0.1l0.2,0.1c0.1,0,0.2,0,0.2,0l0.5-0.3C26,27.1,26,27.1,26,26.9L26,26.9z"/>
									<path id="XMLID_45228_" class="st21" d="M25.5,26.7L25,27c-0.1,0-0.1,0.1,0,0.2l0.2,0.1c0.1,0,0.2,0,0.2,0L26,27
										c0.1,0,0.1-0.1,0-0.2l-0.2-0.1C25.7,26.7,25.6,26.7,25.5,26.7z"/>
								</g>
							</g>
						</g>
					</g>
					<g id="XMLID_45218_">
						<g id="XMLID_45219_">
							<g id="XMLID_45220_">
								<g id="XMLID_45221_">
									<path id="XMLID_45223_" class="st20" d="M26.9,26.4C26.9,26.4,26.9,26.4,26.9,26.4l-0.3-0.2c-0.1,0-0.2,0-0.2,0l-0.5,0.3
										c0,0,0,0,0,0.1v0.1c0,0,0,0.1,0,0.1l0.2,0.1c0.1,0,0.2,0,0.2,0l0.5-0.3C26.9,26.6,26.9,26.6,26.9,26.4L26.9,26.4z"/>
									<path id="XMLID_45222_" class="st21" d="M26.4,26.2l-0.5,0.3c-0.1,0-0.1,0.1,0,0.2l0.2,0.1c0.1,0,0.2,0,0.2,0l0.5-0.3
										c0.1,0,0.1-0.1,0-0.2l-0.2-0.1C26.6,26.2,26.5,26.2,26.4,26.2z"/>
								</g>
							</g>
						</g>
					</g>
				</g>
			</g>
			<g id="XMLID_45189_">
				<g id="XMLID_45203_">
					<g id="XMLID_45210_">
						<g id="XMLID_45211_">
							<g id="XMLID_45212_">
								<g id="XMLID_45213_">
									<path id="XMLID_45215_" class="st20" d="M27.8,25.9C27.8,25.9,27.8,25.9,27.8,25.9l-0.3-0.2c-0.1,0-0.2,0-0.2,0L26.8,26
										c0,0,0,0,0,0.1l0,0.1c0,0,0,0.1,0,0.1l0.2,0.1c0.1,0,0.2,0,0.2,0l0.5-0.3C27.8,26.1,27.8,26.1,27.8,25.9L27.8,25.9z"/>
									<path id="XMLID_45214_" class="st21" d="M27.3,25.7L26.8,26c-0.1,0-0.1,0.1,0,0.2l0.2,0.1c0.1,0,0.2,0,0.2,0l0.5-0.3
										c0.1,0,0.1-0.1,0-0.2l-0.2-0.1C27.4,25.7,27.4,25.7,27.3,25.7z"/>
								</g>
							</g>
						</g>
					</g>
					<g id="XMLID_45204_">
						<g id="XMLID_45205_">
							<g id="XMLID_45206_">
								<g id="XMLID_45207_">
									<path id="XMLID_45209_" class="st20" d="M28.7,25.4C28.7,25.4,28.6,25.4,28.7,25.4l-0.3-0.2c-0.1,0-0.2,0-0.2,0l-0.5,0.3
										c0,0,0,0,0,0.1l0,0.1c0,0,0,0.1,0,0.1l0.2,0.1c0.1,0,0.2,0,0.2,0l0.5-0.3C28.6,25.6,28.7,25.5,28.7,25.4L28.7,25.4z"/>
									<path id="XMLID_45208_" class="st21" d="M28.2,25.2l-0.5,0.3c-0.1,0-0.1,0.1,0,0.2l0.2,0.1c0.1,0,0.2,0,0.2,0l0.5-0.3
										c0.1,0,0.1-0.1,0-0.2l-0.2-0.1C28.3,25.2,28.2,25.2,28.2,25.2z"/>
								</g>
							</g>
						</g>
					</g>
				</g>
				<g id="XMLID_45190_">
					<g id="XMLID_45197_">
						<g id="XMLID_45198_">
							<g id="XMLID_45199_">
								<g id="XMLID_45200_">
									<path id="XMLID_45202_" class="st20" d="M29.5,24.9C29.5,24.9,29.5,24.9,29.5,24.9l-0.3-0.2c-0.1,0-0.2,0-0.2,0L28.5,25
										c0,0,0,0,0,0.1v0.1c0,0,0,0.1,0,0.1l0.2,0.1c0.1,0,0.2,0,0.2,0l0.5-0.3C29.5,25.1,29.5,25,29.5,24.9L29.5,24.9z"/>
									<path id="XMLID_45201_" class="st21" d="M29,24.7L28.5,25c-0.1,0-0.1,0.1,0,0.2l0.2,0.1c0.1,0,0.2,0,0.2,0l0.5-0.3
										c0.1,0,0.1-0.1,0-0.2l-0.2-0.1C29.2,24.7,29.1,24.7,29,24.7z"/>
								</g>
							</g>
						</g>
					</g>
					<g id="XMLID_45191_">
						<g id="XMLID_45192_">
							<g id="XMLID_45193_">
								<g id="XMLID_45194_">
									<path id="XMLID_45196_" class="st20" d="M30.4,24.4C30.4,24.4,30.4,24.3,30.4,24.4l-0.3-0.2c-0.1,0-0.2,0-0.2,0l-0.5,0.3
										c0,0,0,0,0,0.1v0.1c0,0,0,0.1,0,0.1l0.2,0.1c0.1,0,0.2,0,0.2,0l0.5-0.3C30.4,24.6,30.4,24.5,30.4,24.4L30.4,24.4z"/>
									<path id="XMLID_45195_" class="st21" d="M29.9,24.2l-0.5,0.3c-0.1,0-0.1,0.1,0,0.2l0.2,0.1c0.1,0,0.2,0,0.2,0l0.5-0.3
										c0.1,0,0.1-0.1,0-0.2l-0.2-0.1C30.1,24.2,30,24.2,29.9,24.2z"/>
								</g>
							</g>
						</g>
					</g>
				</g>
			</g>
			<g id="XMLID_45175_">
				<g id="XMLID_45176_">
					<g id="XMLID_45183_">
						<g id="XMLID_45184_">
							<g id="XMLID_45185_">
								<g id="XMLID_45186_">
									<path id="XMLID_45188_" class="st20" d="M31.3,23.9C31.3,23.9,31.3,23.8,31.3,23.9L31,23.7c-0.1,0-0.2,0-0.2,0L30.3,24
										c0,0,0,0,0,0.1l0,0.1c0,0,0,0.1,0,0.1l0.2,0.1c0.1,0,0.2,0,0.2,0l0.5-0.3C31.3,24.1,31.3,24,31.3,23.9L31.3,23.9z"/>
									<path id="XMLID_45187_" class="st21" d="M30.8,23.7L30.3,24c-0.1,0-0.1,0.1,0,0.2l0.2,0.1c0.1,0,0.2,0,0.2,0l0.5-0.3
										c0.1,0,0.1-0.1,0-0.2L31,23.7C31,23.7,30.9,23.7,30.8,23.7z"/>
								</g>
							</g>
						</g>
					</g>
					<g id="XMLID_45177_">
						<g id="XMLID_45178_">
							<g id="XMLID_45179_">
								<g id="XMLID_45180_">
									<path id="XMLID_45182_" class="st20" d="M32.2,23.4C32.2,23.4,32.2,23.3,32.2,23.4l-0.3-0.2c-0.1,0-0.2,0-0.2,0l-0.5,0.3
										c0,0,0,0,0,0.1l0,0.1c0,0,0,0.1,0,0.1l0.2,0.1c0.1,0,0.2,0,0.2,0l0.5-0.3C32.2,23.5,32.2,23.5,32.2,23.4L32.2,23.4z"/>
									<path id="XMLID_45181_" class="st21" d="M31.7,23.2l-0.5,0.3c-0.1,0-0.1,0.1,0,0.2l0.2,0.1c0.1,0,0.2,0,0.2,0l0.5-0.3
										c0.1,0,0.1-0.1,0-0.2l-0.2-0.1C31.8,23.1,31.8,23.1,31.7,23.2z"/>
								</g>
							</g>
						</g>
					</g>
				</g>
			</g>
		</g>
		<g id="XMLID_45113_">
			<g id="XMLID_45168_">
				<g id="XMLID_45169_">
					<g id="XMLID_45170_">
						<g id="XMLID_45171_">
							<path id="XMLID_45173_" class="st20" d="M23.7,31.2C23.7,31.2,23.7,31.2,23.7,31.2l-0.5-0.4c-0.1,0-0.2,0-0.2,0l-1,0.6
								c0,0,0,0,0,0.1v0.1c0,0,0,0.1,0,0.1l0.5,0.3c0.1,0,0.2,0,0.2,0l1-0.6C23.7,31.4,23.7,31.3,23.7,31.2L23.7,31.2z"/>
							<path id="XMLID_45172_" class="st21" d="M23,30.9l-1,0.6c-0.1,0-0.1,0.1,0,0.2l0.5,0.3c0.1,0,0.2,0,0.2,0l1-0.6
								c0.1,0,0.1-0.1,0-0.2l-0.5-0.3C23.1,30.8,23,30.8,23,30.9z"/>
						</g>
					</g>
				</g>
			</g>
			<g id="XMLID_45164_">
				<g id="XMLID_45165_">
					<path id="XMLID_45167_" class="st20" d="M34,25.2C34,25.2,34,25.2,34,25.2l-0.5-0.4c-0.1,0-0.2,0-0.2,0l-0.5,0.3c0,0,0,0,0,0.1
						v0.1c0,0,0,0.1,0,0.1l0.5,0.3c0.1,0,0.2,0,0.2,0l0.5-0.3C34,25.4,34,25.4,34,25.2L34,25.2z"/>
					<path id="XMLID_45166_" class="st21" d="M33.3,24.9l-0.5,0.3c-0.1,0-0.1,0.1,0,0.2l0.5,0.3c0.1,0,0.2,0,0.2,0l0.5-0.3
						c0.1,0,0.1-0.1,0-0.2l-0.5-0.3C33.4,24.9,33.3,24.9,33.3,24.9z"/>
				</g>
			</g>
			<g id="XMLID_45155_">
				<g id="XMLID_45160_">
					<g id="XMLID_45161_">
						<path id="XMLID_45163_" class="st20" d="M33.2,25.7C33.2,25.7,33.2,25.7,33.2,25.7l-0.5-0.4c-0.1,0-0.2,0-0.2,0l-0.5,0.3
							c0,0,0,0,0,0.1l0,0.1c0,0,0,0.1,0,0.1l0.5,0.3c0.1,0,0.2,0,0.2,0l0.5-0.3C33.2,25.9,33.2,25.9,33.2,25.7L33.2,25.7z"/>
						<path id="XMLID_45162_" class="st21" d="M32.4,25.4l-0.5,0.3c-0.1,0-0.1,0.1,0,0.2l0.5,0.3c0.1,0,0.2,0,0.2,0l0.5-0.3
							c0.1,0,0.1-0.1,0-0.2l-0.5-0.3C32.6,25.3,32.5,25.3,32.4,25.4z"/>
					</g>
				</g>
				<g id="XMLID_45156_">
					<g id="XMLID_45157_">
						<path id="XMLID_45159_" class="st20" d="M32.3,26.2C32.3,26.2,32.3,26.2,32.3,26.2l-0.5-0.4c-0.1,0-0.2,0-0.2,0L31,26.2
							c0,0,0,0,0,0.1v0.1c0,0,0,0.1,0,0.1l0.5,0.3c0.1,0,0.2,0,0.2,0l0.5-0.3C32.3,26.4,32.3,26.4,32.3,26.2L32.3,26.2z"/>
						<path id="XMLID_45158_" class="st21" d="M31.5,25.9L31,26.2c-0.1,0-0.1,0.1,0,0.2l0.5,0.3c0.1,0,0.2,0,0.2,0l0.5-0.3
							c0.1,0,0.1-0.1,0-0.2l-0.5-0.3C31.7,25.8,31.6,25.8,31.5,25.9z"/>
					</g>
				</g>
			</g>
			<g id="XMLID_45146_">
				<g id="XMLID_45151_">
					<g id="XMLID_45152_">
						<path id="XMLID_45154_" class="st20" d="M31.5,26.7C31.5,26.7,31.4,26.7,31.5,26.7l-0.5-0.4c-0.1,0-0.2,0-0.2,0l-0.5,0.3
							c0,0,0,0,0,0.1v0.1c0,0,0,0.1,0,0.1l0.5,0.3c0.1,0,0.2,0,0.2,0l0.5-0.3C31.4,26.9,31.5,26.9,31.5,26.7L31.5,26.7z"/>
						<path id="XMLID_45153_" class="st21" d="M30.7,26.4l-0.5,0.3c-0.1,0-0.1,0.1,0,0.2l0.5,0.3c0.1,0,0.2,0,0.2,0l0.5-0.3
							c0.1,0,0.1-0.1,0-0.2l-0.5-0.3C30.8,26.3,30.8,26.3,30.7,26.4z"/>
					</g>
				</g>
				<g id="XMLID_45147_">
					<g id="XMLID_45148_">
						<path id="XMLID_45150_" class="st20" d="M30.6,27.2C30.6,27.2,30.6,27.2,30.6,27.2l-0.5-0.4c-0.1,0-0.2,0-0.2,0l-0.5,0.3
							c0,0,0,0,0,0.1l0,0.1c0,0,0,0.1,0,0.1l0.5,0.3c0.1,0,0.2,0,0.2,0l0.5-0.3C30.6,27.4,30.6,27.4,30.6,27.2L30.6,27.2z"/>
						<path id="XMLID_45149_" class="st21" d="M29.8,26.9l-0.5,0.3c-0.1,0-0.1,0.1,0,0.2l0.5,0.3c0.1,0,0.2,0,0.2,0l0.5-0.3
							c0.1,0,0.1-0.1,0-0.2l-0.5-0.3C30,26.8,29.9,26.8,29.8,26.9z"/>
					</g>
				</g>
			</g>
			<g id="XMLID_45137_">
				<g id="XMLID_45142_">
					<g id="XMLID_45143_">
						<path id="XMLID_45145_" class="st20" d="M29.7,27.7C29.7,27.7,29.7,27.7,29.7,27.7l-0.5-0.4c-0.1,0-0.2,0-0.2,0l-0.5,0.3
							c0,0,0,0,0,0.1l0,0.1c0,0,0,0.1,0,0.1l0.5,0.3c0.1,0,0.2,0,0.2,0l0.5-0.3C29.7,27.9,29.7,27.9,29.7,27.7L29.7,27.7z"/>
						<path id="XMLID_45144_" class="st21" d="M29,27.4l-0.5,0.3c-0.1,0-0.1,0.1,0,0.2l0.5,0.3c0.1,0,0.2,0,0.2,0l0.5-0.3
							c0.1,0,0.1-0.1,0-0.2l-0.5-0.3C29.1,27.3,29,27.3,29,27.4z"/>
					</g>
				</g>
				<g id="XMLID_45138_">
					<g id="XMLID_45139_">
						<path id="XMLID_45141_" class="st20" d="M28.9,28.2C28.9,28.2,28.9,28.2,28.9,28.2l-0.5-0.4c-0.1,0-0.2,0-0.2,0l-0.5,0.3
							c0,0,0,0,0,0.1v0.1c0,0,0,0.1,0,0.1l0.5,0.3c0.1,0,0.2,0,0.2,0l0.5-0.3C28.9,28.4,28.9,28.4,28.9,28.2L28.9,28.2z"/>
						<path id="XMLID_45140_" class="st21" d="M28.1,27.9l-0.5,0.3c-0.1,0-0.1,0.1,0,0.2l0.5,0.3c0.1,0,0.2,0,0.2,0l0.5-0.3
							c0.1,0,0.1-0.1,0-0.2l-0.5-0.3C28.3,27.8,28.2,27.8,28.1,27.9z"/>
					</g>
				</g>
			</g>
			<g id="XMLID_45128_">
				<g id="XMLID_45133_">
					<g id="XMLID_45134_">
						<path id="XMLID_45136_" class="st20" d="M28,28.7C28,28.7,28,28.7,28,28.7l-0.5-0.4c-0.1,0-0.2,0-0.2,0l-0.5,0.3
							c0,0,0,0,0,0.1v0.1c0,0,0,0.1,0,0.1l0.5,0.3c0.1,0,0.2,0,0.2,0l0.5-0.3C28,28.9,28,28.9,28,28.7L28,28.7z"/>
						<path id="XMLID_45135_" class="st21" d="M27.3,28.4l-0.5,0.3c-0.1,0-0.1,0.1,0,0.2l0.5,0.3c0.1,0,0.2,0,0.2,0l0.5-0.3
							c0.1,0,0.1-0.1,0-0.2l-0.5-0.3C27.4,28.3,27.3,28.3,27.3,28.4z"/>
					</g>
				</g>
				<g id="XMLID_45129_">
					<g id="XMLID_45130_">
						<path id="XMLID_45132_" class="st20" d="M27.2,29.2C27.2,29.2,27.1,29.2,27.2,29.2l-0.5-0.4c-0.1,0-0.2,0-0.2,0l-0.5,0.3
							c0,0,0,0,0,0.1l0,0.1c0,0,0,0.1,0,0.1l0.5,0.3c0.1,0,0.2,0,0.2,0l0.5-0.3C27.1,29.4,27.2,29.3,27.2,29.2L27.2,29.2z"/>
						<path id="XMLID_45131_" class="st21" d="M26.4,28.9l-0.5,0.3c-0.1,0-0.1,0.1,0,0.2l0.5,0.3c0.1,0,0.2,0,0.2,0l0.5-0.3
							c0.1,0,0.1-0.1,0-0.2l-0.5-0.3C26.5,28.8,26.5,28.8,26.4,28.9z"/>
					</g>
				</g>
			</g>
			<g id="XMLID_45119_">
				<g id="XMLID_45124_">
					<g id="XMLID_45125_">
						<path id="XMLID_45127_" class="st20" d="M26.3,29.7C26.3,29.7,26.3,29.7,26.3,29.7l-0.5-0.4c-0.1,0-0.2,0-0.2,0L25,29.7
							c0,0,0,0,0,0.1l0,0.1c0,0,0,0.1,0,0.1l0.5,0.3c0.1,0,0.2,0,0.2,0l0.5-0.3C26.3,29.9,26.3,29.8,26.3,29.7L26.3,29.7z"/>
						<path id="XMLID_45126_" class="st21" d="M25.5,29.4L25,29.7c-0.1,0-0.1,0.1,0,0.2l0.5,0.3c0.1,0,0.2,0,0.2,0l0.5-0.3
							c0.1,0,0.1-0.1,0-0.2l-0.5-0.3C25.7,29.3,25.6,29.3,25.5,29.4z"/>
					</g>
				</g>
				<g id="XMLID_45120_">
					<g id="XMLID_45121_">
						<path id="XMLID_45123_" class="st20" d="M25.4,30.2C25.4,30.2,25.4,30.2,25.4,30.2l-0.5-0.4c-0.1,0-0.2,0-0.2,0l-0.5,0.3
							c0,0,0,0,0,0.1v0.1c0,0,0,0.1,0,0.1l0.5,0.3c0.1,0,0.2,0,0.2,0l0.5-0.3C25.4,30.4,25.4,30.3,25.4,30.2L25.4,30.2z"/>
						<path id="XMLID_45122_" class="st21" d="M24.7,29.9l-0.5,0.3c-0.1,0-0.1,0.1,0,0.2l0.5,0.3c0.1,0,0.2,0,0.2,0l0.5-0.3
							c0.1,0,0.1-0.1,0-0.2l-0.5-0.3C24.8,29.8,24.7,29.8,24.7,29.9z"/>
					</g>
				</g>
			</g>
			<g id="XMLID_45114_">
				<g id="XMLID_45115_">
					<g id="XMLID_45116_">
						<path id="XMLID_45118_" class="st20" d="M24.6,30.7C24.6,30.7,24.6,30.7,24.6,30.7L24,30.4c-0.1,0-0.2,0-0.2,0l-0.5,0.3
							c0,0,0,0,0,0.1l0,0.1c0,0,0,0.1,0,0.1l0.5,0.3c0.1,0,0.2,0,0.2,0l0.5-0.3C24.6,30.9,24.6,30.8,24.6,30.7L24.6,30.7z"/>
						<path id="XMLID_45117_" class="st21" d="M23.8,30.4l-0.5,0.3c-0.1,0-0.1,0.1,0,0.2l0.5,0.3c0.1,0,0.2,0,0.2,0l0.5-0.3
							c0.1,0,0.1-0.1,0-0.2L24,30.4C24,30.3,23.9,30.3,23.8,30.4z"/>
					</g>
				</g>
			</g>
		</g>
		<g id="XMLID_45049_">
			<g id="XMLID_45108_">
				<g id="XMLID_45109_">
					<g id="XMLID_45110_">
						<path id="XMLID_45112_" class="st20" d="M22.7,30.8C22.7,30.8,22.7,30.8,22.7,30.8l-0.5-0.4c-0.1,0-0.2,0-0.2,0l-0.8,0.5
							c0,0,0,0,0,0.1l0,0.1c0,0,0,0.1,0,0.1l0.5,0.3c0.1,0,0.2,0,0.2,0l0.8-0.5C22.7,31,22.7,30.9,22.7,30.8L22.7,30.8z"/>
						<path id="XMLID_45111_" class="st21" d="M21.9,30.5l-0.8,0.5c-0.1,0-0.1,0.1,0,0.2l0.5,0.3c0.1,0,0.2,0,0.2,0l0.8-0.5
							c0.1,0,0.1-0.1,0-0.2l-0.5-0.3C22.1,30.4,22,30.4,21.9,30.5z"/>
					</g>
				</g>
			</g>
			<g id="XMLID_45053_">
				<g id="XMLID_45104_">
					<g id="XMLID_45105_">
						<path id="XMLID_45107_" class="st20" d="M33,24.8C33,24.8,33,24.8,33,24.8l-0.5-0.4c-0.1,0-0.2,0-0.2,0l-0.5,0.3
							c0,0,0,0,0,0.1v0.1c0,0,0,0.1,0,0.1l0.5,0.3c0.1,0,0.2,0,0.2,0L33,25C33,25,33,25,33,24.8L33,24.8z"/>
						<path id="XMLID_45106_" class="st21" d="M32.3,24.5l-0.5,0.3c-0.1,0-0.1,0.1,0,0.2l0.5,0.3c0.1,0,0.2,0,0.2,0l0.5-0.3
							c0.1,0,0.1-0.1,0-0.2l-0.5-0.3C32.4,24.4,32.3,24.4,32.3,24.5z"/>
					</g>
				</g>
				<g id="XMLID_45095_">
					<g id="XMLID_45100_">
						<g id="XMLID_45101_">
							<path id="XMLID_45103_" class="st20" d="M32.2,25.3C32.2,25.3,32.2,25.3,32.2,25.3L31.6,25c-0.1,0-0.2,0-0.2,0l-0.5,0.3
								c0,0,0,0,0,0.1v0.1c0,0,0,0.1,0,0.1l0.5,0.3c0.1,0,0.2,0,0.2,0l0.5-0.3C32.2,25.5,32.2,25.5,32.2,25.3L32.2,25.3z"/>
							<path id="XMLID_45102_" class="st21" d="M31.4,25l-0.5,0.3c-0.1,0-0.1,0.1,0,0.2l0.5,0.3c0.1,0,0.2,0,0.2,0l0.5-0.3
								c0.1,0,0.1-0.1,0-0.2L31.6,25C31.6,24.9,31.5,24.9,31.4,25z"/>
						</g>
					</g>
					<g id="XMLID_45096_">
						<g id="XMLID_45097_">
							<path id="XMLID_45099_" class="st20" d="M31.3,25.8C31.3,25.8,31.3,25.8,31.3,25.8l-0.5-0.4c-0.1,0-0.2,0-0.2,0L30,25.8
								c0,0,0,0,0,0.1l0,0.1c0,0,0,0.1,0,0.1l0.5,0.3c0.1,0,0.2,0,0.2,0l0.5-0.3C31.3,26,31.3,26,31.3,25.8L31.3,25.8z"/>
							<path id="XMLID_45098_" class="st21" d="M30.5,25.5L30,25.8c-0.1,0-0.1,0.1,0,0.2l0.5,0.3c0.1,0,0.2,0,0.2,0l0.5-0.3
								c0.1,0,0.1-0.1,0-0.2l-0.5-0.3C30.7,25.4,30.6,25.4,30.5,25.5z"/>
						</g>
					</g>
				</g>
				<g id="XMLID_45086_">
					<g id="XMLID_45091_">
						<g id="XMLID_45092_">
							<path id="XMLID_45094_" class="st20" d="M30.5,26.3C30.5,26.3,30.4,26.3,30.5,26.3L29.9,26c-0.1,0-0.2,0-0.2,0l-0.5,0.3
								c0,0,0,0,0,0.1l0,0.1c0,0,0,0.1,0,0.1l0.5,0.3c0.1,0,0.2,0,0.2,0l0.5-0.3C30.4,26.5,30.5,26.5,30.5,26.3L30.5,26.3z"/>
							<path id="XMLID_45093_" class="st21" d="M29.7,26l-0.5,0.3c-0.1,0-0.1,0.1,0,0.2l0.5,0.3c0.1,0,0.2,0,0.2,0l0.5-0.3
								c0.1,0,0.1-0.1,0-0.2L29.9,26C29.8,25.9,29.8,25.9,29.7,26z"/>
						</g>
					</g>
					<g id="XMLID_45087_">
						<g id="XMLID_45088_">
							<path id="XMLID_45090_" class="st20" d="M29.6,26.8C29.6,26.8,29.6,26.8,29.6,26.8l-0.5-0.4c-0.1,0-0.2,0-0.2,0l-0.5,0.3
								c0,0,0,0,0,0.1v0.1c0,0,0,0.1,0,0.1l0.5,0.3c0.1,0,0.2,0,0.2,0l0.5-0.3C29.6,27,29.6,27,29.6,26.8L29.6,26.8z"/>
							<path id="XMLID_45089_" class="st21" d="M28.8,26.5l-0.5,0.3c-0.1,0-0.1,0.1,0,0.2l0.5,0.3c0.1,0,0.2,0,0.2,0l0.5-0.3
								c0.1,0,0.1-0.1,0-0.2l-0.5-0.3C29,26.4,28.9,26.4,28.8,26.5z"/>
						</g>
					</g>
				</g>
				<g id="XMLID_45077_">
					<g id="XMLID_45082_">
						<g id="XMLID_45083_">
							<path id="XMLID_45085_" class="st20" d="M28.7,27.3C28.7,27.3,28.7,27.3,28.7,27.3L28.2,27c-0.1,0-0.2,0-0.2,0l-0.5,0.3
								c0,0,0,0,0,0.1v0.1c0,0,0,0.1,0,0.1l0.5,0.3c0.1,0,0.2,0,0.2,0l0.5-0.3C28.7,27.5,28.7,27.5,28.7,27.3L28.7,27.3z"/>
							<path id="XMLID_45084_" class="st21" d="M28,27l-0.5,0.3c-0.1,0-0.1,0.1,0,0.2l0.5,0.3c0.1,0,0.2,0,0.2,0l0.5-0.3
								c0.1,0,0.1-0.1,0-0.2L28.2,27C28.1,26.9,28,26.9,28,27z"/>
						</g>
					</g>
					<g id="XMLID_45078_">
						<g id="XMLID_45079_">
							<path id="XMLID_45081_" class="st20" d="M27.9,27.8C27.9,27.8,27.9,27.8,27.9,27.8l-0.5-0.4c-0.1,0-0.2,0-0.2,0l-0.5,0.3
								c0,0,0,0,0,0.1l0,0.1c0,0,0,0.1,0,0.1l0.5,0.3c0.1,0,0.2,0,0.2,0l0.5-0.3C27.9,28,27.9,28,27.9,27.8L27.9,27.8z"/>
							<path id="XMLID_45080_" class="st21" d="M27.1,27.5l-0.5,0.3c-0.1,0-0.1,0.1,0,0.2l0.5,0.3c0.1,0,0.2,0,0.2,0l0.5-0.3
								c0.1,0,0.1-0.1,0-0.2l-0.5-0.3C27.3,27.4,27.2,27.4,27.1,27.5z"/>
						</g>
					</g>
				</g>
				<g id="XMLID_45068_">
					<g id="XMLID_45073_">
						<g id="XMLID_45074_">
							<path id="XMLID_45076_" class="st20" d="M27,28.3C27,28.3,27,28.3,27,28.3L26.5,28c-0.1,0-0.2,0-0.2,0l-0.5,0.3
								c0,0,0,0,0,0.1l0,0.1c0,0,0,0.1,0,0.1l0.5,0.3c0.1,0,0.2,0,0.2,0l0.5-0.3C27,28.5,27,28.4,27,28.3L27,28.3z"/>
							<path id="XMLID_45075_" class="st21" d="M26.2,28l-0.5,0.3c-0.1,0-0.1,0.1,0,0.2l0.5,0.3c0.1,0,0.2,0,0.2,0l0.5-0.3
								c0.1,0,0.1-0.1,0-0.2L26.5,28C26.4,27.9,26.3,27.9,26.2,28z"/>
						</g>
					</g>
					<g id="XMLID_45069_">
						<g id="XMLID_45070_">
							<path id="XMLID_45072_" class="st20" d="M26.2,28.8C26.2,28.8,26.1,28.8,26.2,28.8l-0.5-0.4c-0.1,0-0.2,0-0.2,0l-0.5,0.3
								c0,0,0,0,0,0.1v0.1c0,0,0,0.1,0,0.1l0.5,0.3c0.1,0,0.2,0,0.2,0l0.5-0.3C26.1,29,26.2,28.9,26.2,28.8L26.2,28.8z"/>
							<path id="XMLID_45071_" class="st21" d="M25.4,28.5l-0.5,0.3c-0.1,0-0.1,0.1,0,0.2l0.5,0.3c0.1,0,0.2,0,0.2,0l0.5-0.3
								c0.1,0,0.1-0.1,0-0.2l-0.5-0.3C25.5,28.4,25.5,28.4,25.4,28.5z"/>
						</g>
					</g>
				</g>
				<g id="XMLID_45059_">
					<g id="XMLID_45064_">
						<g id="XMLID_45065_">
							<path id="XMLID_45067_" class="st20" d="M25.3,29.3C25.3,29.3,25.3,29.3,25.3,29.3L24.8,29c-0.1,0-0.2,0-0.2,0L24,29.2
								c0,0,0,0,0,0.1l0,0.1c0,0,0,0.1,0,0.1l0.5,0.3c0.1,0,0.2,0,0.2,0l0.5-0.3C25.3,29.5,25.3,29.4,25.3,29.3L25.3,29.3z"/>
							<path id="XMLID_45066_" class="st21" d="M24.5,29L24,29.2c-0.1,0-0.1,0.1,0,0.2l0.5,0.3c0.1,0,0.2,0,0.2,0l0.5-0.3
								c0.1,0,0.1-0.1,0-0.2L24.8,29C24.7,28.9,24.6,28.9,24.5,29z"/>
						</g>
					</g>
					<g id="XMLID_45060_">
						<g id="XMLID_45061_">
							<path id="XMLID_45063_" class="st20" d="M24.4,29.8C24.4,29.8,24.4,29.8,24.4,29.8l-0.5-0.4c-0.1,0-0.2,0-0.2,0l-0.5,0.3
								c0,0,0,0,0,0.1l0,0.1c0,0,0,0.1,0,0.1l0.5,0.3c0.1,0,0.2,0,0.2,0l0.5-0.3C24.4,30,24.4,29.9,24.4,29.8L24.4,29.8z"/>
							<path id="XMLID_45062_" class="st21" d="M23.7,29.5l-0.5,0.3c-0.1,0-0.1,0.1,0,0.2l0.5,0.3c0.1,0,0.2,0,0.2,0l0.5-0.3
								c0.1,0,0.1-0.1,0-0.2l-0.5-0.3C23.8,29.4,23.7,29.4,23.7,29.5z"/>
						</g>
					</g>
				</g>
				<g id="XMLID_45054_">
					<g id="XMLID_45055_">
						<g id="XMLID_45056_">
							<path id="XMLID_45058_" class="st20" d="M23.6,30.3C23.6,30.3,23.6,30.3,23.6,30.3L23,29.9c-0.1,0-0.2,0-0.2,0l-0.5,0.3
								c0,0,0,0,0,0.1l0,0.1c0,0,0,0.1,0,0.1l0.5,0.3c0.1,0,0.2,0,0.2,0l0.5-0.3C23.6,30.5,23.6,30.4,23.6,30.3L23.6,30.3z"/>
							<path id="XMLID_45057_" class="st21" d="M22.8,29.9l-0.5,0.3c-0.1,0-0.1,0.1,0,0.2l0.5,0.3c0.1,0,0.2,0,0.2,0l0.5-0.3
								c0.1,0,0.1-0.1,0-0.2L23,29.9C23,29.9,22.9,29.9,22.8,29.9z"/>
						</g>
					</g>
				</g>
			</g>
			<g id="XMLID_45050_">
				<path id="XMLID_45052_" class="st20" d="M34.7,24.8C34.7,24.8,34.7,24.8,34.7,24.8L33.4,24c-0.1,0-0.2,0-0.2,0l-0.5,0.3
					c0,0,0,0,0,0.1l0,0.1c0,0,0,0.1,0,0.1l0.5,0.3c0.1,0,0.1,0,0.2,0l0.1,0l0.7,0.4c0.1,0,0.2,0,0.2,0l0.3-0.2
					C34.7,25,34.7,25,34.7,24.8L34.7,24.8z"/>
				<path id="XMLID_45051_" class="st21" d="M34.7,24.8l-1-0.5c0,0,0,0,0,0L33.4,24c-0.1,0-0.2,0-0.2,0l-0.5,0.3
					c-0.1,0-0.1,0.1,0,0.2l0.5,0.3c0.1,0,0.1,0,0.2,0l0.1,0l0.7,0.4c0.1,0,0.2,0,0.2,0l0.3-0.2C34.8,24.9,34.8,24.8,34.7,24.8z"/>
			</g>
		</g>
		<g id="XMLID_44988_">
			<g id="XMLID_45044_">
				<g id="XMLID_45045_">
					<g id="XMLID_45046_">
						<path id="XMLID_45048_" class="st20" d="M24.3,31.9C24.3,31.8,24.3,31.8,24.3,31.9l-0.5-0.4c-0.1,0-0.2,0-0.2,0l-0.7,0.4
							c0,0,0,0,0,0.1l0,0.1c0,0,0,0.1,0,0.1l0.5,0.3c0.1,0,0.2,0,0.2,0l0.7-0.4C24.3,32,24.3,32,24.3,31.9L24.3,31.9z"/>
						<path id="XMLID_45047_" class="st21" d="M23.5,31.5l-0.7,0.4c-0.1,0-0.1,0.1,0,0.2l0.5,0.3c0.1,0,0.2,0,0.2,0l0.7-0.4
							c0.1,0,0.1-0.1,0-0.2l-0.5-0.3C23.7,31.5,23.6,31.5,23.5,31.5z"/>
					</g>
				</g>
			</g>
			<g id="XMLID_44989_">
				<g id="XMLID_45040_">
					<g id="XMLID_45041_">
						<path id="XMLID_45043_" class="st20" d="M35.6,25.3C35.6,25.3,35.6,25.3,35.6,25.3L35.1,25c-0.1,0-0.2,0-0.2,0l-1.5,0.9
							c0,0,0,0,0,0.1l0,0.1c0,0,0,0.1,0,0.1l0.5,0.3c0.1,0,0.2,0,0.2,0l1.5-0.9C35.6,25.5,35.6,25.5,35.6,25.3L35.6,25.3z"/>
						<path id="XMLID_45042_" class="st21" d="M34.8,25l-1.5,0.9c-0.1,0-0.1,0.1,0,0.2l0.5,0.3c0.1,0,0.2,0,0.2,0l1.5-0.9
							c0.1,0,0.1-0.1,0-0.2L35.1,25C35,24.9,34.9,24.9,34.8,25z"/>
					</g>
				</g>
				<g id="XMLID_45031_">
					<g id="XMLID_45036_">
						<g id="XMLID_45037_">
							<path id="XMLID_45039_" class="st20" d="M33.7,26.4C33.7,26.4,33.7,26.4,33.7,26.4l-0.5-0.4c-0.1,0-0.2,0-0.2,0l-0.5,0.3
								c0,0,0,0,0,0.1v0.1c0,0,0,0.1,0,0.1l0.5,0.3c0.1,0,0.2,0,0.2,0l0.5-0.3C33.7,26.6,33.7,26.5,33.7,26.4L33.7,26.4z"/>
							<path id="XMLID_45038_" class="st21" d="M33,26.1l-0.5,0.3c-0.1,0-0.1,0.1,0,0.2l0.5,0.3c0.1,0,0.2,0,0.2,0l0.5-0.3
								c0.1,0,0.1-0.1,0-0.2l-0.5-0.3C33.1,26,33,26,33,26.1z"/>
						</g>
					</g>
					<g id="XMLID_45032_">
						<g id="XMLID_45033_">
							<path id="XMLID_45035_" class="st20" d="M32.9,26.9C32.9,26.9,32.9,26.9,32.9,26.9l-0.5-0.4c-0.1,0-0.2,0-0.2,0l-0.5,0.3
								c0,0,0,0,0,0.1V27c0,0,0,0.1,0,0.1l0.5,0.3c0.1,0,0.2,0,0.2,0l0.5-0.3C32.9,27.1,32.9,27,32.9,26.9L32.9,26.9z"/>
							<path id="XMLID_45034_" class="st21" d="M32.1,26.6l-0.5,0.3c-0.1,0-0.1,0.1,0,0.2l0.5,0.3c0.1,0,0.2,0,0.2,0l0.5-0.3
								c0.1,0,0.1-0.1,0-0.2l-0.5-0.3C32.3,26.5,32.2,26.5,32.1,26.6z"/>
						</g>
					</g>
				</g>
				<g id="XMLID_45022_">
					<g id="XMLID_45027_">
						<g id="XMLID_45028_">
							<path id="XMLID_45030_" class="st20" d="M32,27.4C32,27.4,32,27.4,32,27.4l-0.5-0.4c-0.1,0-0.2,0-0.2,0l-0.5,0.3
								c0,0,0,0,0,0.1l0,0.1c0,0,0,0.1,0,0.1l0.5,0.3c0.1,0,0.2,0,0.2,0l0.5-0.3C32,27.6,32,27.5,32,27.4L32,27.4z"/>
							<path id="XMLID_45029_" class="st21" d="M31.2,27.1l-0.5,0.3c-0.1,0-0.1,0.1,0,0.2l0.5,0.3c0.1,0,0.2,0,0.2,0l0.5-0.3
								c0.1,0,0.1-0.1,0-0.2l-0.5-0.3C31.4,27,31.3,27,31.2,27.1z"/>
						</g>
					</g>
					<g id="XMLID_45023_">
						<g id="XMLID_45024_">
							<path id="XMLID_45026_" class="st20" d="M31.1,27.9C31.1,27.9,31.1,27.9,31.1,27.9l-0.5-0.4c-0.1,0-0.2,0-0.2,0l-0.5,0.3
								c0,0,0,0,0,0.1l0,0.1c0,0,0,0.1,0,0.1l0.5,0.3c0.1,0,0.2,0,0.2,0l0.5-0.3C31.1,28.1,31.1,28,31.1,27.9L31.1,27.9z"/>
							<path id="XMLID_45025_" class="st21" d="M30.4,27.5l-0.5,0.3c-0.1,0-0.1,0.1,0,0.2l0.5,0.3c0.1,0,0.2,0,0.2,0l0.5-0.3
								c0.1,0,0.1-0.1,0-0.2l-0.5-0.3C30.5,27.5,30.5,27.5,30.4,27.5z"/>
						</g>
					</g>
				</g>
				<g id="XMLID_45013_">
					<g id="XMLID_45018_">
						<g id="XMLID_45019_">
							<path id="XMLID_45021_" class="st20" d="M30.3,28.4C30.3,28.4,30.3,28.3,30.3,28.4L29.8,28c-0.1,0-0.2,0-0.2,0L29,28.3
								c0,0,0,0,0,0.1v0.1c0,0,0,0.1,0,0.1l0.5,0.3c0.1,0,0.2,0,0.2,0l0.5-0.3C30.3,28.6,30.3,28.5,30.3,28.4L30.3,28.4z"/>
							<path id="XMLID_45020_" class="st21" d="M29.5,28L29,28.3c-0.1,0-0.1,0.1,0,0.2l0.5,0.3c0.1,0,0.2,0,0.2,0l0.5-0.3
								c0.1,0,0.1-0.1,0-0.2L29.8,28C29.7,28,29.6,28,29.5,28z"/>
						</g>
					</g>
					<g id="XMLID_45014_">
						<g id="XMLID_45015_">
							<path id="XMLID_45017_" class="st20" d="M29.4,28.9C29.4,28.9,29.4,28.8,29.4,28.9l-0.5-0.4c-0.1,0-0.2,0-0.2,0l-0.5,0.3
								c0,0,0,0,0,0.1V29c0,0,0,0.1,0,0.1l0.5,0.3c0.1,0,0.2,0,0.2,0l0.5-0.3C29.4,29.1,29.4,29,29.4,28.9L29.4,28.9z"/>
							<path id="XMLID_45016_" class="st21" d="M28.7,28.5l-0.5,0.3c-0.1,0-0.1,0.1,0,0.2l0.5,0.3c0.1,0,0.2,0,0.2,0l0.5-0.3
								c0.1,0,0.1-0.1,0-0.2l-0.5-0.3C28.8,28.5,28.7,28.5,28.7,28.5z"/>
						</g>
					</g>
				</g>
				<g id="XMLID_45004_">
					<g id="XMLID_45009_">
						<g id="XMLID_45010_">
							<path id="XMLID_45012_" class="st20" d="M28.6,29.4C28.6,29.4,28.6,29.3,28.6,29.4L28,29c-0.1,0-0.2,0-0.2,0l-0.5,0.3
								c0,0,0,0,0,0.1l0,0.1c0,0,0,0.1,0,0.1l0.5,0.3c0.1,0,0.2,0,0.2,0l0.5-0.3C28.6,29.6,28.6,29.5,28.6,29.4L28.6,29.4z"/>
							<path id="XMLID_45011_" class="st21" d="M27.8,29l-0.5,0.3c-0.1,0-0.1,0.1,0,0.2l0.5,0.3c0.1,0,0.2,0,0.2,0l0.5-0.3
								c0.1,0,0.1-0.1,0-0.2L28,29C28,29,27.9,29,27.8,29z"/>
						</g>
					</g>
					<g id="XMLID_45005_">
						<g id="XMLID_45006_">
							<path id="XMLID_45008_" class="st20" d="M27.7,29.9C27.7,29.9,27.7,29.8,27.7,29.9l-0.5-0.4c-0.1,0-0.2,0-0.2,0l-0.5,0.3
								c0,0,0,0,0,0.1l0,0.1c0,0,0,0.1,0,0.1l0.5,0.3c0.1,0,0.2,0,0.2,0l0.5-0.3C27.7,30,27.7,30,27.7,29.9L27.7,29.9z"/>
							<path id="XMLID_45007_" class="st21" d="M26.9,29.5l-0.5,0.3c-0.1,0-0.1,0.1,0,0.2l0.5,0.3c0.1,0,0.2,0,0.2,0l0.5-0.3
								c0.1,0,0.1-0.1,0-0.2l-0.5-0.3C27.1,29.5,27,29.5,26.9,29.5z"/>
						</g>
					</g>
				</g>
				<g id="XMLID_44995_">
					<g id="XMLID_45000_">
						<g id="XMLID_45001_">
							<path id="XMLID_45003_" class="st20" d="M26.9,30.4C26.9,30.4,26.8,30.3,26.9,30.4L26.3,30c-0.1,0-0.2,0-0.2,0l-0.5,0.3
								c0,0,0,0,0,0.1v0.1c0,0,0,0.1,0,0.1l0.5,0.3c0.1,0,0.2,0,0.2,0l0.5-0.3C26.8,30.5,26.9,30.5,26.9,30.4L26.9,30.4z"/>
							<path id="XMLID_45002_" class="st21" d="M26.1,30l-0.5,0.3c-0.1,0-0.1,0.1,0,0.2l0.5,0.3c0.1,0,0.2,0,0.2,0l0.5-0.3
								c0.1,0,0.1-0.1,0-0.2L26.3,30C26.2,30,26.2,30,26.1,30z"/>
						</g>
					</g>
					<g id="XMLID_44996_">
						<g id="XMLID_44997_">
							<path id="XMLID_44999_" class="st20" d="M26,30.9C26,30.9,26,30.8,26,30.9l-0.5-0.4c-0.1,0-0.2,0-0.2,0l-0.5,0.3
								c0,0,0,0,0,0.1V31c0,0,0,0.1,0,0.1l0.5,0.3c0.1,0,0.2,0,0.2,0l0.5-0.3C26,31,26,31,26,30.9L26,30.9z"/>
							<path id="XMLID_44998_" class="st21" d="M25.2,30.5l-0.5,0.3c-0.1,0-0.1,0.1,0,0.2l0.5,0.3c0.1,0,0.2,0,0.2,0l0.5-0.3
								c0.1,0,0.1-0.1,0-0.2l-0.5-0.3C25.4,30.5,25.3,30.5,25.2,30.5z"/>
						</g>
					</g>
				</g>
				<g id="XMLID_44990_">
					<g id="XMLID_44991_">
						<g id="XMLID_44992_">
							<path id="XMLID_44994_" class="st20" d="M25.1,31.4C25.1,31.4,25.1,31.3,25.1,31.4L24.6,31c-0.1,0-0.2,0-0.2,0l-0.5,0.3
								c0,0,0,0,0,0.1l0,0.1c0,0,0,0.1,0,0.1l0.5,0.3c0.1,0,0.2,0,0.2,0l0.5-0.3C25.1,31.5,25.1,31.5,25.1,31.4L25.1,31.4z"/>
							<path id="XMLID_44993_" class="st21" d="M24.4,31l-0.5,0.3c-0.1,0-0.1,0.1,0,0.2l0.5,0.3c0.1,0,0.2,0,0.2,0l0.5-0.3
								c0.1,0,0.1-0.1,0-0.2L24.6,31C24.5,31,24.4,31,24.4,31z"/>
						</g>
					</g>
				</g>
			</g>
		</g>
		<g id="XMLID_44931_">
			<g id="XMLID_44947_">
				<g id="XMLID_44983_">
					<g id="XMLID_44984_">
						<g id="XMLID_44985_">
							<path id="XMLID_44987_" class="st20" d="M32.2,28.3C32.2,28.2,32.2,28.2,32.2,28.3l-0.5-0.4c-0.1,0-0.2,0-0.2,0l-4.3,2.5
								c0,0,0,0,0,0.1l0,0.1c0,0,0,0.1,0,0.1l0.5,0.3c0.1,0,0.2,0,0.2,0l4.3-2.5C32.2,28.4,32.2,28.4,32.2,28.3L32.2,28.3z"/>
							<path id="XMLID_44986_" class="st21" d="M31.5,27.9l-4.3,2.5c-0.1,0-0.1,0.1,0,0.2l0.5,0.3c0.1,0,0.2,0,0.2,0l4.3-2.5
								c0.1,0,0.1-0.1,0-0.2l-0.5-0.3C31.6,27.9,31.5,27.9,31.5,27.9z"/>
						</g>
					</g>
				</g>
				<g id="XMLID_44978_">
					<g id="XMLID_44979_">
						<g id="XMLID_44980_">
							<path id="XMLID_44982_" class="st20" d="M24.9,32.5C24.9,32.5,24.9,32.5,24.9,32.5l-0.5-0.4c-0.1,0-0.2,0-0.2,0l-0.4,0.2
								c0,0,0,0,0,0.1l0,0.1c0,0,0,0.1,0,0.1l0.5,0.3c0.1,0,0.2,0,0.2,0l0.4-0.2C24.9,32.7,24.9,32.6,24.9,32.5L24.9,32.5z"/>
							<path id="XMLID_44981_" class="st21" d="M24.1,32.2l-0.4,0.2c-0.1,0-0.1,0.1,0,0.2l0.5,0.3c0.1,0,0.2,0,0.2,0l0.4-0.2
								c0.1,0,0.1-0.1,0-0.2l-0.5-0.3C24.3,32.1,24.2,32.1,24.1,32.2z"/>
						</g>
					</g>
				</g>
				<g id="XMLID_44973_">
					<g id="XMLID_44974_">
						<g id="XMLID_44975_">
							<path id="XMLID_44977_" class="st20" d="M25.7,32.1C25.7,32,25.7,32,25.7,32.1l-0.5-0.4c-0.1,0-0.2,0-0.2,0l-0.4,0.2
								c0,0,0,0,0,0.1v0.1c0,0,0,0.1,0,0.1l0.5,0.3c0.1,0,0.2,0,0.2,0l0.4-0.2C25.7,32.2,25.7,32.2,25.7,32.1L25.7,32.1z"/>
							<path id="XMLID_44976_" class="st21" d="M24.9,31.7l-0.4,0.2c-0.1,0-0.1,0.1,0,0.2l0.5,0.3c0.1,0,0.2,0,0.2,0l0.4-0.2
								c0.1,0,0.1-0.1,0-0.2l-0.5-0.3C25.1,31.7,25,31.7,24.9,31.7z"/>
						</g>
					</g>
				</g>
				<g id="XMLID_44968_">
					<g id="XMLID_44969_">
						<g id="XMLID_44970_">
							<path id="XMLID_44972_" class="st20" d="M26.5,31.6C26.5,31.6,26.4,31.5,26.5,31.6l-0.5-0.4c-0.1,0-0.2,0-0.2,0l-0.4,0.2
								c0,0,0,0,0,0.1l0,0.1c0,0,0,0.1,0,0.1l0.5,0.3c0.1,0,0.2,0,0.2,0l0.4-0.2C26.4,31.8,26.5,31.7,26.5,31.6L26.5,31.6z"/>
							<path id="XMLID_44971_" class="st21" d="M25.7,31.2l-0.4,0.2c-0.1,0-0.1,0.1,0,0.2l0.5,0.3c0.1,0,0.2,0,0.2,0l0.4-0.2
								c0.1,0,0.1-0.1,0-0.2l-0.5-0.3C25.8,31.2,25.8,31.2,25.7,31.2z"/>
						</g>
					</g>
				</g>
				<g id="XMLID_44963_">
					<g id="XMLID_44964_">
						<g id="XMLID_44965_">
							<path id="XMLID_44967_" class="st20" d="M27.5,31C27.5,30.9,27.5,30.9,27.5,31L27,30.6c-0.1,0-0.2,0-0.2,0L26,31
								c0,0,0,0,0,0.1v0.1c0,0,0,0.1,0,0.1l0.5,0.3c0.1,0,0.2,0,0.2,0l0.7-0.4C27.5,31.1,27.5,31.1,27.5,31L27.5,31z"/>
							<path id="XMLID_44966_" class="st21" d="M26.8,30.6L26,31c-0.1,0-0.1,0.1,0,0.2l0.5,0.3c0.1,0,0.2,0,0.2,0l0.7-0.4
								c0.1,0,0.1-0.1,0-0.2L27,30.6C26.9,30.6,26.8,30.6,26.8,30.6z"/>
						</g>
					</g>
				</g>
				<g id="XMLID_44958_">
					<g id="XMLID_44959_">
						<g id="XMLID_44960_">
							<path id="XMLID_44962_" class="st20" d="M33.3,27.6C33.3,27.6,33.3,27.6,33.3,27.6l-0.5-0.4c-0.1,0-0.2,0-0.2,0l-0.7,0.4
								c0,0,0,0,0,0.1l0,0.1c0,0,0,0.1,0,0.1l0.5,0.3c0.1,0,0.2,0,0.2,0l0.7-0.4C33.3,27.8,33.3,27.8,33.3,27.6L33.3,27.6z"/>
							<path id="XMLID_44961_" class="st21" d="M32.6,27.3l-0.7,0.4c-0.1,0-0.1,0.1,0,0.2l0.5,0.3c0.1,0,0.2,0,0.2,0l0.7-0.4
								c0.1,0,0.1-0.1,0-0.2l-0.5-0.3C32.7,27.2,32.6,27.2,32.6,27.3z"/>
						</g>
					</g>
				</g>
				<g id="XMLID_44953_">
					<g id="XMLID_44954_">
						<g id="XMLID_44955_">
							<path id="XMLID_44957_" class="st20" d="M34.1,27.2C34.1,27.2,34.1,27.1,34.1,27.2l-0.5-0.4c-0.1,0-0.2,0-0.2,0l-0.4,0.2
								c0,0,0,0,0,0.1v0.1c0,0,0,0.1,0,0.1l0.5,0.3c0.1,0,0.2,0,0.2,0l0.4-0.2C34.1,27.3,34.1,27.3,34.1,27.2L34.1,27.2z"/>
							<path id="XMLID_44956_" class="st21" d="M33.3,26.8l-0.4,0.2c-0.1,0-0.1,0.1,0,0.2l0.5,0.3c0.1,0,0.2,0,0.2,0l0.4-0.2
								c0.1,0,0.1-0.1,0-0.2l-0.5-0.3C33.5,26.8,33.4,26.8,33.3,26.8z"/>
						</g>
					</g>
				</g>
				<g id="XMLID_44948_">
					<g id="XMLID_44949_">
						<g id="XMLID_44950_">
							<path id="XMLID_44952_" class="st20" d="M36.5,25.8C36.4,25.8,36.4,25.8,36.5,25.8l-0.1-0.1c-0.1,0-0.2,0-0.2,0l-0.4,0.2
								c0,0,0,0,0,0.1l0,0.1c0,0,0,0.1,0,0.1l0.1,0c0.1,0,0.2,0,0.2,0l0.4-0.2C36.4,26,36.5,26,36.5,25.8L36.5,25.8z"/>
							<path id="XMLID_44951_" class="st21" d="M36.1,25.7l-0.4,0.2c-0.1,0-0.1,0.1,0,0.2l0.1,0c0.1,0,0.2,0,0.2,0l0.4-0.2
								c0.1,0,0.1-0.1,0-0.2l-0.1,0C36.3,25.7,36.2,25.7,36.1,25.7z"/>
						</g>
					</g>
				</g>
			</g>
			<g id="XMLID_44942_">
				<g id="XMLID_44943_">
					<g id="XMLID_44944_">
						<path id="XMLID_44946_" class="st20" d="M34.9,26.7C34.9,26.7,34.9,26.7,34.9,26.7l-0.1-0.1c-0.1,0-0.2,0-0.2,0l-0.4,0.2
							c0,0,0,0,0,0.1l0,0.1c0,0,0,0.1,0,0.1l0.1,0.1c0.1,0,0.2,0,0.2,0l0.4-0.2C34.9,26.9,34.9,26.9,34.9,26.7L34.9,26.7z"/>
						<path id="XMLID_44945_" class="st21" d="M34.5,26.6l-0.4,0.2c-0.1,0-0.1,0.1,0,0.2l0.1,0c0.1,0,0.2,0,0.2,0l0.4-0.2
							c0.1,0,0.1-0.1,0-0.2l-0.1,0C34.7,26.6,34.6,26.6,34.5,26.6z"/>
					</g>
				</g>
			</g>
			<g id="XMLID_44937_">
				<g id="XMLID_44938_">
					<g id="XMLID_44939_">
						<path id="XMLID_44941_" class="st20" d="M35.3,26C35.3,26,35.2,26,35.3,26l-0.1-0.1c-0.1,0-0.2,0-0.2,0l-0.4,0.2
							c0,0,0,0,0,0.1v0.1c0,0,0,0.1,0,0.1l0.1,0.1c0.1,0,0.2,0,0.2,0l0.4-0.2C35.2,26.2,35.3,26.2,35.3,26L35.3,26z"/>
						<path id="XMLID_44940_" class="st21" d="M34.9,25.9l-0.4,0.2c-0.1,0-0.1,0.1,0,0.2l0.1,0c0.1,0,0.2,0,0.2,0l0.4-0.2
							c0.1,0,0.1-0.1,0-0.2l-0.1,0C35.1,25.9,35,25.9,34.9,25.9z"/>
					</g>
				</g>
			</g>
			<g id="XMLID_44932_">
				<g id="XMLID_44933_">
					<g id="XMLID_44934_">
						<path id="XMLID_44936_" class="st20" d="M35.7,26.3C35.7,26.2,35.7,26.2,35.7,26.3l-0.1-0.1c-0.1,0-0.2,0-0.2,0l-0.4,0.2
							c0,0,0,0,0,0.1v0.1c0,0,0,0.1,0,0.1l0.1,0c0.1,0,0.2,0,0.2,0l0.4-0.2C35.7,26.4,35.7,26.4,35.7,26.3L35.7,26.3z"/>
						<path id="XMLID_44935_" class="st21" d="M35.3,26.2l-0.4,0.2c-0.1,0-0.1,0.1,0,0.2l0.1,0c0.1,0,0.2,0,0.2,0l0.4-0.2
							c0.1,0,0.1-0.1,0-0.2l-0.1-0.1C35.5,26.1,35.4,26.1,35.3,26.2z"/>
					</g>
				</g>
			</g>
		</g>
	</g>
</g>
<g id="XMLID_44923_">
	<g id="XMLID_44926_">
		<path id="XMLID_44928_" class="st22" d="M41.6,18.6L39,17.1c-0.5-0.3-1.2-0.4-1.8-0.2l0,0c-1.3,0.3-1.7,1.5-0.6,2.1l2.6,1.5
			c0.5,0.3,1.2,0.4,1.8,0.2l0,0C42.3,20.4,42.7,19.2,41.6,18.6z"/>
		<path id="XMLID_44927_" class="st23" d="M40.4,17.5c-0.9-0.5-1.9-0.8-2.2-0.8c-0.3,0-0.7,0-1,0l0,0c-1,0.2-1.5,1-1.1,1.6
			c0.1,0.2,1.1,0.6,1.9,1.1c0.7,0.4,1.6,1.2,1.9,1.2c0.3,0.1,0.7,0.1,1.1,0l0,0c1.1-0.3,1.5-1.1,1.1-1.7
			C41.9,18.7,41.3,18,40.4,17.5z"/>
	</g>
	<g id="XMLID_44924_">
		<path id="XMLID_44925_" class="st22" d="M41.3,19.6c-0.1,0-0.2-0.1-0.2-0.2c0,0,0-0.1,0.1-0.1c-0.1,0-0.1-0.1-0.2-0.1l0,0
			c-0.1,0-0.2,0.1-0.2,0.1l0,0c-0.1,0.2,0.1,0.4,0.4,0.4l0,0C41.3,19.8,41.3,19.7,41.3,19.6C41.4,19.6,41.4,19.6,41.3,19.6
			C41.4,19.6,41.3,19.6,41.3,19.6L41.3,19.6z"/>
	</g>
</g>
<g id="XMLID_42912_">
	<g id="XMLID_42934_">
		<polygon id="XMLID_42940_" class="st24" points="5.2,36.3 5.2,34.8 17.6,41.9 17.6,43.5 		"/>
		<polyline id="XMLID_46130_" class="st25" points="5.2,36.3 5.2,34.8 17.6,41.9 		"/>
		<polygon id="XMLID_42939_" class="st26" points="5.2,34.8 9.4,32.4 21.8,39.5 17.6,41.9 		"/>
		<polygon id="XMLID_42938_" class="st27" points="8.8,36.2 11.8,34.4 20.7,39.6 17.6,41.3 		"/>
		<polygon class="st28" points="9.5,35.8 9.5,36.6 12.6,38.4 12.6,35.5 10.1,35.5 		"/>
		<g id="XMLID_42936_">
			<polygon id="XMLID_42937_" class="st29" points="8.9,36.3 8.8,36.2 11.8,34.4 20.7,39.6 20.6,39.6 11.8,34.6 			"/>
		</g>
		<polygon id="XMLID_42935_" class="st29" points="21.8,39.5 17.6,41.9 17.6,43.5 21.8,41.1 		"/>
		<polyline id="XMLID_46134_" class="st30" points="21.8,39.5 17.6,41.9 17.6,43.5 		"/>
	</g>
	<g id="XMLID_42928_">
		<polygon id="XMLID_42933_" class="st25" points="5.2,33.5 5.2,34.8 7.9,36.3 7.9,35.6 		"/>
		<polygon id="XMLID_42932_" class="st29" points="12.1,33.2 7.9,35.6 7.9,36.3 12.1,34 		"/>
		<polyline id="XMLID_46139_" class="st30" points="12.1,33.2 7.9,35.6 7.9,36.3 		"/>
		<polygon id="XMLID_42931_" class="st31" points="9.4,31.1 5.2,33.5 7.9,35.6 12.1,33.2 		"/>
		<polyline id="XMLID_46133_" class="st26" points="9.4,31.1 5.2,33.5 7.9,35.6 		"/>
		<polygon id="XMLID_42930_" class="st32" points="9.2,31.6 6.1,33.5 8.1,35 11.3,33.2 		"/>
		<polygon class="st33" points="6.1,33.5 8.1,35 11.2,33.3 9.2,31.8 		"/>
		<polygon id="XMLID_42929_" class="st34" points="6.1,33.5 8.1,35 11.3,33.2 		"/>
	</g>
	<g id="XMLID_42913_">
		<g id="XMLID_42926_">
			<polygon id="XMLID_42927_" class="st24" points="9.5,35 9.5,36.4 11.2,37.4 11.2,36 			"/>
		</g>
		<g id="XMLID_46132_" class="st35">
			<polyline id="XMLID_46136_" class="st24" points="11.2,37.4 11.2,36 9.5,35 			"/>
		</g>
		<polygon id="XMLID_42925_" class="st29" points="13.9,34.5 11.2,36.1 11.2,37.4 13.9,35.9 		"/>
		<g id="XMLID_42923_">
			<polygon id="XMLID_42924_" class="st24" points="15.3,38.8 15.8,40.1 17.6,41.1 17.6,40.5 			"/>
		</g>
		<g id="XMLID_46135_" class="st35">
			<polyline id="XMLID_46138_" class="st24" points="17.6,41.1 17.6,40.5 15.3,38.8 			"/>
		</g>
		<g id="XMLID_42921_">
			<path id="XMLID_42922_" class="st36" d="M9.5,34.4c0,0,0.9-0.9,1.6-1.2c0.6-0.3,1.2-0.4,1.2-0.4s1.6,0.8,3.7,2.2
				c2.1,1.4,4.5,3.1,4.5,3.1s-0.5,0-1.2,0.4c-0.7,0.4-1.5,1.2-1.5,1.2s-2.3-1.7-4.5-3.1C11,35.2,9.5,34.4,9.5,34.4z"/>
		</g>
		<g id="XMLID_46129_">
			<path id="XMLID_46131_" class="st31" d="M20.3,38.2c0,0-0.5,0-1.2,0.4c-0.7,0.4-1.5,1.2-1.5,1.2s-2.3-1.7-4.5-3.1
				c-2.1-1.4-3.7-2.2-3.7-2.2s0.9-0.9,1.6-1.2"/>
		</g>
		<g id="XMLID_42919_">
			<path id="XMLID_42920_" class="st37" d="M9.5,35L9.5,35L9.5,35L9.5,35L9.5,35v-0.6c0,0,1.6,0.8,3.7,2.2c2.1,1.4,4.5,3.1,4.5,3.1
				v0.6c0,0-2.3-1.7-4.5-3.1C11,35.8,9.5,35,9.5,35z"/>
		</g>
		<g id="XMLID_42917_">
			<path id="XMLID_42918_" class="st38" d="M9.5,35.1L9.5,35.1L9.5,35.1L9.5,35.1L9.5,35.1V35c0,0,1.6,0.8,3.7,2.2
				c2.1,1.4,4.5,3.1,4.5,3.1v0.1c0,0-2.3-1.7-4.5-3.1C11,35.9,9.5,35.1,9.5,35.1z"/>
		</g>
		<path id="XMLID_42916_" class="st39" d="M20.3,38.2c0,0-0.6,0-1.2,0.4c-1.1,0.7-1.5,1.2-1.5,1.2v0.6l2.7-1.6L20.3,38.2z"/>
		<polygon id="XMLID_42915_" class="st29" points="20.3,38.9 17.6,40.5 17.6,41.1 20.3,39.6 		"/>
		<polygon id="XMLID_42914_" class="st40" points="20.3,38.9 17.6,40.5 17.6,40.3 20.3,38.8 		"/>
	</g>
</g>
<g>
	<path class="st41" d="M32.1,36.3l2.2,0.9c0,0,6.2-2.8,6.3-3.2c0.1-0.5-1.7-1.9-1.7-1.9L32.1,36.3z"/>
	<path id="XMLID_3_" class="st42" d="M40.4,33c-0.6-0.4-1-0.9-1.1-1.6l-1-6.1l-0.3-0.1l-5.8,3.2l1,6.4c0.1,0.7,0.5,1.3,1.1,1.6
		c0,0,0.2,0.4-0.1,0.7c-0.2,0.4,6.3-3.4,6.3-3.4L40.4,33"/>
	<g id="XMLID_45347_">
		<path id="XMLID_45348_" class="st43" d="M39.3,31.4l-1-6.1l-5.8,3.2l1,6.1c0.1,0.7,0.5,1.3,1.1,1.6l5.8-3.2
			C39.8,32.7,39.4,32.1,39.3,31.4z"/>
	</g>
	<path id="XMLID_45345_" class="st44" d="M48.3,6.1c0-0.4-0.2-0.8-0.5-1c-0.1-0.1-0.4-0.3-0.5-0.3c-0.3-0.2-0.7-0.2-1.1,0l-21.9,12
		c-0.6,0.4-1,1.1-1,1.8l1.2,19.7c0,0.4,0.2,0.7,0.4,0.9c0.1,0.1,0.5,0.3,0.5,0.4c0.4,0.2,0.8,0.2,1.1,0l21.9-12c0.6-0.4,1-1.1,1-1.8
		L48.3,6.1z"/>
	<path id="XMLID_45344_" class="st20" d="M48.3,6.1l1.2,19.7c0,0.8-0.3,1.5-1,1.8l-21.9,12c-0.8,0.4-1.8-0.2-1.8-1.1l-1.2-19.7
		c0-0.8,0.3-1.5,1-1.8L46.5,5C47.3,4.5,48.3,5.2,48.3,6.1z"/>
	<path id="XMLID_46116_" class="st45" d="M26.7,39.6c-0.8,0.4-1.8-0.2-1.8-1.1l-1.2-19.7c0-0.8,0.3-1.5,1-1.8L46.5,5
		c0.8-0.4,1.8,0.2,1.8,1.1"/>
</g>
</svg>
