<?xml version="1.0" encoding="utf-8"?>
<!-- Generator: Adobe Illustrator 21.0.0, SVG Export Plug-In . SVG Version: 6.00 Build 0)  -->
<svg version="1.1" id="Layer_1" xmlns="http://www.w3.org/2000/svg" xmlns:xlink="http://www.w3.org/1999/xlink" x="0px" y="0px"
	 viewBox="0 0 80 80" style="enable-background:new 0 0 80 80;" xml:space="preserve">
<style type="text/css">
	.st0{fill:#301F12;}
	.st1{fill:#563E2E;}
	.st2{fill:#008895;}
	.st3{fill:#01B4B3;}
	.st4{opacity:0.2;fill:#056378;enable-background:new    ;}
	.st5{opacity:0.2;}
	.st6{fill:#056378;}
	.st7{fill:#029A9A;}
	.st8{fill:#CAE9F0;}
	.st9{fill:#96B9BE;}
	.st10{fill:#49C1C2;}
	.st11{fill:#12A1A4;}
</style>
<g id="XMLID_35245_">
	<g id="XMLID_35278_">
		<polygon id="XMLID_35280_" class="st0" points="5.7,38.2 2.5,36.4 2.5,38.1 5.7,40 		"/>
		<polygon id="XMLID_35279_" class="st1" points="5.7,40 8.9,38.2 8.9,36.4 5.7,38.2 		"/>
	</g>
	<g id="XMLID_35275_">
		<polygon id="XMLID_35277_" class="st0" points="74.3,58.7 71.1,56.9 71.1,58.6 74.3,60.5 		"/>
		<polygon id="XMLID_35276_" class="st1" points="74.3,60.5 77.5,58.6 77.5,56.9 74.3,58.7 		"/>
	</g>
	<g id="XMLID_35272_">
		<polygon id="XMLID_35274_" class="st0" points="57.7,68.2 54.5,66.4 54.5,68.2 57.7,70 		"/>
		<polygon id="XMLID_35273_" class="st1" points="57.7,70 60.9,68.2 60.9,66.4 57.7,68.2 		"/>
	</g>
	<g id="XMLID_35246_">
		<g id="XMLID_35253_">
			<polygon id="XMLID_35271_" class="st2" points="8.6,24.9 8.6,33 28.4,21.5 28.4,13.5 			"/>
			<g id="XMLID_35269_">
				<polygon id="XMLID_35270_" class="st3" points="55.6,51.5 71.7,42.2 28.6,17.4 13,26.4 				"/>
			</g>
			<polygon class="st4" points="28.4,17.6 13,26.4 28.4,35.5 			"/>
			<g id="XMLID_42095_" class="st5">
				<polyline id="XMLID_42097_" class="st6" points="13,26.4 55.6,51.5 71.7,42.2 				"/>
			</g>
			<g id="XMLID_35267_">
				<polygon id="XMLID_35268_" class="st7" points="34.5,39.3 50.6,30 50.2,29.8 34.1,39.1 				"/>
			</g>
			<g id="XMLID_35264_">
				<path id="XMLID_35266_" class="st8" d="M61.6,46.5c-0.5-2.9-1-7.5-1-7.5c-0.1-0.4-0.5-0.4-0.6-0.3c0,0-1.1,1.6-1,3.1
					c0.2,1.5,0.7,2.9,1,4.2c0.7,3.8,2,7,2.5,6.6C62.7,52.4,62.2,49.3,61.6,46.5z"/>
				<path id="XMLID_35265_" class="st9" d="M49.5,48.3c-0.2-2.5-0.5-4-0.8-4.7c-0.1-0.2-0.2-1,0.1-1.3c0.6-0.6,1.4-1,2.5-1.1
					c0.5-0.1,2.4-0.2,3.4-0.5c1.7-0.5,4.2-1.6,5.2-2.2c0.2-0.1,0.4,0,0.4,0.2c-0.1,0.7-0.3,1.4-0.2,2.8c0.1,1,0,3.3,0.2,4.4
					c0.6,3.2,2.2,5.3,2.2,6.6c0,0.2-0.2,0.4-0.5,0.4c-1.1,0-3.6,0.2-6,0.2c-1.5,0-5.1,0.7-6.1,0.9c-0.2,0.1-0.5-0.2-0.5-0.4
					C49.3,52.7,49.7,50.8,49.5,48.3z"/>
			</g>
			<polygon id="XMLID_35263_" class="st10" points="2.5,21.4 8.6,24.9 28.4,13.5 22.3,10 			"/>
			<polyline id="XMLID_42099_" class="st3" points="2.5,21.4 8.6,24.9 28.4,13.5 			"/>
			<polygon id="XMLID_35262_" class="st6" points="8.6,38.1 8.6,24.9 2.5,21.4 2.5,34.6 			"/>
			<g id="XMLID_35258_">
				<polygon id="XMLID_35261_" class="st10" points="51.6,43.8 55.1,41.8 12,16.9 8.6,18.9 				"/>
				<polyline id="XMLID_42100_" class="st3" points="8.6,18.9 51.6,43.8 55.1,41.8 				"/>
				<polygon id="XMLID_35260_" class="st2" points="51.6,43.8 55.1,41.8 56.4,51.5 51.6,54.2 				"/>
				<polygon id="XMLID_35259_" class="st6" points="8.6,38.1 51.6,63 51.6,43.8 8.6,18.9 				"/>
				<polyline id="XMLID_42094_" class="st4" points="51.6,63 51.6,43.8 8.6,18.9 				"/>
			</g>
			<g id="XMLID_35256_">
				<polygon id="XMLID_35257_" class="st0" points="2.5,36.4 57.7,68.2 57.7,66.5 2.5,34.6 				"/>
			</g>
			<g id="XMLID_35254_">
				<polygon id="XMLID_35255_" class="st1" points="77.5,56.9 57.7,68.2 57.7,66.5 77.5,55.1 				"/>
			</g>
		</g>
		<g id="XMLID_35250_">
			<g id="XMLID_35251_">
				<polygon id="XMLID_35252_" class="st11" points="55.6,51.5 69.4,43.5 69.4,47.5 55.6,55.5 				"/>
			</g>
		</g>
		<polygon id="XMLID_35249_" class="st2" points="57.7,66.5 77.5,55.1 77.5,41.9 57.7,53.3 		"/>
		<polygon id="XMLID_35248_" class="st10" points="51.6,49.7 57.7,53.3 77.5,41.9 71.4,38.4 		"/>
		<polyline id="XMLID_42098_" class="st3" points="51.6,49.7 57.7,53.3 77.5,41.9 		"/>
		<polygon id="XMLID_35247_" class="st6" points="57.7,66.5 57.7,53.3 51.6,49.7 51.6,63 		"/>
		<polygon id="XMLID_42090_" class="st4" points="57.7,66.5 57.7,53.3 51.6,49.7 51.6,63 		"/>
	</g>
</g>
</svg>
