<?xml version="1.0" encoding="utf-8"?>
<!-- Generator: Adobe Illustrator 21.0.0, SVG Export Plug-In . SVG Version: 6.00 Build 0)  -->
<svg version="1.1" id="Layer_1" xmlns="http://www.w3.org/2000/svg" xmlns:xlink="http://www.w3.org/1999/xlink" x="0px" y="0px"
	 viewBox="0 0 80 80" style="enable-background:new 0 0 80 80;" xml:space="preserve">
<style type="text/css">
	.st0{fill:#60361A;}
	.st1{fill:#A46637;}
	.st2{fill:#9F5F2C;}
	.st3{fill:#6D401D;}
	.st4{fill:#8C522A;}
	.st5{fill:#7F4925;}
	.st6{fill:#B57243;}
</style>
<g id="XMLID_4917_">
	<g id="XMLID_4955_">
		<polygon id="XMLID_4957_" class="st0" points="41.9,37.5 41.3,52.7 40.4,53.2 40.4,38.4 		"/>
		<polygon id="XMLID_4956_" class="st1" points="38.9,37.5 40.4,38.4 40.4,53.2 39.5,52.7 		"/>
	</g>
	<g id="XMLID_4948_">
		<polygon id="XMLID_4954_" class="st1" points="40.5,41.9 40.5,43 48.2,47.5 48.2,46.4 		"/>
		<polygon id="XMLID_4953_" class="st2" points="41.3,41.4 40.5,41.9 48.2,46.4 49,45.9 		"/>
		<polygon id="XMLID_4952_" class="st3" points="50.8,42.6 50.2,57.8 49.3,58.3 49.3,43.5 		"/>
		<polygon id="XMLID_4951_" class="st4" points="47.8,42.6 49.3,43.5 49.3,58.3 48.4,57.8 		"/>
		<polygon id="XMLID_4950_" class="st3" points="49,46.8 49,47.9 40.2,53 40.2,52 		"/>
		<polygon id="XMLID_4949_" class="st4" points="48.2,46.4 49,46.8 40.2,52 39.4,51.5 		"/>
	</g>
	<g id="XMLID_4940_">
		<g id="XMLID_4943_">
			<polygon id="XMLID_4947_" class="st3" points="32.1,43.1 31.4,58.4 30.6,58.9 30.6,44 			"/>
			<polygon id="XMLID_4946_" class="st4" points="30.9,47.5 30.9,48.6 38.6,53 38.6,52 			"/>
			<polygon id="XMLID_4945_" class="st3" points="31.7,47 30.9,47.5 38.6,52 39.4,51.5 			"/>
			<polygon id="XMLID_4944_" class="st4" points="29,43.1 30.6,44 30.6,58.9 29.7,58.4 			"/>
		</g>
		<polygon id="XMLID_4942_" class="st3" points="40.9,48.3 40.3,63.5 39.4,64 39.4,49.1 		"/>
		<polygon id="XMLID_4941_" class="st4" points="37.9,48.3 39.4,49.1 39.4,64 38.5,63.5 		"/>
	</g>
	<path id="XMLID_4939_" class="st0" d="M50.7,42.2l-9.9-5.7c-1.7-1-3.7-1-5.4,0l-5.2,3c-0.8,0.4-1.1,1.2-1.1,2c0,0.3,0,1.4,0,1.7
		c0,0.7,0.4,1.4,1.1,1.8l9.2,5.3l11.3-6.5V42.2z"/>
	<path id="XMLID_4938_" class="st0" d="M39.4,36.5c-1.7-1-2.3-1-4,0l-5.2,3c-0.8,0.4-1.1,1.2-1.1,2c0,0.3,0,1.4,0,1.7
		c0,0.7,0.4,1.4,1.1,1.8l9.2,5.3L39.4,36.5z"/>
	<g id="XMLID_4935_">
		<path id="XMLID_4937_" class="st3" d="M51.1,41.4c0-0.3-0.2-0.6-0.5-0.8l-8.5-4.9c-1.9-1.1-4.1-1.1-6,0l-5.8,3.4
			c-0.8,0.5-1.3,1.3-1.3,2.1c0,0.4,0,0.5,0,0.9c0,0.8,0.5,1.6,1.3,2.1l8,4.6c0.7,0.4,1.5,0.4,2.2,0L50.6,43c0.3-0.2,0.5-0.5,0.5-0.9
			C51.1,41.8,51.1,41.7,51.1,41.4z"/>
		<path id="XMLID_4936_" class="st4" d="M36.1,35.7l-5.8,3.4c-1.7,1-1.7,3.4,0,4.4l8,4.6c0.7,0.4,1.5,0.4,2.2,0l10.1-5.8
			c0.6-0.4,0.6-1.3,0-1.7l-8.5-4.9C40.3,34.6,38,34.6,36.1,35.7z"/>
		<path id="XMLID_34339_" class="st5" d="M50.6,42.3c0.6-0.4,0.6-1.3,0-1.7l-8.5-4.9c-1.9-1.1-4.1-1.1-6,0l-5.8,3.4
			c-1.7,1-1.7,3.4,0,4.4"/>
	</g>
	<g id="XMLID_4918_">
		<g id="XMLID_4932_">
			<polygon id="XMLID_4934_" class="st3" points="42.1,36.2 42.4,16.5 41.5,17.1 40.6,37.1 			"/>
			<polygon id="XMLID_4933_" class="st1" points="39.1,36.2 40.6,37.1 41.5,17.1 40.6,16.5 			"/>
		</g>
		<polygon id="XMLID_4931_" class="st2" points="40.7,17.8 41.2,18.1 30.4,24.2 30.4,23.7 		"/>
		<polygon id="XMLID_4930_" class="st3" points="41.2,18.1 41,20.6 30.5,26.7 30.4,24.2 		"/>
		<polygon id="XMLID_4929_" class="st2" points="40.4,23.3 40.8,23.5 30.3,29.6 30.3,29.1 		"/>
		<polygon id="XMLID_4928_" class="st3" points="40.8,23.5 40.8,24.9 30.3,30.9 30.3,29.6 		"/>
		<polygon id="XMLID_4927_" class="st2" points="40.2,26.3 40.7,26.6 30.1,32.7 30.1,32.2 		"/>
		<polygon id="XMLID_4926_" class="st3" points="40.7,26.6 40.6,28 30.1,34 30.1,32.7 		"/>
		<polygon id="XMLID_4925_" class="st2" points="40.1,29.4 40.5,29.6 30,35.7 30,35.2 		"/>
		<polygon id="XMLID_4924_" class="st3" points="40.5,29.6 40.5,31 30,37 30,35.7 		"/>
		<g id="XMLID_4920_">
			<polygon id="XMLID_4923_" class="st3" points="32.2,41.9 30.7,23.2 29.8,23.8 30.7,42.8 			"/>
			<polygon id="XMLID_4922_" class="st6" points="29.8,22.7 30.7,23.2 29.8,23.8 28.9,23.2 			"/>
			<polygon id="XMLID_4921_" class="st1" points="29.2,41.9 30.7,42.8 29.8,23.8 28.9,23.2 			"/>
		</g>
		<polygon id="XMLID_4919_" class="st6" points="41.5,16 42.4,16.5 41.5,17.1 40.6,16.5 		"/>
	</g>
</g>
</svg>
