<?xml version="1.0" encoding="utf-8"?>
<!-- Generator: Adobe Illustrator 21.0.0, SVG Export Plug-In . SVG Version: 6.00 Build 0)  -->
<svg version="1.1" id="Layer_1" xmlns="http://www.w3.org/2000/svg" xmlns:xlink="http://www.w3.org/1999/xlink" x="0px" y="0px"
	 viewBox="0 0 80 80" style="enable-background:new 0 0 80 80;" xml:space="preserve">
<style type="text/css">
	.st0{fill:#301F12;}
	.st1{fill:#563E2E;}
	.st2{fill:#008895;}
	.st3{fill:#49C1C2;}
	.st4{fill:#01B4B3;}
	.st5{fill:#056378;}
	.st6{opacity:0.2;}
	.st7{opacity:0.2;fill:#056378;}
	.st8{fill:#12A1A4;}
	.st9{fill:#008E88;}
	.st10{fill:#029A9A;}
	.st11{fill:#B8E3EC;}
	.st12{fill:#CAE9F0;}
</style>
<g id="XMLID_38639_">
	<g id="XMLID_38678_">
		<polygon id="XMLID_38680_" class="st0" points="16.2,47.3 13,45.5 13,43.7 16.2,45.6 		"/>
		<polygon id="XMLID_38679_" class="st1" points="16.2,45.6 19.4,43.7 19.4,45.5 16.2,47.3 		"/>
	</g>
	<g id="XMLID_38675_">
		<polygon id="XMLID_38677_" class="st0" points="63.8,55.7 60.6,53.8 60.6,52.1 63.8,53.9 		"/>
		<polygon id="XMLID_38676_" class="st1" points="63.8,53.9 67,52.1 67,53.8 63.8,55.7 		"/>
	</g>
	<g id="XMLID_38672_">
		<polygon id="XMLID_38674_" class="st0" points="47.2,65.2 44,63.4 44,61.6 47.2,63.5 		"/>
		<polygon id="XMLID_38673_" class="st1" points="47.2,63.5 50.4,61.6 50.4,63.4 47.2,65.2 		"/>
	</g>
	<g id="XMLID_38640_">
		<g id="XMLID_38662_">
			<polygon id="XMLID_38671_" class="st2" points="38.9,20.9 38.9,28.9 19.1,40.3 19.1,32.3 			"/>
			<polygon id="XMLID_38670_" class="st3" points="32.8,17.4 38.9,20.9 19.1,32.3 13,28.8 			"/>
			<polyline id="XMLID_42114_" class="st4" points="32.8,17.4 38.9,20.9 19.1,32.3 			"/>
			<polygon id="XMLID_38669_" class="st5" points="13,42 13,28.8 19.1,32.3 19.1,45.4 			"/>
			<g id="XMLID_38667_">
				<polygon id="XMLID_38668_" class="st5" points="19.1,40.7 41.1,53.5 41.1,58.2 19.1,45.5 				"/>
			</g>
			<g id="XMLID_42106_" class="st6">
				<polyline id="XMLID_42110_" class="st5" points="19.1,40.7 41.1,53.5 41.1,58.2 				"/>
			</g>
			<g id="XMLID_38665_">
				<polygon id="XMLID_38666_" class="st0" points="13,42 47.2,61.7 47.2,63.5 13,43.7 				"/>
			</g>
			<g id="XMLID_38663_">
				<polygon id="XMLID_38664_" class="st1" points="67,50.3 47.2,61.7 47.2,63.5 67,52.1 				"/>
			</g>
		</g>
		<polygon id="XMLID_38661_" class="st3" points="36,16.8 39.5,14.8 61.5,27.5 58.1,29.5 		"/>
		<polyline id="XMLID_42112_" class="st4" points="58.1,29.5 36,16.8 39.5,14.8 		"/>
		<polygon id="XMLID_38660_" class="st2" points="56.7,40.8 61.5,38 61.5,27.5 58.1,29.5 		"/>
		<polygon id="XMLID_38659_" class="st5" points="36,16.8 58.1,29.5 56.7,40.8 34.7,28 		"/>
		<polyline id="XMLID_42108_" class="st7" points="56.7,40.8 34.7,28 36,16.8 		"/>
		<g id="XMLID_38647_">
			<g id="XMLID_38657_">
				<polygon id="XMLID_38658_" class="st4" points="19.1,37 34.7,28 56.1,40.4 40.6,49.4 				"/>
			</g>
			<polygon class="st7" points="41.1,31.8 56.1,40.4 41.1,49.1 			"/>
			<polygon class="st7" points="39.1,30.6 39.9,31.1 39.9,49 27,41.6 27,32.5 30.3,30.6 			"/>
			<g id="XMLID_38653_">
				<polygon id="XMLID_38656_" class="st8" points="40.6,53.4 54.3,45.5 54.3,41.5 40.6,49.4 				"/>
				<g id="XMLID_38654_">
					<polygon id="XMLID_38655_" class="st9" points="54.3,45.9 54.3,45.5 40.6,53.4 40.6,53.8 					"/>
				</g>
			</g>
			<g id="XMLID_38648_">
				<g id="XMLID_38651_">
					<polygon id="XMLID_38652_" class="st10" points="19.1,37 19.1,41 40.6,53.4 40.6,49.4 					"/>
				</g>
				<g id="XMLID_38649_">
					<polygon id="XMLID_38650_" class="st9" points="19.1,41.4 19.1,41 40.6,53.4 40.6,53.8 					"/>
				</g>
			</g>
		</g>
		<g id="XMLID_38644_">
			<path id="XMLID_38646_" class="st11" d="M27,32.3c0.5,0.4,1.8-2.7,2.5-6.6c0.2-1.3,0.8-2.7,0.9-4.2c0.1-1.6-0.9-3.1-0.9-3.1
				c-0.1-0.1-0.5-0.1-0.6,0.3c0,0-0.5,4.6-1,7.5C27.4,29,26.9,32.2,27,32.3z"/>
			<path id="XMLID_38645_" class="st12" d="M40.1,33.4c0,0.3-0.3,0.5-0.5,0.4c-1-0.2-4.7-0.9-6.1-0.9c-2.4,0-4.9-0.3-6-0.2
				c-0.2,0-0.5-0.1-0.5-0.4c0-1.3,1.7-3.4,2.2-6.6c0.2-1.1,0.1-3.5,0.1-4.4c0.1-1.4-0.2-2.1-0.2-2.7c0-0.2,0.2-0.4,0.4-0.2
				c1.1,0.7,3.5,1.7,5.2,2.2c1.1,0.3,2.9,0.4,3.5,0.5c1.1,0.1,1.9,0.6,2.5,1.1c0.3,0.3,0.1,1.1,0.1,1.3c-0.3,0.8-0.7,2.2-0.8,4.8
				C39.8,30.6,40.1,32.5,40.1,33.4z"/>
		</g>
		<polygon id="XMLID_38643_" class="st2" points="47.2,48.5 67,37.1 67,50.3 47.2,61.7 		"/>
		<polygon id="XMLID_38642_" class="st3" points="60.9,33.6 67,37.1 47.2,48.5 41.1,45 		"/>
		<polyline id="XMLID_42113_" class="st4" points="47.2,48.5 41.1,45 60.9,33.6 		"/>
		<polygon id="XMLID_38641_" class="st5" points="41.1,58.2 41.1,45 47.2,48.5 47.2,61.7 		"/>
		<polygon id="XMLID_42109_" class="st7" points="41.1,58.2 41.1,45 47.2,48.5 47.2,61.7 		"/>
	</g>
</g>
</svg>
