<?xml version="1.0" encoding="utf-8"?>
<!-- Generator: Adobe Illustrator 21.0.0, SVG Export Plug-In . SVG Version: 6.00 Build 0)  -->
<svg version="1.1" id="Layer_1" xmlns="http://www.w3.org/2000/svg" xmlns:xlink="http://www.w3.org/1999/xlink" x="0px" y="0px"
	 viewBox="0 0 80 80" style="enable-background:new 0 0 80 80;" xml:space="preserve">
<style type="text/css">
	.st0{fill:#81A520;}
	.st1{fill:#A1BA3A;}
	.st2{fill:#BBC83C;}
	.st3{fill:#AABE38;}
</style>
<g id="XMLID_5048_">
	<g id="XMLID_5080_">
		<path class="st0" d="M47.3,57.7c4.4-1.1,8.6-4.7,9.7-8.9c1-3.6,1.1-9.3-1.5-14.5l-1.7-2.8L53.2,31c-0.6-1.1-4.1-7-5.2-7.6
			c-1.1-0.5-4.9-0.4-5.5-0.1c-0.6,0.2-2.3,0.4-3.6,3c0,0-0.9,3-1.6,3.6c-0.7,0.6-3.8,2.5-5.5,3.7c-1.7,1.1-5,2.7-6.1,3.7
			c-1.5,1.4-2.3,3.3-2.5,7.9c0,3.4,0,5.5,3.8,8.9C30,56.4,42.3,58.9,47.3,57.7z"/>
	</g>
	<g id="XMLID_5079_">
		<path class="st1" d="M46.4,56.8c4.4-1.1,9-5.2,9.7-8.9c0.7-3.7,1.1-9.3-1.5-14.5c0,0-0.4-1.2-0.9-2L53.2,31
			c-1.2-2.1-3-4.8-3.4-5.4c-0.6-1.1-0.6-2.6-1.7-3.1c-1.1-0.5-5.7-0.4-6.3-0.1c-0.6,0.2-2.3,0.4-3.6,3c0,0-0.9,3-1.6,3.6
			c-0.7,0.6-3.8,2.5-5.5,3.7c-1.7,1.1-5,2.7-6.1,3.7c-1.5,1.4-2.3,3.3-2.5,7.9c0,3.4,0.4,5.8,3.9,8.6C29.1,54.9,41.5,58,46.4,56.8z"
			/>
	</g>
	<g id="XMLID_5078_">
		<path class="st2" d="M53.2,31c-1.2-2.1-3-4.8-3.4-5.4c-0.6-1.1-0.6-2.6-1.7-3.1c-1.1-0.5-5.7-0.4-6.3-0.1c-0.6,0.2-2.3,0.4-3.6,3
			c0,0-0.9,3-1.6,3.6c-0.7,0.6-3.8,2.5-5.5,3.7c-1.7,1.1-5,2.7-6.1,3.7c-0.2,0.2,1.7-0.2,2.6,0.1c1.1,0.5,3.4,3,3.4,3
			c1.7,0.1,6,1.6,8.4,3l2.6-1.2C49.3,29.9,53.2,31,53.2,31z"/>
	</g>
	<g id="XMLID_5076_">
		<g id="XMLID_5077_">
			<path class="st2" d="M46.9,22.3c0.5,0,1,0.1,1.2,0.2c1.1,0.5,1.1,2,1.7,3.1c0.4,0.6,2.1,3.3,3.4,5.4c0,0-1.1-0.4-3.2,1.1l-8,8.6
				C42,40.6,49.3,28.6,46.9,22.3z"/>
		</g>
	</g>
	<g id="XMLID_5075_">
		<path class="st3" d="M53.8,31.5c0,0-1.7-0.6-3.1,0.4c-1,0.7-3.9,3.4-5.2,4.8c-1.2,1.4-3.7,4.4-3.7,4.4h-0.5c0,0,2.8-3.8,4.1-5.3
			c1.2-1.5,3.4-4.1,5-4.8C51.7,30.4,53.3,30.9,53.8,31.5z"/>
	</g>
	<g id="XMLID_5074_">
		<path class="st1" d="M36.9,41c0,0,1.2,0.7,2.3,1.2l2.6-1.2c0.6-0.9,1.2-1.7,1.6-2.3l-2,1.4l-3.3-0.2l-0.9-1.6L36.9,41z"/>
	</g>
	<g id="XMLID_5073_">
		<path class="st1" d="M36.8,28.6c0,0-0.5,1.4-0.5,2.1c0,0.7,0,1.5,0.1,2.5c0.1,1,0.7,3.2,0.9,4.1c0.1,1,0.2,2.6-0.1,4.1h-0.2
			c0,0,0-3.1-0.1-3.8c-0.1-0.7-0.7-2.8-0.9-4.2C35.8,31.9,35.4,30.4,36.8,28.6z"/>
	</g>
	<g id="XMLID_5072_">
		<path class="st3" d="M31.3,39.6c0,0-0.9-1.2-1.6-1.8c-0.1-0.1-0.1-0.1-0.2-0.2c-0.6-0.5-1.6-1.4-1.8-1.4c0,0-1.8-0.2-2.6-0.1
			l-0.4,0.4c0,0,2.1,0,2.5,0.1c0,0,2.2,1.5,2.7,2.1C29.9,38.6,30.4,39.4,31.3,39.6z"/>
	</g>
	<g id="XMLID_5071_">
		<path class="st3" d="M47.3,41.5c0,0-1.4-0.9-2.1-1c-0.7-0.1-1.6,0-2.1,0c-2.5,0.5-3.9,1.7-3.9,1.7c3.1-1.1,4.8-1.2,5.2-1.2
			c0.4,0,0.9,0.1,1.1,0.4C45.8,41.6,46.9,42.2,47.3,41.5z"/>
	</g>
	<g id="XMLID_5070_">
		<path class="st1" d="M40.2,33.8c0,0-0.4-2.8-0.6-5.2c-0.4-2.3-0.2-3.7,0.1-5.3c0,0-0.5,0.5-0.6,2.1C38.9,25.5,38.3,30.3,40.2,33.8
			z"/>
	</g>
	<g id="XMLID_5069_">
		<path class="st3" d="M39.3,42.2c0,0-7.7-4.7-13.4-2.5C25.7,39.7,30.8,38.5,39.3,42.2z"/>
	</g>
	<g id="XMLID_5053_">
		<g id="XMLID_5061_">
			<g>
				
					<rect x="44.9" y="56.7" transform="matrix(0.3949 -0.9187 0.9187 0.3949 -24.9543 75.7106)" class="st3" width="0.1" height="0.2"/>
			</g>
			<g>
				<path class="st3" d="M43.8,56.5l0.1-0.1l0.5,0.2l-0.1,0.1L43.8,56.5z M42.8,56l0.1-0.1l0.5,0.2l-0.1,0.1L42.8,56z M41.8,55.6
					l0.1-0.1l0.5,0.2l-0.1,0.1L41.8,55.6z M40.9,55.1L41,55l0.5,0.2l-0.1,0.1L40.9,55.1z M39.9,54.8l0.1-0.1l0.5,0.2L40.4,55
					L39.9,54.8z"/>
			</g>
			<g>
				<polygon class="st3" points="39.4,54.5 39.5,54.4 39.4,54.3 39.4,54.1 39.1,54 39.1,54.4 				"/>
			</g>
			<g>
				<path class="st3" d="M39.3,53.5l0.1-0.5h0.1v0.5H39.3z M39.5,52.5l0.1-0.5h0.1l-0.1,0.5H39.5z M39.6,51.4l0.1-0.5h0.1l-0.1,0.5
					H39.6z M39.9,50.4L40,50h0.1L40,50.4H39.9z M40,49.5l0.1-0.5h0.1l-0.1,0.5H40z M40.2,48.4l0.1-0.5h0.1l-0.1,0.5H40.2z
					 M40.5,47.4c0-0.1,0.1-0.4,0.1-0.5h0.1c0,0.1-0.1,0.4-0.1,0.5H40.5z M40.6,46.3c0-0.1,0.1-0.4,0.1-0.5h0.1
					c0,0.1-0.1,0.4-0.1,0.5H40.6z M40.9,45.3c0-0.1,0.1-0.4,0.1-0.5h0.1c0,0.1-0.1,0.4-0.1,0.5H40.9z M41.1,44.2
					c0-0.2,0.1-0.4,0.1-0.5h0.1c0,0.1-0.1,0.4-0.1,0.5H41.1z M41.3,43.2c0.1-0.2,0.1-0.4,0.1-0.5l0.1,0.1c0,0.1-0.1,0.2-0.1,0.5
					L41.3,43.2z M41.8,42.2c0.1-0.1,0.2-0.2,0.5-0.2l0.1,0.1c-0.1,0.1-0.4,0.1-0.5,0.2L41.8,42.2z M42.7,41.7c0.1,0,0.2-0.1,0.5-0.1
					v0.1c-0.2,0.1-0.4,0.1-0.5,0.1V41.7z M43.8,41.5c0.1,0,0.4-0.1,0.5-0.1v0.1c-0.1,0-0.4,0.1-0.5,0.1V41.5z"/>
			</g>
			<g>
				<path class="st3" d="M44.8,41.2c0.1,0,0.1,0,0.2-0.1L44.9,41c-0.1,0-0.1,0-0.2,0.1L44.8,41.2z"/>
			</g>
		</g>
		<g id="XMLID_5055_">
			<g>
				<rect x="39" y="54.2" transform="matrix(0.207 -0.9783 0.9783 0.207 -22.1963 81.2747)" class="st3" width="0.1" height="0.2"/>
			</g>
			<g>
				<path class="st3" d="M37.9,54.1V54l0.5,0.1v0.1L37.9,54.1z M36.8,53.9v-0.1l0.5,0.1V54L36.8,53.9z M35.7,53.6v-0.1l0.5,0.1v0.1
					L35.7,53.6z M34.7,53.4v-0.1l0.5,0.1v0.1L34.7,53.4z M33.6,53.2V53l0.5,0.1v0.1L33.6,53.2z M32.5,52.9v-0.1l0.5,0.1V53
					L32.5,52.9z M31.5,52.8v-0.1c0.1,0,0.4,0.1,0.5,0.1v0.1C31.9,52.8,31.6,52.8,31.5,52.8z M30.4,52.4v-0.1c0.1,0,0.4,0.1,0.5,0.1
					v0.1C30.8,52.5,30.6,52.5,30.4,52.4z M29.4,52.2V52c0.1,0,0.4,0.1,0.5,0.1v0.1C29.7,52.3,29.5,52.3,29.4,52.2z M28.3,51.9v-0.1
					c0.1,0,0.4,0.1,0.5,0.1V52C28.7,52,28.4,52,28.3,51.9z M27.2,51.7v-0.1c0.1,0,0.4,0.1,0.5,0.1v0.1
					C27.6,51.8,27.5,51.7,27.2,51.7z M26.2,51.4v-0.1c0.1,0,0.4,0.1,0.5,0.1v0.1C26.5,51.4,26.3,51.4,26.2,51.4z M25.5,51.2
					L25.5,51.2L25.5,51.2c0,0-0.1-0.1-0.2-0.4l0.1-0.1c0.1,0.1,0.1,0.2,0.1,0.2s0.1,0,0.1,0.1L25.5,51.2
					C25.6,51.2,25.5,51.2,25.5,51.2z M24.7,49.8l0.1-0.1c0.1,0.1,0.1,0.4,0.2,0.5L25,50.3C24.9,50.2,24.9,50,24.7,49.8z M24.3,48.9
					l0.1-0.1c0.1,0.1,0.1,0.4,0.2,0.5l-0.1,0.1C24.5,49.2,24.4,49,24.3,48.9z M23.9,47.9H24c0,0.1,0.1,0.4,0.2,0.5l-0.1,0.1
					C24,48.1,24,48,23.9,47.9z M23.6,46.8h0.1c0,0.1,0.1,0.4,0.1,0.5h-0.1C23.6,47.1,23.6,47,23.6,46.8z M23.3,45.8h0.1
					c0,0.1,0.1,0.4,0.1,0.5h-0.1C23.4,46,23.4,45.9,23.3,45.8z M23,44.7h0.1c0,0.1,0.1,0.4,0.1,0.5h-0.1C23.1,45,23,44.8,23,44.7z
					 M22.8,43.6h0.1c0,0.1,0.1,0.4,0.1,0.5h-0.1C22.9,43.9,22.9,43.8,22.8,43.6z M22.7,42.5h0.1c0,0.1,0,0.4,0.1,0.5h-0.1
					C22.8,42.8,22.7,42.7,22.7,42.5z"/>
			</g>
			<g>
				<path class="st3" d="M22.7,42h0.1c0-0.1,0-0.1,0-0.2h-0.1C22.5,41.8,22.7,42,22.7,42z"/>
			</g>
		</g>
		<g id="XMLID_5054_">
			
				<rect x="24.8" y="51.2" transform="matrix(0.805 -0.5932 0.5932 0.805 -25.5379 24.8839)" class="st3" width="0.5" height="0.1"/>
		</g>
	</g>
	<g id="XMLID_5052_">
		<path class="st1" d="M47.7,22.4c0,0-5.3-0.4-6.9,0.4c-1.6,0.7-2.5,2.2-3.1,4.1c-0.4,1.1-0.5,1.1-1,1.8c0,0,0.9-3.1,1.2-3.8
			C38.4,24.1,39.1,20.9,47.7,22.4z"/>
	</g>
	<g id="XMLID_5051_">
		<path class="st1" d="M48.1,22.5c0,0,1.2,0.5,1,2.8c-0.2,2.5-2.2,7-5.8,11.9C43.3,37.3,48.9,29.3,48.1,22.5z"/>
	</g>
	<g id="XMLID_5050_">
		<path class="st3" d="M43.8,40.5l0.5-0.2l0.1,0.1l-0.5,0.2L43.8,40.5z M44.8,40.1l0.5-0.2l0.1,0.1l-0.5,0.2L44.8,40.1z M45.8,39.7
			l0.5-0.2l0.1,0.1l-0.5,0.2L45.8,39.7z M46.8,39.3l0.5-0.2l0.1,0.1l-0.5,0.2L46.8,39.3z M47.7,38.9l0.5-0.2l0.1,0.1L47.9,39
			L47.7,38.9z M48.7,38.5l0.5-0.2l0.1,0.1l-0.5,0.2L48.7,38.5z M55.5,38.4l0.1-0.1l0.5,0.2L56,38.6L55.5,38.4z M49.7,38.1l0.5-0.2
			l0.1,0.1l-0.5,0.2L49.7,38.1z M54.5,37.9l0.1-0.1l0.5,0.2L55,38.1L54.5,37.9z M50.7,37.7l0.5-0.2l0.1,0.1l-0.5,0.2L50.7,37.7z
			 M53.6,37.3l0.1-0.1l0.5,0.2l-0.1,0.1L53.6,37.3z M51.7,37.3l0.5-0.2l0.1,0.1l-0.5,0.2L51.7,37.3z M52.9,36.9L52.8,37l-0.1-0.1
			l0.2-0.1l0.2,0.1L53,37L52.9,36.9z"/>
	</g>
	<g id="XMLID_5049_">
		<path class="st3" d="M52.8,36.9v-0.5h0.1v0.5H52.8z M52.9,35.8v-0.5H53v0.5H52.9z M52.9,34.7v-0.5H53v0.5H52.9z M53,33.7v-0.5h0.1
			v0.5H53z M53,32.6v-0.5h0.1v0.5H53z"/>
	</g>
</g>
</svg>
