<?xml version="1.0" encoding="utf-8"?>
<!-- Generator: Adobe Illustrator 21.0.0, SVG Export Plug-In . SVG Version: 6.00 Build 0)  -->
<svg version="1.1" id="Layer_1" xmlns="http://www.w3.org/2000/svg" xmlns:xlink="http://www.w3.org/1999/xlink" x="0px" y="0px"
	 viewBox="0 0 80 80" style="enable-background:new 0 0 80 80;" xml:space="preserve">
<style type="text/css">
	.st0{fill:#989495;}
	.st1{fill:#565152;}
	.st2{fill:#70696B;}
	.st3{fill:#8A1B51;}
	.st4{fill:#600F3A;}
	.st5{fill:#530E35;}
	.st6{fill:#9B2569;}
	.st7{opacity:0.1;fill:#530E35;}
	.st8{fill:#7F1A51;}
	.st9{fill:#DCD7CC;}
	.st10{fill:#DDD5C3;}
	.st11{fill:#E8E3D4;}
	.st12{fill:#D87FB3;}
	.st13{fill:#D3BB60;}
	.st14{fill:#CD8760;}
</style>
<g id="XMLID_36311_">
	<g id="XMLID_36641_">
		<g id="XMLID_36651_">
			<polygon id="XMLID_36654_" class="st0" points="16.1,52.5 16.1,57.1 18.2,58.3 18.2,53.7 			"/>
			<polygon id="XMLID_36652_" class="st1" points="20.3,52.5 18.2,53.7 18.2,58.3 20.3,57.1 			"/>
		</g>
		<polygon id="XMLID_36650_" class="st0" points="16.1,50.9 16.1,52.5 38.2,65.3 38.2,63.6 		"/>
		<g id="XMLID_36647_">
			<polygon id="XMLID_36649_" class="st0" points="56.2,52.5 56.2,57.1 58.2,58.3 58.2,53.7 			"/>
			<polygon id="XMLID_36648_" class="st1" points="60.3,52.5 58.2,53.7 58.2,58.3 60.3,57.1 			"/>
		</g>
		<polygon id="XMLID_36643_" class="st1" points="60.3,50.9 38.2,63.6 38.2,65.3 60.3,52.5 		"/>
		<polygon id="XMLID_36642_" class="st2" points="38.2,38.1 16.1,50.9 38.2,63.6 60.3,50.9 		"/>
	</g>
	<g id="XMLID_36637_">
		<polygon id="XMLID_36639_" class="st0" points="36.1,64.1 36.1,68.7 38.2,69.9 38.2,65.3 		"/>
		<polygon id="XMLID_36638_" class="st1" points="40.3,64.1 38.2,65.3 38.2,69.9 40.3,68.7 		"/>
	</g>
	<polygon id="XMLID_36636_" class="st3" points="21,44.9 21,49.8 39.5,60.4 39.5,55.5 	"/>
	<path id="XMLID_36635_" class="st4" d="M37.7,10.3c0.2-0.2,0.6-0.2,0.9,0l0.9,0.5c0.2,0.1,0.3,0.2,0.4,0.3c1.4,1,2.2,2.6,2.2,4.3
		v20.3L20,48.4L15.7,23L37.7,10.3z"/>
	<path id="XMLID_42180_" class="st4" d="M37.7,10.3c0.2-0.2,0.6-0.2,0.9,0l0.9,0.5c0.2,0.1,0.3,0.2,0.4,0.3c1.4,1,2.2,2.6,2.2,4.3
		v20.3L20,48.4"/>
	<path id="XMLID_42179_" class="st5" d="M37.7,10.3c0.2-0.2,0.6-0.2,0.9,0l0.9,0.5c0.2,0.1,0.3,0.2,0.4,0.3c1.4,1,2.2,2.6,2.2,4.3
		v20.3L20,48.4"/>
	<path id="XMLID_36634_" class="st6" d="M42.9,28.5c0.2-0.1,0.5-0.1,0.7,0l16.9,9.8c2.6,1.5,4.1,4.2,4.2,7.1c0,0,0,1,0,1
		c0,1.5-0.8,2.7-1.8,3.4l0,0L40.7,62.6c0,0,0.3-9.1-2.3-10.6L20.9,41.3C20.9,41.3,42.9,28.5,42.9,28.5z"/>
	<path class="st7" d="M42.2,29c-3.9,2.3-21.3,12.3-21.3,12.3L38.5,52c0.9,0.5,1.4,1.9,1.8,3.5h2V29z"/>
	<path id="XMLID_36630_" class="st8" d="M15.2,45.6V23.7c0-0.6,0.7-1,1.2-0.7l1,0.6c1.6,0.9,2.6,2.6,2.6,4.5v18
		c0,0.6,0.3,1.1,0.8,1.4l16.8,9.7L38,59l0.3-1.8l1-1.4L38,56.8l-16.8-9.7c-0.4-0.3-0.6-0.7-0.6-1.1v-4.1c0-0.5,0.6-0.8,1-0.6
		l16.9,9.8c2.6,1.5,4.2,4.2,4.2,7.2v0.9c0,3.1-3.3,5-6,3.5L17.3,51.5c-1.3-0.7-2.1-2.1-2.1-3.6L15.2,45.6L15.2,45.6z"/>
	<g id="XMLID_36624_">
		<path id="XMLID_36629_" class="st9" d="M31.4,34.8c0,0-1.3-1.4-0.2-2c1.1-0.6,1.5,1.8,1.3,1.7C31.9,34.3,31.4,34.8,31.4,34.8z"/>
		<path id="XMLID_36628_" class="st9" d="M31.2,36.2c0,0-0.4-0.7,0.1-1.3c0,0-2-0.8-2.1,0.5C29.1,36,29.6,36.7,31.2,36.2z"/>
		<path id="XMLID_36627_" class="st9" d="M32.7,34.5c0,0,0.7,0.3,0.9,1c0,0,1.7-0.8,0.9-1.7C34.6,33.8,34,33,32.7,34.5z"/>
		<path id="XMLID_36625_" class="st9" d="M33.6,35.7c0,0-0.1,0.7-0.7,1.1c0,0,1.1,1.4,1.8,0.5C34.7,37.2,35.3,36.5,33.6,35.7z"/>
	</g>
	<g id="XMLID_36315_">
		<g id="XMLID_36621_">
			<path id="XMLID_36623_" class="st10" d="M23.1,40.5c0.6,0.4,1.4-3.7,1.1-8.5c-0.1-1.6,0.2-3.4-0.1-5.2c-0.3-1.9-2-3.5-2-3.5
				c-0.2-0.1-0.6,0-0.6,0.5c0,0,0.7,5.6,0.9,9.2C22.6,36.6,22.9,40.4,23.1,40.5z"/>
			<path id="XMLID_36622_" class="st11" d="M38.9,38.1c0.1,0.3-0.2,0.6-0.5,0.6c-1.3,0-5.8,0.2-7.5,0.7c-2.8,0.7-5.9,1-7.1,1.4
				c-0.3,0.1-0.6,0-0.7-0.3c-0.3-1.6,1-4.5,0.8-8.4c-0.1-1.4-0.9-4.1-1.1-5.2c-0.3-1.7-0.8-2.5-1.1-3.2c-0.1-0.3,0.2-0.5,0.4-0.4
				c1.5,0.5,4.6,1,6.8,1.1c1.4,0.1,3.6-0.3,4.2-0.4c1.4-0.2,2.5,0.1,3.3,0.6c0.4,0.3,0.5,1.3,0.4,1.5c-0.1,1-0.2,2.8,0.4,5.9
				C37.7,34.9,38.6,37.1,38.9,38.1z"/>
		</g>
		<g id="XMLID_36317_">
			<g id="XMLID_36611_">
				<path id="XMLID_36620_" class="st9" d="M26,32.4c0,0-1.7-0.5-1.1-1.5c0.6-1,2,0.6,1.8,0.7C26.2,31.8,26,32.4,26,32.4z"/>
				<path id="XMLID_36616_" class="st9" d="M26.6,33.6c0,0-0.7-0.3-0.6-1c0,0-1.9,0.3-1.4,1.4C24.9,34.5,25.5,34.8,26.6,33.6z"/>
				<path id="XMLID_36615_" class="st9" d="M28,33.3c0,0-0.6,0.5-1.2,0.4c0,0,0,1.7,1.1,1.5C27.8,35.2,28.7,35,28,33.3z"/>
				<path id="XMLID_36614_" class="st9" d="M26.9,31.6c0,0,0.7-0.1,1.2,0.3c0,0,0.9-1.4-0.1-1.8C28,30.1,27.2,29.8,26.9,31.6z"/>
				<path id="XMLID_36612_" class="st9" d="M28.2,32c0,0,0.2,0.6,0,1.2c0,0,1.5,0.5,1.7-0.5C29.8,32.7,29.9,31.9,28.2,32z"/>
			</g>
			<g id="XMLID_36602_">
				<path id="XMLID_36610_" class="st9" d="M27.7,27.2c0,0-1.4-0.4-0.9-1.2c0.5-0.8,1.7,0.5,1.5,0.6C27.8,26.7,27.7,27.2,27.7,27.2z
					"/>
				<path id="XMLID_36609_" class="st9" d="M28.1,28.1c0,0-0.5-0.3-0.4-0.8c0,0-1.6,0.2-1.1,1.2C26.7,28.8,27.2,29.1,28.1,28.1z"/>
				<path id="XMLID_36608_" class="st9" d="M29.3,27.9c0,0-0.5,0.4-1,0.3c0,0,0,1.4,0.9,1.2C29.1,29.4,29.9,29.3,29.3,27.9z"/>
				<path id="XMLID_36607_" class="st9" d="M28.4,26.5c0,0,0.6-0.1,1,0.3c0,0,0.7-1.1-0.1-1.5C29.3,25.3,28.6,25,28.4,26.5z"/>
				<path id="XMLID_36603_" class="st9" d="M29.4,26.8c0,0,0.2,0.5,0,1c0,0,1.3,0.4,1.3-0.4C30.7,27.4,30.8,26.7,29.4,26.8z"/>
			</g>
			<g id="XMLID_36593_">
				<path id="XMLID_36601_" class="st9" d="M34.6,30c0,0-1.4-0.4-0.9-1.2c0.5-0.8,1.7,0.5,1.5,0.6C34.7,29.5,34.6,30,34.6,30z"/>
				<path id="XMLID_36600_" class="st9" d="M35,31c0,0-0.5-0.3-0.4-0.8c0,0-1.6,0.2-1.1,1.2C33.6,31.7,34.2,31.9,35,31z"/>
				<path id="XMLID_36598_" class="st9" d="M36.2,30.7c0,0-0.5,0.4-1,0.3c0,0,0,1.4,0.9,1.2C36.1,32.2,36.8,32.1,36.2,30.7z"/>
				<path id="XMLID_36597_" class="st9" d="M35.3,29.3c0,0,0.6-0.1,1,0.3c0,0,0.7-1.1-0.1-1.5C36.2,28.1,35.5,27.8,35.3,29.3z"/>
				<g id="XMLID_36594_">
					<path id="XMLID_36596_" class="st9" d="M31.6,37.3c0,0-0.8,1.4-0.3,2.1c0.4-0.1,0.9-0.2,1.5-0.2c0.2-0.3,0.3-0.8,0.4-1.5
						C33.2,37.7,32.3,37.8,31.6,37.3z"/>
					<path id="XMLID_36595_" class="st9" d="M36.3,29.7c0,0,0.2,0.5,0,1c0,0,0.4,0.1,0.8,0.1c-0.1-0.4-0.1-0.8-0.1-1.1
						C36.8,29.7,36.6,29.7,36.3,29.7z"/>
				</g>
			</g>
			<g id="XMLID_36583_">
				<path id="XMLID_36589_" class="st12" d="M26.5,26c0,0-0.9-0.2-0.6-0.7c0.3-0.5,1,0.3,0.9,0.3C26.6,25.7,26.5,26,26.5,26z"/>
				<path id="XMLID_36588_" class="st12" d="M26.8,26.6c0,0-0.3-0.2-0.3-0.5c0,0-1,0.1-0.7,0.7C26,27,26.3,27.1,26.8,26.6z"/>
				<path id="XMLID_36587_" class="st12" d="M27.5,26.4c0,0-0.3,0.2-0.6,0.2c0,0,0,0.9,0.5,0.7C27.4,27.3,27.9,27.3,27.5,26.4z"/>
				<path id="XMLID_36585_" class="st12" d="M27,25.5c0,0,0.3,0,0.6,0.2c0,0,0.5-0.7-0.1-0.9C27.5,24.8,27.1,24.6,27,25.5z"/>
				<path id="XMLID_36584_" class="st12" d="M27.6,25.8c0,0,0.1,0.3,0,0.6c0,0,0.8,0.3,0.8-0.3C28.4,26.1,28.5,25.7,27.6,25.8z"/>
			</g>
			<g id="XMLID_36574_">
				<path id="XMLID_36582_" class="st12" d="M30.5,27.3c0,0-0.4-0.7,0.1-0.8c0.5-0.1,0.4,0.9,0.3,0.8C30.8,27.2,30.5,27.3,30.5,27.3
					z"/>
				<path id="XMLID_36581_" class="st12" d="M30.3,27.9c0,0-0.1-0.3,0.2-0.5c0,0-0.7-0.5-0.9,0C29.5,27.6,29.6,27.9,30.3,27.9z"/>
				<path id="XMLID_36580_" class="st12" d="M30.9,28.2c0,0-0.3,0-0.5-0.3c0,0-0.6,0.5-0.1,0.8C30.2,28.7,30.5,29,30.9,28.2z"/>
				<path id="XMLID_36576_" class="st12" d="M31.1,27.3c0,0,0.2,0.2,0.3,0.5c0,0,0.7-0.1,0.5-0.6C31.9,27.2,31.8,26.9,31.1,27.3z"/>
				<path id="XMLID_36575_" class="st12" d="M31.3,27.9c0,0-0.1,0.3-0.4,0.4c0,0,0.3,0.7,0.7,0.4C31.6,28.6,31.9,28.4,31.3,27.9z"/>
			</g>
			<g id="XMLID_36564_">
				<path id="XMLID_36573_" class="st12" d="M31,36.6c0,0-0.5-0.8,0.2-1c0.6-0.2,0.5,1,0.4,1C31.3,36.4,31,36.6,31,36.6z"/>
				<path id="XMLID_36572_" class="st12" d="M30.7,37.3c0,0-0.1-0.4,0.2-0.6c0,0-0.8-0.6-1.1,0C29.7,36.9,29.8,37.3,30.7,37.3z"/>
				<path id="XMLID_36571_" class="st12" d="M31.3,37.7c0,0-0.4,0-0.6-0.3c0,0-0.7,0.6-0.2,1C30.6,38.3,31,38.6,31.3,37.7z"/>
				<path id="XMLID_36569_" class="st12" d="M31.6,36.6c0,0,0.3,0.2,0.3,0.6c0,0,0.9-0.2,0.7-0.7C32.6,36.5,32.4,36,31.6,36.6z"/>
				<path id="XMLID_36568_" class="st12" d="M31.9,37.3c0,0-0.2,0.3-0.5,0.4c0,0,0.4,0.8,0.8,0.4C32.2,38.2,32.6,37.9,31.9,37.3z"/>
			</g>
			<g id="XMLID_36554_">
				<path id="XMLID_36563_" class="st12" d="M36.9,37.2c0,0-0.3-0.6,0.1-0.8c0.5-0.1,0.4,0.8,0.3,0.7C37.2,37,36.9,37.2,36.9,37.2z"
					/>
				<path id="XMLID_36562_" class="st12" d="M36.8,37.7c0,0-0.1-0.3,0.1-0.4c0,0-0.6-0.5-0.8,0C36,37.4,36.1,37.7,36.8,37.7z"/>
				<path id="XMLID_36560_" class="st12" d="M37.2,38c0,0-0.3,0-0.5-0.3c0,0-0.5,0.5-0.1,0.7C36.6,38.5,36.9,38.7,37.2,38z"/>
				<path id="XMLID_36559_" class="st12" d="M37.4,37.2c0,0,0.2,0.2,0.2,0.4c0,0,0.7-0.1,0.5-0.5C38.2,37.1,38,36.8,37.4,37.2z"/>
				<path id="XMLID_36555_" class="st12" d="M37.7,37.7c0,0-0.1,0.3-0.4,0.3c0,0,0.3,0.6,0.6,0.3C37.9,38.3,38.2,38.1,37.7,37.7z"/>
			</g>
			<g id="XMLID_36547_">
				<path id="XMLID_36553_" class="st13" d="M29.9,30.7c0,0-1.1-0.3-0.7-1c0.4-0.7,1.3,0.4,1.2,0.5C30,30.3,29.9,30.7,29.9,30.7z"/>
				<path id="XMLID_36552_" class="st13" d="M30.3,31.4c0,0-0.4-0.2-0.4-0.7c0,0-1.2,0.2-0.9,0.9C29.1,32,29.6,32.2,30.3,31.4z"/>
				<path id="XMLID_36550_" class="st13" d="M31.1,31.2c0,0-0.4,0.3-0.8,0.2c0,0,0,1.1,0.7,1C31.1,32.4,31.7,32.3,31.1,31.2z"/>
				<path id="XMLID_36549_" class="st13" d="M30.5,30.1c0,0,0.5,0,0.8,0.2c0,0,0.6-0.9-0.1-1.2C31.2,29.2,30.6,28.9,30.5,30.1z"/>
				<path id="XMLID_36548_" class="st13" d="M31.3,30.4c0,0,0.2,0.4,0,0.8c0,0,1,0.3,1.1-0.3C32.3,30.9,32.4,30.3,31.3,30.4z"/>
			</g>
			<g id="XMLID_36537_">
				<path id="XMLID_36546_" class="st13" d="M25,38.6c0,0-0.8-0.2-0.6-0.7c0.3-0.5,1,0.3,0.9,0.3C25.1,38.3,25,38.6,25,38.6z"/>
				<path id="XMLID_36545_" class="st13" d="M25.3,39.2c0,0-0.3-0.2-0.3-0.5c0,0-0.9,0.1-0.7,0.7C24.4,39.6,24.7,39.8,25.3,39.2z"/>
				<path id="XMLID_36541_" class="st13" d="M25.9,39.1c0,0-0.3,0.2-0.6,0.2c0,0,0,0.8,0.5,0.7C25.9,40,26.3,39.9,25.9,39.1z"/>
				<path id="XMLID_36540_" class="st13" d="M25.4,38.2c0,0,0.3,0,0.6,0.2c0,0,0.4-0.7,0-0.9C25.9,37.5,25.5,37.3,25.4,38.2z"/>
				<path id="XMLID_36539_" class="st13" d="M26,38.4c0,0,0.1,0.3,0,0.6c0,0,0.7,0.2,0.8-0.3C26.8,38.8,26.9,38.3,26,38.4z"/>
			</g>
			<g id="XMLID_36528_">
				<path id="XMLID_36536_" class="st12" d="M25.7,31.8c0,0-1.1-0.3-0.7-0.9c0.4-0.6,1.2,0.4,1.1,0.4C25.8,31.4,25.7,31.8,25.7,31.8
					z"/>
				<path id="XMLID_36535_" class="st12" d="M26,32.5c0,0-0.4-0.2-0.3-0.6c0,0-1.2,0.2-0.8,0.9C25,33,25.4,33.2,26,32.5z"/>
				<path id="XMLID_36534_" class="st12" d="M26.9,32.3c0,0-0.3,0.3-0.7,0.2c0,0,0,1.1,0.7,0.9C26.8,33.5,27.3,33.4,26.9,32.3z"/>
				<path id="XMLID_36533_" class="st12" d="M26.2,31.3c0,0,0.4,0,0.7,0.2c0,0,0.6-0.9-0.1-1.1C26.9,30.4,26.4,30.2,26.2,31.3z"/>
				<path id="XMLID_36532_" class="st12" d="M27,31.5c0,0,0.1,0.4,0,0.7c0,0,0.9,0.3,1-0.3C28,32,28.1,31.4,27,31.5z"/>
			</g>
			<g id="XMLID_36518_">
				<path id="XMLID_36527_" class="st12" d="M34.4,32c0,0-0.9-0.2-0.6-0.8c0.3-0.6,1.1,0.3,1,0.4C34.5,31.7,34.4,32,34.4,32z"/>
				<path id="XMLID_36526_" class="st12" d="M34.7,32.6c0,0-0.4-0.2-0.3-0.5c0,0-1,0.2-0.7,0.8C33.7,33.1,34.1,33.3,34.7,32.6z"/>
				<path id="XMLID_36525_" class="st12" d="M35.4,32.5c0,0-0.3,0.2-0.7,0.2c0,0,0,0.9,0.6,0.8C35.3,33.5,35.8,33.4,35.4,32.5z"/>
				<path id="XMLID_36523_" class="st12" d="M34.8,31.5c0,0,0.4,0,0.6,0.2c0,0,0.5-0.8-0.1-1C35.4,30.8,35,30.6,34.8,31.5z"/>
				<path id="XMLID_36522_" class="st12" d="M35.5,31.8c0,0,0.1,0.3,0,0.6c0,0,0.8,0.3,0.9-0.3C36.4,32.1,36.4,31.7,35.5,31.8z"/>
			</g>
			<g id="XMLID_36508_">
				<path id="XMLID_36517_" class="st13" d="M34.2,36.1c0,0-0.9-0.2-0.6-0.8c0.3-0.6,1.1,0.3,1,0.4C34.3,35.7,34.2,36.1,34.2,36.1z"
					/>
				<path id="XMLID_36516_" class="st13" d="M34.5,36.7c0,0-0.4-0.2-0.3-0.6c0,0-1,0.2-0.7,0.8C33.5,37.2,33.9,37.3,34.5,36.7z"/>
				<path id="XMLID_36514_" class="st13" d="M35.2,36.6c0,0-0.3,0.2-0.7,0.2c0,0,0,0.9,0.6,0.8C35.1,37.6,35.6,37.5,35.2,36.6z"/>
				<path id="XMLID_36513_" class="st13" d="M34.6,35.6c0,0,0.4,0,0.6,0.2c0,0,0.5-0.8-0.1-1C35.2,34.8,34.8,34.6,34.6,35.6z"/>
				<path id="XMLID_36509_" class="st13" d="M35.3,35.9c0,0,0.1,0.3,0,0.7c0,0,0.8,0.3,0.9-0.3C36.2,36.2,36.3,35.8,35.3,35.9z"/>
			</g>
			<g id="XMLID_36502_">
				<path id="XMLID_36507_" class="st13" d="M28.5,34.3c0,0-0.8-0.2-0.5-0.7c0.3-0.5,1,0.3,0.9,0.3C28.6,34,28.5,34.3,28.5,34.3z"/>
				<path id="XMLID_36506_" class="st13" d="M28.8,34.9c0,0-0.3-0.2-0.3-0.5c0,0-0.9,0.1-0.7,0.7C28,35.3,28.3,35.4,28.8,34.9z"/>
				<path id="XMLID_36505_" class="st13" d="M29.5,34.7c0,0-0.3,0.2-0.6,0.2c0,0,0,0.8,0.5,0.7C29.4,35.6,29.8,35.5,29.5,34.7z"/>
				<path id="XMLID_36504_" class="st13" d="M29,33.9c0,0,0.3,0,0.6,0.2c0,0,0.4-0.7,0-0.9C29.5,33.2,29.1,33,29,33.9z"/>
				<path id="XMLID_36503_" class="st13" d="M29.6,34.1c0,0,0.1,0.3,0,0.6c0,0,0.7,0.2,0.8-0.3C30.3,34.4,30.4,34,29.6,34.1z"/>
			</g>
			<g id="XMLID_36491_">
				<path id="XMLID_36501_" class="st14" d="M31.8,34c0,0-0.8-0.2-0.5-0.7c0.3-0.5,1,0.3,0.9,0.3C31.9,33.7,31.8,34,31.8,34z"/>
				<path id="XMLID_36500_" class="st14" d="M32.1,34.5c0,0-0.3-0.2-0.3-0.5c0,0-0.9,0.1-0.7,0.7C31.3,34.9,31.6,35.1,32.1,34.5z"/>
				<path id="XMLID_36499_" class="st14" d="M32.8,34.4c0,0-0.3,0.2-0.6,0.2c0,0,0,0.8,0.5,0.7C32.7,35.3,33.1,35.2,32.8,34.4z"/>
				<path id="XMLID_36498_" class="st14" d="M32.2,33.5c0,0,0.3,0,0.6,0.2c0,0,0.4-0.7,0-0.9C32.8,32.8,32.4,32.7,32.2,33.5z"/>
				<path id="XMLID_36496_" class="st14" d="M32.8,33.8c0,0,0.1,0.3,0,0.6c0,0,0.7,0.2,0.8-0.3C33.6,34.1,33.7,33.7,32.8,33.8z"/>
			</g>
			<g id="XMLID_36473_">
				<path id="XMLID_36486_" class="st14" d="M25.3,35.4c0,0-0.8-0.2-0.5-0.7c0.3-0.5,1,0.3,0.9,0.3C25.4,35.1,25.3,35.4,25.3,35.4z"
					/>
				<path id="XMLID_36485_" class="st14" d="M25.6,36c0,0-0.3-0.2-0.3-0.5c0,0-0.9,0.1-0.7,0.7C24.8,36.4,25.1,36.6,25.6,36z"/>
				<path id="XMLID_36480_" class="st14" d="M26.3,35.9c0,0-0.3,0.2-0.6,0.2c0,0,0,0.8,0.5,0.7C26.2,36.8,26.6,36.7,26.3,35.9z"/>
				<path id="XMLID_36475_" class="st14" d="M25.7,35c0,0,0.3,0,0.6,0.2c0,0,0.4-0.7,0-0.9C26.3,34.3,25.9,34.2,25.7,35z"/>
				<path id="XMLID_36474_" class="st14" d="M26.3,35.3c0,0,0.1,0.3,0,0.6c0,0,0.7,0.2,0.8-0.3C27.1,35.6,27.2,35.2,26.3,35.3z"/>
			</g>
			<g id="XMLID_36450_">
				<path id="XMLID_36471_" class="st14" d="M28.3,38.3c0,0-0.6-0.2-0.4-0.5c0.2-0.4,0.7,0.2,0.6,0.2C28.4,38.1,28.3,38.3,28.3,38.3
					z"/>
				<path id="XMLID_36466_" class="st14" d="M28.5,38.7c0,0-0.2-0.1-0.2-0.4c0,0-0.7,0.1-0.5,0.5C27.9,39,28.1,39.1,28.5,38.7z"/>
				<path id="XMLID_36461_" class="st14" d="M29,38.6c0,0-0.2,0.2-0.4,0.1c0,0,0,0.6,0.4,0.5C28.9,39.2,29.3,39.2,29,38.6z"/>
				<path id="XMLID_36460_" class="st14" d="M28.6,38c0,0,0.2,0,0.4,0.1c0,0,0.3-0.5,0-0.6C29,37.5,28.7,37.4,28.6,38z"/>
				<path id="XMLID_36455_" class="st14" d="M29.1,38.2c0,0,0.1,0.2,0,0.4c0,0,0.5,0.2,0.6-0.2C29.6,38.4,29.7,38.1,29.1,38.2z"/>
			</g>
			<g id="XMLID_36435_">
				<path id="XMLID_36449_" class="st13" d="M24.5,28.2c0,0-0.7-0.2-0.5-0.7c0.3-0.4,0.9,0.3,0.8,0.3C24.5,27.9,24.5,28.2,24.5,28.2
					z"/>
				<path id="XMLID_36448_" class="st13" d="M24.7,28.7c0,0-0.3-0.1-0.2-0.4c0,0-0.8,0.1-0.6,0.6C24,29.1,24.2,29.2,24.7,28.7z"/>
				<path id="XMLID_36446_" class="st13" d="M25.3,28.6c0,0-0.2,0.2-0.5,0.2c0,0,0,0.8,0.5,0.6C25.2,29.4,25.6,29.3,25.3,28.6z"/>
				<path id="XMLID_36441_" class="st13" d="M24.8,27.8c0,0,0.3,0,0.5,0.2c0,0,0.4-0.6,0-0.8C25.3,27.2,25,27,24.8,27.8z"/>
				<path id="XMLID_36436_" class="st13" d="M25.4,28c0,0,0.1,0.3,0,0.5c0,0,0.7,0.2,0.7-0.2C26.1,28.3,26.1,28,25.4,28z"/>
			</g>
			<g id="XMLID_36420_">
				<path id="XMLID_36430_" class="st14" d="M33.3,29.2c0,0-0.8-0.2-0.5-0.7c0.3-0.5,1,0.3,0.9,0.3C33.3,28.9,33.3,29.2,33.3,29.2z"
					/>
				<path id="XMLID_36425_" class="st14" d="M33.5,29.8c0,0-0.3-0.2-0.3-0.5c0,0-0.9,0.1-0.7,0.7C32.7,30.2,33,30.3,33.5,29.8z"/>
				<path id="XMLID_36424_" class="st14" d="M34.2,29.6c0,0-0.3,0.2-0.6,0.2c0,0,0,0.8,0.5,0.7C34.1,30.5,34.6,30.5,34.2,29.6z"/>
				<path id="XMLID_36423_" class="st14" d="M33.7,28.8c0,0,0.3,0,0.6,0.2c0,0,0.4-0.7,0-0.9C34.2,28.1,33.8,27.9,33.7,28.8z"/>
				<path id="XMLID_36422_" class="st14" d="M34.3,29c0,0,0.1,0.3,0,0.6c0,0,0.7,0.2,0.8-0.3C35.1,29.3,35.1,28.9,34.3,29z"/>
			</g>
			<g id="XMLID_36406_">
				<path id="XMLID_36418_" class="st14" d="M23.6,25.2c0,0-0.8-0.2-0.5-0.7c0.3-0.5,1,0.3,0.9,0.3C23.6,24.9,23.6,25.2,23.6,25.2z"
					/>
				<path id="XMLID_36414_" class="st14" d="M23.8,25.8c0,0-0.3-0.2-0.3-0.5c0,0-0.9,0.1-0.7,0.7C23,26.2,23.3,26.4,23.8,25.8z"/>
				<path id="XMLID_36413_" class="st14" d="M24.5,25.7c0,0-0.3,0.2-0.6,0.2c0,0,0,0.8,0.5,0.7C24.4,26.6,24.9,26.5,24.5,25.7z"/>
				<path id="XMLID_36411_" class="st14" d="M24,24.8c0,0,0.3,0,0.6,0.2c0,0,0.4-0.7,0-0.9C24.5,24.1,24.1,24,24,24.8z"/>
				<path id="XMLID_36407_" class="st14" d="M24.6,25.1c0,0,0.1,0.3,0,0.6c0,0,0.7,0.2,0.8-0.3C25.4,25.4,25.4,25,24.6,25.1z"/>
			</g>
			<g id="XMLID_36392_">
				<path id="XMLID_36405_" class="st13" d="M29.2,25.5c0,0-0.6-0.2-0.4-0.5c0.2-0.3,0.7,0.2,0.6,0.2C29.3,25.3,29.2,25.5,29.2,25.5
					z"/>
				<path id="XMLID_36403_" class="st13" d="M29.4,25.9c0,0-0.2-0.1-0.2-0.3c0,0-0.6,0.1-0.5,0.5C28.9,26.1,29.1,26.2,29.4,25.9z"/>
				<path id="XMLID_36399_" class="st13" d="M29.9,25.8c0,0-0.2,0.2-0.4,0.1c0,0,0,0.6,0.4,0.5C29.8,26.4,30.1,26.3,29.9,25.8z"/>
				<path id="XMLID_36398_" class="st13" d="M29.5,25.2c0,0,0.2,0,0.4,0.1c0,0,0.3-0.5,0-0.6C29.9,24.7,29.6,24.6,29.5,25.2z"/>
				<path id="XMLID_36396_" class="st13" d="M29.9,25.3c0,0,0.1,0.2,0,0.4c0,0,0.5,0.2,0.5-0.2C30.5,25.6,30.5,25.3,29.9,25.3z"/>
			</g>
			<g id="XMLID_36381_">
				<path id="XMLID_36391_" class="st14" d="M27.4,28.8c0,0-0.8-0.2-0.5-0.7c0.3-0.5,1,0.3,0.9,0.3C27.5,28.5,27.4,28.8,27.4,28.8z"
					/>
				<path id="XMLID_36390_" class="st14" d="M27.7,29.4c0,0-0.3-0.2-0.3-0.5c0,0-0.9,0.1-0.7,0.7C26.8,29.8,27.1,29.9,27.7,29.4z"/>
				<path id="XMLID_36389_" class="st14" d="M28.3,29.2c0,0-0.3,0.2-0.6,0.2c0,0,0,0.8,0.5,0.7C28.3,30.1,28.7,30.1,28.3,29.2z"/>
				<path id="XMLID_36387_" class="st14" d="M27.8,28.4c0,0,0.3,0,0.6,0.2c0,0,0.4-0.7,0-0.9C28.3,27.7,27.9,27.5,27.8,28.4z"/>
				<path id="XMLID_36385_" class="st14" d="M28.4,28.6c0,0,0.1,0.3,0,0.6c0,0,0.7,0.2,0.8-0.3C29.2,29,29.3,28.5,28.4,28.6z"/>
			</g>
			<g id="XMLID_36370_">
				<path id="XMLID_36380_" class="st14" d="M32.6,25.5c0,0-0.8-0.2-0.5-0.7c0.3-0.5,1,0.3,0.9,0.3C32.7,25.2,32.6,25.5,32.6,25.5z"
					/>
				<path id="XMLID_36378_" class="st14" d="M32.9,26.1c0,0-0.3-0.2-0.3-0.5c0,0-0.9,0.1-0.7,0.7C32,26.5,32.3,26.7,32.9,26.1z"/>
				<path id="XMLID_36374_" class="st14" d="M33.5,26c0,0-0.3,0.2-0.6,0.2c0,0,0,0.8,0.5,0.7C33.5,26.9,33.9,26.8,33.5,26z"/>
				<path id="XMLID_36373_" class="st14" d="M33,25.1c0,0,0.3,0,0.6,0.2c0,0,0.4-0.7,0-0.9C33.5,24.4,33.1,24.3,33,25.1z"/>
				<path id="XMLID_36372_" class="st14" d="M33.6,25.4c0,0,0.1,0.3,0,0.6c0,0,0.7,0.2,0.8-0.3C34.4,25.7,34.4,25.3,33.6,25.4z"/>
			</g>
			<g id="XMLID_36357_">
				<path id="XMLID_36366_" class="st13" d="M35.2,27.4c0,0-0.6-0.2-0.4-0.5c0.2-0.3,0.7,0.2,0.6,0.2C35.3,27.2,35.2,27.4,35.2,27.4
					z"/>
				<path id="XMLID_36365_" class="st13" d="M35.4,27.8c0,0-0.2-0.1-0.2-0.3c0,0-0.6,0.1-0.5,0.5C34.9,28.1,35.1,28.2,35.4,27.8z"/>
				<path id="XMLID_36363_" class="st13" d="M35.9,27.7c0,0-0.2,0.2-0.4,0.1c0,0,0,0.6,0.4,0.5C35.8,28.3,36.1,28.3,35.9,27.7z"/>
				<path id="XMLID_36359_" class="st13" d="M35.5,27.1c0,0,0.2,0,0.4,0.1c0,0,0.3-0.5,0-0.6C35.9,26.7,35.6,26.6,35.5,27.1z"/>
				<path id="XMLID_36358_" class="st13" d="M35.9,27.3c0,0,0.1,0.2,0,0.4c0,0,0.5,0.2,0.5-0.2C36.5,27.5,36.5,27.2,35.9,27.3z"/>
			</g>
			<g id="XMLID_36345_">
				<path id="XMLID_36356_" class="st12" d="M28,36.3c0,0-0.2-0.5,0.1-0.5c0.3-0.1,0.3,0.6,0.2,0.5C28.2,36.2,28,36.3,28,36.3z"/>
				<path id="XMLID_36354_" class="st12" d="M27.9,36.7c0,0-0.1-0.2,0.1-0.3c0,0-0.4-0.3-0.6,0C27.3,36.5,27.4,36.7,27.9,36.7z"/>
				<path id="XMLID_36352_" class="st12" d="M28.2,36.9c0,0-0.2,0-0.3-0.2c0,0-0.4,0.3-0.1,0.5C27.8,37.2,28,37.4,28.2,36.9z"/>
				<path id="XMLID_36348_" class="st12" d="M28.4,36.3c0,0,0.2,0.1,0.2,0.3c0,0,0.5-0.1,0.4-0.4C28.9,36.2,28.8,36,28.4,36.3z"/>
				<path id="XMLID_36347_" class="st12" d="M28.5,36.7c0,0-0.1,0.2-0.3,0.2c0,0,0.2,0.4,0.4,0.2C28.7,37.1,28.9,37,28.5,36.7z"/>
			</g>
			<g id="XMLID_36332_">
				<path id="XMLID_36341_" class="st14" d="M36.3,34c0,0-0.4-0.1-0.3-0.4c0.1-0.3,0.5,0.2,0.4,0.2C36.4,33.9,36.3,34,36.3,34z"/>
				<path id="XMLID_36340_" class="st14" d="M36.5,34.3c0,0-0.2-0.1-0.1-0.3c0,0-0.5,0.1-0.3,0.4C36,34.6,36.2,34.6,36.5,34.3z"/>
				<path id="XMLID_36339_" class="st14" d="M36.8,34.3c0,0-0.1,0.1-0.3,0.1c0,0,0,0.4,0.3,0.4C36.8,34.7,37,34.7,36.8,34.3z"/>
				<path id="XMLID_36337_" class="st14" d="M36.5,33.8c0,0,0.2,0,0.3,0.1c0,0,0.2-0.3,0-0.4C36.8,33.5,36.6,33.4,36.5,33.8z"/>
				<path id="XMLID_36333_" class="st14" d="M36.8,33.9c0,0,0.1,0.2,0,0.3c0,0,0.4,0.1,0.4-0.1C37.2,34.1,37.3,33.9,36.8,33.9z"/>
			</g>
			<g id="XMLID_36318_">
				<path id="XMLID_36330_" class="st12" d="M35.5,25.2c0,0-0.4-0.1-0.3-0.3c0.1-0.2,0.5,0.1,0.4,0.2C35.5,25.1,35.5,25.2,35.5,25.2
					z"/>
				<path id="XMLID_36326_" class="st12" d="M35.6,25.5c0,0-0.2-0.1-0.1-0.2c0,0-0.5,0.1-0.3,0.3C35.2,25.7,35.4,25.8,35.6,25.5z"/>
				<path id="XMLID_36325_" class="st12" d="M36,25.5c0,0-0.1,0.1-0.3,0.1c0,0,0,0.4,0.3,0.3C35.9,25.9,36.1,25.9,36,25.5z"/>
				<path id="XMLID_36324_" class="st12" d="M35.7,25c0,0,0.2,0,0.3,0.1c0,0,0.2-0.3,0-0.4C36,24.7,35.8,24.6,35.7,25z"/>
				<path id="XMLID_36322_" class="st12" d="M36,25.2c0,0,0.1,0.2,0,0.3c0,0,0.4,0.1,0.4-0.1C36.4,25.3,36.4,25.1,36,25.2z"/>
			</g>
		</g>
	</g>
</g>
</svg>
