<?xml version="1.0" encoding="utf-8"?>
<!-- Generator: Adobe Illustrator 21.0.0, SVG Export Plug-In . SVG Version: 6.00 Build 0)  -->
<svg version="1.1" id="Layer_1" xmlns="http://www.w3.org/2000/svg" xmlns:xlink="http://www.w3.org/1999/xlink" x="0px" y="0px"
	 viewBox="0 0 80 80" style="enable-background:new 0 0 80 80;" xml:space="preserve">
<style type="text/css">
	.st0{fill:#60361A;}
	.st1{fill:#A46637;}
	.st2{fill:#9F5F2C;}
	.st3{fill:#6D401D;}
	.st4{fill:#8C522A;}
	.st5{fill:#7F4925;}
	.st6{fill:#B57243;}
</style>
<g id="XMLID_4917_">
	<g id="XMLID_4955_">
		<polygon id="XMLID_4957_" class="st0" points="38.1,37.5 38.7,52.7 39.6,53.2 39.6,38.4 		"/>
		<polygon id="XMLID_4956_" class="st1" points="41.1,37.5 39.6,38.4 39.6,53.2 40.5,52.7 		"/>
	</g>
	<g id="XMLID_4948_">
		<polygon id="XMLID_4954_" class="st1" points="39.5,41.9 39.5,43 31.8,47.5 31.8,46.4 		"/>
		<polygon id="XMLID_4953_" class="st2" points="38.7,41.4 39.5,41.9 31.8,46.4 31,45.9 		"/>
		<polygon id="XMLID_4952_" class="st3" points="29.2,42.6 29.8,57.8 30.7,58.3 30.7,43.5 		"/>
		<polygon id="XMLID_4951_" class="st4" points="32.2,42.6 30.7,43.5 30.7,58.3 31.6,57.8 		"/>
		<polygon id="XMLID_4950_" class="st3" points="31,46.8 31,47.9 39.8,53 39.8,52 		"/>
		<polygon id="XMLID_4949_" class="st4" points="31.8,46.4 31,46.8 39.8,52 40.6,51.5 		"/>
	</g>
	<g id="XMLID_4940_">
		<g id="XMLID_4943_">
			<polygon id="XMLID_4947_" class="st3" points="47.9,43.1 48.6,58.4 49.4,58.9 49.4,44 			"/>
			<polygon id="XMLID_4946_" class="st4" points="49.1,47.5 49.1,48.6 41.4,53 41.4,52 			"/>
			<polygon id="XMLID_4945_" class="st3" points="48.3,47 49.1,47.5 41.4,52 40.6,51.5 			"/>
			<polygon id="XMLID_4944_" class="st4" points="51,43.1 49.4,44 49.4,58.9 50.3,58.4 			"/>
		</g>
		<polygon id="XMLID_4942_" class="st3" points="39.1,48.3 39.7,63.5 40.6,64 40.6,49.1 		"/>
		<polygon id="XMLID_4941_" class="st4" points="42.1,48.3 40.6,49.1 40.6,64 41.5,63.5 		"/>
	</g>
	<path id="XMLID_4939_" class="st0" d="M29.3,42.2l9.9-5.7c1.7-1,3.7-1,5.4,0l5.2,3c0.8,0.4,1.1,1.2,1.1,2c0,0.3,0,1.4,0,1.7
		c0,0.7-0.4,1.4-1.1,1.8l-9.2,5.3l-11.3-6.5V42.2z"/>
	<path id="XMLID_4938_" class="st0" d="M40.6,36.5c1.7-1,2.3-1,4,0l5.2,3c0.8,0.4,1.1,1.2,1.1,2c0,0.3,0,1.4,0,1.7
		c0,0.7-0.4,1.4-1.1,1.8l-9.2,5.3L40.6,36.5z"/>
	<g id="XMLID_4935_">
		<path id="XMLID_4937_" class="st3" d="M28.9,41.4c0-0.3,0.2-0.6,0.5-0.8l8.5-4.9c1.9-1.1,4.1-1.1,6,0l5.8,3.4
			c0.8,0.5,1.3,1.3,1.3,2.1c0,0.4,0,0.5,0,0.9c0,0.8-0.5,1.6-1.3,2.1l-8,4.6c-0.7,0.4-1.5,0.4-2.2,0L29.4,43
			c-0.3-0.2-0.5-0.5-0.5-0.9C28.9,41.8,28.9,41.7,28.9,41.4z"/>
		<path id="XMLID_4936_" class="st4" d="M43.9,35.7l5.8,3.4c1.7,1,1.7,3.4,0,4.4l-8,4.6c-0.7,0.4-1.5,0.4-2.2,0l-10.1-5.8
			c-0.6-0.4-0.6-1.3,0-1.7l8.5-4.9C39.7,34.6,42,34.6,43.9,35.7z"/>
		<path id="XMLID_34339_" class="st5" d="M29.4,42.3c-0.6-0.4-0.6-1.3,0-1.7l8.5-4.9c1.9-1.1,4.1-1.1,6,0l5.8,3.4
			c1.7,1,1.7,3.4,0,4.4"/>
	</g>
	<g id="XMLID_4918_">
		<g id="XMLID_4932_">
			<polygon id="XMLID_4934_" class="st3" points="37.9,36.2 37.6,16.5 38.5,17.1 39.4,37.1 			"/>
			<polygon id="XMLID_4933_" class="st1" points="40.9,36.2 39.4,37.1 38.5,17.1 39.4,16.5 			"/>
		</g>
		<polygon id="XMLID_4931_" class="st2" points="39.3,17.8 38.8,18.1 49.6,24.2 49.6,23.7 		"/>
		<polygon id="XMLID_4930_" class="st3" points="38.8,18.1 39,20.6 49.5,26.7 49.6,24.2 		"/>
		<polygon id="XMLID_4929_" class="st2" points="39.6,23.3 39.2,23.5 49.7,29.6 49.7,29.1 		"/>
		<polygon id="XMLID_4928_" class="st3" points="39.2,23.5 39.2,24.9 49.7,30.9 49.7,29.6 		"/>
		<polygon id="XMLID_4927_" class="st2" points="39.8,26.3 39.3,26.6 49.9,32.7 49.9,32.2 		"/>
		<polygon id="XMLID_4926_" class="st3" points="39.3,26.6 39.4,28 49.9,34 49.9,32.7 		"/>
		<polygon id="XMLID_4925_" class="st2" points="39.9,29.4 39.5,29.6 50,35.7 50,35.2 		"/>
		<polygon id="XMLID_4924_" class="st3" points="39.5,29.6 39.5,31 50,37 50,35.7 		"/>
		<g id="XMLID_4920_">
			<polygon id="XMLID_4923_" class="st3" points="47.8,41.9 49.3,23.2 50.2,23.8 49.3,42.8 			"/>
			<polygon id="XMLID_4922_" class="st6" points="50.2,22.7 49.3,23.2 50.2,23.8 51.1,23.2 			"/>
			<polygon id="XMLID_4921_" class="st1" points="50.8,41.9 49.3,42.8 50.2,23.8 51.1,23.2 			"/>
		</g>
		<polygon id="XMLID_4919_" class="st6" points="38.5,16 37.6,16.5 38.5,17.1 39.4,16.5 		"/>
	</g>
</g>
</svg>
