<?xml version="1.0" encoding="utf-8"?>
<!-- Generator: Adobe Illustrator 21.0.0, SVG Export Plug-In . SVG Version: 6.00 Build 0)  -->
<svg version="1.1" id="Layer_1" xmlns="http://www.w3.org/2000/svg" xmlns:xlink="http://www.w3.org/1999/xlink" x="0px" y="0px"
	 viewBox="0 0 80 80" style="enable-background:new 0 0 80 80;" xml:space="preserve">
<style type="text/css">
	.st0{fill:#301F12;}
	.st1{fill:#563E2E;}
	.st2{fill:#008895;}
	.st3{fill:#49C1C2;}
	.st4{fill:#01B4B3;}
	.st5{fill:#056378;}
	.st6{opacity:0.2;}
	.st7{opacity:0.2;fill:#056378;}
	.st8{fill:#12A1A4;}
	.st9{fill:#008E88;}
	.st10{fill:#029A9A;}
	.st11{fill:#B8E3EC;}
	.st12{fill:#CAE9F0;}
</style>
<g id="XMLID_38639_">
	<g id="XMLID_38678_">
		<polygon id="XMLID_38680_" class="st0" points="63.8,47.3 67,45.5 67,43.7 63.8,45.6 		"/>
		<polygon id="XMLID_38679_" class="st1" points="63.8,45.6 60.6,43.7 60.6,45.5 63.8,47.3 		"/>
	</g>
	<g id="XMLID_38675_">
		<polygon id="XMLID_38677_" class="st0" points="16.2,55.7 19.4,53.8 19.4,52.1 16.2,53.9 		"/>
		<polygon id="XMLID_38676_" class="st1" points="16.2,53.9 13,52.1 13,53.8 16.2,55.7 		"/>
	</g>
	<g id="XMLID_38672_">
		<polygon id="XMLID_38674_" class="st0" points="32.8,65.2 36,63.4 36,61.6 32.8,63.5 		"/>
		<polygon id="XMLID_38673_" class="st1" points="32.8,63.5 29.6,61.6 29.6,63.4 32.8,65.2 		"/>
	</g>
	<g id="XMLID_38640_">
		<g id="XMLID_38662_">
			<polygon id="XMLID_38671_" class="st2" points="41.1,20.9 41.1,28.9 60.9,40.3 60.9,32.3 			"/>
			<polygon id="XMLID_38670_" class="st3" points="47.2,17.4 41.1,20.9 60.9,32.3 67,28.8 			"/>
			<polyline id="XMLID_42114_" class="st4" points="47.2,17.4 41.1,20.9 60.9,32.3 			"/>
			<polygon id="XMLID_38669_" class="st5" points="67,42 67,28.8 60.9,32.3 60.9,45.4 			"/>
			<g id="XMLID_38667_">
				<polygon id="XMLID_38668_" class="st5" points="60.9,40.7 38.9,53.5 38.9,58.2 60.9,45.5 				"/>
			</g>
			<g id="XMLID_42106_" class="st6">
				<polyline id="XMLID_42110_" class="st5" points="60.9,40.7 38.9,53.5 38.9,58.2 				"/>
			</g>
			<g id="XMLID_38665_">
				<polygon id="XMLID_38666_" class="st0" points="67,42 32.8,61.7 32.8,63.5 67,43.7 				"/>
			</g>
			<g id="XMLID_38663_">
				<polygon id="XMLID_38664_" class="st1" points="13,50.3 32.8,61.7 32.8,63.5 13,52.1 				"/>
			</g>
		</g>
		<polygon id="XMLID_38661_" class="st3" points="44,16.8 40.5,14.8 18.5,27.5 21.9,29.5 		"/>
		<polyline id="XMLID_42112_" class="st4" points="21.9,29.5 44,16.8 40.5,14.8 		"/>
		<polygon id="XMLID_38660_" class="st2" points="23.3,40.8 18.5,38 18.5,27.5 21.9,29.5 		"/>
		<polygon id="XMLID_38659_" class="st5" points="44,16.8 21.9,29.5 23.3,40.8 45.3,28 		"/>
		<polyline id="XMLID_42108_" class="st7" points="23.3,40.8 45.3,28 44,16.8 		"/>
		<g id="XMLID_38647_">
			<g id="XMLID_38657_">
				<polygon id="XMLID_38658_" class="st4" points="60.9,37 45.3,28 23.9,40.4 39.4,49.4 				"/>
			</g>
			<polygon class="st7" points="38.9,31.8 23.9,40.4 38.9,49.1 			"/>
			<polygon class="st7" points="40.9,30.6 40.1,31.1 40.1,49 53,41.6 53,32.5 49.7,30.6 			"/>
			<g id="XMLID_38653_">
				<polygon id="XMLID_38656_" class="st8" points="39.4,53.4 25.7,45.5 25.7,41.5 39.4,49.4 				"/>
				<g id="XMLID_38654_">
					<polygon id="XMLID_38655_" class="st9" points="25.7,45.9 25.7,45.5 39.4,53.4 39.4,53.8 					"/>
				</g>
			</g>
			<g id="XMLID_38648_">
				<g id="XMLID_38651_">
					<polygon id="XMLID_38652_" class="st10" points="60.9,37 60.9,41 39.4,53.4 39.4,49.4 					"/>
				</g>
				<g id="XMLID_38649_">
					<polygon id="XMLID_38650_" class="st9" points="60.9,41.4 60.9,41 39.4,53.4 39.4,53.8 					"/>
				</g>
			</g>
		</g>
		<g id="XMLID_38644_">
			<path id="XMLID_38646_" class="st11" d="M53,32.3c-0.5,0.4-1.8-2.7-2.5-6.6c-0.2-1.3-0.8-2.7-0.9-4.2c-0.1-1.6,0.9-3.1,0.9-3.1
				c0.1-0.1,0.5-0.1,0.6,0.3c0,0,0.5,4.6,1,7.5C52.6,29,53.1,32.2,53,32.3z"/>
			<path id="XMLID_38645_" class="st12" d="M39.9,33.4c0,0.3,0.3,0.5,0.5,0.4c1-0.2,4.7-0.9,6.1-0.9c2.4,0,4.9-0.3,6-0.2
				c0.2,0,0.5-0.1,0.5-0.4c0-1.3-1.7-3.4-2.2-6.6c-0.2-1.1-0.1-3.5-0.1-4.4c-0.1-1.4,0.2-2.1,0.2-2.7c0-0.2-0.2-0.4-0.4-0.2
				C49.4,19,47,20,45.3,20.5c-1.1,0.3-2.9,0.4-3.5,0.5c-1.1,0.1-1.9,0.6-2.5,1.1c-0.3,0.3-0.1,1.1-0.1,1.3c0.3,0.8,0.7,2.2,0.8,4.8
				C40.2,30.6,39.9,32.5,39.9,33.4z"/>
		</g>
		<polygon id="XMLID_38643_" class="st2" points="32.8,48.5 13,37.1 13,50.3 32.8,61.7 		"/>
		<polygon id="XMLID_38642_" class="st3" points="19.1,33.6 13,37.1 32.8,48.5 38.9,45 		"/>
		<polyline id="XMLID_42113_" class="st4" points="32.8,48.5 38.9,45 19.1,33.6 		"/>
		<polygon id="XMLID_38641_" class="st5" points="38.9,58.2 38.9,45 32.8,48.5 32.8,61.7 		"/>
		<polygon id="XMLID_42109_" class="st7" points="38.9,58.2 38.9,45 32.8,48.5 32.8,61.7 		"/>
	</g>
</g>
</svg>
