<?xml version="1.0" encoding="utf-8"?>
<!-- Generator: Adobe Illustrator 21.0.0, SVG Export Plug-In . SVG Version: 6.00 Build 0)  -->
<svg version="1.1" id="Layer_1" xmlns="http://www.w3.org/2000/svg" xmlns:xlink="http://www.w3.org/1999/xlink" x="0px" y="0px"
	 viewBox="0 0 80 80" style="enable-background:new 0 0 80 80;" xml:space="preserve">
<style type="text/css">
	.st0{fill:#995827;}
	.st1{fill:#B2662F;}
	.st2{fill:#E8E7E7;}
	.st3{fill:#EFEFEF;}
	.st4{fill:#BDD3CF;}
	.st5{fill:#FFFFFF;}
	.st6{fill:#A3B6B3;}
	.st7{fill:#AC692D;}
	.st8{fill:#73401C;}
	.st9{opacity:0.2;fill:#A3B6B3;}
	.st10{fill:#A75535;}
	.st11{fill:#893E25;}
	.st12{opacity:0.2;}
</style>
<g id="XMLID_35764_">
	<g id="XMLID_35853_">
		<g id="XMLID_35888_">
			<g id="XMLID_35889_">
				<path id="XMLID_35896_" class="st0" d="M3.2,37.7c0-0.2,0.1-0.3,0.3-0.4l0,0c0.2-0.1,0.6-0.2,0.8-0.1l0,0
					c0.4,0.1,0.6,0.3,0.6,0.5c0,0.2,0,1.9,0,2c0,0.2-0.1,0.3-0.3,0.4l0,0c-0.2,0.1-0.6,0.2-0.8,0.1l0,0c-0.4-0.1-0.6-0.3-0.6-0.5
					C3.2,39.6,3.2,37.9,3.2,37.7z"/>
				<path id="XMLID_35894_" class="st0" d="M3.1,39.4L3.1,39.4c-0.9,0.5-0.6,1.5,0.5,1.8l0,0c0.5,0.1,1.1,0,1.5-0.2h0
					c0.9-0.5,0.6-1.5-0.5-1.8l0,0C4.1,39.1,3.5,39.2,3.1,39.4z"/>
				<path id="XMLID_35893_" class="st1" d="M5,39.7c0.7,0.4,0.5,1.2-0.4,1.4h0c-0.4,0.1-0.9,0-1.2-0.2l0,0c-0.4-0.2,0.9-0.1,1.1-0.6
					C4.5,39.8,5,39.7,5,39.7z"/>
			</g>
		</g>
		<g id="XMLID_35858_">
			<polygon id="XMLID_35887_" class="st2" points="2.5,37.4 24,25 56.8,43.9 35.3,56.3 			"/>
			<path id="XMLID_35886_" class="st3" d="M30.2,21.7c0,0,4.8,2,7.5,3.5c5.1,2.8,7.5,4.5,10,6.8c0.8,0.8,1.4,1.7,1.4,2.8v4.6
				l-16,9.7l-0.5-0.3c0.3-2.9,0.1-5.8,0.1-5.8c-0.1-1-0.6-1.8-1-2.2c-1.9-1.6-5.6-4.1-10.5-6.8c-3.8-2.1-5.8-2.6-7.4-3.2
				c-1.1-0.4-1.3,0.3-1.3,0.3c0-0.7,0.2-1.1,0.7-1.4L26,22.1C27.4,21.3,28.3,21,30.2,21.7z"/>
			<g id="XMLID_35878_">
				<path id="XMLID_35884_" class="st4" d="M8.3,24.5l20.3-11.7l0.4-1.2c0.7,0.7,0.8,1.2,0.8,1.7c0,0.5,0,13.3,0,13.3L8.3,39V24.5z"
					/>
				<path id="XMLID_35883_" class="st5" d="M26.9,9.9c1.2,0.8,2.3,1.7,2.3,1.8c0.1,0.2,0,0.6-0.2,0.8L8.3,24.5l-5.8-3.4l20.8-12
					C23.5,9,23.7,8.9,24,8.9C24.2,8.9,25.6,9.2,26.9,9.9z"/>
				<path id="XMLID_41623_" class="st3" d="M24,8.9"/>
				<path id="XMLID_41618_" class="st3" d="M29.2,11.8c0.1,0.2,0,0.6-0.2,0.8L8.3,24.5l-5.8-3.4"/>
				<path id="XMLID_35879_" class="st6" d="M8.3,39V24.5c0-0.2-1.5-1.5-2.9-2.3C4,21.4,2.5,21,2.5,21.1v14.5L8.3,39z"/>
			</g>
			<g id="XMLID_35874_">
				<g id="XMLID_35875_">
					<polygon id="XMLID_35877_" class="st7" points="56.8,43.9 35.3,56.3 35.3,54.6 56.8,42.2 					"/>
				</g>
			</g>
			<polygon id="XMLID_35870_" class="st8" points="2.5,37.4 2.5,35.7 35.3,54.6 35.3,56.3 			"/>
			<g id="XMLID_35863_">
				<g id="XMLID_35865_">
					<g id="XMLID_35868_">
						<polygon id="XMLID_35869_" class="st2" points="29.4,47.1 37.6,44.4 35.1,28.7 29.2,31.8 						"/>
					</g>
					<path id="XMLID_35867_" class="st6" d="M8.3,24.5c0.1-2,0.6-3.6,0.6-3.6c0-0.2,0.1-1.2,0.9-1.2c2,0.1,6.9,2.3,9.9,4
						c3.8,2.1,8.2,6.6,9.4,7.9c0.1,0.1,0.1,0.3,0.1,0.3c0.6,3.5,0.6,14.1,0.5,15.7c-0.1,1.9-0.2,3.8-0.2,3.8L8.3,39
						C8.3,39,8.3,25.1,8.3,24.5z"/>
					<path id="XMLID_41615_" class="st9" d="M8.3,24.5c0.1-2,0.6-3.6,0.6-3.6c0-0.2,0.1-1.2,0.9-1.2c2,0.1,6.9,2.3,9.9,4
						c3.8,2.1,8.2,6.6,9.4,7.9c0.1,0.1,0.1,0.3,0.1,0.3c0.6,3.5,0.6,14.1,0.5,15.7c-0.1,1.9-0.2,3.8-0.2,3.8"/>
					<path id="XMLID_35866_" class="st5" d="M8.9,20.7c0-0.7,0.9-2.4,3-3.7c0.7-0.4,1.4-0.6,1.9-0.7c1.4-0.3,5.6,1.3,11.3,4.3
						c6.6,3.5,9.8,6.4,9.8,8s-5.5,3.5-5.8,3.1c-1.6-1.8-3.9-4-10-7.5c-4-2.3-9-4-9.6-4.1C9.1,20.1,8.9,20.7,8.9,20.7z"/>
					<path id="XMLID_41621_" class="st3" d="M35.1,28.7c0,1.6-5.5,3.5-5.8,3.1c-1.6-1.8-3.9-4-10-7.5c-4-2.3-9-4-9.6-4.1
						c-0.5-0.1-0.7,0.5-0.7,0.5c0-0.7,0.9-2.4,3-3.7c0.7-0.4,1.4-0.6,1.9-0.7"/>
				</g>
			</g>
		</g>
	</g>
	<g id="XMLID_35765_">
		<g id="XMLID_35827_">
			<g id="XMLID_35841_">
				<path id="XMLID_35852_" class="st0" d="M55.2,67.5c0-0.2,0.1-0.3,0.3-0.4l0,0c0.2-0.1,0.6-0.2,0.8-0.1l0,0
					c0.4,0.1,0.6,0.3,0.6,0.5c0,0.2,0,1.9,0,2c0,0.2-0.1,0.3-0.3,0.4l0,0c-0.2,0.1-0.6,0.2-0.8,0.1l0,0c-0.4-0.1-0.6-0.3-0.6-0.5
					C55.2,69.4,55.2,67.7,55.2,67.5z"/>
				<path id="XMLID_35847_" class="st0" d="M55.1,69.2L55.1,69.2c-0.9,0.5-0.6,1.5,0.5,1.8l0,0c0.5,0.1,1.1,0,1.5-0.2l0,0
					c0.9-0.5,0.6-1.5-0.5-1.8l0,0C56.1,68.9,55.5,69,55.1,69.2z"/>
				<path id="XMLID_35842_" class="st1" d="M56.9,69.5c0.7,0.4,0.5,1.2-0.4,1.4l0,0c-0.4,0.1-0.9,0-1.2-0.2l0,0
					c-0.4-0.2,0.9-0.1,1.1-0.6C56.5,69.6,56.9,69.5,56.9,69.5z"/>
			</g>
			<g id="XMLID_35828_">
				<path id="XMLID_35840_" class="st0" d="M75.1,56c0-0.2,0.1-0.3,0.3-0.4l0,0c0.2-0.1,0.6-0.2,0.8-0.1l0,0
					c0.4,0.1,0.6,0.3,0.6,0.5c0,0.2,0,1.9,0,2c0,0.2-0.1,0.3-0.3,0.4l0,0c-0.2,0.1-0.6,0.2-0.8,0.1l0,0c-0.4-0.1-0.6-0.3-0.6-0.5
					C75.1,57.9,75.1,56.2,75.1,56z"/>
				<path id="XMLID_35838_" class="st0" d="M74.9,57.8L74.9,57.8c-0.9,0.5-0.6,1.5,0.5,1.8l0,0c0.5,0.1,1.1,0,1.5-0.2h0
					c0.9-0.5,0.6-1.5-0.5-1.8l0,0C75.9,57.4,75.4,57.5,74.9,57.8z"/>
				<path id="XMLID_35833_" class="st1" d="M76.8,58c0.7,0.4,0.5,1.2-0.4,1.4h0c-0.4,0.1-0.9,0-1.2-0.2l0,0
					c-0.4-0.2,0.9-0.1,1.1-0.6C76.4,58.2,76.8,58,76.8,58z"/>
			</g>
		</g>
		<g id="XMLID_35766_">
			<path id="XMLID_35822_" class="st3" d="M50.9,33.6c0,0,4.8,2,7.5,3.5c5.1,2.8,7.5,4.5,10,6.8c0.8,0.8,1.4,1.7,1.4,2.8v4.6
				l-16,9.7l-0.5-0.3c0.3-2.9,0.1-5.8,0.1-5.8c-0.1-1-0.6-1.8-1-2.2c-1.9-1.6-5.6-4.1-10.5-6.8c-3.8-2.1-5.8-2.6-7.4-3.2
				c-1.1-0.4-1.3,0.3-1.3,0.3c0-0.7,0.2-1.1,0.7-1.4L46.7,34C48,33.2,49,33,50.9,33.6z"/>
			<g id="XMLID_35815_">
				<path id="XMLID_35817_" class="st10" d="M63.8,50.6c-0.4,0.4-2.2-2.4-3.4-5.9c-0.4-1.1-1.2-2.4-1.5-3.8
					c-0.3-1.4,0.6-2.8,0.6-2.8c0.1-0.1,0.5-0.1,0.6,0.3c0,0,1.1,4.1,2,6.7C63,47.7,63.9,50.5,63.8,50.6z"/>
				<path id="XMLID_35816_" class="st11" d="M50.5,51.7c0,0.2,0.3,0.4,0.6,0.4c1-0.2,4.7-0.8,6.2-0.8c2.4,0,5-0.3,6.1-0.3
					c0.3,0,0.5-0.1,0.4-0.4c-0.2-1.2-2.2-3.1-3.2-5.9c-0.4-1-0.6-3.1-0.7-3.9c-0.3-1.3-0.1-1.9-0.1-2.5c0-0.2-0.3-0.3-0.5-0.2
					c-1,0.6-3.4,1.5-5.1,2c-1.1,0.3-3,0.4-3.5,0.5c-1.1,0.1-1.9,0.5-2.4,1c-0.3,0.3,0,1,0.1,1.2c0.4,0.7,1,2,1.5,4.3
					C50.4,49.2,50.4,50.9,50.5,51.7z"/>
			</g>
			<g id="XMLID_35803_">
				<g id="XMLID_35808_">
					<polygon id="XMLID_35813_" class="st7" points="77.5,55.9 56,68.3 56,66.6 77.5,54.2 					"/>
				</g>
			</g>
			<polygon id="XMLID_35802_" class="st8" points="23.2,49.3 23.2,47.6 56,66.6 56,68.3 			"/>
			<g id="XMLID_35788_">
				<g id="XMLID_35789_">
					<g id="XMLID_35792_">
						<polygon id="XMLID_35797_" class="st4" points="50.1,59.1 58.3,56.3 55.7,40.6 49.9,43.7 						"/>
					</g>
					<g id="XMLID_41611_" class="st12">
						<polyline id="XMLID_41617_" class="st6" points="49.9,43.7 50.1,59.1 58.3,56.3 						"/>
					</g>
					<path id="XMLID_35791_" class="st6" d="M29,36.4c0.1-2,0.6-3.6,0.6-3.6c0-0.2,0.1-1.2,0.9-1.2c2,0.1,6.9,2.3,9.9,4
						c3.8,2.1,8.2,6.6,9.4,7.9c0.1,0.1,0.1,0.3,0.1,0.3c0.6,3.5,0.6,14.1,0.5,15.7c-0.1,1.9-0.2,3.8-0.2,3.8L29,50.9
						C29,50.9,28.9,37,29,36.4z"/>
					<path id="XMLID_41614_" class="st9" d="M29,36.4c0.1-2,0.6-3.6,0.6-3.6c0-0.2,0.1-1.2,0.9-1.2c2,0.1,6.9,2.3,9.9,4
						c3.8,2.1,8.2,6.6,9.4,7.9c0.1,0.1,0.1,0.3,0.1,0.3c0.6,3.5,0.6,14.1,0.5,15.7c-0.1,1.9-0.2,3.8-0.2,3.8"/>
					<path id="XMLID_35790_" class="st5" d="M29.6,32.7c0-0.7,0.9-2.4,3-3.7c0.7-0.4,1.4-0.6,1.9-0.7c1.4-0.3,5.6,1.3,11.3,4.3
						c6.6,3.5,9.8,6.4,9.8,8c0,1.6-5.5,3.5-5.8,3.1c-1.6-1.8-3.9-4-10-7.5c-4-2.3-9-4-9.6-4.1C29.8,32,29.6,32.7,29.6,32.7z"/>
					<path id="XMLID_41620_" class="st3" d="M55.7,40.6c0,1.6-5.5,3.5-5.8,3.1c-1.6-1.8-3.9-4-10-7.5c-4-2.3-9-4-9.6-4.1
						c-0.5-0.1-0.7,0.5-0.7,0.5c0-0.7,0.9-2.4,3-3.7c0.7-0.4,1.4-0.6,1.9-0.7"/>
				</g>
			</g>
			<g id="XMLID_35771_">
				<path id="XMLID_35782_" class="st4" d="M56,52l20.3-11.7l0.4-1.2c0.7,0.7,0.8,1.2,0.8,1.7c0,0.5,0,13.3,0,13.3L56,66.6L56,52z"
					/>
				<path id="XMLID_35777_" class="st5" d="M74.6,37.5c1.2,0.8,2.3,1.7,2.3,1.8c0.1,0.2,0,0.6-0.2,0.8L56,52l-5.8-3.4l20.8-12
					c0.2-0.1,0.5-0.2,0.7-0.2C71.9,36.5,73.3,36.7,74.6,37.5z"/>
				<path id="XMLID_41625_" class="st3" d="M71.7,36.5"/>
				<path id="XMLID_41622_" class="st3" d="M76.9,39.3c0.1,0.2,0,0.6-0.2,0.8L56,52l-5.8-3.4"/>
				<path id="XMLID_35776_" class="st6" d="M56,66.6L56,52c0-0.2-1.5-1.5-2.9-2.3c-1.5-0.8-2.9-1.2-2.9-1.1l0,14.5L56,66.6z"/>
				<path id="XMLID_41613_" class="st9" d="M56,66.6L56,52c0-0.2-1.5-1.5-2.9-2.3c-1.5-0.8-2.9-1.2-2.9-1.1"/>
			</g>
		</g>
	</g>
</g>
</svg>
