<?xml version="1.0" encoding="utf-8"?>
<!-- Generator: Adobe Illustrator 21.0.0, SVG Export Plug-In . SVG Version: 6.00 Build 0)  -->
<svg version="1.1" id="Layer_1" xmlns="http://www.w3.org/2000/svg" xmlns:xlink="http://www.w3.org/1999/xlink" x="0px" y="0px"
	 viewBox="0 0 80 80" style="enable-background:new 0 0 80 80;" xml:space="preserve">
<style type="text/css">
	.st0{fill:#995827;}
	.st1{fill:#B2662F;}
	.st2{fill:#E8E7E7;}
	.st3{fill:#BDD3CF;}
	.st4{fill:#FFFFFF;}
	.st5{fill:#EFEFEF;}
	.st6{fill:#A3B6B3;}
	.st7{opacity:0.2;fill:#A3B6B3;}
	.st8{fill:#AC692D;}
	.st9{fill:#73401C;}
	.st10{fill:#E7E6E6;}
	.st11{fill:#994B33;}
	.st12{fill:#A75535;}
</style>
<g id="XMLID_37848_">
	<g id="XMLID_37887_">
		<g id="XMLID_37888_">
			<path id="XMLID_37891_" class="st0" d="M66.5,44.4c0-0.2-0.1-0.3-0.3-0.4l0,0c-0.2-0.1-0.6-0.2-0.8-0.1l0,0
				c-0.4,0.1-0.6,0.3-0.6,0.5c0,0.2,0,1.9,0,2c0,0.2,0.1,0.3,0.3,0.4l0,0c0.2,0.1,0.6,0.2,0.8,0.1l0,0c0.4-0.1,0.6-0.3,0.6-0.5
				C66.5,46.3,66.5,44.5,66.5,44.4z"/>
			<path id="XMLID_37890_" class="st0" d="M66.7,46.1L66.7,46.1c0.9,0.5,0.6,1.5-0.5,1.8l0,0c-0.5,0.1-1.1,0-1.5-0.2l0,0
				c-0.9-0.5-0.6-1.5,0.5-1.8l0,0C65.7,45.8,66.3,45.8,66.7,46.1z"/>
			<path id="XMLID_37889_" class="st1" d="M64.8,46.3c-0.7,0.4-0.5,1.2,0.4,1.4l0,0c0.4,0.1,0.9,0,1.2-0.2l0,0
				c0.4-0.2-0.9-0.1-1.1-0.6C65.2,46.5,64.8,46.3,64.8,46.3z"/>
		</g>
	</g>
	<g id="XMLID_37878_">
		<g id="XMLID_37883_">
			<path id="XMLID_37886_" class="st0" d="M35.1,62.3c0-0.2-0.1-0.3-0.3-0.4l0,0c-0.2-0.1-0.6-0.2-0.8-0.1l0,0
				c-0.4,0.1-0.6,0.3-0.6,0.5c0,0.2,0,1.9,0,2c0,0.2,0.1,0.3,0.3,0.4l0,0c0.2,0.1,0.6,0.2,0.8,0.1l0,0c0.4-0.1,0.6-0.3,0.6-0.5
				C35.1,64.2,35.1,62.5,35.1,62.3z"/>
			<path id="XMLID_37885_" class="st0" d="M35.3,64L35.3,64c0.9,0.5,0.6,1.5-0.5,1.8l0,0c-0.5,0.1-1.1,0-1.5-0.2l0,0
				c-0.9-0.5-0.6-1.5,0.5-1.8l0,0C34.3,63.7,34.8,63.8,35.3,64z"/>
			<path id="XMLID_37884_" class="st1" d="M33.4,64.3c-0.7,0.4-0.5,1.2,0.4,1.4l0,0c0.4,0.1,0.9,0,1.2-0.2l0,0
				c0.4-0.2-0.9-0.1-1.1-0.6C33.8,64.4,33.4,64.3,33.4,64.3z"/>
		</g>
		<g id="XMLID_37879_">
			<path id="XMLID_37882_" class="st0" d="M15.2,50.8c0-0.2-0.1-0.3-0.3-0.4l0,0c-0.2-0.1-0.6-0.2-0.8-0.1l0,0
				c-0.4,0.1-0.6,0.3-0.6,0.5c0,0.2,0,1.9,0,2c0,0.2,0.1,0.3,0.3,0.4l0,0c0.2,0.1,0.6,0.2,0.8,0.1l0,0c0.4-0.1,0.6-0.3,0.6-0.5
				C15.2,52.7,15.2,51,15.2,50.8z"/>
			<path id="XMLID_37881_" class="st0" d="M15.3,52.5L15.3,52.5c0.9,0.5,0.6,1.5-0.5,1.8l0,0c-0.5,0.1-1.1,0-1.5-0.2h0
				c-0.9-0.5-0.6-1.5,0.5-1.8l0,0C14.3,52.2,14.9,52.3,15.3,52.5z"/>
			<path id="XMLID_37880_" class="st1" d="M13.4,52.8c-0.7,0.4-0.5,1.2,0.4,1.4l0,0c0.4,0.1,0.9,0,1.2-0.2l0,0
				c0.4-0.2-0.9-0.1-1.1-0.6C13.9,52.9,13.4,52.8,13.4,52.8z"/>
		</g>
	</g>
	<g id="XMLID_37852_">
		<polygon id="XMLID_37877_" class="st2" points="67.3,44 45.7,31.6 12.8,50.6 34.3,63.1 		"/>
		<g id="XMLID_37873_">
			<path id="XMLID_37876_" class="st3" d="M61.4,31.1L41.1,19.3l-0.4-1.2c-0.7,0.7-0.8,1.2-0.8,1.7c0,0.5,0,13.4,0,13.4l21.5,12.4
				V31.1z"/>
			<path id="XMLID_37875_" class="st4" d="M42.8,16.5c-1.2,0.8-2.3,1.8-2.3,1.8c-0.1,0.2,0,0.6,0.2,0.8l20.7,12l5.8-3.4l-20.8-12
				c-0.2-0.1-0.5-0.2-0.7-0.2C45.5,15.5,44,15.8,42.8,16.5z"/>
			<path id="XMLID_41641_" class="st5" d="M46.4,15.7c-0.2-0.1-0.5-0.2-0.7-0.2c-0.2,0-1.7,0.3-2.9,1c-1.2,0.8-2.3,1.8-2.3,1.8
				c-0.1,0.2,0,0.6,0.2,0.8l20.7,12"/>
			<path id="XMLID_37874_" class="st6" d="M61.4,45.7V31.1c0-0.2,1.5-1.5,2.9-2.3c1.5-0.8,2.9-1.2,2.9-1.1v14.6L61.4,45.7z"/>
			<path id="XMLID_41637_" class="st7" d="M61.4,45.7V31.1c0-0.2,1.5-1.5,2.9-2.3c1.5-0.8,2.9-1.2,2.9-1.1"/>
		</g>
		<g id="XMLID_37870_">
			<g id="XMLID_37871_">
				<polygon id="XMLID_37872_" class="st8" points="12.8,50.6 34.3,63.1 34.3,61.4 12.8,48.9 				"/>
			</g>
		</g>
		<polygon id="XMLID_37869_" class="st9" points="67.3,44 67.3,42.3 34.3,61.4 34.3,63.1 		"/>
		<g id="XMLID_37857_">
			<g id="XMLID_37865_">
				<g id="XMLID_37867_">
					<path id="XMLID_37868_" class="st3" d="M39.6,14.7c0,1.1,3.4,1.5,4.4,2.9c2.1,3,1.1,12.8,1.2,12.5c1.8-7.6,0.2-12.2,0.2-12.3
						c-0.3-0.9-0.9-1.8-2-2.6C42.3,14.4,39.6,13.5,39.6,14.7z"/>
				</g>
				<path id="XMLID_37866_" class="st10" d="M45.2,30.1c-0.4,0.4-0.4,0.9-0.4,1.5v4.6l16,9.7l0.6-0.3c-0.3-2.9-0.1-5.8-0.1-5.8
					c0.1-1-1.6-3.2-7.8-6.7C49.1,30.7,45.6,29.8,45.2,30.1z"/>
			</g>
			<g id="XMLID_37858_">
				<g id="XMLID_37861_">
					<polygon id="XMLID_37864_" class="st3" points="27.1,46.1 18.9,43.3 18.9,26.7 24.7,29.8 					"/>
					<polyline id="XMLID_41642_" class="st7" points="24.7,29.8 27.1,46.1 18.9,43.3 					"/>
					<path id="XMLID_37863_" class="st6" d="M45.1,18.8c0,0,0.5,2.4,0.5,5.4c0,3-0.4,6.7-0.4,6.7L35,35.4l-10.5,6.7
						c0,0-0.5-8.8,0.1-12.3c0,0,0-0.2,0.1-0.3c1.2-1.3,5.6-5.8,9.5-7.9c3-1.7,7.9-3.9,9.9-4C45,17.5,45.1,18.6,45.1,18.8z"/>
					<path id="XMLID_41638_" class="st7" d="M24.6,42.1c0,0-0.5-8.8,0.1-12.3c0,0,0-0.2,0.1-0.3c1.2-1.3,5.6-5.8,9.5-7.9
						c3-1.7,7.9-3.9,9.9-4c0.8,0,0.9,1.1,0.9,1.2"/>
					<path id="XMLID_37862_" class="st4" d="M45.1,18.7c0-0.7-0.9-2.4-3-3.7c-0.7-0.4-1.4-0.6-1.9-0.7c-1.4-0.3-5.6,1.3-11.4,4.3
						c-6.7,3.5-9.9,6.4-9.9,8c0,1.6,5.5,3.5,5.8,3.1c1.6-1.8,3.9-4,10.1-7.5c4.1-2.3,9.1-4,9.7-4.1C44.9,18.1,45.1,18.7,45.1,18.7z"
						/>
					<path id="XMLID_41645_" class="st5" d="M18.9,26.7c0,1.6,5.5,3.5,5.8,3.1c1.6-1.8,3.9-4,10.1-7.5c4.1-2.3,9.1-4,9.7-4.1
						c0.5-0.1,0.7,0.5,0.7,0.5c0-0.7-0.9-2.4-3-3.7c-0.7-0.4-1.4-0.6-1.9-0.7"/>
				</g>
				<path id="XMLID_37860_" class="st6" d="M60.8,46c0,0,0.1-1.1,0.1-3.3c0-2.2-0.1-3.5-0.1-3.5c0-0.7-10.5,3.5-11,3.8l-8.6,6
					c-0.5,0.3-0.9,0.9-0.9,1.5c0,0-0.1,1.7,0,3.7c0.1,1.9,0.3,3.5,0.3,3.5L60.8,46z"/>
				<path id="XMLID_41636_" class="st7" d="M61,42.7c0-2.2-0.1-3.5-0.1-3.5c0-0.7-10.5,3.5-11,3.8l-8.6,6c-0.5,0.3-0.9,0.9-0.9,1.5
					c0,0-0.1,1.7,0,3.7c0.1,1.9,0.3,3.5,0.3,3.5"/>
				<path id="XMLID_37859_" class="st5" d="M43.1,30.5c0,0-4.8,2-7.6,3.5c-5.1,2.8-7.5,4.5-10,6.8c-0.8,0.8-1.4,1.7-1.4,2.8v4.6
					l16,9.7l0.5-0.3c-0.3-2.9-0.1-5.8-0.1-5.8c0.1-1,0.6-1.8,1-2.2c1.9-1.6,5.6-4.1,10.6-6.9c3.8-2.1,5.8-2.6,7.4-3.2
					c1.1-0.4,1.3,0.3,1.3,0.3c0-0.7-0.2-1.1-0.7-1.4l-12.9-7.4C46,30.1,45,29.9,43.1,30.5z"/>
			</g>
		</g>
		<g id="XMLID_37853_">
			<path id="XMLID_37856_" class="st3" d="M34.3,46.8L14,35l-0.4-1.2c-0.7,0.7-0.8,1.2-0.8,1.7c0,0.5,0,13.4,0,13.4l21.5,12.4V46.8z
				"/>
			<path id="XMLID_37855_" class="st4" d="M15.7,32.2c-1.2,0.8-2.3,1.8-2.3,1.8c-0.1,0.2,0,0.6,0.2,0.8l20.7,12l5.8-3.4l-20.9-12
				c-0.2-0.1-0.5-0.2-0.7-0.2C18.4,31.2,16.9,31.4,15.7,32.2z"/>
			<path id="XMLID_41640_" class="st5" d="M13.3,34"/>
			<path id="XMLID_41633_" class="st5" d="M34.3,46.8l5.8-3.4l-20.9-12c-0.2-0.1-0.5-0.2-0.7-0.2"/>
			<path id="XMLID_37854_" class="st6" d="M34.3,61.4V46.8c0-0.2,1.5-1.5,2.9-2.3c1.5-0.8,2.9-1.2,2.9-1.1V58L34.3,61.4z"/>
			<path id="XMLID_41635_" class="st7" d="M34.3,61.4V46.8c0-0.2,1.5-1.5,2.9-2.3c1.5-0.8,2.9-1.2,2.9-1.1"/>
		</g>
	</g>
	<g id="XMLID_37849_">
		<path id="XMLID_37851_" class="st11" d="M52.6,34.1c-0.4,0.4-1.8-2.6-2.4-6.4c-0.2-1.2-0.8-2.6-0.9-4c-0.1-1.5,0.9-3,0.9-3
			c0.1-0.1,0.5-0.1,0.6,0.3c0,0,0.4,4.4,1,7.2C52.3,31,52.8,34,52.6,34.1z"/>
		<path id="XMLID_37850_" class="st12" d="M40,35.2c0,0.3,0.3,0.5,0.5,0.4c1-0.2,4.5-0.9,5.9-0.8c2.3,0,4.7-0.3,5.7-0.2
			c0.2,0,0.5-0.1,0.4-0.4c0-1.3-1.6-3.3-2.1-6.3c-0.2-1.1-0.1-3.3-0.1-4.2c-0.1-1.4,0.2-2,0.2-2.6c0-0.2-0.2-0.4-0.4-0.2
			c-1,0.6-3.4,1.6-5.1,2.1c-1,0.3-2.8,0.4-3.3,0.5c-1.1,0.1-1.9,0.6-2.4,1.1c-0.3,0.3-0.1,1.1-0.1,1.2c0.3,0.7,0.6,2.1,0.8,4.6
			C40.3,32.5,40,34.3,40,35.2z"/>
	</g>
</g>
</svg>
