<?xml version="1.0" encoding="utf-8"?>
<!-- Generator: Adobe Illustrator 21.0.0, SVG Export Plug-In . SVG Version: 6.00 Build 0)  -->
<svg version="1.1" id="Layer_1" xmlns="http://www.w3.org/2000/svg" xmlns:xlink="http://www.w3.org/1999/xlink" x="0px" y="0px"
	 viewBox="0 0 80 80" style="enable-background:new 0 0 80 80;" xml:space="preserve">
<style type="text/css">
	.st0{fill:#989495;}
	.st1{fill:#565152;}
	.st2{fill:#70696B;}
	.st3{fill:#8A1B51;}
	.st4{fill:#600F3A;}
	.st5{fill:#530E35;}
	.st6{fill:#9B2569;}
	.st7{opacity:0.1;fill:#530E35;}
	.st8{fill:#7F1A51;}
	.st9{fill:#DCD7CC;}
	.st10{fill:#DDD5C3;}
	.st11{fill:#E8E3D4;}
	.st12{fill:#D87FB3;}
	.st13{fill:#D3BB60;}
	.st14{fill:#CD8760;}
</style>
<g id="XMLID_36311_">
	<g id="XMLID_36641_">
		<g id="XMLID_36651_">
			<polygon id="XMLID_36654_" class="st0" points="63.9,52.5 63.9,57.1 61.8,58.3 61.8,53.7 			"/>
			<polygon id="XMLID_36652_" class="st1" points="59.7,52.5 61.8,53.7 61.8,58.3 59.7,57.1 			"/>
		</g>
		<polygon id="XMLID_36650_" class="st0" points="63.9,50.9 63.9,52.5 41.8,65.3 41.8,63.6 		"/>
		<g id="XMLID_36647_">
			<polygon id="XMLID_36649_" class="st0" points="23.8,52.5 23.8,57.1 21.8,58.3 21.8,53.7 			"/>
			<polygon id="XMLID_36648_" class="st1" points="19.7,52.5 21.8,53.7 21.8,58.3 19.7,57.1 			"/>
		</g>
		<polygon id="XMLID_36643_" class="st1" points="19.7,50.9 41.8,63.6 41.8,65.3 19.7,52.5 		"/>
		<polygon id="XMLID_36642_" class="st2" points="41.8,38.1 63.9,50.9 41.8,63.6 19.7,50.9 		"/>
	</g>
	<g id="XMLID_36637_">
		<polygon id="XMLID_36639_" class="st0" points="43.9,64.1 43.9,68.7 41.8,69.9 41.8,65.3 		"/>
		<polygon id="XMLID_36638_" class="st1" points="39.7,64.1 41.8,65.3 41.8,69.9 39.7,68.7 		"/>
	</g>
	<polygon id="XMLID_36636_" class="st3" points="59,44.9 59,49.8 40.5,60.4 40.5,55.5 	"/>
	<path id="XMLID_36635_" class="st4" d="M42.3,10.3c-0.2-0.2-0.6-0.2-0.9,0l-0.9,0.5c-0.2,0.1-0.3,0.2-0.4,0.3
		c-1.4,1-2.2,2.6-2.2,4.3v20.3L60,48.4L64.3,23L42.3,10.3z"/>
	<path id="XMLID_42180_" class="st4" d="M42.3,10.3c-0.2-0.2-0.6-0.2-0.9,0l-0.9,0.5c-0.2,0.1-0.3,0.2-0.4,0.3
		c-1.4,1-2.2,2.6-2.2,4.3v20.3L60,48.4"/>
	<path id="XMLID_42179_" class="st5" d="M42.3,10.3c-0.2-0.2-0.6-0.2-0.9,0l-0.9,0.5c-0.2,0.1-0.3,0.2-0.4,0.3
		c-1.4,1-2.2,2.6-2.2,4.3v20.3L60,48.4"/>
	<path id="XMLID_36634_" class="st6" d="M37.1,28.5c-0.2-0.1-0.5-0.1-0.7,0l-16.9,9.8c-2.6,1.5-4.1,4.2-4.2,7.1c0,0,0,1,0,1
		c0,1.5,0.8,2.7,1.8,3.4l0,0l22.2,12.8c0,0-0.3-9.1,2.3-10.6l17.6-10.7C59.1,41.3,37.1,28.5,37.1,28.5z"/>
	<path class="st7" d="M37.8,29c3.9,2.3,21.3,12.3,21.3,12.3L41.5,52c-0.9,0.5-1.4,1.9-1.8,3.5h-2V29z"/>
	<path id="XMLID_36630_" class="st8" d="M64.8,45.6V23.7c0-0.6-0.7-1-1.2-0.7l-1,0.6c-1.6,0.9-2.6,2.6-2.6,4.5v18
		c0,0.6-0.3,1.1-0.8,1.4l-16.8,9.7L42,59l-0.3-1.8l-1-1.4l1.2,0.9l16.8-9.7c0.4-0.3,0.6-0.7,0.6-1.1v-4.1c0-0.5-0.6-0.8-1-0.6
		l-16.9,9.8c-2.6,1.5-4.2,4.2-4.2,7.2v0.9c0,3.1,3.3,5,6,3.5l19.3-11.2c1.3-0.7,2.1-2.1,2.1-3.6L64.8,45.6L64.8,45.6z"/>
	<g id="XMLID_36624_">
		<path id="XMLID_36629_" class="st9" d="M48.6,34.8c0,0,1.3-1.4,0.2-2c-1.1-0.6-1.5,1.8-1.3,1.7C48.1,34.3,48.6,34.8,48.6,34.8z"/>
		<path id="XMLID_36628_" class="st9" d="M48.8,36.2c0,0,0.4-0.7-0.1-1.3c0,0,2-0.8,2.1,0.5C50.9,36,50.4,36.7,48.8,36.2z"/>
		<path id="XMLID_36627_" class="st9" d="M47.3,34.5c0,0-0.7,0.3-0.9,1c0,0-1.7-0.8-0.9-1.7C45.4,33.8,46,33,47.3,34.5z"/>
		<path id="XMLID_36625_" class="st9" d="M46.4,35.7c0,0,0.1,0.7,0.7,1.1c0,0-1.1,1.4-1.8,0.5C45.3,37.2,44.7,36.5,46.4,35.7z"/>
	</g>
	<g id="XMLID_36315_">
		<g id="XMLID_36621_">
			<path id="XMLID_36623_" class="st10" d="M56.9,40.5c-0.6,0.4-1.4-3.7-1.1-8.5c0.1-1.6-0.2-3.4,0.1-5.2c0.3-1.9,2-3.5,2-3.5
				c0.2-0.1,0.6,0,0.6,0.5c0,0-0.7,5.6-0.9,9.2C57.4,36.6,57.1,40.4,56.9,40.5z"/>
			<path id="XMLID_36622_" class="st11" d="M41.1,38.1c-0.1,0.3,0.2,0.6,0.5,0.6c1.3,0,5.8,0.2,7.5,0.7c2.8,0.7,5.9,1,7.1,1.4
				c0.3,0.1,0.6,0,0.7-0.3c0.3-1.6-1-4.5-0.8-8.4c0.1-1.4,0.9-4.1,1.1-5.2c0.3-1.7,0.8-2.5,1.1-3.2c0.1-0.3-0.2-0.5-0.4-0.4
				c-1.5,0.5-4.6,1-6.8,1.1c-1.4,0.1-3.6-0.3-4.2-0.4c-1.4-0.2-2.5,0.1-3.3,0.6c-0.4,0.3-0.5,1.3-0.4,1.5c0.1,1,0.2,2.8-0.4,5.9
				C42.3,34.9,41.4,37.1,41.1,38.1z"/>
		</g>
		<g id="XMLID_36317_">
			<g id="XMLID_36611_">
				<path id="XMLID_36620_" class="st9" d="M54,32.4c0,0,1.7-0.5,1.1-1.5c-0.6-1-2,0.6-1.8,0.7C53.8,31.8,54,32.4,54,32.4z"/>
				<path id="XMLID_36616_" class="st9" d="M53.4,33.6c0,0,0.7-0.3,0.6-1c0,0,1.9,0.3,1.4,1.4C55.1,34.5,54.5,34.8,53.4,33.6z"/>
				<path id="XMLID_36615_" class="st9" d="M52,33.3c0,0,0.6,0.5,1.2,0.4c0,0,0,1.7-1.1,1.5C52.2,35.2,51.3,35,52,33.3z"/>
				<path id="XMLID_36614_" class="st9" d="M53.1,31.6c0,0-0.7-0.1-1.2,0.3c0,0-0.9-1.4,0.1-1.8C52,30.1,52.8,29.8,53.1,31.6z"/>
				<path id="XMLID_36612_" class="st9" d="M51.8,32c0,0-0.2,0.6,0,1.2c0,0-1.5,0.5-1.7-0.5C50.2,32.7,50.1,31.9,51.8,32z"/>
			</g>
			<g id="XMLID_36602_">
				<path id="XMLID_36610_" class="st9" d="M52.3,27.2c0,0,1.4-0.4,0.9-1.2c-0.5-0.8-1.7,0.5-1.5,0.6C52.2,26.7,52.3,27.2,52.3,27.2
					z"/>
				<path id="XMLID_36609_" class="st9" d="M51.9,28.1c0,0,0.5-0.3,0.4-0.8c0,0,1.6,0.2,1.1,1.2C53.3,28.8,52.8,29.1,51.9,28.1z"/>
				<path id="XMLID_36608_" class="st9" d="M50.7,27.9c0,0,0.5,0.4,1,0.3c0,0,0,1.4-0.9,1.2C50.9,29.4,50.1,29.3,50.7,27.9z"/>
				<path id="XMLID_36607_" class="st9" d="M51.6,26.5c0,0-0.6-0.1-1,0.3c0,0-0.7-1.1,0.1-1.5C50.7,25.3,51.4,25,51.6,26.5z"/>
				<path id="XMLID_36603_" class="st9" d="M50.6,26.8c0,0-0.2,0.5,0,1c0,0-1.3,0.4-1.3-0.4C49.3,27.4,49.2,26.7,50.6,26.8z"/>
			</g>
			<g id="XMLID_36593_">
				<path id="XMLID_36601_" class="st9" d="M45.4,30c0,0,1.4-0.4,0.9-1.2c-0.5-0.8-1.7,0.5-1.5,0.6C45.3,29.5,45.4,30,45.4,30z"/>
				<path id="XMLID_36600_" class="st9" d="M45,31c0,0,0.5-0.3,0.4-0.8c0,0,1.6,0.2,1.1,1.2C46.4,31.7,45.8,31.9,45,31z"/>
				<path id="XMLID_36598_" class="st9" d="M43.8,30.7c0,0,0.5,0.4,1,0.3c0,0,0,1.4-0.9,1.2C43.9,32.2,43.2,32.1,43.8,30.7z"/>
				<path id="XMLID_36597_" class="st9" d="M44.7,29.3c0,0-0.6-0.1-1,0.3c0,0-0.7-1.1,0.1-1.5C43.8,28.1,44.5,27.8,44.7,29.3z"/>
				<g id="XMLID_36594_">
					<path id="XMLID_36596_" class="st9" d="M48.4,37.3c0,0,0.8,1.4,0.3,2.1c-0.4-0.1-0.9-0.2-1.5-0.2c-0.2-0.3-0.3-0.8-0.4-1.5
						C46.8,37.7,47.7,37.8,48.4,37.3z"/>
					<path id="XMLID_36595_" class="st9" d="M43.7,29.7c0,0-0.2,0.5,0,1c0,0-0.4,0.1-0.8,0.1c0.1-0.4,0.1-0.8,0.1-1.1
						C43.2,29.7,43.4,29.7,43.7,29.7z"/>
				</g>
			</g>
			<g id="XMLID_36583_">
				<path id="XMLID_36589_" class="st12" d="M53.5,26c0,0,0.9-0.2,0.6-0.7c-0.3-0.5-1,0.3-0.9,0.3C53.4,25.7,53.5,26,53.5,26z"/>
				<path id="XMLID_36588_" class="st12" d="M53.2,26.6c0,0,0.3-0.2,0.3-0.5c0,0,1,0.1,0.7,0.7C54,27,53.7,27.1,53.2,26.6z"/>
				<path id="XMLID_36587_" class="st12" d="M52.5,26.4c0,0,0.3,0.2,0.6,0.2c0,0,0,0.9-0.5,0.7C52.6,27.3,52.1,27.3,52.5,26.4z"/>
				<path id="XMLID_36585_" class="st12" d="M53,25.5c0,0-0.3,0-0.6,0.2c0,0-0.5-0.7,0.1-0.9C52.5,24.8,52.9,24.6,53,25.5z"/>
				<path id="XMLID_36584_" class="st12" d="M52.4,25.8c0,0-0.1,0.3,0,0.6c0,0-0.8,0.3-0.8-0.3C51.6,26.1,51.5,25.7,52.4,25.8z"/>
			</g>
			<g id="XMLID_36574_">
				<path id="XMLID_36582_" class="st12" d="M49.5,27.3c0,0,0.4-0.7-0.1-0.8c-0.5-0.1-0.4,0.9-0.3,0.8
					C49.2,27.2,49.5,27.3,49.5,27.3z"/>
				<path id="XMLID_36581_" class="st12" d="M49.7,27.9c0,0,0.1-0.3-0.2-0.5c0,0,0.7-0.5,0.9,0C50.5,27.6,50.4,27.9,49.7,27.9z"/>
				<path id="XMLID_36580_" class="st12" d="M49.1,28.2c0,0,0.3,0,0.5-0.3c0,0,0.6,0.5,0.1,0.8C49.8,28.7,49.5,29,49.1,28.2z"/>
				<path id="XMLID_36576_" class="st12" d="M48.9,27.3c0,0-0.2,0.2-0.3,0.5c0,0-0.7-0.1-0.5-0.6C48.1,27.2,48.2,26.9,48.9,27.3z"/>
				<path id="XMLID_36575_" class="st12" d="M48.7,27.9c0,0,0.1,0.3,0.4,0.4c0,0-0.3,0.7-0.7,0.4C48.4,28.6,48.1,28.4,48.7,27.9z"/>
			</g>
			<g id="XMLID_36564_">
				<path id="XMLID_36573_" class="st12" d="M49,36.6c0,0,0.5-0.8-0.2-1c-0.6-0.2-0.5,1-0.4,1C48.7,36.4,49,36.6,49,36.6z"/>
				<path id="XMLID_36572_" class="st12" d="M49.3,37.3c0,0,0.1-0.4-0.2-0.6c0,0,0.8-0.6,1.1,0C50.3,36.9,50.2,37.3,49.3,37.3z"/>
				<path id="XMLID_36571_" class="st12" d="M48.7,37.7c0,0,0.4,0,0.6-0.3c0,0,0.7,0.6,0.2,1C49.4,38.3,49,38.6,48.7,37.7z"/>
				<path id="XMLID_36569_" class="st12" d="M48.4,36.6c0,0-0.3,0.2-0.3,0.6c0,0-0.9-0.2-0.7-0.7C47.4,36.5,47.6,36,48.4,36.6z"/>
				<path id="XMLID_36568_" class="st12" d="M48.1,37.3c0,0,0.2,0.3,0.5,0.4c0,0-0.4,0.8-0.8,0.4C47.8,38.2,47.4,37.9,48.1,37.3z"/>
			</g>
			<g id="XMLID_36554_">
				<path id="XMLID_36563_" class="st12" d="M43.1,37.2c0,0,0.3-0.6-0.1-0.8c-0.5-0.1-0.4,0.8-0.3,0.7C42.8,37,43.1,37.2,43.1,37.2z
					"/>
				<path id="XMLID_36562_" class="st12" d="M43.2,37.7c0,0,0.1-0.3-0.1-0.4c0,0,0.6-0.5,0.8,0C44,37.4,43.9,37.7,43.2,37.7z"/>
				<path id="XMLID_36560_" class="st12" d="M42.8,38c0,0,0.3,0,0.5-0.3c0,0,0.5,0.5,0.1,0.7C43.4,38.5,43.1,38.7,42.8,38z"/>
				<path id="XMLID_36559_" class="st12" d="M42.6,37.2c0,0-0.2,0.2-0.2,0.4c0,0-0.7-0.1-0.5-0.5C41.8,37.1,42,36.8,42.6,37.2z"/>
				<path id="XMLID_36555_" class="st12" d="M42.3,37.7c0,0,0.1,0.3,0.4,0.3c0,0-0.3,0.6-0.6,0.3C42.1,38.3,41.8,38.1,42.3,37.7z"/>
			</g>
			<g id="XMLID_36547_">
				<path id="XMLID_36553_" class="st13" d="M50.1,30.7c0,0,1.1-0.3,0.7-1c-0.4-0.7-1.3,0.4-1.2,0.5C50,30.3,50.1,30.7,50.1,30.7z"
					/>
				<path id="XMLID_36552_" class="st13" d="M49.7,31.4c0,0,0.4-0.2,0.4-0.7c0,0,1.2,0.2,0.9,0.9C50.9,32,50.4,32.2,49.7,31.4z"/>
				<path id="XMLID_36550_" class="st13" d="M48.9,31.2c0,0,0.4,0.3,0.8,0.2c0,0,0,1.1-0.7,1C48.9,32.4,48.3,32.3,48.9,31.2z"/>
				<path id="XMLID_36549_" class="st13" d="M49.5,30.1c0,0-0.5,0-0.8,0.2c0,0-0.6-0.9,0.1-1.2C48.8,29.2,49.4,28.9,49.5,30.1z"/>
				<path id="XMLID_36548_" class="st13" d="M48.7,30.4c0,0-0.2,0.4,0,0.8c0,0-1,0.3-1.1-0.3C47.7,30.9,47.6,30.3,48.7,30.4z"/>
			</g>
			<g id="XMLID_36537_">
				<path id="XMLID_36546_" class="st13" d="M55,38.6c0,0,0.8-0.2,0.6-0.7c-0.3-0.5-1,0.3-0.9,0.3C54.9,38.3,55,38.6,55,38.6z"/>
				<path id="XMLID_36545_" class="st13" d="M54.7,39.2c0,0,0.3-0.2,0.3-0.5c0,0,0.9,0.1,0.7,0.7C55.6,39.6,55.3,39.8,54.7,39.2z"/>
				<path id="XMLID_36541_" class="st13" d="M54.1,39.1c0,0,0.3,0.2,0.6,0.2c0,0,0,0.8-0.5,0.7C54.1,40,53.7,39.9,54.1,39.1z"/>
				<path id="XMLID_36540_" class="st13" d="M54.6,38.2c0,0-0.3,0-0.6,0.2c0,0-0.4-0.7,0-0.9C54.1,37.5,54.5,37.3,54.6,38.2z"/>
				<path id="XMLID_36539_" class="st13" d="M54,38.4c0,0-0.1,0.3,0,0.6c0,0-0.7,0.2-0.8-0.3C53.2,38.8,53.1,38.3,54,38.4z"/>
			</g>
			<g id="XMLID_36528_">
				<path id="XMLID_36536_" class="st12" d="M54.3,31.8c0,0,1.1-0.3,0.7-0.9c-0.4-0.6-1.2,0.4-1.1,0.4
					C54.2,31.4,54.3,31.8,54.3,31.8z"/>
				<path id="XMLID_36535_" class="st12" d="M54,32.5c0,0,0.4-0.2,0.3-0.6c0,0,1.2,0.2,0.8,0.9C55,33,54.6,33.2,54,32.5z"/>
				<path id="XMLID_36534_" class="st12" d="M53.1,32.3c0,0,0.3,0.3,0.7,0.2c0,0,0,1.1-0.7,0.9C53.2,33.5,52.7,33.4,53.1,32.3z"/>
				<path id="XMLID_36533_" class="st12" d="M53.8,31.3c0,0-0.4,0-0.7,0.2c0,0-0.6-0.9,0.1-1.1C53.1,30.4,53.6,30.2,53.8,31.3z"/>
				<path id="XMLID_36532_" class="st12" d="M53,31.5c0,0-0.1,0.4,0,0.7c0,0-0.9,0.3-1-0.3C52,32,51.9,31.4,53,31.5z"/>
			</g>
			<g id="XMLID_36518_">
				<path id="XMLID_36527_" class="st12" d="M45.6,32c0,0,0.9-0.2,0.6-0.8c-0.3-0.6-1.1,0.3-1,0.4C45.5,31.7,45.6,32,45.6,32z"/>
				<path id="XMLID_36526_" class="st12" d="M45.3,32.6c0,0,0.4-0.2,0.3-0.5c0,0,1,0.2,0.7,0.8C46.3,33.1,45.9,33.3,45.3,32.6z"/>
				<path id="XMLID_36525_" class="st12" d="M44.6,32.5c0,0,0.3,0.2,0.7,0.2c0,0,0,0.9-0.6,0.8C44.7,33.5,44.2,33.4,44.6,32.5z"/>
				<path id="XMLID_36523_" class="st12" d="M45.2,31.5c0,0-0.4,0-0.6,0.2c0,0-0.5-0.8,0.1-1C44.6,30.8,45,30.6,45.2,31.5z"/>
				<path id="XMLID_36522_" class="st12" d="M44.5,31.8c0,0-0.1,0.3,0,0.6c0,0-0.8,0.3-0.9-0.3C43.6,32.1,43.6,31.7,44.5,31.8z"/>
			</g>
			<g id="XMLID_36508_">
				<path id="XMLID_36517_" class="st13" d="M45.8,36.1c0,0,0.9-0.2,0.6-0.8c-0.3-0.6-1.1,0.3-1,0.4C45.7,35.7,45.8,36.1,45.8,36.1z
					"/>
				<path id="XMLID_36516_" class="st13" d="M45.5,36.7c0,0,0.4-0.2,0.3-0.6c0,0,1,0.2,0.7,0.8C46.5,37.2,46.1,37.3,45.5,36.7z"/>
				<path id="XMLID_36514_" class="st13" d="M44.8,36.6c0,0,0.3,0.2,0.7,0.2c0,0,0,0.9-0.6,0.8C44.9,37.6,44.4,37.5,44.8,36.6z"/>
				<path id="XMLID_36513_" class="st13" d="M45.4,35.6c0,0-0.4,0-0.6,0.2c0,0-0.5-0.8,0.1-1C44.8,34.8,45.2,34.6,45.4,35.6z"/>
				<path id="XMLID_36509_" class="st13" d="M44.7,35.9c0,0-0.1,0.3,0,0.7c0,0-0.8,0.3-0.9-0.3C43.8,36.2,43.7,35.8,44.7,35.9z"/>
			</g>
			<g id="XMLID_36502_">
				<path id="XMLID_36507_" class="st13" d="M51.5,34.3c0,0,0.8-0.2,0.5-0.7c-0.3-0.5-1,0.3-0.9,0.3C51.4,34,51.5,34.3,51.5,34.3z"
					/>
				<path id="XMLID_36506_" class="st13" d="M51.2,34.9c0,0,0.3-0.2,0.3-0.5c0,0,0.9,0.1,0.7,0.7C52,35.3,51.7,35.4,51.2,34.9z"/>
				<path id="XMLID_36505_" class="st13" d="M50.5,34.7c0,0,0.3,0.2,0.6,0.2c0,0,0,0.8-0.5,0.7C50.6,35.6,50.2,35.5,50.5,34.7z"/>
				<path id="XMLID_36504_" class="st13" d="M51,33.9c0,0-0.3,0-0.6,0.2c0,0-0.4-0.7,0-0.9C50.5,33.2,50.9,33,51,33.9z"/>
				<path id="XMLID_36503_" class="st13" d="M50.4,34.1c0,0-0.1,0.3,0,0.6c0,0-0.7,0.2-0.8-0.3C49.7,34.4,49.6,34,50.4,34.1z"/>
			</g>
			<g id="XMLID_36491_">
				<path id="XMLID_36501_" class="st14" d="M48.2,34c0,0,0.8-0.2,0.5-0.7c-0.3-0.5-1,0.3-0.9,0.3C48.1,33.7,48.2,34,48.2,34z"/>
				<path id="XMLID_36500_" class="st14" d="M47.9,34.5c0,0,0.3-0.2,0.3-0.5c0,0,0.9,0.1,0.7,0.7C48.7,34.9,48.4,35.1,47.9,34.5z"/>
				<path id="XMLID_36499_" class="st14" d="M47.2,34.4c0,0,0.3,0.2,0.6,0.2c0,0,0,0.8-0.5,0.7C47.3,35.3,46.9,35.2,47.2,34.4z"/>
				<path id="XMLID_36498_" class="st14" d="M47.8,33.5c0,0-0.3,0-0.6,0.2c0,0-0.4-0.7,0-0.9C47.2,32.8,47.6,32.7,47.8,33.5z"/>
				<path id="XMLID_36496_" class="st14" d="M47.2,33.8c0,0-0.1,0.3,0,0.6c0,0-0.7,0.2-0.8-0.3C46.4,34.1,46.3,33.7,47.2,33.8z"/>
			</g>
			<g id="XMLID_36473_">
				<path id="XMLID_36486_" class="st14" d="M54.7,35.4c0,0,0.8-0.2,0.5-0.7c-0.3-0.5-1,0.3-0.9,0.3C54.6,35.1,54.7,35.4,54.7,35.4z
					"/>
				<path id="XMLID_36485_" class="st14" d="M54.4,36c0,0,0.3-0.2,0.3-0.5c0,0,0.9,0.1,0.7,0.7C55.2,36.4,54.9,36.6,54.4,36z"/>
				<path id="XMLID_36480_" class="st14" d="M53.7,35.9c0,0,0.3,0.2,0.6,0.2c0,0,0,0.8-0.5,0.7C53.8,36.8,53.4,36.7,53.7,35.9z"/>
				<path id="XMLID_36475_" class="st14" d="M54.3,35c0,0-0.3,0-0.6,0.2c0,0-0.4-0.7,0-0.9C53.7,34.3,54.1,34.2,54.3,35z"/>
				<path id="XMLID_36474_" class="st14" d="M53.7,35.3c0,0-0.1,0.3,0,0.6c0,0-0.7,0.2-0.8-0.3C52.9,35.6,52.8,35.2,53.7,35.3z"/>
			</g>
			<g id="XMLID_36450_">
				<path id="XMLID_36471_" class="st14" d="M51.7,38.3c0,0,0.6-0.2,0.4-0.5c-0.2-0.4-0.7,0.2-0.6,0.2
					C51.6,38.1,51.7,38.3,51.7,38.3z"/>
				<path id="XMLID_36466_" class="st14" d="M51.5,38.7c0,0,0.2-0.1,0.2-0.4c0,0,0.7,0.1,0.5,0.5C52.1,39,51.9,39.1,51.5,38.7z"/>
				<path id="XMLID_36461_" class="st14" d="M51,38.6c0,0,0.2,0.2,0.4,0.1c0,0,0,0.6-0.4,0.5C51.1,39.2,50.7,39.2,51,38.6z"/>
				<path id="XMLID_36460_" class="st14" d="M51.4,38c0,0-0.2,0-0.4,0.1c0,0-0.3-0.5,0-0.6C51,37.5,51.3,37.4,51.4,38z"/>
				<path id="XMLID_36455_" class="st14" d="M50.9,38.2c0,0-0.1,0.2,0,0.4c0,0-0.5,0.2-0.6-0.2C50.4,38.4,50.3,38.1,50.9,38.2z"/>
			</g>
			<g id="XMLID_36435_">
				<path id="XMLID_36449_" class="st13" d="M55.5,28.2c0,0,0.7-0.2,0.5-0.7c-0.3-0.4-0.9,0.3-0.8,0.3
					C55.5,27.9,55.5,28.2,55.5,28.2z"/>
				<path id="XMLID_36448_" class="st13" d="M55.3,28.7c0,0,0.3-0.1,0.2-0.4c0,0,0.8,0.1,0.6,0.6C56,29.1,55.8,29.2,55.3,28.7z"/>
				<path id="XMLID_36446_" class="st13" d="M54.7,28.6c0,0,0.2,0.2,0.5,0.2c0,0,0,0.8-0.5,0.6C54.8,29.4,54.4,29.3,54.7,28.6z"/>
				<path id="XMLID_36441_" class="st13" d="M55.2,27.8c0,0-0.3,0-0.5,0.2c0,0-0.4-0.6,0-0.8C54.7,27.2,55,27,55.2,27.8z"/>
				<path id="XMLID_36436_" class="st13" d="M54.6,28c0,0-0.1,0.3,0,0.5c0,0-0.7,0.2-0.7-0.2C53.9,28.3,53.9,28,54.6,28z"/>
			</g>
			<g id="XMLID_36420_">
				<path id="XMLID_36430_" class="st14" d="M46.7,29.2c0,0,0.8-0.2,0.5-0.7c-0.3-0.5-1,0.3-0.9,0.3C46.7,28.9,46.7,29.2,46.7,29.2z
					"/>
				<path id="XMLID_36425_" class="st14" d="M46.5,29.8c0,0,0.3-0.2,0.3-0.5c0,0,0.9,0.1,0.7,0.7C47.3,30.2,47,30.3,46.5,29.8z"/>
				<path id="XMLID_36424_" class="st14" d="M45.8,29.6c0,0,0.3,0.2,0.6,0.2c0,0,0,0.8-0.5,0.7C45.9,30.5,45.4,30.5,45.8,29.6z"/>
				<path id="XMLID_36423_" class="st14" d="M46.3,28.8c0,0-0.3,0-0.6,0.2c0,0-0.4-0.7,0-0.9C45.8,28.1,46.2,27.9,46.3,28.8z"/>
				<path id="XMLID_36422_" class="st14" d="M45.7,29c0,0-0.1,0.3,0,0.6c0,0-0.7,0.2-0.8-0.3C44.9,29.3,44.9,28.9,45.7,29z"/>
			</g>
			<g id="XMLID_36406_">
				<path id="XMLID_36418_" class="st14" d="M56.4,25.2c0,0,0.8-0.2,0.5-0.7c-0.3-0.5-1,0.3-0.9,0.3C56.4,24.9,56.4,25.2,56.4,25.2z
					"/>
				<path id="XMLID_36414_" class="st14" d="M56.2,25.8c0,0,0.3-0.2,0.3-0.5c0,0,0.9,0.1,0.7,0.7C57,26.2,56.7,26.4,56.2,25.8z"/>
				<path id="XMLID_36413_" class="st14" d="M55.5,25.7c0,0,0.3,0.2,0.6,0.2c0,0,0,0.8-0.5,0.7C55.6,26.6,55.1,26.5,55.5,25.7z"/>
				<path id="XMLID_36411_" class="st14" d="M56,24.8c0,0-0.3,0-0.6,0.2c0,0-0.4-0.7,0-0.9C55.5,24.1,55.9,24,56,24.8z"/>
				<path id="XMLID_36407_" class="st14" d="M55.4,25.1c0,0-0.1,0.3,0,0.6c0,0-0.7,0.2-0.8-0.3C54.6,25.4,54.6,25,55.4,25.1z"/>
			</g>
			<g id="XMLID_36392_">
				<path id="XMLID_36405_" class="st13" d="M50.8,25.5c0,0,0.6-0.2,0.4-0.5c-0.2-0.3-0.7,0.2-0.6,0.2
					C50.7,25.3,50.8,25.5,50.8,25.5z"/>
				<path id="XMLID_36403_" class="st13" d="M50.6,25.9c0,0,0.2-0.1,0.2-0.3c0,0,0.6,0.1,0.5,0.5C51.1,26.1,50.9,26.2,50.6,25.9z"/>
				<path id="XMLID_36399_" class="st13" d="M50.1,25.8c0,0,0.2,0.2,0.4,0.1c0,0,0,0.6-0.4,0.5C50.2,26.4,49.9,26.3,50.1,25.8z"/>
				<path id="XMLID_36398_" class="st13" d="M50.5,25.2c0,0-0.2,0-0.4,0.1c0,0-0.3-0.5,0-0.6C50.1,24.7,50.4,24.6,50.5,25.2z"/>
				<path id="XMLID_36396_" class="st13" d="M50.1,25.3c0,0-0.1,0.2,0,0.4c0,0-0.5,0.2-0.5-0.2C49.5,25.6,49.5,25.3,50.1,25.3z"/>
			</g>
			<g id="XMLID_36381_">
				<path id="XMLID_36391_" class="st14" d="M52.6,28.8c0,0,0.8-0.2,0.5-0.7c-0.3-0.5-1,0.3-0.9,0.3C52.5,28.5,52.6,28.8,52.6,28.8z
					"/>
				<path id="XMLID_36390_" class="st14" d="M52.3,29.4c0,0,0.3-0.2,0.3-0.5c0,0,0.9,0.1,0.7,0.7C53.2,29.8,52.9,29.9,52.3,29.4z"/>
				<path id="XMLID_36389_" class="st14" d="M51.7,29.2c0,0,0.3,0.2,0.6,0.2c0,0,0,0.8-0.5,0.7C51.7,30.1,51.3,30.1,51.7,29.2z"/>
				<path id="XMLID_36387_" class="st14" d="M52.2,28.4c0,0-0.3,0-0.6,0.2c0,0-0.4-0.7,0-0.9C51.7,27.7,52.1,27.5,52.2,28.4z"/>
				<path id="XMLID_36385_" class="st14" d="M51.6,28.6c0,0-0.1,0.3,0,0.6c0,0-0.7,0.2-0.8-0.3C50.8,29,50.7,28.5,51.6,28.6z"/>
			</g>
			<g id="XMLID_36370_">
				<path id="XMLID_36380_" class="st14" d="M47.4,25.5c0,0,0.8-0.2,0.5-0.7c-0.3-0.5-1,0.3-0.9,0.3C47.3,25.2,47.4,25.5,47.4,25.5z
					"/>
				<path id="XMLID_36378_" class="st14" d="M47.1,26.1c0,0,0.3-0.2,0.3-0.5c0,0,0.9,0.1,0.7,0.7C48,26.5,47.7,26.7,47.1,26.1z"/>
				<path id="XMLID_36374_" class="st14" d="M46.5,26c0,0,0.3,0.2,0.6,0.2c0,0,0,0.8-0.5,0.7C46.5,26.9,46.1,26.8,46.5,26z"/>
				<path id="XMLID_36373_" class="st14" d="M47,25.1c0,0-0.3,0-0.6,0.2c0,0-0.4-0.7,0-0.9C46.5,24.4,46.9,24.3,47,25.1z"/>
				<path id="XMLID_36372_" class="st14" d="M46.4,25.4c0,0-0.1,0.3,0,0.6c0,0-0.7,0.2-0.8-0.3C45.6,25.7,45.6,25.3,46.4,25.4z"/>
			</g>
			<g id="XMLID_36357_">
				<path id="XMLID_36366_" class="st13" d="M44.8,27.4c0,0,0.6-0.2,0.4-0.5c-0.2-0.3-0.7,0.2-0.6,0.2
					C44.7,27.2,44.8,27.4,44.8,27.4z"/>
				<path id="XMLID_36365_" class="st13" d="M44.6,27.8c0,0,0.2-0.1,0.2-0.3c0,0,0.6,0.1,0.5,0.5C45.1,28.1,44.9,28.2,44.6,27.8z"/>
				<path id="XMLID_36363_" class="st13" d="M44.1,27.7c0,0,0.2,0.2,0.4,0.1c0,0,0,0.6-0.4,0.5C44.2,28.3,43.9,28.3,44.1,27.7z"/>
				<path id="XMLID_36359_" class="st13" d="M44.5,27.1c0,0-0.2,0-0.4,0.1c0,0-0.3-0.5,0-0.6C44.1,26.7,44.4,26.6,44.5,27.1z"/>
				<path id="XMLID_36358_" class="st13" d="M44.1,27.3c0,0-0.1,0.2,0,0.4c0,0-0.5,0.2-0.5-0.2C43.5,27.5,43.5,27.2,44.1,27.3z"/>
			</g>
			<g id="XMLID_36345_">
				<path id="XMLID_36356_" class="st12" d="M52,36.3c0,0,0.2-0.5-0.1-0.5c-0.3-0.1-0.3,0.6-0.2,0.5C51.8,36.2,52,36.3,52,36.3z"/>
				<path id="XMLID_36354_" class="st12" d="M52.1,36.7c0,0,0.1-0.2-0.1-0.3c0,0,0.4-0.3,0.6,0C52.7,36.5,52.6,36.7,52.1,36.7z"/>
				<path id="XMLID_36352_" class="st12" d="M51.8,36.9c0,0,0.2,0,0.3-0.2c0,0,0.4,0.3,0.1,0.5C52.2,37.2,52,37.4,51.8,36.9z"/>
				<path id="XMLID_36348_" class="st12" d="M51.6,36.3c0,0-0.2,0.1-0.2,0.3c0,0-0.5-0.1-0.4-0.4C51.1,36.2,51.2,36,51.6,36.3z"/>
				<path id="XMLID_36347_" class="st12" d="M51.5,36.7c0,0,0.1,0.2,0.3,0.2c0,0-0.2,0.4-0.4,0.2C51.3,37.1,51.1,37,51.5,36.7z"/>
			</g>
			<g id="XMLID_36332_">
				<path id="XMLID_36341_" class="st14" d="M43.7,34c0,0,0.4-0.1,0.3-0.4c-0.1-0.3-0.5,0.2-0.4,0.2C43.6,33.9,43.7,34,43.7,34z"/>
				<path id="XMLID_36340_" class="st14" d="M43.5,34.3c0,0,0.2-0.1,0.1-0.3c0,0,0.5,0.1,0.3,0.4C44,34.6,43.8,34.6,43.5,34.3z"/>
				<path id="XMLID_36339_" class="st14" d="M43.2,34.3c0,0,0.1,0.1,0.3,0.1c0,0,0,0.4-0.3,0.4C43.2,34.7,43,34.7,43.2,34.3z"/>
				<path id="XMLID_36337_" class="st14" d="M43.5,33.8c0,0-0.2,0-0.3,0.1c0,0-0.2-0.3,0-0.4C43.2,33.5,43.4,33.4,43.5,33.8z"/>
				<path id="XMLID_36333_" class="st14" d="M43.2,33.9c0,0-0.1,0.2,0,0.3c0,0-0.4,0.1-0.4-0.1C42.8,34.1,42.7,33.9,43.2,33.9z"/>
			</g>
			<g id="XMLID_36318_">
				<path id="XMLID_36330_" class="st12" d="M44.5,25.2c0,0,0.4-0.1,0.3-0.3c-0.1-0.2-0.5,0.1-0.4,0.2
					C44.5,25.1,44.5,25.2,44.5,25.2z"/>
				<path id="XMLID_36326_" class="st12" d="M44.4,25.5c0,0,0.2-0.1,0.1-0.2c0,0,0.5,0.1,0.3,0.3C44.8,25.7,44.6,25.8,44.4,25.5z"/>
				<path id="XMLID_36325_" class="st12" d="M44,25.5c0,0,0.1,0.1,0.3,0.1c0,0,0,0.4-0.3,0.3C44.1,25.9,43.9,25.9,44,25.5z"/>
				<path id="XMLID_36324_" class="st12" d="M44.3,25c0,0-0.2,0-0.3,0.1c0,0-0.2-0.3,0-0.4C44,24.7,44.2,24.6,44.3,25z"/>
				<path id="XMLID_36322_" class="st12" d="M44,25.2c0,0-0.1,0.2,0,0.3c0,0-0.4,0.1-0.4-0.1C43.6,25.3,43.6,25.1,44,25.2z"/>
			</g>
		</g>
	</g>
</g>
</svg>
