<?xml version="1.0" encoding="utf-8"?>
<!-- Generator: Adobe Illustrator 21.0.0, SVG Export Plug-In . SVG Version: 6.00 Build 0)  -->
<svg version="1.1" id="Layer_1" xmlns="http://www.w3.org/2000/svg" xmlns:xlink="http://www.w3.org/1999/xlink" x="0px" y="0px"
	 viewBox="0 0 80 80" style="enable-background:new 0 0 80 80;" xml:space="preserve">
<style type="text/css">
	.st0{fill:#301F12;}
	.st1{fill:#563E2E;}
	.st2{fill:#008895;}
	.st3{fill:#49C1C2;}
	.st4{fill:#01B4B3;}
	.st5{fill:#056378;}
	.st6{opacity:0.2;}
	.st7{opacity:0.2;fill:#056378;enable-background:new    ;}
	.st8{fill:#029A9A;}
	.st9{fill:#008E88;}
	.st10{fill:#12A1A4;}
	.st11{fill:#B8E3EC;}
	.st12{fill:#CAE9F0;}
</style>
<g id="XMLID_38747_">
	<g id="XMLID_38798_">
		<polygon id="XMLID_38800_" class="st0" points="74.3,41.5 77.5,39.7 77.5,37.9 74.3,39.7 		"/>
		<polygon id="XMLID_38799_" class="st1" points="74.3,39.7 71.1,37.9 71.1,39.7 74.3,41.5 		"/>
	</g>
	<g id="XMLID_38795_">
		<polygon id="XMLID_38797_" class="st0" points="5.7,61.9 8.9,60.1 8.9,58.3 5.7,60.1 		"/>
		<polygon id="XMLID_38796_" class="st1" points="5.7,60.1 2.5,58.3 2.5,60.1 5.7,61.9 		"/>
	</g>
	<g id="XMLID_38792_">
		<polygon id="XMLID_38794_" class="st0" points="22.3,71.5 25.5,69.6 25.5,67.9 22.3,69.7 		"/>
		<polygon id="XMLID_38793_" class="st1" points="22.3,69.7 19.1,67.9 19.1,69.6 22.3,71.5 		"/>
	</g>
	<g id="XMLID_38748_">
		<g id="XMLID_38782_">
			<polygon id="XMLID_38791_" class="st2" points="56.4,17.6 56.4,25.8 71.4,34.4 71.4,26.4 			"/>
			<polygon id="XMLID_38790_" class="st3" points="57.7,11.4 51.6,14.9 71.4,26.4 77.5,22.9 			"/>
			<polyline id="XMLID_42121_" class="st4" points="57.7,11.4 51.6,14.9 71.4,26.4 			"/>
			<polygon id="XMLID_38789_" class="st5" points="77.5,36.1 77.5,22.9 71.4,26.4 71.4,39.6 			"/>
			<g id="XMLID_38787_">
				<polygon id="XMLID_38788_" class="st5" points="71.4,34.8 28.4,59.7 28.4,64.5 71.4,39.6 				"/>
			</g>
			<g id="XMLID_42118_" class="st6">
				<polyline id="XMLID_42120_" class="st5" points="71.4,34.8 28.4,59.7 28.4,64.5 				"/>
			</g>
			<g id="XMLID_38785_">
				<polygon id="XMLID_38786_" class="st0" points="77.5,36.1 22.3,68 22.3,69.7 77.5,37.9 				"/>
			</g>
			<g id="XMLID_38783_">
				<polygon id="XMLID_38784_" class="st1" points="2.5,56.5 22.3,68 22.3,69.7 2.5,58.3 				"/>
			</g>
		</g>
		<polygon id="XMLID_38781_" class="st3" points="55.1,10.4 51.6,8.5 8.6,33.4 12,35.3 		"/>
		<polyline id="XMLID_42116_" class="st4" points="8.6,33.4 12,35.3 55.1,10.4 		"/>
		<polygon id="XMLID_38780_" class="st2" points="13.3,46.6 8.6,43.9 8.6,33.4 12,35.3 		"/>
		<polygon id="XMLID_38779_" class="st5" points="55.1,10.4 12,35.3 13.3,46.6 56.4,21.7 		"/>
		<polyline id="XMLID_42115_" class="st7" points="13.3,46.6 56.4,21.7 55.1,10.4 		"/>
		<g id="XMLID_38771_">
			<g id="XMLID_38777_">
				<polygon id="XMLID_38778_" class="st4" points="72,30.8 56.4,21.7 34.8,34.2 50.5,43.2 				"/>
			</g>
			<polygon class="st7" points="53,27.1 53,41.7 66.1,34.2 66.1,27.4 65.5,27.1 			"/>
			<g id="XMLID_38772_">
				<g id="XMLID_38775_">
					<polygon id="XMLID_38776_" class="st8" points="72,30.8 72,34.8 50.5,47.2 50.5,43.2 					"/>
				</g>
				<g id="XMLID_38773_">
					<polygon id="XMLID_38774_" class="st9" points="72,35.2 72,34.8 50.5,47.2 50.5,47.6 					"/>
				</g>
			</g>
		</g>
		<g id="XMLID_38755_">
			<g id="XMLID_38769_">
				<polygon id="XMLID_38770_" class="st4" points="50.5,43.2 34.8,34.2 13.3,46.6 28.9,55.6 				"/>
			</g>
			<polygon class="st7" points="28.4,38 13.3,46.6 28.4,55.3 			"/>
			<g id="XMLID_38767_">
				<polygon id="XMLID_38768_" class="st8" points="50.5,43.2 34.8,34.2 34.5,34.4 50.2,43.4 				"/>
			</g>
			<g id="XMLID_38763_">
				<polygon id="XMLID_38766_" class="st10" points="28.9,59.7 15.2,51.7 15.2,47.7 28.9,55.6 				"/>
				<g id="XMLID_38764_">
					<polygon id="XMLID_38765_" class="st9" points="15.2,52.1 15.2,51.7 28.9,59.7 28.9,60.1 					"/>
				</g>
			</g>
			<g id="XMLID_38756_">
				<g id="XMLID_38761_">
					<polygon id="XMLID_38762_" class="st8" points="50.5,43.2 50.5,47.2 28.9,59.7 28.9,55.6 					"/>
				</g>
				<g id="XMLID_38759_">
					<polygon id="XMLID_38760_" class="st9" points="50.5,43.2 50.2,43.4 50.2,47.4 50.5,47.2 					"/>
				</g>
				<g id="XMLID_38757_">
					<polygon id="XMLID_38758_" class="st9" points="50.5,47.6 50.5,47.2 28.9,59.7 28.9,60.1 					"/>
				</g>
			</g>
		</g>
		<g id="XMLID_38752_">
			<path id="XMLID_38754_" class="st11" d="M66.1,27.1c-0.5,0.4-1.8-2.8-2.5-6.6c-0.2-1.3-0.8-2.7-1-4.2c-0.2-1.6,1-3.1,1-3.1
				c0.1-0.1,0.5-0.1,0.6,0.3c0,0,0.5,4.6,1,7.5C65.8,23.8,66.3,26.9,66.1,27.1z"/>
			<path id="XMLID_38753_" class="st12" d="M53,28.1c0,0.2,0.2,0.5,0.5,0.4c1.1-0.2,4.7-0.9,6.1-0.9c2.4,0,4.9-0.2,6-0.2
				c0.2,0,0.5-0.2,0.5-0.4c0-1.3-1.6-3.4-2.2-6.6c-0.2-1.1-0.1-3.4-0.2-4.4c-0.1-1.4,0.2-2.1,0.2-2.8c0-0.2-0.2-0.3-0.4-0.2
				c-1.1,0.7-3.5,1.7-5.2,2.2c-1.1,0.3-2.9,0.4-3.4,0.5c-1.1,0.2-2,0.6-2.5,1.1c-0.3,0.3-0.2,1.1-0.1,1.3c0.3,0.7,0.7,2.2,0.8,4.7
				C53.3,25.3,53,27.2,53,28.1z"/>
		</g>
		<polygon id="XMLID_38751_" class="st2" points="22.3,54.7 2.5,43.4 2.5,56.5 22.3,68 		"/>
		<polygon id="XMLID_38750_" class="st3" points="8.6,39.8 2.5,43.4 22.3,54.7 28.4,51.2 		"/>
		<polyline id="XMLID_42117_" class="st4" points="22.3,54.7 28.4,51.2 8.6,39.8 		"/>
		<polygon id="XMLID_38749_" class="st5" points="28.4,64.5 28.4,51.2 22.3,54.7 22.3,68 		"/>
		<polygon id="XMLID_42111_" class="st7" points="28.4,64.5 28.4,51.2 22.3,54.7 22.3,68 		"/>
	</g>
</g>
</svg>
