<?xml version="1.0" encoding="utf-8"?>
<!-- Generator: Adobe Illustrator 21.0.0, SVG Export Plug-In . SVG Version: 6.00 Build 0)  -->
<svg version="1.1" id="Layer_1" xmlns="http://www.w3.org/2000/svg" xmlns:xlink="http://www.w3.org/1999/xlink" x="0px" y="0px"
	 viewBox="0 0 80 80" style="enable-background:new 0 0 80 80;" xml:space="preserve">
<style type="text/css">
	.st0{fill:#989495;}
	.st1{fill:#565152;}
	.st2{fill:#9B2569;}
	.st3{opacity:0.1;fill:#530E35;}
	.st4{fill:#600F3A;}
	.st5{fill:#530E35;}
	.st6{fill:#7F1A51;}
</style>
<g id="XMLID_35066_">
	<g id="XMLID_35070_">
		<g id="XMLID_35079_">
			<polygon id="XMLID_35081_" class="st0" points="4.6,53.2 4.6,57.8 6.7,59 6.7,54.4 			"/>
			<polygon id="XMLID_35080_" class="st1" points="8.8,53.2 6.7,54.4 6.7,59 8.8,57.8 			"/>
		</g>
		<polygon id="XMLID_35078_" class="st0" points="4.6,51.5 4.6,53.2 26.9,66.1 26.9,64.4 		"/>
		<g id="XMLID_35075_">
			<polygon id="XMLID_35077_" class="st0" points="69.4,38.9 69.4,43.5 71.5,44.7 71.5,40.1 			"/>
			<polygon id="XMLID_35076_" class="st1" points="73.6,38.9 71.5,40.1 71.5,44.7 73.6,43.5 			"/>
		</g>
		<polygon id="XMLID_35074_" class="st1" points="73.6,37.2 26.9,64.4 26.9,66.1 73.6,38.9 		"/>
		<g id="XMLID_35071_">
			<polygon id="XMLID_35073_" class="st0" points="24.8,64.9 24.8,69.5 26.9,70.7 26.9,66.1 			"/>
			<polygon id="XMLID_35072_" class="st1" points="29,64.9 26.9,66.1 26.9,70.7 29,69.5 			"/>
		</g>
	</g>
	<path id="XMLID_35069_" class="st2" d="M77,10.3c-0.4-0.3-0.9-0.6-1.1-0.7c-1.5-0.9-3,0.5-3,2.2l-0.3,11.1l-14.3-8.2
		c-2-1.1-4.5-1.1-6.3,0C51.7,14.8,4.6,42.5,4.3,42.7c-0.6,0.4-1.1,0.9-1.4,1.6c-1.3,2.3-0.6,5.9,2,7.4l21.6,12.5
		c0.9,0.5,1.8,0.4,2.6,0c0.8-0.4,46.7-27.3,47.5-27.8c0.7-0.4,1.2-1.2,1.2-2.2V12C77.7,11.3,77.4,10.6,77,10.3z"/>
	<path class="st3" d="M77,10.3c-0.4-0.3-0.9-0.6-1.1-0.7c-1.5-0.9-3,0.5-3,2.2l-0.3,11.1l-14.3-8.2c-2-1.1-4.5-1.1-6.3,0
		c-0.1,0-13.5,7.9-26,15.2v33.8l0.7,0.4c0.9,0.5,1.8,0.4,2.6,0c0.8-0.4,46.7-27.3,47.5-27.8c0.7-0.4,1.2-1.2,1.2-2.2V12
		C77.7,11.3,77.4,10.6,77,10.3z"/>
	<path id="XMLID_35068_" class="st4" d="M77,10.3c-0.4-0.3-0.9-0.6-1.1-0.7c-0.7-0.4-1.3-0.3-1.9,0C73.3,10,26.4,37.5,26.4,37.5
		l0.1,26.7c0.9,0.5,1.8,0.4,2.6,0c0.8-0.4,46.7-27.3,47.5-27.8c0.7-0.4,1.2-1.2,1.2-2.2V12C77.7,11.3,77.4,10.6,77,10.3z"/>
	<path id="XMLID_42177_" class="st5" d="M77.7,12c0-0.7-0.3-1.4-0.7-1.7c-0.4-0.3-0.9-0.6-1.1-0.7c-0.7-0.4-1.3-0.3-1.9,0
		C73.3,10,26.4,37.5,26.4,37.5l0.1,26.7c0.9,0.5,1.8,0.4,2.6,0"/>
	<path id="XMLID_35067_" class="st6" d="M29.6,38c-0.4-0.3-0.9-0.6-1.1-0.7c-1.5-0.9-3,0.5-3,2.2l0,17.2c0,0.3-0.3,0.5-0.6,0.3
		L7.4,47.1l-1.3,0.9l1-1.4l0.3-1.8l0.3,1.8l17.2,9.8c0.1,0.1,0.3,0,0.3-0.2v-5c0-0.4-0.2-0.9-0.6-1.1l-13.7-7.8
		c-2.7-1.6-6.5-1-7.9,1.7c-1.3,2.3-0.6,5.9,2,7.4l21.6,12.5c1.7,1,3.9-0.2,3.9-2.2V39.7C30.4,39,30,38.3,29.6,38z"/>
</g>
</svg>
