<?xml version="1.0" encoding="utf-8"?>
<!-- Generator: Adobe Illustrator 21.0.0, SVG Export Plug-In . SVG Version: 6.00 Build 0)  -->
<svg version="1.1" id="Layer_1" xmlns="http://www.w3.org/2000/svg" xmlns:xlink="http://www.w3.org/1999/xlink" x="0px" y="0px"
	 viewBox="0 0 80 80" style="enable-background:new 0 0 80 80;" xml:space="preserve">
<style type="text/css">
	.st0{fill:#6D401D;}
	.st1{fill:#A46637;}
	.st2{fill:#9F5F2C;}
	.st3{fill:#8C522A;}
	.st4{fill:#60361A;}
	.st5{fill:#93542A;}
	.st6{fill:#894B28;}
	.st7{fill:#B57243;}
</style>
<g id="XMLID_52661_">
	<g id="XMLID_4958_">
		<polygon id="XMLID_52670_" class="st0" points="38,37.5 38.6,52.6 39.5,53.1 39.5,38.4 		"/>
		<polygon id="XMLID_52662_" class="st1" points="41,38.1 39.5,38.4 39.5,53.1 40.4,52.6 		"/>
		<g id="XMLID_4985_">
			<polygon id="XMLID_52659_" class="st1" points="38.7,41.5 38.7,42.6 31.2,47 31.2,45.9 			"/>
			<polygon id="XMLID_4992_" class="st2" points="37.9,41 38.7,41.5 31.2,45.9 30.3,45.4 			"/>
			<polygon id="XMLID_4991_" class="st0" points="29.3,43.4 29.9,57.6 30.8,58.1 30.8,43.4 			"/>
			<polygon id="XMLID_4990_" class="st3" points="32.3,42.6 30.8,43.4 30.8,58.1 31.7,57.6 			"/>
			<polygon id="XMLID_4989_" class="st0" points="40.1,41.5 40.1,42.6 48.8,47.6 48.8,46.5 			"/>
			<polygon id="XMLID_4988_" class="st2" points="40.9,41 40.1,41.5 48.8,46.5 49.6,46.1 			"/>
			<polygon id="XMLID_4987_" class="st0" points="31.1,46.2 31.1,47.3 39.9,52.4 39.9,51.3 			"/>
			<polygon id="XMLID_4986_" class="st3" points="31.9,45.7 31.1,46.2 39.9,51.3 40.7,50.9 			"/>
		</g>
		<g id="XMLID_4977_">
			<g id="XMLID_4980_">
				<polygon id="XMLID_4984_" class="st0" points="48.4,42.7 49,57.8 49.9,58.3 49.9,43.6 				"/>
				<polygon id="XMLID_4983_" class="st3" points="49.6,47 49.6,48.1 42,52.5 42,51.4 				"/>
				<polygon id="XMLID_4982_" class="st0" points="48.8,46.5 49.6,47 42,51.4 41.2,51 				"/>
				<polygon id="XMLID_4981_" class="st3" points="51.4,43.3 49.9,43.6 49.9,58.3 50.8,57.8 				"/>
			</g>
			<polygon id="XMLID_4979_" class="st0" points="39.7,47.8 40.3,62.8 41.2,63.3 41.2,48.7 			"/>
			<polygon id="XMLID_4978_" class="st3" points="42.7,47.8 41.2,48.7 41.2,63.3 42.1,62.8 			"/>
		</g>
		<g id="XMLID_4976_">
			<path id="XMLID_52669_" class="st4" d="M30.3,40.1l8.7-5c0.7-0.4,1.5-0.4,2.1,0l9.6,5.6c0.4,0.2,0.6,0.6,0.6,1c0,0,0,1.6,0,1.6
				c0,0.4-0.2,0.8-0.6,1l-7,4c-2.4,1.4-5.4,1.4-7.9,0l-5.6-3.2c-0.7-0.4-1-1-1-1.7c0-0.3,0-1.6,0-1.6C29.4,41.1,29.7,40.5,30.3,40.1
				z"/>
			<path id="XMLID_52668_" class="st0" d="M30.3,40.1l8.7-5c0.7-0.4,1.5-0.4,2.1,0l9.6,5.6c0.4,0.2,0.6,0.6,0.6,1c0,0,0,0.8,0,0.8
				c0,0.4-0.2,0.8-0.6,1l-7,4c-2.4,1.4-5.4,1.4-7.9,0l-5.6-3.2c-0.7-0.4-1-1.1-1-1.7c0-0.1,0-0.7,0-0.8
				C29.4,41.1,29.7,40.5,30.3,40.1z"/>
			<path id="XMLID_52665_" class="st2" d="M39,35.1l-8.7,5c-1.3,0.8-1.3,2.7,0,3.4l5.6,3.2c2.4,1.4,5.4,1.4,7.9,0l7-4
				c0.8-0.5,0.8-1.6,0-2.1l-9.6-5.6C40.5,34.7,39.7,34.7,39,35.1z"/>
			<path id="XMLID_34333_" class="st5" d="M30.3,40.1c-1.3,0.8-1.3,2.7,0,3.4l5.6,3.2c2.4,1.4,5.4,1.4,7.9,0l7-4
				c0.8-0.5,0.8-1.6,0-2.1"/>
			<path id="XMLID_34334_" class="st6" d="M30.3,40.1c-1.3,0.8-1.3,2.7,0,3.4l5.6,3.2c2.4,1.4,5.4,1.4,7.9,0"/>
		</g>
		<g id="XMLID_4959_">
			<g id="XMLID_4973_">
				<polygon id="XMLID_4975_" class="st0" points="29.5,41.4 29.3,22.4 30.1,22.9 31,42.3 				"/>
				<polygon id="XMLID_4974_" class="st7" points="32.4,41.4 31,42.3 30.1,22.9 31,22.4 				"/>
				<polyline id="XMLID_34340_" class="st1" points="32.4,41.4 31,42.3 30.1,22.9 				"/>
			</g>
			<polygon id="XMLID_4972_" class="st2" points="30.8,23.6 30.4,23.9 40.8,29.8 40.8,29.4 			"/>
			<polygon id="XMLID_4971_" class="st0" points="30.4,23.9 30.5,26.3 40.7,32.2 40.8,29.8 			"/>
			<polygon id="XMLID_4970_" class="st2" points="31.2,28.9 30.7,29.2 40.9,35 40.9,34.5 			"/>
			<polygon id="XMLID_4969_" class="st0" points="30.7,29.2 30.8,30.5 40.9,36.3 40.9,35 			"/>
			<polygon id="XMLID_4968_" class="st2" points="31.3,31.9 30.9,32.1 41.1,38 41.1,37.5 			"/>
			<polygon id="XMLID_4967_" class="st0" points="30.9,32.1 31,33.5 41,39.2 41.1,38 			"/>
			<polygon id="XMLID_4966_" class="st2" points="31.5,34.8 31,35 41.2,40.9 41.2,40.4 			"/>
			<polygon id="XMLID_4965_" class="st0" points="31,35 31.1,36.4 41.2,42.2 41.2,40.9 			"/>
			<g id="XMLID_4961_">
				<polygon id="XMLID_4964_" class="st0" points="39.1,46.9 40.5,28.9 41.4,29.4 40.5,47.7 				"/>
				<polygon id="XMLID_4963_" class="st2" points="41.4,28.3 40.5,28.9 41.4,29.4 42.2,28.9 				"/>
				<polygon id="XMLID_4962_" class="st7" points="42,46.9 40.5,47.7 41.4,29.4 42.2,28.9 				"/>
				<polyline id="XMLID_34338_" class="st1" points="42,46.9 40.5,47.7 41.4,29.4 				"/>
			</g>
			<polygon id="XMLID_4960_" class="st2" points="30.1,21.9 29.3,22.4 30.1,22.9 31,22.4 			"/>
		</g>
	</g>
</g>
</svg>
