<?xml version="1.0" encoding="utf-8"?>
<!-- Generator: Adobe Illustrator 21.0.0, SVG Export Plug-In . SVG Version: 6.00 Build 0)  -->
<svg version="1.1" id="Layer_1" xmlns="http://www.w3.org/2000/svg" xmlns:xlink="http://www.w3.org/1999/xlink" x="0px" y="0px"
	 viewBox="0 0 80 80" style="enable-background:new 0 0 80 80;" xml:space="preserve">
<style type="text/css">
	.st0{fill:#989495;}
	.st1{fill:#565152;}
	.st2{fill:#70696B;}
	.st3{fill:#8A1B51;}
	.st4{fill:#600F3A;}
	.st5{fill:#530E35;}
	.st6{fill:#9B2569;}
	.st7{opacity:0.1;fill:#530E35;enable-background:new    ;}
	.st8{fill:#7F1A51;}
	.st9{fill:#DCD7CC;}
	.st10{fill:#DDD5C3;}
	.st11{fill:#E8E3D4;}
	.st12{fill:#D87FB3;}
	.st13{fill:#D3BB60;}
	.st14{fill:#CD8760;}
</style>
<g id="XMLID_35897_">
	<g id="XMLID_36259_">
		<g id="XMLID_36284_">
			<g id="XMLID_36308_">
				<polygon id="XMLID_36310_" class="st0" points="5.7,60.9 5.7,65.5 3.7,64.3 3.7,59.7 				"/>
				<polygon id="XMLID_36309_" class="st1" points="7.8,64.3 5.7,65.5 5.7,60.9 7.8,59.7 				"/>
			</g>
			<polygon id="XMLID_36307_" class="st0" points="25.7,70.8 25.7,72.5 3.7,59.7 3.7,58 			"/>
			<g id="XMLID_36295_">
				<polygon id="XMLID_36301_" class="st0" points="70.7,46.5 70.7,51 68.6,49.8 68.6,45.3 				"/>
				<polygon id="XMLID_36296_" class="st1" points="72.8,49.8 70.7,51 70.7,46.5 72.8,45.3 				"/>
			</g>
			<polygon id="XMLID_36290_" class="st1" points="72.8,45.3 25.7,72.5 25.7,70.8 72.8,43.6 			"/>
			<polygon id="XMLID_36285_" class="st2" points="72.8,43.6 25.7,70.8 3.7,58 50.7,30.9 			"/>
		</g>
		<g id="XMLID_36272_">
			<polygon id="XMLID_36283_" class="st0" points="25.7,72.5 25.7,77 23.6,75.8 23.6,71.3 			"/>
			<polygon id="XMLID_36277_" class="st1" points="27.8,75.8 25.7,77 25.7,72.5 27.8,71.3 			"/>
		</g>
		<polygon id="XMLID_36271_" class="st3" points="27,62.7 27,67.6 8.6,57 8.6,52.1 		"/>
		<path id="XMLID_36266_" class="st4" d="M3.3,30.3l4.3,25.3l47-27.2V8.2c0-1.7-0.8-3.3-2.2-4.3c-0.1-0.1-0.2-0.2-0.4-0.3l-0.9-0.5
			c-0.3-0.2-0.7-0.2-0.9,0L3.3,30.3z"/>
		<path id="XMLID_42182_" class="st5" d="M7.6,55.6l47-27.2V8.2c0-1.7-0.8-3.3-2.2-4.3c-0.1-0.1-0.2-0.2-0.4-0.3l-0.9-0.5
			c-0.3-0.2-0.7-0.2-0.9,0"/>
		<path id="XMLID_36261_" class="st6" d="M8.5,48.5L26,59.2c2.6,1.5,2.3,10.6,2.3,10.6l47.1-27.2l0,0c1.1-0.7,1.8-1.9,1.8-3.4v-1
			c-0.1-2.9-1.6-5.6-4.2-7.1l-16.9-9.8c-0.2-0.1-0.5-0.1-0.7,0C55.4,21.4,8.4,48.5,8.5,48.5z"/>
		<path class="st7" d="M28.3,69.8c0,0,0.3-9.1-2.3-10.6L8.5,48.5c0,0,40.1-23.2,46.2-26.7v32.7L28.3,69.8z"/>
		<path id="XMLID_36260_" class="st8" d="M2.8,52.8v2.4c0,1.5,0.8,2.9,2.1,3.6l19.3,11.1c2.7,1.5,6-0.4,6-3.5v-0.9
			c0-3-1.6-5.7-4.2-7.2L9.2,48.5c-0.4-0.2-1,0.1-1,0.6v4.1c0,0.4,0.2,0.8,0.6,1.1l16.8,9.6l1.2-0.9l-1,1.4l-0.3,1.8l-0.3-1.8
			L8.4,54.7c-0.5-0.3-0.8-0.8-0.8-1.4V35.4c0-1.9-1-3.6-2.6-4.5l-1-0.6C3.5,30,2.8,30.4,2.8,31V52.8L2.8,52.8z"/>
	</g>
	<g id="XMLID_36241_">
		<path id="XMLID_36257_" class="st9" d="M20,41.7c0.2,0.1-0.2-2.3-1.3-1.7c-1.1,0.6,0.2,2,0.2,2S19.5,41.5,20,41.7z"/>
		<path id="XMLID_36252_" class="st9" d="M16.8,42.7c0.1-1.3,2.1-0.5,2.1-0.5c-0.5,0.6-0.1,1.3-0.1,1.3
			C17.1,43.9,16.7,43.3,16.8,42.7z"/>
		<path id="XMLID_36247_" class="st9" d="M22,41c0.8,0.9-0.9,1.7-0.9,1.7c-0.2-0.7-0.9-1-0.9-1C21.5,40.2,22.1,41,22,41z"/>
		<path id="XMLID_36246_" class="st9" d="M22.2,44.5c-0.7,0.9-1.8-0.5-1.8-0.5c0.6-0.4,0.7-1.1,0.7-1.1
			C22.9,43.7,22.3,44.5,22.2,44.5z"/>
	</g>
	<g id="XMLID_35898_">
		<g id="XMLID_36234_">
			<path id="XMLID_36236_" class="st10" d="M9.9,40.2C9.7,36.6,9,31.1,9,31.1c0-0.5,0.4-0.6,0.6-0.5c0,0,1.7,1.5,2,3.4
				c0.3,1.8,0,3.6,0.1,5.2c0.3,4.8-0.5,8.9-1.1,8.5C10.4,47.6,10.2,43.8,9.9,40.2z"/>
			<path id="XMLID_36235_" class="st11" d="M24.7,39.2c-0.6-3-0.5-4.8-0.4-5.8c0.1-0.2,0-1.2-0.4-1.5c-0.8-0.5-1.9-0.8-3.3-0.6
				c-0.6,0.1-2.8,0.5-4.2,0.4c-2.2-0.1-5.3-0.6-6.8-1.1c-0.2-0.1-0.5,0.1-0.4,0.4c0.3,0.8,0.8,1.5,1.1,3.2c0.2,1.1,1,3.8,1.1,5.2
				c0.2,3.9-1.1,6.8-0.8,8.4c0.1,0.3,0.4,0.4,0.7,0.3c1.2-0.4,4.3-0.7,7.1-1.4c1.7-0.5,6.2-0.7,7.5-0.7c0.3,0,0.6-0.3,0.5-0.6
				C26.2,44.3,25.3,42.2,24.7,39.2z"/>
		</g>
		<g id="XMLID_35902_">
			<g id="XMLID_36219_">
				<path id="XMLID_36233_" class="st9" d="M14.3,38.9c0.2-0.1-1.2-1.7-1.8-0.7s1.1,1.5,1.1,1.5S13.7,39.1,14.3,38.9z"/>
				<path id="XMLID_36230_" class="st9" d="M12.1,41.3c-0.5-1.1,1.4-1.4,1.4-1.4c-0.1,0.7,0.6,1,0.6,1C13.1,42,12.4,41.7,12.1,41.3z
					"/>
				<path id="XMLID_36226_" class="st9" d="M15.4,42.5c-1.1,0.2-1.1-1.5-1.1-1.5c0.6,0.1,1.2-0.4,1.2-0.4
					C16.3,42.3,15.4,42.4,15.4,42.5z"/>
				<path id="XMLID_36225_" class="st9" d="M15.5,37.3c1,0.4,0.1,1.8,0.1,1.8c-0.5-0.4-1.2-0.3-1.2-0.3C14.7,37,15.5,37.4,15.5,37.3
					z"/>
				<path id="XMLID_36223_" class="st9" d="M17.3,40c-0.1,1-1.6,0.5-1.6,0.5c0.2-0.6,0-1.2,0-1.2C17.5,39.1,17.3,40,17.3,40z"/>
			</g>
			<g id="XMLID_36208_">
				<path id="XMLID_36218_" class="st9" d="M15.8,33.8c0.2-0.1-1-1.4-1.5-0.6s0.9,1.2,0.9,1.2S15.4,33.9,15.8,33.8z"/>
				<path id="XMLID_36217_" class="st9" d="M14.2,35.8c-0.5-1,1.1-1.2,1.1-1.2c-0.1,0.5,0.4,0.8,0.4,0.8
					C14.8,36.3,14.3,36.1,14.2,35.8z"/>
				<path id="XMLID_36215_" class="st9" d="M16.7,36.6c-0.9,0.2-0.9-1.2-0.9-1.2c0.5,0.1,1-0.3,1-0.3C17.4,36.5,16.7,36.7,16.7,36.6
					z"/>
				<path id="XMLID_36211_" class="st9" d="M16.8,32.6c0.8,0.3,0.1,1.4,0.1,1.4c-0.4-0.4-1-0.3-1-0.3C16.1,32.3,16.8,32.6,16.8,32.6
					z"/>
				<path id="XMLID_36210_" class="st9" d="M18.2,34.7c0,0.8-1.3,0.4-1.3,0.4c0.2-0.5,0-1,0-1C18.4,34,18.3,34.7,18.2,34.7z"/>
			</g>
			<g id="XMLID_36191_">
				<path id="XMLID_36204_" class="st9" d="M22.7,36.6c0.2-0.1-1-1.4-1.5-0.6s0.9,1.2,0.9,1.2S22.2,36.7,22.7,36.6z"/>
				<path id="XMLID_36203_" class="st9" d="M21.1,38.6c-0.5-1,1.1-1.2,1.1-1.2c-0.1,0.5,0.4,0.8,0.4,0.8
					C21.7,39.2,21.2,38.9,21.1,38.6z"/>
				<path id="XMLID_36202_" class="st9" d="M23.6,39.5c-0.9,0.2-0.9-1.2-0.9-1.2c0.5,0.1,1-0.3,1-0.3C24.3,39.4,23.6,39.5,23.6,39.5
					z"/>
				<path id="XMLID_36201_" class="st9" d="M23.7,35.4c0.8,0.3,0.1,1.4,0.1,1.4c-0.4-0.4-1-0.3-1-0.3C23,35.1,23.7,35.4,23.7,35.4z"
					/>
				<g id="XMLID_36193_">
					<path id="XMLID_36198_" class="st9" d="M20.7,44.9c-0.1,0.7-0.2,1.2-0.4,1.5c-0.6,0-1.1,0.1-1.5,0.2c-0.5-0.7,0.3-2.1,0.3-2.1
						C19.8,45,20.7,44.9,20.7,44.9z"/>
					<path id="XMLID_36194_" class="st9" d="M24.5,36.9c0,0.4,0,0.7,0.1,1.1c-0.4,0-0.8-0.1-0.8-0.1c0.2-0.5,0-1,0-1
						C24.1,36.9,24.3,36.9,24.5,36.9z"/>
				</g>
			</g>
			<g id="XMLID_36177_">
				<path id="XMLID_36187_" class="st12" d="M14.4,32.8c0.1,0-0.6-0.8-0.9-0.3s0.6,0.7,0.6,0.7S14.2,32.9,14.4,32.8z"/>
				<path id="XMLID_36186_" class="st12" d="M13.4,34c-0.3-0.6,0.7-0.7,0.7-0.7c0,0.3,0.3,0.5,0.3,0.5C13.8,34.4,13.5,34.2,13.4,34z
					"/>
				<path id="XMLID_36185_" class="st12" d="M14.9,34.6c-0.5,0.2-0.5-0.7-0.5-0.7c0.3,0,0.6-0.2,0.6-0.2
					C15.4,34.5,15,34.6,14.9,34.6z"/>
				<path id="XMLID_36183_" class="st12" d="M15,32.1c0.6,0.2,0.1,0.9,0.1,0.9c-0.3-0.2-0.6-0.2-0.6-0.2
					C14.6,31.9,15.1,32.1,15,32.1z"/>
				<path id="XMLID_36181_" class="st12" d="M15.9,33.3c0,0.6-0.8,0.3-0.8,0.3c0.1-0.3,0-0.6,0-0.6C16,32.9,15.9,33.4,15.9,33.3z"/>
			</g>
			<g id="XMLID_36166_">
				<path id="XMLID_36176_" class="st12" d="M18.5,34.6c0.1,0,0.2-0.9-0.3-0.8s-0.1,0.8-0.1,0.8S18.3,34.4,18.5,34.6z"/>
				<path id="XMLID_36174_" class="st12" d="M17.2,34.6c0.2-0.5,0.9,0,0.9,0c-0.3,0.2-0.2,0.5-0.2,0.5
					C17.2,35.1,17.1,34.8,17.2,34.6z"/>
				<path id="XMLID_36170_" class="st12" d="M17.8,36c-0.5-0.3,0.1-0.8,0.1-0.8c0.2,0.3,0.5,0.3,0.5,0.3C18.1,36.2,17.8,36,17.8,36z
					"/>
				<path id="XMLID_36169_" class="st12" d="M19.4,34.5c0.2,0.5-0.5,0.6-0.5,0.6c-0.1-0.3-0.3-0.5-0.3-0.5
					C19.3,34.1,19.4,34.5,19.4,34.5z"/>
				<path id="XMLID_36168_" class="st12" d="M19.2,35.9c-0.4,0.3-0.7-0.4-0.7-0.4c0.3-0.1,0.4-0.4,0.4-0.4
					C19.5,35.6,19.1,35.9,19.2,35.9z"/>
			</g>
			<g id="XMLID_36153_">
				<path id="XMLID_36162_" class="st12" d="M19.1,43.8c0.1,0,0.2-1.2-0.4-1c-0.7,0.2-0.2,1-0.2,1S18.8,43.6,19.1,43.8z"/>
				<path id="XMLID_36161_" class="st12" d="M17.3,43.9c0.3-0.6,1.1,0,1.1,0c-0.3,0.2-0.2,0.6-0.2,0.6
					C17.4,44.5,17.3,44.1,17.3,43.9z"/>
				<path id="XMLID_36159_" class="st12" d="M18.1,45.6c-0.5-0.4,0.2-1,0.2-1c0.2,0.3,0.6,0.3,0.6,0.3
					C18.5,45.8,18.1,45.5,18.1,45.6z"/>
				<path id="XMLID_36155_" class="st12" d="M20.2,43.7c0.2,0.5-0.7,0.7-0.7,0.7c0-0.4-0.3-0.6-0.3-0.6C20,43.3,20.1,43.7,20.2,43.7
					z"/>
				<path id="XMLID_36154_" class="st12" d="M19.7,45.3c-0.4,0.4-0.8-0.4-0.8-0.4c0.3-0.1,0.5-0.4,0.5-0.4
					C20.2,45.1,19.8,45.4,19.7,45.3z"/>
			</g>
			<g id="XMLID_36139_">
				<path id="XMLID_36151_" class="st12" d="M24.9,44.4c0.1,0.1,0.2-0.8-0.3-0.7c-0.4,0.1-0.1,0.7-0.1,0.7S24.7,44.3,24.9,44.4z"/>
				<path id="XMLID_36147_" class="st12" d="M23.6,44.5c0.2-0.5,0.8,0,0.8,0c-0.2,0.1-0.1,0.4-0.1,0.4
					C23.6,44.9,23.5,44.6,23.6,44.5z"/>
				<path id="XMLID_36146_" class="st12" d="M24.1,45.6c-0.4-0.2,0.1-0.7,0.1-0.7c0.2,0.3,0.5,0.3,0.5,0.3
					C24.5,45.9,24.2,45.7,24.1,45.6z"/>
				<path id="XMLID_36144_" class="st12" d="M25.7,44.3c0.2,0.4-0.5,0.5-0.5,0.5c0-0.2-0.2-0.4-0.2-0.4C25.6,44,25.7,44.3,25.7,44.3
					z"/>
				<path id="XMLID_36140_" class="st12" d="M25.4,45.5c-0.3,0.3-0.6-0.3-0.6-0.3c0.3-0.1,0.4-0.3,0.4-0.3
					C25.7,45.4,25.4,45.6,25.4,45.5z"/>
			</g>
			<g id="XMLID_36128_">
				<path id="XMLID_36138_" class="st13" d="M17.9,37.4c0.1-0.1-0.8-1.2-1.2-0.5c-0.4,0.7,0.7,1,0.7,1S17.5,37.5,17.9,37.4z"/>
				<path id="XMLID_36137_" class="st13" d="M16.5,38.9c-0.3-0.7,0.9-0.9,0.9-0.9c0,0.5,0.4,0.7,0.4,0.7
					C17.1,39.4,16.7,39.2,16.5,38.9z"/>
				<path id="XMLID_36136_" class="st13" d="M18.6,39.7c-0.7,0.1-0.7-1-0.7-1c0.4,0.1,0.8-0.2,0.8-0.2
					C19.2,39.6,18.6,39.7,18.6,39.7z"/>
				<path id="XMLID_36133_" class="st13" d="M18.7,36.4c0.7,0.3,0.1,1.2,0.1,1.2c-0.3-0.2-0.8-0.2-0.8-0.2
					C18.2,36.2,18.7,36.4,18.7,36.4z"/>
				<path id="XMLID_36129_" class="st13" d="M19.9,38.2c-0.1,0.6-1.1,0.3-1.1,0.3c0.2-0.4,0-0.8,0-0.8
					C19.9,37.5,19.9,38.1,19.9,38.2z"/>
			</g>
			<g id="XMLID_36113_">
				<path id="XMLID_36126_" class="st13" d="M12.8,45.4c0.1,0-0.6-0.8-0.9-0.3c-0.2,0.5,0.6,0.7,0.6,0.7S12.6,45.5,12.8,45.4z"/>
				<path id="XMLID_36122_" class="st13" d="M11.8,46.6c-0.2-0.6,0.7-0.7,0.7-0.7c0,0.3,0.3,0.5,0.3,0.5C12.3,47,12,46.8,11.8,46.6z
					"/>
				<path id="XMLID_36121_" class="st13" d="M13.4,47.2c-0.5,0.1-0.5-0.7-0.5-0.7c0.3,0,0.6-0.2,0.6-0.2
					C13.9,47.1,13.4,47.2,13.4,47.2z"/>
				<path id="XMLID_36120_" class="st13" d="M13.6,44.7c0.4,0.2,0,0.9,0,0.9c-0.3-0.2-0.6-0.2-0.6-0.2
					C13.1,44.6,13.5,44.7,13.6,44.7z"/>
				<path id="XMLID_36117_" class="st13" d="M14.4,46c-0.1,0.5-0.8,0.3-0.8,0.3c0.1-0.3,0-0.6,0-0.6C14.4,45.6,14.4,46,14.4,46z"/>
			</g>
			<g id="XMLID_36102_">
				<path id="XMLID_36112_" class="st12" d="M13.6,38.5c0.1,0-0.7-1-1.1-0.4c-0.3,0.6,0.7,0.9,0.7,0.9S13.3,38.6,13.6,38.5z"/>
				<path id="XMLID_36110_" class="st12" d="M12.5,40c-0.4-0.7,0.8-0.9,0.8-0.9c-0.1,0.4,0.3,0.6,0.3,0.6
					C12.9,40.5,12.5,40.3,12.5,40z"/>
				<path id="XMLID_36106_" class="st12" d="M14.4,40.7c-0.7,0.1-0.7-0.9-0.7-0.9c0.4,0.1,0.7-0.2,0.7-0.2
					C14.9,40.6,14.3,40.7,14.4,40.7z"/>
				<path id="XMLID_36105_" class="st12" d="M14.4,37.6c0.7,0.2,0.1,1.1,0.1,1.1c-0.3-0.2-0.7-0.2-0.7-0.2
					C13.9,37.4,14.4,37.6,14.4,37.6z"/>
				<path id="XMLID_36104_" class="st12" d="M15.5,39.2c-0.1,0.6-1,0.3-1,0.3c0.1-0.3,0-0.7,0-0.7C15.6,38.7,15.5,39.2,15.5,39.2z"
					/>
			</g>
			<g id="XMLID_36088_">
				<path id="XMLID_36100_" class="st12" d="M22.3,38.8c0.1-0.1-0.7-0.9-1-0.4c-0.3,0.6,0.6,0.8,0.6,0.8S22,38.9,22.3,38.8z"/>
				<path id="XMLID_36096_" class="st12" d="M21.2,40.2c-0.3-0.6,0.7-0.8,0.7-0.8c-0.1,0.3,0.3,0.5,0.3,0.5
					C21.6,40.5,21.3,40.3,21.2,40.2z"/>
				<path id="XMLID_36095_" class="st12" d="M22.8,40.7c-0.6,0.1-0.6-0.8-0.6-0.8c0.4,0,0.7-0.2,0.7-0.2
					C23.3,40.6,22.9,40.7,22.8,40.7z"/>
				<path id="XMLID_36093_" class="st12" d="M22.9,38c0.6,0.2,0.1,1,0.1,1c-0.2-0.2-0.6-0.2-0.6-0.2C22.5,37.8,22.9,38,22.9,38z"/>
				<path id="XMLID_36089_" class="st12" d="M23.9,39.3c-0.1,0.6-0.9,0.3-0.9,0.3c0.1-0.3,0-0.6,0-0.6C24,38.9,23.9,39.4,23.9,39.3z
					"/>
			</g>
			<g id="XMLID_36073_">
				<path id="XMLID_36087_" class="st13" d="M22.1,42.9c0.1-0.1-0.7-1-1-0.4c-0.3,0.6,0.6,0.8,0.6,0.8S21.8,43,22.1,42.9z"/>
				<path id="XMLID_36086_" class="st13" d="M21,44.1c-0.3-0.6,0.7-0.8,0.7-0.8c-0.1,0.4,0.3,0.6,0.3,0.6
					C21.4,44.6,21.1,44.4,21,44.1z"/>
				<path id="XMLID_36085_" class="st13" d="M22.6,44.8C22,44.9,22,44,22,44c0.4,0,0.7-0.2,0.7-0.2C23.2,44.7,22.7,44.8,22.6,44.8z"
					/>
				<path id="XMLID_36083_" class="st13" d="M22.7,42c0.6,0.2,0.1,1,0.1,1c-0.2-0.2-0.6-0.2-0.6-0.2C22.3,41.9,22.7,42.1,22.7,42z"
					/>
				<path id="XMLID_36078_" class="st13" d="M23.7,43.5c-0.1,0.6-0.9,0.3-0.9,0.3c0.1-0.4,0-0.7,0-0.7C23.8,43,23.7,43.5,23.7,43.5z
					"/>
			</g>
			<g id="XMLID_36058_">
				<path id="XMLID_36072_" class="st13" d="M16.5,41.1c0.1,0-0.6-0.8-0.9-0.3s0.5,0.7,0.5,0.7S16.2,41.2,16.5,41.1z"/>
				<path id="XMLID_36067_" class="st13" d="M15.4,42.3c-0.2-0.6,0.7-0.7,0.7-0.7c0,0.3,0.3,0.5,0.3,0.5
					C15.8,42.6,15.5,42.5,15.4,42.3z"/>
				<path id="XMLID_36062_" class="st13" d="M16.9,42.8c-0.5,0.1-0.5-0.7-0.5-0.7c0.3,0,0.6-0.2,0.6-0.2
					C17.4,42.8,17,42.8,16.9,42.8z"/>
				<path id="XMLID_36061_" class="st13" d="M17.1,40.4c0.4,0.2,0,0.9,0,0.9c-0.3-0.2-0.6-0.2-0.6-0.2C16.6,40.2,17,40.4,17.1,40.4z
					"/>
				<path id="XMLID_36060_" class="st13" d="M17.9,41.6c-0.1,0.5-0.8,0.3-0.8,0.3c0.1-0.3,0-0.6,0-0.6
					C17.9,41.2,17.9,41.7,17.9,41.6z"/>
			</g>
			<g id="XMLID_36044_">
				<path id="XMLID_36057_" class="st14" d="M19.8,40.8c0.1,0-0.6-0.8-0.9-0.3s0.5,0.7,0.5,0.7S19.4,40.9,19.8,40.8z"/>
				<path id="XMLID_36056_" class="st14" d="M18.6,42c-0.2-0.6,0.7-0.7,0.7-0.7c0,0.3,0.3,0.5,0.3,0.5C19.1,42.3,18.8,42.2,18.6,42z
					"/>
				<path id="XMLID_36055_" class="st14" d="M20.2,42.5c-0.5,0.1-0.5-0.7-0.5-0.7c0.3,0,0.6-0.2,0.6-0.2
					C20.7,42.4,20.2,42.5,20.2,42.5z"/>
				<path id="XMLID_36050_" class="st14" d="M20.4,40.1c0.4,0.2,0,0.9,0,0.9c-0.3-0.2-0.6-0.2-0.6-0.2
					C19.9,39.9,20.3,40.1,20.4,40.1z"/>
				<path id="XMLID_36045_" class="st14" d="M21.2,41.3c-0.1,0.5-0.8,0.3-0.8,0.3c0.1-0.3,0-0.6,0-0.6
					C21.2,40.9,21.2,41.3,21.2,41.3z"/>
			</g>
			<g id="XMLID_36025_">
				<path id="XMLID_36039_" class="st14" d="M13.3,42.3c0.1,0-0.6-0.8-0.9-0.3s0.5,0.7,0.5,0.7S13,42.4,13.3,42.3z"/>
				<path id="XMLID_36034_" class="st14" d="M12.1,43.4c-0.2-0.6,0.7-0.7,0.7-0.7c0,0.3,0.3,0.5,0.3,0.5
					C12.6,43.8,12.3,43.7,12.1,43.4z"/>
				<path id="XMLID_36033_" class="st14" d="M13.7,44c-0.5,0.1-0.5-0.7-0.5-0.7c0.3,0,0.6-0.2,0.6-0.2C14.2,43.9,13.7,44,13.7,44z"
					/>
				<path id="XMLID_36032_" class="st14" d="M13.9,41.6c0.4,0.2,0,0.9,0,0.9c-0.3-0.2-0.6-0.2-0.6-0.2
					C13.4,41.4,13.8,41.6,13.9,41.6z"/>
				<path id="XMLID_36030_" class="st14" d="M14.7,42.8c-0.1,0.5-0.8,0.3-0.8,0.3c0.1-0.3,0-0.6,0-0.6
					C14.7,42.4,14.7,42.8,14.7,42.8z"/>
			</g>
			<g id="XMLID_36007_">
				<path id="XMLID_36020_" class="st14" d="M16.1,45.2c0.1,0-0.4-0.6-0.6-0.2c-0.2,0.3,0.4,0.5,0.4,0.5S15.9,45.3,16.1,45.2z"/>
				<path id="XMLID_36019_" class="st14" d="M15.4,46c-0.2-0.4,0.5-0.5,0.5-0.5c0,0.3,0.2,0.4,0.2,0.4C15.7,46.3,15.5,46.2,15.4,46z
					"/>
				<path id="XMLID_36014_" class="st14" d="M16.5,46.4c-0.4,0.1-0.4-0.5-0.4-0.5c0.2,0.1,0.4-0.1,0.4-0.1
					C16.8,46.4,16.5,46.5,16.5,46.4z"/>
				<path id="XMLID_36009_" class="st14" d="M16.6,44.7c0.3,0.1,0,0.6,0,0.6c-0.2-0.1-0.4-0.1-0.4-0.1
					C16.3,44.6,16.5,44.7,16.6,44.7z"/>
				<path id="XMLID_36008_" class="st14" d="M17.2,45.6c-0.1,0.4-0.6,0.2-0.6,0.2c0.1-0.2,0-0.4,0-0.4
					C17.2,45.3,17.2,45.6,17.2,45.6z"/>
			</g>
			<g id="XMLID_35996_">
				<path id="XMLID_36006_" class="st13" d="M12.3,35.1c0.1,0-0.6-0.7-0.8-0.3c-0.2,0.4,0.5,0.6,0.5,0.6S12.1,35.2,12.3,35.1z"/>
				<path id="XMLID_36003_" class="st13" d="M11.5,36.2c-0.2-0.5,0.6-0.6,0.6-0.6C12,35.9,12.3,36,12.3,36
					C11.8,36.5,11.5,36.3,11.5,36.2z"/>
				<path id="XMLID_36002_" class="st13" d="M12.9,36.6c-0.5,0.2-0.5-0.6-0.5-0.6c0.3,0,0.5-0.2,0.5-0.2
					C13.2,36.6,12.8,36.7,12.9,36.6z"/>
				<path id="XMLID_35998_" class="st13" d="M12.9,34.5c0.4,0.2,0,0.8,0,0.8c-0.2-0.2-0.5-0.2-0.5-0.2
					C12.5,34.3,12.9,34.4,12.9,34.5z"/>
				<path id="XMLID_35997_" class="st13" d="M13.6,35.6c0,0.4-0.7,0.2-0.7,0.2c0.1-0.2,0-0.5,0-0.5C13.7,35.2,13.6,35.6,13.6,35.6z"
					/>
			</g>
			<g id="XMLID_35986_">
				<path id="XMLID_35994_" class="st14" d="M21.2,36c0.1,0-0.6-0.8-0.9-0.3s0.5,0.7,0.5,0.7S20.9,36.2,21.2,36z"/>
				<path id="XMLID_35993_" class="st14" d="M20.1,37.2c-0.2-0.6,0.7-0.7,0.7-0.7c0,0.3,0.3,0.5,0.3,0.5
					C20.5,37.6,20.2,37.4,20.1,37.2z"/>
				<path id="XMLID_35989_" class="st14" d="M21.6,37.8c-0.5,0.1-0.5-0.7-0.5-0.7c0.3,0,0.6-0.2,0.6-0.2
					C22.1,37.7,21.7,37.8,21.6,37.8z"/>
				<path id="XMLID_35988_" class="st14" d="M21.8,35.3c0.4,0.2,0,0.9,0,0.9C21.5,36,21.2,36,21.2,36C21.3,35.2,21.7,35.4,21.8,35.3
					z"/>
				<path id="XMLID_35987_" class="st14" d="M22.6,36.6c-0.1,0.5-0.8,0.3-0.8,0.3c0.1-0.3,0-0.6,0-0.6
					C22.7,36.2,22.6,36.6,22.6,36.6z"/>
			</g>
			<g id="XMLID_35975_">
				<path id="XMLID_35984_" class="st14" d="M11.5,32.1c0.1,0-0.6-0.8-0.9-0.3s0.5,0.7,0.5,0.7S11.2,32.2,11.5,32.1z"/>
				<path id="XMLID_35983_" class="st14" d="M10.4,33.3c-0.2-0.6,0.7-0.7,0.7-0.7c0,0.3,0.3,0.5,0.3,0.5
					C10.9,33.6,10.6,33.5,10.4,33.3z"/>
				<path id="XMLID_35979_" class="st14" d="M12,33.8c-0.5,0.1-0.5-0.7-0.5-0.7c0.3,0,0.6-0.2,0.6-0.2C12.4,33.7,12,33.8,12,33.8z"
					/>
				<path id="XMLID_35978_" class="st14" d="M12.1,31.4c0.4,0.2,0,0.9,0,0.9c-0.3-0.2-0.6-0.2-0.6-0.2
					C11.7,31.2,12.1,31.4,12.1,31.4z"/>
				<path id="XMLID_35977_" class="st14" d="M12.9,32.6c-0.1,0.5-0.8,0.3-0.8,0.3c0.1-0.3,0-0.6,0-0.6C13,32.2,12.9,32.6,12.9,32.6z
					"/>
			</g>
			<g id="XMLID_35966_">
				<path id="XMLID_35974_" class="st13" d="M17,32.4c0.1,0-0.4-0.5-0.6-0.2c-0.2,0.3,0.4,0.5,0.4,0.5S16.8,32.5,17,32.4z"/>
				<path id="XMLID_35970_" class="st13" d="M16.3,33.3c-0.1-0.4,0.5-0.5,0.5-0.5c0,0.2,0.2,0.3,0.2,0.3
					C16.6,33.5,16.4,33.4,16.3,33.3z"/>
				<path id="XMLID_35969_" class="st13" d="M17.4,33.6C17,33.7,17,33.1,17,33.1c0.2,0.1,0.4-0.1,0.4-0.1
					C17.7,33.6,17.4,33.6,17.4,33.6z"/>
				<path id="XMLID_35968_" class="st13" d="M17.5,31.9c0.3,0.1,0,0.6,0,0.6c-0.2-0.1-0.4-0.1-0.4-0.1C17.2,31.8,17.4,32,17.5,31.9z
					"/>
				<path id="XMLID_35967_" class="st13" d="M18,32.8c0,0.4-0.5,0.2-0.5,0.2c0.1-0.2,0-0.4,0-0.4C18.1,32.5,18,32.8,18,32.8z"/>
			</g>
			<g id="XMLID_35954_">
				<path id="XMLID_35963_" class="st14" d="M15.3,35.7c0.1,0-0.6-0.8-0.9-0.3s0.5,0.7,0.5,0.7S15,35.8,15.3,35.7z"/>
				<path id="XMLID_35962_" class="st14" d="M14.2,36.8c-0.2-0.6,0.7-0.7,0.7-0.7c0,0.3,0.3,0.5,0.3,0.5
					C14.7,37.2,14.4,37,14.2,36.8z"/>
				<path id="XMLID_35958_" class="st14" d="M15.8,37.4c-0.5,0.1-0.5-0.7-0.5-0.7c0.3,0,0.6-0.2,0.6-0.2
					C16.2,37.3,15.8,37.4,15.8,37.4z"/>
				<path id="XMLID_35957_" class="st14" d="M16,34.9c0.4,0.2,0,0.9,0,0.9c-0.3-0.2-0.6-0.2-0.6-0.2C15.5,34.8,15.9,35,16,34.9z"/>
				<path id="XMLID_35956_" class="st14" d="M16.8,36.2c-0.1,0.5-0.8,0.3-0.8,0.3c0.1-0.3,0-0.6,0-0.6
					C16.8,35.8,16.7,36.2,16.8,36.2z"/>
			</g>
			<g id="XMLID_35944_">
				<path id="XMLID_35953_" class="st14" d="M20.5,32.4c0.1,0-0.6-0.8-0.9-0.3s0.5,0.7,0.5,0.7S20.2,32.5,20.5,32.4z"/>
				<path id="XMLID_35949_" class="st14" d="M19.4,33.6c-0.2-0.6,0.7-0.7,0.7-0.7c0,0.3,0.3,0.5,0.3,0.5
					C19.9,33.9,19.6,33.8,19.4,33.6z"/>
				<path id="XMLID_35948_" class="st14" d="M20.9,34.1c-0.5,0.1-0.5-0.7-0.5-0.7c0.3,0,0.6-0.2,0.6-0.2C21.4,34,21,34.1,20.9,34.1z
					"/>
				<path id="XMLID_35947_" class="st14" d="M21.1,31.7c0.4,0.2,0,0.9,0,0.9c-0.3-0.2-0.6-0.2-0.6-0.2
					C20.7,31.5,21.1,31.7,21.1,31.7z"/>
				<path id="XMLID_35946_" class="st14" d="M21.9,32.9c-0.1,0.5-0.8,0.3-0.8,0.3c0.1-0.3,0-0.6,0-0.6C22,32.5,21.9,32.9,21.9,32.9z
					"/>
			</g>
			<g id="XMLID_35934_">
				<path id="XMLID_35943_" class="st13" d="M23,34.4c0.1,0-0.4-0.5-0.6-0.2c-0.2,0.3,0.4,0.5,0.4,0.5S22.8,34.5,23,34.4z"/>
				<path id="XMLID_35939_" class="st13" d="M22.2,35.3c-0.1-0.4,0.5-0.5,0.5-0.5c0,0.2,0.2,0.3,0.2,0.3
					C22.6,35.5,22.4,35.4,22.2,35.3z"/>
				<path id="XMLID_35938_" class="st13" d="M23.4,35.6C23,35.7,23,35.1,23,35.1c0.2,0.1,0.4-0.1,0.4-0.1
					C23.7,35.5,23.4,35.6,23.4,35.6z"/>
				<path id="XMLID_35937_" class="st13" d="M23.4,33.9c0.3,0.1,0,0.6,0,0.6c-0.2-0.1-0.4-0.1-0.4-0.1
					C23.1,33.8,23.4,33.9,23.4,33.9z"/>
				<path id="XMLID_35935_" class="st13" d="M24,34.8c0,0.4-0.5,0.2-0.5,0.2c0.1-0.2,0-0.4,0-0.4C24,34.5,24,34.8,24,34.8z"/>
			</g>
			<g id="XMLID_35924_">
				<path id="XMLID_35930_" class="st12" d="M15.8,43.5c0.1,0.1,0.1-0.6-0.2-0.5c-0.3,0-0.1,0.5-0.1,0.5S15.7,43.4,15.8,43.5z"/>
				<path id="XMLID_35929_" class="st12" d="M14.9,43.6c0.2-0.3,0.6,0,0.6,0c-0.2,0.1-0.1,0.3-0.1,0.3C15,43.9,14.9,43.7,14.9,43.6z
					"/>
				<path id="XMLID_35928_" class="st12" d="M15.3,44.4c-0.3-0.2,0.1-0.5,0.1-0.5c0.1,0.2,0.3,0.2,0.3,0.2
					C15.5,44.6,15.3,44.4,15.3,44.4z"/>
				<path id="XMLID_35927_" class="st12" d="M16.5,43.4c0.1,0.3-0.4,0.4-0.4,0.4c0-0.2-0.2-0.3-0.2-0.3
					C16.3,43.2,16.4,43.5,16.5,43.4z"/>
				<path id="XMLID_35926_" class="st12" d="M16.2,44.3c-0.2,0.2-0.4-0.2-0.4-0.2c0.2,0,0.3-0.2,0.3-0.2
					C16.4,44.2,16.2,44.4,16.2,44.3z"/>
			</g>
			<g id="XMLID_35913_">
				<path id="XMLID_35922_" class="st14" d="M23.9,41.1c0.1,0-0.3-0.5-0.4-0.2c-0.1,0.3,0.3,0.4,0.3,0.4L23.9,41.1z"/>
				<path id="XMLID_35921_" class="st14" d="M23.6,41.7c-0.2-0.3,0.3-0.4,0.3-0.4c-0.1,0.2,0.1,0.3,0.1,0.3
					C23.7,41.9,23.6,41.8,23.6,41.7z"/>
				<path id="XMLID_35917_" class="st14" d="M24.3,42C24,42,24,41.6,24,41.6c0.2,0,0.3-0.1,0.3-0.1C24.5,41.9,24.3,42,24.3,42z"/>
				<path id="XMLID_35916_" class="st14" d="M24.4,40.8c0.2,0.1,0,0.4,0,0.4c-0.1-0.1-0.3-0.1-0.3-0.1
					C24.1,40.6,24.3,40.7,24.4,40.8z"/>
				<path id="XMLID_35915_" class="st14" d="M24.8,41.4c0,0.2-0.4,0.1-0.4,0.1c0.1-0.1,0-0.3,0-0.3C24.8,41.1,24.8,41.4,24.8,41.4z"
					/>
			</g>
			<g id="XMLID_35903_">
				<path id="XMLID_35912_" class="st12" d="M23.1,32.4c0.1-0.1-0.3-0.4-0.4-0.2c-0.1,0.2,0.3,0.3,0.3,0.3S23.1,32.4,23.1,32.4z"/>
				<path id="XMLID_35908_" class="st12" d="M22.8,32.9c-0.1-0.2,0.3-0.3,0.3-0.3c-0.1,0.1,0.1,0.2,0.1,0.2
					C22.9,33.1,22.8,33,22.8,32.9z"/>
				<path id="XMLID_35907_" class="st12" d="M23.5,33.1c-0.3,0.1-0.3-0.3-0.3-0.3c0.2,0,0.3-0.1,0.3-0.1
					C23.7,33.1,23.5,33.1,23.5,33.1z"/>
				<path id="XMLID_35906_" class="st12" d="M23.5,32c0.2,0.1,0,0.4,0,0.4c-0.1-0.1-0.3-0.1-0.3-0.1C23.3,31.9,23.5,32,23.5,32z"/>
				<path id="XMLID_35905_" class="st12" d="M23.9,32.6c0,0.2-0.4,0.1-0.4,0.1c0.1-0.2,0-0.3,0-0.3C23.9,32.4,23.9,32.6,23.9,32.6z"
					/>
			</g>
		</g>
	</g>
</g>
</svg>
