<?xml version="1.0" encoding="utf-8"?>
<!-- Generator: Adobe Illustrator 21.0.0, SVG Export Plug-In . SVG Version: 6.00 Build 0)  -->
<svg version="1.1" id="Layer_1" xmlns="http://www.w3.org/2000/svg" xmlns:xlink="http://www.w3.org/1999/xlink" x="0px" y="0px"
	 viewBox="0 0 80 80" style="enable-background:new 0 0 80 80;" xml:space="preserve">
<style type="text/css">
	.st0{fill:#121112;}
	.st1{fill:#060606;}
	.st2{fill:#282628;}
	.st3{fill:#343433;}
	.st4{fill:#2C2D2D;}
	.st5{fill:#BCBBB2;}
	.st6{fill:#333335;}
	.st7{fill:#9E5F26;}
	.st8{fill:#E3E2E3;}
	.st9{fill:#5F6161;}
	.st10{fill:#DB9528;}
	.st11{fill:#CDCDC7;}
	.st12{fill:#434447;}
	.st13{fill:#C7842A;}
	.st14{fill:#59595C;}
	.st15{fill:#424345;}
	.st16{fill:#B5742A;}
</style>
<g id="XMLID_46062_">
	<g id="XMLID_46103_">
		<polygon id="XMLID_46106_" class="st0" points="30.4,31.5 30.4,48.5 40,54 40,37.1 		"/>
		<polyline id="XMLID_46182_" class="st1" points="40,54 40,37.1 30.4,31.5 		"/>
		<polygon id="XMLID_46105_" class="st2" points="49.6,31.5 40,37.1 40,54 49.6,48.5 		"/>
		<polygon id="XMLID_46104_" class="st3" points="40,26 30.4,31.5 40,37.1 49.6,31.5 		"/>
		<polyline id="XMLID_46181_" class="st4" points="30.4,31.5 40,37.1 49.6,31.5 		"/>
	</g>
	<g id="XMLID_46083_">
		<g id="XMLID_46099_">
			<path id="XMLID_46102_" class="st5" d="M45.8,41.8L45.8,41.8c2.7-0.2,3.6,2.9,1.7,5.6l0,0c-0.9,1.3-2.2,2.1-3.5,2.2l0,0
				c-2.7,0.2-3.6-2.9-1.7-5.6l0,0C43.2,42.7,44.5,41.9,45.8,41.8z"/>
			<path id="XMLID_46101_" class="st6" d="M45.6,42.6L45.6,42.6c2.2-0.2,2.9,2.4,1.4,4.5l0,0c-0.7,1-1.8,1.7-2.8,1.7l0,0
				c-2.2,0.2-2.9-2.4-1.4-4.5l0,0C43.5,43.3,44.6,42.7,45.6,42.6z"/>
			<path id="XMLID_46100_" class="st7" d="M45.5,43.1L45.5,43.1c1.8-0.1,2.4,2,1.1,3.8l0,0c-0.6,0.8-1.5,1.4-2.3,1.4l0,0
				c-1.8,0.1-2.4-2-1.1-3.8l0,0C43.7,43.7,44.6,43.2,45.5,43.1z"/>
		</g>
		<g id="XMLID_46095_">
			<path id="XMLID_46098_" class="st8" d="M46.9,47.1L46.9,47.1c1.1-1.5,1.1-3.2,0.2-4l0.6-0.6c1.1,1,1.1,3.1-0.3,5l0,0
				c-0.1,0.2-0.3,0.4-0.4,0.5l-0.4-0.4C46.7,47.4,46.8,47.3,46.9,47.1z"/>
			<path id="XMLID_46097_" class="st9" d="M46.9,47.1L46.9,47.1c-0.1,0.2-0.2,0.3-0.4,0.4l-0.3-0.3c0.1-0.1,0.2-0.2,0.3-0.4l0,0
				c0.9-1.3,0.9-2.7,0.1-3.4l0.4-0.4C48,43.9,48,45.6,46.9,47.1z"/>
			<path id="XMLID_46096_" class="st10" d="M44.7,45.7L44.7,45.7c0.3-0.4,0.3-1,0-1.1l2-1.1c0.7,0.7,0.8,2.1-0.1,3.4l0,0
				c-0.1,0.1-0.2,0.3-0.3,0.4l-1.7-1.4C44.7,45.8,44.7,45.8,44.7,45.7z"/>
		</g>
		<g id="XMLID_46091_">
			<path id="XMLID_46094_" class="st11" d="M45.6,42.6L45.6,42.6c-0.8,0.1-1.7,0.5-2.4,1.3l-0.4-0.4c0.9-1,2-1.6,3.1-1.6l0,0
				c0.8-0.1,1.5,0.2,1.9,0.6l-0.6,0.6C46.7,42.7,46.2,42.5,45.6,42.6z"/>
			<path id="XMLID_46093_" class="st12" d="M45.6,42.6L45.6,42.6c0.6,0,1.2,0.1,1.5,0.5l-0.4,0.4c-0.3-0.3-0.7-0.4-1.3-0.4l0,0
				c-0.7,0-1.4,0.4-2,1l-0.3-0.3C43.8,43.1,44.7,42.6,45.6,42.6z"/>
			<path id="XMLID_46092_" class="st13" d="M44.4,44.5c-0.2,0-0.4,0.1-0.6,0.3l-0.4-0.6c0.6-0.6,1.3-1,2-1l0,0c0.5,0,1,0.1,1.3,0.4
				l-2,1.1C44.6,44.5,44.5,44.5,44.4,44.5z"/>
		</g>
		<g id="XMLID_46089_">
			<path id="XMLID_46090_" class="st14" d="M44.4,44.5L44.4,44.5c0.6,0,0.8,0.6,0.4,1.2l0,0c-0.2,0.3-0.5,0.5-0.8,0.5l0,0
				c-0.6,0-0.8-0.6-0.4-1.2l0,0C43.8,44.7,44.1,44.5,44.4,44.5z"/>
		</g>
		<g id="XMLID_46169_">
			<path id="XMLID_46184_" class="st15" d="M44.7,45.7c-0.2,0.3-0.5,0.5-0.8,0.5l0,0c-0.6,0-0.8-0.6-0.4-1.2l0,0
				c0.2-0.3,0.5-0.5,0.8-0.5l0,0"/>
		</g>
		<g id="XMLID_46084_">
			<path id="XMLID_46088_" class="st11" d="M44,49.6L44,49.6c-0.6,0-1.2-0.1-1.6-0.4l0.5-0.7c0.3,0.2,0.8,0.3,1.3,0.3l0,0
				c0.9-0.1,1.8-0.6,2.4-1.3L47,48C46.2,48.9,45,49.6,44,49.6z"/>
			<path id="XMLID_46087_" class="st12" d="M44.3,48.3L44.3,48.3c0.7-0.1,1.4-0.5,2-1.1l0.3,0.3c-0.7,0.8-1.6,1.3-2.4,1.3l0,0
				c-0.5,0-0.9-0.1-1.3-0.3l0.3-0.5C43.5,48.3,43.8,48.4,44.3,48.3z"/>
			<g id="XMLID_46085_">
				<path id="XMLID_46086_" class="st16" d="M43.6,46.1c0.1,0.1,0.2,0.1,0.4,0.1c0.2,0,0.4-0.1,0.6-0.3l1.7,1.3
					c-0.6,0.6-1.3,1-2,1.1l0,0c-0.4,0-0.8-0.1-1.1-0.3L43.6,46.1z"/>
			</g>
		</g>
	</g>
	<g id="XMLID_46063_">
		<g id="XMLID_46081_">
			<path id="XMLID_46185_" class="st5" d="M45.4,36.3L45.4,36.3c1.6-0.1,2.1,1.7,1,3.3l0,0c-0.5,0.7-1.3,1.2-2,1.3l0,0
				c-1.6,0.1-2.1-1.7-1-3.3l0,0C43.9,36.9,44.7,36.4,45.4,36.3z"/>
			<path id="XMLID_46183_" class="st6" d="M45.3,36.8L45.3,36.8c1.3-0.1,1.7,1.4,0.8,2.6l0,0c-0.4,0.6-1,1-1.6,1l0,0
				c-1.3,0.1-1.7-1.4-0.8-2.6l0,0C44.1,37.2,44.7,36.8,45.3,36.8z"/>
			<path id="XMLID_46082_" class="st7" d="M45.2,37.1L45.2,37.1c1-0.1,1.4,1.1,0.7,2.2l0,0c-0.3,0.5-0.9,0.8-1.3,0.8l0,0
				c-1,0.1-1.4-1.1-0.7-2.2l0,0C44.2,37.4,44.7,37.1,45.2,37.1z"/>
		</g>
		<g id="XMLID_46077_">
			<path id="XMLID_46080_" class="st8" d="M46.1,39.4L46.1,39.4c0.6-0.9,0.6-1.9,0.1-2.3l0.3-0.4c0.6,0.6,0.6,1.8-0.1,2.9l0,0
				c-0.1,0.1-0.2,0.2-0.2,0.3l-0.3-0.3C45.9,39.6,46,39.5,46.1,39.4z"/>
			<path id="XMLID_46079_" class="st9" d="M46.1,39.4L46.1,39.4c-0.1,0.1-0.1,0.2-0.2,0.3l-0.2-0.2c0.1-0.1,0.1-0.1,0.2-0.2l0,0
				c0.5-0.7,0.5-1.6,0.1-1.9l0.2-0.3C46.7,37.5,46.7,38.5,46.1,39.4z"/>
			<path id="XMLID_46078_" class="st10" d="M44.8,38.6L44.8,38.6c0.2-0.3,0.2-0.6,0-0.7l1.2-0.6c0.4,0.4,0.4,1.2-0.1,1.9l0,0
				c-0.1,0.1-0.1,0.1-0.2,0.2L44.8,38.6C44.7,38.7,44.8,38.6,44.8,38.6z"/>
		</g>
		<g id="XMLID_46073_">
			<path id="XMLID_46076_" class="st11" d="M45.3,36.8L45.3,36.8c-0.5,0-1,0.3-1.4,0.7l-0.3-0.2c0.5-0.6,1.2-0.9,1.8-0.9l0,0
				c0.5,0,0.9,0.1,1.1,0.4l-0.3,0.4C46,36.9,45.7,36.7,45.3,36.8z"/>
			<path id="XMLID_46075_" class="st12" d="M45.3,36.8L45.3,36.8c0.4,0,0.7,0.1,0.9,0.3l-0.2,0.3c-0.2-0.2-0.4-0.3-0.7-0.2l0,0
				c-0.4,0-0.8,0.3-1.2,0.6l-0.2-0.2C44.3,37.1,44.8,36.8,45.3,36.8z"/>
			<path id="XMLID_46074_" class="st13" d="M44.6,37.9c-0.1,0-0.2,0.1-0.3,0.1l-0.2-0.3c0.3-0.4,0.8-0.6,1.2-0.6l0,0
				c0.3,0,0.6,0.1,0.7,0.2l-1.2,0.6C44.7,37.9,44.7,37.9,44.6,37.9z"/>
		</g>
		<g id="XMLID_46071_">
			<path id="XMLID_46072_" class="st14" d="M44.6,37.9L44.6,37.9c0.3,0,0.5,0.4,0.2,0.7l0,0c-0.1,0.2-0.3,0.3-0.4,0.3l0,0
				c-0.3,0-0.5-0.4-0.2-0.7l0,0C44.3,38,44.4,37.9,44.6,37.9z"/>
		</g>
		<g id="XMLID_46069_">
			<path id="XMLID_46070_" class="st15" d="M44.8,38.6c-0.1,0.2-0.3,0.3-0.4,0.3l0,0c-0.3,0-0.5-0.4-0.2-0.7l0,0
				c0.1-0.2,0.3-0.3,0.4-0.3l0,0"/>
		</g>
		<g id="XMLID_46064_">
			<path id="XMLID_46068_" class="st11" d="M44.3,40.9L44.3,40.9c-0.4,0-0.7-0.1-0.9-0.2l0.3-0.4c0.2,0.1,0.4,0.2,0.7,0.2l0,0
				c0.5,0,1-0.3,1.4-0.8l0.3,0.3C45.6,40.5,45,40.8,44.3,40.9z"/>
			<path id="XMLID_46067_" class="st12" d="M44.5,40.1L44.5,40.1c0.4,0,0.8-0.3,1.2-0.6l0.2,0.2c-0.4,0.4-0.9,0.7-1.4,0.8l0,0
				c-0.3,0-0.5,0-0.7-0.2l0.2-0.3C44.1,40.1,44.3,40.1,44.5,40.1z"/>
			<g id="XMLID_46065_">
				<path id="XMLID_46066_" class="st16" d="M44.1,38.8c0.1,0,0.1,0.1,0.2,0.1c0.1,0,0.3-0.1,0.4-0.2l1,0.8
					c-0.3,0.4-0.8,0.6-1.2,0.6l0,0c-0.2,0-0.5,0-0.6-0.1L44.1,38.8z"/>
			</g>
		</g>
	</g>
</g>
</svg>
