<?xml version="1.0" encoding="utf-8"?>
<!-- Generator: Adobe Illustrator 21.0.0, SVG Export Plug-In . SVG Version: 6.00 Build 0)  -->
<svg version="1.1" id="Layer_1" xmlns="http://www.w3.org/2000/svg" xmlns:xlink="http://www.w3.org/1999/xlink" x="0px" y="0px"
	 viewBox="0 0 80 80" style="enable-background:new 0 0 80 80;" xml:space="preserve">
<style type="text/css">
	.st0{fill:#C5C6C7;}
	.st1{opacity:0.2;fill:#C5C6C7;}
	.st2{fill:#92989E;}
	.st3{opacity:0.2;fill:#868E92;}
	.st4{fill:#333538;}
	.st5{fill:#59595C;}
	.st6{fill:#636467;}
	.st7{opacity:0.2;fill:#636467;}
	.st8{fill:#B1B1B1;}
	.st9{fill:#D2D2D2;}
	.st10{fill:#C2C1C1;}
	.st11{fill:#BBBBBB;}
	.st12{opacity:0.3;fill:#C2C1C1;}
	.st13{fill:#D5D6D5;}
	.st14{fill:#B1B4B6;}
	.st15{fill:#AEAEAE;}
	.st16{fill:#353434;}
	.st17{fill:#3E3C39;}
	.st18{fill:#D0D1D1;}
	.st19{fill:#C6C4C3;}
	.st20{fill:#DCDCDB;}
	.st21{fill:#F3F4F5;}
	.st22{fill:#C5C6D4;}
	.st23{fill:#DADAE0;}
	.st24{fill:#7D888D;}
	.st25{fill:#707C80;}
	.st26{fill:#B7C3C5;}
	.st27{fill:#9CACB2;}
	.st28{opacity:0.2;fill:#707C80;}
	.st29{fill:#A9B4B6;}
	.st30{opacity:0.2;fill:#A9B4B6;}
	.st31{fill:#CCDBDD;}
	.st32{fill:#95CDD6;}
	.st33{opacity:0.5;fill:#95CDD6;}
	.st34{opacity:0.3;fill:#80BCC9;}
	.st35{opacity:0.2;}
	.st36{fill:#DBE9E9;}
	.st37{fill:#8C999D;}
	.st38{fill:#5F6D71;}
	.st39{fill:#BAC8CB;}
	.st40{fill:#6A787B;}
	.st41{fill:#A3A3A3;}
	.st42{fill:#CBCACA;}
	.st43{fill:#AEADA9;}
	.st44{fill:#A8A7A7;}
	.st45{fill:#CECDCB;}
</style>
<polygon id="XMLID_1279_" class="st0" points="46.7,19.6 20.2,34.9 20.2,61.3 46.7,46 "/>
<polygon id="XMLID_1278_" class="st1" points="46.7,19.6 20.2,34.9 20.2,45.3 46.7,46 "/>
<polygon id="XMLID_1277_" class="st2" points="1.4,23 51.9,52.2 51.9,79.7 51.1,79.2 51.1,52.7 20.2,34.9 20.2,61.3 1.4,50.5 "/>
<polyline id="XMLID_1276_" class="st3" points="1.4,23 51.9,52.2 51.9,79.7 51.1,79.2 51.1,52.7 20.2,34.9 20.2,61.3 "/>
<polygon id="XMLID_1236_" class="st0" points="51.9,52.2 78.5,36.9 78.5,64.4 77.7,64.8 52.7,79.2 51.9,79.7 "/>
<polyline id="XMLID_1235_" class="st1" points="52.7,79.2 51.9,79.7 51.9,52.2 78.5,36.9 "/>
<g id="XMLID_1227_">
	<g id="XMLID_1228_">
		<polygon id="XMLID_1232_" class="st4" points="51.9,50.5 51.9,52.2 1.4,23 1.4,21.3 		"/>
		<polygon id="XMLID_1231_" class="st5" points="78.5,35.2 51.9,50.5 51.9,52.2 78.5,36.9 		"/>
		<polygon id="XMLID_1230_" class="st6" points="27.9,6 78.5,35.2 51.9,50.5 1.4,21.3 		"/>
		<polyline id="XMLID_1229_" class="st7" points="78.5,35.2 52,50.5 1.5,21.3 		"/>
		<polygon class="st7" points="67.9,41.3 51.9,50.5 38.6,42.7 38.6,13 42.5,14.4 67.9,29.1 		"/>
	</g>
</g>
<g id="XMLID_16235_">
	<g id="XMLID_16281_">
		<path id="XMLID_16284_" class="st8" d="M24.5,16.2c0-1.9,2.8-3.4,6.2-3.4c3.4,0,6.2,1.5,6.2,3.4c0,0.2,0,0.1,0,0.3
			c0,1.9-2.8,3.4-6.2,3.4c-3.4,0-6.2-1.5-6.2-3.4C24.5,16.3,24.5,16.4,24.5,16.2z"/>
		<ellipse id="XMLID_16283_" class="st9" cx="30.7" cy="16.2" rx="6.2" ry="3.4"/>
		<path id="XMLID_16282_" class="st10" d="M24.5,16.2c0,1.9,2.8,3.4,6.2,3.4c3.4,0,6.2-1.5,6.2-3.4"/>
	</g>
	<g id="XMLID_16277_">
		<ellipse id="XMLID_16280_" class="st8" cx="30.7" cy="15.9" rx="2.7" ry="1.5"/>
		<g id="XMLID_16278_">
			<path id="XMLID_16279_" class="st11" d="M30.7,17.3c-1.4,0-2.6-0.6-2.7-1.4c0.1-0.8,1.3-1.4,2.7-1.4c1.4,0,2.6,0.6,2.7,1.4
				C33.2,16.7,32.1,17.3,30.7,17.3z"/>
		</g>
		<path class="st12" d="M33.4,19.3c-0.8,0.2-1.7,0.3-2.7,0.3c-1,0-1.9-0.1-2.7-0.3v-4.1h5.4V19.3z"/>
	</g>
	<g id="XMLID_16238_">
		<g id="XMLID_16239_">
			<g id="XMLID_16273_">
				<path id="XMLID_16274_" class="st10" d="M26.1,12.9c0,0,0,0.4,0,0.7c0.2,0.7,1.6,1.8,2.3,1.9c0.8,0.1-0.4-2.5-0.7-2.8
					c-0.3-0.3-0.6-0.5-1-0.4C26.4,12.4,26.2,12.7,26.1,12.9z M26.5,13.3c0-0.2,0.1-0.5,0.4-0.6c0.3-0.1,0.4,0,0.6,0.2
					c0.2,0.2,1.1,1.8,0.6,1.7C27.5,14.4,26.5,13.9,26.5,13.3z"/>
			</g>
			<path id="XMLID_16272_" class="st8" d="M34.1,12.4c0,1.5-1.1,3.5-1.1,3.6c-0.2,0.5-1.2,1-2.3,1c-1.1,0-2.1-0.4-2.3-1
				c0-0.1-1.1-2.1-1.1-3.6C27.2,10.9,34.1,10.9,34.1,12.4z"/>
			<path class="st12" d="M30.7,17c-0.7,0-1.2-0.1-1.7-0.4c-0.2-0.7-0.7-2.6-0.7-4.1c0-0.5,0.5-0.9,1.1-1.1c0.8-0.1,1.8-0.1,2.6,0
				c0.6,0.2,1.1,0.6,1.1,1.1c0,1.5-0.5,3.4-0.7,4.1C31.9,16.8,31.3,17,30.7,17z"/>
			<g id="XMLID_16267_">
				<g id="XMLID_16268_">
					<path id="XMLID_16269_" class="st8" d="M26,13.8c0.2,1.1,1.6,1.8,2.4,1.9c0.8,0.1-0.6-2.5-0.9-2.8c-0.3-0.3-0.6-0.5-1-0.3
						C26,12.7,26,13.3,26,13.8z M26.9,13c0.3-0.1,0.4,0,0.6,0.2c0.2,0.2,1.1,1.8,0.5,1.7c-1-0.3-1.3-0.6-1.5-1.1
						C26.4,13.4,26.5,13.1,26.9,13z"/>
				</g>
			</g>
			<path id="XMLID_16266_" class="st10" d="M27.2,11.9c0-1,1.5-1.9,3.4-1.9c1.9,0,3.4,0.8,3.4,1.9c0,0.1,0,0.2,0,0.3
				c0,1-1.5,1.9-3.4,1.9c-1.9,0-3.4-0.8-3.4-1.9C27.2,12.1,27.2,12.1,27.2,11.9z"/>
			<ellipse id="XMLID_16265_" class="st13" cx="30.7" cy="11.9" rx="3.4" ry="1.9"/>
			<path id="XMLID_16264_" class="st10" d="M27.2,11.9c0,1,1.5,1.9,3.4,1.9c1.9,0,3.4-0.8,3.4-1.9"/>
			<ellipse id="XMLID_16263_" class="st14" cx="30.7" cy="12" rx="2.9" ry="1.6"/>
			<g id="XMLID_16240_">
				<path id="XMLID_16262_" class="st15" d="M30.7,11.1c-1.4,0-2.6,0.6-2.7,1.3c-0.1-0.2-0.2-0.3-0.2-0.5c0-0.9,1.3-1.6,2.9-1.6
					c1.6,0,2.9,0.7,2.9,1.6c0,0.2-0.1,0.4-0.2,0.5C33.2,11.7,32.1,11.1,30.7,11.1z"/>
				<path class="st12" d="M30.7,10.9c1.4,0,2.6,0.6,2.8,1.3c0,0.1-0.1,0.2-0.1,0.3c-0.2-0.8-1.3-1.3-2.7-1.3c-1.4,0-2.6,0.6-2.7,1.3
					c-0.1-0.1-0.1-0.2-0.1-0.3C28,11.5,29.2,10.9,30.7,10.9z"/>
				<path id="XMLID_16261_" class="st16" d="M30.7,13.6c-1.3,0-2.3-0.4-2.7-1.1c0.2-0.8,1.3-1.3,2.7-1.3c1.4,0,2.6,0.6,2.7,1.3
					C33,13.1,31.9,13.6,30.7,13.6z"/>
				<g id="XMLID_16257_">
					<ellipse id="XMLID_16260_" class="st17" cx="31.8" cy="12.6" rx="0.4" ry="0.2"/>
					<ellipse id="XMLID_16259_" class="st16" cx="31.8" cy="12.6" rx="0.3" ry="0.2"/>
					<path id="XMLID_16258_" class="st17" d="M32,12.6c0-0.1-0.1-0.1-0.2-0.1c0,0-0.1,0-0.1,0c0,0,0.1,0,0.2,0
						C31.9,12.6,31.9,12.7,32,12.6C31.9,12.6,32,12.6,32,12.6z"/>
				</g>
				<g id="XMLID_16253_">
					<ellipse id="XMLID_16256_" class="st17" cx="31.8" cy="11.6" rx="0.3" ry="0.2"/>
					<ellipse id="XMLID_16255_" class="st16" cx="31.8" cy="11.6" rx="0.2" ry="0.1"/>
					<path id="XMLID_16254_" class="st17" d="M31.9,11.6c0,0-0.1-0.1-0.1-0.1c0,0-0.1,0-0.1,0c0,0,0.1,0,0.1,0
						C31.9,11.6,31.9,11.7,31.9,11.6C31.9,11.7,31.9,11.7,31.9,11.6z"/>
				</g>
				<g id="XMLID_16249_">
					<ellipse id="XMLID_16252_" class="st17" cx="28.7" cy="12.6" rx="0.3" ry="0.2"/>
					<ellipse id="XMLID_16251_" class="st16" cx="28.7" cy="12.6" rx="0.2" ry="0.1"/>
					<path id="XMLID_16250_" class="st17" d="M28.9,12.6c0,0-0.1-0.1-0.1-0.1c0,0-0.1,0-0.1,0c0,0,0.1,0,0.1,0
						C28.8,12.6,28.8,12.7,28.9,12.6C28.9,12.6,28.9,12.6,28.9,12.6z"/>
				</g>
				<g id="XMLID_16245_">
					<ellipse id="XMLID_16248_" class="st17" cx="30.5" cy="13.1" rx="0.3" ry="0.2"/>
					<ellipse id="XMLID_16247_" class="st16" cx="30.5" cy="13.1" rx="0.2" ry="0.1"/>
					<path id="XMLID_16246_" class="st17" d="M30.6,13.1c0,0-0.1-0.1-0.1-0.1c0,0-0.1,0-0.1,0c0,0,0.1,0,0.1,0
						C30.6,13.1,30.6,13.2,30.6,13.1C30.6,13.1,30.6,13.1,30.6,13.1z"/>
				</g>
				<g id="XMLID_16241_">
					<ellipse id="XMLID_16244_" class="st17" cx="29.8" cy="12" rx="0.4" ry="0.2"/>
					<ellipse id="XMLID_16243_" class="st16" cx="29.8" cy="12" rx="0.3" ry="0.2"/>
					<path id="XMLID_16242_" class="st17" d="M30,12c0-0.1-0.1-0.1-0.2-0.1c0,0-0.1,0-0.1,0c0,0,0.1,0,0.1,0C29.9,12,29.9,12,30,12
						C29.9,12,30,12,30,12z"/>
				</g>
			</g>
		</g>
	</g>
</g>
<g id="XMLID_44929_">
	<path id="XMLID_45336_" class="st18" d="M42.9,25.9c0-0.1,0-0.1,0.1-0.2l4.9-2.8c0.2-0.1,0.4-0.1,0.6,0l12.4,7.2
		c0.1,0,0.1,0.1,0.1,0.2c0,0.1,0,0.2,0,0.2c0,0.1,0,0.1-0.1,0.2l-4.9,2.8c-0.2,0.1-0.4,0.1-0.6,0L43,26.4c-0.1,0-0.1-0.1-0.1-0.2
		C42.9,26.1,42.9,26,42.9,25.9z"/>
	<path id="XMLID_45335_" class="st19" d="M43,25.8l4.9-2.8c0.2-0.1,0.4-0.1,0.6,0l12.4,7.2c0.1,0.1,0.1,0.3,0,0.4l-4.9,2.8
		c-0.2,0.1-0.4,0.1-0.6,0L43,26.1C42.9,26,42.9,25.8,43,25.8z"/>
	<g id="XMLID_44930_">
		<g id="XMLID_45270_">
			<g id="XMLID_45326_">
				<g id="XMLID_45331_">
					<g id="XMLID_45332_">
						<path id="XMLID_45334_" class="st20" d="M48,24.5C48,24.5,48.1,24.5,48,24.5l0.5-0.4c0.1,0,0.2,0,0.2,0l0.5,0.3c0,0,0,0,0,0.1
							v0.1c0,0,0,0.1,0,0.1L48.8,25c-0.1,0-0.2,0-0.2,0l-0.5-0.3C48.1,24.7,48,24.7,48,24.5L48,24.5z"/>
						<path id="XMLID_45333_" class="st21" d="M48.8,24.2l0.5,0.3c0.1,0,0.1,0.1,0,0.2l-0.5,0.3c-0.1,0-0.2,0-0.2,0l-0.5-0.3
							c-0.1,0-0.1-0.1,0-0.2l0.5-0.3C48.7,24.1,48.7,24.1,48.8,24.2z"/>
					</g>
				</g>
				<g id="XMLID_45327_">
					<g id="XMLID_45328_">
						<path id="XMLID_45330_" class="st20" d="M48.9,25C48.9,25,48.9,25,48.9,25l0.5-0.4c0.1,0,0.2,0,0.2,0l0.5,0.3c0,0,0,0,0,0.1
							v0.1c0,0,0,0.1,0,0.1l-0.5,0.3c-0.1,0-0.2,0-0.2,0l-0.5-0.3C48.9,25.2,48.9,25.2,48.9,25L48.9,25z"/>
						<path id="XMLID_45329_" class="st21" d="M49.7,24.7l0.5,0.3c0.1,0,0.1,0.1,0,0.2l-0.5,0.3c-0.1,0-0.2,0-0.2,0l-0.5-0.3
							c-0.1,0-0.1-0.1,0-0.2l0.5-0.3C49.5,24.6,49.6,24.6,49.7,24.7z"/>
					</g>
				</g>
			</g>
			<g id="XMLID_45321_">
				<g id="XMLID_45322_">
					<g id="XMLID_45323_">
						<path id="XMLID_45325_" class="st20" d="M46.9,23.9C46.9,23.8,46.9,23.8,46.9,23.9l0.5-0.4c0.1,0,0.2,0,0.2,0l0.8,0.5
							c0,0,0,0,0,0.1l0,0.1c0,0,0,0.1,0,0.1L48,24.5c-0.1,0-0.2,0-0.2,0L46.9,24C46.9,24,46.9,24,46.9,23.9L46.9,23.9z"/>
						<path id="XMLID_45324_" class="st21" d="M47.7,23.5l0.8,0.5c0.1,0,0.1,0.1,0,0.2L48,24.4c-0.1,0-0.2,0-0.2,0L46.9,24
							c-0.1,0-0.1-0.1,0-0.2l0.5-0.3C47.5,23.5,47.6,23.5,47.7,23.5z"/>
					</g>
				</g>
			</g>
			<g id="XMLID_45312_">
				<g id="XMLID_45317_">
					<g id="XMLID_45318_">
						<path id="XMLID_45320_" class="st20" d="M49.8,25.5C49.8,25.5,49.8,25.5,49.8,25.5l0.5-0.4c0.1,0,0.2,0,0.2,0l0.5,0.3
							c0,0,0,0,0,0.1l0,0.1c0,0,0,0.1,0,0.1L50.5,26c-0.1,0-0.2,0-0.2,0l-0.5-0.3C49.8,25.7,49.8,25.7,49.8,25.5L49.8,25.5z"/>
						<path id="XMLID_45319_" class="st21" d="M50.5,25.2l0.5,0.3c0.1,0,0.1,0.1,0,0.2l-0.5,0.3c-0.1,0-0.2,0-0.2,0l-0.5-0.3
							c-0.1,0-0.1-0.1,0-0.2l0.5-0.3C50.4,25.1,50.5,25.1,50.5,25.2z"/>
					</g>
				</g>
				<g id="XMLID_45313_">
					<g id="XMLID_45314_">
						<path id="XMLID_45316_" class="st20" d="M50.6,26C50.6,26,50.6,26,50.6,26l0.5-0.4c0.1,0,0.2,0,0.2,0l0.5,0.3c0,0,0,0,0,0.1
							l0,0.1c0,0,0,0.1,0,0.1l-0.5,0.3c-0.1,0-0.2,0-0.2,0l-0.5-0.3C50.6,26.2,50.6,26.2,50.6,26L50.6,26z"/>
						<path id="XMLID_45315_" class="st21" d="M51.4,25.7l0.5,0.3c0.1,0,0.1,0.1,0,0.2l-0.5,0.3c-0.1,0-0.2,0-0.2,0l-0.5-0.3
							c-0.1,0-0.1-0.1,0-0.2l0.5-0.3C51.2,25.6,51.3,25.6,51.4,25.7z"/>
					</g>
				</g>
			</g>
			<g id="XMLID_45303_">
				<g id="XMLID_45308_">
					<g id="XMLID_45309_">
						<path id="XMLID_45311_" class="st20" d="M51.5,26.5C51.5,26.5,51.5,26.5,51.5,26.5l0.5-0.4c0.1,0,0.2,0,0.2,0l0.5,0.3
							c0,0,0,0,0,0.1v0.1c0,0,0,0.1,0,0.1L52.3,27c-0.1,0-0.2,0-0.2,0l-0.5-0.3C51.5,26.7,51.5,26.6,51.5,26.5L51.5,26.5z"/>
						<path id="XMLID_45310_" class="st21" d="M52.2,26.2l0.5,0.3c0.1,0,0.1,0.1,0,0.2l-0.5,0.3c-0.1,0-0.2,0-0.2,0l-0.5-0.3
							c-0.1,0-0.1-0.1,0-0.2l0.5-0.3C52.1,26.1,52.2,26.1,52.2,26.2z"/>
					</g>
				</g>
				<g id="XMLID_45304_">
					<g id="XMLID_45305_">
						<path id="XMLID_45307_" class="st20" d="M52.3,27C52.3,27,52.4,27,52.3,27l0.5-0.4c0.1,0,0.2,0,0.2,0l0.5,0.3c0,0,0,0,0,0.1
							l0,0.1c0,0,0,0.1,0,0.1l-0.5,0.3c-0.1,0-0.2,0-0.2,0l-0.5-0.3C52.4,27.2,52.3,27.1,52.3,27L52.3,27z"/>
						<path id="XMLID_45306_" class="st21" d="M53.1,26.7l0.5,0.3c0.1,0,0.1,0.1,0,0.2l-0.5,0.3c-0.1,0-0.2,0-0.2,0l-0.5-0.3
							c-0.1,0-0.1-0.1,0-0.2l0.5-0.3C52.9,26.6,53,26.6,53.1,26.7z"/>
					</g>
				</g>
			</g>
			<g id="XMLID_45294_">
				<g id="XMLID_45299_">
					<g id="XMLID_45300_">
						<path id="XMLID_45302_" class="st20" d="M53.2,27.5C53.2,27.5,53.2,27.5,53.2,27.5l0.5-0.4c0.1,0,0.2,0,0.2,0l0.5,0.3
							c0,0,0,0,0,0.1v0.1c0,0,0,0.1,0,0.1L54,28c-0.1,0-0.2,0-0.2,0l-0.5-0.3C53.2,27.7,53.2,27.6,53.2,27.5L53.2,27.5z"/>
						<path id="XMLID_45301_" class="st21" d="M54,27.2l0.5,0.3c0.1,0,0.1,0.1,0,0.2L54,27.9c-0.1,0-0.2,0-0.2,0l-0.5-0.3
							c-0.1,0-0.1-0.1,0-0.2l0.5-0.3C53.8,27.1,53.9,27.1,54,27.2z"/>
					</g>
				</g>
				<g id="XMLID_45295_">
					<g id="XMLID_45296_">
						<path id="XMLID_45298_" class="st20" d="M54.1,28C54.1,28,54.1,28,54.1,28l0.5-0.4c0.1,0,0.2,0,0.2,0l0.5,0.3c0,0,0,0,0,0.1
							l0,0.1c0,0,0,0.1,0,0.1l-0.5,0.3c-0.1,0-0.2,0-0.2,0l-0.5-0.3C54.1,28.2,54.1,28.1,54.1,28L54.1,28z"/>
						<path id="XMLID_45297_" class="st21" d="M54.8,27.7l0.5,0.3c0.1,0,0.1,0.1,0,0.2l-0.5,0.3c-0.1,0-0.2,0-0.2,0l-0.5-0.3
							c-0.1,0-0.1-0.1,0-0.2l0.5-0.3C54.7,27.6,54.8,27.6,54.8,27.7z"/>
					</g>
				</g>
			</g>
			<g id="XMLID_45285_">
				<g id="XMLID_45290_">
					<g id="XMLID_45291_">
						<path id="XMLID_45293_" class="st20" d="M54.9,28.5C54.9,28.5,54.9,28.5,54.9,28.5l0.5-0.4c0.1,0,0.2,0,0.2,0l0.5,0.3
							c0,0,0,0,0,0.1v0.1c0,0,0,0.1,0,0.1L55.7,29c-0.1,0-0.2,0-0.2,0L55,28.7C54.9,28.7,54.9,28.6,54.9,28.5L54.9,28.5z"/>
						<path id="XMLID_45292_" class="st21" d="M55.7,28.2l0.5,0.3c0.1,0,0.1,0.1,0,0.2l-0.5,0.3c-0.1,0-0.2,0-0.2,0L55,28.6
							c-0.1,0-0.1-0.1,0-0.2l0.5-0.3C55.5,28.1,55.6,28.1,55.7,28.2z"/>
					</g>
				</g>
				<g id="XMLID_45286_">
					<g id="XMLID_45287_">
						<path id="XMLID_45289_" class="st20" d="M55.8,29C55.8,29,55.8,28.9,55.8,29l0.5-0.4c0.1,0,0.2,0,0.2,0l0.5,0.3c0,0,0,0,0,0.1
							l0,0.1c0,0,0,0.1,0,0.1l-0.5,0.3c-0.1,0-0.2,0-0.2,0l-0.5-0.3C55.8,29.2,55.8,29.1,55.8,29L55.8,29z"/>
						<path id="XMLID_45288_" class="st21" d="M56.5,28.6l0.5,0.3c0.1,0,0.1,0.1,0,0.2l-0.5,0.3c-0.1,0-0.2,0-0.2,0l-0.5-0.3
							c-0.1,0-0.1-0.1,0-0.2l0.5-0.3C56.4,28.6,56.5,28.6,56.5,28.6z"/>
					</g>
				</g>
			</g>
			<g id="XMLID_45276_">
				<g id="XMLID_45281_">
					<g id="XMLID_45282_">
						<path id="XMLID_45284_" class="st20" d="M56.6,29.5C56.6,29.5,56.6,29.4,56.6,29.5l0.5-0.4c0.1,0,0.2,0,0.2,0l0.5,0.3
							c0,0,0,0,0,0.1v0.1c0,0,0,0.1,0,0.1L57.4,30c-0.1,0-0.2,0-0.2,0l-0.5-0.3C56.6,29.7,56.6,29.6,56.6,29.5L56.6,29.5z"/>
						<path id="XMLID_45283_" class="st21" d="M57.4,29.1l0.5,0.3c0.1,0,0.1,0.1,0,0.2l-0.5,0.3c-0.1,0-0.2,0-0.2,0l-0.5-0.3
							c-0.1,0-0.1-0.1,0-0.2l0.5-0.3C57.2,29.1,57.3,29.1,57.4,29.1z"/>
					</g>
				</g>
				<g id="XMLID_45277_">
					<g id="XMLID_45278_">
						<path id="XMLID_45280_" class="st20" d="M57.5,30C57.5,30,57.5,29.9,57.5,30l0.5-0.4c0.1,0,0.2,0,0.2,0l0.5,0.3c0,0,0,0,0,0.1
							l0,0.1c0,0,0,0.1,0,0.1l-0.5,0.3c-0.1,0-0.2,0-0.2,0l-0.5-0.3C57.5,30.2,57.5,30.1,57.5,30L57.5,30z"/>
						<path id="XMLID_45279_" class="st21" d="M58.3,29.6l0.5,0.3c0.1,0,0.1,0.1,0,0.2l-0.5,0.3c-0.1,0-0.2,0-0.2,0l-0.5-0.3
							c-0.1,0-0.1-0.1,0-0.2l0.5-0.3C58.1,29.6,58.2,29.6,58.3,29.6z"/>
					</g>
				</g>
			</g>
			<g id="XMLID_45271_">
				<g id="XMLID_45272_">
					<g id="XMLID_45273_">
						<path id="XMLID_45275_" class="st20" d="M58.4,30.5C58.4,30.5,58.4,30.4,58.4,30.5l0.5-0.4c0.1,0,0.2,0,0.2,0l0.5,0.3
							c0,0,0,0,0,0.1v0.1c0,0,0,0.1,0,0.1L59.1,31c-0.1,0-0.2,0-0.2,0l-0.5-0.3C58.4,30.6,58.4,30.6,58.4,30.5L58.4,30.5z"/>
						<path id="XMLID_45274_" class="st21" d="M59.1,30.1l0.5,0.3c0.1,0,0.1,0.1,0,0.2l-0.5,0.3c-0.1,0-0.2,0-0.2,0l-0.5-0.3
							c-0.1,0-0.1-0.1,0-0.2l0.5-0.3C59,30.1,59,30.1,59.1,30.1z"/>
					</g>
				</g>
			</g>
		</g>
		<g id="XMLID_45174_">
			<g id="XMLID_45243_">
				<g id="XMLID_45257_">
					<g id="XMLID_45264_">
						<g id="XMLID_45265_">
							<g id="XMLID_45266_">
								<g id="XMLID_45267_">
									<path id="XMLID_45269_" class="st20" d="M59.2,30C59.2,30,59.2,29.9,59.2,30l0.3-0.2c0.1,0,0.2,0,0.2,0l0.5,0.3
										c0,0,0,0,0,0.1l0,0.1c0,0,0,0.1,0,0.1L60,30.5c-0.1,0-0.2,0-0.2,0l-0.5-0.3C59.2,30.2,59.2,30.1,59.2,30L59.2,30z"/>
									<path id="XMLID_45268_" class="st21" d="M59.7,29.8l0.5,0.3c0.1,0,0.1,0.1,0,0.2L60,30.4c-0.1,0-0.2,0-0.2,0l-0.5-0.3
										c-0.1,0-0.1-0.1,0-0.2l0.2-0.1C59.5,29.8,59.6,29.8,59.7,29.8z"/>
								</g>
							</g>
						</g>
					</g>
					<g id="XMLID_45258_">
						<g id="XMLID_45259_">
							<g id="XMLID_45260_">
								<g id="XMLID_45261_">
									<path id="XMLID_45263_" class="st20" d="M58.3,29.5C58.3,29.5,58.3,29.4,58.3,29.5l0.3-0.2c0.1,0,0.2,0,0.2,0l0.5,0.3
										c0,0,0,0,0,0.1l0,0.1c0,0,0,0.1,0,0.1L59.1,30c-0.1,0-0.2,0-0.2,0l-0.5-0.3C58.3,29.6,58.3,29.6,58.3,29.5L58.3,29.5z"/>
									<path id="XMLID_45262_" class="st21" d="M58.8,29.3l0.5,0.3c0.1,0,0.1,0.1,0,0.2l-0.2,0.1c-0.1,0-0.2,0-0.2,0l-0.5-0.3
										c-0.1,0-0.1-0.1,0-0.2l0.2-0.1C58.6,29.2,58.7,29.2,58.8,29.3z"/>
								</g>
							</g>
						</g>
					</g>
				</g>
				<g id="XMLID_45244_">
					<g id="XMLID_45251_">
						<g id="XMLID_45252_">
							<g id="XMLID_45253_">
								<g id="XMLID_45254_">
									<path id="XMLID_45256_" class="st20" d="M57.4,29C57.4,28.9,57.4,28.9,57.4,29l0.3-0.2c0.1,0,0.2,0,0.2,0l0.5,0.3
										c0,0,0,0,0,0.1v0.1c0,0,0,0.1,0,0.1l-0.2,0.1c-0.1,0-0.2,0-0.2,0l-0.5-0.3C57.4,29.1,57.4,29.1,57.4,29L57.4,29z"/>
									<path id="XMLID_45255_" class="st21" d="M57.9,28.8l0.5,0.3c0.1,0,0.1,0.1,0,0.2l-0.2,0.1c-0.1,0-0.2,0-0.2,0l-0.5-0.3
										c-0.1,0-0.1-0.1,0-0.2l0.2-0.1C57.8,28.7,57.8,28.7,57.9,28.8z"/>
								</g>
							</g>
						</g>
					</g>
					<g id="XMLID_45245_">
						<g id="XMLID_45246_">
							<g id="XMLID_45247_">
								<g id="XMLID_45248_">
									<path id="XMLID_45250_" class="st20" d="M56.5,28.5C56.5,28.4,56.6,28.4,56.5,28.5l0.3-0.2c0.1,0,0.2,0,0.2,0l0.5,0.3
										c0,0,0,0,0,0.1v0.1c0,0,0,0.1,0,0.1l-0.2,0.1c-0.1,0-0.2,0-0.2,0l-0.5-0.3C56.6,28.6,56.5,28.6,56.5,28.5L56.5,28.5z"/>
									<path id="XMLID_45249_" class="st21" d="M57,28.3l0.5,0.3c0.1,0,0.1,0.1,0,0.2l-0.2,0.1c-0.1,0-0.2,0-0.2,0l-0.5-0.3
										c-0.1,0-0.1-0.1,0-0.2l0.2-0.1C56.9,28.2,57,28.2,57,28.3z"/>
								</g>
							</g>
						</g>
					</g>
				</g>
			</g>
			<g id="XMLID_45216_">
				<g id="XMLID_45230_">
					<g id="XMLID_45237_">
						<g id="XMLID_45238_">
							<g id="XMLID_45239_">
								<g id="XMLID_45240_">
									<path id="XMLID_45242_" class="st20" d="M55.7,28C55.7,27.9,55.7,27.9,55.7,28l0.3-0.2c0.1,0,0.2,0,0.2,0l0.5,0.3
										c0,0,0,0,0,0.1l0,0.1c0,0,0,0.1,0,0.1l-0.2,0.1c-0.1,0-0.2,0-0.2,0l-0.5-0.3C55.7,28.1,55.7,28.1,55.7,28L55.7,28z"/>
									<path id="XMLID_45241_" class="st21" d="M56.2,27.8l0.5,0.3c0.1,0,0.1,0.1,0,0.2l-0.2,0.1c-0.1,0-0.2,0-0.2,0L55.7,28
										c-0.1,0-0.1-0.1,0-0.2l0.2-0.1C56,27.7,56.1,27.7,56.2,27.8z"/>
								</g>
							</g>
						</g>
					</g>
					<g id="XMLID_45231_">
						<g id="XMLID_45232_">
							<g id="XMLID_45233_">
								<g id="XMLID_45234_">
									<path id="XMLID_45236_" class="st20" d="M54.8,27.4C54.8,27.4,54.8,27.4,54.8,27.4l0.3-0.2c0.1,0,0.2,0,0.2,0l0.5,0.3
										c0,0,0,0,0,0.1l0,0.1c0,0,0,0.1,0,0.1l-0.2,0.1c-0.1,0-0.2,0-0.2,0l-0.5-0.3C54.8,27.6,54.8,27.6,54.8,27.4L54.8,27.4z"/>
									<path id="XMLID_45235_" class="st21" d="M55.3,27.3l0.5,0.3c0.1,0,0.1,0.1,0,0.2l-0.2,0.1c-0.1,0-0.2,0-0.2,0l-0.5-0.3
										c-0.1,0-0.1-0.1,0-0.2l0.2-0.1C55.1,27.2,55.2,27.2,55.3,27.3z"/>
								</g>
							</g>
						</g>
					</g>
				</g>
				<g id="XMLID_45217_">
					<g id="XMLID_45224_">
						<g id="XMLID_45225_">
							<g id="XMLID_45226_">
								<g id="XMLID_45227_">
									<path id="XMLID_45229_" class="st20" d="M53.9,26.9C53.9,26.9,53.9,26.9,53.9,26.9l0.3-0.2c0.1,0,0.2,0,0.2,0l0.5,0.3
										c0,0,0,0,0,0.1v0.1c0,0,0,0.1,0,0.1l-0.2,0.1c-0.1,0-0.2,0-0.2,0l-0.5-0.3C53.9,27.1,53.9,27.1,53.9,26.9L53.9,26.9z"/>
									<path id="XMLID_45228_" class="st21" d="M54.4,26.7l0.5,0.3c0.1,0,0.1,0.1,0,0.2l-0.2,0.1c-0.1,0-0.2,0-0.2,0L53.9,27
										c-0.1,0-0.1-0.1,0-0.2l0.2-0.1C54.2,26.7,54.3,26.7,54.4,26.7z"/>
								</g>
							</g>
						</g>
					</g>
					<g id="XMLID_45218_">
						<g id="XMLID_45219_">
							<g id="XMLID_45220_">
								<g id="XMLID_45221_">
									<path id="XMLID_45223_" class="st20" d="M53,26.4C53,26.4,53,26.4,53,26.4l0.3-0.2c0.1,0,0.2,0,0.2,0l0.5,0.3
										c0,0,0,0,0,0.1v0.1c0,0,0,0.1,0,0.1l-0.2,0.1c-0.1,0-0.2,0-0.2,0l-0.5-0.3C53,26.6,53,26.6,53,26.4L53,26.4z"/>
									<path id="XMLID_45222_" class="st21" d="M53.5,26.2l0.5,0.3c0.1,0,0.1,0.1,0,0.2l-0.2,0.1c-0.1,0-0.2,0-0.2,0l-0.5-0.3
										c-0.1,0-0.1-0.1,0-0.2l0.2-0.1C53.4,26.2,53.5,26.2,53.5,26.2z"/>
								</g>
							</g>
						</g>
					</g>
				</g>
			</g>
			<g id="XMLID_45189_">
				<g id="XMLID_45203_">
					<g id="XMLID_45210_">
						<g id="XMLID_45211_">
							<g id="XMLID_45212_">
								<g id="XMLID_45213_">
									<path id="XMLID_45215_" class="st20" d="M52.1,25.9C52.1,25.9,52.2,25.9,52.1,25.9l0.3-0.2c0.1,0,0.2,0,0.2,0l0.5,0.3
										c0,0,0,0,0,0.1l0,0.1c0,0,0,0.1,0,0.1l-0.2,0.1c-0.1,0-0.2,0-0.2,0l-0.5-0.3C52.2,26.1,52.1,26.1,52.1,25.9L52.1,25.9z"/>
									<path id="XMLID_45214_" class="st21" d="M52.6,25.7l0.5,0.3c0.1,0,0.1,0.1,0,0.2l-0.2,0.1c-0.1,0-0.2,0-0.2,0L52.2,26
										c-0.1,0-0.1-0.1,0-0.2l0.2-0.1C52.5,25.7,52.6,25.7,52.6,25.7z"/>
								</g>
							</g>
						</g>
					</g>
					<g id="XMLID_45204_">
						<g id="XMLID_45205_">
							<g id="XMLID_45206_">
								<g id="XMLID_45207_">
									<path id="XMLID_45209_" class="st20" d="M51.3,25.4C51.3,25.4,51.3,25.4,51.3,25.4l0.3-0.2c0.1,0,0.2,0,0.2,0l0.5,0.3
										c0,0,0,0,0,0.1l0,0.1c0,0,0,0.1,0,0.1l-0.2,0.1c-0.1,0-0.2,0-0.2,0l-0.5-0.3C51.3,25.6,51.3,25.5,51.3,25.4L51.3,25.4z"/>
									<path id="XMLID_45208_" class="st21" d="M51.8,25.2l0.5,0.3c0.1,0,0.1,0.1,0,0.2l-0.2,0.1c-0.1,0-0.2,0-0.2,0l-0.5-0.3
										c-0.1,0-0.1-0.1,0-0.2l0.2-0.1C51.6,25.2,51.7,25.2,51.8,25.2z"/>
								</g>
							</g>
						</g>
					</g>
				</g>
				<g id="XMLID_45190_">
					<g id="XMLID_45197_">
						<g id="XMLID_45198_">
							<g id="XMLID_45199_">
								<g id="XMLID_45200_">
									<path id="XMLID_45202_" class="st20" d="M50.4,24.9C50.4,24.9,50.4,24.9,50.4,24.9l0.3-0.2c0.1,0,0.2,0,0.2,0l0.5,0.3
										c0,0,0,0,0,0.1v0.1c0,0,0,0.1,0,0.1l-0.2,0.1c-0.1,0-0.2,0-0.2,0l-0.5-0.3C50.4,25.1,50.4,25,50.4,24.9L50.4,24.9z"/>
									<path id="XMLID_45201_" class="st21" d="M50.9,24.7l0.5,0.3c0.1,0,0.1,0.1,0,0.2l-0.2,0.1c-0.1,0-0.2,0-0.2,0L50.4,25
										c-0.1,0-0.1-0.1,0-0.2l0.2-0.1C50.7,24.7,50.8,24.7,50.9,24.7z"/>
								</g>
							</g>
						</g>
					</g>
					<g id="XMLID_45191_">
						<g id="XMLID_45192_">
							<g id="XMLID_45193_">
								<g id="XMLID_45194_">
									<path id="XMLID_45196_" class="st20" d="M49.5,24.4C49.5,24.4,49.5,24.3,49.5,24.4l0.3-0.2c0.1,0,0.2,0,0.2,0l0.5,0.3
										c0,0,0,0,0,0.1v0.1c0,0,0,0.1,0,0.1l-0.2,0.1c-0.1,0-0.2,0-0.2,0l-0.5-0.3C49.5,24.6,49.5,24.5,49.5,24.4L49.5,24.4z"/>
									<path id="XMLID_45195_" class="st21" d="M50,24.2l0.5,0.3c0.1,0,0.1,0.1,0,0.2l-0.2,0.1c-0.1,0-0.2,0-0.2,0l-0.5-0.3
										c-0.1,0-0.1-0.1,0-0.2l0.2-0.1C49.8,24.2,49.9,24.2,50,24.2z"/>
								</g>
							</g>
						</g>
					</g>
				</g>
			</g>
			<g id="XMLID_45175_">
				<g id="XMLID_45176_">
					<g id="XMLID_45183_">
						<g id="XMLID_45184_">
							<g id="XMLID_45185_">
								<g id="XMLID_45186_">
									<path id="XMLID_45188_" class="st20" d="M48.6,23.9C48.6,23.9,48.6,23.8,48.6,23.9l0.3-0.2c0.1,0,0.2,0,0.2,0l0.5,0.3
										c0,0,0,0,0,0.1l0,0.1c0,0,0,0.1,0,0.1l-0.2,0.1c-0.1,0-0.2,0-0.2,0l-0.5-0.3C48.6,24.1,48.6,24,48.6,23.9L48.6,23.9z"/>
									<path id="XMLID_45187_" class="st21" d="M49.1,23.7l0.5,0.3c0.1,0,0.1,0.1,0,0.2l-0.2,0.1c-0.1,0-0.2,0-0.2,0L48.7,24
										c-0.1,0-0.1-0.1,0-0.2l0.2-0.1C49,23.7,49.1,23.7,49.1,23.7z"/>
								</g>
							</g>
						</g>
					</g>
					<g id="XMLID_45177_">
						<g id="XMLID_45178_">
							<g id="XMLID_45179_">
								<g id="XMLID_45180_">
									<path id="XMLID_45182_" class="st20" d="M47.8,23.4C47.8,23.4,47.8,23.3,47.8,23.4l0.3-0.2c0.1,0,0.2,0,0.2,0l0.5,0.3
										c0,0,0,0,0,0.1l0,0.1c0,0,0,0.1,0,0.1l-0.2,0.1c-0.1,0-0.2,0-0.2,0l-0.5-0.3C47.8,23.5,47.8,23.5,47.8,23.4L47.8,23.4z"/>
									<path id="XMLID_45181_" class="st21" d="M48.2,23.2l0.5,0.3c0.1,0,0.1,0.1,0,0.2l-0.2,0.1c-0.1,0-0.2,0-0.2,0l-0.5-0.3
										c-0.1,0-0.1-0.1,0-0.2l0.2-0.1C48.1,23.1,48.2,23.1,48.2,23.2z"/>
								</g>
							</g>
						</g>
					</g>
				</g>
			</g>
		</g>
		<g id="XMLID_45113_">
			<g id="XMLID_45168_">
				<g id="XMLID_45169_">
					<g id="XMLID_45170_">
						<g id="XMLID_45171_">
							<path id="XMLID_45173_" class="st20" d="M56.2,31.2C56.2,31.2,56.2,31.2,56.2,31.2l0.5-0.4c0.1,0,0.2,0,0.2,0l1,0.6
								c0,0,0,0,0,0.1v0.1c0,0,0,0.1,0,0.1l-0.5,0.3c-0.1,0-0.2,0-0.2,0l-1-0.6C56.2,31.4,56.2,31.3,56.2,31.2L56.2,31.2z"/>
							<path id="XMLID_45172_" class="st21" d="M57,30.9l1,0.6c0.1,0,0.1,0.1,0,0.2l-0.5,0.3c-0.1,0-0.2,0-0.2,0l-1-0.6
								c-0.1,0-0.1-0.1,0-0.2l0.5-0.3C56.8,30.8,56.9,30.8,57,30.9z"/>
						</g>
					</g>
				</g>
			</g>
			<g id="XMLID_45164_">
				<g id="XMLID_45165_">
					<path id="XMLID_45167_" class="st20" d="M45.9,25.2C45.9,25.2,45.9,25.2,45.9,25.2l0.5-0.4c0.1,0,0.2,0,0.2,0l0.5,0.3
						c0,0,0,0,0,0.1v0.1c0,0,0,0.1,0,0.1l-0.5,0.3c-0.1,0-0.2,0-0.2,0l-0.5-0.3C45.9,25.4,45.9,25.4,45.9,25.2L45.9,25.2z"/>
					<path id="XMLID_45166_" class="st21" d="M46.7,24.9l0.5,0.3c0.1,0,0.1,0.1,0,0.2l-0.5,0.3c-0.1,0-0.2,0-0.2,0l-0.5-0.3
						c-0.1,0-0.1-0.1,0-0.2l0.5-0.3C46.5,24.9,46.6,24.9,46.7,24.9z"/>
				</g>
			</g>
			<g id="XMLID_45155_">
				<g id="XMLID_45160_">
					<g id="XMLID_45161_">
						<path id="XMLID_45163_" class="st20" d="M46.8,25.7C46.8,25.7,46.8,25.7,46.8,25.7l0.5-0.4c0.1,0,0.2,0,0.2,0l0.5,0.3
							c0,0,0,0,0,0.1l0,0.1c0,0,0,0.1,0,0.1l-0.5,0.3c-0.1,0-0.2,0-0.2,0l-0.5-0.3C46.8,25.9,46.8,25.9,46.8,25.7L46.8,25.7z"/>
						<path id="XMLID_45162_" class="st21" d="M47.5,25.4l0.5,0.3c0.1,0,0.1,0.1,0,0.2l-0.5,0.3c-0.1,0-0.2,0-0.2,0l-0.5-0.3
							c-0.1,0-0.1-0.1,0-0.2l0.5-0.3C47.4,25.3,47.5,25.3,47.5,25.4z"/>
					</g>
				</g>
				<g id="XMLID_45156_">
					<g id="XMLID_45157_">
						<path id="XMLID_45159_" class="st20" d="M47.6,26.2C47.6,26.2,47.6,26.2,47.6,26.2l0.5-0.4c0.1,0,0.2,0,0.2,0l0.5,0.3
							c0,0,0,0,0,0.1v0.1c0,0,0,0.1,0,0.1l-0.5,0.3c-0.1,0-0.2,0-0.2,0l-0.5-0.3C47.6,26.4,47.6,26.4,47.6,26.2L47.6,26.2z"/>
						<path id="XMLID_45158_" class="st21" d="M48.4,25.9l0.5,0.3c0.1,0,0.1,0.1,0,0.2l-0.5,0.3c-0.1,0-0.2,0-0.2,0l-0.5-0.3
							c-0.1,0-0.1-0.1,0-0.2l0.5-0.3C48.2,25.8,48.3,25.8,48.4,25.9z"/>
					</g>
				</g>
			</g>
			<g id="XMLID_45146_">
				<g id="XMLID_45151_">
					<g id="XMLID_45152_">
						<path id="XMLID_45154_" class="st20" d="M48.5,26.7C48.5,26.7,48.5,26.7,48.5,26.7l0.5-0.4c0.1,0,0.2,0,0.2,0l0.5,0.3
							c0,0,0,0,0,0.1v0.1c0,0,0,0.1,0,0.1l-0.5,0.3c-0.1,0-0.2,0-0.2,0l-0.5-0.3C48.5,26.9,48.5,26.9,48.5,26.7L48.5,26.7z"/>
						<path id="XMLID_45153_" class="st21" d="M49.2,26.4l0.5,0.3c0.1,0,0.1,0.1,0,0.2l-0.5,0.3c-0.1,0-0.2,0-0.2,0l-0.5-0.3
							c-0.1,0-0.1-0.1,0-0.2l0.5-0.3C49.1,26.3,49.2,26.3,49.2,26.4z"/>
					</g>
				</g>
				<g id="XMLID_45147_">
					<g id="XMLID_45148_">
						<path id="XMLID_45150_" class="st20" d="M49.3,27.2C49.3,27.2,49.3,27.2,49.3,27.2l0.5-0.4c0.1,0,0.2,0,0.2,0l0.5,0.3
							c0,0,0,0,0,0.1l0,0.1c0,0,0,0.1,0,0.1l-0.5,0.3c-0.1,0-0.2,0-0.2,0l-0.5-0.3C49.3,27.4,49.3,27.4,49.3,27.2L49.3,27.2z"/>
						<path id="XMLID_45149_" class="st21" d="M50.1,26.9l0.5,0.3c0.1,0,0.1,0.1,0,0.2l-0.5,0.3c-0.1,0-0.2,0-0.2,0l-0.5-0.3
							c-0.1,0-0.1-0.1,0-0.2l0.5-0.3C49.9,26.8,50,26.8,50.1,26.9z"/>
					</g>
				</g>
			</g>
			<g id="XMLID_45137_">
				<g id="XMLID_45142_">
					<g id="XMLID_45143_">
						<path id="XMLID_45145_" class="st20" d="M50.2,27.7C50.2,27.7,50.2,27.7,50.2,27.7l0.5-0.4c0.1,0,0.2,0,0.2,0l0.5,0.3
							c0,0,0,0,0,0.1l0,0.1c0,0,0,0.1,0,0.1L51,28.2c-0.1,0-0.2,0-0.2,0l-0.5-0.3C50.2,27.9,50.2,27.9,50.2,27.7L50.2,27.7z"/>
						<path id="XMLID_45144_" class="st21" d="M51,27.4l0.5,0.3c0.1,0,0.1,0.1,0,0.2L51,28.1c-0.1,0-0.2,0-0.2,0l-0.5-0.3
							c-0.1,0-0.1-0.1,0-0.2l0.5-0.3C50.8,27.3,50.9,27.3,51,27.4z"/>
					</g>
				</g>
				<g id="XMLID_45138_">
					<g id="XMLID_45139_">
						<path id="XMLID_45141_" class="st20" d="M51,28.2C51.1,28.2,51.1,28.2,51,28.2l0.5-0.4c0.1,0,0.2,0,0.2,0l0.5,0.3
							c0,0,0,0,0,0.1v0.1c0,0,0,0.1,0,0.1l-0.5,0.3c-0.1,0-0.2,0-0.2,0l-0.5-0.3C51.1,28.4,51,28.4,51,28.2L51,28.2z"/>
						<path id="XMLID_45140_" class="st21" d="M51.8,27.9l0.5,0.3c0.1,0,0.1,0.1,0,0.2l-0.5,0.3c-0.1,0-0.2,0-0.2,0l-0.5-0.3
							c-0.1,0-0.1-0.1,0-0.2l0.5-0.3C51.7,27.8,51.7,27.8,51.8,27.9z"/>
					</g>
				</g>
			</g>
			<g id="XMLID_45128_">
				<g id="XMLID_45133_">
					<g id="XMLID_45134_">
						<path id="XMLID_45136_" class="st20" d="M51.9,28.7C51.9,28.7,51.9,28.7,51.9,28.7l0.5-0.4c0.1,0,0.2,0,0.2,0l0.5,0.3
							c0,0,0,0,0,0.1v0.1c0,0,0,0.1,0,0.1l-0.5,0.3c-0.1,0-0.2,0-0.2,0L52,28.9C51.9,28.9,51.9,28.9,51.9,28.7L51.9,28.7z"/>
						<path id="XMLID_45135_" class="st21" d="M52.7,28.4l0.5,0.3c0.1,0,0.1,0.1,0,0.2l-0.5,0.3c-0.1,0-0.2,0-0.2,0L52,28.8
							c-0.1,0-0.1-0.1,0-0.2l0.5-0.3C52.5,28.3,52.6,28.3,52.7,28.4z"/>
					</g>
				</g>
				<g id="XMLID_45129_">
					<g id="XMLID_45130_">
						<path id="XMLID_45132_" class="st20" d="M52.8,29.2C52.8,29.2,52.8,29.2,52.8,29.2l0.5-0.4c0.1,0,0.2,0,0.2,0l0.5,0.3
							c0,0,0,0,0,0.1l0,0.1c0,0,0,0.1,0,0.1l-0.5,0.3c-0.1,0-0.2,0-0.2,0l-0.5-0.3C52.8,29.4,52.8,29.3,52.8,29.2L52.8,29.2z"/>
						<path id="XMLID_45131_" class="st21" d="M53.5,28.9l0.5,0.3c0.1,0,0.1,0.1,0,0.2l-0.5,0.3c-0.1,0-0.2,0-0.2,0l-0.5-0.3
							c-0.1,0-0.1-0.1,0-0.2l0.5-0.3C53.4,28.8,53.5,28.8,53.5,28.9z"/>
					</g>
				</g>
			</g>
			<g id="XMLID_45119_">
				<g id="XMLID_45124_">
					<g id="XMLID_45125_">
						<path id="XMLID_45127_" class="st20" d="M53.6,29.7C53.6,29.7,53.6,29.7,53.6,29.7l0.5-0.4c0.1,0,0.2,0,0.2,0l0.5,0.3
							c0,0,0,0,0,0.1l0,0.1c0,0,0,0.1,0,0.1l-0.5,0.3c-0.1,0-0.2,0-0.2,0l-0.5-0.3C53.6,29.9,53.6,29.8,53.6,29.7L53.6,29.7z"/>
						<path id="XMLID_45126_" class="st21" d="M54.4,29.4l0.5,0.3c0.1,0,0.1,0.1,0,0.2l-0.5,0.3c-0.1,0-0.2,0-0.2,0l-0.5-0.3
							c-0.1,0-0.1-0.1,0-0.2l0.5-0.3C54.2,29.3,54.3,29.3,54.4,29.4z"/>
					</g>
				</g>
				<g id="XMLID_45120_">
					<g id="XMLID_45121_">
						<path id="XMLID_45123_" class="st20" d="M54.5,30.2C54.5,30.2,54.5,30.2,54.5,30.2l0.5-0.4c0.1,0,0.2,0,0.2,0l0.5,0.3
							c0,0,0,0,0,0.1v0.1c0,0,0,0.1,0,0.1l-0.5,0.3c-0.1,0-0.2,0-0.2,0l-0.5-0.3C54.5,30.4,54.5,30.3,54.5,30.2L54.5,30.2z"/>
						<path id="XMLID_45122_" class="st21" d="M55.3,29.9l0.5,0.3c0.1,0,0.1,0.1,0,0.2l-0.5,0.3c-0.1,0-0.2,0-0.2,0l-0.5-0.3
							c-0.1,0-0.1-0.1,0-0.2l0.5-0.3C55.1,29.8,55.2,29.8,55.3,29.9z"/>
					</g>
				</g>
			</g>
			<g id="XMLID_45114_">
				<g id="XMLID_45115_">
					<g id="XMLID_45116_">
						<path id="XMLID_45118_" class="st20" d="M55.3,30.7C55.3,30.7,55.4,30.7,55.3,30.7l0.5-0.4c0.1,0,0.2,0,0.2,0l0.5,0.3
							c0,0,0,0,0,0.1l0,0.1c0,0,0,0.1,0,0.1l-0.5,0.3c-0.1,0-0.2,0-0.2,0l-0.5-0.3C55.4,30.9,55.3,30.8,55.3,30.7L55.3,30.7z"/>
						<path id="XMLID_45117_" class="st21" d="M56.1,30.4l0.5,0.3c0.1,0,0.1,0.1,0,0.2l-0.5,0.3c-0.1,0-0.2,0-0.2,0l-0.5-0.3
							c-0.1,0-0.1-0.1,0-0.2l0.5-0.3C56,30.3,56,30.3,56.1,30.4z"/>
					</g>
				</g>
			</g>
		</g>
		<g id="XMLID_45049_">
			<g id="XMLID_45108_">
				<g id="XMLID_45109_">
					<g id="XMLID_45110_">
						<path id="XMLID_45112_" class="st20" d="M57.2,30.8C57.2,30.8,57.2,30.8,57.2,30.8l0.5-0.4c0.1,0,0.2,0,0.2,0l0.8,0.5
							c0,0,0,0,0,0.1l0,0.1c0,0,0,0.1,0,0.1l-0.5,0.3c-0.1,0-0.2,0-0.2,0L57.3,31C57.2,31,57.2,30.9,57.2,30.8L57.2,30.8z"/>
						<path id="XMLID_45111_" class="st21" d="M58,30.5l0.8,0.5c0.1,0,0.1,0.1,0,0.2l-0.5,0.3c-0.1,0-0.2,0-0.2,0l-0.8-0.5
							c-0.1,0-0.1-0.1,0-0.2l0.5-0.3C57.8,30.4,57.9,30.4,58,30.5z"/>
					</g>
				</g>
			</g>
			<g id="XMLID_45053_">
				<g id="XMLID_45104_">
					<g id="XMLID_45105_">
						<path id="XMLID_45107_" class="st20" d="M46.9,24.8C46.9,24.8,46.9,24.8,46.9,24.8l0.5-0.4c0.1,0,0.2,0,0.2,0l0.5,0.3
							c0,0,0,0,0,0.1v0.1c0,0,0,0.1,0,0.1l-0.5,0.3c-0.1,0-0.2,0-0.2,0L46.9,25C46.9,25,46.9,25,46.9,24.8L46.9,24.8z"/>
						<path id="XMLID_45106_" class="st21" d="M47.7,24.5l0.5,0.3c0.1,0,0.1,0.1,0,0.2l-0.5,0.3c-0.1,0-0.2,0-0.2,0l-0.5-0.3
							c-0.1,0-0.1-0.1,0-0.2l0.5-0.3C47.5,24.4,47.6,24.4,47.7,24.5z"/>
					</g>
				</g>
				<g id="XMLID_45095_">
					<g id="XMLID_45100_">
						<g id="XMLID_45101_">
							<path id="XMLID_45103_" class="st20" d="M47.8,25.3C47.8,25.3,47.8,25.3,47.8,25.3l0.5-0.4c0.1,0,0.2,0,0.2,0l0.5,0.3
								c0,0,0,0,0,0.1v0.1c0,0,0,0.1,0,0.1l-0.5,0.3c-0.1,0-0.2,0-0.2,0l-0.5-0.3C47.8,25.5,47.8,25.5,47.8,25.3L47.8,25.3z"/>
							<path id="XMLID_45102_" class="st21" d="M48.5,25l0.5,0.3c0.1,0,0.1,0.1,0,0.2l-0.5,0.3c-0.1,0-0.2,0-0.2,0l-0.5-0.3
								c-0.1,0-0.1-0.1,0-0.2l0.5-0.3C48.4,24.9,48.5,24.9,48.5,25z"/>
						</g>
					</g>
					<g id="XMLID_45096_">
						<g id="XMLID_45097_">
							<path id="XMLID_45099_" class="st20" d="M48.6,25.8C48.6,25.8,48.6,25.8,48.6,25.8l0.5-0.4c0.1,0,0.2,0,0.2,0l0.5,0.3
								c0,0,0,0,0,0.1l0,0.1c0,0,0,0.1,0,0.1l-0.5,0.3c-0.1,0-0.2,0-0.2,0L48.7,26C48.6,26,48.6,26,48.6,25.8L48.6,25.8z"/>
							<path id="XMLID_45098_" class="st21" d="M49.4,25.5l0.5,0.3c0.1,0,0.1,0.1,0,0.2l-0.5,0.3c-0.1,0-0.2,0-0.2,0l-0.5-0.3
								c-0.1,0-0.1-0.1,0-0.2l0.5-0.3C49.2,25.4,49.3,25.4,49.4,25.5z"/>
						</g>
					</g>
				</g>
				<g id="XMLID_45086_">
					<g id="XMLID_45091_">
						<g id="XMLID_45092_">
							<path id="XMLID_45094_" class="st20" d="M49.5,26.3C49.5,26.3,49.5,26.3,49.5,26.3L50,26c0.1,0,0.2,0,0.2,0l0.5,0.3
								c0,0,0,0,0,0.1l0,0.1c0,0,0,0.1,0,0.1l-0.5,0.3c-0.1,0-0.2,0-0.2,0l-0.5-0.3C49.5,26.5,49.5,26.5,49.5,26.3L49.5,26.3z"/>
							<path id="XMLID_45093_" class="st21" d="M50.2,26l0.5,0.3c0.1,0,0.1,0.1,0,0.2l-0.5,0.3c-0.1,0-0.2,0-0.2,0l-0.5-0.3
								c-0.1,0-0.1-0.1,0-0.2L50,26C50.1,25.9,50.2,25.9,50.2,26z"/>
						</g>
					</g>
					<g id="XMLID_45087_">
						<g id="XMLID_45088_">
							<path id="XMLID_45090_" class="st20" d="M50.3,26.8C50.3,26.8,50.4,26.8,50.3,26.8l0.5-0.4c0.1,0,0.2,0,0.2,0l0.5,0.3
								c0,0,0,0,0,0.1v0.1c0,0,0,0.1,0,0.1l-0.5,0.3c-0.1,0-0.2,0-0.2,0L50.4,27C50.3,27,50.3,27,50.3,26.8L50.3,26.8z"/>
							<path id="XMLID_45089_" class="st21" d="M51.1,26.5l0.5,0.3c0.1,0,0.1,0.1,0,0.2l-0.5,0.3c-0.1,0-0.2,0-0.2,0l-0.5-0.3
								c-0.1,0-0.1-0.1,0-0.2l0.5-0.3C50.9,26.4,51,26.4,51.1,26.5z"/>
						</g>
					</g>
				</g>
				<g id="XMLID_45077_">
					<g id="XMLID_45082_">
						<g id="XMLID_45083_">
							<path id="XMLID_45085_" class="st20" d="M51.2,27.3C51.2,27.3,51.2,27.3,51.2,27.3l0.5-0.4c0.1,0,0.2,0,0.2,0l0.5,0.3
								c0,0,0,0,0,0.1v0.1c0,0,0,0.1,0,0.1L52,27.8c-0.1,0-0.2,0-0.2,0l-0.5-0.3C51.2,27.5,51.2,27.5,51.2,27.3L51.2,27.3z"/>
							<path id="XMLID_45084_" class="st21" d="M52,27l0.5,0.3c0.1,0,0.1,0.1,0,0.2L52,27.7c-0.1,0-0.2,0-0.2,0l-0.5-0.3
								c-0.1,0-0.1-0.1,0-0.2l0.5-0.3C51.8,26.9,51.9,26.9,52,27z"/>
						</g>
					</g>
					<g id="XMLID_45078_">
						<g id="XMLID_45079_">
							<path id="XMLID_45081_" class="st20" d="M52.1,27.8C52.1,27.8,52.1,27.8,52.1,27.8l0.5-0.4c0.1,0,0.2,0,0.2,0l0.5,0.3
								c0,0,0,0,0,0.1l0,0.1c0,0,0,0.1,0,0.1l-0.5,0.3c-0.1,0-0.2,0-0.2,0L52.1,28C52.1,28,52.1,28,52.1,27.8L52.1,27.8z"/>
							<path id="XMLID_45080_" class="st21" d="M52.8,27.5l0.5,0.3c0.1,0,0.1,0.1,0,0.2l-0.5,0.3c-0.1,0-0.2,0-0.2,0l-0.5-0.3
								c-0.1,0-0.1-0.1,0-0.2l0.5-0.3C52.7,27.4,52.8,27.4,52.8,27.5z"/>
						</g>
					</g>
				</g>
				<g id="XMLID_45068_">
					<g id="XMLID_45073_">
						<g id="XMLID_45074_">
							<path id="XMLID_45076_" class="st20" d="M52.9,28.3C52.9,28.3,52.9,28.3,52.9,28.3l0.5-0.4c0.1,0,0.2,0,0.2,0l0.5,0.3
								c0,0,0,0,0,0.1l0,0.1c0,0,0,0.1,0,0.1l-0.5,0.3c-0.1,0-0.2,0-0.2,0L53,28.5C52.9,28.5,52.9,28.4,52.9,28.3L52.9,28.3z"/>
							<path id="XMLID_45075_" class="st21" d="M53.7,28l0.5,0.3c0.1,0,0.1,0.1,0,0.2l-0.5,0.3c-0.1,0-0.2,0-0.2,0L53,28.4
								c-0.1,0-0.1-0.1,0-0.2l0.5-0.3C53.5,27.9,53.6,27.9,53.7,28z"/>
						</g>
					</g>
					<g id="XMLID_45069_">
						<g id="XMLID_45070_">
							<path id="XMLID_45072_" class="st20" d="M53.8,28.8C53.8,28.8,53.8,28.8,53.8,28.8l0.5-0.4c0.1,0,0.2,0,0.2,0l0.5,0.3
								c0,0,0,0,0,0.1v0.1c0,0,0,0.1,0,0.1l-0.5,0.3c-0.1,0-0.2,0-0.2,0L53.8,29C53.8,29,53.8,28.9,53.8,28.8L53.8,28.8z"/>
							<path id="XMLID_45071_" class="st21" d="M54.5,28.5l0.5,0.3c0.1,0,0.1,0.1,0,0.2l-0.5,0.3c-0.1,0-0.2,0-0.2,0l-0.5-0.3
								c-0.1,0-0.1-0.1,0-0.2l0.5-0.3C54.4,28.4,54.5,28.4,54.5,28.5z"/>
						</g>
					</g>
				</g>
				<g id="XMLID_45059_">
					<g id="XMLID_45064_">
						<g id="XMLID_45065_">
							<path id="XMLID_45067_" class="st20" d="M54.6,29.3C54.6,29.3,54.6,29.3,54.6,29.3l0.5-0.4c0.1,0,0.2,0,0.2,0l0.5,0.3
								c0,0,0,0,0,0.1l0,0.1c0,0,0,0.1,0,0.1l-0.5,0.3c-0.1,0-0.2,0-0.2,0l-0.5-0.3C54.6,29.5,54.6,29.4,54.6,29.3L54.6,29.3z"/>
							<path id="XMLID_45066_" class="st21" d="M55.4,29l0.5,0.3c0.1,0,0.1,0.1,0,0.2l-0.5,0.3c-0.1,0-0.2,0-0.2,0l-0.5-0.3
								c-0.1,0-0.1-0.1,0-0.2l0.5-0.3C55.2,28.9,55.3,28.9,55.4,29z"/>
						</g>
					</g>
					<g id="XMLID_45060_">
						<g id="XMLID_45061_">
							<path id="XMLID_45063_" class="st20" d="M55.5,29.8C55.5,29.8,55.5,29.8,55.5,29.8l0.5-0.4c0.1,0,0.2,0,0.2,0l0.5,0.3
								c0,0,0,0,0,0.1l0,0.1c0,0,0,0.1,0,0.1l-0.5,0.3c-0.1,0-0.2,0-0.2,0L55.5,30C55.5,30,55.5,29.9,55.5,29.8L55.5,29.8z"/>
							<path id="XMLID_45062_" class="st21" d="M56.3,29.5l0.5,0.3c0.1,0,0.1,0.1,0,0.2l-0.5,0.3c-0.1,0-0.2,0-0.2,0l-0.5-0.3
								c-0.1,0-0.1-0.1,0-0.2l0.5-0.3C56.1,29.4,56.2,29.4,56.3,29.5z"/>
						</g>
					</g>
				</g>
				<g id="XMLID_45054_">
					<g id="XMLID_45055_">
						<g id="XMLID_45056_">
							<path id="XMLID_45058_" class="st20" d="M56.3,30.3C56.4,30.3,56.4,30.3,56.3,30.3l0.5-0.4c0.1,0,0.2,0,0.2,0l0.5,0.3
								c0,0,0,0,0,0.1l0,0.1c0,0,0,0.1,0,0.1l-0.5,0.3c-0.1,0-0.2,0-0.2,0l-0.5-0.3C56.4,30.5,56.3,30.4,56.3,30.3L56.3,30.3z"/>
							<path id="XMLID_45057_" class="st21" d="M57.1,29.9l0.5,0.3c0.1,0,0.1,0.1,0,0.2l-0.5,0.3c-0.1,0-0.2,0-0.2,0l-0.5-0.3
								c-0.1,0-0.1-0.1,0-0.2l0.5-0.3C57,29.9,57,29.9,57.1,29.9z"/>
						</g>
					</g>
				</g>
			</g>
			<g id="XMLID_45050_">
				<path id="XMLID_45052_" class="st20" d="M45.2,24.8C45.2,24.8,45.2,24.8,45.2,24.8l1.4-0.8c0.1,0,0.2,0,0.2,0l0.5,0.3
					c0,0,0,0,0,0.1l0,0.1c0,0,0,0.1,0,0.1l-0.5,0.3c-0.1,0-0.1,0-0.2,0l-0.1,0l-0.7,0.4c-0.1,0-0.2,0-0.2,0L45.2,25
					C45.2,25,45.2,25,45.2,24.8L45.2,24.8z"/>
				<path id="XMLID_45051_" class="st21" d="M45.2,24.8l1-0.5c0,0,0,0,0,0l0.4-0.2c0.1,0,0.2,0,0.2,0l0.5,0.3c0.1,0,0.1,0.1,0,0.2
					l-0.5,0.3c-0.1,0-0.1,0-0.2,0l-0.1,0l-0.7,0.4c-0.1,0-0.2,0-0.2,0l-0.3-0.2C45.2,24.9,45.2,24.8,45.2,24.8z"/>
			</g>
		</g>
		<g id="XMLID_44988_">
			<g id="XMLID_45044_">
				<g id="XMLID_45045_">
					<g id="XMLID_45046_">
						<path id="XMLID_45048_" class="st20" d="M55.6,31.9C55.7,31.8,55.7,31.8,55.6,31.9l0.5-0.4c0.1,0,0.2,0,0.2,0l0.7,0.4
							c0,0,0,0,0,0.1l0,0.1c0,0,0,0.1,0,0.1l-0.5,0.3c-0.1,0-0.2,0-0.2,0l-0.7-0.4C55.7,32,55.6,32,55.6,31.9L55.6,31.9z"/>
						<path id="XMLID_45047_" class="st21" d="M56.4,31.5l0.7,0.4c0.1,0,0.1,0.1,0,0.2l-0.5,0.3c-0.1,0-0.2,0-0.2,0L55.7,32
							c-0.1,0-0.1-0.1,0-0.2l0.5-0.3C56.3,31.5,56.3,31.5,56.4,31.5z"/>
					</g>
				</g>
			</g>
			<g id="XMLID_44989_">
				<g id="XMLID_45040_">
					<g id="XMLID_45041_">
						<path id="XMLID_45043_" class="st20" d="M44.3,25.3C44.3,25.3,44.3,25.3,44.3,25.3l0.5-0.4c0.1,0,0.2,0,0.2,0l1.5,0.9
							c0,0,0,0,0,0.1l0,0.1c0,0,0,0.1,0,0.1l-0.5,0.3c-0.1,0-0.2,0-0.2,0l-1.5-0.9C44.3,25.5,44.3,25.5,44.3,25.3L44.3,25.3z"/>
						<path id="XMLID_45042_" class="st21" d="M45.1,25l1.5,0.9c0.1,0,0.1,0.1,0,0.2l-0.5,0.3c-0.1,0-0.2,0-0.2,0l-1.5-0.9
							c-0.1,0-0.1-0.1,0-0.2l0.5-0.3C44.9,24.9,45,24.9,45.1,25z"/>
					</g>
				</g>
				<g id="XMLID_45031_">
					<g id="XMLID_45036_">
						<g id="XMLID_45037_">
							<path id="XMLID_45039_" class="st20" d="M46.2,26.4C46.2,26.4,46.2,26.4,46.2,26.4l0.5-0.4c0.1,0,0.2,0,0.2,0l0.5,0.3
								c0,0,0,0,0,0.1v0.1c0,0,0,0.1,0,0.1L47,26.9c-0.1,0-0.2,0-0.2,0l-0.5-0.3C46.2,26.6,46.2,26.5,46.2,26.4L46.2,26.4z"/>
							<path id="XMLID_45038_" class="st21" d="M47,26.1l0.5,0.3c0.1,0,0.1,0.1,0,0.2L47,26.8c-0.1,0-0.2,0-0.2,0l-0.5-0.3
								c-0.1,0-0.1-0.1,0-0.2l0.5-0.3C46.8,26,46.9,26,47,26.1z"/>
						</g>
					</g>
					<g id="XMLID_45032_">
						<g id="XMLID_45033_">
							<path id="XMLID_45035_" class="st20" d="M47.1,26.9C47.1,26.9,47.1,26.9,47.1,26.9l0.5-0.4c0.1,0,0.2,0,0.2,0l0.5,0.3
								c0,0,0,0,0,0.1V27c0,0,0,0.1,0,0.1l-0.5,0.3c-0.1,0-0.2,0-0.2,0l-0.5-0.3C47.1,27.1,47.1,27,47.1,26.9L47.1,26.9z"/>
							<path id="XMLID_45034_" class="st21" d="M47.8,26.6l0.5,0.3c0.1,0,0.1,0.1,0,0.2l-0.5,0.3c-0.1,0-0.2,0-0.2,0L47.1,27
								c-0.1,0-0.1-0.1,0-0.2l0.5-0.3C47.7,26.5,47.8,26.5,47.8,26.6z"/>
						</g>
					</g>
				</g>
				<g id="XMLID_45022_">
					<g id="XMLID_45027_">
						<g id="XMLID_45028_">
							<path id="XMLID_45030_" class="st20" d="M47.9,27.4C47.9,27.4,47.9,27.4,47.9,27.4l0.5-0.4c0.1,0,0.2,0,0.2,0l0.5,0.3
								c0,0,0,0,0,0.1l0,0.1c0,0,0,0.1,0,0.1l-0.5,0.3c-0.1,0-0.2,0-0.2,0L48,27.6C47.9,27.6,47.9,27.5,47.9,27.4L47.9,27.4z"/>
							<path id="XMLID_45029_" class="st21" d="M48.7,27.1l0.5,0.3c0.1,0,0.1,0.1,0,0.2l-0.5,0.3c-0.1,0-0.2,0-0.2,0L48,27.5
								c-0.1,0-0.1-0.1,0-0.2l0.5-0.3C48.5,27,48.6,27,48.7,27.1z"/>
						</g>
					</g>
					<g id="XMLID_45023_">
						<g id="XMLID_45024_">
							<path id="XMLID_45026_" class="st20" d="M48.8,27.9C48.8,27.9,48.8,27.9,48.8,27.9l0.5-0.4c0.1,0,0.2,0,0.2,0l0.5,0.3
								c0,0,0,0,0,0.1l0,0.1c0,0,0,0.1,0,0.1l-0.5,0.3c-0.1,0-0.2,0-0.2,0l-0.5-0.3C48.8,28.1,48.8,28,48.8,27.9L48.8,27.9z"/>
							<path id="XMLID_45025_" class="st21" d="M49.5,27.5l0.5,0.3c0.1,0,0.1,0.1,0,0.2l-0.5,0.3c-0.1,0-0.2,0-0.2,0L48.8,28
								c-0.1,0-0.1-0.1,0-0.2l0.5-0.3C49.4,27.5,49.5,27.5,49.5,27.5z"/>
						</g>
					</g>
				</g>
				<g id="XMLID_45013_">
					<g id="XMLID_45018_">
						<g id="XMLID_45019_">
							<path id="XMLID_45021_" class="st20" d="M49.6,28.4C49.6,28.4,49.7,28.3,49.6,28.4l0.5-0.4c0.1,0,0.2,0,0.2,0l0.5,0.3
								c0,0,0,0,0,0.1v0.1c0,0,0,0.1,0,0.1l-0.5,0.3c-0.1,0-0.2,0-0.2,0l-0.5-0.3C49.7,28.6,49.6,28.5,49.6,28.4L49.6,28.4z"/>
							<path id="XMLID_45020_" class="st21" d="M50.4,28l0.5,0.3c0.1,0,0.1,0.1,0,0.2l-0.5,0.3c-0.1,0-0.2,0-0.2,0l-0.5-0.3
								c-0.1,0-0.1-0.1,0-0.2l0.5-0.3C50.2,28,50.3,28,50.4,28z"/>
						</g>
					</g>
					<g id="XMLID_45014_">
						<g id="XMLID_45015_">
							<path id="XMLID_45017_" class="st20" d="M50.5,28.9C50.5,28.9,50.5,28.8,50.5,28.9l0.5-0.4c0.1,0,0.2,0,0.2,0l0.5,0.3
								c0,0,0,0,0,0.1V29c0,0,0,0.1,0,0.1l-0.5,0.3c-0.1,0-0.2,0-0.2,0l-0.5-0.3C50.5,29.1,50.5,29,50.5,28.9L50.5,28.9z"/>
							<path id="XMLID_45016_" class="st21" d="M51.3,28.5l0.5,0.3c0.1,0,0.1,0.1,0,0.2l-0.5,0.3c-0.1,0-0.2,0-0.2,0L50.5,29
								c-0.1,0-0.1-0.1,0-0.2l0.5-0.3C51.1,28.5,51.2,28.5,51.3,28.5z"/>
						</g>
					</g>
				</g>
				<g id="XMLID_45004_">
					<g id="XMLID_45009_">
						<g id="XMLID_45010_">
							<path id="XMLID_45012_" class="st20" d="M51.4,29.4C51.4,29.4,51.4,29.3,51.4,29.4l0.5-0.4c0.1,0,0.2,0,0.2,0l0.5,0.3
								c0,0,0,0,0,0.1l0,0.1c0,0,0,0.1,0,0.1l-0.5,0.3c-0.1,0-0.2,0-0.2,0l-0.5-0.3C51.4,29.6,51.4,29.5,51.4,29.4L51.4,29.4z"/>
							<path id="XMLID_45011_" class="st21" d="M52.1,29l0.5,0.3c0.1,0,0.1,0.1,0,0.2l-0.5,0.3c-0.1,0-0.2,0-0.2,0l-0.5-0.3
								c-0.1,0-0.1-0.1,0-0.2l0.5-0.3C52,29,52.1,29,52.1,29z"/>
						</g>
					</g>
					<g id="XMLID_45005_">
						<g id="XMLID_45006_">
							<path id="XMLID_45008_" class="st20" d="M52.2,29.9C52.2,29.9,52.2,29.8,52.2,29.9l0.5-0.4c0.1,0,0.2,0,0.2,0l0.5,0.3
								c0,0,0,0,0,0.1l0,0.1c0,0,0,0.1,0,0.1L53,30.4c-0.1,0-0.2,0-0.2,0l-0.5-0.3C52.2,30,52.2,30,52.2,29.9L52.2,29.9z"/>
							<path id="XMLID_45007_" class="st21" d="M53,29.5l0.5,0.3c0.1,0,0.1,0.1,0,0.2L53,30.3c-0.1,0-0.2,0-0.2,0L52.3,30
								c-0.1,0-0.1-0.1,0-0.2l0.5-0.3C52.8,29.5,52.9,29.5,53,29.5z"/>
						</g>
					</g>
				</g>
				<g id="XMLID_44995_">
					<g id="XMLID_45000_">
						<g id="XMLID_45001_">
							<path id="XMLID_45003_" class="st20" d="M53.1,30.4C53.1,30.4,53.1,30.3,53.1,30.4l0.5-0.4c0.1,0,0.2,0,0.2,0l0.5,0.3
								c0,0,0,0,0,0.1v0.1c0,0,0,0.1,0,0.1l-0.5,0.3c-0.1,0-0.2,0-0.2,0l-0.5-0.3C53.1,30.5,53.1,30.5,53.1,30.4L53.1,30.4z"/>
							<path id="XMLID_45002_" class="st21" d="M53.8,30l0.5,0.3c0.1,0,0.1,0.1,0,0.2l-0.5,0.3c-0.1,0-0.2,0-0.2,0l-0.5-0.3
								c-0.1,0-0.1-0.1,0-0.2l0.5-0.3C53.7,30,53.8,30,53.8,30z"/>
						</g>
					</g>
					<g id="XMLID_44996_">
						<g id="XMLID_44997_">
							<path id="XMLID_44999_" class="st20" d="M53.9,30.9C53.9,30.9,54,30.8,53.9,30.9l0.5-0.4c0.1,0,0.2,0,0.2,0l0.5,0.3
								c0,0,0,0,0,0.1V31c0,0,0,0.1,0,0.1l-0.5,0.3c-0.1,0-0.2,0-0.2,0L54,31.1C53.9,31,53.9,31,53.9,30.9L53.9,30.9z"/>
							<path id="XMLID_44998_" class="st21" d="M54.7,30.5l0.5,0.3c0.1,0,0.1,0.1,0,0.2l-0.5,0.3c-0.1,0-0.2,0-0.2,0L54,31
								c-0.1,0-0.1-0.1,0-0.2l0.5-0.3C54.5,30.5,54.6,30.5,54.7,30.5z"/>
						</g>
					</g>
				</g>
				<g id="XMLID_44990_">
					<g id="XMLID_44991_">
						<g id="XMLID_44992_">
							<path id="XMLID_44994_" class="st20" d="M54.8,31.4C54.8,31.4,54.8,31.3,54.8,31.4l0.5-0.4c0.1,0,0.2,0,0.2,0l0.5,0.3
								c0,0,0,0,0,0.1l0,0.1c0,0,0,0.1,0,0.1l-0.5,0.3c-0.1,0-0.2,0-0.2,0l-0.5-0.3C54.8,31.5,54.8,31.5,54.8,31.4L54.8,31.4z"/>
							<path id="XMLID_44993_" class="st21" d="M55.6,31l0.5,0.3c0.1,0,0.1,0.1,0,0.2l-0.5,0.3c-0.1,0-0.2,0-0.2,0l-0.5-0.3
								c-0.1,0-0.1-0.1,0-0.2l0.5-0.3C55.4,31,55.5,31,55.6,31z"/>
						</g>
					</g>
				</g>
			</g>
		</g>
		<g id="XMLID_44931_">
			<g id="XMLID_44947_">
				<g id="XMLID_44983_">
					<g id="XMLID_44984_">
						<g id="XMLID_44985_">
							<path id="XMLID_44987_" class="st20" d="M47.7,28.3C47.7,28.2,47.7,28.2,47.7,28.3l0.5-0.4c0.1,0,0.2,0,0.2,0l4.3,2.5
								c0,0,0,0,0,0.1l0,0.1c0,0,0,0.1,0,0.1l-0.5,0.3c-0.1,0-0.2,0-0.2,0l-4.3-2.5C47.7,28.4,47.7,28.4,47.7,28.3L47.7,28.3z"/>
							<path id="XMLID_44986_" class="st21" d="M48.5,27.9l4.3,2.5c0.1,0,0.1,0.1,0,0.2l-0.5,0.3c-0.1,0-0.2,0-0.2,0l-4.3-2.5
								c-0.1,0-0.1-0.1,0-0.2l0.5-0.3C48.3,27.9,48.4,27.9,48.5,27.9z"/>
						</g>
					</g>
				</g>
				<g id="XMLID_44978_">
					<g id="XMLID_44979_">
						<g id="XMLID_44980_">
							<path id="XMLID_44982_" class="st20" d="M55,32.5C55,32.5,55.1,32.5,55,32.5l0.5-0.4c0.1,0,0.2,0,0.2,0l0.4,0.2
								c0,0,0,0,0,0.1l0,0.1c0,0,0,0.1,0,0.1l-0.5,0.3c-0.1,0-0.2,0-0.2,0l-0.4-0.2C55,32.7,55,32.6,55,32.5L55,32.5z"/>
							<path id="XMLID_44981_" class="st21" d="M55.8,32.2l0.4,0.2c0.1,0,0.1,0.1,0,0.2l-0.5,0.3c-0.1,0-0.2,0-0.2,0l-0.4-0.2
								c-0.1,0-0.1-0.1,0-0.2l0.5-0.3C55.6,32.1,55.7,32.1,55.8,32.2z"/>
						</g>
					</g>
				</g>
				<g id="XMLID_44973_">
					<g id="XMLID_44974_">
						<g id="XMLID_44975_">
							<path id="XMLID_44977_" class="st20" d="M54.3,32.1C54.3,32,54.3,32,54.3,32.1l0.5-0.4c0.1,0,0.2,0,0.2,0l0.4,0.2
								c0,0,0,0,0,0.1v0.1c0,0,0,0.1,0,0.1l-0.5,0.3c-0.1,0-0.2,0-0.2,0l-0.4-0.2C54.3,32.2,54.3,32.2,54.3,32.1L54.3,32.1z"/>
							<path id="XMLID_44976_" class="st21" d="M55,31.7l0.4,0.2c0.1,0,0.1,0.1,0,0.2l-0.5,0.3c-0.1,0-0.2,0-0.2,0l-0.4-0.2
								c-0.1,0-0.1-0.1,0-0.2l0.5-0.3C54.9,31.7,55,31.7,55,31.7z"/>
						</g>
					</g>
				</g>
				<g id="XMLID_44968_">
					<g id="XMLID_44969_">
						<g id="XMLID_44970_">
							<path id="XMLID_44972_" class="st20" d="M53.5,31.6C53.5,31.6,53.5,31.5,53.5,31.6l0.5-0.4c0.1,0,0.2,0,0.2,0l0.4,0.2
								c0,0,0,0,0,0.1l0,0.1c0,0,0,0.1,0,0.1L54.2,32c-0.1,0-0.2,0-0.2,0l-0.4-0.2C53.5,31.8,53.5,31.7,53.5,31.6L53.5,31.6z"/>
							<path id="XMLID_44971_" class="st21" d="M54.2,31.2l0.4,0.2c0.1,0,0.1,0.1,0,0.2l-0.5,0.3c-0.1,0-0.2,0-0.2,0l-0.4-0.2
								c-0.1,0-0.1-0.1,0-0.2l0.5-0.3C54.1,31.2,54.2,31.2,54.2,31.2z"/>
						</g>
					</g>
				</g>
				<g id="XMLID_44963_">
					<g id="XMLID_44964_">
						<g id="XMLID_44965_">
							<path id="XMLID_44967_" class="st20" d="M52.4,31C52.4,30.9,52.4,30.9,52.4,31l0.5-0.4c0.1,0,0.2,0,0.2,0l0.7,0.4
								c0,0,0,0,0,0.1v0.1c0,0,0,0.1,0,0.1l-0.5,0.3c-0.1,0-0.2,0-0.2,0l-0.7-0.4C52.4,31.1,52.4,31.1,52.4,31L52.4,31z"/>
							<path id="XMLID_44966_" class="st21" d="M53.2,30.6l0.7,0.4c0.1,0,0.1,0.1,0,0.2l-0.5,0.3c-0.1,0-0.2,0-0.2,0l-0.7-0.4
								c-0.1,0-0.1-0.1,0-0.2l0.5-0.3C53,30.6,53.1,30.6,53.2,30.6z"/>
						</g>
					</g>
				</g>
				<g id="XMLID_44958_">
					<g id="XMLID_44959_">
						<g id="XMLID_44960_">
							<path id="XMLID_44962_" class="st20" d="M46.6,27.6C46.6,27.6,46.6,27.6,46.6,27.6l0.5-0.4c0.1,0,0.2,0,0.2,0l0.7,0.4
								c0,0,0,0,0,0.1l0,0.1c0,0,0,0.1,0,0.1l-0.5,0.3c-0.1,0-0.2,0-0.2,0l-0.7-0.4C46.6,27.8,46.6,27.8,46.6,27.6L46.6,27.6z"/>
							<path id="XMLID_44961_" class="st21" d="M47.4,27.3l0.7,0.4c0.1,0,0.1,0.1,0,0.2l-0.5,0.3c-0.1,0-0.2,0-0.2,0l-0.7-0.4
								c-0.1,0-0.1-0.1,0-0.2l0.5-0.3C47.2,27.2,47.3,27.2,47.4,27.3z"/>
						</g>
					</g>
				</g>
				<g id="XMLID_44953_">
					<g id="XMLID_44954_">
						<g id="XMLID_44955_">
							<path id="XMLID_44957_" class="st20" d="M45.8,27.2C45.8,27.2,45.8,27.1,45.8,27.2l0.5-0.4c0.1,0,0.2,0,0.2,0l0.4,0.2
								c0,0,0,0,0,0.1v0.1c0,0,0,0.1,0,0.1l-0.5,0.3c-0.1,0-0.2,0-0.2,0l-0.4-0.2C45.8,27.3,45.8,27.3,45.8,27.2L45.8,27.2z"/>
							<path id="XMLID_44956_" class="st21" d="M46.6,26.8l0.4,0.2c0.1,0,0.1,0.1,0,0.2l-0.5,0.3c-0.1,0-0.2,0-0.2,0l-0.4-0.2
								c-0.1,0-0.1-0.1,0-0.2l0.5-0.3C46.4,26.8,46.5,26.8,46.6,26.8z"/>
						</g>
					</g>
				</g>
				<g id="XMLID_44948_">
					<g id="XMLID_44949_">
						<g id="XMLID_44950_">
							<path id="XMLID_44952_" class="st20" d="M43.5,25.8C43.5,25.8,43.5,25.8,43.5,25.8l0.1-0.1c0.1,0,0.2,0,0.2,0l0.4,0.2
								c0,0,0,0,0,0.1l0,0.1c0,0,0,0.1,0,0.1l-0.1,0c-0.1,0-0.2,0-0.2,0L43.5,26C43.5,26,43.5,26,43.5,25.8L43.5,25.8z"/>
							<path id="XMLID_44951_" class="st21" d="M43.8,25.7l0.4,0.2c0.1,0,0.1,0.1,0,0.2l-0.1,0c-0.1,0-0.2,0-0.2,0l-0.4-0.2
								c-0.1,0-0.1-0.1,0-0.2l0.1,0C43.7,25.7,43.8,25.7,43.8,25.7z"/>
						</g>
					</g>
				</g>
			</g>
			<g id="XMLID_44942_">
				<g id="XMLID_44943_">
					<g id="XMLID_44944_">
						<path id="XMLID_44946_" class="st20" d="M45,26.7C45,26.7,45.1,26.7,45,26.7l0.1-0.1c0.1,0,0.2,0,0.2,0l0.4,0.2c0,0,0,0,0,0.1
							l0,0.1c0,0,0,0.1,0,0.1l-0.1,0.1c-0.1,0-0.2,0-0.2,0l-0.4-0.2C45.1,26.9,45,26.9,45,26.7L45,26.7z"/>
						<path id="XMLID_44945_" class="st21" d="M45.4,26.6l0.4,0.2c0.1,0,0.1,0.1,0,0.2l-0.1,0c-0.1,0-0.2,0-0.2,0l-0.4-0.2
							c-0.1,0-0.1-0.1,0-0.2l0.1,0C45.2,26.6,45.3,26.6,45.4,26.6z"/>
					</g>
				</g>
			</g>
			<g id="XMLID_44937_">
				<g id="XMLID_44938_">
					<g id="XMLID_44939_">
						<path id="XMLID_44941_" class="st20" d="M44.7,26C44.7,26,44.7,26,44.7,26l0.1-0.1c0.1,0,0.2,0,0.2,0l0.4,0.2c0,0,0,0,0,0.1
							v0.1c0,0,0,0.1,0,0.1l-0.1,0.1c-0.1,0-0.2,0-0.2,0l-0.4-0.2C44.7,26.2,44.7,26.2,44.7,26L44.7,26z"/>
						<path id="XMLID_44940_" class="st21" d="M45,25.9l0.4,0.2c0.1,0,0.1,0.1,0,0.2l-0.1,0c-0.1,0-0.2,0-0.2,0l-0.4-0.2
							c-0.1,0-0.1-0.1,0-0.2l0.1,0C44.9,25.9,45,25.9,45,25.9z"/>
					</g>
				</g>
			</g>
			<g id="XMLID_44932_">
				<g id="XMLID_44933_">
					<g id="XMLID_44934_">
						<path id="XMLID_44936_" class="st20" d="M44.3,26.3C44.3,26.2,44.3,26.2,44.3,26.3l0.1-0.1c0.1,0,0.2,0,0.2,0l0.4,0.2
							c0,0,0,0,0,0.1v0.1c0,0,0,0.1,0,0.1l-0.1,0c-0.1,0-0.2,0-0.2,0l-0.4-0.2C44.3,26.4,44.3,26.4,44.3,26.3L44.3,26.3z"/>
						<path id="XMLID_44935_" class="st21" d="M44.6,26.2l0.4,0.2c0.1,0,0.1,0.1,0,0.2l-0.1,0c-0.1,0-0.2,0-0.2,0l-0.4-0.2
							c-0.1,0-0.1-0.1,0-0.2l0.1-0.1C44.5,26.1,44.5,26.1,44.6,26.2z"/>
					</g>
				</g>
			</g>
		</g>
	</g>
</g>
<g id="XMLID_44923_">
	<g id="XMLID_44926_">
		<path id="XMLID_44928_" class="st22" d="M38.3,18.6l2.6-1.5c0.5-0.3,1.2-0.4,1.8-0.2l0,0c1.3,0.3,1.7,1.5,0.6,2.1l-2.6,1.5
			c-0.5,0.3-1.2,0.4-1.8,0.2l0,0C37.6,20.4,37.3,19.2,38.3,18.6z"/>
		<path id="XMLID_44927_" class="st23" d="M39.5,17.5c0.9-0.5,1.9-0.8,2.2-0.8c0.3,0,0.7,0,1,0l0,0c1,0.2,1.5,1,1.1,1.6
			c-0.1,0.2-1.1,0.6-1.9,1.1c-0.7,0.4-1.6,1.2-1.9,1.2c-0.3,0.1-0.7,0.1-1.1,0l0,0c-1.1-0.3-1.5-1.1-1.1-1.7
			C38,18.7,38.6,18,39.5,17.5z"/>
	</g>
	<g id="XMLID_44924_">
		<path id="XMLID_44925_" class="st22" d="M38.6,19.6c0.1,0,0.2-0.1,0.2-0.2c0,0,0-0.1-0.1-0.1c0.1,0,0.1-0.1,0.2-0.1l0,0
			c0.1,0,0.2,0.1,0.2,0.1l0,0c0.1,0.2-0.1,0.4-0.4,0.4l0,0C38.7,19.8,38.6,19.7,38.6,19.6C38.5,19.6,38.5,19.6,38.6,19.6
			C38.6,19.6,38.6,19.6,38.6,19.6L38.6,19.6z"/>
	</g>
</g>
<g id="XMLID_42912_">
	<g id="XMLID_42934_">
		<polygon id="XMLID_42940_" class="st24" points="74.7,36.3 74.7,34.8 62.3,41.9 62.3,43.5 		"/>
		<polyline id="XMLID_46130_" class="st25" points="74.7,36.3 74.7,34.8 62.3,41.9 		"/>
		<polygon id="XMLID_42939_" class="st26" points="74.7,34.8 70.6,32.4 58.2,39.5 62.3,41.9 		"/>
		<polygon id="XMLID_42938_" class="st27" points="71.1,36.2 68.1,34.4 59.3,39.6 62.3,41.3 		"/>
		<polygon class="st28" points="70.5,35.8 70.5,36.6 67.3,38.4 67.3,35.5 69.9,35.5 		"/>
		<g id="XMLID_42936_">
			<polygon id="XMLID_42937_" class="st29" points="71,36.3 71.1,36.2 68.1,34.4 59.3,39.6 59.4,39.6 68.1,34.6 			"/>
		</g>
		<polygon id="XMLID_42935_" class="st29" points="58.2,39.5 62.3,41.9 62.3,43.5 58.2,41.1 		"/>
		<polyline id="XMLID_46134_" class="st30" points="58.2,39.5 62.3,41.9 62.3,43.5 		"/>
	</g>
	<g id="XMLID_42928_">
		<polygon id="XMLID_42933_" class="st25" points="74.7,33.5 74.7,34.8 72,36.3 72,35.6 		"/>
		<polygon id="XMLID_42932_" class="st29" points="67.8,33.2 72,35.6 72,36.3 67.8,34 		"/>
		<polyline id="XMLID_46139_" class="st30" points="67.8,33.2 72,35.6 72,36.3 		"/>
		<polygon id="XMLID_42931_" class="st31" points="70.6,31.1 74.7,33.5 72,35.6 67.8,33.2 		"/>
		<polyline id="XMLID_46133_" class="st26" points="70.6,31.1 74.7,33.5 72,35.6 		"/>
		<polygon id="XMLID_42930_" class="st32" points="70.7,31.6 73.9,33.5 71.8,35 68.7,33.2 		"/>
		<polygon class="st33" points="73.8,33.5 71.8,35 68.8,33.3 70.7,31.8 		"/>
		<polygon id="XMLID_42929_" class="st34" points="73.9,33.5 71.8,35 68.7,33.2 		"/>
	</g>
	<g id="XMLID_42913_">
		<g id="XMLID_42926_">
			<polygon id="XMLID_42927_" class="st24" points="70.5,35 70.5,36.4 68.7,37.4 68.7,36 			"/>
		</g>
		<g id="XMLID_46132_" class="st35">
			<polyline id="XMLID_46136_" class="st24" points="68.7,37.4 68.7,36 70.5,35 			"/>
		</g>
		<polygon id="XMLID_42925_" class="st29" points="66,34.5 68.7,36.1 68.7,37.4 66,35.9 		"/>
		<g id="XMLID_42923_">
			<polygon id="XMLID_42924_" class="st24" points="64.6,38.8 64.1,40.1 62.3,41.1 62.3,40.5 			"/>
		</g>
		<g id="XMLID_46135_" class="st35">
			<polyline id="XMLID_46138_" class="st24" points="62.3,41.1 62.3,40.5 64.6,38.8 			"/>
		</g>
		<g id="XMLID_42921_">
			<path id="XMLID_42922_" class="st36" d="M70.5,34.4c0,0-0.9-0.9-1.6-1.2c-0.6-0.3-1.2-0.4-1.2-0.4s-1.6,0.8-3.7,2.2
				c-2.1,1.4-4.5,3.1-4.5,3.1s0.5,0,1.2,0.4c0.7,0.4,1.5,1.2,1.5,1.2s2.3-1.7,4.5-3.1C68.9,35.2,70.5,34.4,70.5,34.4z"/>
		</g>
		<g id="XMLID_46129_">
			<path id="XMLID_46131_" class="st31" d="M59.6,38.2c0,0,0.5,0,1.2,0.4c0.7,0.4,1.5,1.2,1.5,1.2s2.3-1.7,4.5-3.1
				c2.1-1.4,3.7-2.2,3.7-2.2s-0.9-0.9-1.6-1.2"/>
		</g>
		<g id="XMLID_42919_">
			<path id="XMLID_42920_" class="st37" d="M70.5,35L70.5,35L70.5,35L70.5,35L70.5,35v-0.6c0,0-1.6,0.8-3.7,2.2
				c-2.1,1.4-4.5,3.1-4.5,3.1v0.6c0,0,2.3-1.7,4.5-3.1C68.9,35.8,70.5,35,70.5,35z"/>
		</g>
		<g id="XMLID_42917_">
			<path id="XMLID_42918_" class="st38" d="M70.5,35.1L70.5,35.1L70.5,35.1L70.5,35.1L70.5,35.1V35c0,0-1.6,0.8-3.7,2.2
				c-2.1,1.4-4.5,3.1-4.5,3.1v0.1c0,0,2.3-1.7,4.5-3.1C68.9,35.9,70.5,35.1,70.5,35.1z"/>
		</g>
		<path id="XMLID_42916_" class="st39" d="M59.6,38.2c0,0,0.6,0,1.2,0.4c1.1,0.7,1.5,1.2,1.5,1.2v0.6l-2.7-1.6L59.6,38.2z"/>
		<polygon id="XMLID_42915_" class="st29" points="59.6,38.9 62.3,40.5 62.3,41.1 59.6,39.6 		"/>
		<polygon id="XMLID_42914_" class="st40" points="59.6,38.9 62.3,40.5 62.3,40.3 59.6,38.8 		"/>
	</g>
</g>
<g>
	<path class="st41" d="M47.8,36.3l-2.2,0.9c0,0-6.2-2.8-6.3-3.2c-0.1-0.5,1.7-1.9,1.7-1.9L47.8,36.3z"/>
	<path id="XMLID_3_" class="st42" d="M39.5,33c0.6-0.4,1-0.9,1.1-1.6l1-6.1l0.3-0.1l5.8,3.2l-1,6.4c-0.1,0.7-0.5,1.3-1.1,1.6
		c0,0-0.2,0.4,0.1,0.7c0.2,0.4-6.3-3.4-6.3-3.4L39.5,33"/>
	<g id="XMLID_45347_">
		<path id="XMLID_45348_" class="st43" d="M40.6,31.4l1-6.1l5.8,3.2l-1,6.1c-0.1,0.7-0.5,1.3-1.1,1.6L39.5,33
			C40.1,32.7,40.5,32.1,40.6,31.4z"/>
	</g>
	<path id="XMLID_45345_" class="st44" d="M31.6,6.1c0-0.4,0.2-0.8,0.5-1c0.1-0.1,0.4-0.3,0.5-0.3c0.3-0.2,0.7-0.2,1.1,0l21.9,12
		c0.6,0.4,1,1.1,1,1.8l-1.2,19.7c0,0.4-0.2,0.7-0.4,0.9c-0.1,0.1-0.5,0.3-0.5,0.4c-0.4,0.2-0.8,0.2-1.1,0l-21.9-12
		c-0.6-0.4-1-1.1-1-1.8L31.6,6.1z"/>
	<path id="XMLID_45344_" class="st20" d="M31.6,6.1l-1.2,19.7c0,0.8,0.3,1.5,1,1.8l21.9,12c0.8,0.4,1.8-0.2,1.8-1.1l1.2-19.7
		c0-0.8-0.3-1.5-1-1.8L33.4,5C32.7,4.5,31.6,5.2,31.6,6.1z"/>
	<path id="XMLID_46116_" class="st45" d="M53.2,39.6c0.8,0.4,1.8-0.2,1.8-1.1l1.2-19.7c0-0.8-0.3-1.5-1-1.8L33.4,5
		c-0.8-0.4-1.8,0.2-1.8,1.1"/>
</g>
</svg>
