<?xml version="1.0" encoding="utf-8"?>
<!-- Generator: Adobe Illustrator 21.0.0, SVG Export Plug-In . SVG Version: 6.00 Build 0)  -->
<svg version="1.1" id="Layer_1" xmlns="http://www.w3.org/2000/svg" xmlns:xlink="http://www.w3.org/1999/xlink" x="0px" y="0px"
	 viewBox="0 0 80 80" style="enable-background:new 0 0 80 80;" xml:space="preserve">
<style type="text/css">
	.st0{fill:#995827;}
	.st1{fill:#B2662F;}
	.st2{fill:#E8E7E7;}
	.st3{fill:#BDD3CF;}
	.st4{fill:#FFFFFF;}
	.st5{fill:#EFEFEF;}
	.st6{fill:#A3B6B3;}
	.st7{opacity:0.2;fill:#A3B6B3;enable-background:new    ;}
	.st8{fill:#AC692D;}
	.st9{fill:#E7E6E6;}
	.st10{fill:#73401C;}
	.st11{fill:#994B33;}
	.st12{fill:#A75535;}
</style>
<g id="XMLID_37960_">
	<g id="XMLID_38011_">
		<g id="XMLID_38012_">
			<path id="XMLID_38015_" class="st0" d="M3.2,40.4c0,0.2,0.2,0.4,0.6,0.5l0,0c0.2,0.1,0.6,0,0.8-0.1l0,0c0.2-0.1,0.3-0.2,0.3-0.4
				c0-0.1,0-1.8,0-2S4.7,38,4.3,37.9l0,0c-0.2-0.1-0.6,0-0.8,0.1l0,0c-0.2,0.1-0.3,0.2-0.3,0.4C3.2,38.6,3.2,40.3,3.2,40.4z"/>
			<path id="XMLID_38014_" class="st0" d="M4.6,39.9L4.6,39.9c1.1,0.3,1.4,1.3,0.5,1.8l0,0c-0.4,0.2-1,0.3-1.5,0.2l0,0
				c-1.1-0.3-1.4-1.3-0.5-1.8l0,0C3.5,39.9,4.1,39.8,4.6,39.9z"/>
			<path id="XMLID_38013_" class="st1" d="M4.5,41c-0.2,0.5-1.5,0.4-1.1,0.6l0,0c0.3,0.2,0.8,0.3,1.2,0.2l0,0c0.9-0.2,1.1-1,0.4-1.4
				C5,40.4,4.5,40.5,4.5,41z"/>
		</g>
	</g>
	<g id="XMLID_38002_">
		<g id="XMLID_38007_">
			<path id="XMLID_38010_" class="st0" d="M55.2,70.2c0,0.2,0.2,0.4,0.6,0.5l0,0c0.2,0.1,0.6,0,0.8-0.1l0,0c0.2-0.1,0.3-0.2,0.3-0.4
				c0-0.1,0-1.8,0-2s-0.2-0.4-0.6-0.5l0,0c-0.2-0.1-0.6,0-0.8,0.1l0,0c-0.2,0.1-0.3,0.2-0.3,0.4C55.2,68.4,55.2,70.1,55.2,70.2z"/>
			<path id="XMLID_38009_" class="st0" d="M56.6,69.7L56.6,69.7C57.7,70,58,71,57,71.5l0,0c-0.4,0.2-1,0.3-1.5,0.2l0,0
				c-1.1-0.3-1.4-1.3-0.5-1.8l0,0C55.5,69.7,56,69.6,56.6,69.7z"/>
			<path id="XMLID_38008_" class="st1" d="M56.4,70.8c-0.2,0.5-1.5,0.4-1.1,0.6l0,0c0.3,0.2,0.8,0.3,1.2,0.2l0,0
				c0.9-0.2,1.1-1,0.4-1.4C56.9,70.2,56.5,70.3,56.4,70.8z"/>
		</g>
		<g id="XMLID_38003_">
			<path id="XMLID_38006_" class="st0" d="M75.1,58.7c0,0.2,0.2,0.4,0.6,0.5l0,0c0.2,0.1,0.6,0,0.8-0.1l0,0c0.2-0.1,0.3-0.2,0.3-0.4
				c0-0.1,0-1.8,0-2s-0.2-0.4-0.6-0.5l0,0c-0.2-0.1-0.6,0-0.8,0.1l0,0c-0.2,0.1-0.3,0.2-0.3,0.4S75.1,58.6,75.1,58.7z"/>
			<path id="XMLID_38005_" class="st0" d="M76.5,58.2L76.5,58.2c1.1,0.3,1.4,1.3,0.5,1.8l0,0c-0.5,0.3-1,0.4-1.6,0.3l0,0
				C74.3,60,74,59,74.9,58.5l0,0C75.3,58.2,75.9,58.1,76.5,58.2z"/>
			<path id="XMLID_38004_" class="st1" d="M76.3,59.3c-0.2,0.5-1.5,0.4-1.1,0.6l0,0c0.3,0.2,0.8,0.3,1.2,0.2l0,0
				c0.9-0.2,1.1-1,0.4-1.4C76.8,58.7,76.4,58.9,76.3,59.3z"/>
		</g>
	</g>
	<g id="XMLID_37964_">
		<polygon id="XMLID_38001_" class="st2" points="56,69 77.5,56.6 24,25.7 2.5,38.1 		"/>
		<g id="XMLID_37997_">
			<path id="XMLID_38000_" class="st3" d="M8.3,39.6l21.5-12.4c0,0,0-12.8,0-13.3s-0.1-1-0.8-1.7l-0.4,1.2L8.3,25.2V39.6z"/>
			<path id="XMLID_37999_" class="st4" d="M24,9.5c-0.2,0-0.5,0.1-0.7,0.2l-20.8,12l5.8,3.4L29,13.2c0.2-0.2,0.3-0.6,0.2-0.8
				c0-0.1-1.1-1-2.3-1.8C25.6,9.9,24.2,9.6,24,9.5z"/>
			<path id="XMLID_41651_" class="st5" d="M8.3,25.1L29,13.2c0.2-0.2,0.3-0.6,0.2-0.8c0-0.1-1.1-1-2.3-1.8c-1.2-0.7-2.7-1-2.9-1
				s-0.5,0.1-0.7,0.2"/>
			<path id="XMLID_37998_" class="st6" d="M2.5,36.4V21.8c0-0.1,1.4,0.3,2.9,1.1c1.4,0.8,2.9,2.1,2.9,2.3v14.5L2.5,36.4z"/>
			<path id="XMLID_41649_" class="st7" d="M2.5,21.8c0-0.1,1.4,0.3,2.9,1.1c1.4,0.8,2.9,2.1,2.9,2.3v14.5"/>
		</g>
		<g id="XMLID_37994_">
			<g id="XMLID_37995_">
				<polygon id="XMLID_37996_" class="st8" points="77.5,54.8 56,67.3 56,69 77.5,56.6 				"/>
			</g>
		</g>
		<g id="XMLID_37982_">
			<g id="XMLID_37990_">
				<g id="XMLID_37992_">
					<path id="XMLID_37993_" class="st3" d="M26.3,9.3c-1.1,0.8-1.7,1.7-2,2.6c0,0.1-1.6,4.7,0.2,12.3c0.1,0.2-0.9-9.5,1.2-12.5
						c1-1.4,4.4-1.8,4.4-2.9C30.1,7.6,27.4,8.5,26.3,9.3z"/>
				</g>
				<path id="XMLID_37991_" class="st9" d="M16.2,27.3c-6.1,3.5-7.8,5.6-7.7,6.6c0,0,0.2,2.9-0.1,5.8L9,40l15.9-9.7v-4.6
					c0-0.6,0-1.1-0.4-1.5C24.1,23.8,20.6,24.7,16.2,27.3z"/>
			</g>
			<g id="XMLID_37983_">
				<g id="XMLID_37986_">
					<polygon id="XMLID_37989_" class="st2" points="44.9,23.9 50.7,20.7 50.8,37.3 42.6,40.1 					"/>
					<path id="XMLID_37988_" class="st6" d="M25.6,11.6c2,0.1,6.9,2.3,9.9,4c3.8,2.1,8.2,6.6,9.4,7.9c0.1,0.1,0.1,0.3,0.1,0.3
						c0.6,3.5,0.1,12.3,0.1,12.3l-10.5-6.6l-10.1-4.6c0,0-0.4-3.8-0.4-6.7s0.5-5.3,0.5-5.3C24.6,12.7,24.7,11.6,25.6,11.6z"/>
					<path id="XMLID_41653_" class="st7" d="M24.7,12.8c0-0.1,0.1-1.2,0.9-1.2c2,0.1,6.9,2.3,9.9,4c3.8,2.1,8.2,6.6,9.4,7.9
						c0.1,0.1,0.1,0.3,0.1,0.3c0.6,3.5,0.1,12.3,0.1,12.3"/>
					<path id="XMLID_37987_" class="st4" d="M25.3,12.2c0.5,0.1,5.5,1.8,9.6,4.1c6.1,3.5,8.4,5.7,10,7.5c0.3,0.4,5.8-1.5,5.8-3.1
						s-3.2-4.5-9.8-8c-5.8-3-10-4.6-11.4-4.3c-0.5,0.1-1.2,0.3-1.9,0.7c-2.1,1.3-3,3-3,3.7C24.6,12.8,24.8,12.2,25.3,12.2z"/>
					<path id="XMLID_41644_" class="st5" d="M29.5,8.3C29,8.4,28.3,8.6,27.6,9c-2.1,1.3-3,3-3,3.7c0,0,0.2-0.6,0.7-0.5
						s5.5,1.8,9.6,4.1c6.1,3.5,8.4,5.7,10,7.5c0.3,0.4,5.8-1.5,5.8-3.1"/>
				</g>
				<path id="XMLID_37985_" class="st6" d="M29,51.8c0,0,0.2-1.6,0.3-3.5c0.1-2,0-3.7,0-3.7c0-0.6-0.4-1.2-0.9-1.5l-8.6-6
					c-0.4-0.3-10.9-4.5-10.9-3.8c0,0-0.1,1.3-0.1,3.5s0.1,3.3,0.1,3.3L29,51.8z"/>
				<path id="XMLID_41646_" class="st7" d="M29,51.8c0,0,0.2-1.6,0.3-3.5c0.1-2,0-3.7,0-3.7c0-0.6-0.4-1.2-0.9-1.5l-8.6-6
					c-0.4-0.3-10.9-4.5-10.9-3.8"/>
				<path id="XMLID_37984_" class="st5" d="M22.4,25L9.6,32.6c-0.5,0.3-0.7,0.7-0.7,1.4c0,0,0.2-0.7,1.3-0.3
					c1.6,0.6,3.6,1.1,7.4,3.2c5,2.7,8.7,5.2,10.6,6.8c0.4,0.4,0.9,1.2,1,2.2c0,0,0.2,2.9-0.1,5.8l0.5,0.3l16-9.7v-4.6
					c0-1.1-0.6-2-1.4-2.8c-2.5-2.3-4.9-4-10-6.8c-2.8-1.5-7.6-3.5-7.6-3.5C24.7,23.9,23.7,24.2,22.4,25z"/>
			</g>
		</g>
		<polygon id="XMLID_37981_" class="st10" points="56,69 56,67.3 2.5,36.4 2.5,38.1 		"/>
		<g id="XMLID_37969_">
			<g id="XMLID_37977_">
				<g id="XMLID_37979_">
					<path id="XMLID_37980_" class="st3" d="M46.9,21.2c-1.1,0.8-1.7,1.7-2,2.6c0,0.1-1.6,4.7,0.2,12.3c0.1,0.2-0.9-9.5,1.2-12.5
						c1-1.4,4.4-1.8,4.4-2.9C50.7,19.5,48,20.4,46.9,21.2z"/>
				</g>
				<path id="XMLID_37978_" class="st3" d="M36.7,39.3c-6.1,3.5-7.8,5.6-7.7,6.6c0,0,0.2,2.9-0.1,5.8l0.6,0.3l16-9.8v-4.6
					c0-0.6,0-1.1-0.4-1.5C44.7,35.8,41.3,36.6,36.7,39.3z"/>
			</g>
			<g id="XMLID_37970_">
				<g id="XMLID_37973_">
					<polygon id="XMLID_37976_" class="st3" points="65.6,35.8 71.4,32.7 71.4,49.3 63.2,52 					"/>
					<polyline id="XMLID_41654_" class="st7" points="71.4,49.3 63.2,52 65.6,35.8 					"/>
					<path id="XMLID_37975_" class="st6" d="M46.2,23.5c2,0.1,6.9,2.3,9.9,4c3.8,2.1,8.2,6.6,9.4,7.9c0.1,0.1,0.1,0.3,0.1,0.3
						c0.6,3.5,0.1,12.3,0.1,12.3l-10.5-6.6l-10.1-4.6c0,0-0.4-3.8-0.4-6.7s0.5-5.3,0.5-5.3C45.2,24.6,45.3,23.5,46.2,23.5z"/>
					<path id="XMLID_41652_" class="st7" d="M44.9,30c0-2.9,0.5-5.3,0.5-5.3c0-0.1,0.1-1.2,0.9-1.2c2,0.1,6.9,2.3,9.9,4
						c3.8,2.1,8.2,6.6,9.4,7.9c0.1,0.1,0.1,0.3,0.1,0.3c0.6,3.5,0.1,12.3,0.1,12.3l-10.5-6.6"/>
					<path id="XMLID_37974_" class="st4" d="M45.9,24.1c0.5,0.1,5.5,1.8,9.6,4.1c6.1,3.5,8.4,5.7,10,7.5c0.3,0.4,5.8-1.5,5.8-3.1
						c0-1.6-3.2-4.5-9.8-8c-5.8-3-10-4.6-11.4-4.3c-0.5,0.1-1.2,0.3-1.9,0.7c-2.1,1.3-3,3-3,3.7C45.2,24.7,45.4,24.1,45.9,24.1z"/>
					<path id="XMLID_41643_" class="st5" d="M50.2,20.3c-0.5,0.1-1.2,0.3-1.9,0.7c-2.1,1.3-3,3-3,3.7c0,0,0.2-0.6,0.7-0.5
						s5.5,1.8,9.6,4.1c6.1,3.5,8.4,5.7,10,7.5c0.3,0.4,5.8-1.5,5.8-3.1"/>
				</g>
				<path id="XMLID_37972_" class="st6" d="M49.6,63.7c0,0,0.2-1.6,0.3-3.5c0.1-2,0-3.7,0-3.7c0-0.6-0.4-1.2-0.9-1.5l-8.6-6
					c-0.4-0.3-10.9-4.5-10.9-3.8c0,0-0.1,1.3-0.1,3.5s0.1,3.3,0.1,3.3L49.6,63.7z"/>
				<path id="XMLID_41639_" class="st7" d="M49.6,63.7c0,0,0.2-1.6,0.3-3.5c0.1-2,0-3.7,0-3.7c0-0.6-0.4-1.2-0.9-1.5l-8.6-6
					c-0.4-0.3-10.9-4.5-10.9-3.8"/>
				<path id="XMLID_37971_" class="st5" d="M43,36.9l-12.8,7.6c-0.5,0.3-0.7,0.7-0.7,1.4c0,0,0.2-0.7,1.3-0.3
					c1.6,0.6,3.6,1.1,7.4,3.2c5,2.7,8.7,5.2,10.6,6.8c0.4,0.4,0.9,1.2,1,2.2c0,0,0.2,2.9-0.1,5.8l0.5,0.3l16-9.7v-4.6
					c0-1.1-0.6-2-1.4-2.8c-2.5-2.3-4.9-4-10-6.8c-2.8-1.5-7.6-3.5-7.6-3.5C45.3,35.8,44.4,36.1,43,36.9z"/>
			</g>
		</g>
		<g id="XMLID_37965_">
			<path id="XMLID_37968_" class="st3" d="M56,67.3l21.5-12.5c0,0,0-12.8,0-13.3s-0.1-1-0.8-1.7L76.3,41L56,52.7V67.3z"/>
			<path id="XMLID_37967_" class="st5" d="M71.7,37.1c-0.2,0-0.5,0.1-0.7,0.2l-20.8,12l5.8,3.4l20.7-11.9c0.2-0.2,0.3-0.6,0.2-0.8
				c0-0.1-1.1-1-2.3-1.8C73.3,37.4,71.9,37.1,71.7,37.1z"/>
			<path id="XMLID_41650_" class="st4" d="M56,52.7l20.7-12c0.2-0.2,0.3-0.6,0.2-0.8c0-0.1-1.1-1-2.3-1.8c-1.2-0.7-2.7-1-2.9-1
				c-0.2,0-0.5,0.1-0.7,0.2"/>
			<path id="XMLID_37966_" class="st6" d="M50.2,63.9V49.3c0-0.1,1.4,0.3,2.9,1.1c1.4,0.8,2.9,2.1,2.9,2.3v14.6L50.2,63.9z"/>
			<path id="XMLID_41648_" class="st7" d="M50.2,49.3c0-0.1,1.4,0.3,2.9,1.1c1.4,0.8,2.9,2.1,2.9,2.3v14.6"/>
		</g>
	</g>
	<g id="XMLID_37961_">
		<path id="XMLID_37963_" class="st11" d="M18,22.4c0.6-2.8,1-7.2,1-7.2c0.1-0.4,0.5-0.4,0.6-0.3c0,0,1,1.5,0.9,3
			c-0.1,1.4-0.7,2.8-0.9,4c-0.7,3.8-2,6.8-2.4,6.4C17.1,28.1,17.6,25.1,18,22.4z"/>
		<path id="XMLID_37962_" class="st12" d="M29.7,24.5c0.2-2.5,0.5-3.9,0.8-4.6c0-0.1,0.2-0.9-0.1-1.2c-0.5-0.5-1.3-1-2.4-1.1
			c-0.5-0.1-2.3-0.2-3.3-0.5c-1.6-0.5-4-1.5-5-2.1c-0.2-0.2-0.4,0-0.4,0.2c0,0.6,0.3,1.2,0.2,2.6c0,0.9,0.1,3.1-0.1,4.2
			c-0.5,3-2.1,5-2.1,6.3c0,0.3,0.2,0.4,0.4,0.4c1-0.1,3.4,0.2,5.7,0.2c1.4-0.1,4.9,0.6,5.9,0.8c0.2,0,0.5-0.1,0.5-0.4
			C29.8,28.4,29.5,26.6,29.7,24.5z"/>
	</g>
</g>
</svg>
