<?xml version="1.0" encoding="utf-8"?>
<!-- Generator: Adobe Illustrator 21.0.0, SVG Export Plug-In . SVG Version: 6.00 Build 0)  -->
<svg version="1.1" id="Layer_1" xmlns="http://www.w3.org/2000/svg" xmlns:xlink="http://www.w3.org/1999/xlink" x="0px" y="0px"
	 viewBox="0 0 80 80" style="enable-background:new 0 0 80 80;" xml:space="preserve">
<style type="text/css">
	.st0{fill:#6D401D;}
	.st1{fill:#A46637;}
	.st2{fill:#9F5F2C;}
	.st3{fill:#8C522A;}
	.st4{fill:#60361A;}
	.st5{fill:#93542A;}
	.st6{fill:#894B28;}
	.st7{fill:#B57243;}
</style>
<g id="XMLID_52661_">
	<g id="XMLID_4958_">
		<polygon id="XMLID_52670_" class="st0" points="42.6,37.5 42,52.6 41.1,53.1 41.1,38.4 		"/>
		<polygon id="XMLID_52662_" class="st1" points="39.7,38.1 41.1,38.4 41.1,53.1 40.3,52.6 		"/>
		<g id="XMLID_4985_">
			<polygon id="XMLID_52659_" class="st1" points="41.9,41.5 41.9,42.6 49.5,47 49.5,45.9 			"/>
			<polygon id="XMLID_4992_" class="st2" points="42.7,41 41.9,41.5 49.5,45.9 50.3,45.4 			"/>
			<polygon id="XMLID_4991_" class="st0" points="51.3,43.4 50.7,57.6 49.9,58.1 49.9,43.4 			"/>
			<polygon id="XMLID_4990_" class="st3" points="48.4,42.6 49.9,43.4 49.9,58.1 49,57.6 			"/>
			<polygon id="XMLID_4989_" class="st0" points="40.5,41.5 40.5,42.6 31.9,47.6 31.9,46.5 			"/>
			<polygon id="XMLID_4988_" class="st2" points="39.7,41 40.5,41.5 31.9,46.5 31,46.1 			"/>
			<polygon id="XMLID_4987_" class="st0" points="49.5,46.2 49.5,47.3 40.7,52.4 40.7,51.3 			"/>
			<polygon id="XMLID_4986_" class="st3" points="48.7,45.7 49.5,46.2 40.7,51.3 39.9,50.9 			"/>
		</g>
		<g id="XMLID_4977_">
			<g id="XMLID_4980_">
				<polygon id="XMLID_4984_" class="st0" points="32.2,42.7 31.6,57.8 30.7,58.3 30.7,43.6 				"/>
				<polygon id="XMLID_4983_" class="st3" points="31,47 31,48.1 38.6,52.5 38.6,51.4 				"/>
				<polygon id="XMLID_4982_" class="st0" points="31.9,46.5 31,47 38.6,51.4 39.5,51 				"/>
				<polygon id="XMLID_4981_" class="st3" points="29.3,43.3 30.7,43.6 30.7,58.3 29.8,57.8 				"/>
			</g>
			<polygon id="XMLID_4979_" class="st0" points="40.9,47.8 40.3,62.8 39.4,63.3 39.4,48.7 			"/>
			<polygon id="XMLID_4978_" class="st3" points="38,47.8 39.4,48.7 39.4,63.3 38.6,62.8 			"/>
		</g>
		<g id="XMLID_4976_">
			<path id="XMLID_52669_" class="st4" d="M50.3,40.1l-8.7-5c-0.7-0.4-1.5-0.4-2.1,0l-9.6,5.6c-0.4,0.2-0.6,0.6-0.6,1
				c0,0,0,1.6,0,1.6c0,0.4,0.2,0.8,0.6,1l7,4c2.4,1.4,5.4,1.4,7.9,0l5.6-3.2c0.7-0.4,1-1,1-1.7c0-0.3,0-1.6,0-1.6
				C51.3,41.1,51,40.5,50.3,40.1z"/>
			<path id="XMLID_52668_" class="st0" d="M50.3,40.1l-8.7-5c-0.7-0.4-1.5-0.4-2.1,0l-9.6,5.6c-0.4,0.2-0.6,0.6-0.6,1
				c0,0,0,0.8,0,0.8c0,0.4,0.2,0.8,0.6,1l7,4c2.4,1.4,5.4,1.4,7.9,0l5.6-3.2c0.7-0.4,1-1.1,1-1.7c0-0.1,0-0.7,0-0.8
				C51.3,41.1,51,40.5,50.3,40.1z"/>
			<path id="XMLID_52665_" class="st2" d="M41.6,35.1l8.7,5c1.3,0.8,1.3,2.7,0,3.4l-5.6,3.2c-2.4,1.4-5.4,1.4-7.9,0l-7-4
				c-0.8-0.5-0.8-1.6,0-2.1l9.6-5.6C40.1,34.7,41,34.7,41.6,35.1z"/>
			<path id="XMLID_34333_" class="st5" d="M50.3,40.1c1.3,0.8,1.3,2.7,0,3.4l-5.6,3.2c-2.4,1.4-5.4,1.4-7.9,0l-7-4
				c-0.8-0.5-0.8-1.6,0-2.1"/>
			<path id="XMLID_34334_" class="st6" d="M50.3,40.1c1.3,0.8,1.3,2.7,0,3.4l-5.6,3.2c-2.4,1.4-5.4,1.4-7.9,0"/>
		</g>
		<g id="XMLID_4959_">
			<g id="XMLID_4973_">
				<polygon id="XMLID_4975_" class="st0" points="51.1,41.4 51.4,22.4 50.5,22.9 49.7,42.3 				"/>
				<polygon id="XMLID_4974_" class="st7" points="48.2,41.4 49.7,42.3 50.5,22.9 49.7,22.4 				"/>
				<polyline id="XMLID_34340_" class="st1" points="48.2,41.4 49.7,42.3 50.5,22.9 				"/>
			</g>
			<polygon id="XMLID_4972_" class="st2" points="49.8,23.6 50.3,23.9 39.9,29.8 39.9,29.4 			"/>
			<polygon id="XMLID_4971_" class="st0" points="50.3,23.9 50.1,26.3 40,32.2 39.9,29.8 			"/>
			<polygon id="XMLID_4970_" class="st2" points="49.5,28.9 49.9,29.2 39.7,35 39.7,34.5 			"/>
			<polygon id="XMLID_4969_" class="st0" points="49.9,29.2 49.9,30.5 39.8,36.3 39.7,35 			"/>
			<polygon id="XMLID_4968_" class="st2" points="49.3,31.9 49.8,32.1 39.6,38 39.5,37.5 			"/>
			<polygon id="XMLID_4967_" class="st0" points="49.8,32.1 49.7,33.5 39.6,39.2 39.6,38 			"/>
			<polygon id="XMLID_4966_" class="st2" points="49.2,34.8 49.6,35 39.4,40.9 39.4,40.4 			"/>
			<polygon id="XMLID_4965_" class="st0" points="49.6,35 49.6,36.4 39.5,42.2 39.4,40.9 			"/>
			<g id="XMLID_4961_">
				<polygon id="XMLID_4964_" class="st0" points="41.6,46.9 40.1,28.9 39.3,29.4 40.1,47.7 				"/>
				<polygon id="XMLID_4963_" class="st2" points="39.3,28.3 40.1,28.9 39.3,29.4 38.4,28.9 				"/>
				<polygon id="XMLID_4962_" class="st7" points="38.7,46.9 40.1,47.7 39.3,29.4 38.4,28.9 				"/>
				<polyline id="XMLID_34338_" class="st1" points="38.7,46.9 40.1,47.7 39.3,29.4 				"/>
			</g>
			<polygon id="XMLID_4960_" class="st2" points="50.6,21.9 51.4,22.4 50.5,22.9 49.7,22.4 			"/>
		</g>
	</g>
</g>
</svg>
