<?xml version="1.0" encoding="utf-8"?>
<!-- Generator: Adobe Illustrator 21.0.0, SVG Export Plug-In . SVG Version: 6.00 Build 0)  -->
<svg version="1.1" id="Layer_1" xmlns="http://www.w3.org/2000/svg" xmlns:xlink="http://www.w3.org/1999/xlink" x="0px" y="0px"
	 viewBox="0 0 80 80" style="enable-background:new 0 0 80 80;" xml:space="preserve">
<style type="text/css">
	.st0{fill:#525354;}
	.st1{fill:#59595C;}
	.st2{fill:#383939;}
	.st3{fill:#323233;}
	.st4{opacity:0.3;fill:#323233;}
	.st5{fill:#2B2A2B;}
	.st6{fill:#202021;}
	.st7{fill:#565759;}
	.st8{fill:#3D3D3F;}
	.st9{fill:#4E4D50;}
	.st10{fill:#5D5E61;}
	.st11{fill:#9D9FA2;}
	.st12{fill:#B1B4B6;}
	.st13{fill:#424243;}
	.st14{fill:#38383A;}
	.st15{fill:#3F3F40;}
</style>
<g id="XMLID_45596_">
	<g id="XMLID_45634_">
		<g id="XMLID_45635_">
			<polygon id="XMLID_45639_" class="st0" points="41.5,60.3 41.5,60.8 31.7,55.1 31.7,54.7 			"/>
			<polygon id="XMLID_45638_" class="st1" points="46.3,57.5 41.5,60.3 41.5,60.8 46.3,57.9 			"/>
			<polygon id="XMLID_45637_" class="st2" points="36.6,51.9 46.3,57.5 41.5,60.3 31.7,54.7 			"/>
			<polyline id="XMLID_46211_" class="st3" points="41.5,60.3 31.7,54.7 36.6,51.9 			"/>
			<polygon class="st4" points="41.5,60.3 41.8,60.1 41.8,54.9 39.9,53.8 36.9,53.8 36.9,57.7 			"/>
		</g>
	</g>
	<g id="XMLID_45630_">
		<polygon id="XMLID_45633_" class="st5" points="36.9,51.8 36.9,54.7 41.4,57.3 41.4,54.4 		"/>
		<polygon id="XMLID_46208_" class="st6" points="36.9,50.2 36.9,53.1 41.4,55.7 41.4,52.7 		"/>
		<polygon id="XMLID_45632_" class="st3" points="41.8,54.1 41.4,54.4 41.4,57.3 41.8,57 		"/>
		<polygon id="XMLID_45631_" class="st7" points="37.4,51.5 36.9,51.8 41.4,54.4 41.8,54.1 		"/>
	</g>
	<g id="XMLID_45597_">
		<polygon id="XMLID_45629_" class="st3" points="21.5,16.5 21.5,42.1 57.7,63 57.7,37.4 		"/>
		<polyline id="XMLID_46209_" class="st5" points="57.7,63 57.7,37.4 21.5,16.5 		"/>
		<polygon id="XMLID_45628_" class="st8" points="58.5,37 57.7,37.4 57.7,63 58.5,62.5 		"/>
		<polygon id="XMLID_45627_" class="st9" points="21.5,42.5 21.5,43 57.7,64 57.7,63.5 		"/>
		<polygon id="XMLID_45626_" class="st10" points="58.5,63 57.7,63.5 57.7,64 58.5,63.5 		"/>
		<polygon id="XMLID_45625_" class="st11" points="21.5,42.1 21.5,42.5 57.7,63.5 57.7,63 		"/>
		<polygon id="XMLID_45624_" class="st12" points="58.5,62.5 57.7,63 57.7,63.5 58.5,63 		"/>
		<polygon id="XMLID_45623_" class="st7" points="22.3,16 21.5,16.5 57.7,37.4 58.5,37 		"/>
		<g id="XMLID_45598_">
			<polygon id="XMLID_45622_" class="st13" points="32.1,31.1 32.1,40.3 45.1,47.8 45.1,38.6 			"/>
			<polyline id="XMLID_46210_" class="st14" points="45.1,47.8 45.1,38.6 32.1,31.1 			"/>
			<g id="XMLID_45611_">
				<polygon id="XMLID_45621_" class="st9" points="43.4,38.4 43.4,44 43.9,44.3 43.9,38.7 				"/>
				<polygon id="XMLID_45620_" class="st9" points="42.2,37.7 42.2,43.3 42.8,43.7 42.8,38 				"/>
				<polygon id="XMLID_45619_" class="st9" points="41,37 41,42.6 41.6,43 41.6,37.3 				"/>
				<polygon id="XMLID_45618_" class="st9" points="39.9,36.3 39.9,41.9 40.4,42.3 40.4,36.7 				"/>
				<polygon id="XMLID_45617_" class="st9" points="38.7,35.6 38.7,41.2 39.3,41.6 39.3,36 				"/>
				<polygon id="XMLID_45616_" class="st9" points="37.5,34.9 37.5,40.5 38.1,40.9 38.1,35.3 				"/>
				<polygon id="XMLID_45615_" class="st9" points="36.3,34.2 36.3,39.8 36.9,40.2 36.9,34.6 				"/>
				<polygon id="XMLID_45614_" class="st9" points="35.2,33.5 35.2,39.1 35.8,39.5 35.8,33.9 				"/>
				<polygon id="XMLID_45613_" class="st9" points="34,32.8 34,38.4 34.6,38.8 34.6,33.2 				"/>
				<polygon id="XMLID_45612_" class="st9" points="32.8,32.1 32.8,37.7 33.4,38.1 33.4,32.5 				"/>
			</g>
			<polygon id="XMLID_45610_" class="st9" points="46,38.1 45.1,38.6 45.1,47.8 46,47.2 			"/>
			<g id="XMLID_45600_">
				<g id="XMLID_45606_">
					<path id="XMLID_45609_" class="st15" d="M45.8,39.1c0.1,0.2,0,0.4-0.1,0.6c-0.1,0.1-0.3,0.1-0.3-0.1c-0.1-0.2,0-0.4,0.1-0.6
						C45.5,38.9,45.7,39,45.8,39.1z"/>
					<path id="XMLID_45608_" class="st15" d="M45.8,40.7c0.1,0.2,0,0.4-0.1,0.6c-0.1,0.1-0.3,0.1-0.3-0.1c-0.1-0.2,0-0.4,0.1-0.6
						C45.5,40.5,45.7,40.5,45.8,40.7z"/>
					<path id="XMLID_45607_" class="st15" d="M45.8,42.2c0.1,0.2,0,0.4-0.1,0.6c-0.1,0.1-0.3,0.1-0.3-0.1c-0.1-0.2,0-0.4,0.1-0.6
						C45.5,42,45.7,42,45.8,42.2z"/>
				</g>
				<g id="XMLID_45601_">
					<path id="XMLID_45605_" class="st15" d="M45.7,43.9c0,0.1,0,0.2,0,0.3c-0.1,0.1-0.1,0.1-0.2,0c0-0.1,0-0.2,0-0.3
						C45.6,43.8,45.6,43.8,45.7,43.9z"/>
					<path id="XMLID_45604_" class="st15" d="M45.7,44.7c0,0.1,0,0.2,0,0.3c-0.1,0.1-0.1,0.1-0.2,0c0-0.1,0-0.2,0-0.3
						C45.6,44.6,45.6,44.6,45.7,44.7z"/>
					<path id="XMLID_45603_" class="st15" d="M45.7,45.5c0,0.1,0,0.2,0,0.3c-0.1,0.1-0.1,0.1-0.2,0c0-0.1,0-0.2,0-0.3
						C45.6,45.4,45.6,45.4,45.7,45.5z"/>
					<path id="XMLID_45602_" class="st15" d="M45.7,46.3c0,0.1,0,0.2,0,0.3c-0.1,0.1-0.1,0.1-0.2,0c0-0.1,0-0.2,0-0.3
						C45.6,46.2,45.6,46.3,45.7,46.3z"/>
				</g>
			</g>
			<polygon id="XMLID_45599_" class="st7" points="33,30.6 32.1,31.1 45.1,38.6 46,38.1 			"/>
		</g>
	</g>
</g>
</svg>
