<?xml version="1.0" encoding="utf-8"?>
<!-- Generator: Adobe Illustrator 21.0.0, SVG Export Plug-In . SVG Version: 6.00 Build 0)  -->
<svg version="1.1" id="Layer_1" xmlns="http://www.w3.org/2000/svg" xmlns:xlink="http://www.w3.org/1999/xlink" x="0px" y="0px"
	 viewBox="0 0 80 80" style="enable-background:new 0 0 80 80;" xml:space="preserve">
<style type="text/css">
	.st0{fill:#301F12;}
	.st1{fill:#563E2E;}
	.st2{fill:#008895;}
	.st3{fill:#01B4B3;}
	.st4{opacity:0.2;}
	.st5{fill:#056378;}
	.st6{opacity:0.2;fill:#056378;}
	.st7{fill:#CAE9F0;}
	.st8{fill:#96B9BE;}
	.st9{fill:#49C1C2;}
	.st10{fill:#12A1A4;}
</style>
<g id="XMLID_38603_">
	<g id="XMLID_38636_">
		<polygon id="XMLID_38638_" class="st0" points="14.9,46.4 11.6,44.4 11.6,42.6 14.9,44.5 		"/>
		<polygon id="XMLID_38637_" class="st1" points="14.9,44.5 18.3,42.6 18.3,44.4 14.9,46.4 		"/>
	</g>
	<g id="XMLID_38633_">
		<polygon id="XMLID_38635_" class="st0" points="65.1,55.1 61.7,53.2 61.7,51.3 65.1,53.3 		"/>
		<polygon id="XMLID_38634_" class="st1" points="65.1,53.3 68.4,51.3 68.4,53.2 65.1,55.1 		"/>
	</g>
	<g id="XMLID_38630_">
		<polygon id="XMLID_38632_" class="st0" points="47.6,65.2 44.2,63.3 44.2,61.4 47.6,63.4 		"/>
		<polygon id="XMLID_38631_" class="st1" points="47.6,63.4 50.9,61.4 50.9,63.3 47.6,65.2 		"/>
	</g>
	<g id="XMLID_38604_">
		<g id="XMLID_38611_">
			<polygon id="XMLID_38629_" class="st2" points="38.8,18.5 38.8,26.9 18,39 18,30.5 			"/>
			<g id="XMLID_38627_">
				<polygon id="XMLID_38628_" class="st3" points="22.9,32.7 39.3,23.2 61.9,36.2 45.5,45.7 				"/>
			</g>
			<g id="XMLID_42102_" class="st4">
				<polyline id="XMLID_42107_" class="st5" points="61.9,36.2 45.5,45.7 22.9,32.7 				"/>
			</g>
			<polygon class="st6" points="39,42 22.9,32.7 39,23.3 			"/>
			<g id="XMLID_38624_">
				<path id="XMLID_38626_" class="st7" d="M52.7,46.8c-0.5,0.4-1.9-2.9-2.6-7c-0.2-1.3-0.9-2.9-1-4.4c-0.1-1.6,1-3.3,1-3.3
					c0.1-0.1,0.5-0.1,0.6,0.3c0,0,0.5,4.8,1.1,7.9C52.3,43.4,52.8,46.7,52.7,46.8z"/>
				<path id="XMLID_38625_" class="st8" d="M38.9,47.9c0,0.3,0.3,0.5,0.6,0.4c1.1-0.2,4.9-1,6.5-0.9c2.5,0,5.2-0.3,6.3-0.2
					c0.3,0,0.5-0.2,0.5-0.4c0-1.4-1.8-3.6-2.3-6.9c-0.2-1.2-0.1-3.6-0.1-4.6c-0.1-1.5,0.2-2.2,0.3-2.9c0-0.2-0.2-0.4-0.4-0.3
					c-1.1,0.7-3.7,1.8-5.5,2.3c-1.1,0.3-3.1,0.5-3.6,0.5c-1.2,0.1-2.1,0.6-2.6,1.2c-0.3,0.3-0.1,1.2-0.1,1.4c0.3,0.8,0.7,2.4,0.9,5
					C39.2,45,38.8,47,38.9,47.9z"/>
			</g>
			<polygon id="XMLID_38623_" class="st9" points="32.4,14.8 38.8,18.5 18,30.5 11.6,26.8 			"/>
			<polyline id="XMLID_42104_" class="st3" points="38.8,18.5 18,30.5 11.6,26.8 			"/>
			<polygon id="XMLID_38622_" class="st5" points="11.6,40.7 11.6,26.8 18,30.5 18,44.4 			"/>
			<g id="XMLID_38618_">
				<polygon id="XMLID_38621_" class="st9" points="18,24.2 21.6,22.1 44.8,35.5 41.2,37.6 				"/>
				<polyline id="XMLID_42105_" class="st3" points="44.8,35.5 41.2,37.6 18,24.2 				"/>
				<polygon id="XMLID_38620_" class="st2" points="41.2,48.6 46.2,45.8 44.8,35.5 41.2,37.6 				"/>
				<polygon id="XMLID_38619_" class="st5" points="18,24.2 41.2,37.6 41.2,48.6 18,35.2 				"/>
				<polyline id="XMLID_42101_" class="st6" points="18,24.2 41.2,37.6 41.2,48.6 				"/>
			</g>
			<g id="XMLID_38616_">
				<polygon id="XMLID_38617_" class="st5" points="18,35.2 41.2,48.6 41.2,57.8 18,44.4 				"/>
			</g>
			<g id="XMLID_38614_">
				<polygon id="XMLID_38615_" class="st0" points="11.6,40.7 47.6,61.5 47.6,63.4 11.6,42.6 				"/>
			</g>
			<g id="XMLID_38612_">
				<polygon id="XMLID_38613_" class="st1" points="68.4,49.5 47.6,61.5 47.6,63.4 68.4,51.3 				"/>
			</g>
		</g>
		<g id="XMLID_38608_">
			<g id="XMLID_38609_">
				<polygon id="XMLID_38610_" class="st10" points="45.5,49.9 59.9,41.6 59.9,37.4 45.5,45.7 				"/>
			</g>
		</g>
		<polygon id="XMLID_38607_" class="st2" points="47.6,47.6 68.4,35.6 68.4,49.5 47.6,61.5 		"/>
		<polygon id="XMLID_38606_" class="st9" points="62,31.9 68.4,35.6 47.6,47.6 41.2,43.9 		"/>
		<polyline id="XMLID_42103_" class="st3" points="68.4,35.6 47.6,47.6 41.2,43.9 		"/>
		<polygon id="XMLID_38605_" class="st5" points="41.2,57.8 41.2,43.9 47.6,47.6 47.6,61.5 		"/>
		<polygon id="XMLID_42096_" class="st6" points="41.2,57.8 41.2,43.9 47.6,47.6 47.6,61.5 		"/>
	</g>
</g>
</svg>
