<?xml version="1.0" encoding="utf-8"?>
<!-- Generator: Adobe Illustrator 20.1.0, SVG Export Plug-In . SVG Version: 6.00 Build 0)  -->
<svg version="1.1" id="Layer_1" xmlns="http://www.w3.org/2000/svg" xmlns:xlink="http://www.w3.org/1999/xlink" x="0px" y="0px"
	 viewBox="0 0 100 100" style="enable-background:new 0 0 100 100;" xml:space="preserve">
<style type="text/css">
	.st0{fill:#FFFFFF;}
	.st1{fill:#E8E7E7;}
	.st2{opacity:0.2;fill:#D1D2D8;}
	.st3{fill:#D1D2D8;}
	.st4{fill:#C5C6C7;}
	.st5{fill:#AEAEAE;}
	.st6{fill:#B0B3B5;}
	.st7{fill:#DDDFDE;}
	.st8{fill:#DBDBD9;}
	.st9{fill:#E4E4E3;}
	.st10{fill:#EFEFEF;}
	.st11{fill:#ECECEE;}
	.st12{fill:#F7F8F9;}
	.st13{fill:#41B349;}
	.st14{fill:#80C576;}
	.st15{fill:#C23728;}
	.st16{fill:#CD483C;}
	.st17{fill:#C06B2A;}
	.st18{fill:#CE7C43;}
	.st19{fill:#7C8187;}
	.st20{opacity:0.3;fill:#7C8187;}
	.st21{fill:#C2C2C2;}
	.st22{fill:#777576;}
	.st23{fill:#A4A3A3;}
	.st24{fill:#636467;}
	.st25{fill:#595A5B;}
	.st26{fill:#9A735A;}
	.st27{fill:#59595C;}
	.st28{fill:#C29C77;}
	.st29{opacity:0.2;fill:#C29C77;}
	.st30{fill:#474948;}
	.st31{opacity:0.3;fill:#515352;}
	.st32{fill:#575858;}
	.st33{opacity:0.2;fill:#515352;}
	.st34{fill:#515352;}
	.st35{fill:#3A3B3A;}
	.st36{fill:#72B1CB;}
	.st37{fill:#5F8FA9;}
	.st38{fill:#5988A6;}
	.st39{fill:#3C6984;}
	.st40{fill:#DFDFDF;}
	.st41{fill:#D7D7D6;}
	.st42{opacity:0.8;fill:#DFDFDF;}
	.st43{fill:#EEBE69;}
	.st44{fill:#FFCD80;}
	.st45{fill:#D0D1D1;}
	.st46{fill:#DCDCDB;}
	.st47{fill:#C6C4C3;}
	.st48{fill:#74BF45;}
	.st49{fill:#50A647;}
	.st50{fill:#429A45;}
	.st51{fill:#2D2D2D;}
	.st52{fill:#525354;}
	.st53{fill:#6D6F6E;}
	.st54{fill:#AEADAD;}
	.st55{fill:#D2D2D2;}
	.st56{opacity:0.5;fill:#BBBBBB;}
	.st57{fill:#BBBBBB;}
	.st58{opacity:0.2;fill:#444445;}
	.st59{fill:#A19F9F;}
	.st60{fill:#ECEAEA;}
	.st61{fill:#E4E4E4;}
	.st62{fill:#444445;}
	.st63{fill:#404141;}
	.st64{opacity:0.4;fill:#444445;}
	.st65{opacity:0.3;fill:#444445;}
	.st66{fill:#AEABA8;}
	.st67{fill:#888582;}
	.st68{opacity:0.2;fill:#888582;}
	.st69{fill:#5C5653;}
	.st70{fill:#E7E6E7;}
	.st71{fill:#434443;}
	.st72{fill:#1C1E1E;}
	.st73{fill:#252828;}
	.st74{fill:#3A3A3A;}
	.st75{fill:#353535;}
	.st76{fill:#9C9EA0;}
	.st77{fill:#4F504F;}
	.st78{fill:#393A39;}
	.st79{fill:#2A2B2A;}
</style>
<g>
	<g id="XMLID_23_">
		<g id="XMLID_127_">
			<polygon id="XMLID_129_" class="st0" points="39.2,1.8 38,2.5 96.6,36.1 97.7,35.4 			"/>
			<polygon id="XMLID_128_" class="st1" points="38,2.5 38,44.9 96.6,78.5 96.6,36.1 			"/>
			<polyline id="XMLID_16544_" class="st2" points="38,2.5 38,44.9 96.6,78.5 			"/>
		</g>
		<g id="XMLID_122_">
			<g id="XMLID_124_">
				<polygon id="XMLID_126_" class="st1" points="2.3,23.1 2.3,65.5 3.4,66.2 3.4,23.8 				"/>
				<polygon id="XMLID_125_" class="st0" points="38,2.5 39.2,3.2 3.4,23.8 2.3,23.1 				"/>
			</g>
			<polygon id="XMLID_123_" class="st3" points="39.2,3.2 39.2,45.6 3.4,66.2 3.4,23.8 			"/>
			<polyline id="XMLID_16543_" class="st2" points="39.2,3.2 39.2,45.6 3.4,66.2 			"/>
		</g>
		<g id="XMLID_82_">
			<polygon id="XMLID_121_" class="st4" points="82.2,50.8 82.2,73.8 62,85.5 62,62.5 			"/>
			<polygon id="XMLID_120_" class="st5" points="84.4,70.6 95.2,76.8 72.1,90.2 61.3,83.9 			"/>
			<polygon id="XMLID_119_" class="st6" points="61.3,62.1 61.3,85.1 62,85.5 62,62.5 			"/>
			<polygon id="XMLID_118_" class="st4" points="82.2,49.6 82.2,72.7 62,84.3 62,61.3 			"/>
			<g id="XMLID_83_">
				<g id="XMLID_102_">
					<polygon id="XMLID_117_" class="st7" points="63.4,65.6 63.4,84.1 70.6,88.2 70.6,69.8 					"/>
					<polygon id="XMLID_116_" class="st1" points="63.4,65.6 63.4,68.6 70.6,72.7 70.6,69.8 					"/>
					<polygon id="XMLID_115_" class="st1" points="63.4,68.7 63.4,73.4 70.6,77.6 70.6,72.9 					"/>
					<polygon id="XMLID_114_" class="st1" points="63.4,73.6 63.4,82.5 70.6,86.6 70.6,77.7 					"/>
					<polygon id="XMLID_113_" class="st1" points="63.4,82.6 63.4,84.1 70.6,88.2 70.6,86.8 					"/>
					<g id="XMLID_105_">
						<polygon id="XMLID_112_" class="st8" points="65.1,72.4 65.1,73.3 68.7,75.4 68.7,74.5 						"/>
						<polygon id="XMLID_111_" class="st9" points="65.4,73 65.4,73.1 68.4,74.9 68.4,74.7 						"/>
						<g id="XMLID_106_">
							<polygon id="XMLID_110_" class="st8" points="64.3,70.1 64.3,71.4 69.8,74.6 69.8,73.4 							"/>
							<polygon id="XMLID_109_" class="st9" points="64.5,70.7 64.5,71 69.5,73.9 69.5,73.5 							"/>
							<g id="XMLID_107_">
								<path id="XMLID_108_" class="st9" d="M64.5,71.3v-0.1c0,0,0,0,0,0l0.2,0.1c0,0,0,0,0,0v0.1c0,0,0,0,0,0L64.5,71.3
									C64.6,71.3,64.5,71.3,64.5,71.3z"/>
							</g>
						</g>
					</g>
					<polygon id="XMLID_104_" class="st10" points="81.2,55.4 88.4,59.5 70.6,69.8 63.4,65.6 					"/>
					<polygon id="XMLID_103_" class="st11" points="88.4,59.5 88.4,78 70.6,88.2 70.6,69.8 					"/>
				</g>
				<g id="XMLID_99_">
					<path id="XMLID_101_" class="st12" d="M66.6,78.1L66.6,78.1c-0.5,0-0.7,0.5-0.3,1l0,0c0.2,0.2,0.4,0.4,0.6,0.4l0,0
						c0.5,0,0.7-0.5,0.3-1l0,0C67,78.3,66.8,78.2,66.6,78.1z"/>
					<path id="XMLID_100_" class="st1" d="M66.6,78.3L66.6,78.3c-0.4,0-0.5,0.4-0.2,0.8l0,0c0.1,0.2,0.3,0.3,0.5,0.3l0,0
						c0.4,0,0.5-0.4,0.2-0.8l0,0C67,78.4,66.8,78.3,66.6,78.3z"/>
				</g>
				<g id="XMLID_96_">
					<path id="XMLID_98_" class="st12" d="M66.7,80L66.7,80c-0.3,0-0.4,0.3-0.2,0.6l0,0c0.1,0.1,0.2,0.2,0.4,0.2l0,0
						c0.3,0,0.4-0.3,0.2-0.6l0,0C66.9,80.1,66.8,80,66.7,80z"/>
					<path id="XMLID_97_" class="st1" d="M66.7,80.1L66.7,80.1c-0.2,0-0.2,0.2-0.1,0.4l0,0c0.1,0.1,0.2,0.1,0.2,0.1l0,0
						c0.2,0,0.2-0.2,0.1-0.4l0,0C66.9,80.2,66.8,80.1,66.7,80.1z"/>
				</g>
				<g id="XMLID_85_">
					<g id="XMLID_93_">
						<path id="XMLID_95_" class="st13" d="M66.6,81.1L66.6,81.1c-0.1,0-0.1,0.1-0.1,0.2l0,0c0,0.1,0.1,0.1,0.1,0.1l0,0
							c0.1,0,0.1-0.1,0.1-0.2l0,0C66.7,81.2,66.7,81.1,66.6,81.1z"/>
						<path id="XMLID_94_" class="st14" d="M66.6,81.2L66.6,81.2c-0.1,0,0.1,0.3,0.1,0.2c0,0,0-0.1,0-0.2v0
							C66.7,81.2,66.7,81.2,66.6,81.2z"/>
					</g>
					<g id="XMLID_90_">
						<path id="XMLID_92_" class="st15" d="M66.2,80.9L66.2,80.9c-0.1,0-0.1,0.1-0.1,0.2l0,0c0,0.1,0.1,0.1,0.1,0.1l0,0
							c0.1,0,0.1-0.1,0.1-0.2l0,0C66.3,80.9,66.3,80.9,66.2,80.9z"/>
						<path id="XMLID_91_" class="st16" d="M66.2,80.9L66.2,80.9c-0.1,0,0.1,0.3,0.1,0.2c0,0,0-0.1,0-0.2l0,0
							C66.3,81,66.2,80.9,66.2,80.9z"/>
					</g>
					<g id="XMLID_87_">
						<path id="XMLID_89_" class="st17" d="M67,81.4L67,81.4c-0.1,0-0.1,0.1-0.1,0.2l0,0c0,0.1,0.1,0.1,0.1,0.1l0,0
							c0.1,0,0.1-0.1,0.1-0.2l0,0C67.1,81.4,67.1,81.4,67,81.4z"/>
						<path id="XMLID_88_" class="st18" d="M67,81.4L67,81.4c-0.1,0,0.1,0.3,0.1,0.2c0,0,0-0.1,0-0.2l0,0
							C67.1,81.4,67.1,81.4,67,81.4z"/>
					</g>
				</g>
			</g>
		</g>
		<g id="XMLID_28_">
			<g id="XMLID_31_">
				<g id="XMLID_32_">
					<g id="XMLID_38_">
						<g id="XMLID_39_">
							<polygon id="XMLID_81_" class="st19" points="55.5,32 32.4,45.3 32.4,68.4 55.5,55.1 							"/>
							<polygon id="XMLID_16542_" class="st20" points="55.5,32 32.4,45.3 43.7,61.9 55.5,55.1 							"/>
							<polygon id="XMLID_80_" class="st21" points="16,35 72.1,67.4 72.1,91.3 71.4,90.9 71.4,67.9 32.4,45.3 32.4,68.4 16,59 
															"/>
							<polyline id="XMLID_16549_" class="st6" points="16,35 72.1,67.4 72.1,91.3 71.4,90.9 71.4,67.9 32.4,45.3 32.4,68.4 							
								"/>
							<g id="XMLID_65_">
								<g id="XMLID_70_">
									<polygon id="XMLID_78_" class="st22" points="17.6,36.8 30.7,44.4 30.7,51.2 17.6,43.6 									"/>
									<polygon id="XMLID_75_" class="st23" points="17.8,43.4 17.8,37.5 18.1,37.4 30.7,44.7 30.7,50.6 30.5,50.7 									"/>
									<polygon id="XMLID_74_" class="st6" points="17.8,37.5 30.5,44.8 30.5,50.7 17.8,43.4 									"/>
									<polyline id="XMLID_16546_" class="st2" points="17.8,37.5 30.5,44.8 30.5,50.7 									"/>
									<polygon id="XMLID_73_" class="st23" points="30,45.1 30.5,44.8 30.5,45.1 30,45.4 									"/>
									<polygon id="XMLID_72_" class="st23" points="29.8,45.2 30,45.1 30,45.5 29.8,45.7 									"/>
									<polygon id="XMLID_71_" class="st24" points="18.1,37.4 30.7,44.7 30.5,44.8 17.8,37.5 									"/>
								</g>
								<polygon id="XMLID_69_" class="st24" points="17.8,37.5 30.5,44.8 30.3,45 17.6,37.7 								"/>
								<polygon id="XMLID_68_" class="st24" points="17.6,37.7 30.3,45 30,45.1 17.4,37.8 								"/>
								<polygon id="XMLID_67_" class="st24" points="17.4,37.8 30,45.1 29.8,45.2 17.1,37.9 								"/>
								<polygon id="XMLID_66_" class="st25" points="17.1,38.3 29.8,45.7 29.8,45.2 17.1,37.9 								"/>
							</g>
							<g id="XMLID_53_">
								<g id="XMLID_58_">
									<polygon id="XMLID_64_" class="st22" points="17.6,44.2 30.7,51.8 30.7,58.6 17.6,51 									"/>
									<polygon id="XMLID_63_" class="st23" points="17.8,50.8 17.8,44.9 18.1,44.8 30.7,52.1 30.7,58 30.5,58.1 									"/>
									<polygon id="XMLID_62_" class="st6" points="17.8,44.9 30.5,52.2 30.5,58.1 17.8,50.8 									"/>
									<polyline id="XMLID_16547_" class="st2" points="17.8,44.9 30.5,52.2 30.5,58.1 									"/>
									<polygon id="XMLID_61_" class="st23" points="30,52.5 30.5,52.2 30.5,52.5 30,52.8 									"/>
									<polygon id="XMLID_60_" class="st23" points="29.8,52.6 30,52.5 30,52.9 29.8,53 									"/>
									<polygon id="XMLID_59_" class="st24" points="18.1,44.8 30.7,52.1 30.5,52.2 17.8,44.9 									"/>
								</g>
								<polygon id="XMLID_57_" class="st24" points="17.8,44.9 30.5,52.2 30.3,52.4 17.6,45 								"/>
								<polygon id="XMLID_56_" class="st24" points="17.6,45 30.3,52.4 30,52.5 17.4,45.2 								"/>
								<polygon id="XMLID_55_" class="st24" points="17.4,45.2 30,52.5 29.8,52.6 17.1,45.3 								"/>
								<polygon id="XMLID_54_" class="st25" points="17.1,45.7 29.8,53 29.8,52.6 17.1,45.3 								"/>
							</g>
							<g id="XMLID_41_">
								<g id="XMLID_46_">
									<polygon id="XMLID_52_" class="st22" points="17.6,51.6 30.7,59.2 30.7,66 17.6,58.4 									"/>
									<polygon id="XMLID_51_" class="st23" points="17.8,58.2 17.8,52.3 18.1,52.2 30.7,59.5 30.7,65.4 30.5,65.5 									"/>
									<polygon id="XMLID_50_" class="st6" points="17.8,52.3 30.5,59.6 30.5,65.5 17.8,58.2 									"/>
									<polyline id="XMLID_16548_" class="st2" points="17.8,52.3 30.5,59.6 30.5,65.5 									"/>
									<polygon id="XMLID_49_" class="st23" points="30,59.9 30.5,59.6 30.5,59.9 30,60.2 									"/>
									<polygon id="XMLID_48_" class="st23" points="29.8,60 30,59.9 30,60.3 29.8,60.4 									"/>
									<polygon id="XMLID_47_" class="st24" points="18.1,52.2 30.7,59.5 30.5,59.6 17.8,52.3 									"/>
								</g>
								<polygon id="XMLID_45_" class="st24" points="17.8,52.3 30.5,59.6 30.3,59.7 17.6,52.4 								"/>
								<polygon id="XMLID_44_" class="st24" points="17.6,52.4 30.3,59.7 30,59.9 17.4,52.5 								"/>
								<polygon id="XMLID_43_" class="st24" points="17.4,52.5 30,59.9 29.8,60 17.1,52.7 								"/>
								<polygon id="XMLID_42_" class="st25" points="17.1,53.1 29.8,60.4 29.8,60 17.1,52.7 								"/>
							</g>
							<polygon id="XMLID_40_" class="st4" points="72.1,67.4 95.2,54.1 95.2,78 94.5,78.4 72.8,90.9 72.1,91.3 							"/>
						</g>
					</g>
					<g id="XMLID_33_">
						<g id="XMLID_34_">
							<polygon id="XMLID_37_" class="st26" points="72.1,65.9 72.1,67.4 16,35 16,33.5 							"/>
							<polygon id="XMLID_36_" class="st27" points="95.2,52.6 72.1,65.9 72.1,67.4 95.2,54.1 							"/>
							<polygon id="XMLID_35_" class="st28" points="38.9,20.2 95,52.6 71.9,65.9 15.8,33.5 							"/>
							<polygon class="st29" points="30.5,42 15.8,33.5 24.3,28.6 30.5,28.6 							"/>
							<polyline id="XMLID_16550_" class="st29" points="39.1,20.2 95.2,52.6 72.1,65.9 							"/>
							<polygon class="st29" points="43,22.5 43.6,22.8 43.6,49.4 34.7,44.3 34.7,22.7 35.3,22.5 							"/>
							<polygon class="st29" points="61.4,59.7 61.4,39.8 72.7,40.9 72.7,61.5 64.6,61.5 							"/>
						</g>
					</g>
				</g>
			</g>
			<g id="XMLID_29_">
				<polygon id="XMLID_30_" class="st6" points="61.3,83.9 72.1,90.2 72.1,91.3 61.3,85.1 				"/>
			</g>
		</g>
		<g id="XMLID_24_">
			<g id="XMLID_25_">
				<polygon id="XMLID_27_" class="st1" points="59.6,56 59.6,98.5 60.8,99.2 60.8,56.7 				"/>
				<polygon id="XMLID_26_" class="st0" points="95.4,35.4 96.6,36.1 60.8,56.7 59.6,56 				"/>
			</g>
			<polygon class="st3" points="96.6,36.1 97.7,35.4 97.7,77.8 96.6,78.5 60.8,99.2 60.8,56.7 			"/>
			<polyline class="st2" points="60.8,99.2 60.8,56.7 96.6,36.1 97.7,35.4 			"/>
		</g>
	</g>
	<g id="XMLID_1_">
		<path id="XMLID_16551_" class="st30" d="M34.7,22.5c0-1.3,2-2.4,4.4-2.4s4.4,1.1,4.4,2.4c0,0.2,0,1.1,0,1.3c0,1.3-2,2.4-4.4,2.4
			s-4.4-1.1-4.4-2.4C34.7,23.5,34.7,22.7,34.7,22.5z"/>
		<path class="st31" d="M39.2,20c1.4,0,2.6,0.3,3.4,0.9v4.4c-0.8,0.5-2,0.9-3.4,0.9c-2.4,0-4.4-1.1-4.4-2.4c0-0.2,0-1.1,0-1.3
			C34.7,21.1,36.7,20,39.2,20z"/>
		<ellipse id="XMLID_16545_" class="st32" cx="39.2" cy="22.5" rx="4.4" ry="2.4"/>
		<path class="st33" d="M39.7,24.9c-0.2,0-0.4,0-0.6,0c-0.2,0-0.4,0-0.6,0v-4.2h1.1V24.9z"/>
		<path id="XMLID_22_" class="st33" d="M34.7,22.5c0,1.3,2,2.4,4.4,2.4s4.4-1.1,4.4-2.4"/>
		<rect id="XMLID_21_" x="38.7" y="12.6" class="st34" width="0.9" height="5.3"/>
		<rect x="38.7" y="12.7" class="st31" width="0.6" height="5.2"/>
		<path id="XMLID_20_" class="st34" d="M39.7,17.8V21l0,0c0,0.2-0.3,0.3-0.6,0.3c-0.3,0-0.6-0.1-0.6-0.3v-3.3H39.7z"/>
		
			<rect id="XMLID_19_" x="38.8" y="10.4" transform="matrix(-1 -4.522794e-11 4.522794e-11 -1 78.3357 23.3453)" class="st35" width="0.7" height="2.5"/>
		<path id="XMLID_18_" class="st34" d="M38.8,12.3h0.8c0.2,0,0.4,0.2,0.4,0.4v0c0,0.2-0.2,0.4-0.4,0.4h-0.8c-0.2,0-0.4-0.2-0.4-0.4
			v0C38.3,12.5,38.5,12.3,38.8,12.3z"/>
		<path class="st31" d="M38.7,12.3h1c0.2,0,0.3,0.1,0.3,0.3v0.1c0,0.2-0.1,0.3-0.3,0.3h-1c-0.2,0-0.3-0.1-0.3-0.3v-0.1
			C38.3,12.4,38.5,12.3,38.7,12.3z"/>
		<g id="XMLID_6_">
			<path id="XMLID_17_" class="st36" d="M34.1,8.7c0-3.1,2.9-5.3,3.3-6.9c0.3-1.3,3.2-1.3,3.5,0c0.4,1.5,3.3,3.8,3.3,6.9
				c0,0.1,0,0.2,0,0.3c0,1-2.2,1.8-5,1.8c-2.8,0-5-0.8-5-1.8C34.1,8.9,34.1,8.7,34.1,8.7z"/>
			<path id="XMLID_16_" class="st37" d="M34.1,8.7c0-3.1,2.9-5.3,3.3-6.9c0.3-1.3,2.8-0.9,3.2,0.4c0.4,1.5,0.2,4.7,3.6,6.5
				c0.1,0,0,0.2,0,0.3c0,1-2.2,1.8-5,1.8c-2.8,0-5-0.8-5-1.8C34.1,8.9,34.1,8.7,34.1,8.7z"/>
			<path id="XMLID_15_" class="st38" d="M34.1,8.7c0-3.1,2.9-5.3,3.3-6.9c0,0,4.5,9,1.7,9c-2.8,0-5-0.8-5-1.8
				C34.1,8.9,34.1,8.7,34.1,8.7z"/>
			<path id="XMLID_14_" class="st39" d="M34,8.7c0-1,2.3-1.9,5.1-1.9c2.8,0,5.1,0.8,5.1,1.9c0,0,0,0.2,0,0.2c0,1-2.3,1.9-5.1,1.9
				C36.3,10.8,34,10,34,9C34,8.9,34,8.8,34,8.7z"/>
			<ellipse id="XMLID_13_" class="st40" cx="39.1" cy="9" rx="4.7" ry="1.7"/>
			<g id="XMLID_11_">
				<path id="XMLID_12_" class="st41" d="M34.4,9c0-0.9,2.1-1.7,4.7-1.7c0.2,0,0.3,0,0.5,0l0.1,0l1.2,3.3c-0.5,0.1-1.2,0.1-1.8,0.1
					C36.5,10.7,34.4,9.9,34.4,9z"/>
			</g>
			<path class="st42" d="M39.1,7.2c2.1,0,3.8,0.5,4.5,1.1c-0.6,0.7-2.4,1.1-4.5,1.1c-2.1,0-3.8-0.5-4.5-1.1
				C35.3,7.7,37.1,7.2,39.1,7.2z"/>
			<path class="st42" d="M42.9,7.9c-0.9,0.4-2.2,0.7-3.7,0.7c-1.5,0-2.9-0.3-3.7-0.7c0.9-0.4,2.2-0.7,3.7-0.7
				C40.6,7.2,42,7.5,42.9,7.9z"/>
			<g id="XMLID_9_">
				<path id="XMLID_10_" class="st43" d="M40.5,8.5c-0.2,0.3-0.6,0.8-1.4,0.8c-0.8,0-1.2-0.4-1.4-0.8c-0.1-0.2-0.3-0.6-0.2-1.1
					c0.5-0.1,1.1-0.1,1.6-0.1c0.6,0,1.1,0,1.6,0.1C40.9,7.9,40.7,8.3,40.5,8.5z"/>
			</g>
			<g id="XMLID_7_">
				<path id="XMLID_8_" class="st44" d="M40.2,8.4C40.1,8.7,39.7,9,39.1,9c-0.3,0-0.5-0.1-0.7-0.2c-0.1-0.1,0.4-0.5,0.9-0.7
					c0.5-0.3,1.1-0.3,1.1-0.3C40.4,8.1,40.3,8.3,40.2,8.4z"/>
			</g>
		</g>
		<g id="XMLID_3_">
			<path id="XMLID_5_" class="st39" d="M38.4,23.4c0-0.2,0.3-0.4,0.8-0.4c0.4,0,0.8,0.2,0.8,0.4c0,0,0,0.2,0,0.2
				c0,0.2-0.3,0.4-0.8,0.4c-0.4,0-0.8-0.2-0.8-0.4C38.4,23.6,38.4,23.4,38.4,23.4z"/>
			<ellipse id="XMLID_4_" class="st37" cx="39.2" cy="23.4" rx="0.8" ry="0.4"/>
		</g>
	</g>
	<g id="XMLID_16552_">
		<g id="XMLID_16553_">
			<g id="XMLID_16584_">
				<g id="XMLID_16585_">
					<path id="XMLID_16992_" class="st45" d="M47.2,43.4c0-0.1,0-0.2,0.1-0.2l5.7-3.3c0.2-0.1,0.5-0.1,0.7,0l14.3,8.3
						c0.1,0,0.1,0.1,0.1,0.2c0,0.1,0,0.6,0,0.7c0,0.1,0,0.2-0.1,0.2l-5.7,3.3c-0.2,0.1-0.5,0.1-0.7,0l-14.3-8.3
						c-0.1-0.1-0.1-0.1-0.1-0.2C47.2,44,47.2,43.5,47.2,43.4z"/>
					<path class="st46" d="M47.3,43.2l5.7-3.3c0.2-0.1,0.5-0.1,0.7,0l8.3,4.8v8c-0.1,0-0.2,0-0.3-0.1l-14.3-8.3
						c-0.1-0.1-0.1-0.1-0.1-0.2c0-0.1,0-0.6,0-0.7C47.2,43.3,47.2,43.2,47.3,43.2z"/>
					<path id="XMLID_16991_" class="st47" d="M47.3,43.2l5.7-3.3c0.2-0.1,0.5-0.1,0.7,0l14.3,8.3c0.2,0.1,0.2,0.3,0,0.4l-5.7,3.3
						c-0.2,0.1-0.5,0.1-0.7,0l-14.3-8.3C47.1,43.5,47.1,43.3,47.3,43.2z"/>
					<g id="XMLID_16586_">
						<g id="XMLID_16895_">
							<g id="XMLID_16964_">
								<g id="XMLID_16978_">
									<g id="XMLID_16985_">
										<g id="XMLID_16986_">
											<g id="XMLID_16987_">
												<g id="XMLID_16988_">
													<path id="XMLID_16990_" class="st46" d="M65.2,47.9C65.2,47.9,65.2,47.8,65.2,47.9l0.3-0.2c0.1,0,0.2,0,0.2,0l0.5,0.3
														c0,0,0,0,0,0.1v0.1c0,0,0,0.1,0,0.1L66,48.4c-0.1,0-0.2,0-0.2,0l-0.5-0.3c0,0,0,0,0-0.1L65.2,47.9z"/>
													<path id="XMLID_16989_" class="st45" d="M65.7,47.6l0.5,0.3c0.1,0,0.1,0.1,0,0.2L66,48.2c-0.1,0-0.2,0-0.2,0l-0.5-0.3
														c-0.1,0-0.1-0.1,0-0.2l0.2-0.1C65.6,47.5,65.6,47.5,65.7,47.6z"/>
												</g>
											</g>
										</g>
									</g>
									<g id="XMLID_16979_">
										<g id="XMLID_16980_">
											<g id="XMLID_16981_">
												<g id="XMLID_16982_">
													<path id="XMLID_16984_" class="st46" d="M64.3,47.3C64.3,47.3,64.3,47.3,64.3,47.3l0.3-0.2c0.1,0,0.2,0,0.2,0l0.5,0.3
														c0,0,0,0,0,0.1l0,0.1c0,0,0,0.1,0,0.1l-0.2,0.1c-0.1,0-0.2,0-0.2,0l-0.5-0.3c0,0,0-0.1,0-0.1L64.3,47.3z"/>
													<path id="XMLID_16983_" class="st45" d="M64.8,47.1l0.5,0.3c0.1,0,0.1,0.1,0,0.2l-0.2,0.1c-0.1,0-0.2,0-0.2,0l-0.5-0.3
														c-0.1,0-0.1-0.1,0-0.2l0.2-0.1C64.6,47,64.7,47,64.8,47.1z"/>
												</g>
											</g>
										</g>
									</g>
								</g>
								<g id="XMLID_16965_">
									<g id="XMLID_16972_">
										<g id="XMLID_16973_">
											<g id="XMLID_16974_">
												<g id="XMLID_16975_">
													<path id="XMLID_16977_" class="st46" d="M63.4,46.8C63.4,46.8,63.4,46.8,63.4,46.8l0.3-0.2c0.1,0,0.2,0,0.2,0l0.5,0.3
														c0,0,0,0,0,0.1l0,0.1c0,0,0,0.1,0,0.1l-0.2,0.1c-0.1,0-0.2,0-0.2,0L63.4,47c0,0,0,0,0-0.1L63.4,46.8z"/>
													<path id="XMLID_16976_" class="st45" d="M63.9,46.5l0.5,0.3c0.1,0,0.1,0.1,0,0.2l-0.2,0.1c-0.1,0-0.2,0-0.2,0l-0.5-0.3
														c-0.1,0-0.1-0.1,0-0.2l0.2-0.1C63.7,46.5,63.8,46.5,63.9,46.5z"/>
												</g>
											</g>
										</g>
									</g>
									<g id="XMLID_16966_">
										<g id="XMLID_16967_">
											<g id="XMLID_16968_">
												<g id="XMLID_16969_">
													<path id="XMLID_16971_" class="st46" d="M62.4,46.3C62.4,46.3,62.5,46.2,62.4,46.3l0.3-0.2c0.1,0,0.2,0,0.2,0l0.5,0.3
														c0,0,0,0,0,0.1v0.1c0,0,0,0.1,0,0.1l-0.2,0.1c-0.1,0-0.2,0-0.2,0l-0.5-0.3c0,0,0,0,0-0.1L62.4,46.3z"/>
													<path id="XMLID_16970_" class="st45" d="M63,46l0.5,0.3c0.1,0,0.1,0.1,0,0.2l-0.2,0.1c-0.1,0-0.2,0-0.2,0l-0.5-0.3
														c-0.1,0-0.1-0.1,0-0.2l0.2-0.1C62.8,45.9,62.9,45.9,63,46z"/>
												</g>
											</g>
										</g>
									</g>
								</g>
							</g>
							<g id="XMLID_16937_">
								<g id="XMLID_16951_">
									<g id="XMLID_16958_">
										<g id="XMLID_16959_">
											<g id="XMLID_16960_">
												<g id="XMLID_16961_">
													<path id="XMLID_16963_" class="st46" d="M61.5,45.8C61.5,45.7,61.5,45.7,61.5,45.8l0.3-0.2c0.1,0,0.2,0,0.2,0l0.5,0.3
														c0,0,0,0,0,0.1V46c0,0,0,0.1,0,0.1l-0.2,0.1c-0.1,0-0.2,0-0.2,0l-0.5-0.3c0,0,0-0.1,0-0.1L61.5,45.8z"/>
													<path id="XMLID_16962_" class="st45" d="M62,45.5l0.5,0.3c0.1,0,0.1,0.1,0,0.2l-0.2,0.1c-0.1,0-0.2,0-0.2,0l-0.5-0.3
														c-0.1,0-0.1-0.1,0-0.2l0.2-0.1C61.9,45.4,62,45.4,62,45.5z"/>
												</g>
											</g>
										</g>
									</g>
									<g id="XMLID_16952_">
										<g id="XMLID_16953_">
											<g id="XMLID_16954_">
												<g id="XMLID_16955_">
													<path id="XMLID_16957_" class="st46" d="M60.6,45.2C60.6,45.2,60.6,45.2,60.6,45.2l0.3-0.2c0.1,0,0.2,0,0.2,0l0.5,0.3
														c0,0,0,0,0,0.1l0,0.1c0,0,0,0.1,0,0.1l-0.2,0.1c-0.1,0-0.2,0-0.2,0l-0.5-0.3c0,0,0,0,0-0.1L60.6,45.2z"/>
													<path id="XMLID_16956_" class="st45" d="M61.1,44.9l0.5,0.3c0.1,0,0.1,0.1,0,0.2l-0.2,0.1c-0.1,0-0.2,0-0.2,0l-0.5-0.3
														c-0.1,0-0.1-0.1,0-0.2l0.2-0.1C61,44.9,61,44.9,61.1,44.9z"/>
												</g>
											</g>
										</g>
									</g>
								</g>
								<g id="XMLID_16938_">
									<g id="XMLID_16945_">
										<g id="XMLID_16946_">
											<g id="XMLID_16947_">
												<g id="XMLID_16948_">
													<path id="XMLID_16950_" class="st46" d="M59.7,44.7C59.7,44.7,59.7,44.6,59.7,44.7l0.3-0.2c0.1,0,0.2,0,0.2,0l0.5,0.3
														c0,0,0,0,0,0.1l0,0.1c0,0,0,0.1,0,0.1l-0.2,0.1c-0.1,0-0.2,0-0.2,0l-0.5-0.3c0,0,0-0.1,0-0.1L59.7,44.7z"/>
													<path id="XMLID_16949_" class="st45" d="M60.2,44.4l0.5,0.3c0.1,0,0.1,0.1,0,0.2L60.5,45c-0.1,0-0.2,0-0.2,0l-0.5-0.3
														c-0.1,0-0.1-0.1,0-0.2l0.2-0.1C60,44.4,60.1,44.4,60.2,44.4z"/>
												</g>
											</g>
										</g>
									</g>
									<g id="XMLID_16939_">
										<g id="XMLID_16940_">
											<g id="XMLID_16941_">
												<g id="XMLID_16942_">
													<path id="XMLID_16944_" class="st46" d="M58.8,44.2C58.8,44.1,58.8,44.1,58.8,44.2L59,44c0.1,0,0.2,0,0.2,0l0.5,0.3
														c0,0,0,0,0,0.1v0.1c0,0,0,0.1,0,0.1l-0.2,0.1c-0.1,0-0.2,0-0.2,0l-0.5-0.3c0,0,0-0.1,0-0.1L58.8,44.2z"/>
													<path id="XMLID_16943_" class="st45" d="M59.3,43.9l0.5,0.3c0.1,0,0.1,0.1,0,0.2l-0.2,0.1c-0.1,0-0.2,0-0.2,0l-0.5-0.3
														c-0.1,0-0.1-0.1,0-0.2l0.2-0.1C59.1,43.8,59.2,43.8,59.3,43.9z"/>
												</g>
											</g>
										</g>
									</g>
								</g>
							</g>
							<g id="XMLID_16910_">
								<g id="XMLID_16924_">
									<g id="XMLID_16931_">
										<g id="XMLID_16932_">
											<g id="XMLID_16933_">
												<g id="XMLID_16934_">
													<path id="XMLID_16936_" class="st46" d="M57.8,43.6C57.9,43.6,57.9,43.6,57.8,43.6l0.3-0.2c0.1,0,0.2,0,0.2,0l0.5,0.3
														c0,0,0,0,0,0.1v0.1c0,0,0,0.1,0,0.1l-0.2,0.1c-0.1,0-0.2,0-0.2,0l-0.5-0.3c0,0,0-0.1,0-0.1L57.8,43.6z"/>
													<path id="XMLID_16935_" class="st45" d="M58.4,43.3l0.5,0.3c0.1,0,0.1,0.1,0,0.2l-0.2,0.1c-0.1,0-0.2,0-0.2,0l-0.5-0.3
														c-0.1,0-0.1-0.1,0-0.2l0.2-0.1C58.2,43.3,58.3,43.3,58.4,43.3z"/>
												</g>
											</g>
										</g>
									</g>
									<g id="XMLID_16925_">
										<g id="XMLID_16926_">
											<g id="XMLID_16927_">
												<g id="XMLID_16928_">
													<path id="XMLID_16930_" class="st46" d="M56.9,43.1C56.9,43.1,56.9,43,56.9,43.1l0.3-0.2c0.1,0,0.2,0,0.2,0l0.5,0.3
														c0,0,0,0,0,0.1l0,0.1c0,0,0,0.1,0,0.1l-0.2,0.1c-0.1,0-0.2,0-0.2,0L57,43.3c0,0,0-0.1,0-0.1L56.9,43.1z"/>
													<path id="XMLID_16929_" class="st45" d="M57.4,42.8l0.5,0.3c0.1,0,0.1,0.1,0,0.2l-0.2,0.1c-0.1,0-0.2,0-0.2,0L57,43.1
														c-0.1,0-0.1-0.1,0-0.2l0.2-0.1C57.3,42.8,57.4,42.8,57.4,42.8z"/>
												</g>
											</g>
										</g>
									</g>
								</g>
								<g id="XMLID_16911_">
									<g id="XMLID_16918_">
										<g id="XMLID_16919_">
											<g id="XMLID_16920_">
												<g id="XMLID_16921_">
													<path id="XMLID_16923_" class="st46" d="M56,42.6C56,42.5,56,42.5,56,42.6l0.3-0.2c0.1,0,0.2,0,0.2,0l0.5,0.3
														c0,0,0,0,0,0.1l0,0.1c0,0,0,0.1,0,0.1l-0.2,0.1c-0.1,0-0.2,0-0.2,0l-0.5-0.3c0,0,0,0,0-0.1L56,42.6z"/>
													<path id="XMLID_16922_" class="st45" d="M56.5,42.3l0.5,0.3c0.1,0,0.1,0.1,0,0.2l-0.2,0.1c-0.1,0-0.2,0-0.2,0l-0.5-0.3
														c-0.1,0-0.1-0.1,0-0.2l0.2-0.1C56.4,42.2,56.5,42.2,56.5,42.3z"/>
												</g>
											</g>
										</g>
									</g>
									<g id="XMLID_16912_">
										<g id="XMLID_16913_">
											<g id="XMLID_16914_">
												<g id="XMLID_16915_">
													<path id="XMLID_16917_" class="st46" d="M55.1,42C55.1,42,55.1,42,55.1,42l0.3-0.2c0.1,0,0.2,0,0.2,0l0.5,0.3
														c0,0,0,0,0,0.1v0.1c0,0,0,0.1,0,0.1l-0.2,0.1c-0.1,0-0.2,0-0.2,0l-0.5-0.3c0,0,0-0.1,0-0.1L55.1,42z"/>
													<path id="XMLID_16916_" class="st45" d="M55.6,41.7l0.5,0.3c0.1,0,0.1,0.1,0,0.2l-0.2,0.1c-0.1,0-0.2,0-0.2,0L55.1,42
														c-0.1,0-0.1-0.1,0-0.2l0.2-0.1C55.4,41.7,55.5,41.7,55.6,41.7z"/>
												</g>
											</g>
										</g>
									</g>
								</g>
							</g>
							<g id="XMLID_16896_">
								<g id="XMLID_16897_">
									<g id="XMLID_16904_">
										<g id="XMLID_16905_">
											<g id="XMLID_16906_">
												<g id="XMLID_16907_">
													<path id="XMLID_16909_" class="st46" d="M54.2,41.5C54.2,41.5,54.2,41.4,54.2,41.5l0.3-0.2c0.1,0,0.2,0,0.2,0l0.5,0.3
														c0,0,0,0,0,0.1v0.1c0,0,0,0.1,0,0.1L55,42c-0.1,0-0.2,0-0.2,0l-0.5-0.3c0,0,0-0.1,0-0.1L54.2,41.5z"/>
													<path id="XMLID_16908_" class="st45" d="M54.7,41.2l0.5,0.3c0.1,0,0.1,0.1,0,0.2L55,41.8c-0.1,0-0.2,0-0.2,0l-0.5-0.3
														c-0.1,0-0.1-0.1,0-0.2l0.2-0.1C54.5,41.2,54.6,41.2,54.7,41.2z"/>
												</g>
											</g>
										</g>
									</g>
									<g id="XMLID_16898_">
										<g id="XMLID_16899_">
											<g id="XMLID_16900_">
												<g id="XMLID_16901_">
													<path id="XMLID_16903_" class="st46" d="M53.3,41C53.3,40.9,53.3,40.9,53.3,41l0.3-0.2c0.1,0,0.2,0,0.2,0l0.5,0.3
														c0,0,0,0,0,0.1l0,0.1c0,0,0,0.1,0,0.1l-0.2,0.1c-0.1,0-0.2,0-0.2,0l-0.5-0.3c0,0,0-0.1,0-0.1L53.3,41z"/>
													<path id="XMLID_16902_" class="st45" d="M53.8,40.7l0.5,0.3c0.1,0,0.1,0.1,0,0.2l-0.2,0.1c-0.1,0-0.2,0-0.2,0L53.3,41
														c-0.1,0-0.1-0.1,0-0.2l0.2-0.1C53.6,40.6,53.7,40.6,53.8,40.7z"/>
												</g>
											</g>
										</g>
									</g>
								</g>
							</g>
						</g>
						<g id="XMLID_16830_">
							<g id="XMLID_16886_">
								<g id="XMLID_16891_">
									<g id="XMLID_16892_">
										<path id="XMLID_16894_" class="st46" d="M53.6,42.2C53.6,42.2,53.6,42.1,53.6,42.2l0.6-0.4c0.1,0,0.2,0,0.2,0l0.5,0.3
											c0,0,0,0,0,0.1v0.1c0,0,0,0.1,0,0.1l-0.5,0.3c-0.1,0-0.2,0-0.2,0l-0.5-0.3c0,0,0,0,0-0.1L53.6,42.2z"/>
										<path id="XMLID_16893_" class="st45" d="M54.4,41.7l0.5,0.3c0.1,0,0.1,0.1,0,0.2l-0.5,0.3c-0.1,0-0.2,0-0.2,0l-0.5-0.3
											c-0.1,0-0.1-0.1,0-0.2l0.5-0.3C54.2,41.7,54.3,41.7,54.4,41.7z"/>
									</g>
								</g>
								<g id="XMLID_16887_">
									<g id="XMLID_16888_">
										<path id="XMLID_16890_" class="st46" d="M54.5,42.7C54.5,42.7,54.5,42.6,54.5,42.7l0.6-0.4c0.1,0,0.2,0,0.2,0l0.5,0.3
											c0,0,0,0,0,0.1v0.1c0,0,0,0.1,0,0.1l-0.5,0.3c-0.1,0-0.2,0-0.2,0l-0.5-0.3c0,0,0,0,0-0.1L54.5,42.7z"/>
										<path id="XMLID_16889_" class="st45" d="M55.3,42.2l0.5,0.3c0.1,0,0.1,0.1,0,0.2L55.3,43c-0.1,0-0.2,0-0.2,0l-0.5-0.3
											c-0.1,0-0.1-0.1,0-0.2l0.5-0.3C55.1,42.2,55.2,42.2,55.3,42.2z"/>
									</g>
								</g>
							</g>
							<g id="XMLID_16881_">
								<g id="XMLID_16882_">
									<g id="XMLID_16883_">
										<path id="XMLID_16885_" class="st46" d="M52.4,41.5C52.4,41.5,52.4,41.4,52.4,41.5l0.6-0.4c0.1,0,0.2,0,0.2,0l0.8,0.5
											c0,0,0,0,0,0.1l0,0.1c0,0,0,0.1,0,0.1l-0.5,0.3c-0.1,0-0.2,0-0.2,0l-0.8-0.5c0,0,0,0,0-0.1L52.4,41.5z"/>
										<path id="XMLID_16884_" class="st45" d="M53.2,41l0.8,0.5c0.1,0,0.1,0.1,0,0.2L53.5,42c-0.1,0-0.2,0-0.2,0l-0.8-0.5
											c-0.1,0-0.1-0.1,0-0.2l0.5-0.3C53,41,53.1,41,53.2,41z"/>
									</g>
								</g>
							</g>
							<g id="XMLID_16872_">
								<g id="XMLID_16877_">
									<g id="XMLID_16878_">
										<path id="XMLID_16880_" class="st46" d="M55.4,43.2C55.4,43.2,55.4,43.2,55.4,43.2l0.6-0.4c0.1,0,0.2,0,0.2,0l0.5,0.3
											c0,0,0,0,0,0.1l0,0.1c0,0,0,0.1,0,0.1l-0.5,0.3c-0.1,0-0.2,0-0.2,0l-0.5-0.3c0,0,0,0,0-0.1L55.4,43.2z"/>
										<path id="XMLID_16879_" class="st45" d="M56.2,42.8l0.5,0.3c0.1,0,0.1,0.1,0,0.2l-0.5,0.3c-0.1,0-0.2,0-0.2,0l-0.5-0.3
											c-0.1,0-0.1-0.1,0-0.2l0.5-0.3C56,42.7,56.1,42.7,56.2,42.8z"/>
									</g>
								</g>
								<g id="XMLID_16873_">
									<g id="XMLID_16874_">
										<path id="XMLID_16876_" class="st46" d="M56.3,43.7C56.3,43.7,56.3,43.7,56.3,43.7l0.6-0.4c0.1,0,0.2,0,0.2,0l0.5,0.3
											c0,0,0,0,0,0.1v0.1c0,0,0,0.1,0,0.1l-0.5,0.3c-0.1,0-0.2,0-0.2,0l-0.5-0.3c0,0,0,0,0-0.1L56.3,43.7z"/>
										<path id="XMLID_16875_" class="st45" d="M57.1,43.3l0.5,0.3c0.1,0,0.1,0.1,0,0.2L57.1,44c-0.1,0-0.2,0-0.2,0l-0.5-0.3
											c-0.1,0-0.1-0.1,0-0.2l0.5-0.3C56.9,43.2,57,43.2,57.1,43.3z"/>
									</g>
								</g>
							</g>
							<g id="XMLID_16863_">
								<g id="XMLID_16868_">
									<g id="XMLID_16869_">
										<path id="XMLID_16871_" class="st46" d="M57.1,44.3C57.2,44.2,57.2,44.2,57.1,44.3l0.6-0.4c0.1,0,0.2,0,0.2,0l0.5,0.3
											c0,0,0,0,0,0.1l0,0.1c0,0,0,0.1,0,0.1L58,44.7c-0.1,0-0.2,0-0.2,0l-0.5-0.3c0,0,0,0,0-0.1L57.1,44.3z"/>
										<path id="XMLID_16870_" class="st45" d="M58,43.8l0.5,0.3c0.1,0,0.1,0.1,0,0.2L58,44.6c-0.1,0-0.2,0-0.2,0l-0.5-0.3
											c-0.1,0-0.1-0.1,0-0.2l0.5-0.3C57.8,43.8,57.9,43.8,58,43.8z"/>
									</g>
								</g>
								<g id="XMLID_16864_">
									<g id="XMLID_16865_">
										<path id="XMLID_16867_" class="st46" d="M58,44.8C58.1,44.7,58.1,44.7,58,44.8l0.6-0.4c0.1,0,0.2,0,0.2,0l0.5,0.3
											c0,0,0,0,0,0.1v0.1c0,0,0,0.1,0,0.1l-0.5,0.3c-0.1,0-0.2,0-0.2,0L58.1,45c0,0,0,0,0-0.1L58,44.8z"/>
										<path id="XMLID_16866_" class="st45" d="M58.9,44.3l0.5,0.3c0.1,0,0.1,0.1,0,0.2l-0.5,0.3c-0.1,0-0.2,0-0.2,0l-0.5-0.3
											c-0.1,0-0.1-0.1,0-0.2l0.5-0.3C58.7,44.3,58.8,44.3,58.9,44.3z"/>
									</g>
								</g>
							</g>
							<g id="XMLID_16854_">
								<g id="XMLID_16859_">
									<g id="XMLID_16860_">
										<path id="XMLID_16862_" class="st46" d="M58.9,45.3C58.9,45.3,59,45.2,58.9,45.3l0.6-0.4c0.1,0,0.2,0,0.2,0l0.5,0.3
											c0,0,0,0,0,0.1l0,0.1c0,0,0,0.1,0,0.1l-0.5,0.3c-0.1,0-0.2,0-0.2,0L59,45.5c0,0,0,0,0-0.1L58.9,45.3z"/>
										<path id="XMLID_16861_" class="st45" d="M59.7,44.8l0.5,0.3c0.1,0,0.1,0.1,0,0.2l-0.5,0.3c-0.1,0-0.2,0-0.2,0L59,45.3
											c-0.1,0-0.1-0.1,0-0.2l0.5-0.3C59.6,44.8,59.7,44.8,59.7,44.8z"/>
									</g>
								</g>
								<g id="XMLID_16855_">
									<g id="XMLID_16856_">
										<path id="XMLID_16858_" class="st46" d="M59.8,45.8C59.8,45.8,59.9,45.8,59.8,45.8l0.6-0.4c0.1,0,0.2,0,0.2,0l0.5,0.3
											c0,0,0,0,0,0.1v0.1c0,0,0,0.1,0,0.1l-0.5,0.3c-0.1,0-0.2,0-0.2,0L59.9,46c0,0,0,0,0-0.1L59.8,45.8z"/>
										<path id="XMLID_16857_" class="st45" d="M60.6,45.3l0.5,0.3c0.1,0,0.1,0.1,0,0.2l-0.5,0.3c-0.1,0-0.2,0-0.2,0l-0.5-0.3
											c-0.1,0-0.1-0.1,0-0.2l0.5-0.3C60.5,45.3,60.6,45.3,60.6,45.3z"/>
									</g>
								</g>
							</g>
							<g id="XMLID_16845_">
								<g id="XMLID_16850_">
									<g id="XMLID_16851_">
										<path id="XMLID_16853_" class="st46" d="M60.7,46.3C60.7,46.3,60.8,46.3,60.7,46.3l0.6-0.4c0.1,0,0.2,0,0.2,0l0.5,0.3
											c0,0,0,0,0,0.1l0,0.1c0,0,0,0.1,0,0.1l-0.5,0.3c-0.1,0-0.2,0-0.2,0l-0.5-0.3c0,0,0,0,0-0.1L60.7,46.3z"/>
										<path id="XMLID_16852_" class="st45" d="M61.5,45.9l0.5,0.3c0.1,0,0.1,0.1,0,0.2l-0.5,0.3c-0.1,0-0.2,0-0.2,0l-0.5-0.3
											c-0.1,0-0.1-0.1,0-0.2l0.5-0.3C61.4,45.8,61.5,45.8,61.5,45.9z"/>
									</g>
								</g>
								<g id="XMLID_16846_">
									<g id="XMLID_16847_">
										<path id="XMLID_16849_" class="st46" d="M61.6,46.8C61.6,46.8,61.7,46.8,61.6,46.8l0.6-0.4c0.1,0,0.2,0,0.2,0l0.5,0.3
											c0,0,0,0,0,0.1V47c0,0,0,0.1,0,0.1l-0.5,0.3c-0.1,0-0.2,0-0.2,0L61.7,47c0,0,0,0,0-0.1L61.6,46.8z"/>
										<path id="XMLID_16848_" class="st45" d="M62.4,46.4l0.5,0.3c0.1,0,0.1,0.1,0,0.2l-0.5,0.3c-0.1,0-0.2,0-0.2,0l-0.5-0.3
											c-0.1,0-0.1-0.1,0-0.2l0.5-0.3C62.3,46.3,62.4,46.3,62.4,46.4z"/>
									</g>
								</g>
							</g>
							<g id="XMLID_16836_">
								<g id="XMLID_16841_">
									<g id="XMLID_16842_">
										<path id="XMLID_16844_" class="st46" d="M62.5,47.4C62.5,47.3,62.6,47.3,62.5,47.4l0.6-0.4c0.1,0,0.2,0,0.2,0l0.5,0.3
											c0,0,0,0,0,0.1v0.1c0,0,0,0.1,0,0.1l-0.5,0.3c-0.1,0-0.2,0-0.2,0l-0.5-0.3c0,0,0,0,0-0.1L62.5,47.4z"/>
										<path id="XMLID_16843_" class="st45" d="M63.3,46.9l0.5,0.3c0.1,0,0.1,0.1,0,0.2l-0.5,0.3c-0.1,0-0.2,0-0.2,0l-0.5-0.3
											c-0.1,0-0.1-0.1,0-0.2l0.5-0.3C63.2,46.9,63.3,46.9,63.3,46.9z"/>
									</g>
								</g>
								<g id="XMLID_16837_">
									<g id="XMLID_16838_">
										<path id="XMLID_16840_" class="st46" d="M63.4,47.9C63.4,47.9,63.5,47.8,63.4,47.9l0.6-0.4c0.1,0,0.2,0,0.2,0l0.5,0.3
											c0,0,0,0,0,0.1V48c0,0,0,0.1,0,0.1l-0.5,0.3c-0.1,0-0.2,0-0.2,0l-0.5-0.3c0,0,0,0,0-0.1L63.4,47.9z"/>
										<path id="XMLID_16839_" class="st45" d="M64.2,47.4l0.5,0.3c0.1,0,0.1,0.1,0,0.2l-0.5,0.3c-0.1,0-0.2,0-0.2,0l-0.5-0.3
											c-0.1,0-0.1-0.1,0-0.2l0.5-0.3C64.1,47.4,64.2,47.4,64.2,47.4z"/>
									</g>
								</g>
							</g>
							<g id="XMLID_16831_">
								<g id="XMLID_16832_">
									<g id="XMLID_16833_">
										<path id="XMLID_16835_" class="st46" d="M64.3,48.4C64.3,48.4,64.4,48.3,64.3,48.4l0.6-0.4c0.1,0,0.2,0,0.2,0l0.5,0.3
											c0,0,0,0,0,0.1l0,0.1c0,0,0,0.1,0,0.1l-0.5,0.3c-0.1,0-0.2,0-0.2,0l-0.5-0.3c0,0,0,0,0-0.1L64.3,48.4z"/>
										<path id="XMLID_16834_" class="st45" d="M65.1,47.9l0.5,0.3c0.1,0,0.1,0.1,0,0.2l-0.5,0.3c-0.1,0-0.2,0-0.2,0l-0.5-0.3
											c-0.1,0-0.1-0.1,0-0.2l0.5-0.3C65,47.9,65.1,47.9,65.1,47.9z"/>
									</g>
								</g>
							</g>
						</g>
						<g id="XMLID_16766_">
							<g id="XMLID_16825_">
								<g id="XMLID_16826_">
									<g id="XMLID_16827_">
										<path id="XMLID_16829_" class="st46" d="M63.1,48.7C63.1,48.7,63.2,48.7,63.1,48.7l0.6-0.4c0.1,0,0.2,0,0.2,0l0.8,0.5
											c0,0,0,0,0,0.1l0,0.1c0,0,0,0.1,0,0.1l-0.5,0.3c-0.1,0-0.2,0-0.2,0l-0.8-0.5c0,0,0,0,0-0.1L63.1,48.7z"/>
										<path id="XMLID_16828_" class="st45" d="M63.9,48.3l0.8,0.5c0.1,0,0.1,0.1,0,0.2l-0.5,0.3c-0.1,0-0.2,0-0.2,0l-0.8-0.5
											c-0.1,0-0.1-0.1,0-0.2l0.5-0.3C63.8,48.2,63.9,48.2,63.9,48.3z"/>
									</g>
								</g>
							</g>
							<g id="XMLID_16770_">
								<g id="XMLID_16821_">
									<g id="XMLID_16822_">
										<path id="XMLID_16824_" class="st46" d="M52.4,42.5C52.4,42.5,52.4,42.4,52.4,42.5l0.6-0.4c0.1,0,0.2,0,0.2,0l0.5,0.3
											c0,0,0,0,0,0.1l0,0.1c0,0,0,0.1,0,0.1L53.2,43c-0.1,0-0.2,0-0.2,0l-0.5-0.3c0,0,0,0,0-0.1L52.4,42.5z"/>
										<path id="XMLID_16823_" class="st45" d="M53.2,42l0.5,0.3c0.1,0,0.1,0.1,0,0.2l-0.5,0.3c-0.1,0-0.2,0-0.2,0l-0.5-0.3
											c-0.1,0-0.1-0.1,0-0.2l0.5-0.3C53,42,53.1,42,53.2,42z"/>
									</g>
								</g>
								<g id="XMLID_16812_">
									<g id="XMLID_16817_">
										<g id="XMLID_16818_">
											<path id="XMLID_16820_" class="st46" d="M53.3,43C53.3,43,53.3,43,53.3,43l0.6-0.4c0.1,0,0.2,0,0.2,0l0.5,0.3
												c0,0,0,0,0,0.1v0.1c0,0,0,0.1,0,0.1l-0.5,0.3c-0.1,0-0.2,0-0.2,0l-0.5-0.3c0,0,0,0,0-0.1V43z"/>
											<path id="XMLID_16819_" class="st45" d="M54.1,42.6l0.5,0.3c0.1,0,0.1,0.1,0,0.2l-0.5,0.3c-0.1,0-0.2,0-0.2,0L53.3,43
												c-0.1,0-0.1-0.1,0-0.2l0.5-0.3C53.9,42.5,54,42.5,54.1,42.6z"/>
										</g>
									</g>
									<g id="XMLID_16813_">
										<g id="XMLID_16814_">
											<path id="XMLID_16816_" class="st46" d="M54.2,43.5C54.2,43.5,54.2,43.5,54.2,43.5l0.6-0.4c0.1,0,0.2,0,0.2,0l0.5,0.3
												c0,0,0,0,0,0.1l0,0.1c0,0,0,0.1,0,0.1L55,44c-0.1,0-0.2,0-0.2,0l-0.5-0.3c0,0,0,0,0-0.1L54.2,43.5z"/>
											<path id="XMLID_16815_" class="st45" d="M55,43.1l0.5,0.3c0.1,0,0.1,0.1,0,0.2L55,43.8c-0.1,0-0.2,0-0.2,0l-0.5-0.3
												c-0.1,0-0.1-0.1,0-0.2l0.5-0.3C54.8,43,54.9,43,55,43.1z"/>
										</g>
									</g>
								</g>
								<g id="XMLID_16803_">
									<g id="XMLID_16808_">
										<g id="XMLID_16809_">
											<path id="XMLID_16811_" class="st46" d="M55.1,44.1C55.1,44,55.1,44,55.1,44.1l0.6-0.4c0.1,0,0.2,0,0.2,0l0.5,0.3
												c0,0,0,0,0,0.1v0.1c0,0,0,0.1,0,0.1l-0.5,0.3c-0.1,0-0.2,0-0.2,0l-0.5-0.3c0,0,0,0,0-0.1L55.1,44.1z"/>
											<path id="XMLID_16810_" class="st45" d="M55.9,43.6l0.5,0.3c0.1,0,0.1,0.1,0,0.2l-0.5,0.3c-0.1,0-0.2,0-0.2,0l-0.5-0.3
												c-0.1,0-0.1-0.1,0-0.2l0.5-0.3C55.7,43.6,55.8,43.6,55.9,43.6z"/>
										</g>
									</g>
									<g id="XMLID_16804_">
										<g id="XMLID_16805_">
											<path id="XMLID_16807_" class="st46" d="M56,44.6C56,44.5,56,44.5,56,44.6l0.6-0.4c0.1,0,0.2,0,0.2,0l0.5,0.3
												c0,0,0,0,0,0.1l0,0.1c0,0,0,0.1,0,0.1l-0.5,0.3c-0.1,0-0.2,0-0.2,0L56,44.8c0,0,0,0,0-0.1L56,44.6z"/>
											<path id="XMLID_16806_" class="st45" d="M56.8,44.1l0.5,0.3c0.1,0,0.1,0.1,0,0.2l-0.5,0.3c-0.1,0-0.2,0-0.2,0L56,44.6
												c-0.1,0-0.1-0.1,0-0.2l0.5-0.3C56.6,44.1,56.7,44.1,56.8,44.1z"/>
										</g>
									</g>
								</g>
								<g id="XMLID_16794_">
									<g id="XMLID_16799_">
										<g id="XMLID_16800_">
											<path id="XMLID_16802_" class="st46" d="M56.9,45.1C56.9,45.1,56.9,45,56.9,45.1l0.6-0.4c0.1,0,0.2,0,0.2,0l0.5,0.3
												c0,0,0,0,0,0.1v0.1c0,0,0,0.1,0,0.1l-0.5,0.3c-0.1,0-0.2,0-0.2,0l-0.5-0.3c0,0,0,0,0-0.1L56.9,45.1z"/>
											<path id="XMLID_16801_" class="st45" d="M57.7,44.6l0.5,0.3c0.1,0,0.1,0.1,0,0.2l-0.5,0.3c-0.1,0-0.2,0-0.2,0l-0.5-0.3
												c-0.1,0-0.1-0.1,0-0.2l0.5-0.3C57.5,44.6,57.6,44.6,57.7,44.6z"/>
										</g>
									</g>
									<g id="XMLID_16795_">
										<g id="XMLID_16796_">
											<path id="XMLID_16798_" class="st46" d="M57.8,45.6C57.8,45.6,57.8,45.6,57.8,45.6l0.6-0.4c0.1,0,0.2,0,0.2,0l0.5,0.3
												c0,0,0,0,0,0.1v0.1c0,0,0,0.1,0,0.1l-0.5,0.3c-0.1,0-0.2,0-0.2,0l-0.5-0.3c0,0,0,0,0-0.1L57.8,45.6z"/>
											<path id="XMLID_16797_" class="st45" d="M58.6,45.2l0.5,0.3c0.1,0,0.1,0.1,0,0.2l-0.5,0.3c-0.1,0-0.2,0-0.2,0l-0.5-0.3
												c-0.1,0-0.1-0.1,0-0.2l0.5-0.3C58.4,45.1,58.5,45.1,58.6,45.2z"/>
										</g>
									</g>
								</g>
								<g id="XMLID_16785_">
									<g id="XMLID_16790_">
										<g id="XMLID_16791_">
											<path id="XMLID_16793_" class="st46" d="M58.6,46.1C58.7,46.1,58.7,46.1,58.6,46.1l0.6-0.4c0.1,0,0.2,0,0.2,0l0.5,0.3
												c0,0,0,0,0,0.1l0,0.1c0,0,0,0.1,0,0.1l-0.5,0.3c-0.1,0-0.2,0-0.2,0l-0.5-0.3c0,0,0,0,0-0.1L58.6,46.1z"/>
											<path id="XMLID_16792_" class="st45" d="M59.5,45.7L60,46c0.1,0,0.1,0.1,0,0.2l-0.5,0.3c-0.1,0-0.2,0-0.2,0l-0.5-0.3
												c-0.1,0-0.1-0.1,0-0.2l0.5-0.3C59.3,45.6,59.4,45.6,59.5,45.7z"/>
										</g>
									</g>
									<g id="XMLID_16786_">
										<g id="XMLID_16787_">
											<path id="XMLID_16789_" class="st46" d="M59.5,46.7C59.5,46.6,59.6,46.6,59.5,46.7l0.6-0.4c0.1,0,0.2,0,0.2,0l0.5,0.3
												c0,0,0,0,0,0.1l0,0.1c0,0,0,0.1,0,0.1l-0.5,0.3c-0.1,0-0.2,0-0.2,0l-0.5-0.3c0,0,0,0,0-0.1L59.5,46.7z"/>
											<path id="XMLID_16788_" class="st45" d="M60.4,46.2l0.5,0.3c0.1,0,0.1,0.1,0,0.2L60.4,47c-0.1,0-0.2,0-0.2,0l-0.5-0.3
												c-0.1,0-0.1-0.1,0-0.2l0.5-0.3C60.2,46.1,60.3,46.1,60.4,46.2z"/>
										</g>
									</g>
								</g>
								<g id="XMLID_16776_">
									<g id="XMLID_16781_">
										<g id="XMLID_16782_">
											<path id="XMLID_16784_" class="st46" d="M60.4,47.2C60.4,47.1,60.5,47.1,60.4,47.2l0.6-0.4c0.1,0,0.2,0,0.2,0l0.5,0.3
												c0,0,0,0,0,0.1v0.1c0,0,0,0.1,0,0.1l-0.5,0.3c-0.1,0-0.2,0-0.2,0l-0.5-0.3c0,0,0,0,0-0.1L60.4,47.2z"/>
											<path id="XMLID_16783_" class="st45" d="M61.2,46.7l0.5,0.3c0.1,0,0.1,0.1,0,0.2l-0.5,0.3c-0.1,0-0.2,0-0.2,0l-0.5-0.3
												c-0.1,0-0.1-0.1,0-0.2l0.5-0.3C61.1,46.7,61.2,46.7,61.2,46.7z"/>
										</g>
									</g>
									<g id="XMLID_16777_">
										<g id="XMLID_16778_">
											<path id="XMLID_16780_" class="st46" d="M61.3,47.7C61.3,47.7,61.4,47.6,61.3,47.7l0.6-0.4c0.1,0,0.2,0,0.2,0l0.5,0.3
												c0,0,0,0,0,0.1v0.1c0,0,0,0.1,0,0.1l-0.5,0.3c-0.1,0-0.2,0-0.2,0l-0.5-0.3c0,0,0,0,0-0.1L61.3,47.7z"/>
											<path id="XMLID_16779_" class="st45" d="M62.1,47.2l0.5,0.3c0.1,0,0.1,0.1,0,0.2L62.2,48c-0.1,0-0.2,0-0.2,0l-0.5-0.3
												c-0.1,0-0.1-0.1,0-0.2l0.5-0.3C62,47.2,62.1,47.2,62.1,47.2z"/>
										</g>
									</g>
								</g>
								<g id="XMLID_16771_">
									<g id="XMLID_16772_">
										<g id="XMLID_16773_">
											<path id="XMLID_16775_" class="st46" d="M62.2,48.2C62.2,48.2,62.3,48.2,62.2,48.2l0.6-0.4c0.1,0,0.2,0,0.2,0l0.5,0.3
												c0,0,0,0,0,0.1l0,0.1c0,0,0,0.1,0,0.1l-0.5,0.3c-0.1,0-0.2,0-0.2,0l-0.5-0.3c0,0,0,0,0-0.1L62.2,48.2z"/>
											<path id="XMLID_16774_" class="st45" d="M63,47.7l0.5,0.3c0.1,0,0.1,0.1,0,0.2l-0.5,0.3c-0.1,0-0.2,0-0.2,0l-0.5-0.3
												c-0.1,0-0.1-0.1,0-0.2l0.5-0.3C62.9,47.7,63,47.7,63,47.7z"/>
										</g>
									</g>
								</g>
							</g>
							<g id="XMLID_16767_">
								<path id="XMLID_16769_" class="st46" d="M50.6,42.5C50.6,42.5,50.6,42.4,50.6,42.5l1.5-0.9c0.1,0,0.2,0,0.2,0l0.5,0.3
									c0,0,0,0,0,0.1l0,0.1c0,0,0,0.1,0,0.1l-0.5,0.3c-0.1,0-0.1,0-0.2,0l-0.1,0l-0.8,0.4c-0.1,0-0.2,0-0.2,0l-0.4-0.2
									c0,0,0,0,0-0.1L50.6,42.5z"/>
								<path id="XMLID_16768_" class="st45" d="M50.6,42.3l1-0.6c0,0,0,0,0,0l0.4-0.2c0.1,0,0.2,0,0.2,0l0.5,0.3
									c0.1,0,0.1,0.1,0,0.2l-0.5,0.3c-0.1,0-0.1,0-0.2,0l-0.1,0l-0.8,0.4c-0.1,0-0.2,0-0.2,0l-0.4-0.2
									C50.6,42.5,50.6,42.4,50.6,42.3z"/>
							</g>
						</g>
						<g id="XMLID_16705_">
							<g id="XMLID_16760_">
								<g id="XMLID_16761_">
									<g id="XMLID_16762_">
										<g id="XMLID_16763_">
											<path id="XMLID_16765_" class="st46" d="M62.1,49.2C62.1,49.1,62.1,49.1,62.1,49.2l0.6-0.4c0.1,0,0.2,0,0.2,0l1,0.6
												c0,0,0,0,0,0.1l0,0.1c0,0,0,0.1,0,0.1l-0.5,0.3c-0.1,0-0.2,0-0.2,0l-1-0.6c0,0,0,0,0-0.1L62.1,49.2z"/>
											<path id="XMLID_16764_" class="st45" d="M62.9,48.7l1,0.6c0.1,0,0.1,0.1,0,0.2l-0.5,0.3c-0.1,0-0.2,0-0.2,0l-1-0.6
												c-0.1,0-0.1-0.1,0-0.2l0.5-0.3C62.7,48.7,62.8,48.7,62.9,48.7z"/>
										</g>
									</g>
								</g>
							</g>
							<g id="XMLID_16756_">
								<g id="XMLID_16757_">
									<path id="XMLID_16759_" class="st46" d="M51.3,42.9C51.3,42.9,51.3,42.9,51.3,42.9l0.6-0.4c0.1,0,0.2,0,0.2,0l0.5,0.3
										c0,0,0,0,0,0.1V43c0,0,0,0.1,0,0.1l-0.5,0.3c-0.1,0-0.2,0-0.2,0l-0.5-0.3c0,0,0,0,0-0.1L51.3,42.9z"/>
									<path id="XMLID_16758_" class="st45" d="M52.1,42.5l0.5,0.3c0.1,0,0.1,0.1,0,0.2l-0.5,0.3c-0.1,0-0.2,0-0.2,0l-0.5-0.3
										c-0.1,0-0.1-0.1,0-0.2l0.5-0.3C52,42.4,52,42.4,52.1,42.5z"/>
								</g>
							</g>
							<g id="XMLID_16747_">
								<g id="XMLID_16752_">
									<g id="XMLID_16753_">
										<path id="XMLID_16755_" class="st46" d="M52.2,43.4C52.2,43.4,52.2,43.4,52.2,43.4l0.6-0.4c0.1,0,0.2,0,0.2,0l0.5,0.3
											c0,0,0,0,0,0.1l0,0.1c0,0,0,0.1,0,0.1L53,43.9c-0.1,0-0.2,0-0.2,0l-0.5-0.3c0,0,0,0,0-0.1L52.2,43.4z"/>
										<path id="XMLID_16754_" class="st45" d="M53,43l0.5,0.3c0.1,0,0.1,0.1,0,0.2L53,43.7c-0.1,0-0.2,0-0.2,0l-0.5-0.3
											c-0.1,0-0.1-0.1,0-0.2l0.5-0.3C52.9,42.9,52.9,42.9,53,43z"/>
									</g>
								</g>
								<g id="XMLID_16748_">
									<g id="XMLID_16749_">
										<path id="XMLID_16751_" class="st46" d="M53.1,44C53.1,43.9,53.1,43.9,53.1,44l0.6-0.4c0.1,0,0.2,0,0.2,0l0.5,0.3
											c0,0,0,0,0,0.1l0,0.1c0,0,0,0.1,0,0.1l-0.5,0.3c-0.1,0-0.2,0-0.2,0l-0.5-0.3c0,0,0,0,0-0.1L53.1,44z"/>
										<path id="XMLID_16750_" class="st45" d="M53.9,43.5l0.5,0.3c0.1,0,0.1,0.1,0,0.2l-0.5,0.3c-0.1,0-0.2,0-0.2,0L53.2,44
											c-0.1,0-0.1-0.1,0-0.2l0.5-0.3C53.7,43.5,53.8,43.5,53.9,43.5z"/>
									</g>
								</g>
							</g>
							<g id="XMLID_16738_">
								<g id="XMLID_16743_">
									<g id="XMLID_16744_">
										<path id="XMLID_16746_" class="st46" d="M54,44.5C54,44.5,54,44.4,54,44.5l0.6-0.4c0.1,0,0.2,0,0.2,0l0.5,0.3
											c0,0,0,0,0,0.1v0.1c0,0,0,0.1,0,0.1L54.8,45c-0.1,0-0.2,0-0.2,0l-0.5-0.3c0,0,0,0,0-0.1L54,44.5z"/>
										<path id="XMLID_16745_" class="st45" d="M54.8,44l0.5,0.3c0.1,0,0.1,0.1,0,0.2l-0.5,0.3c-0.1,0-0.2,0-0.2,0l-0.5-0.3
											c-0.1,0-0.1-0.1,0-0.2l0.5-0.3C54.6,44,54.7,44,54.8,44z"/>
									</g>
								</g>
								<g id="XMLID_16739_">
									<g id="XMLID_16740_">
										<path id="XMLID_16742_" class="st46" d="M54.9,45C54.9,45,54.9,44.9,54.9,45l0.6-0.4c0.1,0,0.2,0,0.2,0l0.5,0.3
											c0,0,0,0,0,0.1v0.1c0,0,0,0.1,0,0.1l-0.5,0.3c-0.1,0-0.2,0-0.2,0L55,45.2c0,0,0,0,0-0.1L54.9,45z"/>
										<path id="XMLID_16741_" class="st45" d="M55.7,44.5l0.5,0.3c0.1,0,0.1,0.1,0,0.2l-0.5,0.3c-0.1,0-0.2,0-0.2,0L55,45
											c-0.1,0-0.1-0.1,0-0.2l0.5-0.3C55.5,44.5,55.6,44.5,55.7,44.5z"/>
									</g>
								</g>
							</g>
							<g id="XMLID_16729_">
								<g id="XMLID_16734_">
									<g id="XMLID_16735_">
										<path id="XMLID_16737_" class="st46" d="M55.8,45.5C55.8,45.5,55.8,45.5,55.8,45.5l0.6-0.4c0.1,0,0.2,0,0.2,0l0.5,0.3
											c0,0,0,0,0,0.1l0,0.1c0,0,0,0.1,0,0.1L56.6,46c-0.1,0-0.2,0-0.2,0l-0.5-0.3c0,0,0,0,0-0.1L55.8,45.5z"/>
										<path id="XMLID_16736_" class="st45" d="M56.6,45.1l0.5,0.3c0.1,0,0.1,0.1,0,0.2l-0.5,0.3c-0.1,0-0.2,0-0.2,0l-0.5-0.3
											c-0.1,0-0.1-0.1,0-0.2l0.5-0.3C56.4,45,56.5,45,56.6,45.1z"/>
									</g>
								</g>
								<g id="XMLID_16730_">
									<g id="XMLID_16731_">
										<path id="XMLID_16733_" class="st46" d="M56.7,46C56.7,46,56.7,46,56.7,46l0.6-0.4c0.1,0,0.2,0,0.2,0L58,46c0,0,0,0,0,0.1
											l0,0.1c0,0,0,0.1,0,0.1l-0.5,0.3c-0.1,0-0.2,0-0.2,0l-0.5-0.3c0,0,0,0,0-0.1L56.7,46z"/>
										<path id="XMLID_16732_" class="st45" d="M57.5,45.6l0.5,0.3c0.1,0,0.1,0.1,0,0.2l-0.5,0.3c-0.1,0-0.2,0-0.2,0L56.7,46
											c-0.1,0-0.1-0.1,0-0.2l0.5-0.3C57.3,45.5,57.4,45.5,57.5,45.6z"/>
									</g>
								</g>
							</g>
							<g id="XMLID_16720_">
								<g id="XMLID_16725_">
									<g id="XMLID_16726_">
										<path id="XMLID_16728_" class="st46" d="M57.6,46.6C57.6,46.5,57.6,46.5,57.6,46.6l0.6-0.4c0.1,0,0.2,0,0.2,0l0.5,0.3
											c0,0,0,0,0,0.1v0.1c0,0,0,0.1,0,0.1L58.4,47c-0.1,0-0.2,0-0.2,0l-0.5-0.3c0,0,0,0,0-0.1L57.6,46.6z"/>
										<path id="XMLID_16727_" class="st45" d="M58.4,46.1l0.5,0.3c0.1,0,0.1,0.1,0,0.2l-0.5,0.3c-0.1,0-0.2,0-0.2,0l-0.5-0.3
											c-0.1,0-0.1-0.1,0-0.2l0.5-0.3C58.2,46.1,58.3,46.1,58.4,46.1z"/>
									</g>
								</g>
								<g id="XMLID_16721_">
									<g id="XMLID_16722_">
										<path id="XMLID_16724_" class="st46" d="M58.5,47.1C58.5,47,58.5,47,58.5,47.1l0.6-0.4c0.1,0,0.2,0,0.2,0l0.5,0.3
											c0,0,0,0,0,0.1l0,0.1c0,0,0,0.1,0,0.1l-0.5,0.3c-0.1,0-0.2,0-0.2,0l-0.5-0.3c0,0,0,0,0-0.1L58.5,47.1z"/>
										<path id="XMLID_16723_" class="st45" d="M59.3,46.6l0.5,0.3c0.1,0,0.1,0.1,0,0.2l-0.5,0.3c-0.1,0-0.2,0-0.2,0l-0.5-0.3
											c-0.1,0-0.1-0.1,0-0.2l0.5-0.3C59.1,46.6,59.2,46.6,59.3,46.6z"/>
									</g>
								</g>
							</g>
							<g id="XMLID_16711_">
								<g id="XMLID_16716_">
									<g id="XMLID_16717_">
										<path id="XMLID_16719_" class="st46" d="M59.4,47.6C59.4,47.6,59.4,47.5,59.4,47.6l0.6-0.4c0.1,0,0.2,0,0.2,0l0.5,0.3
											c0,0,0,0,0,0.1v0.1c0,0,0,0.1,0,0.1l-0.5,0.3c-0.1,0-0.2,0-0.2,0l-0.5-0.3c0,0,0,0,0-0.1L59.4,47.6z"/>
										<path id="XMLID_16718_" class="st45" d="M60.2,47.1l0.5,0.3c0.1,0,0.1,0.1,0,0.2l-0.5,0.3c-0.1,0-0.2,0-0.2,0l-0.5-0.3
											c-0.1,0-0.1-0.1,0-0.2l0.5-0.3C60,47.1,60.1,47.1,60.2,47.1z"/>
									</g>
								</g>
								<g id="XMLID_16712_">
									<g id="XMLID_16713_">
										<path id="XMLID_16715_" class="st46" d="M60.3,48.1C60.3,48.1,60.3,48.1,60.3,48.1l0.6-0.4c0.1,0,0.2,0,0.2,0l0.5,0.3
											c0,0,0,0,0,0.1l0,0.1c0,0,0,0.1,0,0.1l-0.5,0.3c-0.1,0-0.2,0-0.2,0l-0.5-0.3c0,0,0,0,0-0.1L60.3,48.1z"/>
										<path id="XMLID_16714_" class="st45" d="M61.1,47.7l0.5,0.3c0.1,0,0.1,0.1,0,0.2l-0.5,0.3c-0.1,0-0.2,0-0.2,0l-0.5-0.3
											c-0.1,0-0.1-0.1,0-0.2l0.5-0.3C60.9,47.6,61,47.6,61.1,47.7z"/>
									</g>
								</g>
							</g>
							<g id="XMLID_16706_">
								<g id="XMLID_16707_">
									<g id="XMLID_16708_">
										<path id="XMLID_16710_" class="st46" d="M61.2,48.6C61.2,48.6,61.2,48.6,61.2,48.6l0.6-0.4c0.1,0,0.2,0,0.2,0l0.5,0.3
											c0,0,0,0,0,0.1v0.1c0,0,0,0.1,0,0.1L62,49.1c-0.1,0-0.2,0-0.2,0l-0.5-0.3c0,0,0,0,0-0.1L61.2,48.6z"/>
										<path id="XMLID_16709_" class="st45" d="M62,48.2l0.5,0.3c0.1,0,0.1,0.1,0,0.2L62,48.9c-0.1,0-0.2,0-0.2,0l-0.5-0.3
											c-0.1,0-0.1-0.1,0-0.2l0.5-0.3C61.8,48.1,61.9,48.1,62,48.2z"/>
									</g>
								</g>
							</g>
						</g>
						<g id="XMLID_16644_">
							<g id="XMLID_16700_">
								<g id="XMLID_16701_">
									<g id="XMLID_16702_">
										<path id="XMLID_16704_" class="st46" d="M61.5,49.8C61.5,49.8,61.5,49.8,61.5,49.8l0.6-0.4c0.1,0,0.2,0,0.2,0l0.7,0.4
											c0,0,0,0,0,0.1V50c0,0,0,0.1,0,0.1l-0.5,0.3c-0.1,0-0.2,0-0.2,0L61.6,50c0,0,0,0,0-0.1L61.5,49.8z"/>
										<path id="XMLID_16703_" class="st45" d="M62.3,49.4l0.7,0.4c0.1,0,0.1,0.1,0,0.2l-0.5,0.3c-0.1,0-0.2,0-0.2,0l-0.7-0.4
											c-0.1,0-0.1-0.1,0-0.2l0.5-0.3C62.1,49.3,62.2,49.3,62.3,49.4z"/>
									</g>
								</g>
							</g>
							<g id="XMLID_16645_">
								<g id="XMLID_16696_">
									<g id="XMLID_16697_">
										<path id="XMLID_16699_" class="st46" d="M49.7,43C49.7,43,49.7,43,49.7,43l0.6-0.4c0.1,0,0.2,0,0.2,0l1.6,0.9
											c0,0,0,0,0,0.1l0,0.1c0,0,0,0.1,0,0.1l-0.5,0.3c-0.1,0-0.2,0-0.2,0l-1.6-0.9c0,0,0,0,0-0.1L49.7,43z"/>
										<path id="XMLID_16698_" class="st45" d="M50.5,42.6l1.6,0.9c0.1,0,0.1,0.1,0,0.2l-0.5,0.3c-0.1,0-0.2,0-0.2,0L49.7,43
											c-0.1,0-0.1-0.1,0-0.2l0.5-0.3C50.3,42.5,50.4,42.5,50.5,42.6z"/>
									</g>
								</g>
								<g id="XMLID_16687_">
									<g id="XMLID_16692_">
										<g id="XMLID_16693_">
											<path id="XMLID_16695_" class="st46" d="M51.6,44.1C51.6,44.1,51.7,44.1,51.6,44.1l0.6-0.4c0.1,0,0.2,0,0.2,0l0.5,0.3
												c0,0,0,0,0,0.1l0,0.1c0,0,0,0.1,0,0.1l-0.5,0.3c-0.1,0-0.2,0-0.2,0l-0.5-0.3c0,0,0,0,0-0.1L51.6,44.1z"/>
											<path id="XMLID_16694_" class="st45" d="M52.4,43.7L53,44c0.1,0,0.1,0.1,0,0.2l-0.5,0.3c-0.1,0-0.2,0-0.2,0l-0.5-0.3
												c-0.1,0-0.1-0.1,0-0.2l0.5-0.3C52.3,43.6,52.4,43.6,52.4,43.7z"/>
										</g>
									</g>
									<g id="XMLID_16688_">
										<g id="XMLID_16689_">
											<path id="XMLID_16691_" class="st46" d="M52.5,44.7C52.5,44.6,52.6,44.6,52.5,44.7l0.6-0.4c0.1,0,0.2,0,0.2,0l0.5,0.3
												c0,0,0,0,0,0.1v0.1c0,0,0,0.1,0,0.1l-0.5,0.3c-0.1,0-0.2,0-0.2,0l-0.5-0.3c0,0,0,0,0-0.1L52.5,44.7z"/>
											<path id="XMLID_16690_" class="st45" d="M53.3,44.2l0.5,0.3c0.1,0,0.1,0.1,0,0.2L53.4,45c-0.1,0-0.2,0-0.2,0l-0.5-0.3
												c-0.1,0-0.1-0.1,0-0.2l0.5-0.3C53.2,44.2,53.3,44.2,53.3,44.2z"/>
										</g>
									</g>
								</g>
								<g id="XMLID_16678_">
									<g id="XMLID_16683_">
										<g id="XMLID_16684_">
											<path id="XMLID_16686_" class="st46" d="M53.4,45.2C53.4,45.2,53.4,45.1,53.4,45.2l0.6-0.4c0.1,0,0.2,0,0.2,0l0.5,0.3
												c0,0,0,0,0,0.1v0.1c0,0,0,0.1,0,0.1l-0.5,0.3c-0.1,0-0.2,0-0.2,0l-0.5-0.3c0,0,0,0,0-0.1L53.4,45.2z"/>
											<path id="XMLID_16685_" class="st45" d="M54.2,44.7l0.5,0.3c0.1,0,0.1,0.1,0,0.2l-0.5,0.3c-0.1,0-0.2,0-0.2,0l-0.5-0.3
												c-0.1,0-0.1-0.1,0-0.2l0.5-0.3C54.1,44.7,54.2,44.7,54.2,44.7z"/>
										</g>
									</g>
									<g id="XMLID_16679_">
										<g id="XMLID_16680_">
											<path id="XMLID_16682_" class="st46" d="M54.3,45.7C54.3,45.7,54.3,45.6,54.3,45.7l0.6-0.4c0.1,0,0.2,0,0.2,0l0.5,0.3
												c0,0,0,0,0,0.1l0,0.1c0,0,0,0.1,0,0.1l-0.5,0.3c-0.1,0-0.2,0-0.2,0l-0.5-0.3c0,0,0,0,0-0.1L54.3,45.7z"/>
											<path id="XMLID_16681_" class="st45" d="M55.1,45.2l0.5,0.3c0.1,0,0.1,0.1,0,0.2L55.1,46c-0.1,0-0.2,0-0.2,0l-0.5-0.3
												c-0.1,0-0.1-0.1,0-0.2l0.5-0.3C55,45.2,55.1,45.2,55.1,45.2z"/>
										</g>
									</g>
								</g>
								<g id="XMLID_16669_">
									<g id="XMLID_16674_">
										<g id="XMLID_16675_">
											<path id="XMLID_16677_" class="st46" d="M55.2,46.2C55.2,46.2,55.2,46.2,55.2,46.2l0.6-0.4c0.1,0,0.2,0,0.2,0l0.5,0.3
												c0,0,0,0,0,0.1l0,0.1c0,0,0,0.1,0,0.1L56,46.7c-0.1,0-0.2,0-0.2,0l-0.5-0.3c0,0,0,0,0-0.1L55.2,46.2z"/>
											<path id="XMLID_16676_" class="st45" d="M56,45.8l0.5,0.3c0.1,0,0.1,0.1,0,0.2L56,46.5c-0.1,0-0.2,0-0.2,0l-0.5-0.3
												c-0.1,0-0.1-0.1,0-0.2l0.5-0.3C55.9,45.7,56,45.7,56,45.8z"/>
										</g>
									</g>
									<g id="XMLID_16670_">
										<g id="XMLID_16671_">
											<path id="XMLID_16673_" class="st46" d="M56.1,46.7C56.1,46.7,56.1,46.7,56.1,46.7l0.6-0.4c0.1,0,0.2,0,0.2,0l0.5,0.3
												c0,0,0,0,0,0.1v0.1c0,0,0,0.1,0,0.1l-0.5,0.3c-0.1,0-0.2,0-0.2,0l-0.5-0.3c0,0,0,0,0-0.1L56.1,46.7z"/>
											<path id="XMLID_16672_" class="st45" d="M56.9,46.3l0.5,0.3c0.1,0,0.1,0.1,0,0.2L56.9,47c-0.1,0-0.2,0-0.2,0l-0.5-0.3
												c-0.1,0-0.1-0.1,0-0.2l0.5-0.3C56.8,46.2,56.9,46.2,56.9,46.3z"/>
										</g>
									</g>
								</g>
								<g id="XMLID_16660_">
									<g id="XMLID_16665_">
										<g id="XMLID_16666_">
											<path id="XMLID_16668_" class="st46" d="M57,47.3C57,47.2,57,47.2,57,47.3l0.6-0.4c0.1,0,0.2,0,0.2,0l0.5,0.3
												c0,0,0,0,0,0.1v0.1c0,0,0,0.1,0,0.1l-0.5,0.3c-0.1,0-0.2,0-0.2,0l-0.5-0.3c0,0,0,0,0-0.1L57,47.3z"/>
											<path id="XMLID_16667_" class="st45" d="M57.8,46.8l0.5,0.3c0.1,0,0.1,0.1,0,0.2l-0.5,0.3c-0.1,0-0.2,0-0.2,0l-0.5-0.3
												c-0.1,0-0.1-0.1,0-0.2l0.5-0.3C57.7,46.8,57.8,46.8,57.8,46.8z"/>
										</g>
									</g>
									<g id="XMLID_16661_">
										<g id="XMLID_16662_">
											<path id="XMLID_16664_" class="st46" d="M57.9,47.8C57.9,47.7,57.9,47.7,57.9,47.8l0.6-0.4c0.1,0,0.2,0,0.2,0l0.5,0.3
												c0,0,0,0,0,0.1l0,0.1c0,0,0,0.1,0,0.1l-0.5,0.3c-0.1,0-0.2,0-0.2,0L58,48c0,0,0,0,0-0.1L57.9,47.8z"/>
											<path id="XMLID_16663_" class="st45" d="M58.7,47.3l0.5,0.3c0.1,0,0.1,0.1,0,0.2l-0.5,0.3c-0.1,0-0.2,0-0.2,0L58,47.8
												c-0.1,0-0.1-0.1,0-0.2l0.5-0.3C58.6,47.3,58.7,47.3,58.7,47.3z"/>
										</g>
									</g>
								</g>
								<g id="XMLID_16651_">
									<g id="XMLID_16656_">
										<g id="XMLID_16657_">
											<path id="XMLID_16659_" class="st46" d="M58.8,48.3C58.8,48.3,58.8,48.2,58.8,48.3l0.6-0.4c0.1,0,0.2,0,0.2,0l0.5,0.3
												c0,0,0,0,0,0.1l0,0.1c0,0,0,0.1,0,0.1l-0.5,0.3c-0.1,0-0.2,0-0.2,0l-0.5-0.3c0,0,0,0,0-0.1L58.8,48.3z"/>
											<path id="XMLID_16658_" class="st45" d="M59.6,47.8l0.5,0.3c0.1,0,0.1,0.1,0,0.2l-0.5,0.3c-0.1,0-0.2,0-0.2,0l-0.5-0.3
												c-0.1,0-0.1-0.1,0-0.2l0.5-0.3C59.5,47.8,59.5,47.8,59.6,47.8z"/>
										</g>
									</g>
									<g id="XMLID_16652_">
										<g id="XMLID_16653_">
											<path id="XMLID_16655_" class="st46" d="M59.7,48.8C59.7,48.8,59.7,48.8,59.7,48.8l0.6-0.4c0.1,0,0.2,0,0.2,0l0.5,0.3
												c0,0,0,0,0,0.1v0.1c0,0,0,0.1,0,0.1l-0.5,0.3c-0.1,0-0.2,0-0.2,0L59.8,49c0,0,0,0,0-0.1L59.7,48.8z"/>
											<path id="XMLID_16654_" class="st45" d="M60.5,48.4l0.5,0.3c0.1,0,0.1,0.1,0,0.2l-0.5,0.3c-0.1,0-0.2,0-0.2,0l-0.5-0.3
												c-0.1,0-0.1-0.1,0-0.2l0.5-0.3C60.4,48.3,60.4,48.3,60.5,48.4z"/>
										</g>
									</g>
								</g>
								<g id="XMLID_16646_">
									<g id="XMLID_16647_">
										<g id="XMLID_16648_">
											<path id="XMLID_16650_" class="st46" d="M60.6,49.3C60.6,49.3,60.6,49.3,60.6,49.3l0.6-0.4c0.1,0,0.2,0,0.2,0l0.5,0.3
												c0,0,0,0,0,0.1v0.1c0,0,0,0.1,0,0.1l-0.5,0.3c-0.1,0-0.2,0-0.2,0l-0.5-0.3c0,0,0,0,0-0.1L60.6,49.3z"/>
											<path id="XMLID_16649_" class="st45" d="M61.4,48.9l0.5,0.3c0.1,0,0.1,0.1,0,0.2l-0.5,0.3c-0.1,0-0.2,0-0.2,0l-0.5-0.3
												c-0.1,0-0.1-0.1,0-0.2l0.5-0.3C61.3,48.8,61.3,48.8,61.4,48.9z"/>
										</g>
									</g>
								</g>
							</g>
						</g>
						<g id="XMLID_16587_">
							<g id="XMLID_16603_">
								<g id="XMLID_16639_">
									<g id="XMLID_16640_">
										<g id="XMLID_16641_">
											<path id="XMLID_16643_" class="st46" d="M53.2,46.1C53.2,46,53.2,46,53.2,46.1l0.6-0.4c0.1,0,0.2,0,0.2,0l4.5,2.6
												c0,0,0,0,0,0.1l0,0.1c0,0,0,0.1,0,0.1L58,48.9c-0.1,0-0.2,0-0.2,0l-4.5-2.6c0,0,0,0,0-0.1L53.2,46.1z"/>
											<path id="XMLID_16642_" class="st45" d="M54,45.6l4.5,2.6c0.1,0,0.1,0.1,0,0.2L58,48.7c-0.1,0-0.2,0-0.2,0l-4.5-2.6
												c-0.1,0-0.1-0.1,0-0.2l0.5-0.3C53.8,45.6,53.9,45.6,54,45.6z"/>
										</g>
									</g>
								</g>
								<g id="XMLID_16634_">
									<g id="XMLID_16635_">
										<g id="XMLID_16636_">
											<path id="XMLID_16638_" class="st46" d="M60.9,50.5C60.9,50.5,60.9,50.5,60.9,50.5l0.6-0.4c0.1,0,0.2,0,0.2,0l0.4,0.3
												c0,0,0,0,0,0.1l0,0.1c0,0,0,0.1,0,0.1L61.6,51c-0.1,0-0.2,0-0.2,0l-0.4-0.3c0,0,0,0,0-0.1L60.9,50.5z"/>
											<path id="XMLID_16637_" class="st45" d="M61.7,50.1l0.4,0.3c0.1,0,0.1,0.1,0,0.2l-0.5,0.3c-0.1,0-0.2,0-0.2,0l-0.4-0.3
												c-0.1,0-0.1-0.1,0-0.2l0.5-0.3C61.5,50,61.6,50,61.7,50.1z"/>
										</g>
									</g>
								</g>
								<g id="XMLID_16629_">
									<g id="XMLID_16630_">
										<g id="XMLID_16631_">
											<path id="XMLID_16633_" class="st46" d="M60,50C60.1,50,60.1,50,60,50l0.6-0.4c0.1,0,0.2,0,0.2,0l0.4,0.3c0,0,0,0,0,0.1
												v0.1c0,0,0,0.1,0,0.1l-0.5,0.3c-0.1,0-0.2,0-0.2,0l-0.4-0.3c0,0,0,0,0-0.1L60,50z"/>
											<path id="XMLID_16632_" class="st45" d="M60.9,49.6l0.4,0.3c0.1,0,0.1,0.1,0,0.2l-0.5,0.3c-0.1,0-0.2,0-0.2,0L60.1,50
												c-0.1,0-0.1-0.1,0-0.2l0.5-0.3C60.7,49.5,60.8,49.5,60.9,49.6z"/>
										</g>
									</g>
								</g>
								<g id="XMLID_16624_">
									<g id="XMLID_16625_">
										<g id="XMLID_16626_">
											<path id="XMLID_16628_" class="st46" d="M59.2,49.6C59.2,49.5,59.2,49.5,59.2,49.6l0.6-0.4c0.1,0,0.2,0,0.2,0l0.4,0.3
												c0,0,0,0,0,0.1l0,0.1c0,0,0,0.1,0,0.1L60,50c-0.1,0-0.2,0-0.2,0l-0.4-0.3c0,0,0,0,0-0.1L59.2,49.6z"/>
											<path id="XMLID_16627_" class="st45" d="M60,49.1l0.4,0.3c0.1,0,0.1,0.1,0,0.2L60,49.8c-0.1,0-0.2,0-0.2,0l-0.4-0.3
												c-0.1,0-0.1-0.1,0-0.2l0.5-0.3C59.9,49.1,60,49.1,60,49.1z"/>
										</g>
									</g>
								</g>
								<g id="XMLID_16619_">
									<g id="XMLID_16620_">
										<g id="XMLID_16621_">
											<path id="XMLID_16623_" class="st46" d="M58.1,48.9C58.1,48.9,58.1,48.8,58.1,48.9l0.6-0.4c0.1,0,0.2,0,0.2,0l0.8,0.4
												c0,0,0,0,0,0.1l0,0.1c0,0,0,0.1,0,0.1l-0.5,0.3c-0.1,0-0.2,0-0.2,0l-0.8-0.4c0,0,0,0,0-0.1L58.1,48.9z"/>
											<path id="XMLID_16622_" class="st45" d="M58.9,48.4l0.8,0.4c0.1,0,0.1,0.1,0,0.2l-0.5,0.3c-0.1,0-0.2,0-0.2,0l-0.8-0.4
												c-0.1,0-0.1-0.1,0-0.2l0.5-0.3C58.7,48.4,58.8,48.4,58.9,48.4z"/>
										</g>
									</g>
								</g>
								<g id="XMLID_16614_">
									<g id="XMLID_16615_">
										<g id="XMLID_16616_">
											<path id="XMLID_16618_" class="st46" d="M52.1,45.4C52.1,45.4,52.1,45.4,52.1,45.4l0.6-0.4c0.1,0,0.2,0,0.2,0l0.8,0.4
												c0,0,0,0,0,0.1v0.1c0,0,0,0.1,0,0.1L53.1,46c-0.1,0-0.2,0-0.2,0l-0.8-0.4c0,0,0,0,0-0.1L52.1,45.4z"/>
											<path id="XMLID_16617_" class="st45" d="M52.9,45l0.8,0.4c0.1,0,0.1,0.1,0,0.2l-0.5,0.3c-0.1,0-0.2,0-0.2,0l-0.8-0.4
												c-0.1,0-0.1-0.1,0-0.2l0.5-0.3C52.7,44.9,52.8,44.9,52.9,45z"/>
										</g>
									</g>
								</g>
								<g id="XMLID_16609_">
									<g id="XMLID_16610_">
										<g id="XMLID_16611_">
											<path id="XMLID_16613_" class="st46" d="M51.2,44.9C51.2,44.9,51.3,44.9,51.2,44.9l0.6-0.4c0.1,0,0.2,0,0.2,0l0.4,0.3
												c0,0,0,0,0,0.1l0,0.1c0,0,0,0.1,0,0.1L52,45.4c-0.1,0-0.2,0-0.2,0l-0.4-0.3c0,0,0,0,0-0.1L51.2,44.9z"/>
											<path id="XMLID_16612_" class="st45" d="M52,44.5l0.4,0.3c0.1,0,0.1,0.1,0,0.2L52,45.2c-0.1,0-0.2,0-0.2,0l-0.4-0.3
												c-0.1,0-0.1-0.1,0-0.2l0.5-0.3C51.9,44.4,52,44.4,52,44.5z"/>
										</g>
									</g>
								</g>
								<g id="XMLID_16604_">
									<g id="XMLID_16605_">
										<g id="XMLID_16606_">
											<path id="XMLID_16608_" class="st46" d="M48.8,43.5C48.8,43.5,48.8,43.5,48.8,43.5l0.1-0.1c0.1,0,0.2,0,0.2,0l0.4,0.3
												c0,0,0,0,0,0.1v0.1c0,0,0,0.1,0,0.1L49.5,44c-0.1,0-0.2,0-0.2,0l-0.4-0.3c0,0,0,0,0-0.1L48.8,43.5z"/>
											<path id="XMLID_16607_" class="st45" d="M49.2,43.3l0.4,0.3c0.1,0,0.1,0.1,0,0.2l-0.1,0.1c-0.1,0-0.2,0-0.2,0l-0.4-0.3
												c-0.1,0-0.1-0.1,0-0.2l0.1-0.1C49,43.3,49.1,43.3,49.2,43.3z"/>
										</g>
									</g>
								</g>
							</g>
							<g id="XMLID_16598_">
								<g id="XMLID_16599_">
									<g id="XMLID_16600_">
										<path id="XMLID_16602_" class="st46" d="M50.4,44.5C50.4,44.4,50.4,44.4,50.4,44.5l0.1-0.1c0.1,0,0.2,0,0.2,0l0.4,0.3
											c0,0,0,0,0,0.1v0.1c0,0,0,0.1,0,0.1l-0.1,0.1c-0.1,0-0.2,0-0.2,0l-0.4-0.3c0,0,0,0,0-0.1L50.4,44.5z"/>
										<path id="XMLID_16601_" class="st45" d="M50.8,44.3l0.4,0.3c0.1,0,0.1,0.1,0,0.2l-0.1,0.1c-0.1,0-0.2,0-0.2,0l-0.4-0.3
											c-0.1,0-0.1-0.1,0-0.2l0.1-0.1C50.6,44.2,50.7,44.2,50.8,44.3z"/>
									</g>
								</g>
							</g>
							<g id="XMLID_16593_">
								<g id="XMLID_16594_">
									<g id="XMLID_16595_">
										<path id="XMLID_16597_" class="st46" d="M50,43.8C50,43.7,50.1,43.7,50,43.8l0.1-0.1c0.1,0,0.2,0,0.2,0l0.4,0.3
											c0,0,0,0,0,0.1v0.1c0,0,0,0.1,0,0.1l-0.1,0.1c-0.1,0-0.2,0-0.2,0l-0.4-0.3c0,0,0,0,0-0.1L50,43.8z"/>
										<path id="XMLID_16596_" class="st45" d="M50.4,43.5l0.4,0.3c0.1,0,0.1,0.1,0,0.2L50.8,44c-0.1,0-0.2,0-0.2,0l-0.4-0.3
											c-0.1,0-0.1-0.1,0-0.2l0.1-0.1C50.2,43.5,50.3,43.5,50.4,43.5z"/>
									</g>
								</g>
							</g>
							<g id="XMLID_16588_">
								<g id="XMLID_16589_">
									<g id="XMLID_16590_">
										<path id="XMLID_16592_" class="st46" d="M49.6,44C49.6,44,49.6,43.9,49.6,44l0.1-0.1c0.1,0,0.2,0,0.2,0l0.4,0.3
											c0,0,0,0,0,0.1l0,0.1c0,0,0,0.1,0,0.1l-0.1,0.1c-0.1,0-0.2,0-0.2,0l-0.4-0.3c0,0,0,0,0-0.1L49.6,44z"/>
										<path id="XMLID_16591_" class="st45" d="M50,43.8l0.4,0.3c0.1,0,0.1,0.1,0,0.2l-0.1,0.1c-0.1,0-0.2,0-0.2,0L49.7,44
											c-0.1,0-0.1-0.1,0-0.2l0.1-0.1C49.8,43.7,49.9,43.7,50,43.8z"/>
									</g>
								</g>
							</g>
						</g>
					</g>
				</g>
			</g>
			<g id="XMLID_16580_">
				<path id="XMLID_16583_" class="st48" d="M42.2,35.3l-4.4,2.5c-0.8,0.5-0.8,1.6,0,2.1l4.4,2.5c0.9,0.5,1.9,0.5,2.8,0l4.4-2.5
					c0.8-0.5,0.8-1.6,0-2.1L45,35.3C44.1,34.8,43.1,34.8,42.2,35.3z"/>
				<path id="XMLID_16582_" class="st49" d="M42.2,35.1l-4.4,2.5c-0.8,0.5-0.8,1.6,0,2.1l4.4,2.5c0.9,0.5,1.9,0.5,2.8,0l4.4-2.5
					c0.8-0.5,0.8-1.6,0-2.1L45,35.1C44.1,34.6,43.1,34.6,42.2,35.1z"/>
				<path id="XMLID_16581_" class="st50" d="M42.2,42.3c0.9,0.5,1.9,0.5,2.8,0l4.4-2.5c0.8-0.5,0.8-1.6,0-2.1L45,35.1
					c-0.9-0.5-1.9-0.5-2.8,0"/>
			</g>
			<g id="XMLID_16568_">
				<g id="XMLID_16578_">
					<path id="XMLID_16579_" class="st51" d="M65.5,36c-4.3-1.3-9.2-2-12.2-1.8c-4.1,0.3-7.7,3.3-7.8,3.3l0.1,0.1c0,0,3.6-3,7.7-3.3
						c3-0.2,7.9,0.5,12.2,1.8L65.5,36z"/>
				</g>
				<g id="XMLID_16569_">
					<g id="XMLID_16575_">
						<g id="XMLID_16576_">
							<path id="XMLID_16577_" class="st51" d="M41.3,38.4l2.1-1.2c0.5-0.3,1.2-0.4,1.9-0.3l0,0c1.4,0.3,1.7,1.6,0.6,2.2l-2.1,1.2
								c-0.5,0.3-1.2,0.4-1.9,0.3l0,0C40.5,40.3,40.2,39.1,41.3,38.4z"/>
						</g>
					</g>
					<g id="XMLID_16572_">
						<path id="XMLID_16574_" class="st52" d="M40.8,38.7c0.1-0.2,0.7-0.9,1.7-1.4c0.6-0.3,1-0.5,1.3-0.5c1.4,0.1,2,1.5,2.2,2
							c-0.2,0.1-0.6,0.2-1,0.5c-0.8,0.5-1.7,1.2-2,1.3c-0.4,0.1-0.7,0.1-1.1,0C40.8,40.2,40.3,39.3,40.8,38.7z"/>
						<path id="XMLID_16573_" class="st53" d="M43.8,36.7c0.2,0,0.3,0,0.5-0.1c0.3,0,0.7,0,1,0.1c1.1,0.3,1.5,1,1.2,1.7
							c-0.1,0.1-0.2,0.2-0.4,0.3C45.8,38.2,45.2,36.8,43.8,36.7z"/>
					</g>
					<g id="XMLID_16570_">
						<path id="XMLID_16571_" class="st52" d="M45.1,37.3c0.2-0.1,0.5-0.2,0.8-0.3c0,0,0.1,0,0.1,0.1C45.8,37.2,45.5,37.2,45.1,37.3
							C45.2,37.4,45.2,37.3,45.1,37.3z"/>
					</g>
				</g>
			</g>
			<g id="XMLID_16554_">
				<g id="XMLID_16562_">
					<path id="XMLID_16567_" class="st47" d="M62,38.7l3.2-1.9c0.8-0.5,1.8-0.5,2.6,0l4.3,2.5c0.3,0.2,0.5,0.5,0.5,0.9
						c0,0.1,0,0.5,0,0.7c0,0.3-0.2,0.6-0.5,0.8L69,43.5c-0.8,0.5-1.8,0.5-2.6,0L62,41c-0.3-0.2-0.5-0.7-0.5-1c0-0.1,0-0.4,0-0.5
						C61.6,39.1,61.7,38.9,62,38.7z"/>
					<path class="st54" d="M67.5,36.7h0.3c0,0,0.1,0,0.1,0.1l4.3,2.5c0.3,0.2,0.5,0.5,0.5,0.9c0,0.1,0,0.5,0,0.7
						c0,0.3-0.2,0.6-0.5,0.8L69,43.5c-0.5,0.3-1,0.4-1.5,0.3V36.7z"/>
					<path id="XMLID_16566_" class="st55" d="M65.3,36.8L62,38.7c-0.7,0.4-0.7,1.3,0,1.7l4.3,2.5c0.8,0.5,1.8,0.5,2.6,0l3.2-1.9
						c0.7-0.4,0.7-1.3,0-1.7l-4.3-2.5C67.1,36.3,66.1,36.3,65.3,36.8z"/>
					<path id="XMLID_16565_" class="st47" d="M66.4,42.9c0.8,0.5,1.8,0.5,2.6,0l3.2-1.9c0.7-0.4,0.7-1.3,0-1.7l-4.3-2.5
						c-0.8-0.5-1.8-0.5-2.6,0"/>
					<path class="st56" d="M66.4,42.9l-1-0.6c0,0,0,0,0,0c0-0.1,0-3.4,0-3.4c0-0.1,0.1-0.3,0.2-0.3l0.8-0.4c0.4-0.2,0.8-0.2,1.2,0
						l1.9,1.1c0.1,0.1,0.2,0.2,0.2,0.4c0,0,0,1.9,0,2.9L69,42.9C68.2,43.4,67.2,43.4,66.4,42.9z"/>
					<g id="XMLID_16563_">
						<path id="XMLID_16564_" class="st57" d="M65.6,35.3l0.8-0.4c0.4-0.2,0.8-0.2,1.2,0l1.9,1.1c0.1,0.1,0.2,0.2,0.2,0.4
							c0,0.1,0,3.4,0,3.5c0,0.1-0.1,0.3-0.2,0.3l-0.8,0.4c-0.4,0.2-0.8,0.2-1.2,0l-1.9-1.1c-0.1-0.1-0.2-0.3-0.2-0.5
							c0-0.1,0-3.4,0-3.4C65.4,35.5,65.4,35.4,65.6,35.3z"/>
					</g>
					<path class="st58" d="M67.9,35.1l1.5,0.9c0.1,0.1,0.2,0.2,0.2,0.4c0,0.1,0,3.4,0,3.5c0,0.1-0.1,0.3-0.2,0.3l-0.8,0.4
						c-0.2,0.1-0.5,0.2-0.7,0.1V35.1z"/>
					<path class="st58" d="M65.6,35.3l0.8-0.4c0.4-0.2,0.8-0.2,1.2,0l1.9,1.1c0.1,0.1,0.2,0.2,0.2,0.4c0,0,0,0.5,0,1.2
						c0,0.4,0,0.6,0,0.7c0,0.1-0.1,0.3-0.2,0.3l-0.8,0.4c-0.4,0.2-0.8,0.2-1.2,0l-1.9-1.1c-0.1-0.1-0.2-0.3-0.2-0.5c0,0,0-0.4,0-0.9
						c0-0.5,0-0.8,0-0.8C65.4,35.5,65.4,35.4,65.6,35.3z"/>
				</g>
				<g id="XMLID_16555_">
					<polygon id="XMLID_16561_" class="st59" points="76.6,27.4 76.6,42.7 77.3,42.3 77.3,27 					"/>
					<polygon id="XMLID_16560_" class="st60" points="76.6,27.4 58.6,17 59.3,16.6 77.3,27 					"/>
					<polygon id="XMLID_16559_" class="st61" points="58.6,17 58.6,32.3 76.6,42.7 76.6,27.4 					"/>
					<polyline id="XMLID_16558_" class="st47" points="76.6,42.7 76.6,27.4 58.6,17 					"/>
					<polygon id="XMLID_16557_" class="st62" points="59.7,18.6 59.7,31.8 75.6,41 75.6,27.8 					"/>
					<polygon id="XMLID_16556_" class="st63" points="59.7,18.6 59.7,31.8 75.6,41 					"/>
					<polygon class="st64" points="75.6,40.6 60,31.6 60,18.8 75.6,27.8 					"/>
					<polygon class="st65" points="59.7,18.6 75.6,27.8 75.6,29 59.7,19.8 					"/>
				</g>
			</g>
		</g>
	</g>
	<g id="XMLID_16993_">
		<g id="XMLID_16994_">
			<path id="XMLID_17002_" class="st66" d="M17.2,31.5l7-4.1c0.2-0.1,0.3-0.1,0.5,0l5.1,2.9c0,0,0,0,0,0c0.6,0.3,0.8,0.9,0.6,1.1
				c0,0-7.4,4.3-7.5,4.3c-0.2,0.1-0.5-0.1-0.5-0.1s-0.1-0.3-0.1-0.3l-5.1-2.9V31.5z"/>
			<path class="st67" d="M24.8,27.4l5.1,2.9c0,0,0,0,0,0c0.1,0.1,0.3,0.2,0.4,0.3c-1.3,0.7-7.2,4.2-7.3,4.2
				c-0.2,0.1-0.5-0.1-0.5-0.1s-0.1-0.3-0.1-0.3l-5.1-2.9v-0.1l7-4.1C24.4,27.3,24.6,27.3,24.8,27.4z"/>
			<path class="st68" d="M29.9,30.4"/>
			<path class="st68" d="M22.9,34.9c-0.2,0.1-0.5-0.1-0.5-0.1s-0.1-0.3-0.1-0.3l-5.1-2.9v-0.1l7-4.1c0.2-0.1,0.3-0.1,0.5,0"/>
			<g id="XMLID_17000_">
				<path id="XMLID_17001_" class="st66" d="M17.4,32.3c-0.1-0.1-0.1-0.2-0.1-0.2c0-0.1,0-0.4,0.1-0.3c0.1,0.1,4,2.3,4.9,2.8
					c0.9,0.5,0.9,1.6,0,1c-0.9-0.5-4.8-2.8-4.9-2.8c-0.1-0.1-0.1-0.1-0.1-0.2C17.3,32.6,17.3,32.2,17.4,32.3L17.4,32.3z"/>
			</g>
			<g id="XMLID_16998_">
				<path id="XMLID_16999_" class="st69" d="M17.4,31.5c0.1,0.1,4.5,2.5,5.4,3c0.6,0.4,0.4,1.8-0.5,1.2c-0.9-0.5-4.9-2.8-5-2.9
					c-0.1-0.1-0.2-0.2-0.2-0.2c0-0.1-0.1-0.3,0.1-0.5c0,0-0.1-0.1-0.1-0.2C17.1,31.5,17.3,31.4,17.4,31.5z"/>
			</g>
			<g id="XMLID_16996_">
				<path id="XMLID_16997_" class="st70" d="M17.4,32.1c-0.1-0.1-0.1-0.2-0.1-0.2c0-0.1,0-0.3,0.1-0.2c0.1,0.1,4.2,2.4,5.1,2.9
					c0.6,0.3,0.3,1.1-0.2,0.8c-0.9-0.5-4.7-2.7-4.9-2.8c-0.1-0.1-0.1-0.1-0.1-0.2c0-0.1,0-0.3,0.1-0.2V32.1z"/>
			</g>
			<path id="XMLID_16995_" class="st69" d="M17.4,32.1c0,0,3.7,2.1,4.7,2.6c0.1,0.1,0.3,0.1,0.3,0.1c0.1,0.1-0.1,0.1-0.1,0.2
				c0,0.1,0.1,0.3-0.1,0.2c0,0-0.1-0.2-0.2-0.2c-0.8-0.5-3.5-2.1-4.6-2.7V32.1z"/>
		</g>
	</g>
	<g id="XMLID_17003_">
		<g id="XMLID_17004_">
			<path id="XMLID_17012_" class="st66" d="M17.2,30.2l7-4.1c0.2-0.1,0.3-0.1,0.5,0l5.1,2.9c0,0,0,0,0,0c0.6,0.3,0.8,0.9,0.6,1.1
				c0,0-7.4,4.3-7.5,4.3c-0.2,0.1-0.5-0.1-0.5-0.1s-0.1-0.3-0.1-0.3l-5.1-2.9V30.2z"/>
			<path class="st67" d="M24.8,26.2l5.1,2.9c0,0,0,0,0,0c0.1,0.1,0.3,0.2,0.4,0.3c-1.3,0.7-7.2,4.2-7.3,4.2
				c-0.2,0.1-0.5-0.1-0.5-0.1s-0.1-0.3-0.1-0.3l-5.1-2.9v-0.1l7-4.1C24.4,26.1,24.6,26.1,24.8,26.2z"/>
			<path class="st68" d="M29.9,29.1"/>
			<path class="st68" d="M22.9,33.6c-0.2,0.1-0.5-0.1-0.5-0.1s-0.1-0.3-0.1-0.3l-5.1-2.9v-0.1l7-4.1c0.2-0.1,0.3-0.1,0.5,0"/>
			<g id="XMLID_17010_">
				<path id="XMLID_17011_" class="st66" d="M17.4,31.1c-0.1-0.1-0.1-0.2-0.1-0.2c0-0.1,0-0.4,0.1-0.3c0.1,0.1,4,2.3,4.9,2.8
					c0.9,0.5,0.9,1.6,0,1c-0.9-0.5-4.8-2.8-4.9-2.8c-0.1-0.1-0.1-0.1-0.1-0.2C17.3,31.3,17.3,31,17.4,31.1L17.4,31.1z"/>
			</g>
			<g id="XMLID_17008_">
				<path id="XMLID_17009_" class="st69" d="M17.4,30.2c0.1,0.1,4.5,2.5,5.4,3c0.6,0.4,0.4,1.8-0.5,1.2c-0.9-0.5-4.9-2.8-5-2.9
					c-0.1-0.1-0.2-0.2-0.2-0.2c0-0.1-0.1-0.3,0.1-0.5c0,0-0.1-0.1-0.1-0.2C17.1,30.2,17.3,30.2,17.4,30.2z"/>
			</g>
			<g id="XMLID_17006_">
				<path id="XMLID_17007_" class="st70" d="M17.4,30.8c-0.1-0.1-0.1-0.2-0.1-0.2c0-0.1,0-0.3,0.1-0.2c0.1,0.1,4.2,2.4,5.1,2.9
					c0.6,0.3,0.3,1.1-0.2,0.8c-0.9-0.5-4.7-2.7-4.9-2.8c-0.1-0.1-0.1-0.1-0.1-0.2s0-0.3,0.1-0.2V30.8z"/>
			</g>
			<path id="XMLID_17005_" class="st69" d="M17.4,30.8c0,0,3.7,2.1,4.7,2.6c0.1,0.1,0.3,0.1,0.3,0.1c0.1,0.1-0.1,0.1-0.1,0.2
				c0,0.1,0.1,0.3-0.1,0.2c0,0-0.1-0.2-0.2-0.2c-0.8-0.5-3.5-2.1-4.6-2.7V30.8z"/>
		</g>
	</g>
	<g id="XMLID_17013_">
		<g id="XMLID_17014_">
			<path id="XMLID_17022_" class="st66" d="M17.2,29l7-4.1c0.2-0.1,0.3-0.1,0.5,0l5.1,2.9c0,0,0,0,0,0c0.6,0.3,0.8,0.9,0.6,1.1
				c0,0-7.4,4.3-7.5,4.3c-0.2,0.1-0.5-0.1-0.5-0.1s-0.1-0.3-0.1-0.3L17.2,30V29z"/>
			<path class="st67" d="M24.8,24.9l5.1,2.9c0,0,0,0,0,0c0.1,0.1,0.3,0.2,0.4,0.3c-1.3,0.7-7.2,4.2-7.3,4.2
				c-0.2,0.1-0.5-0.1-0.5-0.1S22.3,32,22.3,32l-5.1-2.9V29l7-4.1C24.4,24.8,24.6,24.8,24.8,24.9z"/>
			<path class="st68" d="M29.9,27.9"/>
			<path class="st68" d="M22.9,32.4c-0.2,0.1-0.5-0.1-0.5-0.1S22.3,32,22.3,32l-5.1-2.9V29l7-4.1c0.2-0.1,0.3-0.1,0.5,0"/>
			<g id="XMLID_17020_">
				<path id="XMLID_17021_" class="st66" d="M17.4,29.8c-0.1-0.1-0.1-0.2-0.1-0.2c0-0.1,0-0.4,0.1-0.3c0.1,0.1,4,2.3,4.9,2.8
					c0.9,0.5,0.9,1.6,0,1c-0.9-0.5-4.8-2.8-4.9-2.8c-0.1-0.1-0.1-0.1-0.1-0.2C17.3,30.1,17.3,29.7,17.4,29.8L17.4,29.8z"/>
			</g>
			<g id="XMLID_17018_">
				<path id="XMLID_17019_" class="st69" d="M17.4,29c0.1,0.1,4.5,2.5,5.4,3c0.6,0.4,0.4,1.8-0.5,1.2c-0.9-0.5-4.9-2.8-5-2.9
					c-0.1-0.1-0.2-0.2-0.2-0.2c0-0.1-0.1-0.3,0.1-0.5c0,0-0.1-0.1-0.1-0.2C17.1,29,17.3,28.9,17.4,29z"/>
			</g>
			<g id="XMLID_17016_">
				<path id="XMLID_17017_" class="st70" d="M17.4,29.6c-0.1-0.1-0.1-0.2-0.1-0.2c0-0.1,0-0.3,0.1-0.2c0.1,0.1,4.2,2.4,5.1,2.9
					c0.6,0.3,0.3,1.1-0.2,0.8c-0.9-0.5-4.7-2.7-4.9-2.8c-0.1-0.1-0.1-0.1-0.1-0.2s0-0.3,0.1-0.2V29.6z"/>
			</g>
			<path id="XMLID_17015_" class="st69" d="M17.4,29.6c0,0,3.7,2.1,4.7,2.6c0.1,0.1,0.3,0.1,0.3,0.1c0.1,0.1-0.1,0.1-0.1,0.2
				c0,0.1,0.1,0.3-0.1,0.2c0,0-0.1-0.2-0.2-0.2c-0.8-0.5-3.5-2.1-4.6-2.7V29.6z"/>
		</g>
	</g>
	<g id="XMLID_17023_">
		<g id="XMLID_17074_">
			<g id="XMLID_17078_">
				<path id="XMLID_17080_" class="st71" d="M30.7,62.6c0-0.2,0.1-0.4,0.4-0.6l0,0c0.3-0.2,0.8-0.3,1.2-0.2v0
					c0.5,0.1,0.8,0.4,0.8,0.8c0,0.2,0,5.3,0,5.5c0,0.2-0.1,0.5-0.4,0.6C32.4,69,32,69,31.6,68.9l0,0c-0.5-0.1-0.8-0.4-0.8-0.8V62.6z
					"/>
				<path id="XMLID_17079_" class="st10" d="M31.2,62L31.2,62c-0.7,0.4-0.5,1.2,0.4,1.4l0,0c0.4,0.1,0.9,0,1.2-0.2l0,0
					c0.7-0.4,0.5-1.2-0.4-1.4l0,0C32,61.7,31.5,61.8,31.2,62z"/>
			</g>
			<path id="XMLID_17077_" class="st72" d="M30.8,61.7L30.8,61.7c0,0,5.8-3.4,5.8-3.4l0,0c0.5-0.3,1.2-0.4,1.8-0.2l0,0
				c1.3,0.3,1.7,1.5,0.6,2.1c0,0-5.8,3.4-5.8,3.4l0,0c-0.5,0.3-1.2,0.4-1.8,0.2l0,0C30,63.5,29.7,62.3,30.8,61.7z"/>
			<path id="XMLID_17076_" class="st73" d="M29.9,61.8c0-0.3,0.2-0.7,0.7-0.9l0,0c0,0,6.1-3.6,6.1-3.6l0,0c0.5-0.3,1.2-0.4,1.9-0.2
				l0,0c0.8,0.2,1.2,0.6,1.3,1.1c0,0.1,0,0.5,0,0.5c0,0.3-0.2,0.7-0.7,0.9c0,0-6.1,3.5-6.1,3.6c-0.5,0.3-1.2,0.4-1.9,0.2l0,0
				c-0.8-0.2-1.2-0.6-1.3-1.1C29.9,62.2,29.9,61.8,29.9,61.8z"/>
			<path id="XMLID_17075_" class="st63" d="M30.8,60.3L30.8,60.3c0,0,5.8-3.4,5.8-3.4l0,0c0.5-0.3,1.2-0.4,1.8-0.2l0,0
				c1.3,0.3,1.7,1.5,0.6,2.1c0,0-5.8,3.4-5.8,3.4l0,0c-0.5,0.3-1.2,0.4-1.8,0.2l0,0C30,62.1,29.7,60.9,30.8,60.3z"/>
		</g>
		<g id="XMLID_17043_">
			<path id="XMLID_17073_" class="st30" d="M37.8,84.6L37.8,84.6c-0.9,0.6-0.6,1.6,0.5,1.9l0,0c0.5,0.1,1.2,0,1.6-0.2l0,0
				c0.9-0.6,0.6-1.6-0.5-1.9h0C38.8,84.3,38.2,84.4,37.8,84.6z"/>
			<path id="XMLID_17072_" class="st30" d="M37.8,84.6L37.8,84.6c-0.9,0.6-0.6,1.6,0.5,1.9l0,0c0.5,0.1,1.2,0,1.6-0.2l0,0
				c0.9-0.6,0.6-1.6-0.5-1.9h0C38.8,84.3,38.2,84.4,37.8,84.6z"/>
			<path id="XMLID_17071_" class="st30" d="M34.4,78.4L34.4,78.4c-0.9,0.6-0.6,1.6,0.5,1.9l0,0c0.5,0.1,1.2,0,1.6-0.2l0,0
				c0.9-0.6,0.6-1.6-0.5-1.9l0,0C35.4,78.1,34.8,78.2,34.4,78.4z"/>
			<path id="XMLID_17070_" class="st30" d="M46.9,80.3L46.9,80.3c-0.9,0.6-0.6,1.6,0.5,1.9l0,0c0.5,0.1,1.2,0,1.6-0.2l0,0
				c0.9-0.6,0.6-1.6-0.5-1.9l0,0C47.9,80,47.3,80.1,46.9,80.3z"/>
			<path id="XMLID_17069_" class="st30" d="M46,89.9L46,89.9c-0.9,0.6-0.6,1.6,0.5,1.9l0,0c0.5,0.1,1.2,0,1.6-0.2l0,0
				c0.9-0.6,0.6-1.6-0.5-1.9l0,0C47.1,89.6,46.5,89.7,46,89.9z"/>
			<path id="XMLID_17068_" class="st30" d="M34.6,92.1L34.6,92.1c-0.9,0.6-0.6,1.6,0.5,1.9l0,0c0.5,0.1,1.2,0,1.6-0.2l0,0
				c0.9-0.6,0.6-1.6-0.5-1.9l0,0C35.6,91.7,35,91.8,34.6,92.1z"/>
			<path id="XMLID_17067_" class="st30" d="M26.9,84.4L26.9,84.4c-0.9,0.6-0.6,1.6,0.5,1.9l0,0c0.5,0.1,1.2,0,1.6-0.2l0,0
				c0.9-0.6,0.6-1.6-0.5-1.9l0,0C28,84.1,27.4,84.1,26.9,84.4z"/>
			<path id="XMLID_17066_" class="st74" d="M46.9,81.2L46.9,81.2c-0.9,0.6-0.6,1.6,0.5,1.9l0,0c0.5,0.1,1.2,0,1.6-0.2l0,0
				c0.9-0.6,0.6-1.6-0.5-1.9l0,0C47.9,80.9,47.3,81,46.9,81.2z"/>
			<path id="XMLID_17065_" class="st74" d="M34.4,79.3L34.4,79.3c-0.9,0.6-0.6,1.6,0.5,1.9l0,0c0.5,0.1,1.2,0,1.6-0.2l0,0
				c0.9-0.6,0.6-1.6-0.5-1.9l0,0C35.4,79,34.8,79.1,34.4,79.3z"/>
			<path id="XMLID_17064_" class="st74" d="M46,90.8L46,90.8c-0.9,0.6-0.6,1.6,0.5,1.9l0,0c0.5,0.1,1.2,0,1.6-0.2l0,0
				c0.9-0.6,0.6-1.6-0.5-1.9l0,0C47.1,90.5,46.5,90.6,46,90.8z"/>
			<path id="XMLID_17063_" class="st74" d="M34.6,93L34.6,93c-0.9,0.6-0.6,1.6,0.5,1.9l0,0c0.5,0.1,1.2,0,1.6-0.2l0,0
				c0.9-0.6,0.6-1.6-0.5-1.9l0,0C35.6,92.6,35,92.7,34.6,93z"/>
			<path id="XMLID_17062_" class="st74" d="M26.9,85.3L26.9,85.3c-0.9,0.6-0.6,1.6,0.5,1.9l0,0c0.5,0.1,1.2,0,1.6-0.2l0,0
				c0.9-0.6,0.6-1.6-0.5-1.9l0,0C28,85,27.4,85,26.9,85.3z"/>
			<path id="XMLID_17061_" class="st74" d="M46.9,81.8L46.9,81.8c-0.9,0.6-0.6,1.6,0.5,1.9l0,0c0.5,0.1,1.2,0,1.6-0.2l0,0
				c0.9-0.6,0.6-1.6-0.5-1.9l0,0C47.9,81.4,47.3,81.5,46.9,81.8z"/>
			<path id="XMLID_17060_" class="st74" d="M34.4,79.8L34.4,79.8c-0.9,0.6-0.6,1.6,0.5,1.9l0,0c0.5,0.1,1.2,0,1.6-0.2l0,0
				c0.9-0.6,0.6-1.6-0.5-1.9l0,0C35.4,79.5,34.8,79.6,34.4,79.8z"/>
			<path id="XMLID_17059_" class="st74" d="M46,91.3L46,91.3c-0.9,0.6-0.6,1.6,0.5,1.9l0,0c0.5,0.1,1.2,0,1.6-0.2l0,0
				c0.9-0.6,0.6-1.6-0.5-1.9l0,0C47.1,91,46.5,91.1,46,91.3z"/>
			<path id="XMLID_17058_" class="st74" d="M34.6,93.5L34.6,93.5c-0.9,0.6-0.6,1.6,0.5,1.9l0,0c0.5,0.1,1.2,0,1.6-0.2l0,0
				c0.9-0.6,0.6-1.6-0.5-1.9l0,0C35.6,93.2,35,93.2,34.6,93.5z"/>
			<path id="XMLID_17057_" class="st74" d="M26.9,85.8L26.9,85.8c-0.9,0.6-0.6,1.6,0.5,1.9l0,0c0.5,0.1,1.2,0,1.6-0.2l0,0
				c0.9-0.6,0.6-1.6-0.5-1.9l0,0C28,85.5,27.4,85.6,26.9,85.8z"/>
			<path id="XMLID_17056_" class="st30" d="M39,86l0.7-0.5l8.5,4.4c0,0,0,0,0,0l0.1,0l0,0c0.7,0.4,0.7,1.2,0,1.7l0,0
				c-0.4,0.3-1,0.3-1.6,0.2l0,0c-0.4-0.1-0.6-0.2-0.8-0.4L39,86z"/>
			<path id="XMLID_17055_" class="st30" d="M38.9,84.9l8.1-4.6l0,0c0.4-0.2,1-0.3,1.5-0.1l0,0c1.2,0.3,1.5,1.3,0.5,1.9l0,0
				c-0.2,0.1-0.5,0.2-0.8,0.3l-8.6,3.2L38.9,84.9z"/>
			<path id="XMLID_17054_" class="st30" d="M33.8,79.4L33.8,79.4c-0.1-0.4,0.1-0.8,0.5-1l0,0c0.4-0.3,1-0.3,1.6-0.2l0,0
				c0.6,0.1,1,0.5,1.1,0.9l0,0l0,0c0,0,0,0.1,0,0.1l1.9,5.8l-0.7,0l-4.3-5.4C33.9,79.6,33.8,79.5,33.8,79.4L33.8,79.4z"/>
			<path id="XMLID_17053_" class="st30" d="M26.9,84.4c0.4-0.2,0.9-0.3,1.4-0.3l0,0l10.2,0.9l-0.2,0.7l-9.9,0.5c-0.2,0-0.3,0-0.5,0
				l-0.1,0l0,0c-0.1,0-0.2,0-0.3,0C26.3,86,26,84.9,26.9,84.4z"/>
			<path id="XMLID_17052_" class="st30" d="M34.1,92.5L34.1,92.5L34.1,92.5c0-0.1,0-0.1,0.1-0.1l4.3-7.1l0.6,0.1l-1.8,7.4l0,0
				c0,0.3-0.2,0.6-0.6,0.8l0,0c-0.4,0.3-1,0.3-1.6,0.2C34.2,93.7,33.9,93.1,34.1,92.5z"/>
			<path id="XMLID_17051_" class="st30" d="M37.8,84.6L37.8,84.6c-0.9,0.6-0.6,1.6,0.5,1.9l0,0c0.5,0.1,1.2,0,1.6-0.2l0,0
				c0.9-0.6,0.6-1.6-0.5-1.9h0C38.8,84.3,38.2,84.4,37.8,84.6z"/>
			<path id="XMLID_17050_" class="st30" d="M39,86l0.7-0.5l8.5,4.4c0,0,0,0,0,0l0.1,0l0,0c0.7,0.4,0.7,1.2,0,1.7l0,0
				c-0.4,0.3-1,0.3-1.6,0.2l0,0c-0.4-0.1-0.6-0.2-0.8-0.4L39,86z"/>
			<path id="XMLID_17049_" class="st30" d="M38.9,84.9l8.1-4.6l0,0c0.4-0.2,1-0.3,1.5-0.1l0,0c1.2,0.3,1.5,1.3,0.5,1.9l0,0
				c-0.2,0.1-0.5,0.2-0.8,0.3l-8.6,3.2L38.9,84.9z"/>
			<path id="XMLID_17048_" class="st30" d="M33.8,79.4L33.8,79.4c-0.1-0.4,0.1-0.8,0.5-1l0,0c0.4-0.3,1-0.3,1.6-0.2l0,0
				c0.6,0.1,1,0.5,1.1,0.9l0,0l0,0c0,0,0,0.1,0,0.1l1.9,5.8l-0.7,0l-4.3-5.4C33.9,79.6,33.8,79.5,33.8,79.4L33.8,79.4z"/>
			<path id="XMLID_17047_" class="st30" d="M26.9,84.4c0.4-0.2,0.9-0.3,1.4-0.3l0,0l10.2,0.9l-0.2,0.7l-9.9,0.5c-0.2,0-0.3,0-0.5,0
				l-0.1,0l0,0c-0.1,0-0.2,0-0.3,0C26.3,86,26,84.9,26.9,84.4z"/>
			<path id="XMLID_17046_" class="st30" d="M34.1,92.5L34.1,92.5L34.1,92.5c0-0.1,0-0.1,0.1-0.1l4.3-7.1l0.6,0.1l-1.8,7.4l0,0
				c0,0.3-0.2,0.6-0.6,0.8l0,0c-0.4,0.3-1,0.3-1.6,0.2C34.2,93.7,33.9,93.1,34.1,92.5z"/>
			<path id="XMLID_17045_" class="st73" d="M26.9,83.6c0.4-0.2,0.9-0.3,1.4-0.3l0,0l9.1,0.8c0.1-0.1,0.2-0.2,0.3-0.3l-3.8-4.2
				c0-0.1-0.1-0.2-0.1-0.2l0,0h0c0-0.1,0-0.2,0-0.2c0-0.1,0-0.7,0-0.8c0-0.3,0.2-0.6,0.6-0.8c0.4-0.3,1-0.3,1.6-0.2l0,0
				c0.6,0.1,1,0.5,1.1,0.9h0l0,0c0,0,0,0.1,0,0.1l1.9,5.1c0.1,0,0.3,0,0.4,0.1h0c0.1,0,0.1,0,0.2,0.1l7.5-4.2l0,0
				c0.4-0.2,1-0.3,1.5-0.1c0.7,0.2,1,0.5,1.1,0.9c0,0.2,0,0.7,0,0.9c0,0.3-0.2,0.6-0.6,0.8l0,0c-0.2,0.1-0.5,0.2-0.8,0.3l-7.8,2.9
				l7.6,4c0,0,0,0,0,0l0.1,0l0,0c0.3,0.2,0.5,0.5,0.5,0.8c0,0.1,0,0.7,0,0.9c0,0.3-0.2,0.5-0.5,0.7l0,0c-0.4,0.3-1,0.3-1.6,0.2l0,0
				c-0.4-0.1-0.6-0.2-0.8-0.4l-6.2-4.9c-0.2,0.1-0.5,0.1-0.7,0.1l-1.6,6.3l0,0c0,0.3-0.2,0.6-0.6,0.8c-0.4,0.3-1,0.3-1.6,0.2
				c-0.7-0.2-1-0.6-1.1-1c0-0.1,0-0.7,0-0.9c0-0.1,0-0.2,0.1-0.3l0,0l0,0c0,0,0-0.1,0-0.1l3.4-5.5c-0.1-0.1-0.2-0.2-0.3-0.3
				l-8.9,0.5c-0.2,0-0.3,0-0.5,0l-0.1,0l0,0c-0.1,0-0.2,0-0.3,0c-0.7-0.2-1.1-0.6-1.1-1c0-0.1,0-0.7,0-0.9
				C26.4,84.1,26.6,83.8,26.9,83.6z"/>
			<path id="XMLID_17044_" class="st75" d="M26.9,83.6c0.4-0.2,0.9-0.3,1.4-0.3l0,0l9.1,0.8c0.1-0.1,0.2-0.2,0.4-0.3l0,0
				c0.1,0,0.2-0.1,0.2-0.1l-4.1-4.8c0-0.1-0.1-0.2-0.1-0.2l0,0h0c-0.1-0.4,0.1-0.8,0.5-1c0.4-0.3,1-0.3,1.6-0.2l0,0
				c0.6,0.1,1,0.5,1.1,0.9h0l0,0c0,0,0,0.1,0,0.1l1.9,5.1c0.1,0,0.3,0,0.4,0.1h0c0.1,0,0.1,0,0.2,0.1l7.5-4.2l0,0
				c0.4-0.2,1-0.3,1.5-0.1c1.2,0.3,1.5,1.3,0.5,1.9l0,0c-0.2,0.1-0.5,0.2-0.8,0.3l-7.8,2.9c0.1,0.2,0.1,0.4,0,0.7l7.8,4c0,0,0,0,0,0
				l0.1,0l0,0c0.7,0.4,0.7,1.2,0,1.7l0,0c-0.4,0.3-1,0.3-1.6,0.2l0,0c-0.4-0.1-0.6-0.2-0.8-0.4l-6.2-4.9c-0.2,0.1-0.5,0.1-0.7,0.1
				l-1.6,6.3l0,0c0,0.3-0.2,0.6-0.6,0.8c-0.4,0.3-1,0.3-1.6,0.2c-0.9-0.2-1.3-0.9-1-1.4l0,0l0,0c0,0,0-0.1,0-0.1l3.7-6.1
				c-0.3-0.1-0.5-0.3-0.6-0.6l-8.9,0.5c-0.2,0-0.3,0-0.5,0l-0.1,0l0,0c-0.1,0-0.2,0-0.3,0C26.3,85.2,26,84.2,26.9,83.6z"/>
		</g>
		<path id="XMLID_17042_" class="st4" d="M38.8,67.7l1.2,0.7c0,0,0,15.7,0,16.1c0,0.4-0.4,0.9-1.2,0.9c-0.8,0-1.2-0.5-1.2-0.9
			c0-0.4,0-16.1,0-16.1L38.8,67.7z"/>
		<path id="XMLID_17041_" class="st76" d="M38.8,62.4l1.2,0.7c0,0,0,15.7,0,16.1c0,0.4-0.4,0.9-1.2,0.9c-0.8,0-1.2-0.5-1.2-0.9
			c0-0.4,0-16.1,0-16.1L38.8,62.4z"/>
		<path id="XMLID_17040_" class="st73" d="M30.2,66.5l5.8-4c2.7-1.8,6.2-2,9-0.3l4.5,2.6c1.2,0.7,1.7,1.8,1.8,2.9c0,0.4,0,2,0,2.4
			c-0.1,1.2-0.8,2.4-2.1,3l-7.8,3.6c-2.5,1.2-5.5,1.1-8-0.1l-3.1-1.8c-0.9-0.7-1.4-1.6-1.7-2.5c-0.1-0.6-0.1-2.7-0.1-3.1
			C28.7,68.1,29.2,67.1,30.2,66.5z"/>
		<path id="XMLID_17039_" class="st75" d="M35.9,62.4l-5.8,4c-2.2,1.5-2.1,4.8,0.2,6.1l3.1,1.8c2.4,1.4,5.4,1.5,7.9,0.3l7.8-3.6
			c2.6-1.3,2.8-5,0.2-6.4l-4.5-2.6C42.1,60.5,38.6,60.6,35.9,62.4z"/>
		<path id="XMLID_17038_" class="st77" d="M35.9,61.6l-5.8,4c-2.2,1.5-2.1,4.8,0.2,6.1l3.1,1.8c2.4,1.4,5.4,1.5,7.9,0.3l7.8-3.6
			c2.6-1.3,2.8-5,0.2-6.4l-4.5-2.6C42.1,59.7,38.6,59.8,35.9,61.6z"/>
		<path id="XMLID_17037_" class="st30" d="M35.9,61.6l-5.8,4c-2.2,1.5-2.1,4.8,0.2,6.1l3.1,1.8c2.4,1.4,5.4,1.5,7.9,0.3l7.8-3.6"/>
		<g id="XMLID_17032_">
			<path id="XMLID_17036_" class="st78" d="M24.6,49.5c1-0.4,2.1-0.5,3.3-0.1l3.9,1.5c3.1,1.2,5.5,3.8,6.3,7.1c0,0,0.2,1.2,0.8,3.2
				c0.6,2,2.6,4.4,3.1,6c0.5,1.6-0.2,3.2-1.3,4.2c-0.7,0.6-3.5,2-4.1,2.4c-1,0.5-2.2,0.6-3.5,0.2l-5.8-2.2c-3.6-1.4-6.2-4.7-6.5-8.6
				l-0.6-8.4c-0.1-1.5,0.5-2.9,1.6-3.7C22.5,50.6,23.9,49.8,24.6,49.5z"/>
			<path id="XMLID_17035_" class="st79" d="M21.6,62.5L21,54.2c-0.3-3.2,2.9-5.6,5.9-4.4l3.9,1.5c3.1,1.2,5.5,3.8,6.3,7.1l2.6,9.9
				c0.8,3.4-2.5,6.3-5.7,5.1l-5.8-2.2C24.5,69.8,22,66.4,21.6,62.5z"/>
			<path id="XMLID_17034_" class="st73" d="M20.9,63.2l-0.6-8.4c-0.3-3.2,2.9-5.6,5.8-4.4l3.9,1.5c3.1,1.2,5.5,3.8,6.3,7.1l2.6,9.9
				c0.8,3.4-2.5,6.3-5.7,5.1l-5.8-2.2C23.8,70.4,21.3,67,20.9,63.2z"/>
			<path id="XMLID_17033_" class="st72" d="M30.1,51.9c3.1,1.2,5.5,3.8,6.3,7.1l2.6,9.9c0.8,3.4-2.5,6.3-5.7,5.1l-5.8-2.2"/>
		</g>
		<g id="XMLID_17024_">
			<g id="XMLID_17029_">
				<path id="XMLID_17031_" class="st4" d="M43.5,70c0-0.2,0.1-0.4,0.4-0.6l0,0c0.3-0.2,0.8-0.3,1.2-0.2v0c0.5,0.1,0.8,0.4,0.8,0.8
					c0,0.2,0,5.3,0,5.5c0,0.2-0.1,0.5-0.4,0.6c-0.3,0.2-0.8,0.3-1.2,0.2l0,0c-0.5-0.1-0.8-0.4-0.8-0.8V70z"/>
				<path class="st76" d="M43.9,69.3c0.3-0.2,0.8-0.3,1.2-0.2v0c0.5,0.1,0.8,0.4,0.8,0.8c0,0,0,0.2,0,0.6c0,1.1,0,2.1,0,2.2
					c0,0.2-0.1,0.5-0.4,0.6c-0.3,0.2-0.8,0.3-1.2,0.2c-0.5-0.1-0.8-0.4-0.8-0.8V70C43.5,69.7,43.7,69.5,43.9,69.3z"/>
				<path id="XMLID_17030_" class="st10" d="M43.9,69.3L43.9,69.3c-0.7,0.4-0.5,1.2,0.4,1.4l0,0c0.4,0.1,0.9,0,1.2-0.2l0,0
					c0.7-0.4,0.5-1.2-0.4-1.4l0,0C44.7,69.1,44.3,69.1,43.9,69.3z"/>
			</g>
			<path id="XMLID_17028_" class="st72" d="M43.5,69.1L43.5,69.1c0,0,5.8-3.4,5.8-3.4l0,0c0.5-0.3,1.2-0.4,1.8-0.2l0,0
				c1.3,0.3,1.7,1.5,0.6,2.1c0,0-5.8,3.4-5.8,3.4l0,0c-0.5,0.3-1.2,0.4-1.8,0.2l0,0C42.8,70.9,42.5,69.7,43.5,69.1z"/>
			<path id="XMLID_17027_" class="st73" d="M42.7,69.2c0-0.3,0.2-0.7,0.7-0.9l0,0c0,0,6.1-3.6,6.1-3.6l0,0c0.5-0.3,1.2-0.4,1.9-0.2
				l0,0c0.8,0.2,1.2,0.6,1.3,1.1c0,0.1,0,0.5,0,0.5c0,0.3-0.2,0.7-0.7,0.9c0,0-6.1,3.5-6.1,3.6c-0.5,0.3-1.2,0.4-1.9,0.2l0,0
				c-0.8-0.2-1.2-0.6-1.3-1.1C42.7,69.6,42.7,69.2,42.7,69.2z"/>
			<path id="XMLID_17026_" class="st30" d="M43.5,67.7L43.5,67.7c0,0,5.8-3.4,5.8-3.4l0,0c0.5-0.3,1.2-0.4,1.8-0.2l0,0
				c1.3,0.3,1.7,1.5,0.6,2.1c0,0-5.8,3.4-5.8,3.4l0,0c-0.5,0.3-1.2,0.4-1.8,0.2l0,0C42.8,69.5,42.5,68.3,43.5,67.7z"/>
			<path id="XMLID_17025_" class="st63" d="M51.8,66.2c0,0-5.8,3.4-5.8,3.4l0,0c-0.5,0.3-1.2,0.4-1.8,0.2l0,0
				c-1.3-0.3-1.7-1.5-0.6-2.1l0,0"/>
		</g>
	</g>
</g>
</svg>
