<?xml version="1.0" encoding="utf-8"?>
<!-- Generator: Adobe Illustrator 21.0.0, SVG Export Plug-In . SVG Version: 6.00 Build 0)  -->
<svg version="1.1" xmlns="http://www.w3.org/2000/svg" xmlns:xlink="http://www.w3.org/1999/xlink" x="0px" y="0px"
	 viewBox="0 0 100 100" style="enable-background:new 0 0 100 100;" xml:space="preserve">
<style type="text/css">
	.st0{fill:#E8E7E7;}
	.st1{fill:#FFFFFF;}
	.st2{fill:#D1D2D8;}
	.st3{opacity:0.2;fill:#D1D2D8;enable-background:new    ;}
	.st4{fill:#C5C7C9;}
	.st5{fill:#9C9FA0;}
	.st6{fill:#EFF0F0;}
	.st7{fill:#1B1E1E;}
	.st8{fill:#252828;}
	.st9{fill:#474847;}
	.st10{fill:#3F4040;}
	.st11{fill:#3A3A3A;}
	.st12{fill:#353535;}
	.st13{fill:#1F2121;}
	.st14{fill:#2A2B2A;}
	.st15{fill:#393A39;}
	.st16{fill:#C5C6C7;}
	.st17{fill:#AEAEAE;}
	.st18{fill:#B0B3B5;}
	.st19{fill:#DDDFDE;}
	.st20{fill:#DBDBD9;}
	.st21{fill:#E4E4E3;}
	.st22{fill:#EFEFEF;}
	.st23{fill:#ECECEE;}
	.st24{fill:#F7F8F9;}
	.st25{fill:#41B349;}
	.st26{fill:#80C576;}
	.st27{fill:#C23728;}
	.st28{fill:#CD483C;}
	.st29{fill:#C06B2A;}
	.st30{fill:#CE7C43;}
	.st31{fill:#7C8187;}
	.st32{opacity:0.3;fill:#7C8187;enable-background:new    ;}
	.st33{fill:#C2C2C2;}
	.st34{fill:#777576;}
	.st35{fill:#A4A3A3;}
	.st36{fill:#636467;}
	.st37{fill:#595A5B;}
	.st38{fill:#9A735A;}
	.st39{fill:#59595C;}
	.st40{fill:#C29C77;}
	.st41{opacity:0.2;fill:#C29C77;enable-background:new    ;}
	.st42{fill:#AEABA8;}
	.st43{fill:#888582;}
	.st44{opacity:0.2;fill:#888582;enable-background:new    ;}
	.st45{fill:#5C5653;}
	.st46{fill:#E7E6E7;}
	.st47{fill:#D0D1D1;}
	.st48{fill:#DCDCDB;}
	.st49{fill:#C6C4C3;}
	.st50{fill:#74BF45;}
	.st51{fill:#50A647;}
	.st52{fill:#429A45;}
	.st53{fill:#2D2D2D;}
	.st54{fill:#A19F9F;}
	.st55{fill:#474948;}
	.st56{opacity:0.3;fill:#515352;enable-background:new    ;}
	.st57{fill:#575858;}
	.st58{opacity:0.2;fill:#515352;enable-background:new    ;}
	.st59{fill:#515352;}
	.st60{fill:#3A3B3A;}
	.st61{fill:#72B1CB;}
	.st62{fill:#5F8FA9;}
	.st63{fill:#5988A6;}
	.st64{fill:#3C6984;}
	.st65{fill:#DFDFDF;}
	.st66{fill:#D7D7D6;}
	.st67{opacity:0.8;fill:#DFDFDF;enable-background:new    ;}
	.st68{fill:#EEBE69;}
	.st69{fill:#FFCD80;}
	.st70{fill:#AEADAD;}
	.st71{fill:#D2D2D2;}
	.st72{opacity:0.5;fill:#BBBBBB;enable-background:new    ;}
	.st73{fill:#BBBBBB;}
	.st74{opacity:0.2;fill:#444445;enable-background:new    ;}
	.st75{fill:#ECEAEA;}
	.st76{opacity:0.3;fill:#444445;enable-background:new    ;}
	.st77{fill:#525354;}
	.st78{fill:#6D6F6E;}
	.st79{fill:#3F3F3F;}
	.st80{fill:#5E5E5E;}
</style>
<g id="Layer_1">
	<g id="XMLID_122_">
		<g id="XMLID_124_">
			<polygon id="XMLID_126_" class="st0" points="4.6,23.8 4.6,66.2 3.5,65.5 3.5,23.1 			"/>
			<polygon id="XMLID_125_" class="st1" points="3.5,23.1 4.6,23.8 40.4,3.2 39.2,2.5 			"/>
		</g>
		<polygon id="XMLID_123_" class="st2" points="4.6,23.8 4.6,66.2 40.4,45.6 40.4,3.2 		"/>
		<polyline id="XMLID_16543_" class="st3" points="4.6,66.2 40.4,45.6 40.4,3.2 		"/>
	</g>
	<g id="XMLID_55739_">
		<g id="XMLID_55747_">
			<g id="XMLID_55803_">
				<g id="XMLID_55807_">
					<path id="XMLID_55809_" class="st4" d="M42.6,30.9c0-0.2,0.1-0.4,0.4-0.5l0,0c0.3-0.2,0.7-0.2,1-0.1v0c0.4,0.1,0.7,0.4,0.7,0.6
						c0,0.2,0,4.4,0,4.5c0,0.2-0.1,0.4-0.4,0.5c-0.3,0.2-0.7,0.2-1,0.1l0,0c-0.4-0.1-0.7-0.4-0.7-0.6V30.9z"/>
					<path class="st5" d="M42.9,30.4c0.3-0.2,0.7-0.2,1-0.1v0c0.4,0.1,0.7,0.4,0.7,0.6c0,0,0,0.2,0,0.4c0,0.8,0,1.6,0,1.6
						c0,0.2-0.1,0.4-0.4,0.5c-0.3,0.2-0.7,0.2-1,0.1c-0.4-0.1-0.7-0.4-0.7-0.6v-2.1C42.6,30.8,42.7,30.6,42.9,30.4z"/>
					<path id="XMLID_55808_" class="st6" d="M42.9,30.4L42.9,30.4c-0.6,0.4-0.4,1,0.3,1.2l0,0c0.3,0.1,0.7,0,1-0.1l0,0
						c0.6-0.4,0.4-1-0.3-1.2v0C43.6,30.2,43.2,30.3,42.9,30.4z"/>
				</g>
			</g>
			<g id="XMLID_55786_">
				<path id="XMLID_55789_" class="st7" d="M37.6,33.1L37.6,33.1c0,0,4.8-2.8,4.8-2.8l0,0c0.4-0.2,1-0.3,1.5-0.2l0,0
					c1.1,0.3,1.4,1.2,0.5,1.7c0,0-4.7,2.8-4.8,2.8l0,0c-0.4,0.2-1,0.3-1.5,0.2l0,0C37,34.6,36.8,33.6,37.6,33.1z"/>
				<path id="XMLID_55788_" class="st8" d="M36.9,33.2c0-0.3,0.2-0.6,0.5-0.8l0,0c0,0,5-2.9,5-2.9l0,0c0.4-0.2,1-0.3,1.5-0.2v0
					c0.6,0.1,1,0.5,1,0.9c0,0.1,0,0.4,0,0.4c0,0.3-0.2,0.5-0.5,0.7c0,0-5,2.9-5,2.9c-0.4,0.2-1,0.3-1.5,0.2l0,0
					c-0.6-0.1-1-0.5-1-0.9C36.9,33.5,36.9,33.2,36.9,33.2z"/>
				<path id="XMLID_55787_" class="st9" d="M37.6,32L37.6,32c0,0,4.8-2.8,4.8-2.8l0,0c0.4-0.2,1-0.3,1.5-0.2l0,0
					c1.1,0.3,1.4,1.2,0.5,1.7c0,0-4.7,2.8-4.8,2.8l0,0c-0.4,0.2-1,0.3-1.5,0.2l0,0C37,33.4,36.8,32.5,37.6,32z"/>
				<path id="XMLID_39098_" class="st10" d="M39.6,33.5L39.6,33.5c-0.4,0.2-1,0.3-1.5,0.2l0,0c-1.1-0.3-1.4-1.2-0.5-1.7l0,0
					c0,0,4.8-2.8,4.8-2.8l0,0c0.4-0.2,1-0.3,1.5-0.2l0,0"/>
			</g>
		</g>
		<g id="XMLID_55755_">
			<path id="XMLID_55785_" class="st9" d="M45.8,52L45.8,52c-0.8,0.5-0.5,1.3,0.4,1.5l0,0c0.4,0.1,0.9,0,1.3-0.2l0,0
				c0.8-0.5,0.5-1.3-0.4-1.5l0,0C46.6,51.7,46.1,51.8,45.8,52z"/>
			<path id="XMLID_55784_" class="st9" d="M45.8,52L45.8,52c-0.8,0.5-0.5,1.3,0.4,1.5l0,0c0.4,0.1,0.9,0,1.3-0.2l0,0
				c0.8-0.5,0.5-1.3-0.4-1.5l0,0C46.6,51.7,46.1,51.8,45.8,52z"/>
			<path id="XMLID_55783_" class="st9" d="M43,46.9L43,46.9c-0.8,0.5-0.5,1.3,0.4,1.5l0,0c0.4,0.1,0.9,0,1.3-0.2l0,0
				c0.8-0.5,0.5-1.3-0.4-1.5l0,0C43.8,46.6,43.3,46.7,43,46.9z"/>
			<path id="XMLID_55782_" class="st9" d="M53.2,48.5L53.2,48.5c-0.8,0.5-0.5,1.3,0.4,1.5l0,0c0.4,0.1,0.9,0,1.3-0.2l0,0
				c0.8-0.5,0.5-1.3-0.4-1.5l0,0C54.1,48.2,53.6,48.3,53.2,48.5z"/>
			<path id="XMLID_55781_" class="st9" d="M52.5,56.3L52.5,56.3c-0.8,0.5-0.5,1.3,0.4,1.5l0,0c0.4,0.1,0.9,0,1.3-0.2l0,0
				c0.8-0.5,0.5-1.3-0.4-1.5l0,0C53.4,56,52.9,56.1,52.5,56.3z"/>
			<path id="XMLID_55780_" class="st9" d="M43.2,58.1L43.2,58.1c-0.8,0.5-0.5,1.3,0.4,1.5l0,0c0.4,0.1,0.9,0,1.3-0.2l0,0
				c0.8-0.5,0.5-1.3-0.4-1.5v0C44,57.8,43.5,57.9,43.2,58.1z"/>
			<path id="XMLID_55779_" class="st9" d="M36.9,51.8L36.9,51.8c-0.8,0.5-0.5,1.3,0.4,1.5l0,0c0.4,0.1,0.9,0,1.3-0.2l0,0
				c0.8-0.5,0.5-1.3-0.4-1.5l0,0C37.8,51.5,37.3,51.6,36.9,51.8z"/>
			<path id="XMLID_55778_" class="st11" d="M53.2,49.2L53.2,49.2c-0.8,0.5-0.5,1.3,0.4,1.5l0,0c0.4,0.1,0.9,0,1.3-0.2l0,0
				c0.8-0.5,0.5-1.3-0.4-1.5l0,0C54.1,48.9,53.6,49,53.2,49.2z"/>
			<path id="XMLID_55777_" class="st11" d="M43,47.6L43,47.6c-0.8,0.5-0.5,1.3,0.4,1.5l0,0c0.4,0.1,0.9,0,1.3-0.2l0,0
				c0.8-0.5,0.5-1.3-0.4-1.5l0,0C43.8,47.4,43.3,47.4,43,47.6z"/>
			<path id="XMLID_55776_" class="st11" d="M52.5,57.1L52.5,57.1c-0.8,0.5-0.5,1.3,0.4,1.5l0,0c0.4,0.1,0.9,0,1.3-0.2l0,0
				c0.8-0.5,0.5-1.3-0.4-1.5l0,0C53.4,56.8,52.9,56.8,52.5,57.1z"/>
			<path id="XMLID_55775_" class="st11" d="M43.2,58.8L43.2,58.8c-0.8,0.5-0.5,1.3,0.4,1.5l0,0c0.4,0.1,0.9,0,1.3-0.2l0,0
				c0.8-0.5,0.5-1.3-0.4-1.5l0,0C44,58.5,43.5,58.6,43.2,58.8z"/>
			<path id="XMLID_55774_" class="st11" d="M36.9,52.5L36.9,52.5c-0.8,0.5-0.5,1.3,0.4,1.5l0,0c0.4,0.1,0.9,0,1.3-0.2l0,0
				c0.8-0.5,0.5-1.3-0.4-1.5l0,0C37.8,52.2,37.3,52.3,36.9,52.5z"/>
			<path id="XMLID_55773_" class="st11" d="M53.2,49.6L53.2,49.6c-0.8,0.5-0.5,1.3,0.4,1.5l0,0c0.4,0.1,0.9,0,1.3-0.2l0,0
				c0.8-0.5,0.5-1.3-0.4-1.5l0,0C54.1,49.4,53.6,49.4,53.2,49.6z"/>
			<path id="XMLID_55772_" class="st11" d="M43,48.1L43,48.1c-0.8,0.5-0.5,1.3,0.4,1.5l0,0c0.4,0.1,0.9,0,1.3-0.2l0,0
				c0.8-0.5,0.5-1.3-0.4-1.5l0,0C43.8,47.8,43.3,47.8,43,48.1z"/>
			<path id="XMLID_55771_" class="st11" d="M52.5,57.5L52.5,57.5C51.8,57.9,52,58.8,53,59l0,0c0.4,0.1,0.9,0,1.3-0.2l0,0
				c0.8-0.5,0.5-1.3-0.4-1.5l0,0C53.4,57.2,52.9,57.3,52.5,57.5z"/>
			<path id="XMLID_55770_" class="st11" d="M43.2,59.2L43.2,59.2c-0.8,0.5-0.5,1.3,0.4,1.5l0,0c0.4,0.1,0.9,0,1.3-0.2l0,0
				c0.8-0.5,0.5-1.3-0.4-1.5l0,0C44,59,43.5,59,43.2,59.2z"/>
			<path id="XMLID_55769_" class="st11" d="M36.9,53L36.9,53c-0.8,0.5-0.5,1.3,0.4,1.5l0,0c0.4,0.1,0.9,0,1.3-0.2v0
				c0.8-0.5,0.5-1.3-0.4-1.5l0,0C37.8,52.7,37.3,52.7,36.9,53z"/>
			<path id="XMLID_55768_" class="st9" d="M46.8,53.1l0.5-0.4l6.9,3.6c0,0,0,0,0,0l0.1,0l0,0c0.6,0.3,0.6,1,0,1.4l0,0
				c-0.4,0.2-0.9,0.3-1.3,0.2l0,0c-0.3-0.1-0.5-0.2-0.7-0.4L46.8,53.1z"/>
			<path id="XMLID_55767_" class="st9" d="M46.7,52.2l6.7-3.8l0,0c0.3-0.2,0.8-0.2,1.2-0.1l0,0c1,0.2,1.2,1.1,0.4,1.5l0,0
				c-0.2,0.1-0.4,0.2-0.6,0.2l-7,2.6L46.7,52.2z"/>
			<path id="XMLID_55766_" class="st9" d="M42.6,47.7L42.6,47.7c-0.1-0.3,0.1-0.6,0.4-0.8l0,0c0.4-0.2,0.9-0.3,1.3-0.2l0,0
				c0.5,0.1,0.8,0.4,0.9,0.8l0,0l0,0c0,0,0,0.1,0,0.1l1.6,4.8l-0.6,0l-3.5-4.4C42.6,47.9,42.6,47.8,42.6,47.7L42.6,47.7z"/>
			<path id="XMLID_55765_" class="st9" d="M36.9,51.8c0.3-0.2,0.7-0.3,1.1-0.2l0,0l8.4,0.8l-0.2,0.6l-8.1,0.4c-0.1,0-0.3,0-0.4,0
				l0,0l0,0c-0.1,0-0.2,0-0.3,0C36.4,53.1,36.1,52.2,36.9,51.8z"/>
			<path id="XMLID_55764_" class="st9" d="M42.8,58.5L42.8,58.5L42.8,58.5C42.8,58.4,42.8,58.4,42.8,58.5l3.6-5.9l0.5,0.1l-1.5,6.1
				l0,0c0,0.2-0.1,0.5-0.5,0.7l0,0c-0.4,0.2-0.9,0.3-1.3,0.2C42.9,59.4,42.6,58.9,42.8,58.5z"/>
			<path id="XMLID_55763_" class="st9" d="M45.8,52L45.8,52c-0.8,0.5-0.5,1.3,0.4,1.5l0,0c0.4,0.1,0.9,0,1.3-0.2l0,0
				c0.8-0.5,0.5-1.3-0.4-1.5l0,0C46.6,51.7,46.1,51.8,45.8,52z"/>
			<path id="XMLID_55762_" class="st9" d="M46.8,53.1l0.5-0.4l6.9,3.6c0,0,0,0,0,0l0.1,0l0,0c0.6,0.3,0.6,1,0,1.4l0,0
				c-0.4,0.2-0.9,0.3-1.3,0.2l0,0c-0.3-0.1-0.5-0.2-0.7-0.4L46.8,53.1z"/>
			<path id="XMLID_55761_" class="st9" d="M46.7,52.2l6.7-3.8l0,0c0.3-0.2,0.8-0.2,1.2-0.1l0,0c1,0.2,1.2,1.1,0.4,1.5l0,0
				c-0.2,0.1-0.4,0.2-0.6,0.2l-7,2.6L46.7,52.2z"/>
			<path id="XMLID_55760_" class="st9" d="M42.6,47.7L42.6,47.7c-0.1-0.3,0.1-0.6,0.4-0.8l0,0c0.4-0.2,0.9-0.3,1.3-0.2l0,0
				c0.5,0.1,0.8,0.4,0.9,0.8l0,0l0,0c0,0,0,0.1,0,0.1l1.6,4.8l-0.6,0l-3.5-4.4C42.6,47.9,42.6,47.8,42.6,47.7L42.6,47.7z"/>
			<path id="XMLID_55759_" class="st9" d="M36.9,51.8c0.3-0.2,0.7-0.3,1.1-0.2l0,0l8.4,0.8l-0.2,0.6l-8.1,0.4c-0.1,0-0.3,0-0.4,0
				l0,0l0,0c-0.1,0-0.2,0-0.3,0C36.4,53.1,36.1,52.2,36.9,51.8z"/>
			<path id="XMLID_55758_" class="st9" d="M42.8,58.5L42.8,58.5L42.8,58.5C42.8,58.4,42.8,58.4,42.8,58.5l3.6-5.9l0.5,0.1l-1.5,6.1
				l0,0c0,0.2-0.1,0.5-0.5,0.7l0,0c-0.4,0.2-0.9,0.3-1.3,0.2C42.9,59.4,42.6,58.9,42.8,58.5z"/>
			<path id="XMLID_55757_" class="st8" d="M36.9,51.2c0.3-0.2,0.7-0.3,1.1-0.2l0,0l7.5,0.7c0.1-0.1,0.2-0.2,0.3-0.2l-3.1-3.5
				c0-0.1-0.1-0.1-0.1-0.2l0,0h0c0-0.1,0-0.1,0-0.2c0-0.1,0-0.6,0-0.6c0-0.2,0.2-0.5,0.5-0.6c0.4-0.2,0.9-0.3,1.3-0.2l0,0
				c0.5,0.1,0.8,0.4,0.9,0.8l0,0l0,0c0,0,0,0.1,0,0.1l1.5,4.2c0.1,0,0.2,0,0.4,0l0,0c0.1,0,0.1,0,0.2,0l6.1-3.5l0,0
				c0.3-0.2,0.8-0.2,1.2-0.1c0.5,0.1,0.8,0.4,0.9,0.8c0,0.1,0,0.6,0,0.7c0,0.2-0.1,0.5-0.5,0.7l0,0c-0.2,0.1-0.4,0.2-0.6,0.2
				L48,52.4l6.2,3.2c0,0,0,0,0,0l0.1,0l0,0c0.3,0.2,0.4,0.4,0.4,0.7c0,0.1,0,0.6,0,0.7c0,0.2-0.2,0.4-0.5,0.6l0,0
				c-0.4,0.2-0.9,0.3-1.3,0.2l0,0c-0.3-0.1-0.5-0.2-0.7-0.4l-5.1-4c-0.2,0.1-0.4,0.1-0.6,0.1l-1.3,5.2l0,0c0,0.2-0.1,0.5-0.5,0.7
				c-0.4,0.2-0.9,0.3-1.3,0.2c-0.5-0.1-0.9-0.5-0.9-0.8c0-0.1,0-0.6,0-0.7c0-0.1,0-0.2,0.1-0.3l0,0l0,0c0,0,0,0,0-0.1l2.8-4.5
				c-0.1-0.1-0.2-0.2-0.2-0.3l-7.3,0.4c-0.1,0-0.3,0-0.4,0l0,0l0,0c-0.1,0-0.2,0-0.3,0c-0.6-0.1-0.9-0.5-0.9-0.8c0-0.1,0-0.6,0-0.7
				C36.5,51.5,36.6,51.3,36.9,51.2z"/>
			<path id="XMLID_55756_" class="st12" d="M36.9,51.2c0.3-0.2,0.7-0.3,1.1-0.2l0,0l7.5,0.7c0.1-0.1,0.2-0.2,0.3-0.3l0,0
				c0.1,0,0.1-0.1,0.2-0.1l-3.3-4c0-0.1-0.1-0.1-0.1-0.2l0,0h0c-0.1-0.3,0.1-0.6,0.4-0.8c0.4-0.2,0.9-0.3,1.3-0.2l0,0
				c0.5,0.1,0.8,0.4,0.9,0.8l0,0l0,0c0,0,0,0.1,0,0.1l1.5,4.2c0.1,0,0.2,0,0.4,0l0,0c0.1,0,0.1,0,0.2,0l6.1-3.5l0,0
				c0.3-0.2,0.8-0.2,1.2-0.1c1,0.2,1.2,1.1,0.4,1.5l0,0c-0.2,0.1-0.4,0.2-0.6,0.2l-6.4,2.4c0.1,0.2,0.1,0.4,0,0.5l6.4,3.3
				c0,0,0,0,0,0l0.1,0l0,0c0.6,0.3,0.6,1,0,1.4l0,0c-0.4,0.2-0.9,0.3-1.3,0.2l0,0c-0.3-0.1-0.5-0.2-0.7-0.4l-5.1-4
				c-0.2,0.1-0.4,0.1-0.6,0.1l-1.3,5.2l0,0c0,0.2-0.1,0.5-0.5,0.7c-0.4,0.2-0.9,0.3-1.3,0.2c-0.7-0.2-1-0.7-0.8-1.1l0,0l0,0
				c0,0,0,0,0-0.1l3-5c-0.2-0.1-0.4-0.3-0.5-0.5l-7.3,0.4c-0.1,0-0.3,0-0.4,0l0,0l0,0c-0.1,0-0.2,0-0.3,0
				C36.4,52.5,36.1,51.6,36.9,51.2z"/>
		</g>
		<path id="XMLID_55754_" class="st4" d="M46.7,38.1l1,0.6c0,0,0,12.8,0,13.2c0,0.3-0.3,0.8-1,0.8c-0.6,0-1-0.4-1-0.8
			c0-0.3,0-13.2,0-13.2L46.7,38.1z"/>
		<path id="XMLID_39095_" class="st5" d="M46.7,34.3l1,0.6c0,0,0,12.8,0,13.2c0,0.3-0.3,0.8-1,0.8c-0.6,0-1-0.4-1-0.8
			c0-0.3,0-13.2,0-13.2L46.7,34.3z"/>
		<g id="XMLID_55746_">
			<path id="XMLID_55745_" class="st13" d="M38.6,36.3l6-2.5c2.2-1.5,5.1-1.6,7.4-0.3l2.3,1.3c0.9,0.5,1.4,1.5,1.5,2.4
				c0,0.3,0,1.6,0,1.9c0,0.6-0.3,1.2-0.7,1.7c-0.3,0.3-6,4.5-6,4.5c-2.1,1-4.5,0.9-6.5-0.1l-3.9-2.3c-0.7-0.6-1.2-1.3-1.4-2
				c-0.1-0.5-0.1-2.2-0.1-2.6C37.4,37.6,37.9,36.8,38.6,36.3z"/>
			<path class="st7" d="M38.6,36.3l6-2.5c0.6-0.4,1.2-0.7,1.9-0.9v13.2c-1.3,0.1-2.7-0.2-3.9-0.8l-3.9-2.3c-0.7-0.6-1.2-1.3-1.4-2
				c-0.1-0.5-0.1-2.2-0.1-2.6C37.4,37.6,37.9,36.8,38.6,36.3z"/>
			<path id="XMLID_55744_" class="st8" d="M44.7,33.8l-6,2.5c-1.8,1.2-1.7,3.9,0.2,5l3.9,2.3c2,1.1,4.4,1.2,6.5,0.3
				c0,0,5.6-4.2,5.9-4.4c1.3-1.3,1.1-3.6-0.7-4.6l-2.3-1.3C49.8,32.2,46.9,32.3,44.7,33.8z"/>
			<path id="XMLID_55738_" class="st14" d="M38.6,35.6c-1.8,1.2-1.7,3.9,0.2,5l3.9,2.3c2,1.1,4.4,1.2,6.5,0.3c0,0,5.7-4.2,6-4.5
				c1.1-1.3,0.9-3.5-0.8-4.5l-2.3-1.3c-1.7-1-3.8-1.2-5.6-0.6C45.8,32.5,38.6,35.6,38.6,35.6z"/>
		</g>
		<g id="XMLID_55750_">
			<path id="XMLID_55795_" class="st9" d="M47.9,26l1-6.9c0.4-2.6,3.2-4.6,5.3-3.6l2.8,1.2c2.2,1,3.5,3.2,3.6,5.8l0.2,8.2
				c0,2.8-3.1,5.2-5.4,4.2l-4.1-1.8C48.8,32,47.5,29.2,47.9,26z"/>
			<path id="XMLID_55794_" class="st10" d="M47,26.3l1-6.9c0.4-2.6,3.2-4.6,5.3-3.6l2.8,1.2c2.2,1,3.5,3.2,3.6,5.8L60,31
				c0,2.8-3.1,5.2-5.4,4.2l-4.1-1.8C48,32.2,46.6,29.5,47,26.3z"/>
			<path id="XMLID_55793_" class="st15" d="M46.4,26.8l0.5-3.4l0.5-3.4c0.4-2.6,3.2-4.6,5.3-3.6l2.8,1.2c2.2,1,3.5,3.2,3.6,5.8
				l0.1,2.2l0,1l0.1,4.9c0,2.8-3.1,5.2-5.4,4.2l-4.1-1.8C47.3,32.8,45.9,30,46.4,26.8z"/>
			<g id="XMLID_55749_">
				<path id="XMLID_55751_" class="st8" d="M45.4,26.7l1-3.9l0.4-2.6c0.4-2.6,3.2-4.6,5.3-3.6l2.8,1.2c2.2,1,3.5,3.2,3.6,5.8
					l0.1,2.2l0,1l0.3,4.7c0,2.8-3.2,4.7-5.5,3.7l-4.1-1.8C46.7,32.3,45,29.9,45.4,26.7z"/>
				<path id="XMLID_39089_" class="st7" d="M54.9,17.8c2.2,1,3.5,3.2,3.6,5.8l0.1,2.2l0,1l0.3,4.7c0,2.8-3.2,4.7-5.5,3.7l-4.1-1.8
					c-2.6-1.1-4.3-3.6-3.8-6.8l1-3.9"/>
				<path id="XMLID_55752_" class="st7" d="M53.3,35.4l-4.1-1.8c-1.3-0.6-2.4-1.5-3.1-2.7c-0.7-1.2-1-2.7-0.8-4.2l1-3.9l0.4-2.6
					c0.2-1.4,1.1-2.7,2.4-3.4c1-0.6,2.1-0.7,3-0.3l2.8,1.2c2.2,1,3.6,3.2,3.6,5.9l0.1,3.2l0.3,4.7c0,1.3-0.7,2.6-1.9,3.3
					c-0.7,0.5-1.5,0.7-2.3,0.7C54.1,35.6,53.7,35.5,53.3,35.4z M49.1,16.9c-1.2,0.7-2.1,2-2.3,3.3l-0.4,2.6l-1,3.9
					c-0.2,1.5,0.1,2.9,0.8,4.1c0.7,1.1,1.7,2,3,2.6l4.1,1.8c1.1,0.5,2.4,0.3,3.6-0.4c1.2-0.8,1.8-2,1.8-3.2l-0.3-4.7l-0.1-3.2
					c0-2.6-1.3-4.8-3.5-5.8L52,16.6c-0.3-0.2-0.7-0.2-1.1-0.2C50.3,16.4,49.7,16.5,49.1,16.9z"/>
			</g>
		</g>
		<g id="XMLID_55748_">
			<g id="XMLID_55796_">
				<g id="XMLID_55800_">
					<path id="XMLID_55802_" class="st4" d="M53,37c0-0.2,0.1-0.4,0.4-0.5l0,0c0.3-0.2,0.7-0.2,1-0.1l0,0c0.4,0.1,0.7,0.4,0.7,0.6
						c0,0.2,0,4.4,0,4.5c0,0.2-0.1,0.4-0.4,0.5c-0.3,0.2-0.7,0.2-1,0.1l0,0c-0.4-0.1-0.7-0.4-0.7-0.6V37z"/>
					<path class="st5" d="M53.4,36.5c0.3-0.2,0.7-0.2,1-0.1c0.4,0.1,0.7,0.4,0.7,0.6c0,0,0,0.2,0,0.4c0,0.8,0,1.6,0,1.6
						c0,0.2-0.1,0.4-0.4,0.5c-0.3,0.2-0.7,0.2-1,0.1c-0.4-0.1-0.7-0.4-0.7-0.6V37C53,36.8,53.1,36.6,53.4,36.5z"/>
					<path id="XMLID_55801_" class="st6" d="M53.4,36.5L53.4,36.5c-0.6,0.4-0.4,1,0.3,1.2l0,0c0.3,0.1,0.7,0,1-0.1l0,0
						c0.6-0.4,0.4-1-0.3-1.2l0,0C54,36.3,53.6,36.3,53.4,36.5z"/>
				</g>
			</g>
			<g id="XMLID_55740_">
				<path id="XMLID_55743_" class="st7" d="M48.1,39.2L48.1,39.2c0,0,4.8-2.8,4.8-2.8l0,0c0.4-0.2,1-0.3,1.5-0.2l0,0
					c1.1,0.3,1.4,1.2,0.5,1.7c0,0-4.7,2.8-4.8,2.8l0,0c-0.4,0.2-1,0.3-1.5,0.2l0,0C47.5,40.6,47.2,39.7,48.1,39.2z"/>
				<path id="XMLID_55742_" class="st8" d="M47.4,39.2c0-0.3,0.2-0.6,0.5-0.8l0,0c0,0,5-2.9,5-2.9l0,0c0.4-0.2,1-0.3,1.5-0.2l0,0
					c0.6,0.1,1,0.5,1,0.9c0,0.1,0,0.4,0,0.4c0,0.3-0.2,0.5-0.5,0.7c0,0-5,2.9-5,2.9c-0.4,0.2-1,0.3-1.5,0.2l0,0
					c-0.6-0.1-1-0.5-1-0.9C47.4,39.6,47.4,39.3,47.4,39.2z"/>
				<path id="XMLID_55741_" class="st9" d="M48.1,38L48.1,38c0,0,4.8-2.8,4.8-2.8l0,0c0.4-0.2,1-0.3,1.5-0.2l0,0
					c1.1,0.3,1.4,1.2,0.5,1.7c0,0-4.7,2.8-4.8,2.8l0,0c-0.4,0.2-1,0.3-1.5,0.2l0,0C47.5,39.5,47.2,38.5,48.1,38z"/>
				<path id="XMLID_39097_" class="st10" d="M50.1,39.6L50.1,39.6c-0.4,0.2-1,0.3-1.5,0.2l0,0c-1.1-0.3-1.4-1.2-0.5-1.7l0,0
					c0,0,4.8-2.8,4.8-2.8l0,0c0.4-0.2,1-0.3,1.5-0.2l0,0"/>
			</g>
		</g>
	</g>
	<g id="XMLID_82_">
		<polygon id="XMLID_121_" class="st16" points="50.7,69.9 50.7,92.9 70.9,81.2 70.9,58.2 		"/>
		<polygon id="XMLID_120_" class="st17" points="50,91.3 60.8,97.6 83.9,84.2 73.1,78 		"/>
		<polygon id="XMLID_119_" class="st18" points="50.7,69.9 50.7,92.9 50,92.5 50,69.5 		"/>
		<polygon id="XMLID_118_" class="st16" points="50.7,68.7 50.7,91.7 70.9,80.1 70.9,57 		"/>
		<g id="XMLID_83_">
			<g id="XMLID_102_">
				<polygon id="XMLID_117_" class="st19" points="59.3,77.2 59.3,95.6 52.1,91.5 52.1,73 				"/>
				<polygon id="XMLID_116_" class="st0" points="59.3,77.2 59.3,80.1 52.1,76 52.1,73 				"/>
				<polygon id="XMLID_115_" class="st0" points="59.3,80.3 59.3,85 52.1,80.8 52.1,76.1 				"/>
				<polygon id="XMLID_114_" class="st0" points="59.3,85.1 59.3,94 52.1,89.9 52.1,81 				"/>
				<polygon id="XMLID_113_" class="st0" points="59.3,94.2 59.3,95.6 52.1,91.5 52.1,90 				"/>
				<g id="XMLID_105_">
					<polygon id="XMLID_112_" class="st20" points="57.4,81.9 57.4,82.8 53.8,80.7 53.8,79.8 					"/>
					<polygon id="XMLID_111_" class="st21" points="57.1,82.1 57.1,82.3 54.1,80.5 54.1,80.4 					"/>
					<g id="XMLID_106_">
						<polygon id="XMLID_110_" class="st20" points="58.5,80.8 58.5,82 53,78.8 53,77.5 						"/>
						<polygon id="XMLID_109_" class="st21" points="58.2,80.9 58.2,81.3 53.2,78.4 53.2,78.1 						"/>
						<g id="XMLID_107_">
							<path id="XMLID_108_" class="st21" d="M53.2,78.7l0.2,0.1l0,0v-0.1l0,0H53.2L53.2,78.7L53.2,78.7
								C53.2,78.7,53.3,78.7,53.2,78.7z"/>
						</g>
					</g>
				</g>
				<polygon id="XMLID_104_" class="st22" points="52.1,73 59.3,77.2 77.1,66.9 69.9,62.8 				"/>
				<polygon id="XMLID_103_" class="st23" points="59.3,77.2 59.3,95.6 77.1,85.4 77.1,66.9 				"/>
			</g>
			<g id="XMLID_99_">
				<path id="XMLID_101_" class="st24" d="M55.9,85.9L55.9,85.9c0.4,0.5,0.2,1-0.3,1l0,0c-0.2,0-0.4-0.2-0.6-0.4l0,0
					c-0.4-0.5-0.2-1,0.3-1l0,0C55.5,85.6,55.7,85.7,55.9,85.9z"/>
				<path id="XMLID_100_" class="st0" d="M55.8,86L55.8,86c0.3,0.4,0.2,0.8-0.2,0.8l0,0c-0.2,0-0.4-0.1-0.5-0.3l0,0
					c-0.3-0.4-0.2-0.8,0.2-0.8l0,0C55.5,85.7,55.7,85.8,55.8,86z"/>
			</g>
			<g id="XMLID_96_">
				<path id="XMLID_98_" class="st24" d="M55.8,87.6L55.8,87.6c0.2,0.3,0.1,0.6-0.2,0.6l0,0c-0.2,0-0.3-0.1-0.4-0.2l0,0
					c-0.2-0.3-0.1-0.6,0.2-0.6l0,0C55.5,87.4,55.6,87.5,55.8,87.6z"/>
				<path id="XMLID_97_" class="st0" d="M55.6,87.6L55.6,87.6c0.1,0.2,0.1,0.4-0.1,0.4l0,0c0,0-0.1,0-0.2-0.1l0,0
					c-0.1-0.2-0.1-0.4,0.1-0.4l0,0C55.5,87.5,55.6,87.6,55.6,87.6z"/>
			</g>
			<g id="XMLID_85_">
				<g id="XMLID_93_">
					<path id="XMLID_95_" class="st25" d="M55.4,88.6L55.4,88.6c0,0.1,0,0.2-0.1,0.2l0,0c0,0-0.1,0-0.1-0.1l0,0
						C55.2,88.6,55.2,88.5,55.4,88.6L55.4,88.6C55.4,88.5,55.4,88.6,55.4,88.6z"/>
					<path id="XMLID_94_" class="st26" d="M55.4,88.6L55.4,88.6c0,0.1,0,0.2,0,0.2C55.4,88.9,55.2,88.6,55.4,88.6L55.4,88.6
						C55.4,88.6,55.4,88.6,55.4,88.6z"/>
				</g>
				<g id="XMLID_90_">
					<path id="XMLID_92_" class="st27" d="M55,88.4L55,88.4c0,0.1,0,0.2-0.1,0.2l0,0c0,0-0.1,0-0.1-0.1l0,0
						C54.8,88.4,54.8,88.3,55,88.4L55,88.4C55,88.3,55,88.3,55,88.4z"/>
					<path id="XMLID_91_" class="st28" d="M55,88.3L55,88.3c0,0.1,0,0.2,0,0.2C55,88.6,54.8,88.3,55,88.3L55,88.3
						C54.9,88.3,55,88.4,55,88.3z"/>
				</g>
				<g id="XMLID_87_">
					<path id="XMLID_89_" class="st29" d="M55.8,88.9L55.8,88.9c0,0.1,0,0.2-0.1,0.2l0,0c0,0-0.1,0-0.1-0.1l0,0
						C55.6,88.9,55.6,88.8,55.8,88.9L55.8,88.9C55.8,88.8,55.8,88.8,55.8,88.9z"/>
					<path id="XMLID_88_" class="st30" d="M55.8,88.8L55.8,88.8c0,0.1,0,0.2,0,0.2C55.8,89.1,55.6,88.8,55.8,88.8L55.8,88.8
						C55.8,88.8,55.8,88.8,55.8,88.8z"/>
				</g>
			</g>
		</g>
	</g>
	<g id="XMLID_28_">
		<g id="XMLID_31_">
			<g id="XMLID_32_">
				<g id="XMLID_38_">
					<g id="XMLID_39_">
						<polygon id="XMLID_81_" class="st31" points="44.2,62.5 21.1,75.8 21.1,52.7 44.2,39.4 						"/>
						<polygon id="XMLID_16542_" class="st32" points="44.2,62.5 32.4,69.3 21.1,52.7 44.2,39.4 						"/>
						<polygon id="XMLID_80_" class="st33" points="4.7,66.4 21.1,75.8 21.1,52.7 60.1,75.3 60.1,98.3 60.8,98.7 60.8,74.8 
							4.7,42.4 						"/>
						<polyline id="XMLID_16549_" class="st18" points="21.1,75.8 21.1,52.7 60.1,75.3 60.1,98.3 60.8,98.7 60.8,74.8 4.7,42.4 
													"/>
						<g id="XMLID_65_">
							<g id="XMLID_70_">
								<polygon id="XMLID_78_" class="st34" points="6.3,51 19.4,58.6 19.4,51.8 6.3,44.2 								"/>
								<polygon id="XMLID_75_" class="st35" points="19.2,58.1 19.4,58 19.4,52.1 6.8,44.8 6.5,44.9 6.5,50.8 								"/>
								<polygon id="XMLID_74_" class="st18" points="6.5,50.8 19.2,58.1 19.2,52.2 6.5,44.9 								"/>
								<polyline id="XMLID_16546_" class="st3" points="19.2,58.1 19.2,52.2 6.5,44.9 								"/>
								<polygon id="XMLID_73_" class="st35" points="18.7,52.8 19.2,52.5 19.2,52.2 18.7,52.5 								"/>
								<polygon id="XMLID_72_" class="st35" points="18.5,53.1 18.7,52.9 18.7,52.5 18.5,52.6 								"/>
								<polygon id="XMLID_71_" class="st36" points="6.5,44.9 19.2,52.2 19.4,52.1 6.8,44.8 								"/>
							</g>
							<polygon id="XMLID_69_" class="st36" points="6.3,45.1 19,52.4 19.2,52.2 6.5,44.9 							"/>
							<polygon id="XMLID_68_" class="st36" points="6.1,45.2 18.7,52.5 19,52.4 6.3,45.1 							"/>
							<polygon id="XMLID_67_" class="st36" points="5.8,45.3 18.5,52.6 18.7,52.5 6.1,45.2 							"/>
							<polygon id="XMLID_66_" class="st37" points="5.8,45.3 18.5,52.6 18.5,53.1 5.8,45.7 							"/>
						</g>
						<g id="XMLID_53_">
							<g id="XMLID_58_">
								<polygon id="XMLID_64_" class="st34" points="6.3,58.4 19.4,66 19.4,59.2 6.3,51.6 								"/>
								<polygon id="XMLID_63_" class="st35" points="19.2,65.5 19.4,65.4 19.4,59.5 6.8,52.2 6.5,52.3 6.5,58.2 								"/>
								<polygon id="XMLID_62_" class="st18" points="6.5,58.2 19.2,65.5 19.2,59.6 6.5,52.3 								"/>
								<polyline id="XMLID_16547_" class="st3" points="19.2,65.5 19.2,59.6 6.5,52.3 								"/>
								<polygon id="XMLID_61_" class="st35" points="18.7,60.2 19.2,59.9 19.2,59.6 18.7,59.9 								"/>
								<polygon id="XMLID_60_" class="st35" points="18.5,60.4 18.7,60.3 18.7,59.9 18.5,60 								"/>
								<polygon id="XMLID_59_" class="st36" points="6.5,52.3 19.2,59.6 19.4,59.5 6.8,52.2 								"/>
							</g>
							<polygon id="XMLID_57_" class="st36" points="6.3,52.4 19,59.8 19.2,59.6 6.5,52.3 							"/>
							<polygon id="XMLID_56_" class="st36" points="6.1,52.6 18.7,59.9 19,59.8 6.3,52.4 							"/>
							<polygon id="XMLID_55_" class="st36" points="5.8,52.7 18.5,60 18.7,59.9 6.1,52.6 							"/>
							<polygon id="XMLID_54_" class="st37" points="5.8,52.7 18.5,60 18.5,60.4 5.8,53.1 							"/>
						</g>
						<g id="XMLID_41_">
							<g id="XMLID_46_">
								<polygon id="XMLID_52_" class="st34" points="6.3,65.8 19.4,73.4 19.4,66.6 6.3,59 								"/>
								<polygon id="XMLID_51_" class="st35" points="19.2,72.9 19.4,72.8 19.4,66.9 6.8,59.6 6.5,59.7 6.5,65.6 								"/>
								<polygon id="XMLID_50_" class="st18" points="6.5,65.6 19.2,72.9 19.2,67 6.5,59.7 								"/>
								<polyline id="XMLID_16548_" class="st3" points="19.2,72.9 19.2,67 6.5,59.7 								"/>
								<polygon id="XMLID_49_" class="st35" points="18.7,67.6 19.2,67.3 19.2,67 18.7,67.3 								"/>
								<polygon id="XMLID_48_" class="st35" points="18.5,67.8 18.7,67.7 18.7,67.3 18.5,67.4 								"/>
								<polygon id="XMLID_47_" class="st36" points="6.5,59.7 19.2,67 19.4,66.9 6.8,59.6 								"/>
							</g>
							<polygon id="XMLID_45_" class="st36" points="6.3,59.8 19,67.1 19.2,67 6.5,59.7 							"/>
							<polygon id="XMLID_44_" class="st36" points="6.1,59.9 18.7,67.3 19,67.1 6.3,59.8 							"/>
							<polygon id="XMLID_43_" class="st36" points="5.8,60.1 18.5,67.4 18.7,67.3 6.1,59.9 							"/>
							<polygon id="XMLID_42_" class="st37" points="5.8,60.1 18.5,67.4 18.5,67.8 5.8,60.5 							"/>
						</g>
						<polygon id="XMLID_40_" class="st16" points="60.8,98.7 61.5,98.3 83.2,85.8 83.9,85.4 83.9,61.5 60.8,74.8 						"/>
					</g>
				</g>
				<g id="XMLID_33_">
					<g id="XMLID_34_">
						<polygon id="XMLID_37_" class="st38" points="4.7,40.9 4.7,42.4 60.8,74.8 60.8,73.3 						"/>
						<polygon id="XMLID_36_" class="st39" points="83.9,61.5 60.8,74.8 60.8,73.3 83.9,60 						"/>
						<polygon id="XMLID_35_" class="st40" points="4.5,40.9 60.6,73.3 83.7,60 27.6,27.6 						"/>
						<polygon class="st41" points="19.2,36 13,36 4.5,40.9 19.2,49.4 						"/>
						<polyline id="XMLID_16550_" class="st41" points="60.8,73.3 83.9,60 27.8,27.6 						"/>
						<polygon class="st41" points="24,29.9 23.4,30.1 23.4,51.7 32.3,56.8 32.3,30.2 31.7,29.9 						"/>
						<polygon class="st41" points="53.3,68.9 61.4,68.9 61.4,48.3 50.1,47.2 50.1,67.1 						"/>
					</g>
				</g>
			</g>
		</g>
		<g id="XMLID_29_">
			<polygon id="XMLID_30_" class="st18" points="50,92.5 60.8,98.7 60.8,97.6 50,91.3 			"/>
		</g>
	</g>
	<g>
		<g id="XMLID_16993_">
			<g id="XMLID_16994_">
				<path id="XMLID_17002_" class="st42" d="M61,58.5l5.1,2.9l0.1,0.3c0,0,0.3,0.2,0.5,0.1c0.1,0,7.5-4.3,7.5-4.3
					c0.2-0.2,0-0.8-0.6-1.1l0,0l-5.1-2.9c-0.2-0.1-0.3-0.1-0.5,0l-7,4.1V58.5z"/>
				<path class="st43" d="M68.1,53.4l-7,4.1v0.1l5.1,2.9l0.1,0.3c0,0,0.3,0.2,0.5,0.1c0.1,0,6-3.5,7.3-4.2c-0.1-0.1-0.3-0.2-0.4-0.3
					l0,0l-5.1-2.9C68.4,53.4,68.2,53.4,68.1,53.4z"/>
				<path class="st44" d="M73.7,56.5"/>
				<path class="st44" d="M68.5,53.5c-0.2-0.1-0.3-0.1-0.5,0l-7,4.1v0.1l5.1,2.9l0.1,0.3c0,0,0.3,0.2,0.5,0.1"/>
				<g id="XMLID_17000_">
					<path id="XMLID_17001_" class="st42" d="M61.2,58.4c-0.1-0.1-0.1,0.3-0.1,0.3c0,0.1,0,0.1,0.1,0.2c0.1,0,4,2.3,4.9,2.8
						c0.9,0.6,0.9-0.5,0-1s-4.8-2.7-4.9-2.8c-0.1-0.1-0.1,0.2-0.1,0.3C61.1,58.2,61.1,58.3,61.2,58.4L61.2,58.4z"/>
				</g>
				<g id="XMLID_16998_">
					<path id="XMLID_16999_" class="st45" d="M60.9,58c0,0.1,0.1,0.2,0.1,0.2c-0.2,0.2-0.1,0.4-0.1,0.5c0,0,0.1,0.1,0.2,0.2
						c0.1,0.1,4.1,2.4,5,2.9c0.9,0.6,1.1-0.8,0.5-1.2c-0.9-0.5-5.3-2.9-5.4-3C61.1,57.5,60.9,57.6,60.9,58z"/>
				</g>
				<g id="XMLID_16996_">
					<path id="XMLID_16997_" class="st46" d="M61.2,58.3c-0.1-0.1-0.1,0.1-0.1,0.2c0,0.1,0,0.1,0.1,0.2c0.2,0.1,4,2.3,4.9,2.8
						c0.5,0.3,0.8-0.5,0.2-0.8c-0.9-0.5-5-2.8-5.1-2.9c-0.1-0.1-0.1,0.1-0.1,0.2C61.1,58,61.1,58.1,61.2,58.3L61.2,58.3z"/>
				</g>
				<path id="XMLID_16995_" class="st45" d="M61.2,58.4c1.1,0.6,3.8,2.2,4.6,2.7c0.1,0,0.2,0.2,0.2,0.2c0.2,0.1,0.1-0.1,0.1-0.2
					c0-0.1,0.2-0.1,0.1-0.2c0,0-0.2,0-0.3-0.1c-1-0.5-4.7-2.6-4.7-2.6C61.2,58.2,61.2,58.4,61.2,58.4z"/>
			</g>
		</g>
		<g id="XMLID_17003_">
			<g id="XMLID_17004_">
				<path id="XMLID_17012_" class="st42" d="M61,57.2l5.1,2.9l0.1,0.3c0,0,0.3,0.2,0.5,0.1c0.1,0,7.5-4.3,7.5-4.3
					c0.2-0.2,0-0.8-0.6-1.1l0,0l-5.1-2.9c-0.2-0.1-0.3-0.1-0.5,0l-7,4.1V57.2z"/>
				<path class="st43" d="M68.1,52.2l-7,4.1v0.1l5.1,2.9l0.1,0.3c0,0,0.3,0.2,0.5,0.1c0.1,0,6-3.5,7.3-4.2c-0.1-0.1-0.3-0.2-0.4-0.3
					l0,0l-5.1-2.9C68.4,52.2,68.2,52.2,68.1,52.2z"/>
				<path class="st44" d="M73.7,55.2"/>
				<path class="st44" d="M68.5,52.2c-0.2-0.1-0.3-0.1-0.5,0l-7,4.1v0.1l5.1,2.9l0.1,0.3c0,0,0.3,0.2,0.5,0.1"/>
				<g id="XMLID_17010_">
					<path id="XMLID_17011_" class="st42" d="M61.2,57.2c-0.1-0.1-0.1,0.2-0.1,0.3s0,0.1,0.1,0.2c0.1,0,4,2.3,4.9,2.8
						c0.9,0.6,0.9-0.5,0-1s-4.8-2.7-4.9-2.8c-0.1-0.1-0.1,0.2-0.1,0.3C61.1,57,61.1,57.1,61.2,57.2L61.2,57.2z"/>
				</g>
				<g id="XMLID_17008_">
					<path id="XMLID_17009_" class="st45" d="M60.9,56.7c0,0.1,0.1,0.2,0.1,0.2c-0.2,0.2-0.1,0.4-0.1,0.5c0,0,0.1,0.1,0.2,0.2
						c0.1,0.1,4.1,2.4,5,2.9c0.9,0.6,1.1-0.8,0.5-1.2c-0.9-0.5-5.3-2.9-5.4-3C61.1,56.3,60.9,56.3,60.9,56.7z"/>
				</g>
				<g id="XMLID_17006_">
					<path id="XMLID_17007_" class="st46" d="M61.2,57c-0.1-0.1-0.1,0.1-0.1,0.2c0,0.1,0,0.1,0.1,0.2c0.2,0.1,4,2.3,4.9,2.8
						c0.5,0.3,0.8-0.5,0.2-0.8c-0.9-0.5-5-2.8-5.1-2.9c-0.1-0.1-0.1,0.1-0.1,0.2C61.1,56.7,61.1,56.8,61.2,57L61.2,57z"/>
				</g>
				<path id="XMLID_17005_" class="st45" d="M61.2,57.1c1.1,0.6,3.8,2.2,4.6,2.7c0.1,0,0.2,0.2,0.2,0.2c0.2,0.1,0.1-0.1,0.1-0.2
					c0-0.1,0.2-0.1,0.1-0.2c0,0-0.2,0-0.3-0.1c-1-0.5-4.7-2.6-4.7-2.6C61.2,56.9,61.2,57.1,61.2,57.1z"/>
			</g>
		</g>
		<g id="XMLID_17013_">
			<g id="XMLID_17014_">
				<path id="XMLID_17022_" class="st42" d="M61,56l5.1,2.9l0.1,0.3c0,0,0.3,0.2,0.5,0.1c0.1,0,7.5-4.3,7.5-4.3
					c0.2-0.2,0-0.8-0.6-1.1l0,0L68.5,51c-0.2-0.1-0.3-0.1-0.5,0l-7,4.1V56z"/>
				<path class="st43" d="M68.1,51l-7,4.1v0l5.1,2.9l0.1,0.3c0,0,0.3,0.2,0.5,0.1c0.1,0,6-3.5,7.3-4.2c-0.1-0.1-0.3-0.2-0.4-0.3l0,0
					L68.6,51C68.4,50.9,68.2,50.9,68.1,51z"/>
				<path class="st44" d="M73.7,54"/>
				<path class="st44" d="M68.5,51c-0.2-0.1-0.3-0.1-0.5,0l-7,4.1v0.1l5.1,2.9l0.1,0.3c0,0,0.3,0.2,0.5,0.1"/>
				<g id="XMLID_17020_">
					<path id="XMLID_17021_" class="st42" d="M61.2,55.9c-0.1-0.1-0.1,0.3-0.1,0.3c0,0.1,0,0.1,0.1,0.2c0.1,0,4,2.3,4.9,2.8
						c0.9,0.6,0.9-0.5,0-1s-4.8-2.7-4.9-2.8c-0.1-0.1-0.1,0.2-0.1,0.3C61.1,55.7,61.1,55.8,61.2,55.9L61.2,55.9z"/>
				</g>
				<g id="XMLID_17018_">
					<path id="XMLID_17019_" class="st45" d="M60.9,55.5c0,0.1,0.1,0.2,0.1,0.2c-0.2,0.2-0.1,0.4-0.1,0.5c0,0,0.1,0.1,0.2,0.2
						c0.1,0.1,4.1,2.4,5,2.9c0.9,0.6,1.1-0.8,0.5-1.2c-0.9-0.5-5.3-2.9-5.4-3C61.1,55,60.9,55.1,60.9,55.5z"/>
				</g>
				<g id="XMLID_17016_">
					<path id="XMLID_17017_" class="st46" d="M61.2,55.8c-0.1-0.1-0.1,0.1-0.1,0.2c0,0.1,0,0.1,0.1,0.2c0.2,0.1,4,2.3,4.9,2.8
						c0.5,0.3,0.8-0.5,0.2-0.8c-0.9-0.5-5-2.8-5.1-2.9s-0.1,0.1-0.1,0.2C61.1,55.5,61.1,55.6,61.2,55.8L61.2,55.8z"/>
				</g>
				<path id="XMLID_17015_" class="st45" d="M61.2,55.9c1.1,0.6,3.8,2.2,4.6,2.7c0.1,0,0.2,0.2,0.2,0.2c0.2,0.1,0.1-0.1,0.1-0.2
					c0-0.1,0.2-0.1,0.1-0.2c0,0-0.2,0-0.3-0.1c-1-0.5-4.7-2.6-4.7-2.6C61.2,55.7,61.2,55.9,61.2,55.9z"/>
			</g>
		</g>
	</g>
	<g id="XMLID_16584_">
		<g id="XMLID_16585_">
			<path id="XMLID_16992_" class="st47" d="M29.8,38.5c0,0.1,0,0.1,0.1,0.2L44.2,47c0.2,0.1,0.5,0.1,0.7,0l5.7-3.3
				c0.1,0,0.1-0.1,0.1-0.2c0-0.1,0-0.6,0-0.7c0-0.1,0-0.2-0.1-0.2l-14.3-8.3c-0.2-0.1-0.5-0.1-0.7,0l-5.7,3.3
				c-0.1,0-0.1,0.1-0.1,0.2S29.8,38.4,29.8,38.5z"/>
			<path class="st48" d="M29.9,37.8c0,0.1,0,0.6,0,0.7c0,0.1,0,0.1,0.1,0.2L44.3,47c0.1,0.1,0.2,0.1,0.3,0.1v-8l-8.3-4.8
				c-0.2-0.1-0.5-0.1-0.7,0l-5.7,3.3C29.8,37.6,29.8,37.7,29.9,37.8z"/>
			<path id="XMLID_16991_" class="st49" d="M29.9,38l14.3,8.3c0.2,0.1,0.5,0.1,0.7,0l5.7-3.3c0.2-0.1,0.2-0.3,0-0.4l-14.3-8.3
				c-0.2-0.1-0.5-0.1-0.7,0l-5.7,3.3C29.7,37.7,29.7,37.9,29.9,38z"/>
			<g id="XMLID_16586_">
				<g id="XMLID_16895_">
					<g id="XMLID_16964_">
						<g id="XMLID_16978_">
							<g id="XMLID_16985_">
								<g id="XMLID_16986_">
									<g id="XMLID_16987_">
										<g id="XMLID_16988_">
											<path id="XMLID_16990_" class="st48" d="M48,42.4C48,42.5,48,42.5,48,42.4l0.5,0.4c0,0,0.1,0,0.2,0l0.2-0.1v-0.1v-0.1
												c0-0.1,0-0.1,0-0.1l-0.6-0.3c0,0-0.1,0-0.2,0l-0.3,0.2c0-0.1,0,0,0,0L48,42.4z"/>
											<path id="XMLID_16989_" class="st47" d="M48.1,42l-0.2,0.1c-0.1,0.1-0.1,0.2,0,0.2l0.5,0.3c0,0,0.1,0,0.2,0l0.2-0.1
												c0.1-0.1,0.1-0.2,0-0.2L48.3,42C48.2,41.9,48.2,41.9,48.1,42z"/>
										</g>
									</g>
								</g>
							</g>
							<g id="XMLID_16979_">
								<g id="XMLID_16980_">
									<g id="XMLID_16981_">
										<g id="XMLID_16982_">
											<path id="XMLID_16984_" class="st48" d="M47,41.8L47,41.8l0.5,0.4c0,0,0.1,0,0.2,0l0.2-0.1V42v-0.1c0-0.1,0-0.1,0-0.1
												l-0.5-0.3c0,0-0.1,0-0.2,0L47,41.8L47,41.8L47,41.8z"/>
											<path id="XMLID_16983_" class="st47" d="M47.2,41.5L47,41.6c-0.1,0.1-0.1,0.2,0,0.2l0.5,0.3c0,0,0.1,0,0.2,0l0.2-0.1
												c0.1-0.1,0.1-0.2,0-0.2l-0.5-0.3C47.3,41.4,47.2,41.4,47.2,41.5z"/>
										</g>
									</g>
								</g>
							</g>
						</g>
						<g id="XMLID_16965_">
							<g id="XMLID_16972_">
								<g id="XMLID_16973_">
									<g id="XMLID_16974_">
										<g id="XMLID_16975_">
											<path id="XMLID_16977_" class="st48" d="M46.1,41.3C46.1,41.4,46.1,41.4,46.1,41.3l0.5,0.4c0,0,0.1,0,0.2,0l0.2-0.1v-0.1
												v-0.1c0-0.1,0-0.1,0-0.1L46.5,41c0,0-0.1,0-0.2,0L46.1,41.3L46.1,41.3L46.1,41.3z"/>
											<path id="XMLID_16976_" class="st47" d="M46.3,40.9L46.1,41c-0.1,0.1-0.1,0.2,0,0.2l0.5,0.3c0,0,0.1,0,0.2,0l0.2-0.1
												c0.1-0.1,0.1-0.2,0-0.2l-0.5-0.3C46.4,40.9,46.3,40.9,46.3,40.9z"/>
										</g>
									</g>
								</g>
							</g>
							<g id="XMLID_16966_">
								<g id="XMLID_16967_">
									<g id="XMLID_16968_">
										<g id="XMLID_16969_">
											<path id="XMLID_16971_" class="st48" d="M45.1,40.8C45.1,40.9,45.1,40.9,45.1,40.8l0.5,0.4c0,0,0.1,0,0.2,0l0.2-0.1V41
												v-0.1c0-0.1,0-0.1,0-0.1l-0.5-0.3c0,0-0.1,0-0.2,0L45.1,40.8C45.1,40.6,45,40.7,45.1,40.8L45.1,40.8z"/>
											<path id="XMLID_16970_" class="st47" d="M45.3,40.4l-0.1,0.1c-0.1,0.1-0.1,0.2,0,0.2l0.5,0.3c0,0,0.1,0,0.2,0l0.2-0.1
												c0.1-0.1,0.1-0.2,0-0.2l-0.5-0.3C45.5,40.3,45.4,40.3,45.3,40.4z"/>
										</g>
									</g>
								</g>
							</g>
						</g>
					</g>
					<g id="XMLID_16937_">
						<g id="XMLID_16951_">
							<g id="XMLID_16958_">
								<g id="XMLID_16959_">
									<g id="XMLID_16960_">
										<g id="XMLID_16961_">
											<path id="XMLID_16963_" class="st48" d="M44.2,40.2L44.2,40.2l0.5,0.4c0,0,0.1,0,0.2,0l0.2-0.1v-0.1v0c0-0.1,0-0.1,0-0.1
												L44.6,40c0,0-0.1,0-0.2,0L44.2,40.2C44.1,40.1,44.1,40.1,44.2,40.2L44.2,40.2z"/>
											<path id="XMLID_16962_" class="st47" d="M44.4,39.9L44.2,40c-0.1,0.1-0.1,0.2,0,0.2l0.5,0.3c0,0,0.1,0,0.2,0l0.2-0.1
												c0.1-0.1,0.1-0.2,0-0.2l-0.5-0.3C44.6,39.8,44.5,39.8,44.4,39.9z"/>
										</g>
									</g>
								</g>
							</g>
							<g id="XMLID_16952_">
								<g id="XMLID_16953_">
									<g id="XMLID_16954_">
										<g id="XMLID_16955_">
											<path id="XMLID_16957_" class="st48" d="M43.3,39.7C43.3,39.8,43.3,39.8,43.3,39.7l0.5,0.4c0,0,0.1,0,0.2,0l0.2-0.1v-0.1
												v-0.1c0-0.1,0-0.1,0-0.1l-0.5-0.3c0,0-0.1,0-0.2,0l-0.3,0.2l0,0L43.3,39.7z"/>
											<path id="XMLID_16956_" class="st47" d="M43.5,39.3l-0.2,0.1c-0.1,0.1-0.1,0.2,0,0.2l0.5,0.3c0,0,0.1,0,0.2,0l0.2-0.1
												c0.1-0.1,0.1-0.2,0-0.2l-0.5-0.3C43.6,39.3,43.6,39.3,43.5,39.3z"/>
										</g>
									</g>
								</g>
							</g>
						</g>
						<g id="XMLID_16938_">
							<g id="XMLID_16945_">
								<g id="XMLID_16946_">
									<g id="XMLID_16947_">
										<g id="XMLID_16948_">
											<path id="XMLID_16950_" class="st48" d="M42.4,39.2L42.4,39.2l0.5,0.4c0,0,0.1,0,0.2,0l0.2-0.1v-0.1v-0.1
												c0-0.1,0-0.1,0-0.1l-0.5-0.3c0,0-0.1,0-0.2,0L42.4,39.2C42.3,39,42.3,39.1,42.4,39.2L42.4,39.2z"/>
											<path id="XMLID_16949_" class="st47" d="M42.6,38.8l-0.2,0.1c-0.1,0.1-0.1,0.2,0,0.2l0.5,0.3c0,0,0.1,0,0.2,0l0.2-0.1
												c0.1-0.1,0.1-0.2,0-0.2l-0.5-0.3C42.7,38.8,42.6,38.8,42.6,38.8z"/>
										</g>
									</g>
								</g>
							</g>
							<g id="XMLID_16939_">
								<g id="XMLID_16940_">
									<g id="XMLID_16941_">
										<g id="XMLID_16942_">
											<path id="XMLID_16944_" class="st48" d="M41.4,38.7L41.4,38.7l0.5,0.4c0,0,0.1,0,0.2,0l0.2-0.1v-0.1v-0.1
												c0-0.1,0-0.1,0-0.1l-0.5-0.3c0,0-0.1,0-0.2,0L41.4,38.7C41.4,38.5,41.4,38.5,41.4,38.7L41.4,38.7z"/>
											<path id="XMLID_16943_" class="st47" d="M41.6,38.3l-0.1,0.1c-0.1,0.1-0.1,0.2,0,0.2l0.5,0.3c0,0,0.1,0,0.2,0l0.2-0.1
												c0.1-0.1,0.1-0.2,0-0.2l-0.5-0.3C41.8,38.2,41.7,38.2,41.6,38.3z"/>
										</g>
									</g>
								</g>
							</g>
						</g>
					</g>
					<g id="XMLID_16910_">
						<g id="XMLID_16924_">
							<g id="XMLID_16931_">
								<g id="XMLID_16932_">
									<g id="XMLID_16933_">
										<g id="XMLID_16934_">
											<path id="XMLID_16936_" class="st48" d="M40.5,38.1L40.5,38.1l0.5,0.4c0,0,0.1,0,0.2,0l0.2-0.1v-0.1v-0.1
												c0-0.1,0-0.1,0-0.1l-0.5-0.3c0,0-0.1,0-0.2,0L40.5,38.1C40.5,38,40.5,38,40.5,38.1L40.5,38.1z"/>
											<path id="XMLID_16935_" class="st47" d="M40.8,37.7l-0.2,0.1c-0.1,0.1-0.1,0.2,0,0.2l0.5,0.3c0,0,0.1,0,0.2,0l0.2-0.1
												c0.1-0.1,0.1-0.2,0-0.2L41,37.7C40.9,37.7,40.8,37.7,40.8,37.7z"/>
										</g>
									</g>
								</g>
							</g>
							<g id="XMLID_16925_">
								<g id="XMLID_16926_">
									<g id="XMLID_16927_">
										<g id="XMLID_16928_">
											<path id="XMLID_16930_" class="st48" d="M39.7,37.6L39.7,37.6l0.5,0.4c0,0,0.1,0,0.2,0l0.2-0.1v-0.1v-0.1
												c0-0.1,0-0.1,0-0.1L40,37.3c0,0-0.1,0-0.2,0l-0.3,0.2c0-0.1,0,0,0,0L39.7,37.6z"/>
											<path id="XMLID_16929_" class="st47" d="M39.9,37.2l-0.2,0.1c-0.1,0.1-0.1,0.2,0,0.2l0.5,0.3c0,0,0.1,0,0.2,0l0.2-0.1
												c0.1-0.1,0.1-0.2,0-0.2L40,37.2H39.9z"/>
										</g>
									</g>
								</g>
							</g>
						</g>
						<g id="XMLID_16911_">
							<g id="XMLID_16918_">
								<g id="XMLID_16919_">
									<g id="XMLID_16920_">
										<g id="XMLID_16921_">
											<path id="XMLID_16923_" class="st48" d="M38.7,37.1C38.7,37.2,38.7,37.2,38.7,37.1l0.5,0.4c0,0,0.1,0,0.2,0l0.2-0.1v-0.1
												v-0.1c0-0.1,0-0.1,0-0.1l-0.5-0.3c0,0-0.1,0-0.2,0L38.7,37.1C38.6,36.9,38.6,36.9,38.7,37.1L38.7,37.1z"/>
											<path id="XMLID_16922_" class="st47" d="M38.9,36.7l-0.2,0.1c-0.1,0.1-0.1,0.2,0,0.2l0.5,0.3c0,0,0.1,0,0.2,0l0.2-0.1
												c0.1-0.1,0.1-0.2,0-0.2l-0.5-0.3C39.1,36.6,39,36.6,38.9,36.7z"/>
										</g>
									</g>
								</g>
							</g>
							<g id="XMLID_16912_">
								<g id="XMLID_16913_">
									<g id="XMLID_16914_">
										<g id="XMLID_16915_">
											<path id="XMLID_16917_" class="st48" d="M37.8,36.5L37.8,36.5l0.5,0.4c0,0,0.1,0,0.2,0l0.2-0.1v-0.1v-0.1
												c0-0.1,0-0.1,0-0.1l-0.5-0.3c0,0-0.1,0-0.2,0L37.8,36.5L37.8,36.5L37.8,36.5z"/>
											<path id="XMLID_16916_" class="st47" d="M38,36.1l-0.2,0.1c-0.1,0.1-0.1,0.2,0,0.2l0.5,0.3c0,0,0.1,0,0.2,0l0.2-0.1
												c0.1-0.1,0.1-0.2,0-0.2l-0.5-0.3C38.1,36.1,38,36.1,38,36.1z"/>
										</g>
									</g>
								</g>
							</g>
						</g>
					</g>
					<g id="XMLID_16896_">
						<g id="XMLID_16897_">
							<g id="XMLID_16904_">
								<g id="XMLID_16905_">
									<g id="XMLID_16906_">
										<g id="XMLID_16907_">
											<path id="XMLID_16909_" class="st48" d="M36.9,36L36.9,36l0.5,0.4c0,0,0.1,0,0.2,0l0.2-0.1v-0.1v-0.1c0-0.1,0-0.1,0-0.1
												l-0.5-0.3c0,0-0.1,0-0.2,0l-0.3,0.2c0-0.1,0,0,0,0L36.9,36z"/>
											<path id="XMLID_16908_" class="st47" d="M37.1,35.6l-0.2,0.1c-0.1,0.1-0.1,0.2,0,0.2l0.5,0.3c0,0,0.1,0,0.2,0l0.2-0.1
												c0.1-0.1,0.1-0.2,0-0.2l-0.5-0.3C37.2,35.6,37.1,35.6,37.1,35.6z"/>
										</g>
									</g>
								</g>
							</g>
							<g id="XMLID_16898_">
								<g id="XMLID_16899_">
									<g id="XMLID_16900_">
										<g id="XMLID_16901_">
											<path id="XMLID_16903_" class="st48" d="M36,35.5L36,35.5l0.5,0.4c0,0,0.1,0,0.2,0l0.2-0.1v-0.1v-0.1c0-0.1,0-0.1,0-0.1
												l-0.5-0.3c0,0-0.1,0-0.2,0L36,35.5C35.9,35.3,35.9,35.3,36,35.5L36,35.5z"/>
											<path id="XMLID_16902_" class="st47" d="M36.2,35.1L36,35.2c-0.1,0.1-0.1,0.2,0,0.2l0.5,0.3c0,0,0.1,0,0.2,0l0.2-0.1
												c0.1-0.1,0.1-0.2,0-0.2l-0.5-0.3C36.3,35,36.2,35,36.2,35.1z"/>
										</g>
									</g>
								</g>
							</g>
						</g>
					</g>
				</g>
				<g id="XMLID_16830_">
					<g id="XMLID_16886_">
						<g id="XMLID_16891_">
							<g id="XMLID_16892_">
								<path id="XMLID_16894_" class="st48" d="M36.3,36.7C36.3,36.8,36.3,36.8,36.3,36.7l0.5,0.4c0,0,0.1,0,0.2,0l0.5-0.3v-0.1
									v-0.1c0-0.1,0-0.1,0-0.1L37,36.2c0,0-0.1,0-0.2,0L36.3,36.7C36.2,36.5,36.2,36.6,36.3,36.7L36.3,36.7z"/>
								<path id="XMLID_16893_" class="st47" d="M36.8,36.1l-0.5,0.3c-0.1,0.1-0.1,0.2,0,0.2l0.5,0.3c0,0,0.1,0,0.2,0l0.5-0.3
									c0.1-0.1,0.1-0.2,0-0.2L37,36.1C36.9,36.1,36.8,36.1,36.8,36.1z"/>
							</g>
						</g>
						<g id="XMLID_16887_">
							<g id="XMLID_16888_">
								<path id="XMLID_16890_" class="st48" d="M37.1,37.2C37.1,37.3,37.1,37.3,37.1,37.2l0.5,0.4c0,0,0.1,0,0.2,0l0.5-0.3v-0.1
									v-0.1c0-0.1,0-0.1,0-0.1l-0.5-0.3c0,0-0.1,0-0.2,0L37.1,37.2C37.1,37,37.1,37.1,37.1,37.2L37.1,37.2z"/>
								<path id="XMLID_16889_" class="st47" d="M37.6,36.6l-0.4,0.3c-0.1,0.1-0.1,0.2,0,0.2l0.5,0.3c0,0,0.1,0,0.2,0l0.5-0.3
									c0.1-0.1,0.1-0.2,0-0.2l-0.5-0.3C37.8,36.6,37.7,36.6,37.6,36.6z"/>
							</g>
						</g>
					</g>
					<g id="XMLID_16881_">
						<g id="XMLID_16882_">
							<g id="XMLID_16883_">
								<path id="XMLID_16885_" class="st48" d="M35.1,36C35.1,36.1,35.1,36.1,35.1,36l0.8,0.6c0,0,0.1,0,0.2,0l0.5-0.3v-0.1v-0.1
									c0-0.1,0-0.1,0-0.1l-0.8-0.5c0,0-0.1,0-0.2,0L35.1,36C35,35.8,35,35.9,35.1,36L35.1,36z"/>
								<path id="XMLID_16884_" class="st47" d="M35.5,35.4l-0.4,0.3c-0.1,0.1-0.1,0.2,0,0.2l0.8,0.5c0,0,0.1,0,0.2,0l0.5-0.3
									c0.1-0.1,0.1-0.2,0-0.2l-0.8-0.5C35.7,35.4,35.6,35.4,35.5,35.4z"/>
							</g>
						</g>
					</g>
					<g id="XMLID_16872_">
						<g id="XMLID_16877_">
							<g id="XMLID_16878_">
								<path id="XMLID_16880_" class="st48" d="M38.1,37.7C38.1,37.8,38.1,37.8,38.1,37.7l0.5,0.4c0,0,0.1,0,0.2,0l0.5-0.3v-0.1
									v-0.1c0-0.1,0-0.1,0-0.1l-0.5-0.3c0,0-0.1,0-0.2,0L38.1,37.7L38.1,37.7L38.1,37.7z"/>
								<path id="XMLID_16879_" class="st47" d="M38.6,37.2l-0.5,0.3c-0.1,0.1-0.1,0.2,0,0.2l0.5,0.3c0,0,0.1,0,0.2,0l0.5-0.3
									c0.1-0.1,0.1-0.2,0-0.2l-0.5-0.3C38.7,37.1,38.6,37.1,38.6,37.2z"/>
							</g>
						</g>
						<g id="XMLID_16873_">
							<g id="XMLID_16874_">
								<path id="XMLID_16876_" class="st48" d="M39,38.2C39,38.3,39,38.3,39,38.2l0.5,0.4c0,0,0.1,0,0.2,0l0.5-0.3v-0.1v-0.1
									c0-0.1,0-0.1,0-0.1l-0.5-0.3c0,0-0.1,0-0.2,0L39,38.2L39,38.2L39,38.2z"/>
								<path id="XMLID_16875_" class="st47" d="M39.5,37.7L39,38c-0.1,0.1-0.1,0.2,0,0.2l0.5,0.3c0,0,0.1,0,0.2,0l0.5-0.3
									c0.1-0.1,0.1-0.2,0-0.2l-0.5-0.3C39.6,37.6,39.5,37.6,39.5,37.7z"/>
							</g>
						</g>
					</g>
					<g id="XMLID_16863_">
						<g id="XMLID_16868_">
							<g id="XMLID_16869_">
								<path id="XMLID_16871_" class="st48" d="M39.8,38.8C39.8,38.9,39.8,38.9,39.8,38.8l0.5,0.4c0,0,0.1,0,0.2,0l0.5-0.3v-0.1
									v-0.1c0-0.1,0-0.1,0-0.1l-0.5-0.3c0,0-0.1,0-0.2,0L39.8,38.8C39.8,38.6,39.8,38.6,39.8,38.8L39.8,38.8z"/>
								<path id="XMLID_16870_" class="st47" d="M40.4,38.2l-0.5,0.3c-0.1,0.1-0.1,0.2,0,0.2l0.5,0.3c0,0,0.1,0,0.2,0l0.5-0.3
									c0.1-0.1,0.1-0.2,0-0.2l-0.5-0.3C40.5,38.2,40.4,38.2,40.4,38.2z"/>
							</g>
						</g>
						<g id="XMLID_16864_">
							<g id="XMLID_16865_">
								<path id="XMLID_16867_" class="st48" d="M40.7,39.3C40.7,39.4,40.7,39.4,40.7,39.3l0.5,0.4c0,0,0.1,0,0.2,0l0.5-0.3v-0.1
									v-0.1c0-0.1,0-0.1,0-0.1l-0.5-0.3c0,0-0.1,0-0.2,0L40.7,39.3C40.7,39.1,40.7,39.1,40.7,39.3L40.7,39.3z"/>
								<path id="XMLID_16866_" class="st47" d="M41.3,38.7L40.8,39c-0.1,0.1-0.1,0.2,0,0.2l0.5,0.3c0,0,0.1,0,0.2,0l0.5-0.3
									c0.1-0.1,0.1-0.2,0-0.2l-0.5-0.3C41.4,38.7,41.3,38.7,41.3,38.7z"/>
							</g>
						</g>
					</g>
					<g id="XMLID_16854_">
						<g id="XMLID_16859_">
							<g id="XMLID_16860_">
								<path id="XMLID_16862_" class="st48" d="M41.6,39.8C41.6,39.9,41.6,39.9,41.6,39.8l0.5,0.4c0,0,0.1,0,0.2,0l0.5-0.3v-0.1
									v-0.1c0-0.1,0-0.1,0-0.1l-0.5-0.3c0,0-0.1,0-0.2,0L41.6,39.8C41.6,39.6,41.5,39.7,41.6,39.8L41.6,39.8z"/>
								<path id="XMLID_16861_" class="st47" d="M42.1,39.2l-0.5,0.3c-0.1,0.1-0.1,0.2,0,0.2l0.5,0.3c0,0,0.1,0,0.2,0l0.5-0.3
									c0.1-0.1,0.1-0.2,0-0.2l-0.5-0.3C42.3,39.2,42.2,39.2,42.1,39.2z"/>
							</g>
						</g>
						<g id="XMLID_16855_">
							<g id="XMLID_16856_">
								<path id="XMLID_16858_" class="st48" d="M42.5,40.3C42.5,40.4,42.5,40.4,42.5,40.3l0.5,0.4c0,0,0.1,0,0.2,0l0.5-0.3v-0.1
									v-0.1c0-0.1,0-0.1,0-0.1l-0.5-0.3c0,0-0.1,0-0.2,0L42.5,40.3C42.5,40.2,42.4,40.2,42.5,40.3L42.5,40.3z"/>
								<path id="XMLID_16857_" class="st47" d="M43,39.7L42.5,40c-0.1,0.1-0.1,0.2,0,0.2l0.5,0.3c0,0,0.1,0,0.2,0l0.5-0.3
									c0.1-0.1,0.1-0.2,0-0.2l-0.5-0.3C43.2,39.7,43.1,39.7,43,39.7z"/>
							</g>
						</g>
					</g>
					<g id="XMLID_16845_">
						<g id="XMLID_16850_">
							<g id="XMLID_16851_">
								<path id="XMLID_16853_" class="st48" d="M43.4,40.9C43.4,41,43.4,41,43.4,40.9l0.5,0.4c0,0,0.1,0,0.2,0l0.5-0.3v-0.1v-0.1
									c0-0.1,0-0.1,0-0.1l-0.5-0.3c0,0-0.1,0-0.2,0l-0.6,0.3c0.1,0,0,0,0,0L43.4,40.9z"/>
								<path id="XMLID_16852_" class="st47" d="M43.9,40.3l-0.5,0.3c-0.1,0.1-0.1,0.2,0,0.2l0.5,0.3c0,0,0.1,0,0.2,0l0.5-0.3
									c0.1-0.1,0.1-0.2,0-0.2l-0.5-0.3C44.1,40.2,44,40.2,43.9,40.3z"/>
							</g>
						</g>
						<g id="XMLID_16846_">
							<g id="XMLID_16847_">
								<path id="XMLID_16849_" class="st48" d="M44.4,41.4C44.4,41.5,44.4,41.5,44.4,41.4l0.5,0.4c0,0,0.1,0,0.2,0l0.5-0.3v-0.1
									v-0.1c0-0.1,0-0.1,0-0.1L45,40.8c0,0-0.1,0-0.2,0l-0.6,0.4c0.1,0,0,0,0,0L44.4,41.4z"/>
								<path id="XMLID_16848_" class="st47" d="M44.9,40.8l-0.5,0.3c-0.1,0.1-0.1,0.2,0,0.2l0.5,0.3c0,0,0.1,0,0.2,0l0.5-0.3
									c0.1-0.1,0.1-0.2,0-0.2L45,40.8C45,40.7,44.9,40.7,44.9,40.8z"/>
							</g>
						</g>
					</g>
					<g id="XMLID_16836_">
						<g id="XMLID_16841_">
							<g id="XMLID_16842_">
								<path id="XMLID_16844_" class="st48" d="M45.2,41.9C45.2,42,45.2,42,45.2,41.9l0.5,0.4c0,0,0.1,0,0.2,0l0.5-0.3v-0.1v-0.1
									c0-0.1,0-0.1,0-0.1l-0.5-0.3c0,0-0.1,0-0.2,0L45.2,41.9C45.2,41.7,45.1,41.7,45.2,41.9L45.2,41.9z"/>
								<path id="XMLID_16843_" class="st47" d="M45.7,41.3l-0.5,0.3c-0.1,0.1-0.1,0.2,0,0.2l0.5,0.3c0,0,0.1,0,0.2,0l0.5-0.3
									c0.1-0.1,0.1-0.2,0-0.2l-0.5-0.3C45.9,41.3,45.8,41.3,45.7,41.3z"/>
							</g>
						</g>
						<g id="XMLID_16837_">
							<g id="XMLID_16838_">
								<path id="XMLID_16840_" class="st48" d="M46.1,42.4C46.1,42.5,46.1,42.5,46.1,42.4l0.5,0.4c0,0,0.1,0,0.2,0l0.5-0.3v-0.1
									v-0.1c0-0.1,0-0.1,0-0.1l-0.5-0.3c0,0-0.1,0-0.2,0L46.1,42.4C46.1,42.2,46,42.3,46.1,42.4L46.1,42.4z"/>
								<path id="XMLID_16839_" class="st47" d="M46.6,41.8l-0.5,0.3c-0.1,0.1-0.1,0.2,0,0.2l0.5,0.3c0,0,0.1,0,0.2,0l0.5-0.3
									c0.1-0.1,0.1-0.2,0-0.2l-0.5-0.3C46.8,41.8,46.7,41.8,46.6,41.8z"/>
							</g>
						</g>
					</g>
					<g id="XMLID_16831_">
						<g id="XMLID_16832_">
							<g id="XMLID_16833_">
								<path id="XMLID_16835_" class="st48" d="M47,42.9C47,43,47,43,47,42.9l0.5,0.4c0,0,0.1,0,0.2,0l0.5-0.3v-0.1v-0.1
									c0-0.1,0-0.1,0-0.1l-0.5-0.3c0,0-0.1,0-0.2,0l-0.6,0.4c0.1-0.1,0,0,0,0L47,42.9z"/>
								<path id="XMLID_16834_" class="st47" d="M47.5,42.3L47,42.6c-0.1,0.1-0.1,0.2,0,0.2l0.5,0.3c0,0,0.1,0,0.2,0l0.5-0.3
									c0.1-0.1,0.1-0.2,0-0.2l-0.5-0.3C47.7,42.3,47.6,42.3,47.5,42.3z"/>
							</g>
						</g>
					</g>
				</g>
				<g id="XMLID_16766_">
					<g id="XMLID_16825_">
						<g id="XMLID_16826_">
							<g id="XMLID_16827_">
								<path id="XMLID_16829_" class="st48" d="M45.8,43.2C45.8,43.3,45.8,43.3,45.8,43.2l0.8,0.6c0,0,0.1,0,0.2,0l0.5-0.3v-0.1
									v-0.1c0-0.1,0-0.1,0-0.1l-0.8-0.5c0,0-0.1,0-0.2,0L45.8,43.2C45.8,43.1,45.7,43.1,45.8,43.2L45.8,43.2z"/>
								<path id="XMLID_16828_" class="st47" d="M46.3,42.7L45.8,43c-0.1,0.1-0.1,0.2,0,0.2l0.8,0.5c0,0,0.1,0,0.2,0l0.5-0.3
									c0.1-0.1,0.1-0.2,0-0.2l-0.8-0.5C46.5,42.6,46.4,42.6,46.3,42.7z"/>
							</g>
						</g>
					</g>
					<g id="XMLID_16770_">
						<g id="XMLID_16821_">
							<g id="XMLID_16822_">
								<path id="XMLID_16824_" class="st48" d="M35.1,37C35.1,37.1,35.1,37.1,35.1,37l0.5,0.4c0,0,0.1,0,0.2,0l0.5-0.3V37v-0.1
									c0-0.1,0-0.1,0-0.1l-0.5-0.3c0,0-0.1,0-0.2,0L35.1,37C35,36.8,35,36.9,35.1,37L35.1,37z"/>
								<path id="XMLID_16823_" class="st47" d="M35.5,36.4l-0.4,0.3c-0.1,0.1-0.1,0.2,0,0.2l0.5,0.3c0,0,0.1,0,0.2,0l0.5-0.3
									c0.1-0.1,0.1-0.2,0-0.2l-0.5-0.3C35.7,36.4,35.6,36.4,35.5,36.4z"/>
							</g>
						</g>
						<g id="XMLID_16812_">
							<g id="XMLID_16817_">
								<g id="XMLID_16818_">
									<path id="XMLID_16820_" class="st48" d="M36,37.4v0.2c0,0.1,0,0.1,0,0.1l0.5,0.3c0,0,0.1,0,0.2,0l0.5-0.3v-0.1v-0.1
										c0-0.1,0-0.1,0-0.1L36.7,37c0,0-0.1,0-0.2,0L36,37.4L36,37.4L36,37.4z"/>
									<path id="XMLID_16819_" class="st47" d="M36.5,37L36,37.3c-0.1,0.1-0.1,0.2,0,0.2l0.5,0.3c0,0,0.1,0,0.2,0l0.5-0.3
										c0.1-0.1,0.1-0.2,0-0.2L36.7,37C36.6,36.9,36.5,36.9,36.5,37z"/>
								</g>
							</g>
							<g id="XMLID_16813_">
								<g id="XMLID_16814_">
									<path id="XMLID_16816_" class="st48" d="M36.9,38C36.9,38.1,36.9,38.1,36.9,38l0.5,0.4c0,0,0.1,0,0.2,0l0.5-0.3V38v-0.1
										c0-0.1,0-0.1,0-0.1l-0.5-0.3c0,0-0.1,0-0.2,0l-0.6,0.4l0,0L36.9,38z"/>
									<path id="XMLID_16815_" class="st47" d="M37.4,37.5l-0.5,0.3c-0.1,0.1-0.1,0.2,0,0.2l0.5,0.3c0,0,0.1,0,0.2,0l0.5-0.3
										c0.1-0.1,0.1-0.2,0-0.2l-0.5-0.3C37.5,37.4,37.4,37.4,37.4,37.5z"/>
								</g>
							</g>
						</g>
						<g id="XMLID_16803_">
							<g id="XMLID_16808_">
								<g id="XMLID_16809_">
									<path id="XMLID_16811_" class="st48" d="M37.8,38.6C37.8,38.7,37.8,38.7,37.8,38.6l0.5,0.4c0,0,0.1,0,0.2,0l0.5-0.3v-0.1
										v-0.1c0-0.1,0-0.1,0-0.1l-0.5-0.3c0,0-0.1,0-0.2,0l-0.6,0.4c0-0.1,0-0.1,0,0L37.8,38.6z"/>
									<path id="XMLID_16810_" class="st47" d="M38.3,38l-0.5,0.3c-0.1,0.1-0.1,0.2,0,0.2l0.5,0.3c0,0,0.1,0,0.2,0l0.5-0.3
										c0.1-0.1,0.1-0.2,0-0.2L38.5,38C38.4,38,38.3,38,38.3,38z"/>
								</g>
							</g>
							<g id="XMLID_16804_">
								<g id="XMLID_16805_">
									<path id="XMLID_16807_" class="st48" d="M38.7,39.1C38.7,39.2,38.7,39.2,38.7,39.1l0.5,0.4c0,0,0.1,0,0.2,0l0.5-0.3v-0.1
										V39c0-0.1,0-0.1,0-0.1l-0.5-0.3c0,0-0.1,0-0.2,0L38.7,39.1C38.6,38.9,38.6,38.9,38.7,39.1L38.7,39.1z"/>
									<path id="XMLID_16806_" class="st47" d="M39.2,38.5l-0.5,0.3c-0.1,0.1-0.1,0.2,0,0.2l0.5,0.3c0,0,0.1,0,0.2,0l0.5-0.3
										c0.1-0.1,0.1-0.2,0-0.2l-0.5-0.3C39.3,38.5,39.2,38.5,39.2,38.5z"/>
								</g>
							</g>
						</g>
						<g id="XMLID_16794_">
							<g id="XMLID_16799_">
								<g id="XMLID_16800_">
									<path id="XMLID_16802_" class="st48" d="M39.6,39.6C39.6,39.7,39.6,39.7,39.6,39.6l0.5,0.4c0,0,0.1,0,0.2,0l0.5-0.3v-0.1
										v-0.1c0-0.1,0-0.1,0-0.1l-0.5-0.3c0,0-0.1,0-0.2,0L39.6,39.6C39.5,39.4,39.5,39.5,39.6,39.6L39.6,39.6z"/>
									<path id="XMLID_16801_" class="st47" d="M40.1,39l-0.5,0.3c-0.1,0.1-0.1,0.2,0,0.2l0.5,0.3c0,0,0.1,0,0.2,0l0.5-0.3
										c0.1-0.1,0.1-0.2,0-0.2L40.3,39C40.2,39,40.1,39,40.1,39z"/>
								</g>
							</g>
							<g id="XMLID_16795_">
								<g id="XMLID_16796_">
									<path id="XMLID_16798_" class="st48" d="M40.5,40.1C40.5,40.2,40.5,40.2,40.5,40.1l0.5,0.4c0,0,0.1,0,0.2,0l0.5-0.3v-0.1
										V40c0-0.1,0-0.1,0-0.1l-0.5-0.3c0,0-0.1,0-0.2,0L40.5,40.1L40.5,40.1L40.5,40.1z"/>
									<path id="XMLID_16797_" class="st47" d="M41,39.6l-0.5,0.3c-0.1,0.1-0.1,0.2,0,0.2l0.5,0.3c0,0,0.1,0,0.2,0l0.5-0.3
										c0.1-0.1,0.1-0.2,0-0.2l-0.5-0.3C41.1,39.5,41,39.5,41,39.6z"/>
								</g>
							</g>
						</g>
						<g id="XMLID_16785_">
							<g id="XMLID_16790_">
								<g id="XMLID_16791_">
									<path id="XMLID_16793_" class="st48" d="M41.4,40.7C41.4,40.8,41.4,40.8,41.4,40.7l0.5,0.4c0,0,0.1,0,0.2,0l0.5-0.3v-0.1
										v-0.1c0-0.1,0-0.1,0-0.1L42,40.1c0,0-0.1,0-0.2,0l-0.6,0.4c0.1,0,0.1,0,0,0L41.4,40.7z"/>
									<path id="XMLID_16792_" class="st47" d="M41.9,40.1l-0.5,0.3c-0.1,0.1-0.1,0.2,0,0.2l0.5,0.3c0,0,0.1,0,0.2,0l0.5-0.3
										c0.1-0.1,0.1-0.2,0-0.2l-0.5-0.3C42,40,41.9,40,41.9,40.1z"/>
								</g>
							</g>
							<g id="XMLID_16786_">
								<g id="XMLID_16787_">
									<path id="XMLID_16789_" class="st48" d="M42.2,41.2C42.2,41.3,42.2,41.3,42.2,41.2l0.5,0.4c0,0,0.1,0,0.2,0l0.5-0.3v-0.1
										v-0.1c0-0.1,0-0.1,0-0.1l-0.5-0.3c0,0-0.1,0-0.2,0L42.2,41.2C42.2,41,42.1,41,42.2,41.2L42.2,41.2z"/>
									<path id="XMLID_16788_" class="st47" d="M42.8,40.6l-0.5,0.3c-0.1,0.1-0.1,0.2,0,0.2l0.5,0.3c0,0,0.1,0,0.2,0l0.5-0.3
										c0.1-0.1,0.1-0.2,0-0.2L43,40.6C42.9,40.5,42.8,40.5,42.8,40.6z"/>
								</g>
							</g>
						</g>
						<g id="XMLID_16776_">
							<g id="XMLID_16781_">
								<g id="XMLID_16782_">
									<path id="XMLID_16784_" class="st48" d="M43.1,41.7C43.1,41.8,43.1,41.8,43.1,41.7l0.5,0.4c0,0,0.1,0,0.2,0l0.5-0.3v-0.1
										v-0.1c0-0.1,0-0.1,0-0.1l-0.5-0.3c0,0-0.1,0-0.2,0L43.1,41.7C43.1,41.5,43,41.5,43.1,41.7L43.1,41.7z"/>
									<path id="XMLID_16783_" class="st47" d="M43.6,41.1l-0.4,0.3c-0.1,0.1-0.1,0.2,0,0.2l0.5,0.3c0,0,0.1,0,0.2,0l0.5-0.3
										c0.1-0.1,0.1-0.2,0-0.2l-0.6-0.3C43.8,41.1,43.7,41.1,43.6,41.1z"/>
								</g>
							</g>
							<g id="XMLID_16777_">
								<g id="XMLID_16778_">
									<path id="XMLID_16780_" class="st48" d="M44,42.2C44,42.3,44,42.3,44,42.2l0.5,0.4c0,0,0.1,0,0.2,0l0.5-0.3v-0.1v-0.1
										c0-0.1,0-0.1,0-0.1l-0.5-0.3c0,0-0.1,0-0.2,0L44,42.2C44,42,43.9,42.1,44,42.2L44,42.2z"/>
									<path id="XMLID_16779_" class="st47" d="M44.5,41.6L44,41.9c-0.1,0.1-0.1,0.2,0,0.2l0.5,0.3c0,0,0.1,0,0.2,0l0.5-0.3
										c0.1-0.1,0.1-0.2,0-0.2l-0.5-0.3C44.7,41.6,44.6,41.6,44.5,41.6z"/>
								</g>
							</g>
						</g>
						<g id="XMLID_16771_">
							<g id="XMLID_16772_">
								<g id="XMLID_16773_">
									<path id="XMLID_16775_" class="st48" d="M44.9,42.7C44.9,42.8,44.9,42.8,44.9,42.7l0.5,0.4c0,0,0.1,0,0.2,0l0.5-0.3v-0.1
										v-0.1c0-0.1,0-0.1,0-0.1l-0.5-0.3c0,0-0.1,0-0.2,0L44.9,42.7C44.9,42.6,44.8,42.6,44.9,42.7L44.9,42.7z"/>
									<path id="XMLID_16774_" class="st47" d="M45.4,42.1l-0.5,0.3c-0.1,0.1-0.1,0.2,0,0.2l0.5,0.3c0,0,0.1,0,0.2,0l0.5-0.3
										c0.1-0.1,0.1-0.2,0-0.2l-0.5-0.3C45.6,42.1,45.5,42.1,45.4,42.1z"/>
								</g>
							</g>
						</g>
					</g>
					<g id="XMLID_16767_">
						<path id="XMLID_16769_" class="st48" d="M33.1,37C33.1,37.1,33.1,37.1,33.1,37l0.4,0.3c0,0,0.1,0,0.2,0l0.8-0.4h0.1
							c0.1,0,0.1,0,0.2,0l0.5-0.3v-0.1v-0.1c0-0.1,0-0.1,0-0.1L34.8,36c0,0-0.1,0-0.2,0L33.1,37C33.2,36.8,33.2,36.9,33.1,37
							L33.1,37z"/>
						<path id="XMLID_16768_" class="st47" d="M33.1,36.9l0.4,0.2c0,0,0.1,0,0.2,0l0.8-0.4h0.1c0.1,0,0.1,0,0.2,0l0.5-0.3
							c0.1-0.1,0.1-0.2,0-0.2l-0.5-0.3c0,0-0.1,0-0.2,0l-0.4,0.2l0,0l-1,0.6C33.2,36.8,33.2,36.9,33.1,36.9z"/>
					</g>
				</g>
				<g id="XMLID_16705_">
					<g id="XMLID_16760_">
						<g id="XMLID_16761_">
							<g id="XMLID_16762_">
								<g id="XMLID_16763_">
									<path id="XMLID_16765_" class="st48" d="M44.8,43.7C44.8,43.8,44.8,43.8,44.8,43.7l1,0.7c0,0,0.1,0,0.2,0l0.5-0.3V44v-0.1
										c0-0.1,0-0.1,0-0.1l-1-0.6c0,0-0.1,0-0.2,0L44.8,43.7C44.7,43.5,44.7,43.5,44.8,43.7L44.8,43.7z"/>
									<path id="XMLID_16764_" class="st47" d="M45.3,43.1l-0.5,0.3c-0.1,0.1-0.1,0.2,0,0.2l1,0.6c0,0,0.1,0,0.2,0l0.5-0.3
										c0.1-0.1,0.1-0.2,0-0.2l-1-0.6C45.4,43.1,45.3,43.1,45.3,43.1z"/>
								</g>
							</g>
						</g>
					</g>
					<g id="XMLID_16756_">
						<g id="XMLID_16757_">
							<path id="XMLID_16759_" class="st48" d="M34,37.4C34,37.5,34,37.5,34,37.4l0.5,0.4c0,0,0.1,0,0.2,0l0.5-0.3v-0.1v-0.1
								c0-0.1,0-0.1,0-0.1l-0.5-0.3c0,0-0.1,0-0.2,0L34,37.4L34,37.4L34,37.4z"/>
							<path id="XMLID_16758_" class="st47" d="M34.5,36.9L34,37.2c-0.1,0.1-0.1,0.2,0,0.2l0.5,0.3c0,0,0.1,0,0.2,0l0.5-0.3
								c0.1-0.1,0.1-0.2,0-0.2l-0.5-0.3C34.6,36.8,34.6,36.8,34.5,36.9z"/>
						</g>
					</g>
					<g id="XMLID_16747_">
						<g id="XMLID_16752_">
							<g id="XMLID_16753_">
								<path id="XMLID_16755_" class="st48" d="M34.9,37.9C34.9,38,34.9,38,34.9,37.9l0.5,0.4c0,0,0.1,0,0.2,0l0.5-0.3v-0.1v-0.1
									c0-0.1,0-0.1,0-0.1l-0.5-0.3c0,0-0.1,0-0.2,0L34.9,37.9L34.9,37.9L34.9,37.9z"/>
								<path id="XMLID_16754_" class="st47" d="M35.4,37.4l-0.5,0.3c-0.1,0.1-0.1,0.2,0,0.2l0.5,0.3c0,0,0.1,0,0.2,0l0.5-0.3
									c0.1-0.1,0.1-0.2,0-0.2l-0.5-0.3C35.5,37.3,35.5,37.3,35.4,37.4z"/>
							</g>
						</g>
						<g id="XMLID_16748_">
							<g id="XMLID_16749_">
								<path id="XMLID_16751_" class="st48" d="M35.8,38.5C35.8,38.6,35.8,38.6,35.8,38.5l0.5,0.4c0,0,0.1,0,0.2,0l0.5-0.3v-0.1
									v-0.1c0-0.1,0-0.1,0-0.1L36.5,38c0,0-0.1,0-0.2,0L35.8,38.5C35.7,38.3,35.7,38.3,35.8,38.5L35.8,38.5z"/>
								<path id="XMLID_16750_" class="st47" d="M36.3,37.9l-0.5,0.3c-0.1,0.1-0.1,0.2,0,0.2l0.5,0.3c0,0,0.1,0,0.2,0l0.5-0.3
									c0.1-0.1,0.1-0.2,0-0.2l-0.5-0.3C36.4,37.9,36.3,37.9,36.3,37.9z"/>
							</g>
						</g>
					</g>
					<g id="XMLID_16738_">
						<g id="XMLID_16743_">
							<g id="XMLID_16744_">
								<path id="XMLID_16746_" class="st48" d="M36.7,39C36.7,39.1,36.7,39.1,36.7,39l0.5,0.4c0,0,0.1,0,0.2,0l0.5-0.3V39v-0.1
									c0-0.1,0-0.1,0-0.1l-0.5-0.3c0,0-0.1,0-0.2,0L36.7,39C36.6,38.8,36.6,38.9,36.7,39L36.7,39z"/>
								<path id="XMLID_16745_" class="st47" d="M37.2,38.4l-0.5,0.3c-0.1,0.1-0.1,0.2,0,0.2l0.5,0.3c0,0,0.1,0,0.2,0l0.5-0.3
									c0.1-0.1,0.1-0.2,0-0.2l-0.5-0.3C37.3,38.4,37.2,38.4,37.2,38.4z"/>
							</g>
						</g>
						<g id="XMLID_16739_">
							<g id="XMLID_16740_">
								<path id="XMLID_16742_" class="st48" d="M37.6,39.5C37.6,39.6,37.6,39.6,37.6,39.5l0.5,0.4c0,0,0.1,0,0.2,0l0.5-0.3v-0.1
									v-0.1c0-0.1,0-0.1,0-0.1L38.3,39c0,0-0.1,0-0.2,0L37.6,39.5C37.5,39.3,37.5,39.4,37.6,39.5L37.6,39.5z"/>
								<path id="XMLID_16741_" class="st47" d="M38.1,38.9l-0.5,0.3c-0.1,0.1-0.1,0.2,0,0.2l0.5,0.3c0,0,0.1,0,0.2,0l0.5-0.3
									c0.1-0.1,0.1-0.2,0-0.2l-0.5-0.3C38.2,38.9,38.1,38.9,38.1,38.9z"/>
							</g>
						</g>
					</g>
					<g id="XMLID_16729_">
						<g id="XMLID_16734_">
							<g id="XMLID_16735_">
								<path id="XMLID_16737_" class="st48" d="M38.5,40C38.5,40.1,38.5,40.1,38.5,40l0.5,0.4c0,0,0.1,0,0.2,0l0.5-0.3V40v-0.1
									c0-0.1,0-0.1,0-0.1l-0.5-0.3c0,0-0.1,0-0.2,0L38.5,40L38.5,40L38.5,40z"/>
								<path id="XMLID_16736_" class="st47" d="M39,39.5l-0.5,0.3c-0.1,0.1-0.1,0.2,0,0.2l0.5,0.3c0,0,0.1,0,0.2,0l0.5-0.3
									c0.1-0.1,0.1-0.2,0-0.2l-0.5-0.3C39.1,39.4,39,39.4,39,39.5z"/>
							</g>
						</g>
						<g id="XMLID_16730_">
							<g id="XMLID_16731_">
								<path id="XMLID_16733_" class="st48" d="M39.4,40.6C39.4,40.7,39.4,40.7,39.4,40.6l0.5,0.4c0,0,0.1,0,0.2,0l0.5-0.3v-0.1
									v-0.1c0-0.1,0-0.1,0-0.1L40.1,40c0,0-0.1,0-0.2,0l-0.6,0.4l0,0L39.4,40.6z"/>
								<path id="XMLID_16732_" class="st47" d="M39.9,40l-0.5,0.3c-0.1,0.1-0.1,0.2,0,0.2l0.5,0.3c0,0,0.1,0,0.2,0l0.5-0.3
									c0.1-0.1,0.1-0.2,0-0.2L40.1,40C40,39.9,39.9,39.9,39.9,40z"/>
							</g>
						</g>
					</g>
					<g id="XMLID_16720_">
						<g id="XMLID_16725_">
							<g id="XMLID_16726_">
								<path id="XMLID_16728_" class="st48" d="M40.3,41.1C40.3,41.2,40.3,41.2,40.3,41.1l0.5,0.4c0,0,0.1,0,0.2,0l0.5-0.3v-0.1V41
									c0-0.1,0-0.1,0-0.1L41,40.6c0,0-0.1,0-0.2,0L40.3,41.1C40.2,40.9,40.2,40.9,40.3,41.1L40.3,41.1z"/>
								<path id="XMLID_16727_" class="st47" d="M40.8,40.5l-0.5,0.3c-0.1,0.1-0.1,0.2,0,0.2l0.5,0.3c0,0,0.1,0,0.2,0l0.5-0.3
									c0.1-0.1,0.1-0.2,0-0.2L41,40.5C40.9,40.5,40.8,40.5,40.8,40.5z"/>
							</g>
						</g>
						<g id="XMLID_16721_">
							<g id="XMLID_16722_">
								<path id="XMLID_16724_" class="st48" d="M41.2,41.6C41.2,41.7,41.2,41.7,41.2,41.6l0.5,0.4c0,0,0.1,0,0.2,0l0.5-0.3v-0.1
									v-0.1c0-0.1,0-0.1,0-0.1l-0.5-0.3c0,0-0.1,0-0.2,0L41.2,41.6C41.1,41.4,41.1,41.4,41.2,41.6L41.2,41.6z"/>
								<path id="XMLID_16723_" class="st47" d="M41.7,41l-0.5,0.3c-0.1,0.1-0.1,0.2,0,0.2l0.5,0.3c0,0,0.1,0,0.2,0l0.5-0.3
									c0.1-0.1,0.1-0.2,0-0.2L41.9,41C41.8,41,41.7,41,41.7,41z"/>
							</g>
						</g>
					</g>
					<g id="XMLID_16711_">
						<g id="XMLID_16716_">
							<g id="XMLID_16717_">
								<path id="XMLID_16719_" class="st48" d="M42.1,42.1C42.1,42.2,42.1,42.2,42.1,42.1l0.5,0.4c0,0,0.1,0,0.2,0l0.5-0.3v-0.1V42
									c0-0.1,0-0.1,0-0.1l-0.5-0.3c0,0-0.1,0-0.2,0L42.1,42.1C42,41.9,42,42,42.1,42.1L42.1,42.1z"/>
								<path id="XMLID_16718_" class="st47" d="M42.6,41.5l-0.5,0.3C42,41.9,42,42,42.1,42l0.5,0.3c0,0,0.1,0,0.2,0l0.5-0.3
									c0.1-0.1,0.1-0.2,0-0.2l-0.5-0.3C42.7,41.5,42.6,41.5,42.6,41.5z"/>
							</g>
						</g>
						<g id="XMLID_16712_">
							<g id="XMLID_16713_">
								<path id="XMLID_16715_" class="st48" d="M43,42.6C43,42.7,43,42.7,43,42.6l0.5,0.4c0,0,0.1,0,0.2,0l0.5-0.3v-0.1v-0.1
									c0-0.1,0-0.1,0-0.1l-0.5-0.3c0,0-0.1,0-0.2,0L43,42.6L43,42.6L43,42.6z"/>
								<path id="XMLID_16714_" class="st47" d="M43.5,42.1L43,42.4c-0.1,0.1-0.1,0.2,0,0.2l0.5,0.3c0,0,0.1,0,0.2,0l0.5-0.3
									c0.1-0.1,0.1-0.2,0-0.2l-0.5-0.3C43.6,42,43.5,42,43.5,42.1z"/>
							</g>
						</g>
					</g>
					<g id="XMLID_16706_">
						<g id="XMLID_16707_">
							<g id="XMLID_16708_">
								<path id="XMLID_16710_" class="st48" d="M43.9,43.1C43.9,43.2,43.9,43.2,43.9,43.1l0.5,0.4c0,0,0.1,0,0.2,0l0.5-0.3v-0.1V43
									c0-0.1,0-0.1,0-0.1l-0.5-0.3c0,0-0.1,0-0.2,0L43.9,43.1L43.9,43.1L43.9,43.1z"/>
								<path id="XMLID_16709_" class="st47" d="M44.4,42.6l-0.5,0.3c-0.1,0.1-0.1,0.2,0,0.2l0.5,0.3c0,0,0.1,0,0.2,0l0.5-0.3
									c0.1-0.1,0.1-0.2,0-0.2l-0.5-0.3C44.5,42.5,44.4,42.5,44.4,42.6z"/>
							</g>
						</g>
					</g>
				</g>
				<g id="XMLID_16644_">
					<g id="XMLID_16700_">
						<g id="XMLID_16701_">
							<g id="XMLID_16702_">
								<path id="XMLID_16704_" class="st48" d="M44.2,44.3C44.2,44.4,44.2,44.4,44.2,44.3l0.7,0.5c0,0,0.1,0,0.2,0l0.5-0.3v-0.1
									l0,0c0-0.1,0-0.1,0-0.1l-0.7-0.5c0,0-0.1,0-0.2,0L44.2,44.3L44.2,44.3L44.2,44.3z"/>
								<path id="XMLID_16703_" class="st47" d="M44.7,43.8l-0.5,0.3c-0.1,0.1-0.1,0.2,0,0.2l0.7,0.4c0,0,0.1,0,0.2,0l0.5-0.3
									c0.1-0.1,0.1-0.2,0-0.2l-0.7-0.4C44.8,43.7,44.7,43.7,44.7,43.8z"/>
							</g>
						</g>
					</g>
					<g id="XMLID_16645_">
						<g id="XMLID_16696_">
							<g id="XMLID_16697_">
								<path id="XMLID_16699_" class="st48" d="M32.4,37.5C32.4,37.6,32.4,37.6,32.4,37.5l1.6,1c0,0,0.1,0,0.2,0l0.5-0.3v-0.1V38
									c0-0.1,0-0.1,0-0.1L33.1,37c0,0-0.1,0-0.2,0L32.4,37.5L32.4,37.5L32.4,37.5z"/>
								<path id="XMLID_16698_" class="st47" d="M32.9,37l-0.5,0.3c-0.1,0.1-0.1,0.2,0,0.2l1.6,0.9c0,0,0.1,0,0.2,0l0.5-0.3
									c0.1-0.1,0.1-0.2,0-0.2L33.1,37C33,36.9,32.9,36.9,32.9,37z"/>
							</g>
						</g>
						<g id="XMLID_16687_">
							<g id="XMLID_16692_">
								<g id="XMLID_16693_">
									<path id="XMLID_16695_" class="st48" d="M34.4,38.7C34.4,38.8,34.4,38.8,34.4,38.7l0.5,0.4c0,0,0.1,0,0.2,0l0.5-0.3v-0.1
										v-0.1c0-0.1,0-0.1,0-0.1L35,38.1c0,0-0.1,0-0.2,0l-0.6,0.4c0.1,0,0,0,0,0L34.4,38.7z"/>
									<path id="XMLID_16694_" class="st47" d="M34.9,38.1l-0.5,0.3c-0.1,0.1-0.1,0.2,0,0.2l0.5,0.3c0,0,0.1,0,0.2,0l0.5-0.3
										c0.1-0.1,0.1-0.2,0-0.2L35,38.1C35,38,34.9,38,34.9,38.1z"/>
								</g>
							</g>
							<g id="XMLID_16688_">
								<g id="XMLID_16689_">
									<path id="XMLID_16691_" class="st48" d="M35.2,39.2C35.2,39.3,35.2,39.3,35.2,39.2l0.5,0.4c0,0,0.1,0,0.2,0l0.5-0.3v-0.1
										v-0.1c0-0.1,0-0.1,0-0.1l-0.5-0.3c0,0-0.1,0-0.2,0L35.2,39.2C35.2,39,35.1,39,35.2,39.2L35.2,39.2z"/>
									<path id="XMLID_16690_" class="st47" d="M35.7,38.6l-0.5,0.3c-0.1,0.1-0.1,0.2,0,0.2l0.5,0.3c0,0,0.1,0,0.2,0l0.5-0.3
										c0.1-0.1,0.1-0.2,0-0.2l-0.5-0.3C35.9,38.6,35.8,38.6,35.7,38.6z"/>
								</g>
							</g>
						</g>
						<g id="XMLID_16678_">
							<g id="XMLID_16683_">
								<g id="XMLID_16684_">
									<path id="XMLID_16686_" class="st48" d="M36.1,39.7C36.1,39.8,36.1,39.8,36.1,39.7l0.5,0.4c0,0,0.1,0,0.2,0l0.5-0.3v-0.1
										v-0.1c0-0.1,0-0.1,0-0.1l-0.5-0.3c0,0-0.1,0-0.2,0L36.1,39.7C36,39.5,36,39.6,36.1,39.7L36.1,39.7z"/>
									<path id="XMLID_16685_" class="st47" d="M36.6,39.1l-0.4,0.3c-0.1,0.1-0.1,0.2,0,0.2l0.5,0.3c0,0,0.1,0,0.2,0l0.5-0.3
										c0.1-0.1,0.1-0.2,0-0.2l-0.6-0.3C36.8,39.1,36.7,39.1,36.6,39.1z"/>
								</g>
							</g>
							<g id="XMLID_16679_">
								<g id="XMLID_16680_">
									<path id="XMLID_16682_" class="st48" d="M37,40.2C37,40.3,37,40.3,37,40.2l0.5,0.4c0,0,0.1,0,0.2,0l0.5-0.3v-0.1v-0.1
										c0-0.1,0-0.1,0-0.1l-0.5-0.3c0,0-0.1,0-0.2,0L37,40.2C36.9,40,36.9,40.1,37,40.2L37,40.2z"/>
									<path id="XMLID_16681_" class="st47" d="M37.5,39.6L37,39.9c-0.1,0.1-0.1,0.2,0,0.2l0.5,0.3c0,0,0.1,0,0.2,0l0.5-0.3
										c0.1-0.1,0.1-0.2,0-0.2l-0.5-0.3C37.7,39.6,37.6,39.6,37.5,39.6z"/>
								</g>
							</g>
						</g>
						<g id="XMLID_16669_">
							<g id="XMLID_16674_">
								<g id="XMLID_16675_">
									<path id="XMLID_16677_" class="st48" d="M37.9,40.7C37.9,40.8,37.9,40.8,37.9,40.7l0.5,0.4c0,0,0.1,0,0.2,0l0.5-0.3v-0.1
										v-0.1c0-0.1,0-0.1,0-0.1l-0.5-0.3c0,0-0.1,0-0.2,0L37.9,40.7L37.9,40.7L37.9,40.7z"/>
									<path id="XMLID_16676_" class="st47" d="M38.4,40.2l-0.5,0.3c-0.1,0.1-0.1,0.2,0,0.2l0.5,0.3c0,0,0.1,0,0.2,0l0.5-0.3
										c0.1-0.1,0.1-0.2,0-0.2l-0.5-0.3C38.6,40.1,38.5,40.1,38.4,40.2z"/>
								</g>
							</g>
							<g id="XMLID_16670_">
								<g id="XMLID_16671_">
									<path id="XMLID_16673_" class="st48" d="M38.8,41.2C38.8,41.3,38.8,41.3,38.8,41.2l0.5,0.4c0,0,0.1,0,0.2,0l0.5-0.3v-0.1
										v-0.1c0-0.1,0-0.1,0-0.1l-0.5-0.3c0,0-0.1,0-0.2,0L38.8,41.2L38.8,41.2L38.8,41.2z"/>
									<path id="XMLID_16672_" class="st47" d="M39.3,40.7L38.8,41c-0.1,0.1-0.1,0.2,0,0.2l0.5,0.3c0,0,0.1,0,0.2,0l0.5-0.3
										c0.1-0.1,0.1-0.2,0-0.2l-0.5-0.3C39.5,40.6,39.4,40.6,39.3,40.7z"/>
								</g>
							</g>
						</g>
						<g id="XMLID_16660_">
							<g id="XMLID_16665_">
								<g id="XMLID_16666_">
									<path id="XMLID_16668_" class="st48" d="M39.7,41.8C39.7,41.9,39.7,41.9,39.7,41.8l0.5,0.4c0,0,0.1,0,0.2,0l0.5-0.3v-0.1
										v-0.1c0-0.1,0-0.1,0-0.1l-0.5-0.3c0,0-0.1,0-0.2,0L39.7,41.8C39.6,41.6,39.6,41.6,39.7,41.8L39.7,41.8z"/>
									<path id="XMLID_16667_" class="st47" d="M40.2,41.2l-0.5,0.3c-0.1,0.1-0.1,0.2,0,0.2l0.5,0.3c0,0,0.1,0,0.2,0l0.5-0.3
										c0.1-0.1,0.1-0.2,0-0.2l-0.5-0.3C40.4,41.2,40.3,41.2,40.2,41.2z"/>
								</g>
							</g>
							<g id="XMLID_16661_">
								<g id="XMLID_16662_">
									<path id="XMLID_16664_" class="st48" d="M40.6,42.3C40.6,42.4,40.6,42.4,40.6,42.3l0.5,0.4c0,0,0.1,0,0.2,0l0.5-0.3v-0.1
										v-0.1c0-0.1,0-0.1,0-0.1l-0.5-0.3c0,0-0.1,0-0.2,0l-0.6,0.4c0-0.1,0-0.1,0,0L40.6,42.3z"/>
									<path id="XMLID_16663_" class="st47" d="M41.1,41.7L40.6,42c-0.1,0.1-0.1,0.2,0,0.2l0.5,0.3c0,0,0.1,0,0.2,0l0.5-0.3
										c0.1-0.1,0.1-0.2,0-0.2l-0.5-0.3C41.3,41.7,41.2,41.7,41.1,41.7z"/>
								</g>
							</g>
						</g>
						<g id="XMLID_16651_">
							<g id="XMLID_16656_">
								<g id="XMLID_16657_">
									<path id="XMLID_16659_" class="st48" d="M41.5,42.8C41.5,42.9,41.5,42.9,41.5,42.8l0.5,0.4c0,0,0.1,0,0.2,0l0.5-0.3v-0.1
										v-0.1c0-0.1,0-0.1,0-0.1l-0.5-0.3c0,0-0.1,0-0.2,0L41.5,42.8C41.4,42.6,41.4,42.7,41.5,42.8L41.5,42.8z"/>
									<path id="XMLID_16658_" class="st47" d="M42,42.2l-0.5,0.3c-0.1,0.1-0.1,0.2,0,0.2L42,43c0,0,0.1,0,0.2,0l0.5-0.3
										c0.1-0.1,0.1-0.2,0-0.2l-0.5-0.3C42.1,42.2,42.1,42.2,42,42.2z"/>
								</g>
							</g>
							<g id="XMLID_16652_">
								<g id="XMLID_16653_">
									<path id="XMLID_16655_" class="st48" d="M42.4,43.3C42.4,43.4,42.4,43.4,42.4,43.3l0.5,0.4c0,0,0.1,0,0.2,0l0.5-0.3v-0.1
										v-0.1c0-0.1,0-0.1,0-0.1l-0.5-0.3c0,0-0.1,0-0.2,0L42.4,43.3L42.4,43.3L42.4,43.3z"/>
									<path id="XMLID_16654_" class="st47" d="M42.9,42.8l-0.5,0.3c-0.1,0.1-0.1,0.2,0,0.2l0.5,0.3c0,0,0.1,0,0.2,0l0.5-0.3
										c0.1-0.1,0.1-0.2,0-0.2l-0.5-0.3C43,42.7,43,42.7,42.9,42.8z"/>
								</g>
							</g>
						</g>
						<g id="XMLID_16646_">
							<g id="XMLID_16647_">
								<g id="XMLID_16648_">
									<path id="XMLID_16650_" class="st48" d="M43.4,43.9C43.4,44,43.4,44,43.4,43.9l0.5,0.4c0,0,0.1,0,0.2,0l0.5-0.3v-0.1v-0.1
										c0-0.1,0-0.1,0-0.1L44,43.4c0,0-0.1,0-0.2,0l-0.6,0.3l0,0L43.4,43.9z"/>
									<path id="XMLID_16649_" class="st47" d="M43.9,43.3l-0.5,0.3c-0.1,0.1-0.1,0.2,0,0.2l0.5,0.3c0,0,0.1,0,0.2,0l0.5-0.3
										c0.1-0.1,0.1-0.2,0-0.2L44,43.3C43.9,43.2,43.9,43.2,43.9,43.3z"/>
								</g>
							</g>
						</g>
					</g>
				</g>
				<g id="XMLID_16587_">
					<g id="XMLID_16603_">
						<g id="XMLID_16639_">
							<g id="XMLID_16640_">
								<g id="XMLID_16641_">
									<path id="XMLID_16643_" class="st48" d="M35.9,40.6C35.9,40.7,35.9,40.7,35.9,40.6l4.5,2.7c0,0,0.1,0,0.2,0l0.5-0.3v-0.1
										v-0.1c0-0.1,0-0.1,0-0.1l-4.5-2.6c0,0-0.1,0-0.2,0L35.9,40.6C35.8,40.4,35.8,40.4,35.9,40.6L35.9,40.6z"/>
									<path id="XMLID_16642_" class="st47" d="M36.4,40l-0.5,0.3c-0.1,0.1-0.1,0.2,0,0.2l4.5,2.6c0,0,0.1,0,0.2,0l0.5-0.3
										c0.1-0.1,0.1-0.2,0-0.2L36.6,40C36.5,40,36.4,40,36.4,40z"/>
								</g>
							</g>
						</g>
						<g id="XMLID_16634_">
							<g id="XMLID_16635_">
								<g id="XMLID_16636_">
									<path id="XMLID_16638_" class="st48" d="M43.6,45C43.6,45.1,43.6,45.1,43.6,45l0.4,0.4c0,0,0.1,0,0.2,0l0.5-0.3V45v-0.1
										c0-0.1,0-0.1,0-0.1l-0.4-0.3c0,0-0.1,0-0.2,0L43.6,45L43.6,45L43.6,45z"/>
									<path id="XMLID_16637_" class="st47" d="M44.1,44.5l-0.5,0.3c-0.1,0.1-0.1,0.2,0,0.2l0.4,0.3c0,0,0.1,0,0.2,0l0.5-0.3
										c0.1-0.1,0.1-0.2,0-0.2l-0.4-0.3C44.2,44.4,44.1,44.4,44.1,44.5z"/>
								</g>
							</g>
						</g>
						<g id="XMLID_16629_">
							<g id="XMLID_16630_">
								<g id="XMLID_16631_">
									<path id="XMLID_16633_" class="st48" d="M42.7,44.5C42.7,44.6,42.7,44.6,42.7,44.5l0.4,0.4c0,0,0.1,0,0.2,0l0.5-0.3v-0.1
										v-0.1c0-0.1,0-0.1,0-0.1L43.4,44c0,0-0.1,0-0.2,0L42.7,44.5C42.7,44.4,42.7,44.4,42.7,44.5L42.7,44.5z"/>
									<path id="XMLID_16632_" class="st47" d="M43.3,44l-0.5,0.3c-0.1,0.1-0.1,0.2,0,0.2l0.4,0.3c0,0,0.1,0,0.2,0l0.5-0.3
										c0.1-0.1,0.1-0.2,0-0.2L43.5,44C43.4,43.9,43.3,43.9,43.3,44z"/>
								</g>
							</g>
						</g>
						<g id="XMLID_16624_">
							<g id="XMLID_16625_">
								<g id="XMLID_16626_">
									<path id="XMLID_16628_" class="st48" d="M42,44C42,44.1,42,44.1,42,44l0.4,0.4c0,0,0.1,0,0.2,0l0.4-0.2v-0.1V44
										c0-0.1,0-0.1,0-0.1l-0.4-0.3c0,0-0.1,0-0.2,0L41.8,44c0-0.1,0-0.1,0,0L42,44z"/>
									<path id="XMLID_16627_" class="st47" d="M42.4,43.5l-0.5,0.3c-0.1,0.1-0.1,0.2,0,0.2l0.4,0.3c0,0,0.1,0,0.2,0L43,44
										c0.1-0.1,0.1-0.2,0-0.2l-0.4-0.3C42.6,43.5,42.5,43.5,42.4,43.5z"/>
								</g>
							</g>
						</g>
						<g id="XMLID_16619_">
							<g id="XMLID_16620_">
								<g id="XMLID_16621_">
									<path id="XMLID_16623_" class="st48" d="M40.8,43.5C40.8,43.6,40.8,43.6,40.8,43.5l0.8,0.5c0,0,0.1,0,0.2,0l0.5-0.3v-0.1
										v-0.1c0-0.1,0-0.1,0-0.1l-0.8-0.5c0,0-0.1,0-0.2,0l-0.6,0.4c0-0.1,0,0,0,0L40.8,43.5z"/>
									<path id="XMLID_16622_" class="st47" d="M41.3,42.8l-0.5,0.3c-0.1,0.1-0.1,0.2,0,0.2l0.8,0.4c0,0,0.1,0,0.2,0l0.5-0.3
										c0.1-0.1,0.1-0.2,0-0.2l-0.8-0.4C41.4,42.8,41.3,42.8,41.3,42.8z"/>
								</g>
							</g>
						</g>
						<g id="XMLID_16614_">
							<g id="XMLID_16615_">
								<g id="XMLID_16616_">
									<path id="XMLID_16618_" class="st48" d="M34.8,39.9C34.8,40,34.8,40,34.8,39.9l0.8,0.5c0,0,0.1,0,0.2,0l0.5-0.3V40v-0.1
										c0-0.1,0-0.1,0-0.1l-0.8-0.4c0,0-0.1,0-0.2,0L34.8,39.9L34.8,39.9L34.8,39.9z"/>
									<path id="XMLID_16617_" class="st47" d="M35.2,39.4l-0.4,0.3c-0.1,0.1-0.1,0.2,0,0.2l0.8,0.4c0,0,0.1,0,0.2,0l0.5-0.3
										c0.1-0.1,0.1-0.2,0-0.2l-0.8-0.4C35.4,39.3,35.3,39.3,35.2,39.4z"/>
								</g>
							</g>
						</g>
						<g id="XMLID_16609_">
							<g id="XMLID_16610_">
								<g id="XMLID_16611_">
									<path id="XMLID_16613_" class="st48" d="M33.9,39.4C33.9,39.5,33.9,39.5,33.9,39.4l0.4,0.4c0,0,0.1,0,0.2,0l0.5-0.3v-0.1
										v-0.1c0-0.1,0-0.1,0-0.1l-0.4-0.3c0,0-0.1,0-0.2,0L33.9,39.4C33.9,39.3,33.8,39.3,33.9,39.4L33.9,39.4z"/>
									<path id="XMLID_16612_" class="st47" d="M34.4,38.9l-0.5,0.3c-0.1,0.1-0.1,0.2,0,0.2l0.4,0.3c0,0,0.1,0,0.2,0l0.5-0.3
										c0.1-0.1,0.1-0.2,0-0.2l-0.4-0.3C34.6,38.8,34.5,38.8,34.4,38.9z"/>
								</g>
							</g>
						</g>
						<g id="XMLID_16604_">
							<g id="XMLID_16605_">
								<g id="XMLID_16606_">
									<path id="XMLID_16608_" class="st48" d="M31.4,38.1C31.4,38.2,31.4,38.2,31.4,38.1l0.4,0.4c0,0,0.1,0,0.2,0l0.1-0.1v-0.1
										v-0.1c0-0.1,0-0.1,0-0.1l-0.4-0.3c0,0-0.1,0-0.2,0l-0.1,0.1l0,0V38.1z"/>
									<path id="XMLID_16607_" class="st47" d="M31.6,37.7L31.6,37.7c-0.2,0.2-0.2,0.3-0.1,0.3l0.4,0.3c0,0,0.1,0,0.2,0l0.1-0.1
										c0.1-0.1,0.1-0.2,0-0.2l-0.4-0.3C31.7,37.7,31.6,37.7,31.6,37.7z"/>
								</g>
							</g>
						</g>
					</g>
					<g id="XMLID_16598_">
						<g id="XMLID_16599_">
							<g id="XMLID_16600_">
								<path id="XMLID_16602_" class="st48" d="M33,39.1C33,39.2,33,39.2,33,39.1l0.4,0.4c0,0,0.1,0,0.2,0l0.1-0.1v-0.1v-0.1
									c0-0.1,0-0.1,0-0.1l-0.4-0.3c0,0-0.1,0-0.2,0L33,38.9c0-0.1,0-0.1,0,0V39.1z"/>
								<path id="XMLID_16601_" class="st47" d="M33.2,38.7L33.2,38.7C33,38.9,33,39,33.1,39l0.4,0.3c0,0,0.1,0,0.2,0l0.1-0.1
									c0.1-0.1,0.1-0.2,0-0.2l-0.4-0.3C33.3,38.6,33.2,38.6,33.2,38.7z"/>
							</g>
						</g>
					</g>
					<g id="XMLID_16593_">
						<g id="XMLID_16594_">
							<g id="XMLID_16595_">
								<path id="XMLID_16597_" class="st48" d="M32.6,38.4C32.6,38.5,32.6,38.5,32.6,38.4l0.4,0.4c0,0,0.1,0,0.2,0l0.1-0.1v-0.1
									v-0.1c0-0.1,0-0.1,0-0.1l-0.4-0.3c0,0-0.1,0-0.2,0l-0.1,0.1c0.1-0.1,0-0.1,0,0V38.4z"/>
								<path id="XMLID_16596_" class="st47" d="M32.8,37.9L32.8,37.9c-0.2,0.2-0.2,0.3-0.1,0.3l0.4,0.3c0,0,0.1,0,0.2,0l0.1-0.1
									c0.1-0.1,0.1-0.2,0-0.2L33,37.9C32.9,37.9,32.8,37.9,32.8,37.9z"/>
							</g>
						</g>
					</g>
					<g id="XMLID_16588_">
						<g id="XMLID_16589_">
							<g id="XMLID_16590_">
								<path id="XMLID_16592_" class="st48" d="M32.2,38.6C32.2,38.7,32.2,38.7,32.2,38.6l0.4,0.4c0,0,0.1,0,0.2,0l0.1-0.1v-0.1
									v-0.1c0-0.1,0-0.1,0-0.1l-0.4-0.3c0,0-0.1,0-0.2,0l-0.1,0.1c0-0.1,0,0,0,0V38.6z"/>
								<path id="XMLID_16591_" class="st47" d="M32.4,38.1L32.4,38.1c-0.2,0.2-0.2,0.3-0.1,0.3l0.4,0.3c0,0,0.1,0,0.2,0l0.1-0.1
									c0.1-0.1,0.1-0.2,0-0.2l-0.4-0.2C32.5,38.1,32.4,38.1,32.4,38.1z"/>
							</g>
						</g>
					</g>
				</g>
			</g>
		</g>
	</g>
	<g id="XMLID_16580_">
		<path id="XMLID_16583_" class="st50" d="M54.8,46.8l4.4,2.5c0.8,0.5,0.8,1.6,0,2.1l-4.4,2.5c-0.9,0.5-1.9,0.5-2.8,0l-4.4-2.5
			c-0.8-0.5-0.8-1.6,0-2.1l4.4-2.5C52.9,46.3,53.9,46.3,54.8,46.8z"/>
		<path id="XMLID_16582_" class="st51" d="M54.8,46.6l4.4,2.5c0.8,0.5,0.8,1.6,0,2.1l-4.4,2.5c-0.9,0.5-1.9,0.5-2.8,0l-4.4-2.5
			c-0.8-0.5-0.8-1.6,0-2.1l4.4-2.5C52.9,46.1,53.9,46.1,54.8,46.6z"/>
		<path id="XMLID_16581_" class="st52" d="M52,46.7c0.9-0.5,1.9-0.5,2.8,0l4.4,2.5c0.8,0.5,0.8,1.6,0,2.1l-4.4,2.5
			c-0.9,0.5-1.9,0.5-2.8,0"/>
	</g>
	<g id="XMLID_16578_">
		<path id="XMLID_16579_" class="st53" d="M31.2,50.5c4.2,1.7,9,2.8,12,2.8c4.1,0.1,8-2.6,8-2.6l0.1,0.1c-0.1,0-3.9,2.7-8.1,2.6
			C40.2,53.4,35.4,52.3,31.2,50.5L31.2,50.5z"/>
	</g>
	<polygon id="XMLID_16561_" class="st54" points="28.3,30 28.3,45.3 27.6,45.7 27.6,30.4 	"/>
	<g id="XMLID_1_">
		<path id="XMLID_16551_" class="st55" d="M55.8,72.9c0,1.3,2,2.4,4.4,2.4s4.4-1.1,4.4-2.4c0-0.2,0-1.1,0-1.3c0-1.3-2-2.4-4.4-2.4
			s-4.4,1.1-4.4,2.4C55.8,71.8,55.8,72.6,55.8,72.9z"/>
		<path class="st56" d="M55.9,71.6c0,0.2,0,1.1,0,1.3c0,1.3,2,2.4,4.4,2.4c1.4,0,2.6-0.4,3.4-0.9V70c-0.8-0.6-2-0.9-3.4-0.9
			C57.8,69.1,55.8,70.2,55.9,71.6z"/>
		<ellipse id="XMLID_16545_" class="st57" cx="60.3" cy="71.6" rx="4.4" ry="2.4"/>
		<path class="st58" d="M60.7,74v-4.2h-1.1V74c0.2,0,0.4,0,0.6,0C60.4,74,60.6,74,60.7,74L60.7,74z"/>
		<path id="XMLID_22_" class="st58" d="M64.6,71.6c0,1.3-2,2.4-4.4,2.4s-4.4-1.1-4.4-2.4"/>
		<rect id="XMLID_21_" x="59.8" y="61.7" class="st59" width="0.9" height="5.3"/>
		<rect x="59.8" y="61.8" class="st56" width="0.6" height="5.2"/>
		<path id="XMLID_20_" class="st59" d="M60.8,66.8h-1.2v3.3c0,0.2,0.3,0.3,0.6,0.3s0.6-0.1,0.6-0.3l0,0V66.8L60.8,66.8z"/>
		<rect id="XMLID_19_" x="59.9" y="59.5" class="st60" width="0.7" height="2.5"/>
		<path id="XMLID_18_" class="st59" d="M59.5,61.8L59.5,61.8c0,0.2,0.2,0.4,0.4,0.4h0.8c0.2,0,0.4-0.2,0.4-0.4l0,0
			c0-0.2-0.2-0.4-0.4-0.4h-0.8C59.6,61.4,59.4,61.6,59.5,61.8z"/>
		<path class="st56" d="M59.5,61.7L59.5,61.7c0,0.3,0.1,0.4,0.3,0.4h1c0.2,0,0.3-0.1,0.3-0.3v-0.1c0-0.2-0.1-0.3-0.3-0.3h-1
			C59.6,61.4,59.4,61.5,59.5,61.7z"/>
		<g id="XMLID_6_">
			<path id="XMLID_17_" class="st61" d="M55.3,58.1c0,1,2.2,1.8,5,1.8s5-0.8,5-1.8c0-0.1,0-0.2,0-0.3c0-3.1-2.9-5.4-3.3-6.9
				c-0.3-1.3-3.2-1.3-3.5,0c-0.4,1.6-3.3,3.8-3.3,6.9C55.2,57.8,55.2,58,55.3,58.1z"/>
			<path id="XMLID_16_" class="st62" d="M55.3,58.1c0,1,2.2,1.8,5,1.8s5-0.8,5-1.8c0-0.1,0.1-0.3,0-0.3c-3.4-1.8-3.2-5-3.6-6.5
				c-0.4-1.3-2.9-1.7-3.2-0.4c-0.4,1.6-3.3,3.8-3.3,6.9C55.2,57.8,55.2,58,55.3,58.1z"/>
			<path id="XMLID_15_" class="st63" d="M55.2,58.1c0,1,2.2,1.8,5,1.8s-1.7-9-1.7-9c-0.4,1.6-3.3,3.8-3.3,6.9
				C55.2,57.8,55.2,58,55.2,58.1z"/>
			<path id="XMLID_14_" class="st64" d="M55.1,58.1c0,1,2.3,1.8,5.1,1.8s5.1-0.9,5.1-1.9v-0.2c0-1.1-2.3-1.9-5.1-1.9
				s-5.1,0.9-5.1,1.9C55.1,57.9,55.1,58,55.1,58.1z"/>
			<ellipse id="XMLID_13_" class="st65" cx="60.2" cy="58.1" rx="4.7" ry="1.7"/>
			<g id="XMLID_11_">
				<path id="XMLID_12_" class="st66" d="M60.2,59.8c0.6,0,1.3,0,1.8-0.1l-1.2-3.3h-0.1c-0.2,0-0.3,0-0.5,0c-2.6,0-4.7,0.8-4.7,1.7
					C55.5,59,57.6,59.8,60.2,59.8z"/>
			</g>
			<path class="st67" d="M55.7,57.4c0.7,0.6,2.4,1.1,4.5,1.1s3.9-0.4,4.5-1.1c-0.7-0.6-2.4-1.1-4.5-1.1
				C58.2,56.3,56.4,56.8,55.7,57.4z"/>
			<path class="st67" d="M60.3,56.3c-1.5,0-2.8,0.3-3.7,0.7c0.8,0.4,2.2,0.7,3.7,0.7s2.8-0.3,3.7-0.7C63.1,56.6,61.7,56.3,60.3,56.3
				z"/>
			<g id="XMLID_9_">
				<path id="XMLID_10_" class="st68" d="M61.8,56.5c-0.5-0.1-1-0.1-1.6-0.1c-0.5,0-1.1,0-1.6,0.1c-0.1,0.5,0.1,0.9,0.2,1.1
					c0.2,0.4,0.6,0.8,1.4,0.8c0.8,0,1.2-0.5,1.4-0.8C61.8,57.4,62,57,61.8,56.5z"/>
			</g>
			<g id="XMLID_7_">
				<path id="XMLID_8_" class="st69" d="M61.5,56.9c0,0-0.6,0-1.1,0.3c-0.5,0.2-1,0.6-0.9,0.7c0.2,0.1,0.4,0.2,0.7,0.2
					c0.6,0,1-0.3,1.1-0.6C61.4,57.4,61.5,57.2,61.5,56.9z"/>
			</g>
		</g>
		<g id="XMLID_3_">
			<path id="XMLID_5_" class="st64" d="M59.5,72.7c0,0.2,0.4,0.4,0.8,0.4c0.5,0,0.8-0.2,0.8-0.4v-0.2c0-0.2-0.4-0.4-0.8-0.4
				c-0.5,0-0.8,0.2-0.8,0.4V72.7z"/>
			<ellipse id="XMLID_4_" class="st62" cx="60.3" cy="72.5" rx="0.8" ry="0.4"/>
		</g>
	</g>
	<g>
		<g id="XMLID_16562_">
			<path id="XMLID_16567_" class="st49" d="M21.5,47.5c0,0.1,0,0.4,0,0.5c0,0.3,0.2,0.8,0.5,1l4.3,2.6c0.8,0.5,1.8,0.5,2.6,0
				l3.2-1.9c0.3-0.2,0.5-0.5,0.5-0.8c0-0.2,0-0.6,0-0.7c0-0.4-0.2-0.7-0.5-0.9l-4.3-2.5c-0.8-0.5-1.8-0.5-2.6,0L22,46.7
				C21.7,46.9,21.6,47.1,21.5,47.5z"/>
			<path class="st70" d="M27.5,51.9c0.5,0.1,1,0,1.5-0.3l3.2-1.9c0.3-0.2,0.5-0.5,0.5-0.8c0-0.2,0-0.6,0-0.7c0-0.4-0.2-0.7-0.5-0.9
				l-4.3-2.5c0-0.1-0.1-0.1-0.1-0.1h-0.3C27.5,44.7,27.5,51.9,27.5,51.9z"/>
			<path id="XMLID_16566_" class="st71" d="M27.9,44.8l4.3,2.5c0.7,0.4,0.7,1.3,0,1.7L29,50.9c-0.8,0.5-1.8,0.5-2.6,0l-4.3-2.5
				c-0.7-0.4-0.7-1.3,0-1.7l3.2-1.9C26.1,44.3,27.1,44.3,27.9,44.8z"/>
			<path id="XMLID_16565_" class="st49" d="M25.3,44.8c0.8-0.5,1.8-0.5,2.6,0l4.3,2.5c0.7,0.4,0.7,1.3,0,1.7L29,50.9
				c-0.8,0.5-1.8,0.5-2.6,0"/>
			<path class="st72" d="M29,51l0.7-0.4c0-1,0-2.9,0-2.9c0-0.2-0.1-0.3-0.2-0.4l-1.9-1.1c-0.4-0.2-0.8-0.2-1.2,0l-0.8,0.4
				c-0.1,0-0.2,0.2-0.2,0.3c0,0,0,3.3,0,3.4l0,0l1,0.6C27.2,51.4,28.2,51.4,29,51z"/>
			<g id="XMLID_16563_">
				<path id="XMLID_16564_" class="st73" d="M25.3,43.6c0,0,0,3.3,0,3.4c0,0.2,0.1,0.4,0.2,0.5l1.9,1.1c0.4,0.2,0.8,0.2,1.2,0
					l0.8-0.4c0.1,0,0.2-0.2,0.2-0.3s0-3.4,0-3.5c0-0.2-0.1-0.3-0.2-0.4l-1.8-1.1c-0.4-0.2-0.8-0.2-1.2,0l-0.8,0.4
					C25.4,43.4,25.4,43.5,25.3,43.6z"/>
			</g>
			<path class="st74" d="M27.9,48.7c0.2,0.1,0.5,0,0.7-0.1l0.8-0.4c0.1,0,0.2-0.2,0.2-0.3s0-3.4,0-3.5c0-0.2-0.1-0.3-0.2-0.4
				l-1.5-0.9V48.7z"/>
			<path class="st74" d="M25.3,43.7c0,0,0,0.3,0,0.8s0,0.9,0,0.9c0,0.2,0.1,0.4,0.2,0.5l1.9,1.1c0.4,0.2,0.8,0.2,1.2,0l0.8-0.4
				c0.1,0,0.2-0.2,0.2-0.3c0-0.1,0-0.3,0-0.7c0-0.7,0-1.2,0-1.2c0-0.2-0.1-0.3-0.2-0.4l-1.8-1.1c-0.4-0.2-0.8-0.2-1.2,0l-0.8,0.4
				C25.4,43.4,25.4,43.5,25.3,43.7z"/>
		</g>
		<polygon id="XMLID_16560_" class="st75" points="37.3,35 19.3,24.6 18.6,25 36.6,35.4 		"/>
		<polygon id="XMLID_16559_" class="st49" points="36.6,35.4 36.6,50.7 18.6,40.3 18.6,25 		"/>
		<polyline id="XMLID_16558_" class="st2" points="18.6,25 36.6,35.4 36.6,50.7 		"/>
		<polygon class="st76" points="19.7,27.8 35.6,37 35.6,35.8 19.7,26.6 		"/>
		<polygon id="XMLID_23_" class="st1" points="28.2,38.6 18.6,25 36.6,35.4 		"/>
		<polygon id="XMLID_16557_" class="st0" points="35.6,35.8 35.6,49 19.7,39.8 19.7,26.6 		"/>
	</g>
	<ellipse class="st62" cx="59.3" cy="58.3" rx="5" ry="3.4"/>
	<g id="XMLID_24_">
		<g id="XMLID_25_">
			<polygon id="XMLID_27_" class="st0" points="62,56.7 62,99.2 60.8,98.5 60.8,56 			"/>
			<polygon id="XMLID_26_" class="st1" points="60.8,56 62,56.7 97.8,36.1 96.6,35.4 			"/>
		</g>
		<polygon class="st2" points="62,56.7 62,99.2 97.8,78.5 98.9,77.8 98.9,35.4 97.8,36.1 		"/>
		<polyline class="st3" points="98.9,35.4 97.8,36.1 62,56.7 62,99.2 		"/>
	</g>
	<g>
		<g id="XMLID_2_">
			<g id="XMLID_76_">
				<path id="XMLID_77_" class="st53" d="M52,51.5L52,51.5c0.7,0.1,1.4,0,1.9-0.3L56,50c1.1-0.6,0.8-1.9-0.6-2.2l0,0
					c-0.7-0.1-1.4,0-1.9,0.3l-2.1,1.2C50.3,50,50.6,51.2,52,51.5z"/>
			</g>
		</g>
		<path id="XMLID_79_" class="st77" d="M55.1,47.8c-0.4,0-0.5,0-0.9,0.1C54,48,53.8,48,53.5,48.1c-0.3,0.2-0.5,0.3-0.7,0.4
			c-0.6,0.3-0.8,0.4-1.1,0.6c0.3,0.5,1.6,2.3,1.6,2.3c0.3-0.1,0.9-0.4,1.5-0.8c0.8-0.5,1.7-1,1.7-1.3C57,48.7,56.3,47.9,55.1,47.8z"
			/>
		<path id="XMLID_16573_" class="st78" d="M51.7,49.1c-0.2,0-0.5,0.4-0.6,0.4c-0.3,0.5-0.5,0.7-0.2,1.3c0.3,0.2,0.6,0.5,0.9,0.6
			c0.4,0.1,1.3,0.1,1.6,0C52.8,50.4,51.9,49.2,51.7,49.1z"/>
		<g id="XMLID_16570_">
			<path id="XMLID_16571_" class="st77" d="M51.5,50.4c-0.4,0.3-0.4,0.3-0.5,0.5C50.9,51,51,51,51,51c0.2-0.3,1.2-0.8,1.4-1
				C52.3,50,51.7,50.2,51.5,50.4z"/>
		</g>
		<path id="XMLID_86_" class="st79" d="M53.1,51c-0.1,0.1,0.2,0.4,0.2,0.4c0.3-0.1,0.9-0.4,1.5-0.8c0.8-0.5,1.7-1,1.7-1.3
			c0.2-0.3,0-0.9-0.1-0.9C56.1,49.4,54.1,50.7,53.1,51z"/>
		<path id="XMLID_130_" class="st80" d="M51.4,51.2c0.5,0.4,1.7,0.4,2,0.3c-0.1-0.3-0.1-0.3-0.2-0.5C52.6,51.3,52,51.3,51.4,51.2z"
			/>
	</g>
</g>
<g id="Layer_2">
	<g id="XMLID_84_">
		<polygon id="XMLID_133_" class="st1" points="62,56.7 60.9,57.4 2.3,23.8 3.5,23.1 		"/>
		<polygon id="XMLID_132_" class="st0" points="60.9,57.4 60.9,99.8 2.3,66.2 2.3,23.8 		"/>
		<polyline id="XMLID_131_" class="st3" points="60.9,99.8 2.3,66.2 2.3,23.8 		"/>
	</g>
</g>
</svg>
