<?xml version="1.0" encoding="utf-8"?>
<!-- Generator: Adobe Illustrator 21.0.0, SVG Export Plug-In . SVG Version: 6.00 Build 0)  -->
<svg version="1.1" id="Layer_1" xmlns="http://www.w3.org/2000/svg" xmlns:xlink="http://www.w3.org/1999/xlink" x="0px" y="0px"
	 viewBox="0 0 80 80" style="enable-background:new 0 0 80 80;" xml:space="preserve">
<style type="text/css">
	.st0{fill:#995827;}
	.st1{fill:#B2662F;}
	.st2{fill:#E8E7E7;}
	.st3{fill:#BDD3CF;}
	.st4{fill:#FFFFFF;}
	.st5{fill:#EFEFEF;}
	.st6{fill:#A3B6B3;}
	.st7{opacity:0.2;fill:#A3B6B3;}
	.st8{fill:#AC692D;}
	.st9{fill:#E7E6E6;}
	.st10{fill:#73401C;}
	.st11{fill:#994B33;}
	.st12{fill:#A75535;}
</style>
<g id="XMLID_37960_">
	<g id="XMLID_38011_">
		<g id="XMLID_38012_">
			<path id="XMLID_38015_" class="st0" d="M76.8,38.4c0-0.2-0.1-0.3-0.3-0.4l0,0c-0.2-0.1-0.6-0.2-0.8-0.1l0,0
				c-0.4,0.1-0.6,0.3-0.6,0.5c0,0.2,0,1.9,0,2c0,0.2,0.1,0.3,0.3,0.4l0,0c0.2,0.1,0.6,0.2,0.8,0.1l0,0c0.4-0.1,0.6-0.3,0.6-0.5
				C76.8,40.3,76.8,38.6,76.8,38.4z"/>
			<path id="XMLID_38014_" class="st0" d="M76.9,40.1L76.9,40.1c0.9,0.5,0.6,1.5-0.5,1.8l0,0c-0.5,0.1-1.1,0-1.5-0.2l0,0
				c-0.9-0.5-0.6-1.5,0.5-1.8l0,0C75.9,39.8,76.5,39.9,76.9,40.1z"/>
			<path id="XMLID_38013_" class="st1" d="M75,40.4c-0.7,0.4-0.5,1.2,0.4,1.4l0,0c0.4,0.1,0.9,0,1.2-0.2l0,0
				c0.4-0.2-0.9-0.1-1.1-0.6C75.5,40.5,75,40.4,75,40.4z"/>
		</g>
	</g>
	<g id="XMLID_38002_">
		<g id="XMLID_38007_">
			<path id="XMLID_38010_" class="st0" d="M24.8,68.2c0-0.2-0.1-0.3-0.3-0.4l0,0c-0.2-0.1-0.6-0.2-0.8-0.1l0,0
				c-0.4,0.1-0.6,0.3-0.6,0.5c0,0.2,0,1.9,0,2c0,0.2,0.1,0.3,0.3,0.4l0,0c0.2,0.1,0.6,0.2,0.8,0.1l0,0c0.4-0.1,0.6-0.3,0.6-0.5
				C24.8,70.1,24.8,68.4,24.8,68.2z"/>
			<path id="XMLID_38009_" class="st0" d="M25,69.9L25,69.9c0.9,0.5,0.6,1.5-0.5,1.8l0,0c-0.5,0.1-1.1,0-1.5-0.2l0,0
				C22,71,22.3,70,23.4,69.7l0,0C24,69.6,24.5,69.7,25,69.9z"/>
			<path id="XMLID_38008_" class="st1" d="M23.1,70.2c-0.7,0.4-0.5,1.2,0.4,1.4v0c0.4,0.1,0.9,0,1.2-0.2l0,0
				c0.4-0.2-0.9-0.1-1.1-0.6C23.5,70.3,23.1,70.2,23.1,70.2z"/>
		</g>
		<g id="XMLID_38003_">
			<path id="XMLID_38006_" class="st0" d="M4.9,56.7c0-0.2-0.1-0.3-0.3-0.4l0,0c-0.2-0.1-0.6-0.2-0.8-0.1l0,0
				c-0.4,0.1-0.6,0.3-0.6,0.5c0,0.2,0,1.9,0,2c0,0.2,0.1,0.3,0.3,0.4l0,0c0.2,0.1,0.6,0.2,0.8,0.1l0,0c0.4-0.1,0.6-0.3,0.6-0.5
				C4.9,58.6,4.9,56.9,4.9,56.7z"/>
			<path id="XMLID_38005_" class="st0" d="M5.1,58.5L5.1,58.5C6,59,5.7,60,4.6,60.3l0,0C4,60.4,3.5,60.3,3,60l0,0
				c-0.9-0.5-0.6-1.5,0.5-1.8l0,0C4.1,58.1,4.7,58.2,5.1,58.5z"/>
			<path id="XMLID_38004_" class="st1" d="M3.2,58.7c-0.7,0.4-0.5,1.2,0.4,1.4l0,0c0.4,0.1,0.9,0,1.2-0.2l0,0
				c0.4-0.2-0.9-0.1-1.1-0.6C3.6,58.9,3.2,58.7,3.2,58.7z"/>
		</g>
	</g>
	<g id="XMLID_37964_">
		<polygon id="XMLID_38001_" class="st2" points="77.5,38.1 56,25.7 2.5,56.6 24,69 		"/>
		<g id="XMLID_37997_">
			<path id="XMLID_38000_" class="st3" d="M71.7,25.2L51.4,13.4l-0.4-1.2c-0.7,0.7-0.8,1.2-0.8,1.7c0,0.5,0,13.3,0,13.3l21.5,12.4
				V25.2z"/>
			<path id="XMLID_37999_" class="st4" d="M53.1,10.6c-1.2,0.8-2.3,1.7-2.3,1.8c-0.1,0.2,0,0.6,0.2,0.8l20.7,11.9l5.8-3.4l-20.8-12
				c-0.2-0.1-0.5-0.2-0.7-0.2C55.8,9.6,54.4,9.9,53.1,10.6z"/>
			<path id="XMLID_41651_" class="st5" d="M56.7,9.8c-0.2-0.1-0.5-0.2-0.7-0.2c-0.2,0-1.7,0.3-2.9,1c-1.2,0.8-2.3,1.7-2.3,1.8
				c-0.1,0.2,0,0.6,0.2,0.8l20.7,11.9"/>
			<path id="XMLID_37998_" class="st6" d="M71.7,39.7V25.2c0-0.2,1.5-1.5,2.9-2.3c1.5-0.8,2.9-1.2,2.9-1.1v14.6L71.7,39.7z"/>
			<path id="XMLID_41649_" class="st7" d="M71.7,39.7V25.2c0-0.2,1.5-1.5,2.9-2.3c1.5-0.8,2.9-1.2,2.9-1.1"/>
		</g>
		<g id="XMLID_37994_">
			<g id="XMLID_37995_">
				<polygon id="XMLID_37996_" class="st8" points="2.5,56.6 24,69 24,67.3 2.5,54.8 				"/>
			</g>
		</g>
		<g id="XMLID_37982_">
			<g id="XMLID_37990_">
				<g id="XMLID_37992_">
					<path id="XMLID_37993_" class="st3" d="M49.9,8.8c0,1.1,3.4,1.5,4.4,2.9c2.1,3,1.1,12.7,1.2,12.5c1.8-7.6,0.2-12.2,0.2-12.3
						c-0.3-0.9-0.9-1.8-2-2.6C52.6,8.5,49.9,7.6,49.9,8.8z"/>
				</g>
				<path id="XMLID_37991_" class="st9" d="M55.5,24.2c-0.4,0.4-0.4,0.9-0.4,1.5v4.6l15.9,9.7l0.6-0.3c-0.3-2.9-0.1-5.8-0.1-5.8
					c0.1-1-1.6-3.1-7.7-6.6C59.4,24.7,55.9,23.8,55.5,24.2z"/>
			</g>
			<g id="XMLID_37983_">
				<g id="XMLID_37986_">
					<polygon id="XMLID_37989_" class="st2" points="37.4,40.1 29.2,37.3 29.3,20.7 35.1,23.9 					"/>
					<path id="XMLID_37988_" class="st6" d="M55.4,12.9c0,0,0.5,2.4,0.5,5.3c0,2.9-0.4,6.7-0.4,6.7l-10.1,4.6l-10.5,6.6
						c0,0-0.5-8.8,0.1-12.3c0,0,0-0.2,0.1-0.3c1.2-1.3,5.6-5.8,9.4-7.9c3-1.7,7.9-3.9,9.9-4C55.3,11.6,55.4,12.7,55.4,12.9z"/>
					<path id="XMLID_41653_" class="st7" d="M34.9,36.1c0,0-0.5-8.8,0.1-12.3c0,0,0-0.2,0.1-0.3c1.2-1.3,5.6-5.8,9.4-7.9
						c3-1.7,7.9-3.9,9.9-4c0.8,0,0.9,1.1,0.9,1.2"/>
					<path id="XMLID_37987_" class="st4" d="M55.4,12.8c0-0.7-0.9-2.4-3-3.7c-0.7-0.4-1.4-0.6-1.9-0.7c-1.4-0.3-5.6,1.3-11.4,4.3
						c-6.6,3.5-9.8,6.4-9.8,8c0,1.6,5.5,3.5,5.8,3.1c1.6-1.8,3.9-4,10-7.5c4.1-2.3,9.1-4,9.6-4.1C55.2,12.2,55.4,12.8,55.4,12.8z"/>
					<path id="XMLID_41644_" class="st5" d="M29.3,20.7c0,1.6,5.5,3.5,5.8,3.1c1.6-1.8,3.9-4,10-7.5c4.1-2.3,9.1-4,9.6-4.1
						c0.5-0.1,0.7,0.5,0.7,0.5c0-0.7-0.9-2.4-3-3.7c-0.7-0.4-1.4-0.6-1.9-0.7"/>
				</g>
				<path id="XMLID_37985_" class="st6" d="M71.1,40.1c0,0,0.1-1.1,0.1-3.3c0-2.2-0.1-3.5-0.1-3.5c0-0.7-10.5,3.5-10.9,3.8l-8.6,6
					c-0.5,0.3-0.9,0.9-0.9,1.5c0,0-0.1,1.7,0,3.7c0.1,1.9,0.3,3.5,0.3,3.5L71.1,40.1z"/>
				<path id="XMLID_41646_" class="st7" d="M71.1,33.3c0-0.7-10.5,3.5-10.9,3.8l-8.6,6c-0.5,0.3-0.9,0.9-0.9,1.5c0,0-0.1,1.7,0,3.7
					c0.1,1.9,0.3,3.5,0.3,3.5"/>
				<path id="XMLID_37984_" class="st5" d="M53.4,24.6c0,0-4.8,2-7.6,3.5c-5.1,2.8-7.5,4.5-10,6.8c-0.8,0.8-1.4,1.7-1.4,2.8v4.6
					l16,9.7l0.5-0.3c-0.3-2.9-0.1-5.8-0.1-5.8c0.1-1,0.6-1.8,1-2.2c1.9-1.6,5.6-4.1,10.6-6.8c3.8-2.1,5.8-2.6,7.4-3.2
					c1.1-0.4,1.3,0.3,1.3,0.3c0-0.7-0.2-1.1-0.7-1.4L57.6,25C56.3,24.2,55.3,23.9,53.4,24.6z"/>
			</g>
		</g>
		<polygon id="XMLID_37981_" class="st10" points="77.5,38.1 77.5,36.4 24,67.3 24,69 		"/>
		<g id="XMLID_37969_">
			<g id="XMLID_37977_">
				<g id="XMLID_37979_">
					<path id="XMLID_37980_" class="st3" d="M29.3,20.7c0,1.1,3.4,1.5,4.4,2.9c2.1,3,1.1,12.7,1.2,12.5c1.8-7.6,0.2-12.2,0.2-12.3
						c-0.3-0.9-0.9-1.8-2-2.6C32,20.4,29.3,19.5,29.3,20.7z"/>
				</g>
				<path id="XMLID_37978_" class="st3" d="M34.9,36.1c-0.4,0.4-0.4,0.9-0.4,1.5v4.6L50.5,52l0.6-0.3c-0.3-2.9-0.1-5.8-0.1-5.8
					c0.1-1-1.6-3.1-7.7-6.6C38.7,36.6,35.3,35.8,34.9,36.1z"/>
			</g>
			<g id="XMLID_37970_">
				<g id="XMLID_37973_">
					<polygon id="XMLID_37976_" class="st3" points="16.8,52 8.6,49.3 8.6,32.7 14.4,35.8 					"/>
					<polyline id="XMLID_41654_" class="st7" points="14.4,35.8 16.8,52 8.6,49.3 					"/>
					<path id="XMLID_37975_" class="st6" d="M34.8,24.8c0,0,0.5,2.4,0.5,5.3c0,2.9-0.4,6.7-0.4,6.7l-10.1,4.6l-10.5,6.6
						c0,0-0.5-8.8,0.1-12.3c0,0,0-0.2,0.1-0.3c1.2-1.3,5.6-5.8,9.4-7.9c3-1.7,7.9-3.9,9.9-4C34.7,23.5,34.8,24.6,34.8,24.8z"/>
					<path id="XMLID_41652_" class="st7" d="M24.7,41.4l-10.5,6.6c0,0-0.5-8.8,0.1-12.3c0,0,0-0.2,0.1-0.3c1.2-1.3,5.6-5.8,9.4-7.9
						c3-1.7,7.9-3.9,9.9-4c0.8,0,0.9,1.1,0.9,1.2c0,0,0.5,2.4,0.5,5.3"/>
					<path id="XMLID_37974_" class="st4" d="M34.8,24.7c0-0.7-0.9-2.4-3-3.7c-0.7-0.4-1.4-0.6-1.9-0.7c-1.4-0.3-5.6,1.3-11.4,4.3
						c-6.6,3.5-9.8,6.4-9.8,8c0,1.6,5.5,3.5,5.8,3.1c1.6-1.8,3.9-4,10-7.5c4.1-2.3,9.1-4,9.6-4.1C34.6,24.1,34.8,24.7,34.8,24.7z"/>
					<path id="XMLID_41643_" class="st5" d="M8.6,32.7c0,1.6,5.5,3.5,5.8,3.1c1.6-1.8,3.9-4,10-7.5c4.1-2.3,9.1-4,9.6-4.1
						c0.5-0.1,0.7,0.5,0.7,0.5c0-0.7-0.9-2.4-3-3.7c-0.7-0.4-1.4-0.6-1.9-0.7"/>
				</g>
				<path id="XMLID_37972_" class="st6" d="M50.5,52c0,0,0.1-1.1,0.1-3.3c0-2.2-0.1-3.5-0.1-3.5c0-0.7-10.5,3.5-10.9,3.8L31,55
					c-0.5,0.3-0.9,0.9-0.9,1.5c0,0-0.1,1.7,0,3.7c0.1,1.9,0.3,3.5,0.3,3.5L50.5,52z"/>
				<path id="XMLID_41639_" class="st7" d="M50.5,45.2c0-0.7-10.5,3.5-10.9,3.8L31,55c-0.5,0.3-0.9,0.9-0.9,1.5c0,0-0.1,1.7,0,3.7
					c0.1,1.9,0.3,3.5,0.3,3.5"/>
				<path id="XMLID_37971_" class="st5" d="M32.8,36.5c0,0-4.8,2-7.6,3.5c-5.1,2.8-7.5,4.5-10,6.8c-0.8,0.8-1.4,1.7-1.4,2.8v4.6
					l16,9.7l0.5-0.3c-0.3-2.9-0.1-5.8-0.1-5.8c0.1-1,0.6-1.8,1-2.2c1.9-1.6,5.6-4.1,10.6-6.8c3.8-2.1,5.8-2.6,7.4-3.2
					c1.1-0.4,1.3,0.3,1.3,0.3c0-0.7-0.2-1.1-0.7-1.4L37,36.9C35.6,36.1,34.7,35.8,32.8,36.5z"/>
			</g>
		</g>
		<g id="XMLID_37965_">
			<path id="XMLID_37968_" class="st3" d="M24,52.7L3.7,41l-0.4-1.2c-0.7,0.7-0.8,1.2-0.8,1.7c0,0.5,0,13.3,0,13.3L24,67.3V52.7z"/>
			<path id="XMLID_37967_" class="st5" d="M5.4,38.2c-1.2,0.8-2.3,1.7-2.3,1.8c-0.1,0.2,0,0.6,0.2,0.8L24,52.7l5.8-3.4L9,37.3
				c-0.2-0.1-0.5-0.2-0.7-0.2C8.1,37.1,6.7,37.4,5.4,38.2z"/>
			<path id="XMLID_41650_" class="st4" d="M9,37.3c-0.2-0.1-0.5-0.2-0.7-0.2c-0.2,0-1.7,0.3-2.9,1c-1.2,0.8-2.3,1.7-2.3,1.8
				c-0.1,0.2,0,0.6,0.2,0.8L24,52.7"/>
			<path id="XMLID_37966_" class="st6" d="M24,67.3V52.7c0-0.2,1.5-1.5,2.9-2.3c1.5-0.8,2.9-1.2,2.9-1.1v14.6L24,67.3z"/>
			<path id="XMLID_41648_" class="st7" d="M24,67.3V52.7c0-0.2,1.5-1.5,2.9-2.3c1.5-0.8,2.9-1.2,2.9-1.1"/>
		</g>
	</g>
	<g id="XMLID_37961_">
		<path id="XMLID_37963_" class="st11" d="M62.8,28.3c-0.4,0.4-1.7-2.6-2.4-6.4c-0.2-1.2-0.8-2.6-0.9-4c-0.1-1.5,0.9-3,0.9-3
			c0.1-0.1,0.5-0.1,0.6,0.3c0,0,0.4,4.4,1,7.2C62.4,25.1,62.9,28.1,62.8,28.3z"/>
		<path id="XMLID_37962_" class="st12" d="M50.2,29.3c0,0.3,0.3,0.4,0.5,0.4c1-0.2,4.5-0.9,5.9-0.8c2.3,0,4.7-0.3,5.7-0.2
			c0.2,0,0.4-0.1,0.4-0.4c0-1.3-1.6-3.3-2.1-6.3c-0.2-1.1-0.1-3.3-0.1-4.2c-0.1-1.4,0.2-2,0.2-2.6c0-0.2-0.2-0.4-0.4-0.2
			c-1,0.6-3.4,1.6-5,2.1c-1,0.3-2.8,0.4-3.3,0.5c-1.1,0.1-1.9,0.6-2.4,1.1c-0.3,0.3-0.1,1.1-0.1,1.2c0.3,0.7,0.6,2.1,0.8,4.6
			C50.5,26.6,50.2,28.4,50.2,29.3z"/>
	</g>
</g>
</svg>
