<?xml version="1.0" encoding="utf-8"?>
<!-- Generator: Adobe Illustrator 21.0.0, SVG Export Plug-In . SVG Version: 6.00 Build 0)  -->
<svg version="1.1" id="Layer_1" xmlns="http://www.w3.org/2000/svg" xmlns:xlink="http://www.w3.org/1999/xlink" x="0px" y="0px"
	 viewBox="0 0 80 80" style="enable-background:new 0 0 80 80;" xml:space="preserve">
<style type="text/css">
	.st0{fill:#81A520;}
	.st1{fill:#A1BA3A;}
	.st2{fill:#BBC83C;}
	.st3{fill:#AABE38;}
</style>
<g id="XMLID_5048_">
	<g id="XMLID_5080_">
		<path class="st0" d="M32.7,57.7c-4.4-1.1-8.6-4.7-9.7-8.9c-1-3.6-1.1-9.3,1.5-14.5l1.7-2.8l0.6-0.5c0.6-1.1,4.1-7,5.2-7.6
			c1.1-0.5,4.9-0.4,5.5-0.1c0.6,0.2,2.3,0.4,3.6,3c0,0,0.9,3,1.6,3.6c0.7,0.6,3.8,2.5,5.5,3.7c1.7,1.1,5,2.7,6.1,3.7
			c1.5,1.4,2.3,3.3,2.5,7.9c0,3.4,0,5.5-3.8,8.9C50,56.4,37.7,58.9,32.7,57.7z"/>
	</g>
	<g id="XMLID_5079_">
		<path class="st1" d="M33.6,56.8c-4.4-1.1-9-5.2-9.7-8.9c-0.7-3.7-1.1-9.3,1.5-14.5c0,0,0.4-1.2,0.9-2l0.6-0.5
			c1.2-2.1,3-4.8,3.4-5.4c0.6-1.1,0.6-2.6,1.7-3.1c1.1-0.5,5.7-0.4,6.3-0.1c0.6,0.2,2.3,0.4,3.6,3c0,0,0.9,3,1.6,3.6
			c0.7,0.6,3.8,2.5,5.5,3.7c1.7,1.1,5,2.7,6.1,3.7c1.5,1.4,2.3,3.3,2.5,7.9c0,3.4-0.4,5.8-3.9,8.6C50.9,54.9,38.5,58,33.6,56.8z"/>
	</g>
	<g id="XMLID_5078_">
		<path class="st2" d="M26.8,31c1.2-2.1,3-4.8,3.4-5.4c0.6-1.1,0.6-2.6,1.7-3.1c1.1-0.5,5.7-0.4,6.3-0.1c0.6,0.2,2.3,0.4,3.6,3
			c0,0,0.9,3,1.6,3.6c0.7,0.6,3.8,2.5,5.5,3.7c1.7,1.1,5,2.7,6.1,3.7c0.2,0.2-1.7-0.2-2.6,0.1c-1.1,0.5-3.4,3-3.4,3
			c-1.7,0.1-6,1.6-8.4,3l-2.6-1.2C30.7,29.9,26.8,31,26.8,31z"/>
	</g>
	<g id="XMLID_5076_">
		<g id="XMLID_5077_">
			<path class="st2" d="M33.1,22.3c-0.5,0-1,0.1-1.2,0.2c-1.1,0.5-1.1,2-1.7,3.1c-0.4,0.6-2.1,3.3-3.4,5.4c0,0,1.1-0.4,3.2,1.1
				l8,8.6C38,40.6,30.7,28.6,33.1,22.3z"/>
		</g>
	</g>
	<g id="XMLID_5075_">
		<path class="st3" d="M26.2,31.5c0,0,1.7-0.6,3.1,0.4c1,0.7,3.9,3.4,5.2,4.8c1.2,1.4,3.7,4.4,3.7,4.4h0.5c0,0-2.8-3.8-4.1-5.3
			s-3.4-4.1-5-4.8C28.3,30.4,26.7,30.9,26.2,31.5z"/>
	</g>
	<g id="XMLID_5074_">
		<path class="st1" d="M43.1,41c0,0-1.2,0.7-2.3,1.2L38.2,41c-0.6-0.9-1.2-1.7-1.6-2.3l2,1.4l3.3-0.2l0.9-1.6L43.1,41z"/>
	</g>
	<g id="XMLID_5073_">
		<path class="st1" d="M43.2,28.6c0,0,0.5,1.4,0.5,2.1c0,0.7,0,1.5-0.1,2.5c-0.1,1-0.7,3.2-0.9,4.1c-0.1,1-0.2,2.6,0.1,4.1l0.4-0.1
			c0,0,0-3.1,0.1-3.8c0.1-0.7,0.7-2.8,0.9-4.2C44.3,31.8,44.6,30.4,43.2,28.6z"/>
	</g>
	<g id="XMLID_5072_">
		<path class="st3" d="M48.7,39.6c0,0,0.9-1.2,1.6-1.8c0.1-0.1,0.1-0.1,0.2-0.2c0.6-0.5,1.6-1.4,1.8-1.4c0,0,1.8-0.2,2.6-0.1
			l0.4,0.4c0,0-2.1,0-2.5,0.1c0,0-2.2,1.5-2.7,2.1C50.1,38.6,49.6,39.4,48.7,39.6z"/>
	</g>
	<g id="XMLID_5071_">
		<path class="st3" d="M32.7,41.5c0,0,1.4-0.9,2.1-1c0.7-0.1,1.6,0,2.1,0c2.5,0.5,3.9,1.7,3.9,1.7c-3.1-1.1-4.8-1.2-5.2-1.2
			c-0.4,0-0.9,0.1-1.1,0.4C34.2,41.6,33.1,42.2,32.7,41.5z"/>
	</g>
	<g id="XMLID_5070_">
		<path class="st1" d="M39.8,33.8c0,0,0.4-2.8,0.6-5.2c0.4-2.3,0.2-3.7-0.1-5.3c0,0,0.5,0.5,0.6,2.1C41.1,25.5,41.7,30.3,39.8,33.8z
			"/>
	</g>
	<g id="XMLID_5069_">
		<path class="st3" d="M40.7,42.2c0,0,7.7-4.7,13.4-2.5C54.3,39.7,49.2,38.5,40.7,42.2z"/>
	</g>
	<g id="XMLID_5053_">
		<g id="XMLID_5061_">
			<g>
				
					<rect x="34.9" y="56.7" transform="matrix(0.9187 -0.3949 0.3949 0.9187 -19.5683 18.4636)" class="st3" width="0.2" height="0.1"/>
			</g>
			<g>
				<path class="st3" d="M35.7,56.6l-0.1-0.1l0.5-0.2l0.1,0.1L35.7,56.6z M36.7,56.2L36.6,56l0.5-0.2l0.1,0.1L36.7,56.2z M37.7,55.7
					l-0.1-0.1l0.5-0.2l0.1,0.1L37.7,55.7z M38.7,55.4l-0.1-0.1L39,55l0.1,0.1L38.7,55.4z M39.6,55l-0.1-0.2l0.5-0.2l0.1,0.1L39.6,55
					z"/>
			</g>
			<g>
				<polygon class="st3" points="40.6,54.5 40.5,54.4 40.6,54.3 40.6,54.1 40.9,54 40.9,54.4 				"/>
			</g>
			<g>
				<path class="st3" d="M40.5,53.5L40.4,53h0.1l0.1,0.5H40.5z M40.4,52.5L40.2,52h0.1l0.1,0.5H40.4z M40.1,51.6L40,51.1h0.1
					l0.1,0.5H40.1z M40,50.4L39.9,50H40l0.1,0.5H40z M39.8,49.5L39.6,49h0.1l0.1,0.5H39.8z M39.6,48.4l-0.1-0.5h0.1l0.1,0.5H39.6z
					 M39.4,47.4c0-0.1-0.1-0.4-0.1-0.5h0.1c0,0.1,0.1,0.4,0.1,0.5H39.4z M39.1,46.4c0-0.1-0.1-0.4-0.1-0.5h0.1
					c0,0.1,0.1,0.4,0.1,0.5H39.1z M39,45.3c0-0.1-0.1-0.4-0.1-0.5H39c0,0.1,0.1,0.4,0.1,0.5H39z M38.8,44.3c0-0.1-0.1-0.4-0.1-0.5
					h0.1c0,0.1,0.1,0.4,0.1,0.5H38.8z M38.5,43.2c0-0.2-0.1-0.4-0.1-0.5l0.1-0.1c0,0.1,0.1,0.2,0.1,0.5L38.5,43.2z M38,42.3
					c-0.1-0.1-0.2-0.1-0.5-0.2l0.1-0.1c0.2,0.1,0.4,0.1,0.5,0.2L38,42.3z M37.2,42c-0.1,0-0.2-0.1-0.5-0.1v-0.1
					c0.2,0.1,0.4,0.1,0.5,0.1V42z M36.2,41.6c-0.1,0-0.4-0.1-0.5-0.1v-0.1c0.1,0,0.4,0.1,0.5,0.1V41.6z"/>
			</g>
			<g>
				<path class="st3" d="M35.2,41.2c-0.1,0-0.1,0-0.2,0l0.1-0.1c0.1,0,0.1,0,0.2,0.1H35.2z"/>
			</g>
		</g>
		<g id="XMLID_5055_">
			<g>
				
					<rect x="40.7" y="54.3" transform="matrix(0.9783 -0.207 0.207 0.9783 -10.3613 9.6362)" class="st3" width="0.2" height="0.1"/>
			</g>
			<g>
				<path class="st3" d="M41.6,54.3v-0.1l0.5-0.1v0.1L41.6,54.3z M42.7,54v-0.1l0.5-0.1v0.1L42.7,54z M43.7,53.8v-0.1l0.5-0.1v0.1
					L43.7,53.8z M44.8,53.5v-0.1l0.5-0.1v0.1L44.8,53.5z M45.9,53.3v-0.1l0.5-0.1v0.1L45.9,53.3z M46.9,53v-0.1l0.5-0.1v0.1L46.9,53
					z M48,52.8v-0.1c0.1,0,0.4-0.1,0.5-0.1v0.1C48.4,52.8,48.1,52.8,48,52.8z M49,52.7v-0.1c0.1,0,0.4-0.1,0.5-0.1v0.1
					C49.4,52.5,49.2,52.5,49,52.7z M50.1,52.3v-0.1c0.1,0,0.4-0.1,0.5-0.1v0.1C50.5,52.3,50.3,52.3,50.1,52.3z M51.2,52v-0.1
					c0.1,0,0.4-0.1,0.5-0.1v0.1C51.6,52,51.3,52,51.2,52z M52.2,51.8v-0.1c0.1,0,0.4-0.1,0.5-0.1v0.1C52.5,51.7,52.4,51.8,52.2,51.8
					z M53.3,51.6v-0.1c0.2,0,0.4-0.1,0.5-0.1v0.1C53.7,51.4,53.5,51.4,53.3,51.6z M54.3,51.2v-0.1c0.1,0,0.1,0,0.1-0.1
					c0,0,0.1-0.1,0.1-0.2l0.1,0.1c-0.1,0.2-0.1,0.2-0.2,0.2l0,0l0,0C54.5,51.2,54.4,51.2,54.3,51.2z M55,50.3l-0.1-0.1
					c0.1-0.1,0.1-0.4,0.2-0.5l0.1,0.1C55.1,50,55.1,50.2,55,50.3z M55.5,49.3l-0.1-0.1c0.1-0.1,0.1-0.4,0.2-0.5l0.1,0.1
					C55.6,49,55.5,49.2,55.5,49.3z M55.9,48.4l-0.1-0.1c0.1-0.1,0.1-0.4,0.2-0.5h0.1C56,48,56,48.1,55.9,48.4z M56.2,47.3h-0.1
					c0-0.1,0.1-0.4,0.1-0.5h0.1C56.4,47,56.4,47.1,56.2,47.3z M56.6,46.3h-0.1c0-0.1,0.1-0.4,0.1-0.5h0.1
					C56.6,45.9,56.6,46,56.6,46.3z M56.9,45.2h-0.1c0-0.1,0.1-0.4,0.1-0.5H57C57,44.8,56.9,45,56.9,45.2z M57.1,44.2H57
					c0-0.1,0.1-0.4,0.1-0.5h0.1C57.1,43.8,57.1,43.9,57.1,44.2z M57.2,43.1h-0.1c0-0.1,0-0.4,0.1-0.5h0.1
					C57.3,42.7,57.2,42.8,57.2,43.1z"/>
			</g>
			<g>
				<path class="st3" d="M57.3,42h-0.1c0-0.1,0-0.1,0-0.2h0.1C57.5,41.8,57.3,42,57.3,42z"/>
			</g>
		</g>
		<g id="XMLID_5054_">
			<rect x="54.8" y="51.1" transform="matrix(0.5932 -0.805 0.805 0.5932 -19.0071 65.006)" class="st3" width="0.1" height="0.5"/>
		</g>
	</g>
	<g id="XMLID_5052_">
		<path class="st1" d="M32.3,22.4c0,0,5.3-0.4,6.9,0.4c1.6,0.7,2.5,2.2,3.1,4.1c0.4,1.1,0.5,1.1,1,1.8c0,0-0.9-3.1-1.2-3.8
			C41.6,24.1,40.9,20.9,32.3,22.4z"/>
	</g>
	<g id="XMLID_5051_">
		<path class="st1" d="M31.9,22.5c0,0-1.2,0.5-1,2.8c0.2,2.5,2.2,7,5.8,11.9C36.7,37.3,31.1,29.3,31.9,22.5z"/>
	</g>
	<g id="XMLID_5050_">
		<path class="st3" d="M36.2,40.7l-0.5-0.2l0.1-0.1l0.5,0.2L36.2,40.7z M35.2,40.2L34.7,40l0.1-0.1l0.5,0.2L35.2,40.2z M34.2,39.9
			l-0.5-0.2l0.1-0.1l0.5,0.2L34.2,39.9z M33.2,39.5l-0.5-0.2l0.1-0.1l0.5,0.2L33.2,39.5z M32.3,39l-0.5-0.2l0.1-0.1l0.5,0.2L32.3,39
			z M31.3,38.6l-0.5-0.2l0.1-0.1l0.5,0.2L31.3,38.6z M24,38.6v-0.2l0.5-0.2l0.1,0.1L24,38.6z M30.3,38.3L29.8,38l0.1-0.1l0.5,0.2
			L30.3,38.3z M25,38.1L24.9,38l0.5-0.2l0.1,0.1L25,38.1z M29.3,37.9l-0.5-0.2l0.1-0.1l0.5,0.2L29.3,37.9z M26,37.7l-0.1-0.1
			l0.5-0.2l0.1,0.1L26,37.7z M28.3,37.4l-0.5-0.2l0.1-0.1l0.5,0.2L28.3,37.4z M26.8,37l-0.1-0.1l0.2-0.1l0.2,0.1L27.1,37L27,36.9
			L26.8,37z"/>
	</g>
	<g id="XMLID_5049_">
		<path class="st3" d="M27,36.9v-0.5h0.1v0.5H27z M27,35.8v-0.5h0.1v0.5H27z M26.8,34.7v-0.5H27v0.5H26.8z M26.8,33.7v-0.5H27v0.5
			H26.8z M26.7,32.6v-0.5h0.1v0.5H26.7z"/>
	</g>
</g>
</svg>
