<?xml version="1.0" encoding="utf-8"?>
<!-- Generator: Adobe Illustrator 21.0.0, SVG Export Plug-In . SVG Version: 6.00 Build 0)  -->
<svg version="1.1" id="Layer_1" xmlns="http://www.w3.org/2000/svg" xmlns:xlink="http://www.w3.org/1999/xlink" x="0px" y="0px"
	 viewBox="0 0 80 80" style="enable-background:new 0 0 80 80;" xml:space="preserve">
<style type="text/css">
	.st0{fill:#995827;}
	.st1{fill:#B2662F;}
	.st2{fill:#E8E7E7;}
	.st3{fill:#EFEFEF;}
	.st4{fill:#BDD3CF;}
	.st5{fill:#FFFFFF;}
	.st6{fill:#A3B6B3;}
	.st7{fill:#AC692D;}
	.st8{fill:#73401C;}
	.st9{opacity:0.2;fill:#A3B6B3;}
	.st10{fill:#A75535;}
	.st11{fill:#893E25;}
	.st12{opacity:0.2;}
</style>
<g id="XMLID_35764_">
	<g id="XMLID_35853_">
		<g id="XMLID_35888_">
			<g id="XMLID_35889_">
				<path id="XMLID_35896_" class="st0" d="M76.8,37.7c0-0.2-0.1-0.3-0.3-0.4l0,0c-0.2-0.1-0.6-0.2-0.8-0.1l0,0
					c-0.4,0.1-0.6,0.3-0.6,0.5c0,0.2,0,1.9,0,2c0,0.2,0.1,0.3,0.3,0.4l0,0c0.2,0.1,0.6,0.2,0.8,0.1l0,0c0.4-0.1,0.6-0.3,0.6-0.5
					C76.8,39.6,76.8,37.9,76.8,37.7z"/>
				<path id="XMLID_35894_" class="st0" d="M76.9,39.4L76.9,39.4c0.9,0.5,0.6,1.5-0.5,1.8l0,0c-0.5,0.1-1.1,0-1.5-0.2h0
					c-0.9-0.5-0.6-1.5,0.5-1.8l0,0C75.9,39.1,76.5,39.2,76.9,39.4z"/>
				<path id="XMLID_35893_" class="st1" d="M75,39.7c-0.7,0.4-0.5,1.2,0.4,1.4h0c0.4,0.1,0.9,0,1.2-0.2l0,0c0.4-0.2-0.9-0.1-1.1-0.6
					C75.5,39.8,75,39.7,75,39.7z"/>
			</g>
		</g>
		<g id="XMLID_35858_">
			<polygon id="XMLID_35887_" class="st2" points="77.5,37.4 56,25 23.2,43.9 44.7,56.3 			"/>
			<path id="XMLID_35886_" class="st3" d="M49.8,21.7c0,0-4.8,2-7.5,3.5c-5.1,2.8-7.5,4.5-10,6.8c-0.8,0.8-1.4,1.7-1.4,2.8v4.6
				l16,9.7l0.5-0.3c-0.3-2.9-0.1-5.8-0.1-5.8c0.1-1,0.6-1.8,1-2.2c1.9-1.6,5.6-4.1,10.5-6.8c3.8-2.1,5.8-2.6,7.4-3.2
				c1.1-0.4,1.3,0.3,1.3,0.3c0-0.7-0.2-1.1-0.7-1.4L54,22.1C52.6,21.3,51.7,21,49.8,21.7z"/>
			<g id="XMLID_35878_">
				<path id="XMLID_35884_" class="st4" d="M71.7,24.5L51.4,12.7L51,11.6c-0.7,0.7-0.8,1.2-0.8,1.7c0,0.5,0,13.3,0,13.3L71.7,39
					V24.5z"/>
				<path id="XMLID_35883_" class="st5" d="M53.1,9.9c-1.2,0.8-2.3,1.7-2.3,1.8c-0.1,0.2,0,0.6,0.2,0.8l20.7,11.9l5.8-3.4l-20.8-12
					C56.5,9,56.3,8.9,56,8.9C55.8,8.9,54.4,9.2,53.1,9.9z"/>
				<path id="XMLID_41623_" class="st3" d="M56,8.9"/>
				<path id="XMLID_41618_" class="st3" d="M50.8,11.8c-0.1,0.2,0,0.6,0.2,0.8l20.7,11.9l5.8-3.4"/>
				<path id="XMLID_35879_" class="st6" d="M71.7,39V24.5c0-0.2,1.5-1.5,2.9-2.3c1.5-0.8,2.9-1.2,2.9-1.1v14.5L71.7,39z"/>
			</g>
			<g id="XMLID_35874_">
				<g id="XMLID_35875_">
					<polygon id="XMLID_35877_" class="st7" points="23.2,43.9 44.7,56.3 44.7,54.6 23.2,42.2 					"/>
				</g>
			</g>
			<polygon id="XMLID_35870_" class="st8" points="77.5,37.4 77.5,35.7 44.7,54.6 44.7,56.3 			"/>
			<g id="XMLID_35863_">
				<g id="XMLID_35865_">
					<g id="XMLID_35868_">
						<polygon id="XMLID_35869_" class="st2" points="50.6,47.1 42.4,44.4 44.9,28.7 50.8,31.8 						"/>
					</g>
					<path id="XMLID_35867_" class="st6" d="M71.7,24.5c-0.1-2-0.6-3.6-0.6-3.6c0-0.2-0.1-1.2-0.9-1.2c-2,0.1-6.9,2.3-9.9,4
						c-3.8,2.1-8.2,6.6-9.4,7.9c-0.1,0.1-0.1,0.3-0.1,0.3c-0.6,3.5-0.6,14.1-0.5,15.7c0.1,1.9,0.2,3.8,0.2,3.8L71.7,39
						C71.7,39,71.7,25.1,71.7,24.5z"/>
					<path id="XMLID_41615_" class="st9" d="M71.7,24.5c-0.1-2-0.6-3.6-0.6-3.6c0-0.2-0.1-1.2-0.9-1.2c-2,0.1-6.9,2.3-9.9,4
						c-3.8,2.1-8.2,6.6-9.4,7.9c-0.1,0.1-0.1,0.3-0.1,0.3c-0.6,3.5-0.6,14.1-0.5,15.7c0.1,1.9,0.2,3.8,0.2,3.8"/>
					<path id="XMLID_35866_" class="st5" d="M71.1,20.7c0-0.7-0.9-2.4-3-3.7c-0.7-0.4-1.4-0.6-1.9-0.7c-1.4-0.3-5.6,1.3-11.3,4.3
						c-6.6,3.5-9.8,6.4-9.8,8s5.5,3.5,5.8,3.1c1.6-1.8,3.9-4,10-7.5c4-2.3,9-4,9.6-4.1C70.9,20.1,71.1,20.7,71.1,20.7z"/>
					<path id="XMLID_41621_" class="st3" d="M44.9,28.7c0,1.6,5.5,3.5,5.8,3.1c1.6-1.8,3.9-4,10-7.5c4-2.3,9-4,9.6-4.1
						c0.5-0.1,0.7,0.5,0.7,0.5c0-0.7-0.9-2.4-3-3.7c-0.7-0.4-1.4-0.6-1.9-0.7"/>
				</g>
			</g>
		</g>
	</g>
	<g id="XMLID_35765_">
		<g id="XMLID_35827_">
			<g id="XMLID_35841_">
				<path id="XMLID_35852_" class="st0" d="M24.8,67.5c0-0.2-0.1-0.3-0.3-0.4l0,0c-0.2-0.1-0.6-0.2-0.8-0.1l0,0
					c-0.4,0.1-0.6,0.3-0.6,0.5c0,0.2,0,1.9,0,2c0,0.2,0.1,0.3,0.3,0.4l0,0c0.2,0.1,0.6,0.2,0.8,0.1l0,0c0.4-0.1,0.6-0.3,0.6-0.5
					C24.8,69.4,24.8,67.7,24.8,67.5z"/>
				<path id="XMLID_35847_" class="st0" d="M24.9,69.2L24.9,69.2c0.9,0.5,0.6,1.5-0.5,1.8l0,0c-0.5,0.1-1.1,0-1.5-0.2l0,0
					c-0.9-0.5-0.6-1.5,0.5-1.8l0,0C23.9,68.9,24.5,69,24.9,69.2z"/>
				<path id="XMLID_35842_" class="st1" d="M23.1,69.5c-0.7,0.4-0.5,1.2,0.4,1.4l0,0c0.4,0.1,0.9,0,1.2-0.2l0,0
					c0.4-0.2-0.9-0.1-1.1-0.6C23.5,69.6,23.1,69.5,23.1,69.5z"/>
			</g>
			<g id="XMLID_35828_">
				<path id="XMLID_35840_" class="st0" d="M4.9,56c0-0.2-0.1-0.3-0.3-0.4l0,0c-0.2-0.1-0.6-0.2-0.8-0.1l0,0
					c-0.4,0.1-0.6,0.3-0.6,0.5c0,0.2,0,1.9,0,2c0,0.2,0.1,0.3,0.3,0.4l0,0c0.2,0.1,0.6,0.2,0.8,0.1l0,0c0.4-0.1,0.6-0.3,0.6-0.5
					C4.9,57.9,4.9,56.2,4.9,56z"/>
				<path id="XMLID_35838_" class="st0" d="M5.1,57.8L5.1,57.8c0.9,0.5,0.6,1.5-0.5,1.8l0,0c-0.5,0.1-1.1,0-1.5-0.2h0
					c-0.9-0.5-0.6-1.5,0.5-1.8l0,0C4.1,57.4,4.6,57.5,5.1,57.8z"/>
				<path id="XMLID_35833_" class="st1" d="M3.2,58c-0.7,0.4-0.5,1.2,0.4,1.4h0c0.4,0.1,0.9,0,1.2-0.2l0,0c0.4-0.2-0.9-0.1-1.1-0.6
					C3.6,58.2,3.2,58,3.2,58z"/>
			</g>
		</g>
		<g id="XMLID_35766_">
			<path id="XMLID_35822_" class="st3" d="M29.1,33.6c0,0-4.8,2-7.5,3.5c-5.1,2.8-7.5,4.5-10,6.8c-0.8,0.8-1.4,1.7-1.4,2.8v4.6
				l16,9.7l0.5-0.3c-0.3-2.9-0.1-5.8-0.1-5.8c0.1-1,0.6-1.8,1-2.2c1.9-1.6,5.6-4.1,10.5-6.8c3.8-2.1,5.8-2.6,7.4-3.2
				c1.1-0.4,1.3,0.3,1.3,0.3c0-0.7-0.2-1.1-0.7-1.4L33.3,34C32,33.2,31,33,29.1,33.6z"/>
			<g id="XMLID_35815_">
				<path id="XMLID_35817_" class="st10" d="M16.2,50.6c0.4,0.4,2.2-2.4,3.4-5.9c0.4-1.1,1.2-2.4,1.5-3.8c0.3-1.4-0.6-2.8-0.6-2.8
					C20.5,38,20.1,38,20,38.3c0,0-1.1,4.1-2,6.7C17,47.7,16.1,50.5,16.2,50.6z"/>
				<path id="XMLID_35816_" class="st11" d="M29.5,51.7c0,0.2-0.3,0.4-0.6,0.4c-1-0.2-4.7-0.8-6.2-0.8c-2.4,0-5-0.3-6.1-0.3
					c-0.3,0-0.5-0.1-0.4-0.4c0.2-1.2,2.2-3.1,3.2-5.9c0.4-1,0.6-3.1,0.7-3.9c0.3-1.3,0.1-1.9,0.1-2.5c0-0.2,0.3-0.3,0.5-0.2
					c1,0.6,3.4,1.5,5.1,2c1.1,0.3,3,0.4,3.5,0.5c1.1,0.1,1.9,0.5,2.4,1c0.3,0.3,0,1-0.1,1.2c-0.4,0.7-1,2-1.5,4.3
					C29.6,49.2,29.6,50.9,29.5,51.7z"/>
			</g>
			<g id="XMLID_35803_">
				<g id="XMLID_35808_">
					<polygon id="XMLID_35813_" class="st7" points="2.5,55.9 24,68.3 24,66.6 2.5,54.2 					"/>
				</g>
			</g>
			<polygon id="XMLID_35802_" class="st8" points="56.8,49.3 56.8,47.6 24,66.6 24,68.3 			"/>
			<g id="XMLID_35788_">
				<g id="XMLID_35789_">
					<g id="XMLID_35792_">
						<polygon id="XMLID_35797_" class="st4" points="29.9,59.1 21.7,56.3 24.3,40.6 30.1,43.7 						"/>
					</g>
					<g id="XMLID_41611_" class="st12">
						<polyline id="XMLID_41617_" class="st6" points="30.1,43.7 29.9,59.1 21.7,56.3 						"/>
					</g>
					<path id="XMLID_35791_" class="st6" d="M51,36.4c-0.1-2-0.6-3.6-0.6-3.6c0-0.2-0.1-1.2-0.9-1.2c-2,0.1-6.9,2.3-9.9,4
						c-3.8,2.1-8.2,6.6-9.4,7.9c-0.1,0.1-0.1,0.3-0.1,0.3c-0.6,3.5-0.6,14.1-0.5,15.7c0.1,1.9,0.2,3.8,0.2,3.8L51,50.9
						C51,50.9,51.1,37,51,36.4z"/>
					<path id="XMLID_41614_" class="st9" d="M51,36.4c-0.1-2-0.6-3.6-0.6-3.6c0-0.2-0.1-1.2-0.9-1.2c-2,0.1-6.9,2.3-9.9,4
						c-3.8,2.1-8.2,6.6-9.4,7.9c-0.1,0.1-0.1,0.3-0.1,0.3c-0.6,3.5-0.6,14.1-0.5,15.7c0.1,1.9,0.2,3.8,0.2,3.8"/>
					<path id="XMLID_35790_" class="st5" d="M50.4,32.7c0-0.7-0.9-2.4-3-3.7c-0.7-0.4-1.4-0.6-1.9-0.7c-1.4-0.3-5.6,1.3-11.3,4.3
						c-6.6,3.5-9.8,6.4-9.8,8c0,1.6,5.5,3.5,5.8,3.1c1.6-1.8,3.9-4,10-7.5c4-2.3,9-4,9.6-4.1C50.2,32,50.4,32.7,50.4,32.7z"/>
					<path id="XMLID_41620_" class="st3" d="M24.3,40.6c0,1.6,5.5,3.5,5.8,3.1c1.6-1.8,3.9-4,10-7.5c4-2.3,9-4,9.6-4.1
						c0.5-0.1,0.7,0.5,0.7,0.5c0-0.7-0.9-2.4-3-3.7c-0.7-0.4-1.4-0.6-1.9-0.7"/>
				</g>
			</g>
			<g id="XMLID_35771_">
				<path id="XMLID_35782_" class="st4" d="M24,52L3.7,40.3l-0.4-1.2c-0.7,0.7-0.8,1.2-0.8,1.7c0,0.5,0,13.3,0,13.3L24,66.6L24,52z"
					/>
				<path id="XMLID_35777_" class="st5" d="M5.4,37.5c-1.2,0.8-2.3,1.7-2.3,1.8c-0.1,0.2,0,0.6,0.2,0.8L24,52l5.8-3.4L9,36.6
					c-0.2-0.1-0.5-0.2-0.7-0.2C8.1,36.5,6.7,36.7,5.4,37.5z"/>
				<path id="XMLID_41625_" class="st3" d="M8.3,36.5"/>
				<path id="XMLID_41622_" class="st3" d="M3.1,39.3c-0.1,0.2,0,0.6,0.2,0.8L24,52l5.8-3.4"/>
				<path id="XMLID_35776_" class="st6" d="M24,66.6L24,52c0-0.2,1.5-1.5,2.9-2.3c1.5-0.8,2.9-1.2,2.9-1.1l0,14.5L24,66.6z"/>
				<path id="XMLID_41613_" class="st9" d="M24,66.6L24,52c0-0.2,1.5-1.5,2.9-2.3c1.5-0.8,2.9-1.2,2.9-1.1"/>
			</g>
		</g>
	</g>
</g>
</svg>
