<?xml version="1.0" encoding="utf-8"?>
<!-- Generator: Adobe Illustrator 21.0.0, SVG Export Plug-In . SVG Version: 6.00 Build 0)  -->
<svg version="1.1" id="Layer_1" xmlns="http://www.w3.org/2000/svg" xmlns:xlink="http://www.w3.org/1999/xlink" x="0px" y="0px"
	 viewBox="0 0 80 80" style="enable-background:new 0 0 80 80;" xml:space="preserve">
<style type="text/css">
	.st0{fill:#989495;}
	.st1{fill:#565152;}
	.st2{fill:#9B2569;}
	.st3{opacity:0.1;fill:#530E35;enable-background:new    ;}
	.st4{fill:#600F3A;}
	.st5{fill:#530E35;}
	.st6{fill:#7F1A51;}
</style>
<g id="XMLID_36655_">
	<g id="XMLID_36662_">
		<g id="XMLID_36675_">
			<polygon id="XMLID_36677_" class="st0" points="16.2,52.7 16.2,57.2 18.3,58.4 18.3,53.9 			"/>
			<polygon id="XMLID_36676_" class="st1" points="20.4,52.7 18.3,53.9 18.3,58.4 20.4,57.2 			"/>
		</g>
		<polygon id="XMLID_36671_" class="st0" points="16.2,51 16.2,52.7 38.3,65.5 38.3,63.8 		"/>
		<g id="XMLID_36667_">
			<polygon id="XMLID_36670_" class="st0" points="56.3,52.7 56.3,57.2 58.3,58.4 58.3,53.9 			"/>
			<polygon id="XMLID_36669_" class="st1" points="60.4,52.7 58.3,53.9 58.3,58.4 60.4,57.2 			"/>
		</g>
		<polygon id="XMLID_36666_" class="st1" points="60.4,51 38.3,63.8 38.3,65.5 60.4,52.7 		"/>
		<g id="XMLID_36663_">
			<polygon id="XMLID_36665_" class="st0" points="36.2,64.3 36.2,68.8 38.3,70 38.3,65.5 			"/>
			<polygon id="XMLID_36664_" class="st1" points="40.4,64.3 38.3,65.5 38.3,70 40.4,68.8 			"/>
		</g>
	</g>
	<path id="XMLID_36658_" class="st2" d="M63.8,24.3c-0.4-0.3-0.9-0.6-1.1-0.7c-1.5-0.9-3,0.5-3,2.2l-0.3,11l-14.2-8.1
		c-1.9-1.1-4.5-1.1-6.3,0c-0.1,0.1-22.7,13.3-23,13.5c-0.6,0.4-1,0.9-1.4,1.6c-1.2,2.3-0.6,5.9,2,7.4l21.4,12.4
		c0.9,0.5,1.8,0.4,2.6,0c0.7-0.5,22.1-12.9,22.8-13.4c0.7-0.4,1.2-1.2,1.2-2.1V26C64.5,25.3,64.2,24.6,63.8,24.3z"/>
	<path class="st3" d="M63.8,24.3c-0.4-0.3-0.9-0.6-1.1-0.7c-1.5-0.9-3,0.5-3,2.2l-0.3,11l-14.2-8.1c-1.9-1.1-4.5-1.1-6.3,0
		c0,0-1,0.6-2.6,1.5v32.2l1.7,1c0.9,0.5,1.8,0.4,2.6,0c0.6-0.3,22-12.7,22.7-13.2c0.7-0.4,1.2-1.2,1.2-2.1V26
		C64.5,25.3,64.2,24.6,63.8,24.3z"/>
	<path id="XMLID_36657_" class="st4" d="M63.8,24.3c-0.4-0.3-0.9-0.6-1.1-0.7c-0.7-0.4-1.3-0.3-1.9,0c-0.7,0.4-23,13.5-23,13.5
		l0.1,26.4c0.9,0.5,1.8,0.4,2.6,0c0.7-0.4,22.1-12.8,22.8-13.3c0.7-0.4,1.2-1.2,1.2-2.1V26C64.5,25.3,64.2,24.6,63.8,24.3z"/>
	<path id="XMLID_42178_" class="st5" d="M64.5,26c0-0.7-0.3-1.4-0.7-1.6c-0.4-0.3-0.9-0.6-1.1-0.7c-0.7-0.4-1.3-0.3-1.9,0
		c-0.7,0.4-23,13.5-23,13.5l0.1,26.4c0.9,0.5,1.8,0.4,2.6,0"/>
	<path id="XMLID_36656_" class="st6" d="M41,37.6c-0.4-0.3-0.9-0.6-1.1-0.7c-1.5-0.9-3,0.5-3,2.2v17c0,0.3-0.3,0.5-0.6,0.3
		l-17.4-9.7l-1.2,0.9l1-1.4l0.3-1.8l0.3,1.8L36.4,56c0.1,0.1,0.3,0,0.3-0.2v-5c0-0.4-0.2-0.8-0.6-1.1L22.5,42
		c-2.7-1.5-6.4-1-7.9,1.7c-1.2,2.3-0.6,5.9,2,7.4L38,63.5c1.7,1,3.8-0.2,3.8-2.2v-22C41.8,38.6,41.4,37.9,41,37.6z"/>
</g>
</svg>
