<?xml version="1.0" encoding="utf-8"?>
<!-- Generator: Adobe Illustrator 21.0.0, SVG Export Plug-In . SVG Version: 6.00 Build 0)  -->
<svg version="1.1" id="Layer_1" xmlns="http://www.w3.org/2000/svg" xmlns:xlink="http://www.w3.org/1999/xlink" x="0px" y="0px"
	 viewBox="0 0 80 80" style="enable-background:new 0 0 80 80;" xml:space="preserve">
<style type="text/css">
	.st0{fill:#989495;}
	.st1{fill:#565152;}
	.st2{fill:#9B2569;}
	.st3{opacity:0.1;fill:#530E35;}
	.st4{fill:#600F3A;}
	.st5{fill:#530E35;}
	.st6{fill:#7F1A51;}
</style>
<g id="XMLID_35066_">
	<g id="XMLID_35070_">
		<g id="XMLID_35079_">
			<polygon id="XMLID_35081_" class="st0" points="75.4,53.2 75.4,57.8 73.3,59 73.3,54.4 			"/>
			<polygon id="XMLID_35080_" class="st1" points="71.2,53.2 73.3,54.4 73.3,59 71.2,57.8 			"/>
		</g>
		<polygon id="XMLID_35078_" class="st0" points="75.4,51.5 75.4,53.2 53.1,66.1 53.1,64.4 		"/>
		<g id="XMLID_35075_">
			<polygon id="XMLID_35077_" class="st0" points="10.6,38.9 10.6,43.5 8.5,44.7 8.5,40.1 			"/>
			<polygon id="XMLID_35076_" class="st1" points="6.4,38.9 8.5,40.1 8.5,44.7 6.4,43.5 			"/>
		</g>
		<polygon id="XMLID_35074_" class="st1" points="6.4,37.2 53.1,64.4 53.1,66.1 6.4,38.9 		"/>
		<g id="XMLID_35071_">
			<polygon id="XMLID_35073_" class="st0" points="55.2,64.9 55.2,69.5 53.1,70.7 53.1,66.1 			"/>
			<polygon id="XMLID_35072_" class="st1" points="51,64.9 53.1,66.1 53.1,70.7 51,69.5 			"/>
		</g>
	</g>
	<path id="XMLID_35069_" class="st2" d="M3,10.3C3.4,10,3.9,9.7,4.1,9.6c1.5-0.9,3,0.5,3,2.2l0.3,11.1l14.3-8.2c2-1.1,4.5-1.1,6.3,0
		c0.1,0.1,47.3,27.7,47.6,27.9c0.6,0.4,1.1,0.9,1.4,1.6c1.3,2.3,0.6,5.9-2,7.4L53.5,64.1c-0.9,0.5-1.8,0.4-2.6,0
		C50.2,63.7,4.2,36.8,3.5,36.3c-0.7-0.4-1.2-1.2-1.2-2.2V12C2.3,11.3,2.6,10.6,3,10.3z"/>
	<path class="st3" d="M3,10.3C3.4,10,3.9,9.7,4.1,9.6c1.5-0.9,3,0.5,3,2.2l0.3,11.1l14.3-8.2c2-1.1,4.5-1.1,6.3,0
		c0.1,0,13.5,7.9,26,15.2v33.8l-0.7,0.4c-0.9,0.5-1.8,0.4-2.6,0C50.2,63.7,4.2,36.8,3.5,36.3c-0.7-0.4-1.2-1.2-1.2-2.2V12
		C2.3,11.3,2.6,10.6,3,10.3z"/>
	<path id="XMLID_35068_" class="st4" d="M3,10.3C3.4,10,3.9,9.7,4.1,9.6c0.7-0.4,1.3-0.3,1.9,0C6.7,10,53.6,37.5,53.6,37.5
		l-0.1,26.7c-0.9,0.5-1.8,0.4-2.6,0C50.2,63.7,4.2,36.8,3.5,36.3c-0.7-0.4-1.2-1.2-1.2-2.2V12C2.3,11.3,2.6,10.6,3,10.3z"/>
	<path id="XMLID_42177_" class="st5" d="M2.3,12c0-0.7,0.3-1.4,0.7-1.7C3.4,10,3.9,9.7,4.1,9.6c0.7-0.4,1.3-0.3,1.9,0
		C6.7,10,53.6,37.5,53.6,37.5l-0.1,26.7c-0.9,0.5-1.8,0.4-2.6,0"/>
	<path id="XMLID_35067_" class="st6" d="M50.4,38c0.4-0.3,0.9-0.6,1.1-0.7c1.5-0.9,3,0.5,3,2.2l0,17.2c0,0.3,0.3,0.5,0.6,0.3
		l17.5-9.9l1.3,0.9l-1-1.4l-0.3-1.8l-0.3,1.8l-17.2,9.8c-0.1,0.1-0.3,0-0.3-0.2v-5c0-0.4,0.2-0.9,0.6-1.1l13.7-7.8
		c2.7-1.6,6.5-1,7.9,1.7c1.3,2.3,0.6,5.9-2,7.4L53.5,64.1c-1.7,1-3.9-0.2-3.9-2.2V39.7C49.6,39,50,38.3,50.4,38z"/>
</g>
</svg>
