<?xml version="1.0" encoding="utf-8"?>
<!-- Generator: Adobe Illustrator 21.0.0, SVG Export Plug-In . SVG Version: 6.00 Build 0)  -->
<svg version="1.1" id="Layer_1" xmlns="http://www.w3.org/2000/svg" xmlns:xlink="http://www.w3.org/1999/xlink" x="0px" y="0px"
	 viewBox="0 0 80 80" style="enable-background:new 0 0 80 80;" xml:space="preserve">
<style type="text/css">
	.st0{fill:#81A520;}
	.st1{fill:#BBC83C;}
	.st2{fill:#A1BA3A;}
	.st3{fill:none;}
	.st4{fill:#AABE38;}
</style>
<g id="XMLID_55791_">
	<g id="XMLID_55792_">
		<path class="st0" d="M21.7,35.6c0,0,32.6-0.1,34.5,1.4c7.1,5.4,6.4,27.2-23.8,21.5L21.7,35.6z"/>
	</g>
	<g id="XMLID_55797_">
		<g id="XMLID_55834_">
			<path class="st1" d="M32.1,58.4c-5-1.2-9.5-6-11-9.9c-1.1-3.1-1.5-7.6-0.1-11.8c0.7-2.2,3-3.5,3.4-4.5c1.6-4.2,2-6.4,5.8-8.3
				c2.2-1.1,6.4-0.3,7.2-0.1c2.7,0.4,6.5,2.6,8.3,6.4c0.8,1.5,2,2.7,4.9,4.2c1.4,0.7,3,0.4,5.4,2.7c1.5,1.4,2.6,5.4,2.7,7.2
				c0.3,3.9-1.8,8-5.8,11C47.6,59.2,37.7,59.8,32.1,58.4z"/>
		</g>
		<g>
			<path class="st2" d="M21.1,42c1.5,3.9,6,8.7,11,9.9c5.6,1.4,15.5,0.8,20.8-3.1c2.7-2,4.6-4.5,5.3-7.2c0.3,1,0.4,1.9,0.4,2.6
				c0.3,3.9-1.8,8-5.8,11c-5.4,3.9-15.3,4.5-20.8,3.1c-5-1.2-9.5-6-11-9.9c-1-2.4-1.4-5.8-0.7-9.2C20.6,40.2,20.9,41.1,21.1,42z"/>
		</g>
		<g id="XMLID_55805_">
			<g id="XMLID_55799_">
				<path class="st3" d="M33.8,40.6"/>
			</g>
		</g>
	</g>
	<g id="XMLID_55798_">
		<path class="st2" d="M45.7,30.1c0,0,3,13.6-5.8,29.1C39.9,59.2,51,45.5,45.7,30.1z"/>
	</g>
	<g id="XMLID_55810_">
		<path class="st4" d="M41.2,55.8v-0.1l0.5,0.1V56L41.2,55.8z M40.2,55.5v-0.1l0.5,0.1v0.1L40.2,55.5z M42.3,55.4l0.5-0.4l0.1,0.1
			l-0.5,0.4L42.3,55.4z M38.9,55.4v-0.1l0.5,0.1v0.1L38.9,55.4z M37.7,55.3v-0.1l0.5,0.1v0.1L37.7,55.3z M36.5,55v-0.1L37,55v0.1
			L36.5,55z M35.3,54.9v-0.1l0.5,0.1V55L35.3,54.9z M43.4,54.7l0.5-0.4l0.1,0.1l-0.5,0.4L43.4,54.7z M34.2,54.7v-0.1l0.5,0.1v0.1
			L34.2,54.7z M33,54.6v-0.1l0.5,0.1v0.1L33,54.6z M31.7,54.3v-0.1l0.5,0.1v0.1L31.7,54.3z M30.5,54.2v-0.1l0.5,0.1v0.1L30.5,54.2z
			 M44.4,54.1l0.5-0.4l0.1,0.1l-0.5,0.4L44.4,54.1z M29.4,54.1v-0.1l0.5,0.1v0.1L29.4,54.1z M28.2,53.8v-0.1l0.5,0.1v0.1L28.2,53.8z
			 M27,53.6v-0.1l0.5,0.1v0.1L27,53.6z M25.8,53.5v-0.1l0.5,0.1v0.1L25.8,53.5z M45.3,53.4l0.5-0.4l0.1,0.1l-0.5,0.4L45.3,53.4z
			 M25.2,52.4h0.1l0.1,0.5h-0.1L25.2,52.4z M46.3,52.7l0.5-0.4l0.1,0.1l-0.5,0.4L46.3,52.7z M47.4,52l0.5-0.4l0.1,0.1l-0.5,0.4
			L47.4,52z M24.9,51.2h0.1l0.1,0.5h-0.1L24.9,51.2z M48.3,51.3l0.5-0.4l0.1,0.1l-0.5,0.4L48.3,51.3z M49.3,50.7l0.5-0.4l0.1,0.1
			l-0.5,0.4L49.3,50.7z M24.5,50.1h0.1l0.1,0.5h-0.1L24.5,50.1z M50.3,50l0.5-0.4l0.1,0.1l-0.5,0.4L50.3,50z M24.1,48.9h0.1l0.1,0.5
			h-0.1L24.1,48.9z M51.3,49.3l0.5-0.4L52,49l-0.5,0.4L51.3,49.3z M52.2,48.6l0.5-0.4l0.1,0.1l-0.5,0.4L52.2,48.6z M23.9,47.8H24
			l0.1,0.5H24L23.9,47.8z M53.3,47.8l0.5-0.4l0.1,0.1l-0.5,0.4L53.3,47.8z M54.3,47.1l0.5-0.4l0.1,0.1l-0.5,0.4L54.3,47.1z
			 M23.5,46.6h0.1l0.1,0.5h-0.1L23.5,46.6z M55.2,46.4l0.5-0.4l0.1,0.1l-0.5,0.4L55.2,46.4z M23,45.5h0.1l0.1,0.5h-0.1L23,45.5z
			 M56.3,45.8l0.5-0.4l0.1,0.1l-0.5,0.4L56.3,45.8z M57.3,45.1l0.5-0.4l0.1,0.1l-0.5,0.4L57.3,45.1z M22.8,44.3h0.1l0.1,0.5h-0.1
			L22.8,44.3z M58.2,44.4l0.5-0.4l0.1,0.1l-0.5,0.4L58.2,44.4z M22.4,43.2h0.1l0.1,0.5h-0.1L22.4,43.2z M22,42h0.1l0.1,0.5h-0.1
			L22,42z M21.7,40.9h0.1l0.1,0.5h-0.1L21.7,40.9z M21.3,39.7h0.1l0.1,0.5h-0.1L21.3,39.7z M20.9,38.6H21l0.1,0.5H21L20.9,38.6z"/>
	</g>
	<g id="XMLID_55811_">
		<path class="st4" d="M43.7,58l0.1-0.1l0.4,0.4l-0.1,0.1L43.7,58z M42.9,57.2L43,57l0.4,0.4l-0.1,0.1L42.9,57.2z M41.9,56.4
			l0.1-0.1l0.4,0.4l-0.1,0.1L41.9,56.4z"/>
	</g>
	<g id="XMLID_55804_">
		<path class="st2" d="M24.4,32.2c0,0-4.9,11.4,3.4,24.3C27.9,56.5,17.6,46.6,24.4,32.2z"/>
	</g>
	<g id="XMLID_55813_">
		<path class="st4" d="M41.8,55.1h0.1v0.5h-0.1V55.1z M41.8,53.9h0.1v0.5h-0.1V53.9z M25.1,53.6l0.3-0.3l0.1,0.1l-0.3,0.3L25.1,53.6
			z M41.7,52.8h0.1v0.5h-0.1V52.8z M25.6,52.4h0.1V53h-0.1V52.4z M41.5,51.6h0.1v0.5h-0.1V51.6z M25.6,51.2h0.1v0.5h-0.1V51.2z
			 M41.5,50.4h0.1v0.5h-0.1V50.4z M25.6,50h0.1v0.5h-0.1V50z M41.4,49.2h0.1v0.5h-0.1V49.2z M25.6,48.8h0.1v0.5h-0.1V48.8z
			 M41.4,47.9h0.1v0.5h-0.1V47.9z M25.6,47.5h0.1v0.5h-0.1V47.5z M41.2,46.7h0.1v0.5h-0.1V46.7z M25.6,46.3h0.1v0.5h-0.1V46.3z
			 M41.2,45.5h0.1V46h-0.1V45.5z M25.6,45.1h0.1v0.5h-0.1V45.1z M41.1,44.3h0.1v0.5h-0.1V44.3z M25.6,43.9h0.1v0.5h-0.1V43.9z
			 M41.1,43.2h0.1v0.5h-0.1V43.2z M25.6,42.8h0.1v0.5h-0.1V42.8z M41,42h0.1v0.5H41V42z M25.6,41.6h0.1v0.5h-0.1V41.6z M41,40.7h0.1
			v0.5H41V40.7z M25.6,40.3h0.1v0.5h-0.1V40.3z M40.8,39.9h-0.3v-0.1l0.4,0.1v0.4h-0.1V39.9z M39.5,39.7v-0.1H40v0.1H39.5z
			 M25.6,39.1h0.1v0.5h-0.1V39.1z M38.3,39.4v-0.1l0.5,0.1v0.1L38.3,39.4z M37,39.2v-0.1l0.5,0.1v0.1L37,39.2z M35.8,39v-0.1
			l0.5,0.1v0.1L35.8,39z M34.7,38.7v-0.1l0.5,0.1v0.1L34.7,38.7z M33.5,38.4v-0.1l0.5,0.1v0.1L33.5,38.4z M25.6,37.9h0.1v0.5h-0.1
			V37.9z M32.3,38.3v-0.1l0.5,0.1v0.1L32.3,38.3z M31.2,38v-0.1l0.5,0.1v0.1L31.2,38z M30,37.8v-0.1l0.5,0.1v0.1L30,37.8z
			 M28.8,37.6v-0.1l0.5,0.1v0.1L28.8,37.6z M27.5,37.3v-0.1l0.5,0.1v0.1L27.5,37.3z M25.6,36.8h0.3v0.1l0,0v0.3h-0.1v-0.4H25.6z
			 M26.4,37.1v-0.1l0.5,0.1v0.1L26.4,37.1z"/>
	</g>
	<g id="XMLID_55812_">
		<path class="st4" d="M40.8,39.8l0.3-0.5l0.1,0.1L41,39.9L40.8,39.8z M41.4,38.7l0.3-0.5l0.1,0.1l-0.3,0.5L41.4,38.7z M42.1,37.6
			l0.3-0.5l0.1,0.1l-0.3,0.5L42.1,37.6z M42.6,36.7l0.3-0.5l0.1,0.1l-0.3,0.4H42.6z M43.1,35.6l0.3-0.5l0.1,0.1l-0.3,0.5L43.1,35.6z
			 M43.7,34.5L44,34l0.1,0.1l-0.3,0.5L43.7,34.5z M44.4,33.4l0.3-0.5l0.1,0.1l-0.3,0.5L44.4,33.4z M44.9,32.3l0.3-0.5l0.1,0.1
			L45,32.5L44.9,32.3z M45.5,31.2l0.3-0.4l0.1,0.1l-0.3,0.4L45.5,31.2z"/>
	</g>
	<g id="XMLID_55817_">
		<path class="st4" d="M25.4,36.3h0.1l0.1,0.5h-0.1L25.4,36.3z M24.9,35.2h0.1l0.1,0.5h-0.1L24.9,35.2z M24.7,34.1h0.1l0.1,0.5h-0.1
			L24.7,34.1z M24.3,32.9h0.1l0.1,0.5h-0.1L24.3,32.9z"/>
	</g>
</g>
</svg>
