<?xml version="1.0" encoding="utf-8"?>
<!-- Generator: Adobe Illustrator 21.0.0, SVG Export Plug-In . SVG Version: 6.00 Build 0)  -->
<svg version="1.1" id="Layer_1" xmlns="http://www.w3.org/2000/svg" xmlns:xlink="http://www.w3.org/1999/xlink" x="0px" y="0px"
	 viewBox="0 0 80 80" style="enable-background:new 0 0 80 80;" xml:space="preserve">
<style type="text/css">
	.st0{fill:#989495;}
	.st1{fill:#565152;}
	.st2{fill:#70696B;}
	.st3{fill:#8A1B51;}
	.st4{fill:#600F3A;}
	.st5{fill:#530E35;}
	.st6{fill:#9B2569;}
	.st7{opacity:0.1;fill:#530E35;}
	.st8{fill:#7F1A51;}
	.st9{fill:#DCD7CC;}
	.st10{fill:#DDD5C3;}
	.st11{fill:#E8E3D4;}
	.st12{fill:#D87FB3;}
	.st13{fill:#D3BB60;}
	.st14{fill:#CD8760;}
</style>
<g id="XMLID_35897_">
	<g id="XMLID_36259_">
		<g id="XMLID_36284_">
			<g id="XMLID_36308_">
				<polygon id="XMLID_36310_" class="st0" points="76.3,59.7 76.3,64.3 74.3,65.5 74.3,60.9 				"/>
				<polygon id="XMLID_36309_" class="st1" points="72.2,59.7 74.3,60.9 74.3,65.5 72.2,64.3 				"/>
			</g>
			<polygon id="XMLID_36307_" class="st0" points="76.3,58 76.3,59.7 54.3,72.5 54.3,70.8 			"/>
			<g id="XMLID_36295_">
				<polygon id="XMLID_36301_" class="st0" points="11.4,45.3 11.4,49.8 9.3,51 9.3,46.5 				"/>
				<polygon id="XMLID_36296_" class="st1" points="7.2,45.3 9.3,46.5 9.3,51 7.2,49.8 				"/>
			</g>
			<polygon id="XMLID_36290_" class="st1" points="7.2,43.6 54.3,70.8 54.3,72.5 7.2,45.3 			"/>
			<polygon id="XMLID_36285_" class="st2" points="29.3,30.9 76.3,58 54.3,70.8 7.2,43.6 			"/>
		</g>
		<g id="XMLID_36272_">
			<polygon id="XMLID_36283_" class="st0" points="56.4,71.3 56.4,75.8 54.3,77 54.3,72.5 			"/>
			<polygon id="XMLID_36277_" class="st1" points="52.2,71.3 54.3,72.5 54.3,77 52.2,75.8 			"/>
		</g>
		<polygon id="XMLID_36271_" class="st3" points="71.4,52.1 71.4,57 53,67.6 53,62.7 		"/>
		<path id="XMLID_36266_" class="st4" d="M29.8,3.1c-0.2-0.2-0.6-0.2-0.9,0L28,3.6c-0.2,0.1-0.3,0.2-0.4,0.3c-1.4,1-2.2,2.6-2.2,4.3
			v20.2l47,27.2l4.3-25.3L29.8,3.1z"/>
		<path id="XMLID_42182_" class="st5" d="M29.8,3.1c-0.2-0.2-0.6-0.2-0.9,0L28,3.6c-0.2,0.1-0.3,0.2-0.4,0.3c-1.4,1-2.2,2.6-2.2,4.3
			v20.2l47,27.2"/>
		<path id="XMLID_36261_" class="st6" d="M24.6,21.3c-0.2-0.1-0.5-0.1-0.7,0L7,31.1c-2.6,1.5-4.1,4.2-4.2,7.1c0,0,0,1,0,1
			c0,1.5,0.7,2.7,1.8,3.4l0,0l47.1,27.2c0,0-0.3-9.1,2.3-10.6l17.5-10.7C71.6,48.5,24.6,21.4,24.6,21.3z"/>
		<path class="st7" d="M25.3,54.5V21.8c6.1,3.5,46.2,26.7,46.2,26.7L54,59.2c-2.6,1.5-2.3,10.6-2.3,10.6L25.3,54.5z"/>
		<path id="XMLID_36260_" class="st8" d="M77.2,52.8V31c0-0.6-0.7-1-1.2-0.7l-1,0.6c-1.6,0.9-2.6,2.6-2.6,4.5v17.9
			c0,0.6-0.3,1.1-0.8,1.4l-16.8,9.7l-0.3,1.8l-0.3-1.8l-1-1.4l1.2,0.9l16.8-9.6c0.4-0.3,0.6-0.7,0.6-1.1v-4.1c0-0.5-0.6-0.8-1-0.6
			L54,58.3c-2.6,1.5-4.2,4.2-4.2,7.2v0.9c0,3.1,3.3,5,6,3.5l19.3-11.1c1.3-0.7,2.1-2.1,2.1-3.6L77.2,52.8L77.2,52.8z"/>
	</g>
	<g id="XMLID_36241_">
		<path id="XMLID_36257_" class="st9" d="M61.1,42c0,0,1.3-1.4,0.2-2c-1.1-0.6-1.5,1.8-1.3,1.7C60.5,41.5,61.1,42,61.1,42z"/>
		<path id="XMLID_36252_" class="st9" d="M61.2,43.5c0,0,0.4-0.7-0.1-1.3c0,0,2-0.8,2.1,0.5C63.3,43.3,62.9,43.9,61.2,43.5z"/>
		<path id="XMLID_36247_" class="st9" d="M59.8,41.7c0,0-0.7,0.3-0.9,1c0,0-1.7-0.8-0.9-1.7C57.9,41,58.5,40.2,59.8,41.7z"/>
		<path id="XMLID_36246_" class="st9" d="M58.9,42.9c0,0,0.1,0.7,0.7,1.1c0,0-1.1,1.4-1.8,0.5C57.7,44.5,57.1,43.7,58.9,42.9z"/>
	</g>
	<g id="XMLID_35898_">
		<g id="XMLID_36234_">
			<path id="XMLID_36236_" class="st10" d="M69.4,47.7c-0.6,0.4-1.4-3.7-1.1-8.5c0.1-1.6-0.2-3.4,0.1-5.2c0.3-1.9,2-3.4,2-3.4
				c0.2-0.1,0.6,0,0.6,0.5c0,0-0.7,5.5-0.9,9.1C69.8,43.8,69.6,47.6,69.4,47.7z"/>
			<path id="XMLID_36235_" class="st11" d="M53.6,45.4c-0.1,0.3,0.2,0.6,0.5,0.6c1.3,0,5.8,0.2,7.5,0.7c2.8,0.7,5.9,1,7.1,1.4
				c0.3,0.1,0.6,0,0.7-0.3c0.3-1.6-1-4.5-0.8-8.4c0.1-1.4,0.9-4.1,1.1-5.2c0.3-1.7,0.8-2.4,1.1-3.2c0.1-0.3-0.2-0.5-0.4-0.4
				c-1.5,0.5-4.6,1-6.8,1.1c-1.4,0.1-3.6-0.3-4.2-0.4c-1.4-0.2-2.5,0.1-3.3,0.6c-0.4,0.3-0.5,1.3-0.4,1.5c0.1,1,0.2,2.8-0.4,5.8
				C54.7,42.2,53.8,44.3,53.6,45.4z"/>
		</g>
		<g id="XMLID_35902_">
			<g id="XMLID_36219_">
				<path id="XMLID_36233_" class="st9" d="M66.4,39.7c0,0,1.7-0.5,1.1-1.5c-0.6-1-2,0.6-1.8,0.7C66.3,39.1,66.4,39.7,66.4,39.7z"/>
				<path id="XMLID_36230_" class="st9" d="M65.9,40.9c0,0,0.7-0.3,0.6-1c0,0,1.9,0.3,1.4,1.4C67.6,41.7,66.9,42,65.9,40.9z"/>
				<path id="XMLID_36226_" class="st9" d="M64.5,40.6c0,0,0.6,0.5,1.2,0.4c0,0,0,1.7-1.1,1.5C64.6,42.4,63.7,42.3,64.5,40.6z"/>
				<path id="XMLID_36225_" class="st9" d="M65.6,38.8c0,0-0.7-0.1-1.2,0.3c0,0-0.9-1.4,0.1-1.8C64.5,37.4,65.3,37,65.6,38.8z"/>
				<path id="XMLID_36223_" class="st9" d="M64.3,39.3c0,0-0.2,0.6,0,1.2c0,0-1.5,0.5-1.6-0.5C62.7,40,62.5,39.1,64.3,39.3z"/>
			</g>
			<g id="XMLID_36208_">
				<path id="XMLID_36218_" class="st9" d="M64.8,34.4c0,0,1.4-0.4,0.9-1.2c-0.5-0.8-1.7,0.5-1.5,0.6C64.6,33.9,64.8,34.4,64.8,34.4
					z"/>
				<path id="XMLID_36217_" class="st9" d="M64.3,35.4c0,0,0.5-0.3,0.4-0.8c0,0,1.6,0.2,1.1,1.2C65.7,36.1,65.2,36.3,64.3,35.4z"/>
				<path id="XMLID_36215_" class="st9" d="M63.2,35.1c0,0,0.5,0.4,1,0.3c0,0,0,1.4-0.9,1.2C63.3,36.7,62.6,36.5,63.2,35.1z"/>
				<path id="XMLID_36211_" class="st9" d="M64.1,33.7c0,0-0.6-0.1-1,0.3c0,0-0.7-1.1,0.1-1.4C63.2,32.6,63.9,32.3,64.1,33.7z"/>
				<path id="XMLID_36210_" class="st9" d="M63.1,34.1c0,0-0.2,0.5,0,1c0,0-1.3,0.4-1.3-0.4C61.7,34.7,61.6,34,63.1,34.1z"/>
			</g>
			<g id="XMLID_36191_">
				<path id="XMLID_36204_" class="st9" d="M57.9,37.2c0,0,1.4-0.4,0.9-1.2c-0.5-0.8-1.7,0.5-1.5,0.6C57.8,36.7,57.9,37.2,57.9,37.2
					z"/>
				<path id="XMLID_36203_" class="st9" d="M57.4,38.2c0,0,0.5-0.3,0.4-0.8c0,0,1.6,0.2,1.1,1.2C58.8,38.9,58.3,39.2,57.4,38.2z"/>
				<path id="XMLID_36202_" class="st9" d="M56.3,38c0,0,0.5,0.4,1,0.3c0,0,0,1.4-0.9,1.2C56.4,39.5,55.7,39.4,56.3,38z"/>
				<path id="XMLID_36201_" class="st9" d="M57.2,36.5c0,0-0.6-0.1-1,0.3c0,0-0.7-1.1,0.1-1.4C56.3,35.4,57,35.1,57.2,36.5z"/>
				<g id="XMLID_36193_">
					<path id="XMLID_36198_" class="st9" d="M60.9,44.5c0,0,0.8,1.4,0.3,2.1c-0.4-0.1-0.9-0.2-1.5-0.2c-0.2-0.3-0.3-0.8-0.4-1.5
						C59.3,44.9,60.2,45,60.9,44.5z"/>
					<path id="XMLID_36194_" class="st9" d="M56.2,36.9c0,0-0.2,0.5,0,1c0,0-0.4,0.1-0.8,0.1c0.1-0.4,0.1-0.7,0.1-1.1
						C55.7,36.9,55.9,36.9,56.2,36.9z"/>
				</g>
			</g>
			<g id="XMLID_36177_">
				<path id="XMLID_36187_" class="st12" d="M65.9,33.2c0,0,0.9-0.2,0.6-0.7c-0.3-0.5-1,0.3-0.9,0.3C65.8,32.9,65.9,33.2,65.9,33.2z
					"/>
				<path id="XMLID_36186_" class="st12" d="M65.6,33.8c0,0,0.3-0.2,0.3-0.5c0,0,1,0.1,0.7,0.7C66.5,34.2,66.2,34.4,65.6,33.8z"/>
				<path id="XMLID_36185_" class="st12" d="M65,33.7c0,0,0.3,0.2,0.6,0.2c0,0,0,0.9-0.5,0.7C65,34.6,64.6,34.5,65,33.7z"/>
				<path id="XMLID_36183_" class="st12" d="M65.5,32.8c0,0-0.3,0-0.6,0.2c0,0-0.5-0.7,0.1-0.9C64.9,32.1,65.4,31.9,65.5,32.8z"/>
				<path id="XMLID_36181_" class="st12" d="M64.9,33c0,0-0.1,0.3,0,0.6c0,0-0.8,0.3-0.8-0.3C64.1,33.4,64,32.9,64.9,33z"/>
			</g>
			<g id="XMLID_36166_">
				<path id="XMLID_36176_" class="st12" d="M61.9,34.6c0,0,0.4-0.7-0.1-0.8c-0.5-0.1-0.4,0.8-0.3,0.8
					C61.7,34.4,61.9,34.6,61.9,34.6z"/>
				<path id="XMLID_36174_" class="st12" d="M62.1,35.1c0,0,0.1-0.3-0.2-0.5c0,0,0.7-0.5,0.9,0C62.9,34.8,62.8,35.1,62.1,35.1z"/>
				<path id="XMLID_36170_" class="st12" d="M61.6,35.5c0,0,0.3,0,0.5-0.3c0,0,0.6,0.5,0.1,0.8C62.2,36,61.9,36.2,61.6,35.5z"/>
				<path id="XMLID_36169_" class="st12" d="M61.4,34.6c0,0-0.2,0.2-0.3,0.5c0,0-0.7-0.1-0.5-0.6C60.6,34.5,60.7,34.1,61.4,34.6z"/>
				<path id="XMLID_36168_" class="st12" d="M61.1,35.1c0,0,0.1,0.3,0.4,0.4c0,0-0.3,0.7-0.7,0.4C60.9,35.9,60.5,35.6,61.1,35.1z"/>
			</g>
			<g id="XMLID_36153_">
				<path id="XMLID_36162_" class="st12" d="M61.5,43.8c0,0,0.5-0.8-0.2-1c-0.6-0.2-0.5,1-0.4,1C61.2,43.6,61.5,43.8,61.5,43.8z"/>
				<path id="XMLID_36161_" class="st12" d="M61.8,44.5c0,0,0.1-0.4-0.2-0.6c0,0,0.8-0.6,1.1,0C62.7,44.1,62.6,44.5,61.8,44.5z"/>
				<path id="XMLID_36159_" class="st12" d="M61.1,44.9c0,0,0.4,0,0.6-0.3c0,0,0.7,0.6,0.2,1C61.9,45.5,61.5,45.8,61.1,44.9z"/>
				<path id="XMLID_36155_" class="st12" d="M60.8,43.8c0,0-0.3,0.2-0.3,0.6c0,0-0.9-0.2-0.7-0.7C59.9,43.7,60,43.3,60.8,43.8z"/>
				<path id="XMLID_36154_" class="st12" d="M60.6,44.5c0,0,0.2,0.3,0.5,0.4c0,0-0.4,0.8-0.8,0.4C60.2,45.4,59.8,45.1,60.6,44.5z"/>
			</g>
			<g id="XMLID_36139_">
				<path id="XMLID_36151_" class="st12" d="M55.5,44.4c0,0,0.3-0.6-0.1-0.7c-0.5-0.1-0.4,0.8-0.3,0.7
					C55.3,44.3,55.5,44.4,55.5,44.4z"/>
				<path id="XMLID_36147_" class="st12" d="M55.7,44.9c0,0,0.1-0.3-0.1-0.4c0,0,0.6-0.5,0.8,0C56.5,44.6,56.4,44.9,55.7,44.9z"/>
				<path id="XMLID_36146_" class="st12" d="M55.3,45.2c0,0,0.3,0,0.5-0.3c0,0,0.5,0.5,0.1,0.7C55.8,45.7,55.5,45.9,55.3,45.2z"/>
				<path id="XMLID_36144_" class="st12" d="M55,44.4c0,0-0.2,0.2-0.2,0.4c0,0-0.7-0.1-0.5-0.5C54.3,44.3,54.4,44,55,44.4z"/>
				<path id="XMLID_36140_" class="st12" d="M54.8,44.9c0,0,0.1,0.2,0.4,0.3c0,0-0.3,0.6-0.6,0.3C54.6,45.6,54.3,45.4,54.8,44.9z"/>
			</g>
			<g id="XMLID_36128_">
				<path id="XMLID_36138_" class="st13" d="M62.6,37.9c0,0,1.1-0.3,0.7-1c-0.4-0.7-1.3,0.4-1.2,0.5C62.5,37.5,62.6,37.9,62.6,37.9z
					"/>
				<path id="XMLID_36137_" class="st13" d="M62.2,38.7c0,0,0.4-0.2,0.4-0.7c0,0,1.2,0.2,0.9,0.9C63.3,39.2,62.9,39.4,62.2,38.7z"/>
				<path id="XMLID_36136_" class="st13" d="M61.3,38.5c0,0,0.4,0.3,0.8,0.2c0,0,0,1.1-0.7,1C61.4,39.7,60.8,39.6,61.3,38.5z"/>
				<path id="XMLID_36133_" class="st13" d="M62,37.4c0,0-0.5,0-0.8,0.2c0,0-0.6-0.9,0.1-1.2C61.3,36.4,61.8,36.2,62,37.4z"/>
				<path id="XMLID_36129_" class="st13" d="M61.2,37.7c0,0-0.2,0.4,0,0.8c0,0-1,0.3-1.1-0.3C60.1,38.1,60.1,37.5,61.2,37.7z"/>
			</g>
			<g id="XMLID_36113_">
				<path id="XMLID_36126_" class="st13" d="M67.5,45.8c0,0,0.8-0.2,0.6-0.7c-0.3-0.5-1,0.3-0.9,0.3C67.4,45.5,67.5,45.8,67.5,45.8z
					"/>
				<path id="XMLID_36122_" class="st13" d="M67.2,46.4c0,0,0.3-0.2,0.3-0.5c0,0,0.9,0.1,0.7,0.7C68,46.8,67.7,47,67.2,46.4z"/>
				<path id="XMLID_36121_" class="st13" d="M66.5,46.3c0,0,0.3,0.2,0.6,0.2c0,0,0,0.8-0.5,0.7C66.6,47.2,66.1,47.1,66.5,46.3z"/>
				<path id="XMLID_36120_" class="st13" d="M67,45.4c0,0-0.3,0-0.6,0.2c0,0-0.4-0.7,0-0.9C66.5,44.7,66.9,44.6,67,45.4z"/>
				<path id="XMLID_36117_" class="st13" d="M66.4,45.7c0,0-0.1,0.3,0,0.6c0,0-0.7,0.2-0.8-0.3C65.6,46,65.6,45.6,66.4,45.7z"/>
			</g>
			<g id="XMLID_36102_">
				<path id="XMLID_36112_" class="st12" d="M66.8,39c0,0,1-0.3,0.7-0.9c-0.4-0.6-1.2,0.4-1.1,0.4C66.7,38.6,66.8,39,66.8,39z"/>
				<path id="XMLID_36110_" class="st12" d="M66.4,39.7c0,0,0.4-0.2,0.3-0.6c0,0,1.2,0.2,0.8,0.9C67.5,40.3,67.1,40.5,66.4,39.7z"/>
				<path id="XMLID_36106_" class="st12" d="M65.6,39.6c0,0,0.3,0.3,0.7,0.2c0,0,0,1-0.7,0.9C65.7,40.7,65.1,40.6,65.6,39.6z"/>
				<path id="XMLID_36105_" class="st12" d="M66.2,38.5c0,0-0.4,0-0.7,0.2c0,0-0.6-0.9,0.1-1.1C65.6,37.6,66.1,37.4,66.2,38.5z"/>
				<path id="XMLID_36104_" class="st12" d="M65.5,38.8c0,0-0.1,0.4,0,0.7c0,0-0.9,0.3-1-0.3C64.5,39.2,64.4,38.7,65.5,38.8z"/>
			</g>
			<g id="XMLID_36088_">
				<path id="XMLID_36100_" class="st12" d="M58.1,39.2c0,0,0.9-0.2,0.6-0.8c-0.3-0.5-1.1,0.3-1,0.4C58,38.9,58.1,39.2,58.1,39.2z"
					/>
				<path id="XMLID_36096_" class="st12" d="M57.8,39.9c0,0,0.4-0.2,0.3-0.5c0,0,1,0.2,0.7,0.8C58.7,40.3,58.4,40.5,57.8,39.9z"/>
				<path id="XMLID_36095_" class="st12" d="M57.1,39.7c0,0,0.3,0.2,0.7,0.2c0,0,0,0.9-0.6,0.8C57.1,40.7,56.7,40.6,57.1,39.7z"/>
				<path id="XMLID_36093_" class="st12" d="M57.6,38.8c0,0-0.4,0-0.6,0.2c0,0-0.5-0.8,0.1-1C57.1,38,57.5,37.8,57.6,38.8z"/>
				<path id="XMLID_36089_" class="st12" d="M57,39c0,0-0.1,0.3,0,0.6c0,0-0.8,0.3-0.9-0.3C56.1,39.4,56,38.9,57,39z"/>
			</g>
			<g id="XMLID_36073_">
				<path id="XMLID_36087_" class="st13" d="M58.3,43.3c0,0,0.9-0.2,0.6-0.8c-0.3-0.6-1.1,0.3-1,0.4C58.2,43,58.3,43.3,58.3,43.3z"
					/>
				<path id="XMLID_36086_" class="st13" d="M58,43.9c0,0,0.4-0.2,0.3-0.6c0,0,1,0.2,0.7,0.8C58.9,44.4,58.6,44.6,58,43.9z"/>
				<path id="XMLID_36085_" class="st13" d="M57.3,43.8c0,0,0.3,0.2,0.7,0.2c0,0,0,0.9-0.6,0.8C57.3,44.8,56.8,44.7,57.3,43.8z"/>
				<path id="XMLID_36083_" class="st13" d="M57.8,42.8c0,0-0.4,0-0.6,0.2c0,0-0.5-0.8,0.1-1C57.3,42.1,57.7,41.9,57.8,42.8z"/>
				<path id="XMLID_36078_" class="st13" d="M57.2,43.1c0,0-0.1,0.3,0,0.7c0,0-0.8,0.3-0.9-0.3C56.3,43.5,56.2,43,57.2,43.1z"/>
			</g>
			<g id="XMLID_36058_">
				<path id="XMLID_36072_" class="st13" d="M63.9,41.5c0,0,0.8-0.2,0.5-0.7c-0.3-0.5-1,0.3-0.9,0.3C63.8,41.2,63.9,41.5,63.9,41.5z
					"/>
				<path id="XMLID_36067_" class="st13" d="M63.6,42.1c0,0,0.3-0.2,0.3-0.5c0,0,0.9,0.1,0.7,0.7C64.5,42.5,64.2,42.6,63.6,42.1z"/>
				<path id="XMLID_36062_" class="st13" d="M63,41.9c0,0,0.3,0.2,0.6,0.2c0,0,0,0.8-0.5,0.7C63,42.8,62.6,42.8,63,41.9z"/>
				<path id="XMLID_36061_" class="st13" d="M63.5,41.1c0,0-0.3,0-0.6,0.2c0,0-0.4-0.7,0-0.9C63,40.4,63.4,40.2,63.5,41.1z"/>
				<path id="XMLID_36060_" class="st13" d="M62.9,41.3c0,0-0.1,0.3,0,0.6c0,0-0.7,0.2-0.8-0.3C62.1,41.7,62.1,41.2,62.9,41.3z"/>
			</g>
			<g id="XMLID_36044_">
				<path id="XMLID_36057_" class="st14" d="M60.6,41.2c0,0,0.8-0.2,0.5-0.7c-0.3-0.5-1,0.3-0.9,0.3C60.6,40.9,60.6,41.2,60.6,41.2z
					"/>
				<path id="XMLID_36056_" class="st14" d="M60.4,41.8c0,0,0.3-0.2,0.3-0.5c0,0,0.9,0.1,0.7,0.7C61.2,42.2,60.9,42.3,60.4,41.8z"/>
				<path id="XMLID_36055_" class="st14" d="M59.7,41.6c0,0,0.3,0.2,0.6,0.2c0,0,0,0.8-0.5,0.7C59.8,42.5,59.3,42.4,59.7,41.6z"/>
				<path id="XMLID_36050_" class="st14" d="M60.2,40.8c0,0-0.3,0-0.6,0.2c0,0-0.4-0.7,0-0.9C59.7,40.1,60.1,39.9,60.2,40.8z"/>
				<path id="XMLID_36045_" class="st14" d="M59.6,41c0,0-0.1,0.3,0,0.6c0,0-0.7,0.2-0.8-0.3C58.8,41.3,58.8,40.9,59.6,41z"/>
			</g>
			<g id="XMLID_36025_">
				<path id="XMLID_36039_" class="st14" d="M67.1,42.7c0,0,0.8-0.2,0.5-0.7c-0.3-0.5-1,0.3-0.9,0.3C67,42.4,67.1,42.7,67.1,42.7z"
					/>
				<path id="XMLID_36034_" class="st14" d="M66.9,43.2c0,0,0.3-0.2,0.3-0.5c0,0,0.9,0.1,0.7,0.7C67.7,43.7,67.4,43.8,66.9,43.2z"/>
				<path id="XMLID_36033_" class="st14" d="M66.2,43.1c0,0,0.3,0.2,0.6,0.2c0,0,0,0.8-0.5,0.7C66.3,44,65.8,43.9,66.2,43.1z"/>
				<path id="XMLID_36032_" class="st14" d="M66.7,42.3c0,0-0.3,0-0.6,0.2c0,0-0.4-0.7,0-0.9C66.2,41.6,66.6,41.4,66.7,42.3z"/>
				<path id="XMLID_36030_" class="st14" d="M66.1,42.5c0,0-0.1,0.3,0,0.6c0,0-0.7,0.2-0.8-0.3C65.3,42.8,65.3,42.4,66.1,42.5z"/>
			</g>
			<g id="XMLID_36007_">
				<path id="XMLID_36020_" class="st14" d="M64.1,45.5c0,0,0.6-0.2,0.4-0.5c-0.2-0.4-0.7,0.2-0.6,0.2
					C64.1,45.3,64.1,45.5,64.1,45.5z"/>
				<path id="XMLID_36019_" class="st14" d="M63.9,45.9c0,0,0.2-0.1,0.2-0.4c0,0,0.7,0.1,0.5,0.5C64.5,46.2,64.3,46.3,63.9,45.9z"/>
				<path id="XMLID_36014_" class="st14" d="M63.5,45.8c0,0,0.2,0.2,0.4,0.1c0,0,0,0.6-0.4,0.5C63.5,46.5,63.2,46.4,63.5,45.8z"/>
				<path id="XMLID_36009_" class="st14" d="M63.8,45.2c0,0-0.2,0-0.4,0.1c0,0-0.3-0.5,0-0.6C63.5,44.7,63.7,44.6,63.8,45.2z"/>
				<path id="XMLID_36008_" class="st14" d="M63.4,45.4c0,0-0.1,0.2,0,0.4c0,0-0.5,0.2-0.6-0.2C62.8,45.6,62.8,45.3,63.4,45.4z"/>
			</g>
			<g id="XMLID_35996_">
				<path id="XMLID_36006_" class="st13" d="M68,35.4c0,0,0.7-0.2,0.5-0.6c-0.2-0.4-0.9,0.3-0.8,0.3C67.9,35.2,68,35.4,68,35.4z"/>
				<path id="XMLID_36003_" class="st13" d="M67.7,36c0,0,0.3-0.1,0.2-0.4c0,0,0.8,0.1,0.6,0.6C68.5,36.3,68.2,36.5,67.7,36z"/>
				<path id="XMLID_36002_" class="st13" d="M67.1,35.8c0,0,0.2,0.2,0.5,0.2c0,0,0,0.8-0.5,0.6C67.2,36.7,66.8,36.6,67.1,35.8z"/>
				<path id="XMLID_35998_" class="st13" d="M67.6,35.1c0,0-0.3,0-0.5,0.2c0,0-0.4-0.6,0-0.8C67.1,34.4,67.5,34.3,67.6,35.1z"/>
				<path id="XMLID_35997_" class="st13" d="M67.1,35.3c0,0-0.1,0.3,0,0.5c0,0-0.7,0.2-0.7-0.2C66.4,35.6,66.3,35.2,67.1,35.3z"/>
			</g>
			<g id="XMLID_35986_">
				<path id="XMLID_35994_" class="st14" d="M59.2,36.4c0,0,0.8-0.2,0.5-0.7c-0.3-0.5-1,0.3-0.9,0.3C59.1,36.2,59.2,36.4,59.2,36.4z
					"/>
				<path id="XMLID_35993_" class="st14" d="M58.9,37c0,0,0.3-0.2,0.3-0.5c0,0,0.9,0.1,0.7,0.7C59.8,37.4,59.5,37.6,58.9,37z"/>
				<path id="XMLID_35989_" class="st14" d="M58.3,36.9c0,0,0.3,0.2,0.6,0.2c0,0,0,0.8-0.5,0.7C58.3,37.8,57.9,37.7,58.3,36.9z"/>
				<path id="XMLID_35988_" class="st14" d="M58.8,36c0,0-0.3,0-0.6,0.2c0,0-0.4-0.7,0-0.9C58.3,35.4,58.7,35.2,58.8,36z"/>
				<path id="XMLID_35987_" class="st14" d="M58.2,36.3c0,0-0.1,0.3,0,0.6c0,0-0.7,0.2-0.8-0.3C57.4,36.6,57.3,36.2,58.2,36.3z"/>
			</g>
			<g id="XMLID_35975_">
				<path id="XMLID_35984_" class="st14" d="M68.9,32.5c0,0,0.8-0.2,0.5-0.7c-0.3-0.5-1,0.3-0.9,0.3C68.8,32.2,68.9,32.5,68.9,32.5z
					"/>
				<path id="XMLID_35983_" class="st14" d="M68.6,33.1c0,0,0.3-0.2,0.3-0.5c0,0,0.9,0.1,0.7,0.7C69.4,33.5,69.1,33.6,68.6,33.1z"/>
				<path id="XMLID_35979_" class="st14" d="M67.9,32.9c0,0,0.3,0.2,0.6,0.2c0,0,0,0.8-0.5,0.7C68,33.8,67.6,33.7,67.9,32.9z"/>
				<path id="XMLID_35978_" class="st14" d="M68.5,32.1c0,0-0.3,0-0.6,0.2c0,0-0.4-0.7,0-0.9C67.9,31.4,68.3,31.2,68.5,32.1z"/>
				<path id="XMLID_35977_" class="st14" d="M67.9,32.3c0,0-0.1,0.3,0,0.6c0,0-0.7,0.2-0.8-0.3C67.1,32.6,67,32.2,67.9,32.3z"/>
			</g>
			<g id="XMLID_35966_">
				<path id="XMLID_35974_" class="st13" d="M63.2,32.7c0,0,0.6-0.2,0.4-0.5c-0.2-0.3-0.7,0.2-0.6,0.2
					C63.2,32.5,63.2,32.7,63.2,32.7z"/>
				<path id="XMLID_35970_" class="st13" d="M63,33.1c0,0,0.2-0.1,0.2-0.3c0,0,0.6,0.1,0.5,0.5C63.6,33.4,63.4,33.5,63,33.1z"/>
				<path id="XMLID_35969_" class="st13" d="M62.6,33c0,0,0.2,0.2,0.4,0.1c0,0,0,0.6-0.4,0.5C62.6,33.6,62.3,33.6,62.6,33z"/>
				<path id="XMLID_35968_" class="st13" d="M62.9,32.4c0,0-0.2,0-0.4,0.1c0,0-0.3-0.5,0-0.6C62.6,32,62.8,31.8,62.9,32.4z"/>
				<path id="XMLID_35967_" class="st13" d="M62.5,32.6c0,0-0.1,0.2,0,0.4c0,0-0.5,0.2-0.5-0.2C62,32.8,61.9,32.5,62.5,32.6z"/>
			</g>
			<g id="XMLID_35954_">
				<path id="XMLID_35963_" class="st14" d="M65.1,36.1c0,0,0.8-0.2,0.5-0.7c-0.3-0.5-1,0.3-0.9,0.3C65,35.8,65.1,36.1,65.1,36.1z"
					/>
				<path id="XMLID_35962_" class="st14" d="M64.8,36.6c0,0,0.3-0.2,0.3-0.5c0,0,0.9,0.1,0.7,0.7C65.6,37,65.3,37.2,64.8,36.6z"/>
				<path id="XMLID_35958_" class="st14" d="M64.1,36.5c0,0,0.3,0.2,0.6,0.2c0,0,0,0.8-0.5,0.7C64.2,37.4,63.8,37.3,64.1,36.5z"/>
				<path id="XMLID_35957_" class="st14" d="M64.6,35.6c0,0-0.3,0-0.6,0.2c0,0-0.4-0.7,0-0.9C64.1,35,64.5,34.8,64.6,35.6z"/>
				<path id="XMLID_35956_" class="st14" d="M64,35.9c0,0-0.1,0.3,0,0.6c0,0-0.7,0.2-0.8-0.3C63.3,36.2,63.2,35.8,64,35.9z"/>
			</g>
			<g id="XMLID_35944_">
				<path id="XMLID_35953_" class="st14" d="M59.9,32.8c0,0,0.8-0.2,0.5-0.7c-0.3-0.5-1,0.3-0.9,0.3C59.8,32.5,59.9,32.8,59.9,32.8z
					"/>
				<path id="XMLID_35949_" class="st14" d="M59.6,33.4c0,0,0.3-0.2,0.3-0.5c0,0,0.9,0.1,0.7,0.7C60.4,33.8,60.1,33.9,59.6,33.4z"/>
				<path id="XMLID_35948_" class="st14" d="M59,33.2c0,0,0.3,0.2,0.6,0.2c0,0,0,0.8-0.5,0.7C59,34.1,58.6,34,59,33.2z"/>
				<path id="XMLID_35947_" class="st14" d="M59.5,32.4c0,0-0.3,0-0.6,0.2c0,0-0.4-0.7,0-0.9C58.9,31.7,59.3,31.5,59.5,32.4z"/>
				<path id="XMLID_35946_" class="st14" d="M58.9,32.6c0,0-0.1,0.3,0,0.6c0,0-0.7,0.2-0.8-0.3C58.1,32.9,58,32.5,58.9,32.6z"/>
			</g>
			<g id="XMLID_35934_">
				<path id="XMLID_35943_" class="st13" d="M57.2,34.7c0,0,0.6-0.2,0.4-0.5c-0.2-0.3-0.7,0.2-0.6,0.2
					C57.2,34.5,57.2,34.7,57.2,34.7z"/>
				<path id="XMLID_35939_" class="st13" d="M57.1,35.1c0,0,0.2-0.1,0.2-0.3c0,0,0.6,0.1,0.5,0.5C57.6,35.4,57.4,35.5,57.1,35.1z"/>
				<path id="XMLID_35938_" class="st13" d="M56.6,35c0,0,0.2,0.2,0.4,0.1c0,0,0,0.6-0.4,0.5C56.6,35.6,56.3,35.5,56.6,35z"/>
				<path id="XMLID_35937_" class="st13" d="M57,34.4c0,0-0.2,0-0.4,0.1c0,0-0.3-0.5,0-0.6C56.6,33.9,56.9,33.8,57,34.4z"/>
				<path id="XMLID_35935_" class="st13" d="M56.5,34.6c0,0-0.1,0.2,0,0.4c0,0-0.5,0.2-0.5-0.2C56,34.8,56,34.5,56.5,34.6z"/>
			</g>
			<g id="XMLID_35924_">
				<path id="XMLID_35930_" class="st12" d="M64.5,43.5c0,0,0.2-0.5-0.1-0.5c-0.3-0.1-0.3,0.6-0.2,0.5
					C64.3,43.4,64.5,43.5,64.5,43.5z"/>
				<path id="XMLID_35929_" class="st12" d="M64.6,43.9c0,0,0.1-0.2-0.1-0.3c0,0,0.4-0.3,0.6,0C65.1,43.7,65,43.9,64.6,43.9z"/>
				<path id="XMLID_35928_" class="st12" d="M64.3,44.1c0,0,0.2,0,0.3-0.2c0,0,0.4,0.3,0.1,0.5C64.7,44.4,64.5,44.6,64.3,44.1z"/>
				<path id="XMLID_35927_" class="st12" d="M64.1,43.5c0,0-0.2,0.1-0.2,0.3c0,0-0.5-0.1-0.4-0.4C63.6,43.5,63.7,43.2,64.1,43.5z"/>
				<path id="XMLID_35926_" class="st12" d="M63.9,43.9c0,0,0.1,0.2,0.3,0.2c0,0-0.2,0.4-0.4,0.2C63.8,44.4,63.6,44.2,63.9,43.9z"/>
			</g>
			<g id="XMLID_35913_">
				<path id="XMLID_35922_" class="st14" d="M56.2,41.3c0,0,0.4-0.1,0.3-0.4c-0.1-0.3-0.5,0.2-0.4,0.2
					C56.1,41.1,56.2,41.3,56.2,41.3z"/>
				<path id="XMLID_35921_" class="st14" d="M56,41.6c0,0,0.2-0.1,0.1-0.3c0,0,0.5,0.1,0.3,0.4C56.4,41.8,56.3,41.9,56,41.6z"/>
				<path id="XMLID_35917_" class="st14" d="M55.7,41.5c0,0,0.1,0.1,0.3,0.1c0,0,0,0.4-0.3,0.4C55.7,42,55.5,41.9,55.7,41.5z"/>
				<path id="XMLID_35916_" class="st14" d="M55.9,41.1c0,0-0.2,0-0.3,0.1c0,0-0.2-0.3,0-0.4C55.7,40.7,55.9,40.6,55.9,41.1z"/>
				<path id="XMLID_35915_" class="st14" d="M55.6,41.2c0,0-0.1,0.2,0,0.3c0,0-0.4,0.1-0.4-0.1C55.2,41.4,55.2,41.1,55.6,41.2z"/>
			</g>
			<g id="XMLID_35903_">
				<path id="XMLID_35912_" class="st12" d="M57,32.5c0,0,0.4-0.1,0.3-0.3c-0.1-0.2-0.5,0.1-0.4,0.2C56.9,32.4,57,32.5,57,32.5z"/>
				<path id="XMLID_35908_" class="st12" d="M56.8,32.8c0,0,0.2-0.1,0.1-0.2c0,0,0.4,0.1,0.3,0.3C57.2,33,57.1,33.1,56.8,32.8z"/>
				<path id="XMLID_35907_" class="st12" d="M56.5,32.7c0,0,0.1,0.1,0.3,0.1c0,0,0,0.4-0.3,0.3C56.5,33.1,56.3,33.1,56.5,32.7z"/>
				<path id="XMLID_35906_" class="st12" d="M56.8,32.3c0,0-0.2,0-0.3,0.1c0,0-0.2-0.3,0-0.4C56.5,32,56.7,31.9,56.8,32.3z"/>
				<path id="XMLID_35905_" class="st12" d="M56.5,32.4c0,0-0.1,0.1,0,0.3c0,0-0.4,0.1-0.4-0.1C56.1,32.6,56.1,32.4,56.5,32.4z"/>
			</g>
		</g>
	</g>
</g>
</svg>
