<?xml version="1.0" encoding="utf-8"?>
<!-- Generator: Adobe Illustrator 21.0.0, SVG Export Plug-In . SVG Version: 6.00 Build 0)  -->
<svg version="1.1" id="Layer_1" xmlns="http://www.w3.org/2000/svg" xmlns:xlink="http://www.w3.org/1999/xlink" x="0px" y="0px"
	 viewBox="0 0 80 80" style="enable-background:new 0 0 80 80;" xml:space="preserve">
<style type="text/css">
	.st0{fill:#995827;}
	.st1{fill:#B2662F;}
	.st2{fill:#E8E7E7;}
	.st3{fill:#EFEFEF;}
	.st4{fill:#A75535;}
	.st5{fill:#893E25;}
	.st6{fill:#BDD3CF;}
	.st7{fill:#FFFFFF;}
	.st8{fill:#A3B6B3;}
	.st9{fill:#AC692D;}
	.st10{fill:#73401C;}
	.st11{opacity:0.2;}
	.st12{opacity:0.2;fill:#A3B6B3;}
</style>
<g id="XMLID_37809_">
	<g id="XMLID_37843_">
		<g id="XMLID_37844_">
			<path id="XMLID_37847_" class="st0" d="M13.5,43.7c0-0.2,0.1-0.3,0.3-0.4l0,0c0.2-0.1,0.6-0.2,0.8-0.1l0,0
				c0.4,0.1,0.6,0.3,0.6,0.5c0,0.2,0,1.9,0,2c0,0.2-0.1,0.3-0.3,0.4l0,0c-0.2,0.1-0.6,0.2-0.8,0.1l0,0c-0.4-0.1-0.6-0.3-0.6-0.5
				C13.5,45.6,13.5,43.8,13.5,43.7z"/>
			<path id="XMLID_37846_" class="st0" d="M13.3,45.4L13.3,45.4c-0.9,0.5-0.6,1.5,0.5,1.8l0,0c0.5,0.1,1.1,0,1.5-0.2l0,0
				c0.9-0.5,0.6-1.5-0.5-1.8l0,0C14.3,45.1,13.7,45.2,13.3,45.4z"/>
			<path id="XMLID_37845_" class="st1" d="M15.2,45.6c0.7,0.4,0.5,1.2-0.4,1.4l0,0c-0.4,0.1-0.9,0-1.2-0.2l0,0
				c-0.4-0.2,0.9-0.1,1.1-0.6C14.8,45.8,15.2,45.6,15.2,45.6z"/>
		</g>
	</g>
	<g id="XMLID_37834_">
		<g id="XMLID_37839_">
			<path id="XMLID_37842_" class="st0" d="M44.9,61.6c0-0.2,0.1-0.3,0.3-0.4l0,0c0.2-0.1,0.6-0.2,0.8-0.1l0,0
				c0.4,0.1,0.6,0.3,0.6,0.5c0,0.2,0,1.9,0,2c0,0.2-0.1,0.3-0.3,0.4l0,0c-0.2,0.1-0.6,0.2-0.8,0.1l0,0c-0.4-0.1-0.6-0.3-0.6-0.5
				C44.9,63.5,44.9,61.8,44.9,61.6z"/>
			<path id="XMLID_37841_" class="st0" d="M44.7,63.3L44.7,63.3c-0.9,0.5-0.6,1.5,0.5,1.8l0,0c0.5,0.1,1.1,0,1.5-0.2l0,0
				c0.9-0.5,0.6-1.5-0.5-1.8l0,0C45.7,63,45.2,63.1,44.7,63.3z"/>
			<path id="XMLID_37840_" class="st1" d="M46.6,63.6c0.7,0.4,0.5,1.2-0.4,1.4l0,0c-0.4,0.1-0.9,0-1.2-0.2l0,0
				c-0.4-0.2,0.9-0.1,1.1-0.6C46.2,63.7,46.6,63.6,46.6,63.6z"/>
		</g>
		<g id="XMLID_37835_">
			<path id="XMLID_37838_" class="st0" d="M64.8,50.1c0-0.2,0.1-0.3,0.3-0.4l0,0c0.2-0.1,0.6-0.2,0.8-0.1l0,0
				c0.4,0.1,0.6,0.3,0.6,0.5c0,0.2,0,1.9,0,2c0,0.2-0.1,0.3-0.3,0.4l0,0c-0.2,0.1-0.6,0.2-0.8,0.1l0,0c-0.4-0.1-0.6-0.3-0.6-0.5
				C64.8,52,64.8,50.3,64.8,50.1z"/>
			<path id="XMLID_37837_" class="st0" d="M64.7,51.8L64.7,51.8c-0.9,0.5-0.6,1.5,0.5,1.8l0,0c0.5,0.1,1.1,0,1.5-0.2l0,0
				c0.9-0.5,0.6-1.5-0.5-1.8l0,0C65.7,51.5,65.1,51.6,64.7,51.8z"/>
			<path id="XMLID_37836_" class="st1" d="M66.6,52.1c0.7,0.4,0.5,1.2-0.4,1.4l0,0c-0.4,0.1-0.9,0-1.2-0.2l0,0
				c-0.4-0.2,0.9-0.1,1.1-0.6C66.1,52.2,66.6,52.1,66.6,52.1z"/>
		</g>
	</g>
	<g id="XMLID_37810_">
		<polygon id="XMLID_37833_" class="st2" points="12.7,43.3 34.3,30.9 67.2,49.9 45.7,62.4 		"/>
		<path id="XMLID_37832_" class="st3" d="M40.5,27.6c0,0,4.8,2,7.6,3.5c5.1,2.8,7.5,4.5,10,6.8c0.8,0.8,1.4,1.7,1.4,2.8v4.6l-16,9.7
			L43,54.8c0.3-2.9,0.1-5.8,0.1-5.8c-0.1-1-0.6-1.8-1-2.2c-1.9-1.6-5.6-4.1-10.6-6.9c-3.8-2.1-5.8-2.6-7.4-3.2
			c-1.1-0.4-1.3,0.3-1.3,0.3c0-0.7,0.2-1.1,0.7-1.4L36.3,28C37.7,27.2,38.6,26.9,40.5,27.6z"/>
		<g id="XMLID_37829_">
			<path id="XMLID_37831_" class="st4" d="M53.5,44.6c-0.4,0.4-2.2-2.4-3.4-5.9c-0.4-1.1-1.2-2.4-1.5-3.8c-0.3-1.4,0.6-2.8,0.6-2.8
				c0.1-0.1,0.5-0.1,0.6,0.3c0,0,1.1,4.1,2,6.7C52.7,41.7,53.6,44.5,53.5,44.6z"/>
			<path id="XMLID_37830_" class="st5" d="M40.2,45.7c0,0.2,0.3,0.4,0.6,0.4c1-0.2,4.7-0.8,6.2-0.8c2.4,0,5-0.3,6.1-0.3
				c0.3,0,0.5-0.1,0.4-0.4c-0.2-1.2-2.2-3.1-3.2-5.9c-0.4-1-0.6-3.1-0.7-3.9c-0.3-1.3-0.1-1.9-0.1-2.5c0-0.2-0.3-0.3-0.5-0.2
				c-1,0.6-3.4,1.5-5.1,2c-1.1,0.3-3,0.4-3.5,0.5c-1.1,0.1-1.9,0.5-2.4,1c-0.3,0.3,0,1,0.1,1.2c0.4,0.7,1,2,1.5,4.3
				C40.1,43.2,40,44.9,40.2,45.7z"/>
		</g>
		<g id="XMLID_37825_">
			<path id="XMLID_37828_" class="st6" d="M18.6,30.4l20.4-11.8l0.4-1.2c0.7,0.7,0.8,1.2,0.8,1.7c0,0.5,0,13.4,0,13.4L18.6,45V30.4z
				"/>
			<path id="XMLID_37827_" class="st7" d="M37.2,15.8c1.2,0.8,2.3,1.8,2.3,1.8c0.1,0.2,0,0.6-0.2,0.8l-20.7,12L12.7,27l20.9-12
				c0.2-0.1,0.5-0.2,0.7-0.2C34.5,14.8,36,15.1,37.2,15.8z"/>
			<path id="XMLID_41634_" class="st3" d="M34.3,14.8"/>
			<path id="XMLID_41631_" class="st3" d="M39.5,17.7c0.1,0.2,0,0.6-0.2,0.8l-20.7,12L12.7,27"/>
			<path id="XMLID_37826_" class="st8" d="M18.6,45V30.4c0-0.2-1.5-1.5-2.9-2.3c-1.5-0.8-2.9-1.2-2.9-1.1v14.6L18.6,45z"/>
		</g>
		<g id="XMLID_37822_">
			<g id="XMLID_37823_">
				<polygon id="XMLID_37824_" class="st9" points="67.2,49.9 45.7,62.4 45.7,60.7 67.2,48.2 				"/>
			</g>
		</g>
		<polygon id="XMLID_37821_" class="st10" points="12.7,43.3 12.7,41.6 45.7,60.7 45.7,62.4 		"/>
		<g id="XMLID_37815_">
			<g id="XMLID_37816_">
				<g id="XMLID_37819_">
					<polygon id="XMLID_37820_" class="st6" points="39.7,53.2 48,50.4 45.4,34.6 39.6,37.8 					"/>
				</g>
				<g id="XMLID_41624_" class="st11">
					<polyline id="XMLID_41629_" class="st8" points="39.6,37.8 39.7,53.2 48,50.4 					"/>
				</g>
				<path id="XMLID_37818_" class="st8" d="M18.6,30.4c0.1-2,0.6-3.7,0.6-3.7c0-0.2,0.1-1.2,0.9-1.2c2,0.1,6.9,2.3,9.9,4
					c3.8,2.1,8.2,6.6,9.5,7.9c0.1,0.1,0.1,0.3,0.1,0.3c0.6,3.5,0.6,14.1,0.5,15.7c-0.1,1.9-0.2,3.8-0.2,3.8L18.6,45
					C18.6,45,18.5,31,18.6,30.4z"/>
				<path id="XMLID_41627_" class="st12" d="M18.6,30.4c0.1-2,0.6-3.7,0.6-3.7c0-0.2,0.1-1.2,0.9-1.2c2,0.1,6.9,2.3,9.9,4
					c3.8,2.1,8.2,6.6,9.5,7.9c0.1,0.1,0.1,0.3,0.1,0.3c0.6,3.5,0.6,14.1,0.5,15.7c-0.1,1.9-0.2,3.8-0.2,3.8"/>
				<path id="XMLID_37817_" class="st7" d="M19.2,26.7c0-0.7,0.9-2.4,3-3.7c0.7-0.4,1.4-0.6,1.9-0.7c1.4-0.3,5.6,1.3,11.4,4.3
					c6.7,3.5,9.9,6.4,9.9,8c0,1.6-5.5,3.5-5.8,3.1c-1.6-1.8-3.9-4-10.1-7.5c-4.1-2.3-9.1-4-9.7-4.1C19.4,26,19.2,26.7,19.2,26.7z"/>
				<path id="XMLID_41630_" class="st3" d="M45.4,34.6c0,1.6-5.5,3.5-5.8,3.1c-1.6-1.8-3.9-4-10.1-7.5c-4.1-2.3-9.1-4-9.7-4.1
					c-0.5-0.1-0.7,0.5-0.7,0.5c0-0.7,0.9-2.4,3-3.7c0.7-0.4,1.4-0.6,1.9-0.7"/>
			</g>
		</g>
		<g id="XMLID_37811_">
			<path id="XMLID_37814_" class="st6" d="M45.7,46.1L66,34.3l0.4-1.2c0.7,0.7,0.8,1.2,0.8,1.7c0,0.5,0,13.4,0,13.4L45.7,60.7V46.1z
				"/>
			<path id="XMLID_37813_" class="st7" d="M64.3,31.5c1.2,0.8,2.3,1.8,2.3,1.8c0.1,0.2,0,0.6-0.2,0.8l-20.7,12l-5.8-3.4l20.9-12
				c0.2-0.1,0.5-0.2,0.7-0.2C61.6,30.5,63.1,30.7,64.3,31.5z"/>
			<path id="XMLID_41632_" class="st3" d="M61.4,30.5"/>
			<path id="XMLID_41628_" class="st3" d="M66.7,33.3c0.1,0.2,0,0.6-0.2,0.8l-20.7,12l-5.8-3.4"/>
			<path id="XMLID_37812_" class="st8" d="M45.7,60.7V46.1c0-0.2-1.5-1.5-2.9-2.3c-1.5-0.8-2.9-1.2-2.9-1.1v14.6L45.7,60.7z"/>
			<path id="XMLID_41626_" class="st12" d="M45.7,60.7V46.1c0-0.2-1.5-1.5-2.9-2.3c-1.5-0.8-2.9-1.2-2.9-1.1"/>
		</g>
	</g>
</g>
</svg>
