<?xml version="1.0" encoding="utf-8"?>
<!-- Generator: Adobe Illustrator 21.0.0, SVG Export Plug-In . SVG Version: 6.00 Build 0)  -->
<svg version="1.1" id="Layer_1" xmlns="http://www.w3.org/2000/svg" xmlns:xlink="http://www.w3.org/1999/xlink" x="0px" y="0px"
	 viewBox="0 0 80 80" style="enable-background:new 0 0 80 80;" xml:space="preserve">
<style type="text/css">
	.st0{fill:#C5C6C7;}
	.st1{opacity:0.2;fill:#C5C6C7;}
	.st2{fill:#92989E;}
	.st3{opacity:0.2;fill:#868E92;}
	.st4{fill:#777576;}
	.st5{fill:#A4A3A3;}
	.st6{fill:#868E92;}
	.st7{fill:#636467;}
	.st8{fill:#595A5B;}
	.st9{fill:#333538;}
	.st10{fill:#59595C;}
	.st11{opacity:0.2;fill:#636467;}
	.st12{fill:#CBCACA;}
	.st13{fill:#BFBFBF;}
	.st14{fill:#AEADA9;}
	.st15{fill:#A8A7A7;}
	.st16{fill:#DCDCDB;}
	.st17{fill:#CECDCB;}
	.st18{fill:#1D1D27;}
	.st19{fill:#343438;}
	.st20{fill:#242530;}
	.st21{fill:#14151B;}
	.st22{fill:#D0D1D1;}
	.st23{fill:#C6C4C3;}
	.st24{fill:#F3F4F5;}
	.st25{fill:#C5C6D4;}
	.st26{fill:#DADAE0;}
	.st27{fill:#7D888D;}
	.st28{fill:#707C80;}
	.st29{fill:#B7C3C5;}
	.st30{fill:#9CACB2;}
	.st31{opacity:0.2;fill:#707C80;}
	.st32{fill:#A9B4B6;}
	.st33{opacity:0.2;fill:#A9B4B6;}
	.st34{fill:#CCDBDD;}
	.st35{fill:#95CDD6;}
	.st36{opacity:0.5;fill:#95CDD6;}
	.st37{opacity:0.3;fill:#80BCC9;}
	.st38{opacity:0.2;}
	.st39{fill:#DBE9E9;}
	.st40{fill:#8C999D;}
	.st41{fill:#5F6D71;}
	.st42{fill:#BAC8CB;}
	.st43{fill:#6A787B;}
	.st44{fill:#B1B1B1;}
	.st45{fill:#D2D2D2;}
	.st46{fill:#C2C1C1;}
	.st47{fill:#BBBBBB;}
	.st48{opacity:0.3;fill:#C2C1C1;}
	.st49{fill:#D5D6D5;}
	.st50{fill:#B1B4B6;}
	.st51{fill:#AEAEAE;}
	.st52{fill:#353434;}
	.st53{fill:#3E3C39;}
</style>
<g id="XMLID_1224_">
	<g id="XMLID_1225_">
		<g id="XMLID_1226_">
			<g id="XMLID_1233_">
				<g id="XMLID_1234_">
					<polygon id="XMLID_1279_" class="st0" points="46.8,19.6 20.2,34.9 20.2,61.3 46.8,46 					"/>
					<polygon id="XMLID_1278_" class="st1" points="46.8,19.6 20.2,34.9 20.2,45.3 46.8,46 					"/>
					<polygon id="XMLID_1277_" class="st2" points="1.5,23 52,52.2 52,79.7 51.2,79.2 51.2,52.7 20.2,34.9 20.2,61.3 1.5,50.5 					
						"/>
					<polyline id="XMLID_1276_" class="st3" points="1.5,23 52,52.2 52,79.7 51.2,79.2 51.2,52.7 20.2,34.9 20.2,61.3 					"/>
					<g id="XMLID_1263_">
						<g id="XMLID_1268_">
							<polygon id="XMLID_1275_" class="st4" points="3.3,25 18.4,33.8 18.4,41.6 3.3,32.9 							"/>
							<polygon id="XMLID_1274_" class="st5" points="3.5,32.6 3.5,25.9 3.8,25.7 18.4,34.1 18.4,40.9 18.1,41 							"/>
							<polygon id="XMLID_1273_" class="st6" points="3.5,25.9 18.1,34.3 18.1,41 3.5,32.6 							"/>
							<polyline id="XMLID_1272_" class="st3" points="3.5,25.9 18.1,34.3 18.1,41 							"/>
							<polygon id="XMLID_1271_" class="st5" points="17.6,34.6 18.1,34.3 18.1,34.6 17.6,34.9 							"/>
							<polygon id="XMLID_1270_" class="st5" points="17.3,34.7 17.6,34.6 17.6,35.1 17.3,35.2 							"/>
							<polygon id="XMLID_1269_" class="st7" points="3.8,25.7 18.4,34.1 18.1,34.3 3.5,25.9 							"/>
						</g>
						<polygon id="XMLID_1267_" class="st7" points="3.5,25.9 18.1,34.3 17.8,34.4 3.3,26 						"/>
						<polygon id="XMLID_1266_" class="st7" points="3.3,26 17.8,34.4 17.6,34.6 3,26.2 						"/>
						<polygon id="XMLID_1265_" class="st7" points="3,26.2 17.6,34.6 17.3,34.7 2.7,26.3 						"/>
						<polygon id="XMLID_1264_" class="st8" points="2.7,26.8 17.3,35.2 17.3,34.7 2.7,26.3 						"/>
					</g>
					<g id="XMLID_1250_">
						<g id="XMLID_1255_">
							<polygon id="XMLID_1262_" class="st4" points="3.3,33.5 18.4,42.3 18.4,50.1 3.3,41.3 							"/>
							<polygon id="XMLID_1261_" class="st5" points="3.5,41.1 3.5,34.4 3.8,34.2 18.4,42.6 18.4,49.4 18.1,49.5 							"/>
							<polygon id="XMLID_1260_" class="st6" points="3.5,34.4 18.1,42.8 18.1,49.5 3.5,41.1 							"/>
							<polyline id="XMLID_1259_" class="st3" points="3.5,34.4 18.1,42.8 18.1,49.5 							"/>
							<polygon id="XMLID_1258_" class="st5" points="17.6,43.1 18.1,42.8 18.1,43.1 17.6,43.4 							"/>
							<polygon id="XMLID_1257_" class="st5" points="17.3,43.2 17.6,43.1 17.6,43.6 17.3,43.7 							"/>
							<polygon id="XMLID_1256_" class="st7" points="3.8,34.2 18.4,42.6 18.1,42.8 3.5,34.4 							"/>
						</g>
						<polygon id="XMLID_1254_" class="st7" points="3.5,34.4 18.1,42.8 17.8,42.9 3.3,34.5 						"/>
						<polygon id="XMLID_1253_" class="st7" points="3.3,34.5 17.8,42.9 17.6,43.1 3,34.6 						"/>
						<polygon id="XMLID_1252_" class="st7" points="3,34.6 17.6,43.1 17.3,43.2 2.7,34.8 						"/>
						<polygon id="XMLID_1251_" class="st8" points="2.7,35.3 17.3,43.7 17.3,43.2 2.7,34.8 						"/>
					</g>
					<g id="XMLID_1237_">
						<g id="XMLID_1242_">
							<polygon id="XMLID_1249_" class="st4" points="3.3,42 18.4,50.8 18.4,58.6 3.3,49.8 							"/>
							<polygon id="XMLID_1248_" class="st5" points="3.5,49.6 3.5,42.8 3.8,42.7 18.4,51.1 18.4,57.8 18.1,58 							"/>
							<polygon id="XMLID_1247_" class="st6" points="3.5,42.8 18.1,51.3 18.1,58 3.5,49.6 							"/>
							<polyline id="XMLID_1246_" class="st3" points="3.5,42.8 18.1,51.3 18.1,58 							"/>
							<polygon id="XMLID_1245_" class="st5" points="17.6,51.5 18.1,51.3 18.1,51.6 17.6,51.9 							"/>
							<polygon id="XMLID_1244_" class="st5" points="17.3,51.7 17.6,51.5 17.6,52 17.3,52.2 							"/>
							<polygon id="XMLID_1243_" class="st7" points="3.8,42.7 18.4,51.1 18.1,51.3 3.5,42.8 							"/>
						</g>
						<polygon id="XMLID_1241_" class="st7" points="3.5,42.8 18.1,51.3 17.8,51.4 3.3,43 						"/>
						<polygon id="XMLID_1240_" class="st7" points="3.3,43 17.8,51.4 17.6,51.5 3,43.1 						"/>
						<polygon id="XMLID_1239_" class="st7" points="3,43.1 17.6,51.5 17.3,51.7 2.7,43.3 						"/>
						<polygon id="XMLID_1238_" class="st8" points="2.7,43.8 17.3,52.2 17.3,51.7 2.7,43.3 						"/>
					</g>
					<polygon id="XMLID_1236_" class="st0" points="52,52.2 78.5,36.9 78.5,64.4 77.7,64.8 52.8,79.2 52,79.7 					"/>
					<polyline id="XMLID_1235_" class="st1" points="52.8,79.2 52,79.7 52,52.2 78.5,36.9 					"/>
				</g>
			</g>
			<g id="XMLID_1227_">
				<g id="XMLID_1228_">
					<polygon id="XMLID_1232_" class="st9" points="52,50.5 52,52.2 1.5,23 1.5,21.3 					"/>
					<polygon id="XMLID_1231_" class="st10" points="78.5,35.2 52,50.5 52,52.2 78.5,36.9 					"/>
					<polygon id="XMLID_1230_" class="st7" points="28,6 78.5,35.2 52,50.5 1.5,21.3 					"/>
					<polyline id="XMLID_1229_" class="st11" points="78.5,35.2 52,50.5 1.5,21.3 					"/>
					<polygon class="st11" points="67.9,41.3 52,50.5 38.6,42.7 38.6,13 42.5,14.4 67.9,29.1 					"/>
				</g>
			</g>
		</g>
	</g>
</g>
<g id="XMLID_45337_">
	<g id="XMLID_45346_">
		<path id="XMLID_45351_" class="st12" d="M43.2,30.4l3.7-1.6c0.6-0.3,1-0.9,1.1-1.6l1.1-6l0.3-0.1l5.7,3.3L54,30.7
			c-0.1,0.7-0.5,1.3-1.1,1.6l-3.5,2.2c-0.5,0.3-1.1,0.3-1.6,0l-4.6-2.7c-0.2-0.1-0.3-0.4-0.3-0.6c0-0.1,0-0.3,0-0.4
			C43,30.7,43.1,30.5,43.2,30.4z"/>
		<g id="XMLID_45349_">
			<path id="XMLID_45350_" class="st13" d="M48,27.2l1.1-6l5.7,3.3l-1.1,6c-0.1,0.7-0.5,1.3-1.1,1.6l-3.2,2.1
				c-0.5,0.3-1.1,0.3-1.6,0l-4.6-2.7c-0.4-0.2-0.4-0.9,0-1.1l3.7-1.6C47.5,28.5,47.9,27.9,48,27.2z"/>
		</g>
		<g id="XMLID_45347_">
			<path id="XMLID_45348_" class="st14" d="M48,27.2l1.1-6l5.7,3.3l-1.1,6c-0.1,0.7-0.5,1.3-1.1,1.6l-5.7-3.3
				C47.5,28.5,47.9,27.9,48,27.2z"/>
		</g>
	</g>
	<g id="XMLID_45338_">
		<g id="XMLID_45342_">
			<path id="XMLID_45345_" class="st15" d="M39.6,1.7c0-0.4,0.3-0.8,0.6-1c0.1-0.1,0.4-0.3,0.5-0.3c0.3-0.2,0.7-0.2,1.1,0L63.4,13
				c0.6,0.4,1,1.1,0.9,1.9l-1.6,19.6c0,0.4-0.2,0.7-0.5,0.9c-0.1,0.1-0.5,0.3-0.5,0.3c-0.4,0.2-0.8,0.2-1.1,0L38.9,23.2
				c-0.6-0.4-1-1.1-0.9-1.9L39.6,1.7z"/>
			<path id="XMLID_45344_" class="st16" d="M39.6,1.7L38,21.4c-0.1,0.8,0.3,1.5,0.9,1.9l21.6,12.5c0.8,0.4,1.8-0.2,1.9-1.1L64,15
				c0.1-0.8-0.3-1.5-0.9-1.9L41.5,0.7C40.7,0.2,39.7,0.8,39.6,1.7z"/>
			<path id="XMLID_46116_" class="st17" d="M60.5,35.7c0.8,0.4,1.8-0.2,1.9-1.1L64,15c0.1-0.8-0.3-1.5-0.9-1.9L41.5,0.7
				c-0.8-0.4-1.8,0.2-1.9,1.1"/>
			<path id="XMLID_45343_" class="st18" d="M39.6,1.7L38.2,19L62.5,33L64,15c0.1-0.8-0.3-1.5-0.9-1.9L41.5,0.7
				C40.7,0.2,39.7,0.8,39.6,1.7z"/>
		</g>
		<g id="XMLID_45340_">
			<path id="XMLID_45341_" class="st19" d="M48.9,27.6c0.2,0,0.3-0.3,0.2-0.5C49,27,48.9,27,48.8,27c0.1-0.1,0.3-0.2,0.5-0.2l0,0
				c0.2,0,0.5,0.2,0.7,0.4l0,0c0.3,0.5,0.1,1.1-0.4,1.1l0,0c-0.2,0-0.5-0.2-0.7-0.4c-0.1-0.1-0.1-0.2-0.1-0.3
				C48.8,27.6,48.8,27.6,48.9,27.6L48.9,27.6z"/>
		</g>
		<polygon id="XMLID_45339_" class="st20" points="40.8,1.9 39.5,18.1 61.3,30.7 62.7,14.5 		"/>
		<polyline id="XMLID_46117_" class="st21" points="61.3,30.7 62.7,14.5 40.8,1.9 		"/>
	</g>
</g>
<g id="XMLID_44929_">
	<path id="XMLID_45336_" class="st22" d="M30.5,34.8c0-0.1,0-0.1,0.1-0.2l4.9-2.8c0.2-0.1,0.4-0.1,0.6,0L48.4,39
		c0.1,0,0.1,0.1,0.1,0.2c0,0.1,0,0.2,0,0.2c0,0.1,0,0.1-0.1,0.2l-4.9,2.8c-0.2,0.1-0.4,0.1-0.6,0l-12.4-7.2c-0.1,0-0.1-0.1-0.1-0.2
		C30.5,35,30.5,34.9,30.5,34.8z"/>
	<path id="XMLID_45335_" class="st23" d="M30.6,34.6l4.9-2.8c0.2-0.1,0.4-0.1,0.6,0L48.4,39c0.1,0.1,0.1,0.3,0,0.4l-4.9,2.8
		c-0.2,0.1-0.4,0.1-0.6,0L30.6,35C30.4,34.9,30.4,34.7,30.6,34.6z"/>
	<g id="XMLID_44930_">
		<g id="XMLID_45270_">
			<g id="XMLID_45326_">
				<g id="XMLID_45331_">
					<g id="XMLID_45332_">
						<path id="XMLID_45334_" class="st16" d="M35.6,33.4C35.6,33.4,35.6,33.4,35.6,33.4l0.5-0.4c0.1,0,0.2,0,0.2,0l0.5,0.3
							c0,0,0,0,0,0.1v0.1c0,0,0,0.1,0,0.1l-0.5,0.3c-0.1,0-0.2,0-0.2,0l-0.5-0.3C35.6,33.6,35.6,33.5,35.6,33.4L35.6,33.4z"/>
						<path id="XMLID_45333_" class="st24" d="M36.4,33.1l0.5,0.3c0.1,0,0.1,0.1,0,0.2l-0.5,0.3c-0.1,0-0.2,0-0.2,0l-0.5-0.3
							c-0.1,0-0.1-0.1,0-0.2l0.5-0.3C36.2,33,36.3,33,36.4,33.1z"/>
					</g>
				</g>
				<g id="XMLID_45327_">
					<g id="XMLID_45328_">
						<path id="XMLID_45330_" class="st16" d="M36.5,33.9C36.5,33.9,36.5,33.9,36.5,33.9l0.5-0.4c0.1,0,0.2,0,0.2,0l0.5,0.3
							c0,0,0,0,0,0.1V34c0,0,0,0.1,0,0.1l-0.5,0.3c-0.1,0-0.2,0-0.2,0l-0.5-0.3C36.5,34.1,36.5,34,36.5,33.9L36.5,33.9z"/>
						<path id="XMLID_45329_" class="st24" d="M37.2,33.6l0.5,0.3c0.1,0,0.1,0.1,0,0.2l-0.5,0.3c-0.1,0-0.2,0-0.2,0L36.5,34
							c-0.1,0-0.1-0.1,0-0.2l0.5-0.3C37.1,33.5,37.2,33.5,37.2,33.6z"/>
					</g>
				</g>
			</g>
			<g id="XMLID_45321_">
				<g id="XMLID_45322_">
					<g id="XMLID_45323_">
						<path id="XMLID_45325_" class="st16" d="M34.5,32.8C34.5,32.7,34.5,32.7,34.5,32.8l0.5-0.4c0.1,0,0.2,0,0.2,0l0.8,0.5
							c0,0,0,0,0,0.1l0,0.1c0,0,0,0.1,0,0.1l-0.5,0.3c-0.1,0-0.2,0-0.2,0l-0.8-0.5C34.5,32.9,34.5,32.9,34.5,32.8L34.5,32.8z"/>
						<path id="XMLID_45324_" class="st24" d="M35.2,32.4l0.8,0.5c0.1,0,0.1,0.1,0,0.2l-0.5,0.3c-0.1,0-0.2,0-0.2,0l-0.8-0.5
							c-0.1,0-0.1-0.1,0-0.2l0.5-0.3C35.1,32.4,35.2,32.4,35.2,32.4z"/>
					</g>
				</g>
			</g>
			<g id="XMLID_45312_">
				<g id="XMLID_45317_">
					<g id="XMLID_45318_">
						<path id="XMLID_45320_" class="st16" d="M37.3,34.4C37.3,34.4,37.3,34.4,37.3,34.4l0.5-0.4c0.1,0,0.2,0,0.2,0l0.5,0.3
							c0,0,0,0,0,0.1l0,0.1c0,0,0,0.1,0,0.1l-0.5,0.3c-0.1,0-0.2,0-0.2,0l-0.5-0.3C37.3,34.6,37.3,34.5,37.3,34.4L37.3,34.4z"/>
						<path id="XMLID_45319_" class="st24" d="M38.1,34.1l0.5,0.3c0.1,0,0.1,0.1,0,0.2l-0.5,0.3c-0.1,0-0.2,0-0.2,0l-0.5-0.3
							c-0.1,0-0.1-0.1,0-0.2l0.5-0.3C37.9,34,38,34,38.1,34.1z"/>
					</g>
				</g>
				<g id="XMLID_45313_">
					<g id="XMLID_45314_">
						<path id="XMLID_45316_" class="st16" d="M38.2,34.9C38.2,34.9,38.2,34.9,38.2,34.9l0.5-0.4c0.1,0,0.2,0,0.2,0l0.5,0.3
							c0,0,0,0,0,0.1l0,0.1c0,0,0,0.1,0,0.1L39,35.4c-0.1,0-0.2,0-0.2,0l-0.5-0.3C38.2,35.1,38.2,35,38.2,34.9L38.2,34.9z"/>
						<path id="XMLID_45315_" class="st24" d="M39,34.6l0.5,0.3c0.1,0,0.1,0.1,0,0.2L39,35.3c-0.1,0-0.2,0-0.2,0L38.2,35
							c-0.1,0-0.1-0.1,0-0.2l0.5-0.3C38.8,34.5,38.9,34.5,39,34.6z"/>
					</g>
				</g>
			</g>
			<g id="XMLID_45303_">
				<g id="XMLID_45308_">
					<g id="XMLID_45309_">
						<path id="XMLID_45311_" class="st16" d="M39,35.4C39.1,35.4,39.1,35.3,39,35.4l0.5-0.4c0.1,0,0.2,0,0.2,0l0.5,0.3
							c0,0,0,0,0,0.1v0.1c0,0,0,0.1,0,0.1l-0.5,0.3c-0.1,0-0.2,0-0.2,0l-0.5-0.3C39.1,35.6,39,35.5,39,35.4L39,35.4z"/>
						<path id="XMLID_45310_" class="st24" d="M39.8,35l0.5,0.3c0.1,0,0.1,0.1,0,0.2l-0.5,0.3c-0.1,0-0.2,0-0.2,0l-0.5-0.3
							c-0.1,0-0.1-0.1,0-0.2l0.5-0.3C39.7,35,39.7,35,39.8,35z"/>
					</g>
				</g>
				<g id="XMLID_45304_">
					<g id="XMLID_45305_">
						<path id="XMLID_45307_" class="st16" d="M39.9,35.9C39.9,35.9,39.9,35.8,39.9,35.9l0.5-0.4c0.1,0,0.2,0,0.2,0l0.5,0.3
							c0,0,0,0,0,0.1l0,0.1c0,0,0,0.1,0,0.1l-0.5,0.3c-0.1,0-0.2,0-0.2,0L40,36.1C39.9,36.1,39.9,36,39.9,35.9L39.9,35.9z"/>
						<path id="XMLID_45306_" class="st24" d="M40.7,35.5l0.5,0.3c0.1,0,0.1,0.1,0,0.2l-0.5,0.3c-0.1,0-0.2,0-0.2,0L40,36
							c-0.1,0-0.1-0.1,0-0.2l0.5-0.3C40.5,35.5,40.6,35.5,40.7,35.5z"/>
					</g>
				</g>
			</g>
			<g id="XMLID_45294_">
				<g id="XMLID_45299_">
					<g id="XMLID_45300_">
						<path id="XMLID_45302_" class="st16" d="M40.8,36.4C40.8,36.4,40.8,36.3,40.8,36.4l0.5-0.4c0.1,0,0.2,0,0.2,0l0.5,0.3
							c0,0,0,0,0,0.1v0.1c0,0,0,0.1,0,0.1l-0.5,0.3c-0.1,0-0.2,0-0.2,0l-0.5-0.3C40.8,36.6,40.8,36.5,40.8,36.4L40.8,36.4z"/>
						<path id="XMLID_45301_" class="st24" d="M41.5,36l0.5,0.3c0.1,0,0.1,0.1,0,0.2l-0.5,0.3c-0.1,0-0.2,0-0.2,0l-0.5-0.3
							c-0.1,0-0.1-0.1,0-0.2l0.5-0.3C41.4,36,41.5,36,41.5,36z"/>
					</g>
				</g>
				<g id="XMLID_45295_">
					<g id="XMLID_45296_">
						<path id="XMLID_45298_" class="st16" d="M41.6,36.9C41.6,36.9,41.6,36.8,41.6,36.9l0.5-0.4c0.1,0,0.2,0,0.2,0l0.5,0.3
							c0,0,0,0,0,0.1l0,0.1c0,0,0,0.1,0,0.1l-0.5,0.3c-0.1,0-0.2,0-0.2,0l-0.5-0.3C41.6,37.1,41.6,37,41.6,36.9L41.6,36.9z"/>
						<path id="XMLID_45297_" class="st24" d="M42.4,36.5l0.5,0.3c0.1,0,0.1,0.1,0,0.2l-0.5,0.3c-0.1,0-0.2,0-0.2,0L41.7,37
							c-0.1,0-0.1-0.1,0-0.2l0.5-0.3C42.2,36.5,42.3,36.5,42.4,36.5z"/>
					</g>
				</g>
			</g>
			<g id="XMLID_45285_">
				<g id="XMLID_45290_">
					<g id="XMLID_45291_">
						<path id="XMLID_45293_" class="st16" d="M42.5,37.4C42.5,37.4,42.5,37.3,42.5,37.4L43,37c0.1,0,0.2,0,0.2,0l0.5,0.3
							c0,0,0,0,0,0.1v0.1c0,0,0,0.1,0,0.1l-0.5,0.3c-0.1,0-0.2,0-0.2,0l-0.5-0.3C42.5,37.5,42.5,37.5,42.5,37.4L42.5,37.4z"/>
						<path id="XMLID_45292_" class="st24" d="M43.3,37l0.5,0.3c0.1,0,0.1,0.1,0,0.2l-0.5,0.3c-0.1,0-0.2,0-0.2,0l-0.5-0.3
							c-0.1,0-0.1-0.1,0-0.2L43,37C43.1,37,43.2,37,43.3,37z"/>
					</g>
				</g>
				<g id="XMLID_45286_">
					<g id="XMLID_45287_">
						<path id="XMLID_45289_" class="st16" d="M43.3,37.9C43.3,37.9,43.4,37.8,43.3,37.9l0.5-0.4c0.1,0,0.2,0,0.2,0l0.5,0.3
							c0,0,0,0,0,0.1l0,0.1c0,0,0,0.1,0,0.1l-0.5,0.3c-0.1,0-0.2,0-0.2,0l-0.5-0.3C43.4,38,43.3,38,43.3,37.9L43.3,37.9z"/>
						<path id="XMLID_45288_" class="st24" d="M44.1,37.5l0.5,0.3c0.1,0,0.1,0.1,0,0.2l-0.5,0.3c-0.1,0-0.2,0-0.2,0L43.4,38
							c-0.1,0-0.1-0.1,0-0.2l0.5-0.3C44,37.5,44,37.5,44.1,37.5z"/>
					</g>
				</g>
			</g>
			<g id="XMLID_45276_">
				<g id="XMLID_45281_">
					<g id="XMLID_45282_">
						<path id="XMLID_45284_" class="st16" d="M44.2,38.4C44.2,38.4,44.2,38.3,44.2,38.4l0.5-0.4c0.1,0,0.2,0,0.2,0l0.5,0.3
							c0,0,0,0,0,0.1v0.1c0,0,0,0.1,0,0.1L45,38.9c-0.1,0-0.2,0-0.2,0l-0.5-0.3C44.2,38.5,44.2,38.5,44.2,38.4L44.2,38.4z"/>
						<path id="XMLID_45283_" class="st24" d="M45,38l0.5,0.3c0.1,0,0.1,0.1,0,0.2L45,38.8c-0.1,0-0.2,0-0.2,0l-0.5-0.3
							c-0.1,0-0.1-0.1,0-0.2l0.5-0.3C44.8,38,44.9,38,45,38z"/>
					</g>
				</g>
				<g id="XMLID_45277_">
					<g id="XMLID_45278_">
						<path id="XMLID_45280_" class="st16" d="M45.1,38.9C45.1,38.9,45.1,38.8,45.1,38.9l0.5-0.4c0.1,0,0.2,0,0.2,0l0.5,0.3
							c0,0,0,0,0,0.1l0,0.1c0,0,0,0.1,0,0.1l-0.5,0.3c-0.1,0-0.2,0-0.2,0l-0.5-0.3C45.1,39,45.1,39,45.1,38.9L45.1,38.9z"/>
						<path id="XMLID_45279_" class="st24" d="M45.8,38.5l0.5,0.3c0.1,0,0.1,0.1,0,0.2l-0.5,0.3c-0.1,0-0.2,0-0.2,0L45.1,39
							c-0.1,0-0.1-0.1,0-0.2l0.5-0.3C45.7,38.5,45.8,38.5,45.8,38.5z"/>
					</g>
				</g>
			</g>
			<g id="XMLID_45271_">
				<g id="XMLID_45272_">
					<g id="XMLID_45273_">
						<path id="XMLID_45275_" class="st16" d="M45.9,39.4C45.9,39.3,45.9,39.3,45.9,39.4l0.5-0.4c0.1,0,0.2,0,0.2,0l0.5,0.3
							c0,0,0,0,0,0.1v0.1c0,0,0,0.1,0,0.1l-0.5,0.3c-0.1,0-0.2,0-0.2,0L46,39.6C45.9,39.5,45.9,39.5,45.9,39.4L45.9,39.4z"/>
						<path id="XMLID_45274_" class="st24" d="M46.7,39l0.5,0.3c0.1,0,0.1,0.1,0,0.2l-0.5,0.3c-0.1,0-0.2,0-0.2,0L46,39.5
							c-0.1,0-0.1-0.1,0-0.2l0.5-0.3C46.5,39,46.6,39,46.7,39z"/>
					</g>
				</g>
			</g>
		</g>
		<g id="XMLID_45174_">
			<g id="XMLID_45243_">
				<g id="XMLID_45257_">
					<g id="XMLID_45264_">
						<g id="XMLID_45265_">
							<g id="XMLID_45266_">
								<g id="XMLID_45267_">
									<path id="XMLID_45269_" class="st16" d="M46.7,38.9C46.8,38.8,46.8,38.8,46.7,38.9l0.3-0.2c0.1,0,0.2,0,0.2,0l0.5,0.3
										c0,0,0,0,0,0.1l0,0.1c0,0,0,0.1,0,0.1l-0.2,0.1c-0.1,0-0.2,0-0.2,0l-0.5-0.3C46.8,39,46.7,39,46.7,38.9L46.7,38.9z"/>
									<path id="XMLID_45268_" class="st24" d="M47.2,38.7l0.5,0.3c0.1,0,0.1,0.1,0,0.2l-0.2,0.1c-0.1,0-0.2,0-0.2,0L46.8,39
										c-0.1,0-0.1-0.1,0-0.2l0.2-0.1C47.1,38.6,47.2,38.6,47.2,38.7z"/>
								</g>
							</g>
						</g>
					</g>
					<g id="XMLID_45258_">
						<g id="XMLID_45259_">
							<g id="XMLID_45260_">
								<g id="XMLID_45261_">
									<path id="XMLID_45263_" class="st16" d="M45.9,38.4C45.9,38.3,45.9,38.3,45.9,38.4l0.3-0.2c0.1,0,0.2,0,0.2,0l0.5,0.3
										c0,0,0,0,0,0.1l0,0.1c0,0,0,0.1,0,0.1l-0.2,0.1c-0.1,0-0.2,0-0.2,0l-0.5-0.3C45.9,38.5,45.9,38.5,45.9,38.4L45.9,38.4z"/>
									<path id="XMLID_45262_" class="st24" d="M46.4,38.2l0.5,0.3c0.1,0,0.1,0.1,0,0.2l-0.2,0.1c-0.1,0-0.2,0-0.2,0l-0.5-0.3
										c-0.1,0-0.1-0.1,0-0.2l0.2-0.1C46.2,38.1,46.3,38.1,46.4,38.2z"/>
								</g>
							</g>
						</g>
					</g>
				</g>
				<g id="XMLID_45244_">
					<g id="XMLID_45251_">
						<g id="XMLID_45252_">
							<g id="XMLID_45253_">
								<g id="XMLID_45254_">
									<path id="XMLID_45256_" class="st16" d="M45,37.9C45,37.8,45,37.8,45,37.9l0.3-0.2c0.1,0,0.2,0,0.2,0L46,38c0,0,0,0,0,0.1
										v0.1c0,0,0,0.1,0,0.1l-0.2,0.1c-0.1,0-0.2,0-0.2,0L45,38C45,38,45,38,45,37.9L45,37.9z"/>
									<path id="XMLID_45255_" class="st24" d="M45.5,37.7L46,38c0.1,0,0.1,0.1,0,0.2l-0.2,0.1c-0.1,0-0.2,0-0.2,0L45,37.9
										c-0.1,0-0.1-0.1,0-0.2l0.2-0.1C45.3,37.6,45.4,37.6,45.5,37.7z"/>
								</g>
							</g>
						</g>
					</g>
					<g id="XMLID_45245_">
						<g id="XMLID_45246_">
							<g id="XMLID_45247_">
								<g id="XMLID_45248_">
									<path id="XMLID_45250_" class="st16" d="M44.1,37.3C44.1,37.3,44.1,37.3,44.1,37.3l0.3-0.2c0.1,0,0.2,0,0.2,0l0.5,0.3
										c0,0,0,0,0,0.1v0.1c0,0,0,0.1,0,0.1l-0.2,0.1c-0.1,0-0.2,0-0.2,0l-0.5-0.3C44.1,37.5,44.1,37.5,44.1,37.3L44.1,37.3z"/>
									<path id="XMLID_45249_" class="st24" d="M44.6,37.2l0.5,0.3c0.1,0,0.1,0.1,0,0.2l-0.2,0.1c-0.1,0-0.2,0-0.2,0l-0.5-0.3
										c-0.1,0-0.1-0.1,0-0.2l0.2-0.1C44.4,37.1,44.5,37.1,44.6,37.2z"/>
								</g>
							</g>
						</g>
					</g>
				</g>
			</g>
			<g id="XMLID_45216_">
				<g id="XMLID_45230_">
					<g id="XMLID_45237_">
						<g id="XMLID_45238_">
							<g id="XMLID_45239_">
								<g id="XMLID_45240_">
									<path id="XMLID_45242_" class="st16" d="M43.2,36.8C43.2,36.8,43.3,36.8,43.2,36.8l0.3-0.2c0.1,0,0.2,0,0.2,0l0.5,0.3
										c0,0,0,0,0,0.1l0,0.1c0,0,0,0.1,0,0.1L44,37.3c-0.1,0-0.2,0-0.2,0L43.3,37C43.2,37,43.2,37,43.2,36.8L43.2,36.8z"/>
									<path id="XMLID_45241_" class="st24" d="M43.7,36.6l0.5,0.3c0.1,0,0.1,0.1,0,0.2L44,37.2c-0.1,0-0.2,0-0.2,0l-0.5-0.3
										c-0.1,0-0.1-0.1,0-0.2l0.2-0.1C43.6,36.6,43.7,36.6,43.7,36.6z"/>
								</g>
							</g>
						</g>
					</g>
					<g id="XMLID_45231_">
						<g id="XMLID_45232_">
							<g id="XMLID_45233_">
								<g id="XMLID_45234_">
									<path id="XMLID_45236_" class="st16" d="M42.4,36.3C42.4,36.3,42.4,36.3,42.4,36.3l0.3-0.2c0.1,0,0.2,0,0.2,0l0.5,0.3
										c0,0,0,0,0,0.1l0,0.1c0,0,0,0.1,0,0.1l-0.2,0.1c-0.1,0-0.2,0-0.2,0l-0.5-0.3C42.4,36.5,42.4,36.5,42.4,36.3L42.4,36.3z"/>
									<path id="XMLID_45235_" class="st24" d="M42.9,36.1l0.5,0.3c0.1,0,0.1,0.1,0,0.2l-0.2,0.1c-0.1,0-0.2,0-0.2,0l-0.5-0.3
										c-0.1,0-0.1-0.1,0-0.2l0.2-0.1C42.7,36.1,42.8,36.1,42.9,36.1z"/>
								</g>
							</g>
						</g>
					</g>
				</g>
				<g id="XMLID_45217_">
					<g id="XMLID_45224_">
						<g id="XMLID_45225_">
							<g id="XMLID_45226_">
								<g id="XMLID_45227_">
									<path id="XMLID_45229_" class="st16" d="M41.5,35.8C41.5,35.8,41.5,35.8,41.5,35.8l0.3-0.2c0.1,0,0.2,0,0.2,0l0.5,0.3
										c0,0,0,0,0,0.1v0.1c0,0,0,0.1,0,0.1l-0.2,0.1c-0.1,0-0.2,0-0.2,0L41.5,36C41.5,36,41.5,36,41.5,35.8L41.5,35.8z"/>
									<path id="XMLID_45228_" class="st24" d="M42,35.6l0.5,0.3c0.1,0,0.1,0.1,0,0.2l-0.2,0.1c-0.1,0-0.2,0-0.2,0l-0.5-0.3
										c-0.1,0-0.1-0.1,0-0.2l0.2-0.1C41.8,35.6,41.9,35.6,42,35.6z"/>
								</g>
							</g>
						</g>
					</g>
					<g id="XMLID_45218_">
						<g id="XMLID_45219_">
							<g id="XMLID_45220_">
								<g id="XMLID_45221_">
									<path id="XMLID_45223_" class="st16" d="M40.6,35.3C40.6,35.3,40.6,35.3,40.6,35.3l0.3-0.2c0.1,0,0.2,0,0.2,0l0.5,0.3
										c0,0,0,0,0,0.1v0.1c0,0,0,0.1,0,0.1l-0.2,0.1c-0.1,0-0.2,0-0.2,0l-0.5-0.3C40.6,35.5,40.6,35.4,40.6,35.3L40.6,35.3z"/>
									<path id="XMLID_45222_" class="st24" d="M41.1,35.1l0.5,0.3c0.1,0,0.1,0.1,0,0.2l-0.2,0.1c-0.1,0-0.2,0-0.2,0l-0.5-0.3
										c-0.1,0-0.1-0.1,0-0.2l0.2-0.1C40.9,35.1,41,35.1,41.1,35.1z"/>
								</g>
							</g>
						</g>
					</g>
				</g>
			</g>
			<g id="XMLID_45189_">
				<g id="XMLID_45203_">
					<g id="XMLID_45210_">
						<g id="XMLID_45211_">
							<g id="XMLID_45212_">
								<g id="XMLID_45213_">
									<path id="XMLID_45215_" class="st16" d="M39.7,34.8C39.7,34.8,39.7,34.8,39.7,34.8l0.3-0.2c0.1,0,0.2,0,0.2,0l0.5,0.3
										c0,0,0,0,0,0.1l0,0.1c0,0,0,0.1,0,0.1l-0.2,0.1c-0.1,0-0.2,0-0.2,0L39.8,35C39.7,35,39.7,34.9,39.7,34.8L39.7,34.8z"/>
									<path id="XMLID_45214_" class="st24" d="M40.2,34.6l0.5,0.3c0.1,0,0.1,0.1,0,0.2l-0.2,0.1c-0.1,0-0.2,0-0.2,0l-0.5-0.3
										c-0.1,0-0.1-0.1,0-0.2l0.2-0.1C40.1,34.6,40.1,34.6,40.2,34.6z"/>
								</g>
							</g>
						</g>
					</g>
					<g id="XMLID_45204_">
						<g id="XMLID_45205_">
							<g id="XMLID_45206_">
								<g id="XMLID_45207_">
									<path id="XMLID_45209_" class="st16" d="M38.8,34.3C38.8,34.3,38.9,34.2,38.8,34.3l0.3-0.2c0.1,0,0.2,0,0.2,0l0.5,0.3
										c0,0,0,0,0,0.1l0,0.1c0,0,0,0.1,0,0.1l-0.2,0.1c-0.1,0-0.2,0-0.2,0l-0.5-0.3C38.9,34.5,38.8,34.4,38.8,34.3L38.8,34.3z"/>
									<path id="XMLID_45208_" class="st24" d="M39.3,34.1l0.5,0.3c0.1,0,0.1,0.1,0,0.2l-0.2,0.1c-0.1,0-0.2,0-0.2,0l-0.5-0.3
										c-0.1,0-0.1-0.1,0-0.2l0.2-0.1C39.2,34.1,39.3,34.1,39.3,34.1z"/>
								</g>
							</g>
						</g>
					</g>
				</g>
				<g id="XMLID_45190_">
					<g id="XMLID_45197_">
						<g id="XMLID_45198_">
							<g id="XMLID_45199_">
								<g id="XMLID_45200_">
									<path id="XMLID_45202_" class="st16" d="M38,33.8C38,33.8,38,33.7,38,33.8l0.3-0.2c0.1,0,0.2,0,0.2,0l0.5,0.3
										c0,0,0,0,0,0.1v0.1c0,0,0,0.1,0,0.1l-0.2,0.1c-0.1,0-0.2,0-0.2,0L38,34C38,34,38,33.9,38,33.8L38,33.8z"/>
									<path id="XMLID_45201_" class="st24" d="M38.5,33.6l0.5,0.3c0.1,0,0.1,0.1,0,0.2l-0.2,0.1c-0.1,0-0.2,0-0.2,0L38,33.9
										c-0.1,0-0.1-0.1,0-0.2l0.2-0.1C38.3,33.6,38.4,33.6,38.5,33.6z"/>
								</g>
							</g>
						</g>
					</g>
					<g id="XMLID_45191_">
						<g id="XMLID_45192_">
							<g id="XMLID_45193_">
								<g id="XMLID_45194_">
									<path id="XMLID_45196_" class="st16" d="M37.1,33.3C37.1,33.3,37.1,33.2,37.1,33.3l0.3-0.2c0.1,0,0.2,0,0.2,0l0.5,0.3
										c0,0,0,0,0,0.1v0.1c0,0,0,0.1,0,0.1l-0.2,0.1c-0.1,0-0.2,0-0.2,0l-0.5-0.3C37.1,33.4,37.1,33.4,37.1,33.3L37.1,33.3z"/>
									<path id="XMLID_45195_" class="st24" d="M37.6,33.1l0.5,0.3c0.1,0,0.1,0.1,0,0.2l-0.2,0.1c-0.1,0-0.2,0-0.2,0l-0.5-0.3
										c-0.1,0-0.1-0.1,0-0.2l0.2-0.1C37.4,33,37.5,33,37.6,33.1z"/>
								</g>
							</g>
						</g>
					</g>
				</g>
			</g>
			<g id="XMLID_45175_">
				<g id="XMLID_45176_">
					<g id="XMLID_45183_">
						<g id="XMLID_45184_">
							<g id="XMLID_45185_">
								<g id="XMLID_45186_">
									<path id="XMLID_45188_" class="st16" d="M36.2,32.8C36.2,32.7,36.2,32.7,36.2,32.8l0.3-0.2c0.1,0,0.2,0,0.2,0l0.5,0.3
										c0,0,0,0,0,0.1l0,0.1c0,0,0,0.1,0,0.1L37,33.3c-0.1,0-0.2,0-0.2,0L36.2,33C36.2,32.9,36.2,32.9,36.2,32.8L36.2,32.8z"/>
									<path id="XMLID_45187_" class="st24" d="M36.7,32.6l0.5,0.3c0.1,0,0.1,0.1,0,0.2L37,33.2c-0.1,0-0.2,0-0.2,0l-0.5-0.3
										c-0.1,0-0.1-0.1,0-0.2l0.2-0.1C36.5,32.5,36.6,32.5,36.7,32.6z"/>
								</g>
							</g>
						</g>
					</g>
					<g id="XMLID_45177_">
						<g id="XMLID_45178_">
							<g id="XMLID_45179_">
								<g id="XMLID_45180_">
									<path id="XMLID_45182_" class="st16" d="M35.3,32.3C35.3,32.2,35.3,32.2,35.3,32.3l0.3-0.2c0.1,0,0.2,0,0.2,0l0.5,0.3
										c0,0,0,0,0,0.1l0,0.1c0,0,0,0.1,0,0.1l-0.2,0.1c-0.1,0-0.2,0-0.2,0l-0.5-0.3C35.3,32.4,35.3,32.4,35.3,32.3L35.3,32.3z"/>
									<path id="XMLID_45181_" class="st24" d="M35.8,32.1l0.5,0.3c0.1,0,0.1,0.1,0,0.2l-0.2,0.1c-0.1,0-0.2,0-0.2,0l-0.5-0.3
										c-0.1,0-0.1-0.1,0-0.2l0.2-0.1C35.7,32,35.7,32,35.8,32.1z"/>
								</g>
							</g>
						</g>
					</g>
				</g>
			</g>
		</g>
		<g id="XMLID_45113_">
			<g id="XMLID_45168_">
				<g id="XMLID_45169_">
					<g id="XMLID_45170_">
						<g id="XMLID_45171_">
							<path id="XMLID_45173_" class="st16" d="M43.8,40.1C43.8,40.1,43.8,40,43.8,40.1l0.5-0.4c0.1,0,0.2,0,0.2,0l1,0.6
								c0,0,0,0,0,0.1v0.1c0,0,0,0.1,0,0.1L45,40.8c-0.1,0-0.2,0-0.2,0l-1-0.6C43.8,40.3,43.8,40.2,43.8,40.1L43.8,40.1z"/>
							<path id="XMLID_45172_" class="st24" d="M44.5,39.7l1,0.6c0.1,0,0.1,0.1,0,0.2L45,40.7c-0.1,0-0.2,0-0.2,0l-1-0.6
								c-0.1,0-0.1-0.1,0-0.2l0.5-0.3C44.4,39.7,44.5,39.7,44.5,39.7z"/>
						</g>
					</g>
				</g>
			</g>
			<g id="XMLID_45164_">
				<g id="XMLID_45165_">
					<path id="XMLID_45167_" class="st16" d="M33.5,34.1C33.5,34.1,33.5,34.1,33.5,34.1l0.5-0.4c0.1,0,0.2,0,0.2,0l0.5,0.3
						c0,0,0,0,0,0.1v0.1c0,0,0,0.1,0,0.1l-0.5,0.3c-0.1,0-0.2,0-0.2,0l-0.5-0.3C33.5,34.3,33.5,34.3,33.5,34.1L33.5,34.1z"/>
					<path id="XMLID_45166_" class="st24" d="M34.2,33.8l0.5,0.3c0.1,0,0.1,0.1,0,0.2l-0.5,0.3c-0.1,0-0.2,0-0.2,0l-0.5-0.3
						c-0.1,0-0.1-0.1,0-0.2l0.5-0.3C34.1,33.7,34.2,33.7,34.2,33.8z"/>
				</g>
			</g>
			<g id="XMLID_45155_">
				<g id="XMLID_45160_">
					<g id="XMLID_45161_">
						<path id="XMLID_45163_" class="st16" d="M34.3,34.6C34.3,34.6,34.3,34.6,34.3,34.6l0.5-0.4c0.1,0,0.2,0,0.2,0l0.5,0.3
							c0,0,0,0,0,0.1l0,0.1c0,0,0,0.1,0,0.1l-0.5,0.3c-0.1,0-0.2,0-0.2,0l-0.5-0.3C34.3,34.8,34.3,34.8,34.3,34.6L34.3,34.6z"/>
						<path id="XMLID_45162_" class="st24" d="M35.1,34.3l0.5,0.3c0.1,0,0.1,0.1,0,0.2L35.1,35c-0.1,0-0.2,0-0.2,0l-0.5-0.3
							c-0.1,0-0.1-0.1,0-0.2l0.5-0.3C34.9,34.2,35,34.2,35.1,34.3z"/>
					</g>
				</g>
				<g id="XMLID_45156_">
					<g id="XMLID_45157_">
						<path id="XMLID_45159_" class="st16" d="M35.2,35.1C35.2,35.1,35.2,35.1,35.2,35.1l0.5-0.4c0.1,0,0.2,0,0.2,0l0.5,0.3
							c0,0,0,0,0,0.1v0.1c0,0,0,0.1,0,0.1L36,35.6c-0.1,0-0.2,0-0.2,0l-0.5-0.3C35.2,35.3,35.2,35.3,35.2,35.1L35.2,35.1z"/>
						<path id="XMLID_45158_" class="st24" d="M36,34.8l0.5,0.3c0.1,0,0.1,0.1,0,0.2L36,35.5c-0.1,0-0.2,0-0.2,0l-0.5-0.3
							c-0.1,0-0.1-0.1,0-0.2l0.5-0.3C35.8,34.7,35.9,34.7,36,34.8z"/>
					</g>
				</g>
			</g>
			<g id="XMLID_45146_">
				<g id="XMLID_45151_">
					<g id="XMLID_45152_">
						<path id="XMLID_45154_" class="st16" d="M36,35.6C36,35.6,36.1,35.6,36,35.6l0.5-0.4c0.1,0,0.2,0,0.2,0l0.5,0.3c0,0,0,0,0,0.1
							v0.1c0,0,0,0.1,0,0.1l-0.5,0.3c-0.1,0-0.2,0-0.2,0l-0.5-0.3C36.1,35.8,36,35.7,36,35.6L36,35.6z"/>
						<path id="XMLID_45153_" class="st24" d="M36.8,35.3l0.5,0.3c0.1,0,0.1,0.1,0,0.2L36.8,36c-0.1,0-0.2,0-0.2,0l-0.5-0.3
							c-0.1,0-0.1-0.1,0-0.2l0.5-0.3C36.7,35.2,36.7,35.2,36.8,35.3z"/>
					</g>
				</g>
				<g id="XMLID_45147_">
					<g id="XMLID_45148_">
						<path id="XMLID_45150_" class="st16" d="M36.9,36.1C36.9,36.1,36.9,36.1,36.9,36.1l0.5-0.4c0.1,0,0.2,0,0.2,0l0.5,0.3
							c0,0,0,0,0,0.1l0,0.1c0,0,0,0.1,0,0.1l-0.5,0.3c-0.1,0-0.2,0-0.2,0l-0.5-0.3C36.9,36.3,36.9,36.2,36.9,36.1L36.9,36.1z"/>
						<path id="XMLID_45149_" class="st24" d="M37.7,35.8l0.5,0.3c0.1,0,0.1,0.1,0,0.2l-0.5,0.3c-0.1,0-0.2,0-0.2,0l-0.5-0.3
							c-0.1,0-0.1-0.1,0-0.2l0.5-0.3C37.5,35.7,37.6,35.7,37.7,35.8z"/>
					</g>
				</g>
			</g>
			<g id="XMLID_45137_">
				<g id="XMLID_45142_">
					<g id="XMLID_45143_">
						<path id="XMLID_45145_" class="st16" d="M37.8,36.6C37.8,36.6,37.8,36.6,37.8,36.6l0.5-0.4c0.1,0,0.2,0,0.2,0l0.5,0.3
							c0,0,0,0,0,0.1l0,0.1c0,0,0,0.1,0,0.1l-0.5,0.3c-0.1,0-0.2,0-0.2,0l-0.5-0.3C37.8,36.8,37.8,36.7,37.8,36.6L37.8,36.6z"/>
						<path id="XMLID_45144_" class="st24" d="M38.5,36.3l0.5,0.3c0.1,0,0.1,0.1,0,0.2L38.5,37c-0.1,0-0.2,0-0.2,0l-0.5-0.3
							c-0.1,0-0.1-0.1,0-0.2l0.5-0.3C38.4,36.2,38.5,36.2,38.5,36.3z"/>
					</g>
				</g>
				<g id="XMLID_45138_">
					<g id="XMLID_45139_">
						<path id="XMLID_45141_" class="st16" d="M38.6,37.1C38.6,37.1,38.6,37.1,38.6,37.1l0.5-0.4c0.1,0,0.2,0,0.2,0l0.5,0.3
							c0,0,0,0,0,0.1v0.1c0,0,0,0.1,0,0.1l-0.5,0.3c-0.1,0-0.2,0-0.2,0l-0.5-0.3C38.6,37.3,38.6,37.2,38.6,37.1L38.6,37.1z"/>
						<path id="XMLID_45140_" class="st24" d="M39.4,36.8l0.5,0.3c0.1,0,0.1,0.1,0,0.2l-0.5,0.3c-0.1,0-0.2,0-0.2,0l-0.5-0.3
							c-0.1,0-0.1-0.1,0-0.2l0.5-0.3C39.2,36.7,39.3,36.7,39.4,36.8z"/>
					</g>
				</g>
			</g>
			<g id="XMLID_45128_">
				<g id="XMLID_45133_">
					<g id="XMLID_45134_">
						<path id="XMLID_45136_" class="st16" d="M39.5,37.6C39.5,37.6,39.5,37.6,39.5,37.6l0.5-0.4c0.1,0,0.2,0,0.2,0l0.5,0.3
							c0,0,0,0,0,0.1v0.1c0,0,0,0.1,0,0.1l-0.5,0.3c-0.1,0-0.2,0-0.2,0l-0.5-0.3C39.5,37.8,39.5,37.7,39.5,37.6L39.5,37.6z"/>
						<path id="XMLID_45135_" class="st24" d="M40.2,37.3l0.5,0.3c0.1,0,0.1,0.1,0,0.2L40.3,38c-0.1,0-0.2,0-0.2,0l-0.5-0.3
							c-0.1,0-0.1-0.1,0-0.2l0.5-0.3C40.1,37.2,40.2,37.2,40.2,37.3z"/>
					</g>
				</g>
				<g id="XMLID_45129_">
					<g id="XMLID_45130_">
						<path id="XMLID_45132_" class="st16" d="M40.3,38.1C40.3,38.1,40.4,38,40.3,38.1l0.5-0.4c0.1,0,0.2,0,0.2,0l0.5,0.3
							c0,0,0,0,0,0.1l0,0.1c0,0,0,0.1,0,0.1l-0.5,0.3c-0.1,0-0.2,0-0.2,0l-0.5-0.3C40.4,38.3,40.3,38.2,40.3,38.1L40.3,38.1z"/>
						<path id="XMLID_45131_" class="st24" d="M41.1,37.7l0.5,0.3c0.1,0,0.1,0.1,0,0.2l-0.5,0.3c-0.1,0-0.2,0-0.2,0l-0.5-0.3
							c-0.1,0-0.1-0.1,0-0.2l0.5-0.3C40.9,37.7,41,37.7,41.1,37.7z"/>
					</g>
				</g>
			</g>
			<g id="XMLID_45119_">
				<g id="XMLID_45124_">
					<g id="XMLID_45125_">
						<path id="XMLID_45127_" class="st16" d="M41.2,38.6C41.2,38.6,41.2,38.5,41.2,38.6l0.5-0.4c0.1,0,0.2,0,0.2,0l0.5,0.3
							c0,0,0,0,0,0.1l0,0.1c0,0,0,0.1,0,0.1L42,39.1c-0.1,0-0.2,0-0.2,0l-0.5-0.3C41.2,38.8,41.2,38.7,41.2,38.6L41.2,38.6z"/>
						<path id="XMLID_45126_" class="st24" d="M42,38.2l0.5,0.3c0.1,0,0.1,0.1,0,0.2L42,39c-0.1,0-0.2,0-0.2,0l-0.5-0.3
							c-0.1,0-0.1-0.1,0-0.2l0.5-0.3C41.8,38.2,41.9,38.2,42,38.2z"/>
					</g>
				</g>
				<g id="XMLID_45120_">
					<g id="XMLID_45121_">
						<path id="XMLID_45123_" class="st16" d="M42.1,39.1C42.1,39.1,42.1,39,42.1,39.1l0.5-0.4c0.1,0,0.2,0,0.2,0l0.5,0.3
							c0,0,0,0,0,0.1v0.1c0,0,0,0.1,0,0.1l-0.5,0.3c-0.1,0-0.2,0-0.2,0l-0.5-0.3C42.1,39.3,42.1,39.2,42.1,39.1L42.1,39.1z"/>
						<path id="XMLID_45122_" class="st24" d="M42.8,38.7l0.5,0.3c0.1,0,0.1,0.1,0,0.2l-0.5,0.3c-0.1,0-0.2,0-0.2,0l-0.5-0.3
							c-0.1,0-0.1-0.1,0-0.2l0.5-0.3C42.7,38.7,42.8,38.7,42.8,38.7z"/>
					</g>
				</g>
			</g>
			<g id="XMLID_45114_">
				<g id="XMLID_45115_">
					<g id="XMLID_45116_">
						<path id="XMLID_45118_" class="st16" d="M42.9,39.6C42.9,39.6,42.9,39.5,42.9,39.6l0.5-0.4c0.1,0,0.2,0,0.2,0l0.5,0.3
							c0,0,0,0,0,0.1l0,0.1c0,0,0,0.1,0,0.1l-0.5,0.3c-0.1,0-0.2,0-0.2,0L43,39.8C42.9,39.7,42.9,39.7,42.9,39.6L42.9,39.6z"/>
						<path id="XMLID_45117_" class="st24" d="M43.7,39.2l0.5,0.3c0.1,0,0.1,0.1,0,0.2L43.7,40c-0.1,0-0.2,0-0.2,0L43,39.7
							c-0.1,0-0.1-0.1,0-0.2l0.5-0.3C43.5,39.2,43.6,39.2,43.7,39.2z"/>
					</g>
				</g>
			</g>
		</g>
		<g id="XMLID_45049_">
			<g id="XMLID_45108_">
				<g id="XMLID_45109_">
					<g id="XMLID_45110_">
						<path id="XMLID_45112_" class="st16" d="M44.8,39.7C44.8,39.7,44.8,39.6,44.8,39.7l0.5-0.4c0.1,0,0.2,0,0.2,0l0.8,0.5
							c0,0,0,0,0,0.1l0,0.1c0,0,0,0.1,0,0.1l-0.5,0.3c-0.1,0-0.2,0-0.2,0l-0.8-0.5C44.8,39.8,44.8,39.8,44.8,39.7L44.8,39.7z"/>
						<path id="XMLID_45111_" class="st24" d="M45.6,39.3l0.8,0.5c0.1,0,0.1,0.1,0,0.2l-0.5,0.3c-0.1,0-0.2,0-0.2,0l-0.8-0.5
							c-0.1,0-0.1-0.1,0-0.2l0.5-0.3C45.4,39.3,45.5,39.3,45.6,39.3z"/>
					</g>
				</g>
			</g>
			<g id="XMLID_45053_">
				<g id="XMLID_45104_">
					<g id="XMLID_45105_">
						<path id="XMLID_45107_" class="st16" d="M34.5,33.7C34.5,33.7,34.5,33.7,34.5,33.7l0.5-0.4c0.1,0,0.2,0,0.2,0l0.5,0.3
							c0,0,0,0,0,0.1v0.1c0,0,0,0.1,0,0.1l-0.5,0.3c-0.1,0-0.2,0-0.2,0l-0.5-0.3C34.5,33.9,34.5,33.9,34.5,33.7L34.5,33.7z"/>
						<path id="XMLID_45106_" class="st24" d="M35.2,33.4l0.5,0.3c0.1,0,0.1,0.1,0,0.2l-0.5,0.3c-0.1,0-0.2,0-0.2,0l-0.5-0.3
							c-0.1,0-0.1-0.1,0-0.2l0.5-0.3C35.1,33.3,35.2,33.3,35.2,33.4z"/>
					</g>
				</g>
				<g id="XMLID_45095_">
					<g id="XMLID_45100_">
						<g id="XMLID_45101_">
							<path id="XMLID_45103_" class="st16" d="M35.3,34.2C35.3,34.2,35.3,34.2,35.3,34.2l0.5-0.4c0.1,0,0.2,0,0.2,0l0.5,0.3
								c0,0,0,0,0,0.1v0.1c0,0,0,0.1,0,0.1l-0.5,0.3c-0.1,0-0.2,0-0.2,0l-0.5-0.3C35.3,34.4,35.3,34.4,35.3,34.2L35.3,34.2z"/>
							<path id="XMLID_45102_" class="st24" d="M36.1,33.9l0.5,0.3c0.1,0,0.1,0.1,0,0.2l-0.5,0.3c-0.1,0-0.2,0-0.2,0l-0.5-0.3
								c-0.1,0-0.1-0.1,0-0.2l0.5-0.3C35.9,33.8,36,33.8,36.1,33.9z"/>
						</g>
					</g>
					<g id="XMLID_45096_">
						<g id="XMLID_45097_">
							<path id="XMLID_45099_" class="st16" d="M36.2,34.7C36.2,34.7,36.2,34.7,36.2,34.7l0.5-0.4c0.1,0,0.2,0,0.2,0l0.5,0.3
								c0,0,0,0,0,0.1l0,0.1c0,0,0,0.1,0,0.1L37,35.2c-0.1,0-0.2,0-0.2,0l-0.5-0.3C36.2,34.9,36.2,34.8,36.2,34.7L36.2,34.7z"/>
							<path id="XMLID_45098_" class="st24" d="M37,34.4l0.5,0.3c0.1,0,0.1,0.1,0,0.2L37,35.1c-0.1,0-0.2,0-0.2,0l-0.5-0.3
								c-0.1,0-0.1-0.1,0-0.2l0.5-0.3C36.8,34.3,36.9,34.3,37,34.4z"/>
						</g>
					</g>
				</g>
				<g id="XMLID_45086_">
					<g id="XMLID_45091_">
						<g id="XMLID_45092_">
							<path id="XMLID_45094_" class="st16" d="M37,35.2C37,35.2,37.1,35.2,37,35.2l0.5-0.4c0.1,0,0.2,0,0.2,0l0.5,0.3
								c0,0,0,0,0,0.1l0,0.1c0,0,0,0.1,0,0.1l-0.5,0.3c-0.1,0-0.2,0-0.2,0l-0.5-0.3C37.1,35.4,37,35.3,37,35.2L37,35.2z"/>
							<path id="XMLID_45093_" class="st24" d="M37.8,34.9l0.5,0.3c0.1,0,0.1,0.1,0,0.2l-0.5,0.3c-0.1,0-0.2,0-0.2,0l-0.5-0.3
								c-0.1,0-0.1-0.1,0-0.2l0.5-0.3C37.7,34.8,37.7,34.8,37.8,34.9z"/>
						</g>
					</g>
					<g id="XMLID_45087_">
						<g id="XMLID_45088_">
							<path id="XMLID_45090_" class="st16" d="M37.9,35.7C37.9,35.7,37.9,35.7,37.9,35.7l0.5-0.4c0.1,0,0.2,0,0.2,0l0.5,0.3
								c0,0,0,0,0,0.1v0.1c0,0,0,0.1,0,0.1l-0.5,0.3c-0.1,0-0.2,0-0.2,0L38,35.9C37.9,35.9,37.9,35.8,37.9,35.7L37.9,35.7z"/>
							<path id="XMLID_45089_" class="st24" d="M38.7,35.4l0.5,0.3c0.1,0,0.1,0.1,0,0.2l-0.5,0.3c-0.1,0-0.2,0-0.2,0L38,35.8
								c-0.1,0-0.1-0.1,0-0.2l0.5-0.3C38.5,35.3,38.6,35.3,38.7,35.4z"/>
						</g>
					</g>
				</g>
				<g id="XMLID_45077_">
					<g id="XMLID_45082_">
						<g id="XMLID_45083_">
							<path id="XMLID_45085_" class="st16" d="M38.8,36.2C38.8,36.2,38.8,36.2,38.8,36.2l0.5-0.4c0.1,0,0.2,0,0.2,0l0.5,0.3
								c0,0,0,0,0,0.1v0.1c0,0,0,0.1,0,0.1l-0.5,0.3c-0.1,0-0.2,0-0.2,0l-0.5-0.3C38.8,36.4,38.8,36.3,38.8,36.2L38.8,36.2z"/>
							<path id="XMLID_45084_" class="st24" d="M39.5,35.9l0.5,0.3c0.1,0,0.1,0.1,0,0.2l-0.5,0.3c-0.1,0-0.2,0-0.2,0l-0.5-0.3
								c-0.1,0-0.1-0.1,0-0.2l0.5-0.3C39.4,35.8,39.5,35.8,39.5,35.9z"/>
						</g>
					</g>
					<g id="XMLID_45078_">
						<g id="XMLID_45079_">
							<path id="XMLID_45081_" class="st16" d="M39.6,36.7C39.6,36.7,39.6,36.7,39.6,36.7l0.5-0.4c0.1,0,0.2,0,0.2,0l0.5,0.3
								c0,0,0,0,0,0.1l0,0.1c0,0,0,0.1,0,0.1l-0.5,0.3c-0.1,0-0.2,0-0.2,0l-0.5-0.3C39.6,36.9,39.6,36.8,39.6,36.7L39.6,36.7z"/>
							<path id="XMLID_45080_" class="st24" d="M40.4,36.4l0.5,0.3c0.1,0,0.1,0.1,0,0.2l-0.5,0.3c-0.1,0-0.2,0-0.2,0l-0.5-0.3
								c-0.1,0-0.1-0.1,0-0.2l0.5-0.3C40.2,36.3,40.3,36.3,40.4,36.4z"/>
						</g>
					</g>
				</g>
				<g id="XMLID_45068_">
					<g id="XMLID_45073_">
						<g id="XMLID_45074_">
							<path id="XMLID_45076_" class="st16" d="M40.5,37.2C40.5,37.2,40.5,37.1,40.5,37.2l0.5-0.4c0.1,0,0.2,0,0.2,0l0.5,0.3
								c0,0,0,0,0,0.1l0,0.1c0,0,0,0.1,0,0.1l-0.5,0.3c-0.1,0-0.2,0-0.2,0l-0.5-0.3C40.5,37.4,40.5,37.3,40.5,37.2L40.5,37.2z"/>
							<path id="XMLID_45075_" class="st24" d="M41.3,36.8l0.5,0.3c0.1,0,0.1,0.1,0,0.2l-0.5,0.3c-0.1,0-0.2,0-0.2,0l-0.5-0.3
								c-0.1,0-0.1-0.1,0-0.2l0.5-0.3C41.1,36.8,41.2,36.8,41.3,36.8z"/>
						</g>
					</g>
					<g id="XMLID_45069_">
						<g id="XMLID_45070_">
							<path id="XMLID_45072_" class="st16" d="M41.3,37.7C41.3,37.7,41.4,37.6,41.3,37.7l0.5-0.4c0.1,0,0.2,0,0.2,0l0.5,0.3
								c0,0,0,0,0,0.1v0.1c0,0,0,0.1,0,0.1l-0.5,0.3c-0.1,0-0.2,0-0.2,0l-0.5-0.3C41.4,37.9,41.3,37.8,41.3,37.7L41.3,37.7z"/>
							<path id="XMLID_45071_" class="st24" d="M42.1,37.3l0.5,0.3c0.1,0,0.1,0.1,0,0.2l-0.5,0.3c-0.1,0-0.2,0-0.2,0l-0.5-0.3
								c-0.1,0-0.1-0.1,0-0.2l0.5-0.3C42,37.3,42,37.3,42.1,37.3z"/>
						</g>
					</g>
				</g>
				<g id="XMLID_45059_">
					<g id="XMLID_45064_">
						<g id="XMLID_45065_">
							<path id="XMLID_45067_" class="st16" d="M42.2,38.2C42.2,38.2,42.2,38.1,42.2,38.2l0.5-0.4c0.1,0,0.2,0,0.2,0l0.5,0.3
								c0,0,0,0,0,0.1l0,0.1c0,0,0,0.1,0,0.1L43,38.7c-0.1,0-0.2,0-0.2,0l-0.5-0.3C42.2,38.4,42.2,38.3,42.2,38.2L42.2,38.2z"/>
							<path id="XMLID_45066_" class="st24" d="M43,37.8l0.5,0.3c0.1,0,0.1,0.1,0,0.2L43,38.6c-0.1,0-0.2,0-0.2,0l-0.5-0.3
								c-0.1,0-0.1-0.1,0-0.2l0.5-0.3C42.8,37.8,42.9,37.8,43,37.8z"/>
						</g>
					</g>
					<g id="XMLID_45060_">
						<g id="XMLID_45061_">
							<path id="XMLID_45063_" class="st16" d="M43.1,38.7C43.1,38.7,43.1,38.6,43.1,38.7l0.5-0.4c0.1,0,0.2,0,0.2,0l0.5,0.3
								c0,0,0,0,0,0.1l0,0.1c0,0,0,0.1,0,0.1l-0.5,0.3c-0.1,0-0.2,0-0.2,0l-0.5-0.3C43.1,38.8,43.1,38.8,43.1,38.7L43.1,38.7z"/>
							<path id="XMLID_45062_" class="st24" d="M43.8,38.3l0.5,0.3c0.1,0,0.1,0.1,0,0.2l-0.5,0.3c-0.1,0-0.2,0-0.2,0l-0.5-0.3
								c-0.1,0-0.1-0.1,0-0.2l0.5-0.3C43.7,38.3,43.8,38.3,43.8,38.3z"/>
						</g>
					</g>
				</g>
				<g id="XMLID_45054_">
					<g id="XMLID_45055_">
						<g id="XMLID_45056_">
							<path id="XMLID_45058_" class="st16" d="M43.9,39.2C43.9,39.2,43.9,39.1,43.9,39.2l0.5-0.4c0.1,0,0.2,0,0.2,0l0.5,0.3
								c0,0,0,0,0,0.1l0,0.1c0,0,0,0.1,0,0.1l-0.5,0.3c-0.1,0-0.2,0-0.2,0L44,39.4C43.9,39.3,43.9,39.3,43.9,39.2L43.9,39.2z"/>
							<path id="XMLID_45057_" class="st24" d="M44.7,38.8l0.5,0.3c0.1,0,0.1,0.1,0,0.2l-0.5,0.3c-0.1,0-0.2,0-0.2,0L44,39.3
								c-0.1,0-0.1-0.1,0-0.2l0.5-0.3C44.5,38.8,44.6,38.8,44.7,38.8z"/>
						</g>
					</g>
				</g>
			</g>
			<g id="XMLID_45050_">
				<path id="XMLID_45052_" class="st16" d="M32.8,33.7C32.8,33.7,32.8,33.7,32.8,33.7l1.4-0.8c0.1,0,0.2,0,0.2,0l0.5,0.3
					c0,0,0,0,0,0.1l0,0.1c0,0,0,0.1,0,0.1l-0.5,0.3c-0.1,0-0.1,0-0.2,0l-0.1,0l-0.7,0.4c-0.1,0-0.2,0-0.2,0l-0.3-0.2
					C32.8,33.9,32.8,33.8,32.8,33.7L32.8,33.7z"/>
				<path id="XMLID_45051_" class="st24" d="M32.8,33.7l1-0.5c0,0,0,0,0,0l0.4-0.2c0.1,0,0.2,0,0.2,0l0.5,0.3c0.1,0,0.1,0.1,0,0.2
					l-0.5,0.3c-0.1,0-0.1,0-0.2,0l-0.1,0L33.4,34c-0.1,0-0.2,0-0.2,0l-0.3-0.2C32.7,33.8,32.7,33.7,32.8,33.7z"/>
			</g>
		</g>
		<g id="XMLID_44988_">
			<g id="XMLID_45044_">
				<g id="XMLID_45045_">
					<g id="XMLID_45046_">
						<path id="XMLID_45048_" class="st16" d="M43.2,40.8C43.2,40.7,43.2,40.7,43.2,40.8l0.5-0.4c0.1,0,0.2,0,0.2,0l0.7,0.4
							c0,0,0,0,0,0.1l0,0.1c0,0,0,0.1,0,0.1l-0.5,0.3c-0.1,0-0.2,0-0.2,0l-0.7-0.4C43.2,40.9,43.2,40.9,43.2,40.8L43.2,40.8z"/>
						<path id="XMLID_45047_" class="st24" d="M44,40.4l0.7,0.4c0.1,0,0.1,0.1,0,0.2l-0.5,0.3c-0.1,0-0.2,0-0.2,0l-0.7-0.4
							c-0.1,0-0.1-0.1,0-0.2l0.5-0.3C43.8,40.4,43.9,40.4,44,40.4z"/>
					</g>
				</g>
			</g>
			<g id="XMLID_44989_">
				<g id="XMLID_45040_">
					<g id="XMLID_45041_">
						<path id="XMLID_45043_" class="st16" d="M31.9,34.2C31.9,34.2,31.9,34.2,31.9,34.2l0.5-0.4c0.1,0,0.2,0,0.2,0l1.5,0.9
							c0,0,0,0,0,0.1l0,0.1c0,0,0,0.1,0,0.1l-0.5,0.3c-0.1,0-0.2,0-0.2,0l-1.5-0.9C31.9,34.4,31.9,34.3,31.9,34.2L31.9,34.2z"/>
						<path id="XMLID_45042_" class="st24" d="M32.7,33.9l1.5,0.9c0.1,0,0.1,0.1,0,0.2l-0.5,0.3c-0.1,0-0.2,0-0.2,0l-1.5-0.9
							c-0.1,0-0.1-0.1,0-0.2l0.5-0.3C32.5,33.8,32.6,33.8,32.7,33.9z"/>
					</g>
				</g>
				<g id="XMLID_45031_">
					<g id="XMLID_45036_">
						<g id="XMLID_45037_">
							<path id="XMLID_45039_" class="st16" d="M33.8,35.3C33.8,35.3,33.8,35.2,33.8,35.3l0.5-0.4c0.1,0,0.2,0,0.2,0l0.5,0.3
								c0,0,0,0,0,0.1v0.1c0,0,0,0.1,0,0.1l-0.5,0.3c-0.1,0-0.2,0-0.2,0l-0.5-0.3C33.8,35.5,33.8,35.4,33.8,35.3L33.8,35.3z"/>
							<path id="XMLID_45038_" class="st24" d="M34.5,34.9l0.5,0.3c0.1,0,0.1,0.1,0,0.2l-0.5,0.3c-0.1,0-0.2,0-0.2,0l-0.5-0.3
								c-0.1,0-0.1-0.1,0-0.2l0.5-0.3C34.4,34.9,34.5,34.9,34.5,34.9z"/>
						</g>
					</g>
					<g id="XMLID_45032_">
						<g id="XMLID_45033_">
							<path id="XMLID_45035_" class="st16" d="M34.6,35.8C34.6,35.8,34.6,35.7,34.6,35.8l0.5-0.4c0.1,0,0.2,0,0.2,0l0.5,0.3
								c0,0,0,0,0,0.1v0.1c0,0,0,0.1,0,0.1l-0.5,0.3c-0.1,0-0.2,0-0.2,0L34.7,36C34.6,36,34.6,35.9,34.6,35.8L34.6,35.8z"/>
							<path id="XMLID_45034_" class="st24" d="M35.4,35.4l0.5,0.3c0.1,0,0.1,0.1,0,0.2l-0.5,0.3c-0.1,0-0.2,0-0.2,0l-0.5-0.3
								c-0.1,0-0.1-0.1,0-0.2l0.5-0.3C35.2,35.4,35.3,35.4,35.4,35.4z"/>
						</g>
					</g>
				</g>
				<g id="XMLID_45022_">
					<g id="XMLID_45027_">
						<g id="XMLID_45028_">
							<path id="XMLID_45030_" class="st16" d="M35.5,36.3C35.5,36.3,35.5,36.2,35.5,36.3l0.5-0.4c0.1,0,0.2,0,0.2,0l0.5,0.3
								c0,0,0,0,0,0.1l0,0.1c0,0,0,0.1,0,0.1l-0.5,0.3c-0.1,0-0.2,0-0.2,0l-0.5-0.3C35.5,36.5,35.5,36.4,35.5,36.3L35.5,36.3z"/>
							<path id="XMLID_45029_" class="st24" d="M36.3,35.9l0.5,0.3c0.1,0,0.1,0.1,0,0.2l-0.5,0.3c-0.1,0-0.2,0-0.2,0l-0.5-0.3
								c-0.1,0-0.1-0.1,0-0.2l0.5-0.3C36.1,35.9,36.2,35.9,36.3,35.9z"/>
						</g>
					</g>
					<g id="XMLID_45023_">
						<g id="XMLID_45024_">
							<path id="XMLID_45026_" class="st16" d="M36.3,36.8C36.4,36.8,36.4,36.7,36.3,36.8l0.5-0.4c0.1,0,0.2,0,0.2,0l0.5,0.3
								c0,0,0,0,0,0.1l0,0.1c0,0,0,0.1,0,0.1l-0.5,0.3c-0.1,0-0.2,0-0.2,0L36.4,37C36.4,36.9,36.3,36.9,36.3,36.8L36.3,36.8z"/>
							<path id="XMLID_45025_" class="st24" d="M37.1,36.4l0.5,0.3c0.1,0,0.1,0.1,0,0.2l-0.5,0.3c-0.1,0-0.2,0-0.2,0l-0.5-0.3
								c-0.1,0-0.1-0.1,0-0.2l0.5-0.3C37,36.4,37,36.4,37.1,36.4z"/>
						</g>
					</g>
				</g>
				<g id="XMLID_45013_">
					<g id="XMLID_45018_">
						<g id="XMLID_45019_">
							<path id="XMLID_45021_" class="st16" d="M37.2,37.3C37.2,37.3,37.2,37.2,37.2,37.3l0.5-0.4c0.1,0,0.2,0,0.2,0l0.5,0.3
								c0,0,0,0,0,0.1v0.1c0,0,0,0.1,0,0.1L38,37.8c-0.1,0-0.2,0-0.2,0l-0.5-0.3C37.2,37.4,37.2,37.4,37.2,37.3L37.2,37.3z"/>
							<path id="XMLID_45020_" class="st24" d="M38,36.9l0.5,0.3c0.1,0,0.1,0.1,0,0.2L38,37.7c-0.1,0-0.2,0-0.2,0l-0.5-0.3
								c-0.1,0-0.1-0.1,0-0.2l0.5-0.3C37.8,36.9,37.9,36.9,38,36.9z"/>
						</g>
					</g>
					<g id="XMLID_45014_">
						<g id="XMLID_45015_">
							<path id="XMLID_45017_" class="st16" d="M38.1,37.8C38.1,37.8,38.1,37.7,38.1,37.8l0.5-0.4c0.1,0,0.2,0,0.2,0l0.5,0.3
								c0,0,0,0,0,0.1v0.1c0,0,0,0.1,0,0.1l-0.5,0.3c-0.1,0-0.2,0-0.2,0L38.1,38C38.1,37.9,38.1,37.9,38.1,37.8L38.1,37.8z"/>
							<path id="XMLID_45016_" class="st24" d="M38.8,37.4l0.5,0.3c0.1,0,0.1,0.1,0,0.2l-0.5,0.3c-0.1,0-0.2,0-0.2,0l-0.5-0.3
								c-0.1,0-0.1-0.1,0-0.2l0.5-0.3C38.7,37.4,38.8,37.4,38.8,37.4z"/>
						</g>
					</g>
				</g>
				<g id="XMLID_45004_">
					<g id="XMLID_45009_">
						<g id="XMLID_45010_">
							<path id="XMLID_45012_" class="st16" d="M38.9,38.3C38.9,38.2,38.9,38.2,38.9,38.3l0.5-0.4c0.1,0,0.2,0,0.2,0l0.5,0.3
								c0,0,0,0,0,0.1l0,0.1c0,0,0,0.1,0,0.1l-0.5,0.3c-0.1,0-0.2,0-0.2,0L39,38.5C38.9,38.4,38.9,38.4,38.9,38.3L38.9,38.3z"/>
							<path id="XMLID_45011_" class="st24" d="M39.7,37.9l0.5,0.3c0.1,0,0.1,0.1,0,0.2l-0.5,0.3c-0.1,0-0.2,0-0.2,0L39,38.4
								c-0.1,0-0.1-0.1,0-0.2l0.5-0.3C39.5,37.9,39.6,37.9,39.7,37.9z"/>
						</g>
					</g>
					<g id="XMLID_45005_">
						<g id="XMLID_45006_">
							<path id="XMLID_45008_" class="st16" d="M39.8,38.8C39.8,38.7,39.8,38.7,39.8,38.8l0.5-0.4c0.1,0,0.2,0,0.2,0l0.5,0.3
								c0,0,0,0,0,0.1l0,0.1c0,0,0,0.1,0,0.1l-0.5,0.3c-0.1,0-0.2,0-0.2,0l-0.5-0.3C39.8,38.9,39.8,38.9,39.8,38.8L39.8,38.8z"/>
							<path id="XMLID_45007_" class="st24" d="M40.6,38.4l0.5,0.3c0.1,0,0.1,0.1,0,0.2l-0.5,0.3c-0.1,0-0.2,0-0.2,0l-0.5-0.3
								c-0.1,0-0.1-0.1,0-0.2l0.5-0.3C40.4,38.4,40.5,38.4,40.6,38.4z"/>
						</g>
					</g>
				</g>
				<g id="XMLID_44995_">
					<g id="XMLID_45000_">
						<g id="XMLID_45001_">
							<path id="XMLID_45003_" class="st16" d="M40.6,39.3C40.6,39.2,40.7,39.2,40.6,39.3l0.5-0.4c0.1,0,0.2,0,0.2,0l0.5,0.3
								c0,0,0,0,0,0.1v0.1c0,0,0,0.1,0,0.1l-0.5,0.3c-0.1,0-0.2,0-0.2,0l-0.5-0.3C40.7,39.4,40.6,39.4,40.6,39.3L40.6,39.3z"/>
							<path id="XMLID_45002_" class="st24" d="M41.4,38.9l0.5,0.3c0.1,0,0.1,0.1,0,0.2l-0.5,0.3c-0.1,0-0.2,0-0.2,0l-0.5-0.3
								c-0.1,0-0.1-0.1,0-0.2l0.5-0.3C41.3,38.9,41.3,38.9,41.4,38.9z"/>
						</g>
					</g>
					<g id="XMLID_44996_">
						<g id="XMLID_44997_">
							<path id="XMLID_44999_" class="st16" d="M41.5,39.8C41.5,39.7,41.5,39.7,41.5,39.8l0.5-0.4c0.1,0,0.2,0,0.2,0l0.5,0.3
								c0,0,0,0,0,0.1v0.1c0,0,0,0.1,0,0.1l-0.5,0.3c-0.1,0-0.2,0-0.2,0l-0.5-0.3C41.5,39.9,41.5,39.9,41.5,39.8L41.5,39.8z"/>
							<path id="XMLID_44998_" class="st24" d="M42.3,39.4l0.5,0.3c0.1,0,0.1,0.1,0,0.2l-0.5,0.3c-0.1,0-0.2,0-0.2,0l-0.5-0.3
								c-0.1,0-0.1-0.1,0-0.2l0.5-0.3C42.1,39.4,42.2,39.4,42.3,39.4z"/>
						</g>
					</g>
				</g>
				<g id="XMLID_44990_">
					<g id="XMLID_44991_">
						<g id="XMLID_44992_">
							<path id="XMLID_44994_" class="st16" d="M42.4,40.3C42.4,40.2,42.4,40.2,42.4,40.3l0.5-0.4c0.1,0,0.2,0,0.2,0l0.5,0.3
								c0,0,0,0,0,0.1l0,0.1c0,0,0,0.1,0,0.1l-0.5,0.3c-0.1,0-0.2,0-0.2,0l-0.5-0.3C42.4,40.4,42.4,40.4,42.4,40.3L42.4,40.3z"/>
							<path id="XMLID_44993_" class="st24" d="M43.1,39.9l0.5,0.3c0.1,0,0.1,0.1,0,0.2l-0.5,0.3c-0.1,0-0.2,0-0.2,0l-0.5-0.3
								c-0.1,0-0.1-0.1,0-0.2l0.5-0.3C43,39.9,43.1,39.9,43.1,39.9z"/>
						</g>
					</g>
				</g>
			</g>
		</g>
		<g id="XMLID_44931_">
			<g id="XMLID_44947_">
				<g id="XMLID_44983_">
					<g id="XMLID_44984_">
						<g id="XMLID_44985_">
							<path id="XMLID_44987_" class="st16" d="M35.3,37.1C35.3,37.1,35.3,37.1,35.3,37.1l0.5-0.4c0.1,0,0.2,0,0.2,0l4.3,2.5
								c0,0,0,0,0,0.1l0,0.1c0,0,0,0.1,0,0.1l-0.5,0.3c-0.1,0-0.2,0-0.2,0l-4.3-2.5C35.3,37.3,35.3,37.3,35.3,37.1L35.3,37.1z"/>
							<path id="XMLID_44986_" class="st24" d="M36,36.8l4.3,2.5c0.1,0,0.1,0.1,0,0.2l-0.5,0.3c-0.1,0-0.2,0-0.2,0l-4.3-2.5
								c-0.1,0-0.1-0.1,0-0.2l0.5-0.3C35.9,36.8,36,36.8,36,36.8z"/>
						</g>
					</g>
				</g>
				<g id="XMLID_44978_">
					<g id="XMLID_44979_">
						<g id="XMLID_44980_">
							<path id="XMLID_44982_" class="st16" d="M42.6,41.4C42.6,41.4,42.6,41.3,42.6,41.4l0.5-0.4c0.1,0,0.2,0,0.2,0l0.4,0.2
								c0,0,0,0,0,0.1l0,0.1c0,0,0,0.1,0,0.1l-0.5,0.3c-0.1,0-0.2,0-0.2,0l-0.4-0.2C42.6,41.5,42.6,41.5,42.6,41.4L42.6,41.4z"/>
							<path id="XMLID_44981_" class="st24" d="M43.4,41l0.4,0.2c0.1,0,0.1,0.1,0,0.2l-0.5,0.3c-0.1,0-0.2,0-0.2,0l-0.4-0.2
								c-0.1,0-0.1-0.1,0-0.2l0.5-0.3C43.2,41,43.3,41,43.4,41z"/>
						</g>
					</g>
				</g>
				<g id="XMLID_44973_">
					<g id="XMLID_44974_">
						<g id="XMLID_44975_">
							<path id="XMLID_44977_" class="st16" d="M41.8,40.9C41.8,40.9,41.8,40.9,41.8,40.9l0.5-0.4c0.1,0,0.2,0,0.2,0l0.4,0.2
								c0,0,0,0,0,0.1V41c0,0,0,0.1,0,0.1l-0.5,0.3c-0.1,0-0.2,0-0.2,0l-0.4-0.2C41.8,41.1,41.8,41.1,41.8,40.9L41.8,40.9z"/>
							<path id="XMLID_44976_" class="st24" d="M42.6,40.6l0.4,0.2c0.1,0,0.1,0.1,0,0.2l-0.5,0.3c-0.1,0-0.2,0-0.2,0L41.9,41
								c-0.1,0-0.1-0.1,0-0.2l0.5-0.3C42.4,40.5,42.5,40.5,42.6,40.6z"/>
						</g>
					</g>
				</g>
				<g id="XMLID_44968_">
					<g id="XMLID_44969_">
						<g id="XMLID_44970_">
							<path id="XMLID_44972_" class="st16" d="M41,40.5C41,40.5,41.1,40.4,41,40.5l0.5-0.4c0.1,0,0.2,0,0.2,0l0.4,0.2
								c0,0,0,0,0,0.1l0,0.1c0,0,0,0.1,0,0.1l-0.5,0.3c-0.1,0-0.2,0-0.2,0l-0.4-0.2C41.1,40.6,41,40.6,41,40.5L41,40.5z"/>
							<path id="XMLID_44971_" class="st24" d="M41.8,40.1l0.4,0.2c0.1,0,0.1,0.1,0,0.2l-0.5,0.3c-0.1,0-0.2,0-0.2,0l-0.4-0.2
								c-0.1,0-0.1-0.1,0-0.2l0.5-0.3C41.7,40.1,41.7,40.1,41.8,40.1z"/>
						</g>
					</g>
				</g>
				<g id="XMLID_44963_">
					<g id="XMLID_44964_">
						<g id="XMLID_44965_">
							<path id="XMLID_44967_" class="st16" d="M40,39.8C40,39.8,40,39.8,40,39.8l0.5-0.4c0.1,0,0.2,0,0.2,0l0.7,0.4c0,0,0,0,0,0.1
								v0.1c0,0,0,0.1,0,0.1L41,40.4c-0.1,0-0.2,0-0.2,0L40,40C40,40,40,40,40,39.8L40,39.8z"/>
							<path id="XMLID_44966_" class="st24" d="M40.7,39.5l0.7,0.4c0.1,0,0.1,0.1,0,0.2L41,40.4c-0.1,0-0.2,0-0.2,0L40,39.9
								c-0.1,0-0.1-0.1,0-0.2l0.5-0.3C40.6,39.5,40.7,39.5,40.7,39.5z"/>
						</g>
					</g>
				</g>
				<g id="XMLID_44958_">
					<g id="XMLID_44959_">
						<g id="XMLID_44960_">
							<path id="XMLID_44962_" class="st16" d="M34.2,36.5C34.2,36.5,34.2,36.5,34.2,36.5l0.5-0.4c0.1,0,0.2,0,0.2,0l0.7,0.4
								c0,0,0,0,0,0.1l0,0.1c0,0,0,0.1,0,0.1l-0.5,0.3c-0.1,0-0.2,0-0.2,0l-0.7-0.4C34.2,36.7,34.2,36.6,34.2,36.5L34.2,36.5z"/>
							<path id="XMLID_44961_" class="st24" d="M34.9,36.2l0.7,0.4c0.1,0,0.1,0.1,0,0.2L35.2,37c-0.1,0-0.2,0-0.2,0l-0.7-0.4
								c-0.1,0-0.1-0.1,0-0.2l0.5-0.3C34.8,36.1,34.9,36.1,34.9,36.2z"/>
						</g>
					</g>
				</g>
				<g id="XMLID_44953_">
					<g id="XMLID_44954_">
						<g id="XMLID_44955_">
							<path id="XMLID_44957_" class="st16" d="M33.4,36.1C33.4,36,33.4,36,33.4,36.1l0.5-0.4c0.1,0,0.2,0,0.2,0l0.4,0.2
								c0,0,0,0,0,0.1v0.1c0,0,0,0.1,0,0.1l-0.5,0.3c-0.1,0-0.2,0-0.2,0l-0.4-0.2C33.4,36.2,33.4,36.2,33.4,36.1L33.4,36.1z"/>
							<path id="XMLID_44956_" class="st24" d="M34.2,35.7l0.4,0.2c0.1,0,0.1,0.1,0,0.2l-0.5,0.3c-0.1,0-0.2,0-0.2,0l-0.4-0.2
								c-0.1,0-0.1-0.1,0-0.2l0.5-0.3C34,35.7,34.1,35.7,34.2,35.7z"/>
						</g>
					</g>
				</g>
				<g id="XMLID_44948_">
					<g id="XMLID_44949_">
						<g id="XMLID_44950_">
							<path id="XMLID_44952_" class="st16" d="M31,34.7C31.1,34.7,31.1,34.7,31,34.7l0.1-0.1c0.1,0,0.2,0,0.2,0l0.4,0.2
								c0,0,0,0,0,0.1l0,0.1c0,0,0,0.1,0,0.1l-0.1,0c-0.1,0-0.2,0-0.2,0l-0.4-0.2C31.1,34.9,31,34.8,31,34.7L31,34.7z"/>
							<path id="XMLID_44951_" class="st24" d="M31.4,34.6l0.4,0.2c0.1,0,0.1,0.1,0,0.2l-0.1,0c-0.1,0-0.2,0-0.2,0l-0.4-0.2
								c-0.1,0-0.1-0.1,0-0.2l0.1,0C31.2,34.5,31.3,34.5,31.4,34.6z"/>
						</g>
					</g>
				</g>
			</g>
			<g id="XMLID_44942_">
				<g id="XMLID_44943_">
					<g id="XMLID_44944_">
						<path id="XMLID_44946_" class="st16" d="M32.6,35.6C32.6,35.6,32.6,35.6,32.6,35.6l0.1-0.1c0.1,0,0.2,0,0.2,0l0.4,0.2
							c0,0,0,0,0,0.1l0,0.1c0,0,0,0.1,0,0.1L33.3,36c-0.1,0-0.2,0-0.2,0l-0.4-0.2C32.6,35.8,32.6,35.7,32.6,35.6L32.6,35.6z"/>
						<path id="XMLID_44945_" class="st24" d="M33,35.5l0.4,0.2c0.1,0,0.1,0.1,0,0.2l-0.1,0c-0.1,0-0.2,0-0.2,0l-0.4-0.2
							c-0.1,0-0.1-0.1,0-0.2l0.1,0C32.8,35.5,32.9,35.5,33,35.5z"/>
					</g>
				</g>
			</g>
			<g id="XMLID_44937_">
				<g id="XMLID_44938_">
					<g id="XMLID_44939_">
						<path id="XMLID_44941_" class="st16" d="M32.2,34.9C32.2,34.9,32.3,34.9,32.2,34.9l0.1-0.1c0.1,0,0.2,0,0.2,0L33,35
							c0,0,0,0,0,0.1v0.1c0,0,0,0.1,0,0.1l-0.1,0.1c-0.1,0-0.2,0-0.2,0l-0.4-0.2C32.3,35.1,32.2,35.1,32.2,34.9L32.2,34.9z"/>
						<path id="XMLID_44940_" class="st24" d="M32.6,34.8L33,35c0.1,0,0.1,0.1,0,0.2l-0.1,0c-0.1,0-0.2,0-0.2,0L32.3,35
							c-0.1,0-0.1-0.1,0-0.2l0.1,0C32.4,34.8,32.5,34.8,32.6,34.8z"/>
					</g>
				</g>
			</g>
			<g id="XMLID_44932_">
				<g id="XMLID_44933_">
					<g id="XMLID_44934_">
						<path id="XMLID_44936_" class="st16" d="M31.8,35.2C31.8,35.1,31.8,35.1,31.8,35.2L32,35c0.1,0,0.2,0,0.2,0l0.4,0.2
							c0,0,0,0,0,0.1v0.1c0,0,0,0.1,0,0.1l-0.1,0c-0.1,0-0.2,0-0.2,0l-0.4-0.2C31.8,35.3,31.8,35.3,31.8,35.2L31.8,35.2z"/>
						<path id="XMLID_44935_" class="st24" d="M32.2,35l0.4,0.2c0.1,0,0.1,0.1,0,0.2l-0.1,0c-0.1,0-0.2,0-0.2,0l-0.4-0.2
							c-0.1,0-0.1-0.1,0-0.2L32,35C32,35,32.1,35,32.2,35z"/>
					</g>
				</g>
			</g>
		</g>
	</g>
</g>
<g id="XMLID_44923_">
	<g id="XMLID_44926_">
		<path id="XMLID_44928_" class="st25" d="M25.8,31.3l2.6-1.5c0.5-0.3,1.2-0.4,1.8-0.2l0,0c1.3,0.3,1.7,1.5,0.6,2.1l-2.6,1.5
			c-0.5,0.3-1.2,0.4-1.8,0.2l0,0C25.1,33.1,24.7,31.9,25.8,31.3z"/>
		<path id="XMLID_44927_" class="st26" d="M27,30.2c0.9-0.5,1.9-0.8,2.2-0.8c0.3,0,0.7,0,1,0l0,0c1,0.2,1.5,1,1.1,1.6
			c-0.1,0.2-1.1,0.6-1.9,1.1c-0.7,0.4-1.6,1.2-1.9,1.2c-0.3,0.1-0.7,0.1-1.1,0l0,0c-1.1-0.3-1.5-1.1-1.1-1.7
			C25.5,31.4,26,30.7,27,30.2z"/>
	</g>
	<g id="XMLID_44924_">
		<path id="XMLID_44925_" class="st25" d="M26.1,32.3c0.1,0,0.2-0.1,0.2-0.2c0,0,0-0.1-0.1-0.1c0.1,0,0.1-0.1,0.2-0.1l0,0
			c0.1,0,0.2,0.1,0.2,0.1l0,0c0.1,0.2-0.1,0.4-0.4,0.4l0,0C26.1,32.5,26,32.4,26.1,32.3C26,32.3,26,32.3,26.1,32.3
			C26,32.3,26.1,32.3,26.1,32.3L26.1,32.3z"/>
	</g>
</g>
<g id="XMLID_42912_">
	<g id="XMLID_42934_">
		<polygon id="XMLID_42940_" class="st27" points="64.4,41.6 64.4,40 52,47.2 52,48.7 		"/>
		<polyline id="XMLID_46130_" class="st28" points="64.4,41.6 64.4,40 52,47.2 		"/>
		<polygon id="XMLID_42939_" class="st29" points="64.4,40 60.3,37.7 47.9,44.8 52,47.2 		"/>
		<polygon id="XMLID_42938_" class="st30" points="60.9,41.5 57.8,39.7 49,44.8 52,46.6 		"/>
		<polygon class="st31" points="60.2,41.1 60.2,41.9 57.1,43.7 57.1,40.7 59.6,40.7 		"/>
		<g id="XMLID_42936_">
			<polygon id="XMLID_42937_" class="st32" points="60.8,41.5 60.9,41.5 57.8,39.7 49,44.8 49.1,44.9 57.8,39.8 			"/>
		</g>
		<polygon id="XMLID_42935_" class="st32" points="47.9,44.8 52,47.2 52,48.7 47.9,46.4 		"/>
		<polyline id="XMLID_46134_" class="st33" points="47.9,44.8 52,47.2 52,48.7 		"/>
	</g>
	<g id="XMLID_42928_">
		<polygon id="XMLID_42933_" class="st28" points="64.4,38.8 64.4,40 61.7,41.6 61.7,40.8 		"/>
		<polygon id="XMLID_42932_" class="st32" points="57.6,38.4 61.7,40.8 61.7,41.6 57.6,39.2 		"/>
		<polyline id="XMLID_46139_" class="st33" points="57.6,38.4 61.7,40.8 61.7,41.6 		"/>
		<polygon id="XMLID_42931_" class="st34" points="60.3,36.4 64.4,38.8 61.7,40.8 57.6,38.4 		"/>
		<polyline id="XMLID_46133_" class="st29" points="60.3,36.4 64.4,38.8 61.7,40.8 		"/>
		<polygon id="XMLID_42930_" class="st35" points="60.5,36.9 63.6,38.7 61.6,40.3 58.4,38.5 		"/>
		<polygon class="st36" points="63.5,38.8 61.6,40.3 58.5,38.5 60.5,37 		"/>
		<polygon id="XMLID_42929_" class="st37" points="63.6,38.7 61.6,40.3 58.4,38.5 		"/>
	</g>
	<g id="XMLID_42913_">
		<g id="XMLID_42926_">
			<polygon id="XMLID_42927_" class="st27" points="60.2,40.3 60.2,41.7 58.4,42.7 58.4,41.3 			"/>
		</g>
		<g id="XMLID_46132_" class="st38">
			<polyline id="XMLID_46136_" class="st27" points="58.4,42.7 58.4,41.3 60.2,40.3 			"/>
		</g>
		<polygon id="XMLID_42925_" class="st32" points="55.7,39.7 58.4,41.4 58.4,42.7 55.7,41.1 		"/>
		<g id="XMLID_42923_">
			<polygon id="XMLID_42924_" class="st27" points="54.4,44.1 53.9,45.3 52.1,46.4 52.1,45.7 			"/>
		</g>
		<g id="XMLID_46135_" class="st38">
			<polyline id="XMLID_46138_" class="st27" points="52.1,46.4 52.1,45.7 54.4,44.1 			"/>
		</g>
		<g id="XMLID_42921_">
			<path id="XMLID_42922_" class="st39" d="M60.2,39.7c0,0-0.9-0.9-1.6-1.2c-0.6-0.3-1.2-0.4-1.2-0.4s-1.6,0.8-3.7,2.2
				c-2.1,1.4-4.5,3.1-4.5,3.1s0.5,0,1.2,0.4c0.7,0.4,1.5,1.2,1.5,1.2s2.3-1.7,4.5-3.1C58.6,40.5,60.2,39.7,60.2,39.7z"/>
		</g>
		<g id="XMLID_46129_">
			<path id="XMLID_46131_" class="st34" d="M49.3,43.5c0,0,0.5,0,1.2,0.4c0.7,0.4,1.5,1.2,1.5,1.2s2.3-1.7,4.5-3.1
				c2.1-1.4,3.7-2.2,3.7-2.2s-0.9-0.9-1.6-1.2"/>
		</g>
		<g id="XMLID_42919_">
			<path id="XMLID_42920_" class="st40" d="M60.2,40.3L60.2,40.3L60.2,40.3L60.2,40.3L60.2,40.3v-0.6c0,0-1.6,0.8-3.7,2.2
				c-2.1,1.4-4.5,3.1-4.5,3.1v0.6c0,0,2.3-1.7,4.5-3.1C58.6,41.1,60.2,40.3,60.2,40.3z"/>
		</g>
		<g id="XMLID_42917_">
			<path id="XMLID_42918_" class="st41" d="M60.2,40.4L60.2,40.4L60.2,40.4L60.2,40.4L60.2,40.4v-0.1c0,0-1.6,0.8-3.7,2.2
				c-2.1,1.4-4.5,3.1-4.5,3.1v0.1c0,0,2.3-1.7,4.5-3.1C58.6,41.2,60.2,40.4,60.2,40.4z"/>
		</g>
		<path id="XMLID_42916_" class="st42" d="M49.3,43.5c0,0,0.6,0,1.2,0.4c1.1,0.7,1.5,1.2,1.5,1.2v0.6L49.3,44L49.3,43.5z"/>
		<polygon id="XMLID_42915_" class="st32" points="49.3,44.2 52.1,45.7 52.1,46.4 49.3,44.8 		"/>
		<polygon id="XMLID_42914_" class="st43" points="49.3,44.2 52.1,45.7 52.1,45.6 49.3,44 		"/>
	</g>
</g>
<g id="XMLID_16235_">
	<g id="XMLID_16281_">
		<path id="XMLID_16284_" class="st44" d="M14.3,24.6c0-1.9,2.8-3.4,6.2-3.4c3.4,0,6.2,1.5,6.2,3.4c0,0.2,0,0.1,0,0.3
			c0,1.9-2.8,3.4-6.2,3.4c-3.4,0-6.2-1.5-6.2-3.4C14.3,24.7,14.3,24.8,14.3,24.6z"/>
		<ellipse id="XMLID_16283_" class="st45" cx="20.5" cy="24.6" rx="6.2" ry="3.4"/>
		<path id="XMLID_16282_" class="st46" d="M14.3,24.6c0,1.9,2.8,3.4,6.2,3.4c3.4,0,6.2-1.5,6.2-3.4"/>
	</g>
	<g id="XMLID_16277_">
		<ellipse id="XMLID_16280_" class="st44" cx="20.5" cy="24.2" rx="2.7" ry="1.5"/>
		<g id="XMLID_16278_">
			<path id="XMLID_16279_" class="st47" d="M20.5,25.7c-1.4,0-2.6-0.6-2.7-1.4c0.1-0.8,1.3-1.4,2.7-1.4c1.4,0,2.6,0.6,2.7,1.4
				C23.1,25.1,21.9,25.7,20.5,25.7z"/>
		</g>
		<path class="st48" d="M23.3,27.6c-0.8,0.2-1.7,0.3-2.7,0.3c-1,0-1.9-0.1-2.7-0.3v-4.1h5.4V27.6z"/>
	</g>
	<g id="XMLID_16238_">
		<g id="XMLID_16239_">
			<g id="XMLID_16273_">
				<path id="XMLID_16274_" class="st46" d="M16,21.2c0,0,0,0.4,0,0.7c0.2,0.7,1.6,1.8,2.3,1.9c0.8,0.1-0.4-2.5-0.7-2.8
					c-0.3-0.3-0.6-0.5-1-0.4C16.3,20.7,16.1,21.1,16,21.2z M16.4,21.6c0-0.2,0.1-0.5,0.4-0.6c0.3-0.1,0.4,0,0.6,0.2
					c0.2,0.2,1.1,1.8,0.6,1.7C17.3,22.8,16.4,22.3,16.4,21.6z"/>
			</g>
			<path id="XMLID_16272_" class="st44" d="M23.9,20.7c0,1.5-1.1,3.5-1.1,3.6c-0.2,0.5-1.2,1-2.3,1c-1.1,0-2.1-0.4-2.3-1
				c0-0.1-1.1-2.1-1.1-3.6C17.1,19.3,23.9,19.3,23.9,20.7z"/>
			<path class="st48" d="M20.5,25.3c-0.7,0-1.2-0.1-1.7-0.4c-0.2-0.7-0.7-2.6-0.7-4.1c0-0.5,0.5-0.9,1.1-1.1c0.8-0.1,1.8-0.1,2.6,0
				c0.6,0.2,1.1,0.6,1.1,1.1c0,1.5-0.5,3.4-0.7,4.1C21.8,25.2,21.2,25.3,20.5,25.3z"/>
			<g id="XMLID_16267_">
				<g id="XMLID_16268_">
					<path id="XMLID_16269_" class="st44" d="M15.9,22.1c0.2,1.1,1.6,1.8,2.4,1.9c0.8,0.1-0.6-2.5-0.9-2.8c-0.3-0.3-0.6-0.5-1-0.3
						C15.9,21,15.8,21.6,15.9,22.1z M16.8,21.3c0.3-0.1,0.4,0,0.6,0.2c0.2,0.2,1.1,1.8,0.5,1.7c-1-0.3-1.3-0.6-1.5-1.1
						C16.2,21.8,16.4,21.4,16.8,21.3z"/>
				</g>
			</g>
			<path id="XMLID_16266_" class="st46" d="M17.1,20.3c0-1,1.5-1.9,3.4-1.9c1.9,0,3.4,0.8,3.4,1.9c0,0.1,0,0.2,0,0.3
				c0,1-1.5,1.9-3.4,1.9c-1.9,0-3.4-0.8-3.4-1.9C17.1,20.4,17.1,20.4,17.1,20.3z"/>
			<ellipse id="XMLID_16265_" class="st49" cx="20.5" cy="20.3" rx="3.4" ry="1.9"/>
			<path id="XMLID_16264_" class="st46" d="M17.1,20.3c0,1,1.5,1.9,3.4,1.9c1.9,0,3.4-0.8,3.4-1.9"/>
			<ellipse id="XMLID_16263_" class="st50" cx="20.5" cy="20.3" rx="2.9" ry="1.6"/>
			<g id="XMLID_16240_">
				<path id="XMLID_16262_" class="st51" d="M20.5,19.5c-1.4,0-2.6,0.6-2.7,1.3c-0.1-0.2-0.2-0.3-0.2-0.5c0-0.9,1.3-1.6,2.9-1.6
					c1.6,0,2.9,0.7,2.9,1.6c0,0.2-0.1,0.4-0.2,0.5C23.1,20.1,21.9,19.5,20.5,19.5z"/>
				<path class="st48" d="M20.5,19.2c1.4,0,2.6,0.6,2.8,1.3c0,0.1-0.1,0.2-0.1,0.3c-0.2-0.8-1.3-1.3-2.7-1.3c-1.4,0-2.6,0.6-2.7,1.3
					c-0.1-0.1-0.1-0.2-0.1-0.3C17.9,19.8,19.1,19.2,20.5,19.2z"/>
				<path id="XMLID_16261_" class="st52" d="M20.5,21.9c-1.3,0-2.3-0.4-2.7-1.1c0.2-0.8,1.3-1.3,2.7-1.3c1.4,0,2.6,0.6,2.7,1.3
					C22.9,21.4,21.8,21.9,20.5,21.9z"/>
				<g id="XMLID_16257_">
					<ellipse id="XMLID_16260_" class="st53" cx="21.7" cy="20.9" rx="0.4" ry="0.2"/>
					<ellipse id="XMLID_16259_" class="st52" cx="21.7" cy="20.9" rx="0.3" ry="0.2"/>
					<path id="XMLID_16258_" class="st53" d="M21.8,20.9c0-0.1-0.1-0.1-0.2-0.1c0,0-0.1,0-0.1,0c0,0,0.1,0,0.2,0
						C21.8,20.9,21.8,21,21.8,20.9C21.8,21,21.8,20.9,21.8,20.9z"/>
				</g>
				<g id="XMLID_16253_">
					<ellipse id="XMLID_16256_" class="st53" cx="21.7" cy="20" rx="0.3" ry="0.2"/>
					<ellipse id="XMLID_16255_" class="st52" cx="21.7" cy="20" rx="0.2" ry="0.1"/>
					<path id="XMLID_16254_" class="st53" d="M21.8,20c0,0-0.1-0.1-0.1-0.1c0,0-0.1,0-0.1,0c0,0,0.1,0,0.1,0
						C21.7,20,21.7,20,21.8,20C21.8,20,21.8,20,21.8,20z"/>
				</g>
				<g id="XMLID_16249_">
					<ellipse id="XMLID_16252_" class="st53" cx="18.6" cy="20.9" rx="0.3" ry="0.2"/>
					<ellipse id="XMLID_16251_" class="st52" cx="18.6" cy="20.9" rx="0.2" ry="0.1"/>
					<path id="XMLID_16250_" class="st53" d="M18.7,20.9c0,0-0.1-0.1-0.1-0.1c0,0-0.1,0-0.1,0c0,0,0.1,0,0.1,0
						C18.7,20.9,18.7,21,18.7,20.9C18.7,21,18.7,21,18.7,20.9z"/>
				</g>
				<g id="XMLID_16245_">
					<ellipse id="XMLID_16248_" class="st53" cx="20.4" cy="21.4" rx="0.3" ry="0.2"/>
					<ellipse id="XMLID_16247_" class="st52" cx="20.4" cy="21.4" rx="0.2" ry="0.1"/>
					<path id="XMLID_16246_" class="st53" d="M20.5,21.4c0,0-0.1-0.1-0.1-0.1c0,0-0.1,0-0.1,0c0,0,0.1,0,0.1,0
						C20.4,21.4,20.4,21.5,20.5,21.4C20.5,21.5,20.5,21.5,20.5,21.4z"/>
				</g>
				<g id="XMLID_16241_">
					<ellipse id="XMLID_16244_" class="st53" cx="19.6" cy="20.3" rx="0.4" ry="0.2"/>
					<ellipse id="XMLID_16243_" class="st52" cx="19.6" cy="20.3" rx="0.3" ry="0.2"/>
					<path id="XMLID_16242_" class="st53" d="M19.8,20.3c0-0.1-0.1-0.1-0.2-0.1c0,0-0.1,0-0.1,0c0,0,0.1,0,0.1,0
						C19.7,20.3,19.7,20.4,19.8,20.3C19.8,20.4,19.8,20.3,19.8,20.3z"/>
				</g>
			</g>
		</g>
	</g>
</g>
</svg>
