<?xml version="1.0" encoding="utf-8"?>
<!-- Generator: Adobe Illustrator 21.0.0, SVG Export Plug-In . SVG Version: 6.00 Build 0)  -->
<svg version="1.1" id="Layer_1" xmlns="http://www.w3.org/2000/svg" xmlns:xlink="http://www.w3.org/1999/xlink" x="0px" y="0px"
	 viewBox="0 0 100 100" style="enable-background:new 0 0 100 100;" xml:space="preserve">
<style type="text/css">
	.st0{fill:#DDDDDC;}
	.st1{fill:#CECDCC;}
	.st2{opacity:0.2;fill:#CECDCC;enable-background:new    ;}
	.st3{fill:#FFFFFF;}
	.st4{fill:#EFEFEF;}
	.st5{fill:#D7DDDD;}
	.st6{fill:#95D2DE;}
	.st7{fill:#A0DBEB;}
	.st8{fill:#A9DEEB;}
	.st9{opacity:0.7;fill:#92D5E0;enable-background:new    ;}
	.st10{fill:#79CFE2;}
	.st11{fill:#A0DBEA;}
	.st12{fill:#92D5E0;}
	.st13{fill:#54A2B4;}
	.st14{fill:#6BBCD6;}
</style>
<path id="XMLID_393_" class="st0" d="M40.7,42.1c0-0.4,0.2-0.9,0.6-1.1l7.2-4.2c0.9-0.5,2.1-0.5,3,0l7.2,4.2c0.4,0.2,0.6,0.6,0.6,1
	s0,25.1,0,25.4c0,0.5-0.2,0.9-0.6,1.2l-7.2,4.2c-0.9,0.5-2.1,0.5-3,0l-7.2-4.2c-0.4-0.2-0.6-0.6-0.6-1S40.7,42.5,40.7,42.1z"/>
<path class="st1" d="M49.9,73.2c-0.5,0-0.9-0.2-1.4-0.4l-7.2-4.2c-0.4-0.2-0.6-0.6-0.6-1c0-0.5,0-25.1,0-25.6c0-0.4,0.2-0.9,0.6-1.1
	l7.2-4.2l0,0h1.3v36.5H49.9z"/>
<path class="st2" d="M40.7,42.1c0-0.4,0.2-0.9,0.6-1.1l7.2-4.2l0,0h1.3v36.4c-0.5,0-0.9-0.2-1.4-0.4"/>
<path id="XMLID_392_" class="st3" d="M48.5,36.9L41.3,41c-0.8,0.5-0.8,1.7,0,2.2l7.2,4.2c0.9,0.5,2.1,0.5,3,0l7.2-4.2
	c0.8-0.5,0.8-1.7,0-2.2l-7.2-4.2C50.6,36.3,49.4,36.3,48.5,36.9z"/>
<path id="XMLID_16300_" class="st4" d="M41.3,41c-0.8,0.5-0.8,1.7,0,2.2l7.2,4.2c0.9,0.5,2.1,0.5,3,0l7.2-4.2c0.8-0.5,0.8-1.7,0-2.2
	"/>
<path class="st2" d="M54.2,45.8l-2.6,1.5c-0.9,0.5-2.1,0.5-3,0l-3-1.7v-4.4h8.6C54.2,41.2,54.2,45.8,54.2,45.8z"/>
<path class="st5" d="M41.3,42.7l7.2,4.2c0.9,0.5,2.1,0.5,3,0l7.2-4.2c0.3-0.2,0.5-0.5,0.6-0.9c0.1,0.5-0.1,1-0.6,1.3l-7.2,4.2
	c-0.9,0.5-2.1,0.5-3,0l-7.2-4.2c-0.5-0.3-0.7-0.8-0.6-1.3C40.8,42.2,41,42.5,41.3,42.7z"/>
<path id="XMLID_4707_" class="st6" d="M45.5,39.7c0-0.8,0.5-1.5,1.5-2.1l0,0c1.2-0.7,2.8-0.9,4.3-0.6l0,0c1.8,0.4,2.9,1.6,2.9,2.7
	c0,0.8,0,1.1,0,1.1c0,0.8-0.5,1.6-1.5,2.2l0,0c-1.2,0.7-2.8,0.9-4.3,0.6l0,0c-1.8-0.4-2.8-1.5-2.9-2.7V39.7z"/>
<path id="XMLID_390_" class="st7" d="M46.3,36.1L46.3,36.1c-3.2,1.9-2.2,5.4,1.8,6.3l0,0c1.8,0.4,3.9,0.2,5.4-0.7l0,0
	c3.2-1.9,2.2-5.4-1.8-6.3l0,0C49.8,35,47.8,35.2,46.3,36.1z"/>
<path id="XMLID_389_" class="st8" d="M46.3,36.1L46.3,36.1c-3.2,1.9-2.2,5.4,1.8,6.3l0,0c1.8,0.4,3.9,0.2,5.4-0.7l0,0
	c3.2-1.9,2.2-5.4-1.8-6.3l0,0C49.8,35,47.8,35.2,46.3,36.1z"/>
<path id="XMLID_387_" class="st6" d="M44.9,36.8c-0.1-1,0.5-2,1.7-2.7l0,0c1.4-0.8,3.2-1.1,4.9-0.7l0,0c2.3,0.5,3.5,2,3.4,3.4
	c0,0.2,0,1,0,1.2c-0.1,0.9-0.6,1.8-1.7,2.4l0,0c-1.4,0.8-3.2,1.1-4.9,0.7l0,0c-2.1-0.5-3.2-1.7-3.4-3C44.9,37.9,44.9,37,44.9,36.8z"
	/>
<path id="XMLID_386_" class="st8" d="M46.3,33L46.3,33c-3.2,1.9-2.2,5.4,1.8,6.3l0,0c1.8,0.4,3.9,0.2,5.4-0.7l0,0
	c3.2-1.9,2.2-5.4-1.8-6.3l0,0C49.8,31.9,47.8,32.1,46.3,33z"/>
<path id="XMLID_370_" class="st6" d="M44.9,32.3c-0.1-1,0.5-2,1.7-2.7l0,0c1.4-0.8,3.2-1.1,4.9-0.7l0,0c2.3,0.5,3.5,2,3.4,3.4
	c0,0.2,0,2.3,0,2.5c-0.1,0.9-0.6,1.8-1.7,2.4l0,0c-1.4,0.8-3.2,1.1-4.9,0.7l0,0c-2.1-0.5-3.2-1.7-3.4-3
	C44.9,34.7,44.9,32.5,44.9,32.3z"/>
<path class="st9" d="M44.9,34.3c0-0.5,0-1.2,0-1.6c-0.2-0.3-0.3-0.7-0.4-1c0-0.3-0.1-0.8,0-1.1c0-1,0.6-2.1,1.9-2.9l0,0
	c1.5-0.9,3.5-1.1,5.4-0.7c0.1,0,0.2,0,0.2,0.1v16.3c-1.1,0.4-2.3,0.5-3.5,0.2l0,0c-1.7-0.4-2.7-1.3-2.9-2.4
	c-1.2-1.1-1.5-2.5-0.7-3.8v-0.1C44.3,36.4,44.3,35.3,44.9,34.3z"/>
<path class="st9" d="M49.8,43.8c-0.5,0-0.9-0.1-1.4-0.2l0,0c-1.7-0.4-2.7-1.3-2.9-2.4c-1.2-1.1-1.5-2.5-0.7-3.8v-0.1
	c-0.6-0.9-0.6-2,0-3c0-0.5,0-1.2,0-1.6c-0.2-0.3-0.3-0.7-0.4-1c0-0.3-0.1-0.8,0-1.1c0-1,0.5-1.9,1.6-2.7h3.8
	C49.8,27.9,49.8,43.8,49.8,43.8z"/>
<path id="XMLID_369_" class="st10" d="M46.3,27.8L46.3,27.8c1.5-0.9,3.5-1.1,5.4-0.7l0,0c2.2,0.5,3.5,1.8,3.7,3.2c0,0.3,0,0.9,0,1.1
	c-0.1,0.9-0.7,1.9-1.9,2.6l0,0c-1.5,0.9-3.5,1.1-5.4,0.7l0,0c-2.1-0.5-3.4-1.7-3.6-3c-0.1-0.3-0.1-1.1,0-1.3
	C44.5,29.4,45.1,28.5,46.3,27.8z"/>
<path id="XMLID_368_" class="st11" d="M46.3,27.7L46.3,27.7c-3.2,1.9-2.2,5.4,1.8,6.3l0,0c1.8,0.4,3.9,0.2,5.4-0.7l0,0
	c3.2-1.9,2.2-5.4-1.8-6.3l0,0C49.8,26.6,47.8,26.8,46.3,27.7z"/>
<path id="XMLID_367_" class="st12" d="M47.6,28L47.6,28c-2,1.2-1.4,3.4,1.1,4l0,0c1.2,0.3,2.5,0.1,3.4-0.5l0,0c2-1.2,1.4-3.4-1.1-4
	l0,0C49.9,27.3,48.6,27.4,47.6,28z"/>
<path id="XMLID_363_" class="st13" d="M47.8,28.2L47.8,28.2c-1.9,1.1-1.3,3.2,1.1,3.8l0,0c1.1,0.3,2.3,0.1,3.2-0.4l0,0
	c1.9-1.1,1.3-3.2-1.1-3.8l0,0C49.9,27.5,48.6,27.7,47.8,28.2z"/>
<path id="XMLID_360_" class="st14" d="M48.2,28.8L48.2,28.8c-1.5,0.9-1.1,2.6,0.9,3l0,0c0.9,0.2,1.9,0.1,2.6-0.3l0,0
	c1.5-0.9,1.1-2.6-0.9-3l0,0C49.9,28.2,48.9,28.3,48.2,28.8z"/>
<path id="XMLID_16303_" class="st9" d="M48.2,28.8L48.2,28.8c-1.5,0.9-1.1,2.6,0.9,3l0,0c0.9,0.2,1.9,0.1,2.6-0.3l0,0"/>
</svg>
