<?xml version="1.0" encoding="utf-8"?>
<!-- Generator: Adobe Illustrator 21.0.0, SVG Export Plug-In . SVG Version: 6.00 Build 0)  -->
<svg version="1.1" id="Layer_1" xmlns="http://www.w3.org/2000/svg" xmlns:xlink="http://www.w3.org/1999/xlink" x="0px" y="0px"
	 viewBox="0 0 80 80" style="enable-background:new 0 0 80 80;" xml:space="preserve">
<style type="text/css">
	.st0{fill:#232326;}
	.st1{fill:#1A1A1C;}
	.st2{fill:#5A5A5A;}
	.st3{fill:#4D4D4D;}
	.st4{fill:#313133;}
	.st5{fill:#2B2B2D;}
	.st6{fill:#3A3A3A;}
	.st7{fill:#CECDCC;}
	.st8{fill:#353535;}
	.st9{fill:#404141;}
	.st10{fill:#484849;}
	.st11{fill:#5E5F5E;}
	.st12{fill:#5A5A5B;}
	.st13{fill:#656868;}
	.st14{fill:none;}
	.st15{fill:#575858;}
	.st16{fill:#606162;}
	.st17{fill:#444344;}
	.st18{fill:#444445;}
</style>
<g id="XMLID_42337_">
	<g id="XMLID_42338_">
		<g id="XMLID_42660_">
			<polygon id="XMLID_42663_" class="st0" points="31.9,37.1 31.9,44.3 38.7,48.3 38.7,41 			"/>
			<polyline id="XMLID_46170_" class="st1" points="38.7,48.3 38.7,41 31.9,37.1 			"/>
			<polygon id="XMLID_42662_" class="st2" points="31.9,37.1 41.2,31.8 48,35.7 38.7,41 			"/>
			<polyline id="XMLID_46172_" class="st3" points="48,35.7 38.7,41 31.9,37.1 			"/>
			<polygon id="XMLID_42661_" class="st4" points="48,35.7 38.7,41 38.7,48.3 48,42.9 			"/>
			<polyline id="XMLID_46171_" class="st5" points="48,35.7 38.7,41 38.7,48.3 			"/>
		</g>
		<polygon id="XMLID_42659_" class="st6" points="47.4,36.8 47.4,42.6 41.1,46.2 41.1,40.5 		"/>
		<polygon id="XMLID_42658_" class="st7" points="47.1,37.5 47.1,42.4 41.5,45.7 41.5,40.7 		"/>
		<g id="XMLID_42639_">
			<g id="XMLID_42647_">
				<g id="XMLID_42648_">
					<path id="XMLID_42657_" class="st8" d="M39.9,41.3L39.9,41.3C40,41.3,40,41.3,39.9,41.3L39.9,41.3
						C39.9,41.4,39.9,41.4,39.9,41.3L39.9,41.3C39.9,41.4,39.9,41.4,39.9,41.3L39.9,41.3C39.9,41.3,39.9,41.3,39.9,41.3z"/>
					<path id="XMLID_42656_" class="st8" d="M39.6,41.5L39.6,41.5C39.7,41.5,39.7,41.5,39.6,41.5L39.6,41.5
						C39.7,41.5,39.6,41.6,39.6,41.5L39.6,41.5C39.6,41.6,39.6,41.5,39.6,41.5L39.6,41.5C39.6,41.5,39.6,41.5,39.6,41.5z"/>
					<path id="XMLID_42655_" class="st8" d="M39.4,41.7L39.4,41.7C39.5,41.7,39.5,41.8,39.4,41.7L39.4,41.7
						C39.4,41.8,39.4,41.8,39.4,41.7L39.4,41.7C39.4,41.8,39.4,41.8,39.4,41.7L39.4,41.7C39.4,41.7,39.4,41.7,39.4,41.7z"/>
					<path id="XMLID_42654_" class="st8" d="M39.3,42L39.3,42C39.3,42,39.3,42,39.3,42L39.3,42C39.3,42.1,39.3,42.1,39.3,42L39.3,42
						C39.3,42.1,39.3,42.1,39.3,42L39.3,42C39.3,42,39.3,42,39.3,42z"/>
					<path id="XMLID_42653_" class="st8" d="M39.3,42.3L39.3,42.3C39.3,42.3,39.3,42.4,39.3,42.3L39.3,42.3
						C39.3,42.4,39.3,42.4,39.3,42.3L39.3,42.3C39.2,42.4,39.2,42.4,39.3,42.3L39.3,42.3C39.2,42.3,39.3,42.3,39.3,42.3z"/>
					<path id="XMLID_42652_" class="st8" d="M40.3,41.3L40.3,41.3C40.3,41.3,40.3,41.3,40.3,41.3L40.3,41.3
						C40.3,41.3,40.3,41.4,40.3,41.3L40.3,41.3C40.2,41.4,40.2,41.3,40.3,41.3L40.3,41.3C40.2,41.3,40.3,41.3,40.3,41.3z"/>
					<path id="XMLID_42651_" class="st8" d="M40.6,41.4L40.6,41.4C40.6,41.4,40.6,41.4,40.6,41.4L40.6,41.4
						C40.6,41.5,40.6,41.5,40.6,41.4L40.6,41.4C40.5,41.5,40.5,41.5,40.6,41.4L40.6,41.4C40.5,41.4,40.6,41.4,40.6,41.4z"/>
					<path id="XMLID_42650_" class="st8" d="M40.7,41.7L40.7,41.7C40.8,41.7,40.8,41.7,40.7,41.7L40.7,41.7
						C40.7,41.8,40.7,41.8,40.7,41.7L40.7,41.7C40.7,41.8,40.7,41.7,40.7,41.7L40.7,41.7C40.7,41.7,40.7,41.7,40.7,41.7z"/>
					<path id="XMLID_42649_" class="st8" d="M40.7,42L40.7,42C40.8,42,40.8,42,40.7,42L40.7,42C40.7,42.1,40.7,42.1,40.7,42L40.7,42
						C40.7,42.1,40.7,42.1,40.7,42L40.7,42C40.7,42,40.7,42,40.7,42z"/>
				</g>
			</g>
			<path id="XMLID_42646_" class="st8" d="M40.1,41.4L40.1,41.4c0.5,0,0.6,0.5,0.3,1l0,0c-0.2,0.2-0.4,0.4-0.6,0.4l0,0
				c-0.5,0-0.6-0.5-0.3-1l0,0C39.7,41.6,39.9,41.4,40.1,41.4z"/>
			<path id="XMLID_42645_" class="st9" d="M39.5,42c0-0.1,0.1-0.1,0.1-0.2l0,0c0.1-0.2,0.3-0.3,0.5-0.3l0,0c0.1,0,0.2,0,0.2,0h0
				c0,0,0.1,0.1,0.2,0.1l0,0l0,0c0.2,0.1,0.2,0.5,0,0.8l0,0c-0.1,0.2-0.3,0.3-0.5,0.3l0,0c-0.1,0-0.2,0-0.2,0
				c-0.2-0.1-0.1-0.1-0.2-0.1C39.5,42.5,39.4,42.3,39.5,42L39.5,42z"/>
			<path id="XMLID_42644_" class="st3" d="M40.3,41.5L40.3,41.5c0.4,0,0.6,0.5,0.3,0.9l0,0c-0.1,0.2-0.3,0.3-0.5,0.3l0,0
				c-0.4,0-0.6-0.5-0.3-0.9l0,0C39.9,41.7,40.1,41.6,40.3,41.5z"/>
			<g id="XMLID_42640_">
				<path id="XMLID_42641_" class="st9" d="M39.8,42.5c-0.1-0.1-0.1-0.4,0.1-0.5c0.1-0.1,0.3-0.2,0.4-0.3c0.1,0,0.2,0,0.3,0.1
					c0.1,0.1,0.1,0.4-0.1,0.5c-0.1,0.1-0.3,0.2-0.4,0.3c0,0,0,0,0,0C39.9,42.6,39.8,42.6,39.8,42.5z M40.3,41.7L40.3,41.7
					c-0.1,0-0.3,0.1-0.4,0.2c-0.1,0.2-0.2,0.4-0.1,0.5c0.1,0.1,0.1,0.1,0.3,0.1c0.1,0,0.3-0.1,0.4-0.2c0.1-0.2,0.2-0.4,0.1-0.5
					C40.5,41.8,40.4,41.7,40.3,41.7C40.3,41.7,40.3,41.7,40.3,41.7z"/>
			</g>
		</g>
		<g id="XMLID_42631_">
			<path id="XMLID_42638_" class="st8" d="M40.1,43.4L40.1,43.4c0.5,0,0.6,0.5,0.3,1l0,0c-0.2,0.2-0.4,0.4-0.6,0.4l0,0
				c-0.5,0-0.6-0.5-0.3-1l0,0C39.7,43.5,39.9,43.4,40.1,43.4z"/>
			<path id="XMLID_42637_" class="st9" d="M39.5,44c0-0.1,0.1-0.1,0.1-0.2l0,0c0.1-0.2,0.3-0.3,0.5-0.3l0,0c0.1,0,0.2,0,0.2,0h0
				c0,0,0.1,0.1,0.2,0.1l0,0l0,0c0.2,0.1,0.2,0.5,0,0.8l0,0c-0.1,0.2-0.3,0.3-0.5,0.3l0,0c-0.1,0-0.2,0-0.2,0
				c-0.2-0.1-0.1-0.1-0.2-0.1C39.5,44.5,39.4,44.3,39.5,44L39.5,44z"/>
			<path id="XMLID_42636_" class="st3" d="M40.3,43.5L40.3,43.5c0.4,0,0.6,0.5,0.3,0.9l0,0c-0.1,0.2-0.3,0.3-0.5,0.3l0,0
				c-0.4,0-0.6-0.5-0.3-0.9l0,0C39.9,43.7,40.1,43.5,40.3,43.5z"/>
			<g id="XMLID_42632_">
				<path id="XMLID_42633_" class="st9" d="M39.8,44.4c-0.1-0.1-0.1-0.4,0.1-0.5c0.1-0.1,0.3-0.2,0.4-0.3c0.1,0,0.2,0,0.3,0.1
					c0.1,0.1,0.1,0.4-0.1,0.5c-0.1,0.1-0.3,0.2-0.4,0.3c0,0,0,0,0,0C39.9,44.6,39.8,44.5,39.8,44.4z M40.3,43.7L40.3,43.7
					c-0.1,0-0.3,0.1-0.4,0.2c-0.1,0.2-0.2,0.4-0.1,0.5c0.1,0.1,0.1,0.1,0.3,0.1c0.1,0,0.3-0.1,0.4-0.2c0.1-0.2,0.2-0.4,0.1-0.5
					C40.5,43.7,40.4,43.7,40.3,43.7C40.3,43.7,40.3,43.7,40.3,43.7z"/>
			</g>
		</g>
		<g id="XMLID_42608_">
			<g id="XMLID_42617_">
				<g id="XMLID_42618_">
					<path id="XMLID_42630_" class="st8" d="M39.9,45.1L39.9,45.1C40,45.1,40,45.1,39.9,45.1L39.9,45.1
						C39.9,45.2,39.9,45.2,39.9,45.1L39.9,45.1C39.9,45.2,39.9,45.2,39.9,45.1L39.9,45.1C39.9,45.1,39.9,45.1,39.9,45.1z"/>
					<path id="XMLID_42629_" class="st8" d="M39.6,45.3L39.6,45.3C39.7,45.3,39.7,45.3,39.6,45.3L39.6,45.3
						C39.7,45.3,39.6,45.4,39.6,45.3L39.6,45.3C39.6,45.4,39.6,45.3,39.6,45.3L39.6,45.3C39.6,45.3,39.6,45.3,39.6,45.3z"/>
					<path id="XMLID_42628_" class="st8" d="M39.4,45.5L39.4,45.5C39.5,45.5,39.5,45.6,39.4,45.5L39.4,45.5
						C39.4,45.6,39.4,45.6,39.4,45.5L39.4,45.5C39.4,45.6,39.4,45.6,39.4,45.5L39.4,45.5C39.4,45.5,39.4,45.5,39.4,45.5z"/>
					<path id="XMLID_42627_" class="st8" d="M39.3,45.8L39.3,45.8C39.3,45.8,39.3,45.8,39.3,45.8L39.3,45.8
						C39.3,45.9,39.3,45.9,39.3,45.8L39.3,45.8C39.3,45.9,39.3,45.9,39.3,45.8L39.3,45.8C39.3,45.8,39.3,45.8,39.3,45.8z"/>
					<path id="XMLID_42626_" class="st8" d="M39.3,46.1L39.3,46.1C39.3,46.1,39.3,46.2,39.3,46.1L39.3,46.1
						C39.3,46.2,39.3,46.2,39.3,46.1L39.3,46.1C39.2,46.2,39.2,46.2,39.3,46.1L39.3,46.1C39.2,46.2,39.3,46.1,39.3,46.1z"/>
					<path id="XMLID_42625_" class="st8" d="M39.4,46.4L39.4,46.4C39.4,46.4,39.4,46.4,39.4,46.4L39.4,46.4
						C39.4,46.5,39.4,46.5,39.4,46.4L39.4,46.4C39.4,46.5,39.3,46.5,39.4,46.4L39.4,46.4C39.4,46.4,39.4,46.4,39.4,46.4z"/>
					<path id="XMLID_42624_" class="st8" d="M39.7,46.6L39.7,46.6C39.7,46.6,39.7,46.6,39.7,46.6L39.7,46.6
						C39.7,46.6,39.7,46.6,39.7,46.6L39.7,46.6C39.7,46.6,39.7,46.6,39.7,46.6L39.7,46.6C39.7,46.6,39.7,46.6,39.7,46.6z"/>
					<path id="XMLID_42623_" class="st8" d="M40.7,45.5L40.7,45.5C40.8,45.5,40.8,45.5,40.7,45.5L40.7,45.5
						C40.7,45.6,40.7,45.6,40.7,45.5L40.7,45.5C40.7,45.6,40.7,45.5,40.7,45.5L40.7,45.5C40.7,45.5,40.7,45.5,40.7,45.5z"/>
					<path id="XMLID_42622_" class="st8" d="M40.7,45.8L40.7,45.8C40.8,45.8,40.8,45.8,40.7,45.8L40.7,45.8
						C40.7,45.9,40.7,45.9,40.7,45.8L40.7,45.8C40.7,45.9,40.7,45.9,40.7,45.8L40.7,45.8C40.7,45.8,40.7,45.8,40.7,45.8z"/>
					<path id="XMLID_42621_" class="st8" d="M40.6,46.1L40.6,46.1C40.6,46.1,40.6,46.2,40.6,46.1L40.6,46.1
						C40.6,46.2,40.6,46.2,40.6,46.1L40.6,46.1C40.6,46.2,40.6,46.2,40.6,46.1L40.6,46.1C40.6,46.1,40.6,46.1,40.6,46.1z"/>
					<path id="XMLID_42620_" class="st8" d="M40.4,46.4L40.4,46.4C40.4,46.4,40.4,46.4,40.4,46.4L40.4,46.4
						C40.4,46.4,40.4,46.4,40.4,46.4L40.4,46.4C40.3,46.4,40.3,46.4,40.4,46.4L40.4,46.4C40.4,46.4,40.4,46.4,40.4,46.4z"/>
					<path id="XMLID_42619_" class="st8" d="M40.1,46.5L40.1,46.5C40.1,46.5,40.1,46.6,40.1,46.5L40.1,46.5
						C40.1,46.6,40.1,46.6,40.1,46.5L40.1,46.5C40,46.6,40,46.6,40.1,46.5L40.1,46.5C40.1,46.5,40.1,46.5,40.1,46.5z"/>
				</g>
			</g>
			<path id="XMLID_42616_" class="st8" d="M40.1,45.2L40.1,45.2c0.5,0,0.6,0.5,0.3,1l0,0c-0.2,0.2-0.4,0.4-0.6,0.4l0,0
				c-0.5,0-0.6-0.5-0.3-1l0,0C39.7,45.4,39.9,45.2,40.1,45.2z"/>
			<path id="XMLID_42615_" class="st9" d="M39.5,45.8c0-0.1,0.1-0.1,0.1-0.2l0,0c0.1-0.2,0.3-0.3,0.5-0.3l0,0c0.1,0,0.2,0,0.2,0h0
				c0,0,0.1,0.1,0.2,0.1l0,0l0,0c0.2,0.1,0.2,0.5,0,0.8l0,0c-0.1,0.2-0.3,0.3-0.5,0.3l0,0c-0.1,0-0.2,0-0.2,0
				c-0.2-0.1-0.1-0.1-0.2-0.1C39.5,46.3,39.4,46.1,39.5,45.8L39.5,45.8z"/>
			<path id="XMLID_42614_" class="st3" d="M40.3,45.3L40.3,45.3c0.4,0,0.6,0.5,0.3,0.9l0,0c-0.1,0.2-0.3,0.3-0.5,0.3l0,0
				c-0.4,0-0.6-0.5-0.3-0.9l0,0C39.9,45.5,40.1,45.4,40.3,45.3z"/>
			<g id="XMLID_42610_">
				<path id="XMLID_42611_" class="st9" d="M39.8,46.3c-0.1-0.1-0.1-0.4,0.1-0.5c0.1-0.1,0.3-0.2,0.4-0.3c0.1,0,0.2,0,0.3,0.1
					c0.1,0.1,0.1,0.4-0.1,0.5c-0.1,0.1-0.3,0.2-0.4,0.3c0,0,0,0,0,0C39.9,46.4,39.8,46.4,39.8,46.3z M40.3,45.5L40.3,45.5
					c-0.1,0-0.3,0.1-0.4,0.2c-0.1,0.2-0.2,0.4-0.1,0.5c0.1,0.1,0.1,0.1,0.3,0.1c0.1,0,0.3-0.1,0.4-0.2c0.1-0.2,0.2-0.4,0.1-0.5
					C40.5,45.6,40.4,45.5,40.3,45.5C40.3,45.5,40.3,45.5,40.3,45.5z"/>
			</g>
			<g id="XMLID_42609_">
			</g>
		</g>
		<g id="XMLID_42376_">
			<g id="XMLID_42603_">
				<polygon id="XMLID_42607_" class="st10" points="47.1,42 47.1,42.2 41.5,45.4 41.5,45.3 				"/>
				<polygon id="XMLID_42606_" class="st11" points="41.5,45.3 41.5,44.9 46.3,42.1 46.8,42 43.3,39.9 43.6,39.8 47.1,41.8 47.1,42 
									"/>
				<polygon id="XMLID_42605_" class="st12" points="43.3,39.9 46.8,42 46.3,42.1 42.9,40.2 				"/>
				<polygon id="XMLID_42604_" class="st13" points="42.9,40.2 46.3,42.1 41.5,44.9 41.5,41 				"/>
			</g>
			<g id="XMLID_42377_">
				<polygon id="XMLID_42602_" class="st14" points="47.1,40.9 47.1,40.8 47.1,40.8 				"/>
				<polygon id="XMLID_42601_" class="st10" points="46,40.2 46.1,40.2 41.5,42.9 41.5,42.8 				"/>
				<polygon id="XMLID_42600_" class="st3" points="41.5,42.8 41.5,42.8 46,40.2 46,40.2 				"/>
				<polygon id="XMLID_42599_" class="st3" points="46,40.2 41.5,42.8 41.5,42.8 46,40.2 				"/>
				<polygon id="XMLID_42598_" class="st10" points="46.3,40.4 46.3,40.4 41.5,43.2 41.5,43.2 				"/>
				<polygon id="XMLID_42597_" class="st3" points="41.5,43.2 41.5,43.2 46.3,40.4 46.3,40.4 				"/>
				<polygon id="XMLID_42596_" class="st3" points="46.3,40.4 41.5,43.2 41.5,43.1 46.3,40.3 				"/>
				<polygon id="XMLID_42595_" class="st10" points="46.6,40.5 46.6,40.6 41.5,43.5 41.5,43.5 				"/>
				<polygon id="XMLID_42594_" class="st3" points="41.5,43.5 41.5,43.5 46.6,40.5 46.6,40.5 				"/>
				<polygon id="XMLID_42593_" class="st3" points="46.6,40.5 41.5,43.5 41.5,43.5 46.6,40.5 				"/>
				<polygon id="XMLID_42592_" class="st10" points="46.9,40.7 46.9,40.7 41.5,43.9 41.5,43.8 				"/>
				<polygon id="XMLID_42591_" class="st3" points="41.5,43.8 41.5,43.8 46.9,40.7 46.9,40.7 				"/>
				<polygon id="XMLID_42590_" class="st3" points="46.9,40.7 46.9,40.7 41.5,43.8 41.5,43.8 				"/>
				<polygon id="XMLID_42589_" class="st3" points="46.9,40.7 41.5,43.8 41.5,43.8 46.9,40.7 				"/>
				<polygon id="XMLID_42588_" class="st10" points="44.6,39.4 44.6,39.4 41.5,41.2 41.5,41.1 				"/>
				<polygon id="XMLID_42587_" class="st3" points="41.5,41.1 41.5,41.1 44.6,39.4 44.6,39.4 				"/>
				<polygon id="XMLID_42586_" class="st3" points="44.6,39.4 44.6,39.4 41.5,41.1 41.5,41.1 				"/>
				<polygon id="XMLID_42585_" class="st3" points="44.6,39.4 41.5,41.1 41.5,41.1 44.5,39.3 				"/>
				<polygon id="XMLID_42584_" class="st10" points="44.9,39.5 44.9,39.5 41.5,41.5 41.5,41.5 				"/>
				<polygon id="XMLID_42583_" class="st3" points="41.5,41.5 41.5,41.5 44.9,39.5 44.9,39.5 				"/>
				<polygon id="XMLID_42582_" class="st3" points="44.9,39.5 44.9,39.5 41.5,41.5 41.5,41.5 				"/>
				<polygon id="XMLID_42581_" class="st3" points="44.9,39.5 41.5,41.5 41.5,41.4 44.8,39.5 				"/>
				<polygon id="XMLID_42580_" class="st10" points="45.1,39.7 45.2,39.7 41.5,41.9 41.5,41.8 				"/>
				<polygon id="XMLID_42579_" class="st3" points="41.5,41.8 41.5,41.8 45.1,39.7 45.1,39.7 				"/>
				<polygon id="XMLID_42578_" class="st3" points="45.1,39.7 45.1,39.7 41.5,41.8 41.5,41.8 				"/>
				<polygon id="XMLID_42577_" class="st3" points="45.1,39.7 41.5,41.8 41.5,41.8 45.1,39.7 				"/>
				<polygon id="XMLID_42576_" class="st10" points="45.4,39.9 45.5,39.9 41.5,42.2 41.5,42.1 				"/>
				<polygon id="XMLID_42575_" class="st3" points="41.5,42.1 41.5,42.1 45.4,39.9 45.4,39.9 				"/>
				<polygon id="XMLID_42574_" class="st3" points="45.4,39.9 45.4,39.9 41.5,42.1 41.5,42.1 				"/>
				<polygon id="XMLID_42573_" class="st3" points="45.4,39.9 41.5,42.1 41.5,42.1 45.4,39.8 				"/>
				<polygon id="XMLID_42572_" class="st10" points="45.7,40 45.8,40 41.5,42.5 41.5,42.5 				"/>
				<polygon id="XMLID_42571_" class="st3" points="41.5,42.5 41.5,42.5 45.7,40 45.7,40 				"/>
				<polygon id="XMLID_42570_" class="st3" points="45.7,40 45.7,40 41.5,42.5 41.5,42.5 				"/>
				<polygon id="XMLID_42569_" class="st3" points="45.7,40 41.5,42.5 41.5,42.4 45.7,40 				"/>
				<polygon id="XMLID_42568_" class="st10" points="46.7,40.5 46.9,40.7 46.9,40.7 46.6,40.6 46.7,40.5 				"/>
				<polygon id="XMLID_42567_" class="st10" points="46.1,40.2 46.3,40.3 46.3,40.3 46.1,40.2 46.1,40.2 				"/>
				<polygon id="XMLID_42566_" class="st10" points="45.8,40 46,40.2 46,40.2 45.8,40 45.8,40 				"/>
				<polygon id="XMLID_42565_" class="st10" points="44.6,39.3 44.5,39.3 44.4,39.3 44.5,39.3 				"/>
				<polygon id="XMLID_42564_" class="st10" points="44.6,39.4 44.9,39.5 44.8,39.5 44.6,39.4 44.6,39.4 				"/>
				<polygon id="XMLID_42563_" class="st10" points="45.5,39.9 45.7,40 45.7,40 45.5,39.9 45.5,39.9 				"/>
				<polygon id="XMLID_42562_" class="st10" points="45.2,39.7 45.4,39.8 45.4,39.8 45.2,39.7 45.2,39.7 				"/>
				<polygon id="XMLID_42561_" class="st10" points="44.9,39.5 45.1,39.7 45.1,39.7 44.9,39.5 44.9,39.5 				"/>
				<polygon id="XMLID_42560_" class="st10" points="46.4,40.4 46.6,40.5 46.6,40.5 46.3,40.4 46.4,40.4 				"/>
				<polygon id="XMLID_42559_" class="st10" points="46.1,40.2 46.1,40.2 46.1,40.2 46,40.2 46.1,40.2 				"/>
				<polygon id="XMLID_42558_" class="st10" points="46,40.2 46.1,40.2 46,40.2 46,40.2 46,40.2 				"/>
				<polygon id="XMLID_42557_" class="st10" points="46,40.2 46,40.2 46,40.2 46,40.2 46,40.2 				"/>
				<polygon id="XMLID_42556_" class="st10" points="46.4,40.4 46.4,40.4 46.3,40.4 46.3,40.4 46.3,40.3 				"/>
				<polygon id="XMLID_42555_" class="st10" points="46.3,40.3 46.3,40.3 46.3,40.4 46.3,40.4 46.3,40.3 				"/>
				<polygon id="XMLID_42554_" class="st10" points="46.3,40.3 46.3,40.3 46.3,40.4 46.3,40.3 46.3,40.3 				"/>
				<polygon id="XMLID_42553_" class="st10" points="46.7,40.5 46.7,40.5 46.6,40.6 46.6,40.5 46.6,40.5 				"/>
				<polygon id="XMLID_42552_" class="st10" points="46.6,40.5 46.6,40.5 46.6,40.5 46.6,40.5 46.6,40.5 				"/>
				<polygon id="XMLID_42551_" class="st10" points="46.6,40.5 46.6,40.5 46.6,40.5 46.6,40.5 46.6,40.5 				"/>
				<polygon id="XMLID_42550_" class="st10" points="47,40.7 47,40.7 46.9,40.7 46.9,40.7 46.9,40.7 				"/>
				<polygon id="XMLID_42549_" class="st10" points="46.9,40.7 46.9,40.7 46.9,40.7 46.9,40.7 46.9,40.7 				"/>
				<polygon id="XMLID_42548_" class="st10" points="46.9,40.7 46.9,40.7 46.9,40.7 46.9,40.7 				"/>
				<polygon id="XMLID_42547_" class="st10" points="46.9,40.7 46.9,40.7 46.9,40.7 46.9,40.7 46.9,40.7 				"/>
				<polygon id="XMLID_42546_" class="st10" points="44.6,39.4 44.6,39.4 44.6,39.4 44.6,39.4 44.6,39.3 				"/>
				<polygon id="XMLID_42545_" class="st10" points="44.6,39.3 44.6,39.3 44.6,39.4 44.6,39.4 44.6,39.3 				"/>
				<polygon id="XMLID_42544_" class="st10" points="44.6,39.3 44.6,39.3 44.6,39.4 44.6,39.4 				"/>
				<polygon id="XMLID_42543_" class="st10" points="44.6,39.3 44.6,39.4 44.5,39.3 44.6,39.3 44.6,39.3 				"/>
				<polygon id="XMLID_42542_" class="st10" points="44.9,39.5 44.9,39.5 44.9,39.5 44.9,39.5 44.9,39.5 				"/>
				<polygon id="XMLID_42541_" class="st10" points="44.9,39.5 44.9,39.5 44.9,39.5 44.9,39.5 44.9,39.5 				"/>
				<polygon id="XMLID_42540_" class="st10" points="44.9,39.5 44.9,39.5 44.9,39.5 44.9,39.5 				"/>
				<polygon id="XMLID_42539_" class="st10" points="44.9,39.5 44.9,39.5 44.9,39.5 44.8,39.5 44.9,39.5 				"/>
				<polygon id="XMLID_42538_" class="st10" points="45.2,39.7 45.2,39.7 45.2,39.7 45.1,39.7 45.2,39.7 				"/>
				<polygon id="XMLID_42537_" class="st10" points="45.2,39.7 45.2,39.7 45.1,39.7 45.1,39.7 45.2,39.7 				"/>
				<polygon id="XMLID_42536_" class="st10" points="45.2,39.7 45.2,39.7 45.1,39.7 45.1,39.7 				"/>
				<polygon id="XMLID_42535_" class="st10" points="45.2,39.7 45.2,39.7 45.1,39.7 45.1,39.7 45.1,39.7 				"/>
				<polygon id="XMLID_42532_" class="st10" points="45.5,39.9 45.5,39.9 45.5,39.9 45.4,39.9 45.5,39.8 				"/>
				<polygon id="XMLID_42531_" class="st10" points="45.5,39.8 45.5,39.8 45.4,39.9 45.4,39.9 45.5,39.8 				"/>
				<polygon id="XMLID_42530_" class="st10" points="45.5,39.8 45.5,39.8 45.4,39.9 45.4,39.9 				"/>
				<polygon id="XMLID_42529_" class="st10" points="45.5,39.8 45.5,39.8 45.4,39.9 45.4,39.8 45.4,39.8 				"/>
				<polygon id="XMLID_42525_" class="st10" points="45.8,40 45.8,40 45.8,40 45.7,40 45.8,40 				"/>
				<polygon id="XMLID_42524_" class="st10" points="45.8,40 45.8,40 45.7,40 45.7,40 45.8,40 				"/>
				<polygon id="XMLID_42522_" class="st10" points="45.8,40 45.8,40 45.7,40 45.7,40 				"/>
				<polygon id="XMLID_42521_" class="st10" points="45.8,40 45.8,40 45.7,40 45.7,40 45.7,40 				"/>
				<polygon id="XMLID_42520_" class="st3" points="45.8,40 45.8,40 46,40.2 46,40.2 				"/>
				<polygon id="XMLID_42519_" class="st3" points="44.5,39.3 44.5,39.3 44.6,39.3 44.6,39.3 				"/>
				<polygon id="XMLID_42515_" class="st3" points="46.7,40.5 46.7,40.5 46.9,40.7 46.9,40.7 				"/>
				<polygon id="XMLID_42514_" class="st3" points="45.5,39.9 45.5,39.9 45.7,40 45.7,40 				"/>
				<polygon id="XMLID_42513_" class="st3" points="45.2,39.7 45.2,39.7 45.4,39.8 45.4,39.8 				"/>
				<polygon id="XMLID_42511_" class="st3" points="44.6,39.4 44.6,39.4 44.9,39.5 44.9,39.5 				"/>
				<polygon id="XMLID_42510_" class="st3" points="44.9,39.5 44.9,39.5 45.1,39.7 45.1,39.7 				"/>
				<polygon id="XMLID_42509_" class="st3" points="46.4,40.4 46.4,40.4 46.6,40.5 46.6,40.5 				"/>
				<polygon id="XMLID_42508_" class="st3" points="46.1,40.2 46.1,40.2 46.3,40.3 46.3,40.3 				"/>
				<polygon id="XMLID_42504_" class="st3" points="46.1,40.2 46.1,40.2 46.1,40.2 46.1,40.2 				"/>
				
					<ellipse id="XMLID_42503_" transform="matrix(0.349 -0.9371 0.9371 0.349 -7.67 69.3152)" class="st3" cx="46.1" cy="40.2" rx="0" ry="0"/>
				<polygon id="XMLID_42501_" class="st3" points="46,40.2 46,40.2 46,40.2 46,40.2 				"/>
				<polygon id="XMLID_42500_" class="st3" points="46.3,40.3 46.3,40.3 46.4,40.4 46.4,40.4 				"/>
				
					<ellipse id="XMLID_42499_" transform="matrix(0.3202 -0.9473 0.9473 0.3202 -6.715 71.335)" class="st3" cx="46.3" cy="40.3" rx="0" ry="0"/>
				<polygon id="XMLID_42498_" class="st3" points="46.3,40.3 46.3,40.3 46.3,40.3 46.3,40.3 				"/>
				<polygon id="XMLID_42494_" class="st3" points="46.6,40.5 46.6,40.5 46.7,40.5 46.7,40.5 				"/>
				
					<ellipse id="XMLID_42493_" transform="matrix(0.2029 -0.9792 0.9792 0.2029 -2.4973 77.9605)" class="st3" cx="46.6" cy="40.5" rx="0" ry="0"/>
				<polygon id="XMLID_42492_" class="st3" points="46.6,40.5 46.6,40.5 46.6,40.5 46.6,40.5 				"/>
				<polygon id="XMLID_42491_" class="st3" points="46.9,40.7 46.9,40.7 47,40.7 47,40.7 				"/>
				
					<ellipse id="XMLID_42488_" transform="matrix(0.1568 -0.9876 0.9876 0.1568 -0.6078 80.6547)" class="st3" cx="46.9" cy="40.7" rx="0" ry="0"/>
				
					<ellipse id="XMLID_42487_" transform="matrix(0.8795 -0.4758 0.4758 0.8795 -13.7048 27.231)" class="st3" cx="46.9" cy="40.7" rx="0" ry="0"/>
				<polygon id="XMLID_42486_" class="st3" points="46.9,40.7 46.9,40.7 46.9,40.7 46.9,40.7 				"/>
				<polygon id="XMLID_42485_" class="st3" points="44.6,39.3 44.6,39.3 44.6,39.4 44.6,39.4 				"/>
				<polygon id="XMLID_42481_" class="st3" points="44.6,39.3 44.6,39.3 44.6,39.3 44.6,39.3 				"/>
				
					<ellipse id="XMLID_42480_" transform="matrix(0.9117 -0.4108 0.4108 0.9117 -12.2216 21.7924)" class="st3" cx="44.6" cy="39.3" rx="0" ry="0"/>
				<polygon id="XMLID_42478_" class="st3" points="44.6,39.3 44.6,39.3 44.6,39.3 44.6,39.3 				"/>
				<polygon id="XMLID_42477_" class="st3" points="44.9,39.5 44.9,39.5 44.9,39.5 44.9,39.5 				"/>
				<polygon id="XMLID_42476_" class="st3" points="44.9,39.5 44.9,39.5 44.9,39.5 44.9,39.5 				"/>
				
					<ellipse id="XMLID_42475_" transform="matrix(0.8529 -0.5221 0.5221 0.8529 -14.0212 29.251)" class="st3" cx="44.9" cy="39.5" rx="0" ry="0"/>
				<polygon id="XMLID_42471_" class="st3" points="44.9,39.5 44.9,39.5 44.9,39.5 44.9,39.5 				"/>
				<polygon id="XMLID_42470_" class="st3" points="45.2,39.7 45.2,39.7 45.2,39.7 45.2,39.7 				"/>
				
					<ellipse id="XMLID_42469_" transform="matrix(0.3328 -0.943 0.943 0.3328 -7.2646 69.0785)" class="st3" cx="45.2" cy="39.7" rx="0" ry="0"/>
				
					<ellipse id="XMLID_42467_" transform="matrix(0.8335 -0.5526 0.5526 0.8335 -14.3977 31.575)" class="st3" cx="45.2" cy="39.7" rx="0" ry="0"/>
				<polygon id="XMLID_42465_" class="st3" points="45.2,39.7 45.1,39.7 45.1,39.7 45.2,39.7 				"/>
				<polygon id="XMLID_42464_" class="st3" points="45.5,39.8 45.5,39.8 45.5,39.9 45.5,39.9 				"/>
				
					<ellipse id="XMLID_42463_" transform="matrix(0.3276 -0.9448 0.9448 0.3276 -7.0669 69.7537)" class="st3" cx="45.5" cy="39.8" rx="0" ry="0"/>
				
					<ellipse id="XMLID_42462_" transform="matrix(0.8874 -0.461 0.461 0.8874 -13.2459 25.4478)" class="st3" cx="45.5" cy="39.8" rx="0" ry="0"/>
				<polygon id="XMLID_42458_" class="st3" points="45.5,39.8 45.4,39.8 45.4,39.8 45.5,39.8 				"/>
				<polygon id="XMLID_42457_" class="st3" points="45.8,40 45.8,40 45.8,40 45.8,40 				"/>
				
					<ellipse id="XMLID_42455_" transform="matrix(0.1811 -0.9835 0.9835 0.1811 -1.8711 77.77)" class="st3" cx="45.8" cy="40" rx="0" ry="0"/>
				
					<ellipse id="XMLID_42454_" transform="matrix(0.8729 -0.488 0.488 0.8729 -13.7047 27.4184)" class="st3" cx="45.8" cy="40" rx="0" ry="0"/>
				<polygon id="XMLID_42453_" class="st3" points="45.8,40 45.7,40 45.7,40 45.8,40 				"/>
				<polygon id="XMLID_42452_" class="st3" points="47,40.7 47,40.7 47,40.7 47,40.7 47,40.7 46.9,40.7 46.9,40.7 46.7,40.5 
					46.7,40.5 46.6,40.5 46.6,40.5 46.4,40.4 46.4,40.3 46.3,40.3 46.3,40.3 46.1,40.2 46.1,40.2 46,40.1 46,40.2 45.8,40 45.8,40 
					45.8,40 45.8,40 45.8,40 45.8,40 45.8,40 45.7,40 45.5,39.9 45.5,39.8 45.5,39.8 45.5,39.8 45.5,39.8 45.5,39.8 45.5,39.8 
					45.4,39.8 45.2,39.7 45.2,39.7 45.2,39.7 45.2,39.7 45.2,39.7 45.2,39.7 45.2,39.6 45.1,39.7 44.9,39.5 44.9,39.5 44.9,39.5 
					44.9,39.5 44.9,39.5 44.9,39.5 44.6,39.4 44.6,39.3 44.6,39.3 44.6,39.3 44.6,39.3 44.6,39.3 44.6,39.3 44.6,39.3 44.5,39.3 
					44.5,39.2 				"/>
				<polygon id="XMLID_42448_" class="st3" points="46.1,40.2 46.1,40.2 46.1,40.2 				"/>
				<polygon id="XMLID_42447_" class="st3" points="46,40.2 46,40.1 46,40.1 46.1,40.2 46.1,40.2 				"/>
				<polygon id="XMLID_42446_" class="st3" points="46,40.2 46,40.2 46,40.1 46,40.1 				"/>
				<polygon id="XMLID_42444_" class="st3" points="46.4,40.3 46.4,40.4 46.3,40.3 				"/>
				<polygon id="XMLID_42443_" class="st3" points="46.3,40.3 46.3,40.3 46.3,40.3 46.4,40.3 46.3,40.3 				"/>
				<polygon id="XMLID_42442_" class="st3" points="46.3,40.3 46.3,40.3 46.3,40.3 46.3,40.3 				"/>
				<polygon id="XMLID_42441_" class="st3" points="46.7,40.5 46.7,40.5 46.6,40.5 				"/>
				<polygon id="XMLID_42437_" class="st3" points="46.6,40.5 46.6,40.5 46.6,40.5 46.7,40.5 46.6,40.5 				"/>
				<polygon id="XMLID_42436_" class="st3" points="46.6,40.5 46.6,40.5 46.6,40.5 46.6,40.5 				"/>
				<polygon id="XMLID_42434_" class="st3" points="47,40.7 47,40.7 47,40.7 				"/>
				<polygon id="XMLID_42433_" class="st3" points="47,40.7 47,40.7 46.9,40.7 				"/>
				<polygon id="XMLID_42432_" class="st3" points="47,40.7 47,40.7 47,40.7 				"/>
				<polygon id="XMLID_42431_" class="st3" points="46.9,40.7 46.9,40.6 47,40.7 46.9,40.7 				"/>
				<polygon id="XMLID_42427_" class="st3" points="46.9,40.7 47,40.7 47,40.7 47,40.7 46.9,40.7 				"/>
				<polygon id="XMLID_42426_" class="st3" points="46.9,40.7 46.9,40.6 46.9,40.7 				"/>
				<polygon id="XMLID_42425_" class="st3" points="44.6,39.3 44.6,39.3 44.6,39.3 				"/>
				<polygon id="XMLID_42424_" class="st3" points="44.6,39.3 44.6,39.4 44.6,39.3 				"/>
				<polygon id="XMLID_42423_" class="st3" points="44.6,39.3 44.6,39.3 44.6,39.3 44.6,39.3 				"/>
				<polygon id="XMLID_42420_" class="st3" points="44.6,39.3 44.6,39.3 44.6,39.3 				"/>
				<polygon id="XMLID_42416_" class="st3" points="44.6,39.3 44.6,39.3 44.6,39.3 44.6,39.3 44.6,39.3 				"/>
				<polygon id="XMLID_42415_" class="st3" points="44.6,39.3 44.6,39.3 44.6,39.3 				"/>
				<polygon id="XMLID_42413_" class="st3" points="44.9,39.5 44.9,39.5 44.9,39.5 				"/>
				<polygon id="XMLID_42409_" class="st3" points="44.9,39.5 44.9,39.5 44.9,39.5 				"/>
				<polygon id="XMLID_42408_" class="st3" points="44.9,39.5 44.9,39.5 44.9,39.5 44.9,39.5 				"/>
				<polygon id="XMLID_42407_" class="st3" points="44.9,39.5 44.9,39.5 44.9,39.5 44.9,39.5 				"/>
				<polygon id="XMLID_42404_" class="st3" points="44.9,39.5 44.9,39.5 44.9,39.5 				"/>
				<polygon id="XMLID_42402_" class="st3" points="45.2,39.7 45.2,39.7 45.2,39.7 				"/>
				<polygon id="XMLID_42398_" class="st3" points="45.2,39.7 45.2,39.7 45.2,39.7 				"/>
				<polygon id="XMLID_42397_" class="st3" points="45.2,39.7 45.2,39.7 45.2,39.7 				"/>
				<polygon id="XMLID_42395_" class="st3" points="45.2,39.7 45.2,39.6 45.2,39.7 45.2,39.7 				"/>
				<polygon id="XMLID_42391_" class="st3" points="45.2,39.7 45.2,39.7 45.2,39.7 45.2,39.7 45.2,39.7 				"/>
				<polygon id="XMLID_42390_" class="st3" points="45.1,39.7 45.2,39.6 45.2,39.7 				"/>
				<polygon id="XMLID_42389_" class="st3" points="45.5,39.8 45.5,39.9 45.5,39.8 				"/>
				<polygon id="XMLID_42388_" class="st3" points="45.5,39.8 45.5,39.8 45.5,39.8 				"/>
				<polygon id="XMLID_42387_" class="st3" points="45.5,39.8 45.5,39.8 45.5,39.8 				"/>
				<polygon id="XMLID_42386_" class="st3" points="45.5,39.8 45.5,39.8 45.5,39.8 45.5,39.8 				"/>
				<polygon id="XMLID_42385_" class="st3" points="45.5,39.8 45.5,39.8 45.5,39.8 45.5,39.8 45.5,39.8 				"/>
				<polygon id="XMLID_42384_" class="st3" points="45.4,39.8 45.5,39.8 45.5,39.8 				"/>
				<polygon id="XMLID_42383_" class="st3" points="45.8,40 45.8,40 45.8,40 				"/>
				<polygon id="XMLID_42382_" class="st3" points="45.8,40 45.8,40 45.8,40 				"/>
				<polygon id="XMLID_42381_" class="st3" points="45.8,40 45.8,40 45.8,40 				"/>
				<polygon id="XMLID_42380_" class="st3" points="45.8,40 45.8,40 45.8,40 45.8,40 				"/>
				<polygon id="XMLID_42379_" class="st3" points="45.8,40 45.8,40 45.8,40 45.8,40 45.8,40 				"/>
				<polygon id="XMLID_42378_" class="st3" points="45.7,40 45.8,40 45.8,40 				"/>
			</g>
		</g>
		<g id="XMLID_42351_">
			<g id="XMLID_42371_">
				<polygon id="XMLID_42375_" class="st7" points="46.6,42.3 41.5,45.3 46.6,42.3 				"/>
				<polygon id="XMLID_42374_" class="st9" points="46.7,42.3 41.5,45.4 41.5,45.3 46.6,42.3 				"/>
				<polygon id="XMLID_42373_" class="st15" points="46.6,42.3 41.5,45.3 41.5,44.9 46.2,42.2 				"/>
				<polygon id="XMLID_42372_" class="st16" points="46.2,42.2 41.5,44.9 41.5,41 41.8,40.8 				"/>
			</g>
			<g id="XMLID_42352_">
				<polygon id="XMLID_42370_" class="st9" points="43.9,41.5 41.5,42.9 41.5,42.8 43.9,41.5 				"/>
				<polygon id="XMLID_42369_" class="st17" points="43.8,41.4 43.9,41.5 41.5,42.8 41.5,42.8 				"/>
				<polygon id="XMLID_42368_" class="st9" points="44.3,41.6 41.5,43.2 41.5,43.2 44.2,41.6 				"/>
				<polygon id="XMLID_42367_" class="st17" points="44.2,41.6 44.2,41.6 41.5,43.2 41.5,43.1 				"/>
				<polygon id="XMLID_42366_" class="st9" points="44.7,41.7 41.5,43.5 41.5,43.5 44.6,41.7 				"/>
				<polygon id="XMLID_42365_" class="st17" points="44.6,41.7 44.6,41.7 41.5,43.5 41.5,43.5 				"/>
				<polygon id="XMLID_42364_" class="st9" points="45,41.8 41.5,43.9 41.5,43.8 45,41.8 				"/>
				<polygon id="XMLID_42363_" class="st17" points="44.9,41.8 45,41.8 41.5,43.8 41.5,43.8 				"/>
				<polygon id="XMLID_42362_" class="st9" points="42,40.9 41.5,41.2 41.5,41.1 42,40.9 				"/>
				<polygon id="XMLID_42361_" class="st17" points="41.9,40.8 42,40.9 41.5,41.1 41.5,41.1 				"/>
				<polygon id="XMLID_42360_" class="st9" points="42.4,41 41.5,41.5 41.5,41.5 42.3,41 				"/>
				<polygon id="XMLID_42359_" class="st17" points="42.3,41 42.3,41 41.5,41.5 41.5,41.4 				"/>
				<polygon id="XMLID_42358_" class="st9" points="42.8,41.1 41.5,41.9 41.5,41.8 42.7,41.1 				"/>
				<polygon id="XMLID_42357_" class="st17" points="42.7,41.1 42.7,41.1 41.5,41.8 41.5,41.8 				"/>
				<polygon id="XMLID_42356_" class="st9" points="43.1,41.2 41.5,42.2 41.5,42.1 43.1,41.2 				"/>
				<polygon id="XMLID_42355_" class="st17" points="43.1,41.2 43.1,41.2 41.5,42.1 41.5,42.1 				"/>
				<polygon id="XMLID_42354_" class="st9" points="43.5,41.3 41.5,42.5 41.5,42.5 43.5,41.3 				"/>
				<polygon id="XMLID_42353_" class="st17" points="43.4,41.3 43.5,41.3 41.5,42.5 41.5,42.4 				"/>
			</g>
		</g>
		<g id="XMLID_42339_">
			<g id="XMLID_42348_">
				<polygon id="XMLID_42350_" class="st3" points="41.4,40.7 41.1,40.5 41.4,40.3 41.8,40.5 				"/>
				<polygon id="XMLID_42349_" class="st18" points="41.4,41 41.4,40.7 41.1,40.5 41.1,40.8 				"/>
			</g>
			<g id="XMLID_42345_">
				<polygon id="XMLID_42347_" class="st3" points="47.4,37.2 47.1,37 47.4,36.8 47.8,37 				"/>
				<polygon id="XMLID_42346_" class="st18" points="47.4,37.5 47.4,37.2 47.1,37 47.1,37.4 				"/>
			</g>
			<g id="XMLID_42340_">
				<polygon id="XMLID_42344_" class="st10" points="41.8,41.2 41.8,40.8 48.1,37.2 48.1,37.5 				"/>
				<polygon id="XMLID_42343_" class="st10" points="41.4,41 41.4,40.7 47.8,37 47.8,37 47.8,37.4 				"/>
				<polygon id="XMLID_42342_" class="st3" points="41.8,40.8 41.4,40.7 47.8,37 48.1,37.2 				"/>
				<polygon id="XMLID_42341_" class="st18" points="41.8,41.2 41.8,40.8 41.4,40.7 41.4,41 				"/>
			</g>
		</g>
	</g>
</g>
</svg>
