<?xml version="1.0" encoding="utf-8"?>
<!-- Generator: Adobe Illustrator 21.0.0, SVG Export Plug-In . SVG Version: 6.00 Build 0)  -->
<svg version="1.1" id="Layer_1" xmlns="http://www.w3.org/2000/svg" xmlns:xlink="http://www.w3.org/1999/xlink" x="0px" y="0px"
	 viewBox="0 0 80 80" style="enable-background:new 0 0 80 80;" xml:space="preserve">
<style type="text/css">
	.st0{fill:#AAB5B0;}
	.st1{fill:#9CA8A4;}
	.st2{fill:#E5E6E6;}
	.st3{fill:#CCD3D3;}
	.st4{fill:#D5D4D4;}
	.st5{fill:#428976;}
	.st6{fill:#306D5B;}
	.st7{fill:#C6C4C3;}
	.st8{fill:none;}
	.st9{fill:none;stroke:#C6C4C3;stroke-miterlimit:10;}
	.st10{fill:#D4D5D5;}
	.st11{fill:#CECDCB;}
	.st12{fill:#DBDDDB;}
	.st13{fill:#FFFFFF;}
	.st14{fill:#EFEFEF;}
	.st15{fill:#C5C6D4;}
	.st16{fill:#DBDBD9;}
	.st17{fill:#A5CFD5;}
	.st18{fill:#9CC6CA;}
</style>
<g id="XMLID_42722_">
	<g id="XMLID_42723_">
		<g id="XMLID_42739_">
			<polygon id="XMLID_42793_" class="st0" points="60,26.9 60,53.4 40.2,64.9 40.2,38.3 			"/>
			<polyline id="XMLID_46233_" class="st1" points="40.2,64.9 40.2,38.3 60,26.9 			"/>
			<polygon id="XMLID_42792_" class="st2" points="20,26.6 40.2,38.3 40.2,64.9 20,53.1 			"/>
			<polyline id="XMLID_46238_" class="st3" points="20,26.6 40.2,38.3 40.2,64.9 			"/>
			<g id="XMLID_42789_">
				<polygon id="XMLID_42791_" class="st4" points="20.8,27.9 26.4,31.1 26.4,33.8 26.2,34 20.7,30.8 20.7,28 				"/>
				<polygon id="XMLID_42790_" class="st5" points="20.7,28 26.2,31.1 26.2,34 20.7,30.8 				"/>
				<polyline id="XMLID_46239_" class="st6" points="20.7,28 26.2,31.1 26.2,34 				"/>
			</g>
			<g id="XMLID_42743_">
				<g id="XMLID_42761_">
					<g id="XMLID_42769_">
						<g id="XMLID_42780_">
							<g id="XMLID_42787_">
								<polygon id="XMLID_42788_" class="st7" points="38.2,39.4 38.2,38.1 38.3,38.1 38.3,39.3 38.9,38.7 39.1,38.7 								"/>
							</g>
							<g id="XMLID_42785_">
								<polygon id="XMLID_42786_" class="st7" points="39.2,40.2 38.2,39.4 39.3,39.4 39.3,39.4 38.3,39.4 								"/>
							</g>
							<g id="XMLID_42783_">
								<polygon id="XMLID_42784_" class="st7" points="38.3,40.5 38.2,40.5 38.2,39.4 37.6,40.1 37.5,40.1 38.3,39.3 								"/>
							</g>
							<g id="XMLID_42781_">
								<polygon id="XMLID_42782_" class="st7" points="38.3,39.4 37.2,39.4 37.2,39.4 38.2,39.4 37.2,38.3 37.3,38.3 								"/>
							</g>
						</g>
						<g id="XMLID_42778_">
							<path id="XMLID_42779_" class="st2" d="M38,38.3L38,38.3c-0.7,0-0.9,0.7-0.5,1.4l0,0c0.2,0.4,0.6,0.5,0.9,0.6l0,0
								c0.7,0,0.9-0.7,0.5-1.4l0,0C38.6,38.6,38.3,38.3,38,38.3z"/>
						</g>
						<g id="XMLID_42776_">
							<circle id="XMLID_42777_" class="st8" cx="38.3" cy="39.4" r="0"/>
						</g>
						<g id="XMLID_42774_">
							<path id="XMLID_42775_" class="st8" d="M38.3,39.4L38.3,39.4L38.3,39.4z"/>
						</g>
						<g id="XMLID_42772_">
							<path id="XMLID_42773_" class="st8" d="M38.3,39.4L38.3,39.4L38.3,39.4z"/>
						</g>
						<g id="XMLID_42770_">
							<path id="XMLID_42771_" class="st9" d="M38.5,40.7"/>
						</g>
					</g>
					<g id="XMLID_42762_">
						<g id="XMLID_42767_">
							<path id="XMLID_42768_" class="st10" d="M38.9,39.2c0-0.1-0.1-0.2-0.1-0.4l0,0c-0.2-0.2-0.5-0.5-0.8-0.5l0,0
								c-0.1,0-0.2,0-0.4,0.1l0,0l-0.2,0.1l0,0l0,0c-0.4,0.2-0.4,0.7,0,1.2l0,0c0.2,0.2,0.5,0.5,0.8,0.5l0,0c0.1,0,0.2,0,0.4,0
								c0.2-0.1,0.2-0.1,0.4-0.1C38.9,39.9,39.1,39.6,38.9,39.2L38.9,39.2z"/>
						</g>
						<g id="XMLID_42765_">
							<path id="XMLID_42766_" class="st2" d="M37.8,38.6L37.8,38.6c-0.6,0-0.8,0.7-0.4,1.3l0,0c0.2,0.2,0.5,0.5,0.8,0.5l0,0
								c0.6,0,0.8-0.7,0.4-1.3l0,0C38.3,38.7,38,38.6,37.8,38.6z"/>
						</g>
						<g id="XMLID_42763_">
							<path id="XMLID_42764_" class="st11" d="M37.8,38.8L37.8,38.8c-0.5,0-0.6,0.5-0.2,0.8l0,0c0.1,0.2,0.4,0.4,0.6,0.4l0,0
								c0.5,0,0.6-0.5,0.2-0.8l0,0C38.2,38.9,38,38.8,37.8,38.8z"/>
						</g>
					</g>
				</g>
				<g id="XMLID_42744_">
					<g id="XMLID_42757_">
						<path id="XMLID_42760_" class="st12" d="M36.3,37.8c0-0.1,0-0.1-0.1-0.2l0,0c-0.1-0.1-0.2-0.2-0.5-0.2l0,0c-0.1,0-0.1,0-0.2,0
							l0,0l-0.2,0.1l0,0l0,0c-0.1,0.1-0.2,0.5,0,0.7l0,0c0.1,0.1,0.2,0.2,0.5,0.2l0,0c0.1,0,0.1,0,0.1,0c0.1-0.1,0.2-0.1,0.2-0.1
							C36.3,38.2,36.3,38,36.3,37.8L36.3,37.8z"/>
						<path id="XMLID_42759_" class="st7" d="M35.5,37.4L35.5,37.4c-0.4,0-0.5,0.4-0.2,0.7l0,0c0.1,0.1,0.2,0.2,0.5,0.2l0,0
							c0.4,0,0.5-0.4,0.2-0.7l0,0C35.9,37.5,35.7,37.4,35.5,37.4z"/>
						<path id="XMLID_42758_" class="st12" d="M35.6,37.6L35.6,37.6c-0.2,0-0.2,0.2-0.1,0.5l0,0c0.1,0.1,0.1,0.1,0.2,0.1l0,0
							c0.2,0,0.2-0.2,0.1-0.5l0,0C35.7,37.8,35.6,37.6,35.6,37.6z"/>
					</g>
					<g id="XMLID_42753_">
						<path id="XMLID_42756_" class="st12" d="M35,37c0-0.1,0-0.1-0.1-0.2l0,0c-0.1-0.1-0.2-0.2-0.5-0.2l0,0c-0.1,0-0.1,0-0.2,0l0,0
							L34,36.7l0,0l0,0c-0.1,0.1-0.2,0.5,0,0.7l0,0c0.1,0.1,0.2,0.2,0.5,0.2l0,0c0.1,0,0.1,0,0.1,0c0.1-0.1,0.2-0.1,0.2-0.1
							C35,37.4,35,37.3,35,37L35,37z"/>
						<path id="XMLID_42755_" class="st7" d="M34.2,36.7L34.2,36.7c-0.4,0-0.5,0.4-0.2,0.7l0,0c0.1,0.1,0.2,0.2,0.5,0.2l0,0
							c0.4,0,0.5-0.4,0.2-0.7l0,0C34.6,36.8,34.4,36.7,34.2,36.7z"/>
						<path id="XMLID_42754_" class="st12" d="M34.3,36.9L34.3,36.9c-0.2,0-0.2,0.2-0.1,0.5l0,0c0.1,0.1,0.1,0.1,0.2,0.1l0,0
							c0.2,0,0.2-0.2,0.1-0.5l0,0C34.4,37,34.4,36.9,34.3,36.9z"/>
					</g>
					<g id="XMLID_42749_">
						<path id="XMLID_42752_" class="st12" d="M33.7,36.3c0-0.1,0-0.1-0.1-0.2l0,0c-0.1-0.1-0.2-0.2-0.5-0.2l0,0c-0.1,0-0.1,0-0.2,0
							l0,0L32.7,36l0,0l0,0c-0.1,0.1-0.2,0.5,0,0.7l0,0c0.1,0.1,0.2,0.2,0.5,0.2l0,0c0.1,0,0.1,0,0.1,0c0.1-0.1,0.2-0.1,0.2-0.1
							C33.7,36.7,33.8,36.6,33.7,36.3L33.7,36.3z"/>
						<path id="XMLID_42751_" class="st7" d="M33,36L33,36c-0.4,0-0.5,0.4-0.2,0.7l0,0c0.1,0.1,0.2,0.2,0.5,0.2l0,0
							c0.4,0,0.5-0.4,0.2-0.7l0,0C33.3,36.1,33.1,36,33,36z"/>
						<path id="XMLID_42750_" class="st12" d="M33,36.2L33,36.2c-0.2,0-0.2,0.2-0.1,0.5l0,0c0.1,0.1,0.1,0.1,0.2,0.1l0,0
							c0.2,0,0.2-0.2,0.1-0.5l0,0C33.3,36.2,33.1,36.2,33,36.2z"/>
					</g>
					<g id="XMLID_42745_">
						<path id="XMLID_42748_" class="st12" d="M32.4,35.6c0-0.1,0-0.1-0.1-0.2l0,0c-0.1-0.1-0.2-0.2-0.5-0.2l0,0c-0.1,0-0.1,0-0.2,0
							l0,0l-0.2,0.1l0,0l0,0c-0.1,0.1-0.2,0.5,0,0.7l0,0c0.1,0.1,0.2,0.2,0.5,0.2l0,0c0.1,0,0.1,0,0.1,0c0.1-0.1,0.2-0.1,0.2-0.1
							C32.4,36,32.5,35.9,32.4,35.6L32.4,35.6z"/>
						<path id="XMLID_42747_" class="st7" d="M31.7,35.3L31.7,35.3c-0.4,0-0.5,0.4-0.2,0.7l0,0c0.1,0.1,0.2,0.2,0.5,0.2l0,0
							c0.4,0,0.5-0.4,0.2-0.7l0,0C32.1,35.4,31.8,35.3,31.7,35.3z"/>
						<path id="XMLID_42746_" class="st12" d="M31.7,35.4L31.7,35.4c-0.2,0-0.2,0.2-0.1,0.5l0,0c0.1,0.1,0.1,0.1,0.2,0.1l0,0
							c0.2,0,0.2-0.2,0.1-0.5l0,0C32,35.5,31.8,35.5,31.7,35.4z"/>
					</g>
				</g>
			</g>
			<polygon id="XMLID_42742_" class="st13" points="39.8,15.1 60,26.9 40.2,38.3 20,26.6 			"/>
			<polyline id="XMLID_46235_" class="st14" points="60,26.9 40.2,38.3 20,26.6 			"/>
			<polygon id="XMLID_42741_" class="st10" points="20,31 40.2,42.7 40.2,43.2 20,31.5 			"/>
			<polygon id="XMLID_42740_" class="st14" points="20,30.8 40.2,42.5 40.2,43 20,31.2 			"/>
		</g>
		<g id="XMLID_42724_">
			<g id="XMLID_42729_">
				<g id="XMLID_42732_">
					<path id="XMLID_42738_" class="st14" d="M34.8,42L34.8,42c-1.7-2.2-4-3.8-6.3-3.9l0,0c-0.8,0-1.5,0-2.1,0.2
						c-0.5,0.2-2.2,1.3-2.6,1.5c-2,1.8-2.2,5.7,0.2,9.1l0,0c1.7,2.2,4,3.8,6.3,3.9l0,0c0.9,0.1,1.8-0.1,2.5-0.5
						c0.4-0.2,1.9-1.1,2.2-1.4C37.2,49.5,37.3,45.6,34.8,42z"/>
					<path id="XMLID_42737_" class="st2" d="M27.2,39.1L27.2,39.1c-4.9-0.4-6.5,5.3-3.1,10.2l0,0c1.7,2.2,4,3.8,6.3,3.9l0,0
						c4.9,0.4,6.5-5.3,3.1-10.2l0,0C31.8,40.7,29.5,39.2,27.2,39.1z"/>
					<path id="XMLID_42736_" class="st15" d="M27.6,40.7L27.6,40.7c-3.7-0.2-4.9,3.9-2.2,7.6l0,0c1.2,1.7,3,2.8,4.7,3l0,0
						c3.7,0.2,4.9-3.9,2.2-7.6l0,0C31.1,42,29.3,40.8,27.6,40.7z"/>
					<g id="XMLID_42733_">
						<path id="XMLID_42735_" class="st16" d="M27,48.4L27,48.4c-2.4-3.2-1.5-7,1.2-7.6c-0.1,0-0.4,0-0.5-0.1l0,0
							c-3.7-0.2-4.9,3.9-2.2,7.6l0,0c1.2,1.7,3,2.8,4.7,3l0,0c0.4,0,0.7,0,1.1-0.1C29.6,50.9,28,49.8,27,48.4z"/>
						<path id="XMLID_42734_" class="st17" d="M32.3,43.7L32.3,43.7c-1.1-1.5-2.6-2.6-4.1-2.8c-2.7,0.6-3.6,4.3-1.2,7.6l0,0
							c1.1,1.5,2.6,2.6,4.1,2.8C33.8,50.7,34.7,47,32.3,43.7z"/>
					</g>
				</g>
				<g id="XMLID_42730_">
					<path id="XMLID_42731_" class="st18" d="M32.3,43.7L32.3,43.7c-0.7-0.9-1.5-1.7-2.4-2.1c-0.1-0.1-1.4,1.5-1.4,4.3
						c0,3,1.3,5,1.5,5.1c0.4,0.1,0.8,0.2,1.2,0.4C33.8,50.7,34.7,47,32.3,43.7z"/>
				</g>
			</g>
			<g id="XMLID_42725_">
				<polygon id="XMLID_42728_" class="st2" points="32.5,46.7 34.3,47.8 34.3,50.2 32.5,49.1 				"/>
				<g id="XMLID_42726_">
					<path id="XMLID_42727_" class="st14" d="M32.5,46.7l1.2,0.7c0-0.4-0.1-0.7-0.1-1.1L32.5,46.7z"/>
				</g>
			</g>
		</g>
	</g>
</g>
</svg>
