<?xml version="1.0" encoding="utf-8"?>
<!-- Generator: Adobe Illustrator 21.0.0, SVG Export Plug-In . SVG Version: 6.00 Build 0)  -->
<svg version="1.1" id="Layer_1" xmlns="http://www.w3.org/2000/svg" xmlns:xlink="http://www.w3.org/1999/xlink" x="0px" y="0px"
	 viewBox="0 0 80 80" style="enable-background:new 0 0 80 80;" xml:space="preserve">
<style type="text/css">
	.st0{fill:#AEADAD;}
	.st1{fill:#D2D2D0;}
	.st2{opacity:0.2;fill:#919F9B;}
	.st3{fill:#919F9B;}
	.st4{fill:#999999;}
	.st5{fill:#A8A7A7;}
	.st6{fill:#B6B6B7;}
	.st7{fill:#C6C2C4;}
	.st8{fill:#757575;}
	.st9{fill:#C7C7C7;}
	.st10{fill:#DFDFDF;}
	.st11{fill:#B4B4B5;}
	.st12{fill:#5A5A5B;}
	.st13{fill:#95CDD6;}
	.st14{fill:#80BCC9;}
	.st15{fill:#E8E7E7;}
	.st16{fill:#ECECEE;}
	.st17{fill:#EFEFEF;}
</style>
<g id="XMLID_9394_">
	<g id="XMLID_9456_">
		<polygon id="XMLID_9463_" class="st0" points="46.3,6.7 46.3,59.7 29.5,69.4 29.5,16.3 		"/>
		<polygon id="XMLID_9462_" class="st0" points="20.6,11.2 20.6,64.2 29.5,69.4 29.5,16.3 		"/>
		<polygon id="XMLID_9461_" class="st1" points="37.4,1.5 46.3,6.7 29.5,16.3 20.6,11.2 		"/>
		<polyline id="XMLID_9460_" class="st2" points="46.3,6.7 29.5,16.3 20.6,11.2 		"/>
		<g id="XMLID_9457_">
			<g id="XMLID_9458_">
				<polygon id="XMLID_9459_" class="st1" points="20.5,11.2 29.2,16.3 27.9,17.1 19.2,12 				"/>
			</g>
		</g>
	</g>
	<g id="XMLID_9423_">
		<polygon id="XMLID_9455_" class="st3" points="60.8,15.1 60.8,68.1 44.1,77.8 44.1,24.7 		"/>
		<polyline id="XMLID_9454_" class="st2" points="44.1,77.8 44.1,24.7 60.8,15.1 		"/>
		<polygon id="XMLID_9453_" class="st0" points="29.5,16.3 29.5,69.4 44.1,77.8 44.1,24.7 		"/>
		<polygon id="XMLID_9452_" class="st1" points="46.3,6.7 60.8,15.1 44.1,24.7 29.5,16.3 		"/>
		<polygon id="XMLID_9451_" class="st2" points="46.3,6.7 60.8,15.1 44.1,24.7 29.5,16.3 		"/>
		<polygon id="XMLID_9450_" class="st4" points="19.2,62.2 20.5,61.5 44.1,75.1 42.8,75.9 		"/>
		<polygon id="XMLID_9449_" class="st5" points="29.2,16.3 29.2,66.3 27.9,67 27.9,17.1 		"/>
		<polygon id="XMLID_9448_" class="st6" points="19.2,12 27.9,17.1 27.9,67 19.2,62 		"/>
		<polyline id="XMLID_9447_" class="st2" points="19.2,12 27.9,17.1 27.9,67 		"/>
		<g id="XMLID_9441_">
			<g id="XMLID_9442_">
				<polygon id="XMLID_9446_" class="st6" points="28.3,17.3 42.6,25.6 42.6,75.5 28.3,67.2 				"/>
				<polyline id="XMLID_9445_" class="st2" points="28.3,17.3 42.6,25.6 42.6,75.5 				"/>
				<polygon id="XMLID_9444_" class="st1" points="29.6,16.5 43.9,24.8 42.6,25.6 28.3,17.3 				"/>
				<polygon id="XMLID_9443_" class="st7" points="43.9,24.8 43.9,74.8 42.6,75.5 42.6,25.6 				"/>
			</g>
		</g>
		<polygon id="XMLID_9440_" class="st7" points="44.1,75.1 44.1,77.8 42.8,78.5 42.8,75.9 		"/>
		<g id="XMLID_9424_">
			<polygon id="XMLID_9439_" class="st8" points="24.3,37.6 24.3,33.7 21.4,35.4 21.4,39.3 			"/>
			<g id="XMLID_9435_">
				<path id="XMLID_9436_" class="st9" d="M20.9,31v8.5l5.7,3.3v-8.5L20.9,31z M26.2,42.1l-4.8-2.8v-7.4l4.8,2.8V42.1z"/>
			</g>
			<g id="XMLID_9433_">
				<polygon id="XMLID_9434_" class="st1" points="26.2,38.7 24.3,37.6 21.4,39.3 26.2,42.1 				"/>
			</g>
			<g id="XMLID_9430_">
				<polygon id="XMLID_9432_" class="st10" points="24.3,38 26.2,39.1 26.2,38.7 24.3,37.6 21.4,39.3 26.2,42.1 26.2,41.7 
					22.1,39.3 				"/>
				<polygon id="XMLID_9431_" class="st1" points="24.3,38 22.1,39.3 26.2,41.7 26.2,39.1 				"/>
			</g>
			<g id="XMLID_9428_">
				<polygon id="XMLID_9429_" class="st11" points="24.3,37.6 26.2,38.7 26.2,34.8 24.3,33.7 				"/>
			</g>
			<polygon id="XMLID_9427_" class="st12" points="26.2,38.2 26.2,34.5 21.4,31.7 21.4,35.4 			"/>
			<polygon id="XMLID_9426_" class="st13" points="24.8,36.1 24.8,34.7 22.8,33.5 22.8,34.9 			"/>
			<polygon id="XMLID_9425_" class="st14" points="24.8,36.1 24.8,34.7 22.8,34.9 			"/>
		</g>
	</g>
	<polygon id="XMLID_9422_" class="st6" points="19.2,62.2 19.2,64.8 42.8,78.5 42.8,75.9 	"/>
	<g id="XMLID_9395_">
		<g id="XMLID_9409_">
			<g id="XMLID_9418_">
				<polygon id="XMLID_9421_" class="st15" points="27.4,32.7 27.4,32.9 27.1,33.1 27.1,32.9 				"/>
				<polygon id="XMLID_9420_" class="st16" points="26.8,32.7 27.1,32.9 27.1,33.1 26.8,32.9 				"/>
				<polygon id="XMLID_9419_" class="st17" points="27.1,32.5 27.4,32.7 27.1,32.9 26.8,32.7 				"/>
			</g>
			<g id="XMLID_9414_">
				<polygon id="XMLID_9417_" class="st15" points="27.4,48.3 27.4,48.5 27.1,48.7 27.1,48.5 				"/>
				<polygon id="XMLID_9416_" class="st16" points="26.8,48.3 27.1,48.5 27.1,48.7 26.8,48.5 				"/>
				<polygon id="XMLID_9415_" class="st17" points="27.1,48.1 27.4,48.3 27.1,48.5 26.8,48.3 				"/>
			</g>
			<g id="XMLID_9410_">
				<polygon id="XMLID_9413_" class="st15" points="27.1,31.8 27.1,49.6 26.8,49.8 26.8,31.9 				"/>
				<polygon id="XMLID_9412_" class="st16" points="26.4,31.8 26.8,31.9 26.8,49.8 26.4,49.6 				"/>
				<polygon id="XMLID_9411_" class="st17" points="26.8,31.6 27.1,31.8 26.8,31.9 26.4,31.8 				"/>
			</g>
		</g>
		<g id="XMLID_9396_">
			<g id="XMLID_9405_">
				<polygon id="XMLID_9408_" class="st15" points="29.8,34 29.8,34.3 29.4,34.5 29.4,34.2 				"/>
				<polygon id="XMLID_9407_" class="st16" points="29.1,34 29.4,34.2 29.4,34.5 29.1,34.3 				"/>
				<polygon id="XMLID_9406_" class="st17" points="29.4,33.8 29.8,34 29.4,34.2 29.1,34 				"/>
			</g>
			<g id="XMLID_9401_">
				<polygon id="XMLID_9404_" class="st15" points="29.8,49.7 29.8,49.9 29.4,50.1 29.4,49.9 				"/>
				<polygon id="XMLID_9403_" class="st16" points="29.1,49.7 29.4,49.9 29.4,50.1 29.1,49.9 				"/>
				<polygon id="XMLID_9402_" class="st17" points="29.4,49.5 29.8,49.7 29.4,49.9 29.1,49.7 				"/>
			</g>
			<g id="XMLID_9397_">
				<polygon id="XMLID_9400_" class="st15" points="29.4,33.1 29.4,50.9 29.1,51.1 29.1,33.3 				"/>
				<polygon id="XMLID_9399_" class="st16" points="28.8,33.1 29.1,33.3 29.1,51.1 28.8,50.9 				"/>
				<polygon id="XMLID_9398_" class="st17" points="29.1,32.9 29.4,33.1 29.1,33.3 28.8,33.1 				"/>
			</g>
		</g>
	</g>
</g>
</svg>
