<?xml version="1.0" encoding="utf-8"?>
<!-- Generator: Adobe Illustrator 21.0.0, SVG Export Plug-In . SVG Version: 6.00 Build 0)  -->
<svg version="1.1" xmlns="http://www.w3.org/2000/svg" xmlns:xlink="http://www.w3.org/1999/xlink" x="0px" y="0px"
	 viewBox="0 0 80 80" style="enable-background:new 0 0 80 80;" xml:space="preserve">
<style type="text/css">
	.st0{fill:#3B73B8;}
	.st1{fill:#3266AE;}
	.st2{fill:#26559F;}
	.st3{fill:#A4A3A3;}
	.st4{fill:#D0D1D1;}
	.st5{fill:#AEAEAE;}
	.st6{fill:#B2B2B2;}
	.st7{fill:#939291;}
</style>
<g id="Layer_2">
	<g>
		<polygon class="st0" points="29.6,63.9 29.6,4.9 54.3,19.1 54.3,78.2 		"/>
	</g>
	<polyline class="st1" points="29.6,4.9 54.3,19.1 54.3,78.2 	"/>
	<path class="st2" d="M42.7,17.9l-1.1-0.6c-3.6-2.1-8-2-8,2.2v25.5l16.8,9.7V28.7C50.3,23.2,47.4,20.6,42.7,17.9z M48.5,51.4
		l-13.2-7.6V21.3c0-3.2,3.5-3.3,6.3-1.7l0.9,0.5c3.7,2.2,6,4.2,6,8.5V51.4z"/>
	<path class="st2" d="M33.6,47.5v14l16.8,9.7v-14L33.6,47.5z M48.5,68.2l-13.1-7.6V50.6l13.1,7.6V68.2z"/>
	<g>
		<path class="st3" d="M53,43c0-0.2-0.1-0.5-0.3-0.8l0,0c-0.2-0.3-0.6-0.5-0.9-0.6c-0.1,0-0.2,0-0.3,0c-0.1,0-0.3,0.2-0.4,0.2
			c-0.2,0.1-0.2,0.3-0.2,0.6l0,0v7.1l0,0c0,0.2,0.1,0.5,0.3,0.8c0.2,0.3,0.6,0.5,0.9,0.6c0.1,0,0.3,0,0.4-0.1c0.1,0,0.3-0.2,0.3-0.2
			c0.2-0.1,0.3-0.3,0.3-0.6l0,0V43L53,43z"/>
		<path class="st4" d="M52.7,43.1L52.7,43.1c0-0.2-0.1-0.5-0.3-0.8l0,0c-0.2-0.3-0.6-0.5-0.9-0.6l0,0c-0.4,0-0.7,0.3-0.7,0.7l0,0
			v7.1l0,0c0,0.2,0.1,0.5,0.3,0.8l0,0c0.2,0.3,0.6,0.5,0.9,0.6l0,0c0.4,0,0.7-0.3,0.7-0.7l0,0V43.1z"/>
		<path class="st4" d="M52.5,43.9l0-0.6c0-0.2-0.1-0.4-0.2-0.6l0,0c-0.2-0.3-0.5-0.4-0.7-0.5l0,0c-0.4,0-0.6,0.2-0.6,0.5l0,0.6v6.1
			l0,0c0,0.2,0.1,0.4,0.2,0.6l0,0c0.2,0.3,0.5,0.4,0.7,0.5l0,0c0.3,0,0.6-0.2,0.6-0.5l0-0.6V43.9z"/>
		<g id="XMLID_42264_">
			<polygon class="st3" points="51.6,45.7 50.9,46 50.9,46.5 51.6,46.1 52.2,45.7 52.2,45.3 			"/>
			<path class="st5" d="M50.3,45.7L50.3,45.7l-0.6-0.4l0,0L49.1,45c0,0,0-0.1,0-0.1l0.5-0.3l-0.6-0.3c0,0,0,0,0,0
				c-0.1-0.1-0.3-0.1-0.4-0.1c-0.2,0-0.3,0.2-0.3,0.3c0,0.1,0,0.4,0,0.4c0,0.1,0,0.1,0.1,0.2l0.5,0.3l0,0l0.6,0.4l0.6,0.4l0.6,0.4
				V46L50.3,45.7z"/>
			<path class="st6" d="M51.6,44.9l-0.6,0.4l0,0l0,0l-0.6-0.4l0,0l-0.6-0.4l0,0l-0.6-0.3c0,0,0,0,0,0c-0.1-0.1-0.3-0.1-0.4-0.1
				c-0.3,0.1-0.4,0.3-0.1,0.5c0,0,0,0,0,0l0.5,0.3l0,0l0.6,0.4l0.6,0.4l0.6,0.4l0.6-0.4l0.6-0.4L51.6,44.9z"/>
		</g>
		<g>
			<path class="st3" d="M52,48.5c0-0.1,0-0.1-0.1-0.2l0,0c-0.1-0.1-0.1-0.1-0.2-0.1c-0.1,0-0.2,0.1-0.2,0.2l0,0v0.2h0
				c0,0.1,0,0.1,0.1,0.2c0,0,0,0,0,0v0.6h0c0,0,0,0.1,0,0.1c0,0,0.1,0.1,0.1,0.1c0.1,0,0.1,0,0.1-0.1h0v-0.6c0.1,0,0.1-0.1,0.1-0.1
				l0,0V48.5L52,48.5z"/>
			<g>
				<path class="st7" d="M51.8,49.5C51.8,49.5,51.8,49.4,51.8,49.5L51.8,49.5l0-0.7c0,0,0,0,0,0c0-0.1-0.1-0.1-0.1-0.2l0,0v-0.2l0,0
					c0,0,0-0.1,0-0.1c-0.1,0-0.1,0.1-0.1,0.2l0,0v0.2h0c0,0.1,0,0.1,0.1,0.2c0,0,0,0,0,0v0.6l0,0C51.7,49.5,51.7,49.5,51.8,49.5
					c0,0.1,0,0.1,0,0.1c0,0,0.1,0,0.1,0c0,0,0,0,0,0C51.9,49.6,51.8,49.5,51.8,49.5z"/>
			</g>
		</g>
	</g>
</g>
<g id="Layer_1">
</g>
</svg>
