<?xml version="1.0" encoding="utf-8"?>
<!-- Generator: Adobe Illustrator 21.0.0, SVG Export Plug-In . SVG Version: 6.00 Build 0)  -->
<svg version="1.1" id="Layer_1" xmlns="http://www.w3.org/2000/svg" xmlns:xlink="http://www.w3.org/1999/xlink" x="0px" y="0px"
	 viewBox="0 0 80 80" style="enable-background:new 0 0 80 80;" xml:space="preserve">
<style type="text/css">
	.st0{fill:#525354;}
	.st1{fill:#45484A;}
	.st2{fill:#59595C;}
	.st3{fill:#4E4D50;}
	.st4{fill:#636467;}
	.st5{opacity:0.1;fill:#3B3D3F;}
	.st6{fill:#3B3D3F;}
	.st7{opacity:0.2;fill:#3B3D3F;}
	.st8{fill:#464748;}
</style>
<polygon id="XMLID_9936_" class="st0" points="42.1,23.2 42.1,42.1 25.8,51.5 25.8,32.5 "/>
<polygon id="XMLID_9935_" class="st1" points="13.7,25.6 25.8,32.5 25.8,51.5 13.7,44.5 "/>
<polygon id="XMLID_9923_" class="st2" points="30,16.2 42.1,23.2 25.8,32.5 13.7,25.6 "/>
<g id="XMLID_9917_">
	<polygon id="XMLID_9921_" class="st3" points="42.1,21.5 42.1,23.2 25.8,32.5 25.8,30.9 	"/>
	<polygon id="XMLID_9920_" class="st3" points="13.7,23.9 25.8,30.9 25.8,32.5 13.7,25.6 	"/>
	<polygon id="XMLID_9919_" class="st4" points="30,14.5 42.1,21.5 25.8,30.9 13.7,23.9 	"/>
	<polyline id="XMLID_9918_" class="st5" points="42.1,21.5 25.8,30.9 13.7,23.9 	"/>
</g>
<polygon id="XMLID_9915_" class="st0" points="54.2,30.2 54.2,49.1 37.9,58.5 37.9,39.5 "/>
<polygon id="XMLID_9914_" class="st1" points="25.8,32.5 37.9,39.5 37.9,58.5 25.8,51.5 "/>
<polygon id="XMLID_9898_" class="st2" points="42.1,23.2 54.2,30.2 37.9,39.5 25.8,32.5 "/>
<polygon id="XMLID_9868_" class="st3" points="54.2,28.5 54.2,30.2 37.9,39.5 37.9,37.9 "/>
<polygon id="XMLID_9867_" class="st3" points="25.8,30.9 37.9,37.9 37.9,39.5 25.8,32.5 "/>
<polygon id="XMLID_9866_" class="st4" points="42.1,21.5 54.2,28.5 37.9,37.9 25.8,30.9 "/>
<polygon id="XMLID_9865_" class="st5" points="42.1,21.5 54.2,28.5 37.9,37.9 25.8,30.9 "/>
<polygon id="XMLID_9862_" class="st6" points="66.3,37.1 66.3,56.1 50,65.5 50,46.5 "/>
<polyline id="XMLID_9861_" class="st7" points="50,65.5 50,46.5 66.3,37.1 "/>
<polygon id="XMLID_9860_" class="st1" points="37.9,39.5 50,46.5 50,65.5 37.9,58.5 "/>
<polygon id="XMLID_9848_" class="st2" points="54.2,30.2 66.3,37.1 50,46.5 37.9,39.5 "/>
<polygon id="XMLID_9846_" class="st8" points="66.3,35.5 66.3,37.1 50,46.5 50,44.9 "/>
<polygon id="XMLID_9845_" class="st3" points="37.9,37.9 50,44.9 50,46.5 37.9,39.5 "/>
<polygon id="XMLID_9844_" class="st4" points="54.2,28.5 66.3,35.5 50,44.9 37.9,37.9 "/>
<polygon id="XMLID_9843_" class="st5" points="54.2,28.5 66.3,35.5 50,44.9 37.9,37.9 "/>
<polyline id="XMLID_9934_" class="st7" points="13.7,25.6 50,46.5 50,65.5 "/>
</svg>
