<?xml version="1.0" encoding="utf-8"?>
<!-- Generator: Adobe Illustrator 21.0.0, SVG Export Plug-In . SVG Version: 6.00 Build 0)  -->
<svg version="1.1" id="Layer_1" xmlns="http://www.w3.org/2000/svg" xmlns:xlink="http://www.w3.org/1999/xlink" x="0px" y="0px"
	 viewBox="0 0 80 80" style="enable-background:new 0 0 80 80;" xml:space="preserve">
<style type="text/css">
	.st0{fill:#454441;}
	.st1{fill:#3A3A38;}
	.st2{fill:#615E5C;}
	.st3{fill:#5A5957;}
	.st4{fill:#302E2D;}
	.st5{fill:#454341;}
</style>
<g id="XMLID_2371_">
	<polygon id="XMLID_2373_" class="st0" points="60.7,38.3 53.3,42.6 53.3,61.4 60.7,57.1 	"/>
	<polyline id="XMLID_2737_" class="st1" points="60.7,38.3 53.3,42.6 53.3,61.4 	"/>
	<polygon id="XMLID_2372_" class="st2" points="19.3,22.9 26.7,18.6 60.7,38.3 53.3,42.6 	"/>
	<polyline id="XMLID_2755_" class="st3" points="60.7,38.3 53.3,42.6 19.3,22.9 	"/>
</g>
<path id="XMLID_2366_" class="st4" d="M19.3,22.9v18.8l33.5,19.4l0,0l0.5,0.3V42.6L19.3,22.9z M52.1,59.4l-15.2-8.8V34.4l15.2,8.8
	V59.4z M20.6,25l15.2,8.8v16.2l-15.2-8.8V25z"/>
<polygon id="XMLID_2365_" class="st5" points="36.9,34.4 52.1,43.2 52.1,59.4 36.9,50.6 "/>
<polygon id="XMLID_2355_" class="st5" points="20.6,25 35.7,33.8 35.7,49.9 20.6,41.2 "/>
</svg>
