<?xml version="1.0" encoding="utf-8"?>
<!-- Generator: Adobe Illustrator 21.0.0, SVG Export Plug-In . SVG Version: 6.00 Build 0)  -->
<svg version="1.1" id="Layer_1" xmlns="http://www.w3.org/2000/svg" xmlns:xlink="http://www.w3.org/1999/xlink" x="0px" y="0px"
	 viewBox="0 0 80 80" style="enable-background:new 0 0 80 80;" xml:space="preserve">
<style type="text/css">
	.st0{fill:#DDDDDC;}
	.st1{opacity:0.3;fill:#E8E7E7;enable-background:new    ;}
	.st2{fill:#CECDCC;}
	.st3{opacity:0.2;fill:#CECDCC;enable-background:new    ;}
	.st4{fill:#FFFFFF;}
	.st5{fill:#EFEFEF;}
	.st6{fill:#D7DDDD;}
	.st7{fill:#95D2DE;}
	.st8{fill:#A0DBEB;}
	.st9{fill:#A9DEEB;}
	.st10{opacity:0.7;fill:#92D5E0;enable-background:new    ;}
	.st11{fill:#79CFE2;}
	.st12{fill:#A0DBEA;}
	.st13{fill:#92D5E0;}
	.st14{fill:#54A2B4;}
	.st15{fill:#6BBCD6;}
	.st16{fill:#9C9C9C;}
	.st17{fill:#B2B2B2;}
	.st18{fill:#BBBBBB;}
	.st19{opacity:0.2;fill:#BBBBBB;enable-background:new    ;}
	.st20{fill:#777778;}
	.st21{fill:#686A6A;}
	.st22{fill:#E8E7E7;}
	.st23{fill:#B6504F;}
	.st24{fill:#CC5A5B;}
	.st25{fill:#EBECEC;}
	.st26{fill:#4A72B7;}
	.st27{fill:#5982C2;}
	.st28{fill:#C7C7C7;}
	.st29{fill:#D7D5DC;}
	.st30{opacity:0.8;fill:#D7D5DC;enable-background:new    ;}
	.st31{fill:#C5C6D4;}
	.st32{fill:#C6C6CB;}
	.st33{opacity:0.3;fill:#C6C6CB;enable-background:new    ;}
	.st34{fill:#9ED2DE;}
	.st35{opacity:0.6;fill:#9ED2DE;enable-background:new    ;}
	.st36{fill:#AFDFE8;}
</style>
<g id="XMLID_235_">
	<g id="XMLID_391_">
		<path id="XMLID_393_" class="st0" d="M48,33.2c0-0.3-0.2-0.8-0.5-0.9l-6.2-3.6c-0.8-0.4-1.8-0.4-2.6,0l-6.2,3.6
			c-0.3,0.2-0.5,0.5-0.5,0.9s0,21.6,0,21.9c0,0.4,0.2,0.8,0.5,1l6.2,3.6c0.8,0.4,1.8,0.4,2.6,0l6.2-3.6c0.3-0.2,0.5-0.5,0.5-0.9
			C48,54.8,48,33.5,48,33.2z"/>
		<path id="XMLID_16301_" class="st1" d="M38.7,59.7c0.8,0.4,1.8,0.4,2.6,0l6.2-3.6c0.3-0.2,0.5-0.5,0.5-0.9c0-0.4,0-21.6,0-22.1
			c0-0.3-0.2-0.8-0.5-0.9l-6.2-3.6c-0.8-0.4-1.8-0.4-2.6,0l-6.2,3.7c-0.3,0.2-0.5,0.5-0.5,0.9"/>
		<path class="st2" d="M40.1,60c0.4,0,0.8-0.2,1.2-0.3l6.2-3.6c0.3-0.2,0.5-0.5,0.5-0.9c0-0.4,0-21.6,0-22.1c0-0.3-0.2-0.8-0.5-0.9
			l-6.2-3.6l0,0h-1.1L40.1,60L40.1,60z"/>
		<path class="st3" d="M48,33.2c0-0.3-0.2-0.8-0.5-0.9l-6.2-3.6l0,0h-1.1V60c0.4,0,0.8-0.2,1.2-0.3"/>
		<path id="XMLID_392_" class="st4" d="M41.3,28.7l6.2,3.6c0.7,0.4,0.7,1.5,0,1.9l-6.2,3.6c-0.8,0.4-1.8,0.4-2.6,0l-6.2-3.6
			c-0.7-0.4-0.7-1.5,0-1.9l6.2-3.6C39.5,28.2,40.5,28.2,41.3,28.7z"/>
		<path id="XMLID_16300_" class="st5" d="M47.5,32.2c0.7,0.4,0.7,1.5,0,1.9l-6.2,3.6c-0.8,0.4-1.8,0.4-2.6,0l-6.2-3.6
			c-0.7-0.4-0.7-1.5,0-1.9"/>
		<path class="st3" d="M36.4,36.4l2.2,1.3c0.8,0.4,1.8,0.4,2.6,0l2.6-1.5v-3.8h-7.4C36.4,32.4,36.4,36.4,36.4,36.4z"/>
		<path class="st6" d="M47.5,33.7l-6.2,3.6c-0.8,0.4-1.8,0.4-2.6,0l-6.2-3.6c-0.3-0.2-0.4-0.4-0.5-0.8c-0.1,0.4,0.1,0.9,0.5,1.1
			l6.2,3.6c0.8,0.4,1.8,0.4,2.6,0l6.2-3.6c0.4-0.3,0.6-0.7,0.5-1.1C47.9,33.3,47.8,33.5,47.5,33.7z"/>
	</g>
	<g id="XMLID_4704_">
		<g id="XMLID_4706_">
			<path id="XMLID_4707_" class="st7" d="M43.9,31.1c0-0.7-0.4-1.3-1.3-1.8l0,0c-1-0.6-2.4-0.8-3.7-0.5l0,0
				c-1.6,0.3-2.5,1.4-2.5,2.3c0,0.7,0,0.9,0,0.9c0,0.7,0.4,1.4,1.3,1.9l0,0c1,0.6,2.4,0.8,3.7,0.5l0,0c1.6-0.3,2.4-1.3,2.5-2.3V31.1
				z"/>
		</g>
		<g id="XMLID_347_">
			<g id="XMLID_388_">
				<path id="XMLID_390_" class="st8" d="M43.2,28L43.2,28c2.8,1.6,1.9,4.7-1.6,5.4l0,0c-1.6,0.3-3.4,0.2-4.7-0.6l0,0
					c-2.8-1.6-1.9-4.7,1.6-5.4l0,0C40.2,27.1,41.9,27.2,43.2,28z"/>
				<path id="XMLID_389_" class="st9" d="M43.2,28L43.2,28c2.8,1.6,1.9,4.7-1.6,5.4l0,0c-1.6,0.3-3.4,0.2-4.7-0.6l0,0
					c-2.8-1.6-1.9-4.7,1.6-5.4l0,0C40.2,27.1,41.9,27.2,43.2,28z"/>
			</g>
			<path id="XMLID_387_" class="st7" d="M44.4,28.6c0.1-0.9-0.4-1.7-1.5-2.3l0,0c-1.2-0.7-2.8-0.9-4.2-0.6l0,0c-2,0.4-3,1.7-2.9,2.9
				c0,0.2,0,0.9,0,1c0.1,0.8,0.5,1.6,1.5,2.1l0,0c1.2,0.7,2.8,0.9,4.2,0.6l0,0c1.8-0.4,2.8-1.5,2.9-2.6
				C44.4,29.6,44.4,28.8,44.4,28.6z"/>
			<g id="XMLID_380_">
				<path id="XMLID_386_" class="st9" d="M43.2,25.3L43.2,25.3c2.8,1.6,1.9,4.7-1.6,5.4l0,0c-1.6,0.3-3.4,0.2-4.7-0.6l0,0
					c-2.8-1.6-1.9-4.7,1.6-5.4l0,0C40.2,24.4,41.9,24.6,43.2,25.3z"/>
			</g>
			<path id="XMLID_370_" class="st7" d="M44.4,24.7c0.1-0.9-0.4-1.7-1.5-2.3l0,0c-1.2-0.7-2.8-0.9-4.2-0.6l0,0c-2,0.4-3,1.7-2.9,2.9
				c0,0.2,0,2,0,2.2c0.1,0.8,0.5,1.6,1.5,2.1l0,0c1.2,0.7,2.8,0.9,4.2,0.6l0,0c1.8-0.4,2.8-1.5,2.9-2.6
				C44.4,26.8,44.4,24.9,44.4,24.7z"/>
			<path class="st10" d="M44.4,26.5c0-0.4,0-1,0-1.4c0.2-0.3,0.3-0.6,0.3-0.9c0-0.3,0.1-0.7,0-0.9c0-0.9-0.5-1.8-1.6-2.5l0,0
				c-1.3-0.8-3-0.9-4.7-0.6c-0.1,0-0.2,0-0.2,0.1v14.1c0.9,0.3,2,0.4,3,0.2l0,0c1.5-0.3,2.3-1.1,2.5-2.1c1-0.9,1.3-2.2,0.6-3.3v-0.1
				C44.9,28.3,44.9,27.3,44.4,26.5z"/>
			<path class="st10" d="M40.2,34.7c0.4,0,0.8-0.1,1.2-0.2l0,0c1.5-0.3,2.3-1.1,2.5-2.1c1-0.9,1.3-2.2,0.6-3.3v-0.1
				c0.5-0.8,0.5-1.7,0-2.6c0-0.4,0-1,0-1.4c0.2-0.3,0.3-0.6,0.3-0.9c0-0.3,0.1-0.7,0-0.9c0-0.9-0.4-1.6-1.4-2.3h-3.3
				C40.2,20.9,40.2,34.7,40.2,34.7z"/>
			<g id="XMLID_348_">
				<path id="XMLID_369_" class="st11" d="M43.2,20.9L43.2,20.9c-1.3-0.8-3-0.9-4.7-0.6l0,0c-1.9,0.4-3,1.6-3.2,2.8
					c0,0.3,0,0.8,0,0.9c0.1,0.8,0.6,1.6,1.6,2.2l0,0c1.3,0.8,3,0.9,4.7,0.6l0,0c1.8-0.4,2.9-1.5,3.1-2.6c0.1-0.3,0.1-0.9,0-1.1
					C44.7,22.2,44.2,21.5,43.2,20.9z"/>
				<path id="XMLID_368_" class="st12" d="M43.2,20.8L43.2,20.8c2.8,1.6,1.9,4.7-1.6,5.4l0,0c-1.6,0.3-3.4,0.2-4.7-0.6l0,0
					c-2.8-1.6-1.9-4.7,1.6-5.4l0,0C40.2,19.8,41.9,20,43.2,20.8z"/>
				<path id="XMLID_367_" class="st13" d="M42.1,21L42.1,21c1.7,1,1.2,2.9-0.9,3.4l0,0c-1,0.3-2.2,0.1-2.9-0.4l0,0
					c-1.7-1-1.2-2.9,0.9-3.4l0,0C40.1,20.4,41.2,20.5,42.1,21z"/>
				<path id="XMLID_363_" class="st14" d="M41.9,21.2L41.9,21.2c1.6,0.9,1.1,2.8-0.9,3.3l0,0c-0.9,0.3-2,0.1-2.8-0.3l0,0
					c-1.6-0.9-1.1-2.8,0.9-3.3l0,0C40.1,20.6,41.2,20.8,41.9,21.2z"/>
				<path id="XMLID_360_" class="st15" d="M41.6,21.7L41.6,21.7c1.3,0.8,0.9,2.2-0.8,2.6l0,0c-0.8,0.2-1.6,0.1-2.2-0.3l0,0
					c-1.3-0.8-0.9-2.2,0.8-2.6l0,0C40.1,21.2,40.9,21.3,41.6,21.7z"/>
				<path id="XMLID_16303_" class="st10" d="M41.6,21.7L41.6,21.7c1.3,0.8,0.9,2.2-0.8,2.6l0,0c-0.8,0.2-1.6,0.1-2.2-0.3l0,0"/>
			</g>
		</g>
	</g>
	<g id="XMLID_245_">
		<g id="XMLID_246_">
			<polygon id="XMLID_340_" class="st2" points="34.5,38.1 33.1,37.3 33.1,45.4 34.5,44.6 			"/>
			<polyline id="XMLID_16304_" class="st3" points="34.5,44.6 34.5,38.1 33.1,37.3 			"/>
			<polygon id="XMLID_338_" class="st16" points="38.4,46.8 34.5,44.6 33.1,45.4 38.4,48.4 			"/>
			<polygon id="XMLID_337_" class="st17" points="38.4,47 34.6,44.7 33.4,45.4 38.4,48.2 			"/>
			<polygon id="XMLID_336_" class="st18" points="34.5,38.1 34.5,44.6 38.4,46.8 38.4,40.3 			"/>
			<polyline id="XMLID_16305_" class="st19" points="38.4,40.3 34.5,38.1 34.5,44.6 			"/>
			<g id="XMLID_268_">
				<g id="XMLID_288_">
					<g id="XMLID_332_">
						<path id="XMLID_335_" class="st20" d="M33.7,45.4L33.7,45.4l0.9-0.5l0.1,0.1l0,0l-0.2-0.1L33.7,45.4L33.7,45.4L33.7,45.4
							L33.7,45.4z"/>
						<path id="XMLID_334_" class="st21" d="M33.7,45.5L33.7,45.5C33.8,45.5,33.8,45.5,33.7,45.5C33.8,45.5,33.8,45.5,33.7,45.5
							l0.9-0.5l-0.1-0.1L33.7,45.5L33.7,45.5C33.7,45.4,33.7,45.4,33.7,45.5L33.7,45.5z"/>
					</g>
					<g id="XMLID_329_">
						<path id="XMLID_331_" class="st20" d="M34,45.6L34,45.6l0.9-0.5l0.1,0.1l0,0l-0.2-0.1L34,45.6L34,45.6L34,45.6L34,45.6z"/>
						<path id="XMLID_330_" class="st21" d="M34,45.7L34,45.7C34.1,45.7,34.1,45.7,34,45.7C34.1,45.7,34.1,45.7,34,45.7l0.9-0.5
							l-0.1-0.1L34,45.7L34,45.7C34,45.6,34,45.6,34,45.7C34,45.6,34,45.7,34,45.7z"/>
					</g>
					<g id="XMLID_316_">
						<path id="XMLID_328_" class="st20" d="M34.2,45.8L34.2,45.8l0.9-0.5l0.1,0.1l0,0l-0.1-0.2L34.2,45.8L34.2,45.8
							C34.2,45.7,34.2,45.8,34.2,45.8L34.2,45.8z"/>
						<path id="XMLID_327_" class="st21" d="M34.2,45.8L34.2,45.8C34.3,45.9,34.3,45.8,34.2,45.8C34.3,45.8,34.3,45.8,34.2,45.8
							l0.9-0.5l-0.1-0.1L34.2,45.8L34.2,45.8L34.2,45.8L34.2,45.8z"/>
					</g>
					<g id="XMLID_310_">
						<path id="XMLID_315_" class="st20" d="M34.5,45.9L34.5,45.9l0.9-0.5l0.1,0.1l0,0l-0.2-0.1L34.5,45.9L34.5,45.9
							C34.5,45.9,34.5,45.9,34.5,45.9C34.5,45.9,34.5,45.9,34.5,45.9z"/>
						<path id="XMLID_314_" class="st21" d="M34.5,45.9L34.5,45.9C34.6,45.9,34.6,45.9,34.5,45.9C34.6,45.9,34.6,45.9,34.5,45.9
							l0.9-0.5l-0.1-0.1L34.5,45.9L34.5,45.9L34.5,45.9L34.5,45.9z"/>
					</g>
					<g id="XMLID_307_">
						<path id="XMLID_309_" class="st20" d="M34.7,46L34.7,46l0.9-0.5l0.1,0.1l0,0l-0.1-0.1L34.7,46L34.7,46L34.7,46L34.7,46z"/>
						<path id="XMLID_308_" class="st21" d="M34.7,46.1L34.7,46.1C34.8,46.1,34.8,46.1,34.7,46.1C34.8,46.1,34.8,46.1,34.7,46.1
							l0.9-0.5v-0.1L34.7,46.1L34.7,46.1C34.7,46,34.7,46,34.7,46.1L34.7,46.1z"/>
					</g>
					<g id="XMLID_304_">
						<path id="XMLID_306_" class="st20" d="M35,46.2L35,46.2l0.9-0.5l0.1,0.1l0,0l-0.2-0.1L35,46.2L35,46.2L35,46.2L35,46.2z"/>
						<path id="XMLID_305_" class="st21" d="M35,46.3L35,46.3C35.1,46.3,35.1,46.3,35,46.3C35.1,46.2,35.1,46.2,35,46.3l0.9-0.5
							l-0.1-0.1L35,46.3L35,46.3C35,46.2,35,46.2,35,46.3C35,46.2,35,46.3,35,46.3z"/>
					</g>
					<g id="XMLID_301_">
						<path id="XMLID_303_" class="st20" d="M35.3,46.4L35.3,46.4l0.9-0.5l0.1,0.1l0,0l-0.2-0.1L35.3,46.4L35.3,46.4
							C35.3,46.3,35.3,46.4,35.3,46.4L35.3,46.4z"/>
						<path id="XMLID_302_" class="st21" d="M35.3,46.4L35.3,46.4C35.3,46.4,35.3,46.4,35.3,46.4C35.3,46.4,35.3,46.4,35.3,46.4
							l0.9-0.5l-0.1-0.1L35.3,46.4L35.3,46.4L35.3,46.4L35.3,46.4z"/>
					</g>
					<g id="XMLID_298_">
						<path id="XMLID_300_" class="st20" d="M35.5,46.5L35.5,46.5l0.9-0.5l0.1,0.1l0,0l-0.2-0.1L35.5,46.5L35.5,46.5L35.5,46.5
							C35.5,46.6,35.5,46.5,35.5,46.5z"/>
						<path id="XMLID_299_" class="st21" d="M35.5,46.6L35.5,46.6C35.6,46.6,35.6,46.6,35.5,46.6C35.6,46.6,35.6,46.6,35.5,46.6
							l1-0.5l-0.1-0.1L35.5,46.6L35.5,46.6C35.5,46.5,35.5,46.6,35.5,46.6L35.5,46.6z"/>
					</g>
					<g id="XMLID_295_">
						<path id="XMLID_297_" class="st20" d="M35.8,46.6L35.8,46.6l0.9-0.5l0.1,0.1l0,0l-0.1-0.1L35.8,46.6L35.8,46.6L35.8,46.6
							L35.8,46.6z"/>
						<path id="XMLID_296_" class="st21" d="M35.8,46.7L35.8,46.7C35.9,46.7,35.9,46.7,35.8,46.7C35.9,46.7,35.9,46.7,35.8,46.7
							l0.9-0.5l-0.1-0.1L35.8,46.7L35.8,46.7C35.8,46.6,35.8,46.6,35.8,46.7L35.8,46.7z"/>
					</g>
					<g id="XMLID_292_">
						<path id="XMLID_294_" class="st20" d="M36,46.8L36,46.8l0.9-0.5l0.1,0.1l0,0l-0.2-0.1L36,46.8L36,46.8L36,46.8L36,46.8z"/>
						<path id="XMLID_293_" class="st21" d="M36,46.9L36,46.9C36.1,46.9,36.1,46.9,36,46.9C36.1,46.8,36.1,46.8,36,46.9l0.9-0.5
							l-0.1-0.1L36,46.9L36,46.9C36,46.8,36,46.8,36,46.9C36,46.8,36,46.8,36,46.9z"/>
					</g>
					<g id="XMLID_289_">
						<path id="XMLID_291_" class="st20" d="M36.3,47L36.3,47l0.9-0.5l0.1,0.1l0,0l-0.2-0.1L36.3,47L36.3,47
							C36.3,46.9,36.3,47,36.3,47L36.3,47z"/>
						<path id="XMLID_290_" class="st21" d="M36.3,47L36.3,47C36.4,47,36.4,47,36.3,47C36.4,47,36.4,47,36.3,47l0.9-0.5l-0.1-0.1
							L36.3,47L36.3,47L36.3,47L36.3,47z"/>
					</g>
				</g>
				<g id="XMLID_269_">
					<g id="XMLID_285_">
						<path id="XMLID_287_" class="st20" d="M36.6,47.1L36.6,47.1l0.9-0.5l0.1,0.1l0,0l-0.2-0.1L36.6,47.1L36.6,47.1L36.6,47.1
							C36.6,47.2,36.6,47.1,36.6,47.1z"/>
						<path id="XMLID_286_" class="st21" d="M36.6,47.2L36.6,47.2C36.6,47.2,36.6,47.2,36.6,47.2C36.6,47.2,36.6,47.2,36.6,47.2
							l0.9-0.5l-0.1-0.1L36.6,47.2L36.6,47.2C36.6,47.1,36.6,47.2,36.6,47.2L36.6,47.2z"/>
					</g>
					<g id="XMLID_282_">
						<path id="XMLID_284_" class="st20" d="M36.8,47.2L36.8,47.2l0.9-0.5l0.1,0.1l0,0l-0.2-0.1L36.8,47.2L36.8,47.2L36.8,47.2
							L36.8,47.2z"/>
						<path id="XMLID_283_" class="st21" d="M36.8,47.3L36.8,47.3C36.9,47.3,36.9,47.3,36.8,47.3C36.9,47.3,36.9,47.3,36.8,47.3
							l0.9-0.5l-0.1-0.1L36.8,47.3L36.8,47.3C36.8,47.2,36.8,47.2,36.8,47.3L36.8,47.3z"/>
					</g>
					<g id="XMLID_279_">
						<path id="XMLID_281_" class="st20" d="M37.1,47.4L37.1,47.4l0.9-0.5l0.1,0.1l0,0l-0.2-0.1L37.1,47.4L37.1,47.4L37.1,47.4
							L37.1,47.4z"/>
						<path id="XMLID_280_" class="st21" d="M37.1,47.4L37.1,47.4C37.2,47.5,37.2,47.5,37.1,47.4C37.2,47.4,37.2,47.4,37.1,47.4
							l0.9-0.5h0L37.1,47.4L37.1,47.4L37.1,47.4L37.1,47.4z"/>
					</g>
					<g id="XMLID_270_">
						<path id="XMLID_278_" class="st20" d="M37.3,47.6L37.3,47.6l0.9-0.5l0.1,0.1l0,0L38.3,47L37.3,47.6L37.3,47.6
							C37.3,47.5,37.3,47.6,37.3,47.6L37.3,47.6z"/>
						<path id="XMLID_277_" class="st21" d="M38.3,47l-0.9,0.5l0,0l0,0c0,0,0,0,0.1,0h0.1l0,0L38.3,47L38.3,47L38.3,47z"/>
						<path id="XMLID_276_" class="st20" d="M37.6,47.7L37.6,47.7l0.8-0.4l0,0L37.6,47.7L37.6,47.7L37.6,47.7L37.6,47.7z"/>
						<path id="XMLID_275_" class="st21" d="M37.6,47.7L37.6,47.7L37.6,47.7C37.6,47.8,37.6,47.8,37.6,47.7
							C37.7,47.8,37.7,47.8,37.6,47.7L37.6,47.7l0.7-0.3v-0.1L37.6,47.7z"/>
						<path id="XMLID_274_" class="st20" d="M37.8,47.8L37.8,47.8l0.5-0.3l0,0L37.8,47.8L37.8,47.8L37.8,47.8L37.8,47.8z"/>
						<path id="XMLID_273_" class="st21" d="M37.8,47.8L37.8,47.8L37.8,47.8C37.8,47.8,37.8,47.9,37.8,47.8
							C37.9,47.9,37.9,47.9,37.8,47.8L37.8,47.8l0.4-0.1v-0.1L37.8,47.8z"/>
						<path id="XMLID_272_" class="st20" d="M38.1,48L38.1,48l0.3-0.1l0,0L38.1,48L38.1,48C38.1,47.9,38.1,48,38.1,48L38.1,48z"/>
						<path id="XMLID_271_" class="st21" d="M38.1,48L38.1,48L38.1,48L38.1,48C38.2,48.1,38.2,48.1,38.1,48L38.1,48h0.2v-0.1
							L38.1,48z"/>
					</g>
				</g>
			</g>
			<g id="XMLID_247_">
				<g id="XMLID_258_">
					<g id="XMLID_266_">
						<path id="XMLID_267_" class="st5" d="M36.3,40.7c0.1,0,0.1-0.1,0.1-0.2l0,0c0-0.1-0.1-0.3-0.1-0.3l0,0
							c-0.1-0.1-0.2-0.2-0.3-0.1c-0.1,0-1.1,0.7-1.2,0.7c-0.1,0-0.1,0.1-0.1,0.2l0,0c0,0.1,0.1,0.3,0.1,0.3l0,0
							c0.1,0.1,0.2,0.1,0.3,0.1S36.3,40.8,36.3,40.7z"/>
					</g>
					<path class="st4" d="M35.9,40.2c-0.1,0-1.1,0.7-1.2,0.7c0,0,0,0-0.1,0.1c0,0.1,0.1,0.1,0.1,0.1c0.1,0.1,0.2,0.1,0.3,0.1
						s1.2-0.7,1.2-0.7s0,0,0.1,0c0-0.1-0.1-0.1-0.1-0.1C36.2,40.2,36,40.1,35.9,40.2z"/>
					<g id="XMLID_264_">
						<path id="XMLID_265_" class="st5" d="M34.9,41.2C34.9,41.1,34.9,41.1,34.9,41.2L34.9,41.2c-0.2-0.1-0.3-0.2-0.3-0.1l0,0
							c-0.1,0-0.2,0.1-0.2,0.2s0,0.6,0,0.6c0,0.1,0,0.1,0.1,0.1l0,0c0.1,0,0.2,0.1,0.3,0l0,0c0.1,0,0.2-0.1,0.2-0.2
							S34.9,41.2,34.9,41.2z"/>
					</g>
					<g id="XMLID_262_">
						<path id="XMLID_263_" class="st22" d="M35.2,40.2c0-0.1-0.1-0.2-0.2-0.3l0,0c-0.2-0.1-0.3-0.1-0.5-0.1l0,0
							c-0.2,0.1-0.3,0.2-0.3,0.3c0,0.1,0,1.1,0,1.3c0,0.1,0.1,0.2,0.2,0.3l0,0c0.2,0.1,0.3,0.1,0.5,0.1l0,0c0.2-0.1,0.3-0.2,0.3-0.3
							C35.2,41.4,35.2,40.3,35.2,40.2z"/>
					</g>
					<g id="XMLID_259_">
						<path id="XMLID_261_" class="st23" d="M35.3,40C35.3,40,35.3,39.9,35.3,40l-0.3-0.3c-0.1-0.1-0.2-0.1-0.3,0L33.9,40l-0.1,0.1
							v0.2c0,0,0,0.1,0.1,0.1l0.4,0.3c0.1,0.1,0.2,0.1,0.3,0l0.6-0.4L35.3,40L35.3,40z"/>
						<path id="XMLID_260_" class="st24" d="M34.9,39.7l0.3,0.2c0.1,0.1,0.1,0.2,0,0.2l-0.6,0.4c-0.1,0.1-0.2,0.1-0.3,0l-0.4-0.3
							c-0.1-0.1-0.1-0.2,0-0.2l0.8-0.3C34.7,39.7,34.8,39.7,34.9,39.7z"/>
					</g>
				</g>
				<g id="XMLID_248_">
					<g id="XMLID_256_">
						<path id="XMLID_257_" class="st5" d="M38.2,41.8c0.1,0,0.1-0.1,0.1-0.2l0,0c0-0.1-0.1-0.3-0.1-0.3l0,0
							c-0.1-0.1-0.2-0.2-0.3-0.1c-0.1,0-1.1,0.7-1.2,0.7c-0.1,0-0.1,0.1-0.1,0.2l0,0c0,0.1,0.1,0.3,0.1,0.3l0,0
							c0.1,0.1,0.2,0.1,0.3,0.1C37,42.5,38.1,41.8,38.2,41.8z"/>
					</g>
					<path class="st4" d="M37.8,41.2c-0.1,0-1.1,0.7-1.2,0.7c0,0,0,0-0.1,0.1c0,0.1,0.1,0.1,0.1,0.1c0.1,0.1,0.2,0.1,0.3,0.1
						s1.2-0.7,1.2-0.7s0,0,0.1,0c0-0.1-0.1-0.1-0.1-0.1l0,0C38,41.2,37.9,41.2,37.8,41.2z"/>
					<g id="XMLID_254_">
						<path id="XMLID_255_" class="st25" d="M36.8,42.2C36.8,42.2,36.8,42.2,36.8,42.2L36.8,42.2c-0.2-0.1-0.3-0.2-0.3-0.1l0,0
							c-0.1,0-0.2,0.1-0.2,0.2c0,0.1,0,0.6,0,0.6c0,0.1,0,0.1,0.1,0.1l0,0c0.1,0,0.2,0.1,0.3,0l0,0c0.1,0,0.2-0.1,0.2-0.2V42.2z"/>
					</g>
					<g id="XMLID_252_">
						<path id="XMLID_253_" class="st22" d="M37.1,41.3c0-0.1-0.1-0.2-0.2-0.3l0,0c-0.2-0.1-0.3-0.1-0.5-0.1l0,0
							C36.2,41,36,41.1,36,41.3c0,0.1,0,1.1,0,1.3c0,0.1,0.1,0.2,0.2,0.3l0,0c0.2,0.1,0.3,0.1,0.5,0.1l0,0c0.2-0.1,0.3-0.2,0.3-0.3
							C37.1,42.4,37.1,41.4,37.1,41.3z"/>
					</g>
					<g id="XMLID_249_">
						<path id="XMLID_251_" class="st26" d="M37.2,41C37.2,41,37.2,40.9,37.2,41l-0.3-0.3c-0.1-0.1-0.2-0.1-0.3,0l-0.9,0.3l-0.1,0.1
							v0.2c0,0,0,0.1,0.1,0.1l0.4,0.3c0.1,0.1,0.2,0.1,0.3,0l0.6-0.4l0.1-0.1C37.2,41.1,37.2,41.1,37.2,41z"/>
						<path id="XMLID_250_" class="st27" d="M36.8,40.8l0.3,0.2c0.1,0.1,0.1,0.2,0,0.2l-0.6,0.4c-0.1,0.1-0.2,0.1-0.3,0l-0.5-0.3
							c-0.1-0.1-0.1-0.2,0-0.2l0.8-0.3C36.6,40.7,36.7,40.7,36.8,40.8z"/>
					</g>
				</g>
			</g>
		</g>
	</g>
	<g id="XMLID_236_">
		<polygon id="XMLID_244_" class="st18" points="33.1,47.3 33.1,54.5 38.4,57.5 38.4,50.3 		"/>
		<g id="XMLID_237_">
			<polygon id="XMLID_243_" class="st22" points="33.4,47.7 33.4,54.3 38.1,57.1 38.1,50.4 			"/>
			<polyline id="XMLID_16302_" class="st1" points="38.1,57.1 38.1,50.4 33.4,47.7 			"/>
			<polygon id="XMLID_242_" class="st18" points="33.3,48.3 33.3,53.9 33.4,54 33.4,48.4 			"/>
			<g id="XMLID_238_">
				<polygon id="XMLID_241_" class="st17" points="37.8,53.7 37.8,53.4 37.6,53.5 37.6,53.9 37.6,53.9 				"/>
				<polygon id="XMLID_240_" class="st18" points="36.5,52.8 36.5,53.3 37.6,53.9 37.6,53.5 				"/>
				<polygon id="XMLID_239_" class="st28" points="37.3,53 37.3,53 37.2,53.1 36.6,52.8 36.6,52.8 36.5,52.8 37.6,53.5 37.8,53.4 
									"/>
			</g>
		</g>
	</g>
</g>
<g id="XMLID_16315_">
	<g id="XMLID_16329_">
		<path id="XMLID_16333_" class="st29" d="M37.5,44.5c0-0.2-0.2-0.4-0.3-0.5l0,0c-0.3-0.2-0.7-0.3-1-0.2l0,0
			c-0.4,0.1-0.7,0.4-0.7,0.7c0,0.2,0.4,1.6,0.4,1.8c0,0.2,0.1,0.3,0.3,0.3l0,0c0.2,0.1,0.4,0.2,0.7,0.1l0,0c0.3-0.1,0.4-0.3,0.4-0.4
			C37.2,46.1,37.5,44.7,37.5,44.5z"/>
		<path class="st30" d="M37.2,46.3c0-0.2,0.4-1.6,0.4-1.8c0-0.1-0.1-0.3-0.2-0.3c-0.3-0.1-0.6-0.2-0.9-0.1c-0.4,0.1-0.7,0.4-0.7,0.7
			c0,0.2,0.4,1.6,0.4,1.8c0,0.1,0,0.1,0.1,0.2c0.2,0.1,0.3,0.1,0.5,0C37,46.6,37.2,46.5,37.2,46.3z"/>
		<path id="XMLID_16332_" class="st5" d="M37.2,44L37.2,44c0.6,0.3,0.4,1-0.3,1.3l0,0c-0.3,0.1-0.8,0-1-0.2l0,0
			c-0.6-0.3-0.4-1,0.3-1.3l0,0C36.5,43.7,36.9,43.8,37.2,44z"/>
		<path id="XMLID_16331_" class="st5" d="M37.2,43.9L37.2,43.9c0.7,0.4,0.4,1.1-0.3,1.3l0,0c-0.3,0.1-0.8,0-1.1-0.2l0,0
			c-0.7-0.4-0.4-1.1,0.3-1.3l0,0C36.5,43.6,36.9,43.7,37.2,43.9z"/>
		<path id="XMLID_16330_" class="st5" d="M37.2,43.8L37.2,43.8c0.6,0.3,0.4,1-0.3,1.3l0,0c-0.3,0.1-0.8,0-1-0.2l0,0
			c-0.6-0.3-0.4-1,0.3-1.3l0,0C36.5,43.6,36.9,43.6,37.2,43.8z"/>
	</g>
	<path id="XMLID_16328_" class="st31" d="M37.1,43.9L37.1,43.9c0.6,0.3,0.4,1-0.3,1.2l0,0c-0.3,0.1-0.7,0-1-0.2l0,0
		c-0.6-0.3-0.4-1,0.3-1.2l0,0C36.5,43.7,36.8,43.7,37.1,43.9z"/>
	<g id="XMLID_16323_">
		<path id="XMLID_16327_" class="st32" d="M36.1,44.1L36.1,44.1c0.3-0.1,0.7,0,1,0.2l0,0c0.2,0.1,0.3,0.3,0.3,0.3
			c0.1-0.3,0-0.5-0.3-0.7l0,0c-0.3-0.2-0.7-0.2-1-0.2l0,0c-0.5,0.1-0.8,0.5-0.7,0.9C35.5,44.4,35.8,44.2,36.1,44.1z"/>
		<path class="st33" d="M37.1,44.1C36.8,44,36.4,44,36,44c-0.4,0.1-0.6,0.3-0.7,0.6v0.1c0.1-0.2,0.3-0.4,0.7-0.5
			c0.3-0.1,0.7,0,1,0.2c0.2,0.1,0.3,0.3,0.3,0.3v-0.1C37.4,44.4,37.3,44.2,37.1,44.1z"/>
		<path id="XMLID_16326_" class="st34" d="M35.8,44.9L35.8,44.9c0.3,0.2,0.7,0.2,1,0.2l0,0c0.3-0.1,0.6-0.3,0.7-0.5
			c-0.1-0.1-0.2-0.3-0.3-0.3l0,0c-0.3-0.2-0.7-0.2-1-0.2l0,0c-0.3,0.1-0.6,0.3-0.7,0.5C35.5,44.7,35.6,44.8,35.8,44.9z"/>
		<path id="XMLID_16325_" class="st35" d="M36.1,44.1"/>
		<path id="XMLID_16324_" class="st35" d="M35.8,44.9L35.8,44.9c0.3,0.2,0.7,0.2,1,0.2l0,0c0.3-0.1,0.6-0.3,0.7-0.5
			c-0.1-0.1-0.2-0.3-0.3-0.3l0,0"/>
	</g>
	<path id="XMLID_16322_" class="st36" d="M36,44.5L36,44.5c0.1,0.1,0.1,0.2-0.1,0.2l0,0c-0.1,0-0.1,0-0.2,0l0,0
		c-0.1-0.1-0.1-0.2,0.1-0.2l0,0C35.9,44.5,35.9,44.5,36,44.5z"/>
	<path id="XMLID_16321_" class="st34" d="M36,44.5L36,44.5C36.1,44.5,36,44.6,36,44.5L36,44.5L36,44.5L36,44.5
		C35.9,44.6,35.9,44.5,36,44.5L36,44.5C35.9,44.5,35.9,44.5,36,44.5z"/>
	<path id="XMLID_16320_" class="st36" d="M36.6,44.8L36.6,44.8C36.6,44.9,36.6,44.9,36.6,44.8L36.6,44.8
		C36.6,44.9,36.6,44.9,36.6,44.8L36.6,44.8C36.5,44.9,36.5,44.8,36.6,44.8L36.6,44.8C36.6,44.8,36.6,44.8,36.6,44.8z"/>
	<path id="XMLID_16319_" class="st34" d="M36.6,44.8L36.6,44.8C36.6,44.9,36.6,44.9,36.6,44.8L36.6,44.8
		C36.6,44.9,36.6,44.9,36.6,44.8L36.6,44.8C36.6,44.9,36.6,44.8,36.6,44.8L36.6,44.8C36.6,44.8,36.6,44.8,36.6,44.8z"/>
	<path id="XMLID_16318_" class="st36" d="M37,44.4L37,44.4C37.1,44.4,37,44.5,37,44.4L37,44.4L37,44.4L37,44.4
		C36.8,44.5,36.9,44.4,37,44.4L37,44.4L37,44.4z"/>
	<path id="XMLID_16317_" class="st34" d="M37,44.4L37,44.4C37,44.4,37,44.5,37,44.4L37,44.4C36.9,44.5,36.9,44.5,37,44.4L37,44.4
		C36.8,44.4,36.8,44.4,37,44.4L37,44.4C36.9,44.4,36.9,44.4,37,44.4z"/>
</g>
</svg>
