<?xml version="1.0" encoding="utf-8"?>
<!-- Generator: Adobe Illustrator 21.0.0, SVG Export Plug-In . SVG Version: 6.00 Build 0)  -->
<svg version="1.1" id="Layer_1" xmlns="http://www.w3.org/2000/svg" xmlns:xlink="http://www.w3.org/1999/xlink" x="0px" y="0px"
	 viewBox="0 0 80 80" style="enable-background:new 0 0 80 80;" xml:space="preserve">
<style type="text/css">
	.st0{fill:#AAB5B0;}
	.st1{fill:#9CA8A4;}
	.st2{fill:#E5E6E6;}
	.st3{fill:#CCD3D3;}
	.st4{fill:#D5D4D4;}
	.st5{fill:#428976;}
	.st6{fill:#306D5B;}
	.st7{fill:#C6C4C3;}
	.st8{fill:none;}
	.st9{fill:none;stroke:#C6C4C3;stroke-miterlimit:10;}
	.st10{fill:#D4D5D5;}
	.st11{fill:#CECDCB;}
	.st12{fill:#DBDDDB;}
	.st13{fill:#FFFFFF;}
	.st14{fill:#EFEFEF;}
	.st15{fill:#C5C6D4;}
	.st16{fill:#DBDBD9;}
	.st17{fill:#A5CFD5;}
	.st18{fill:#9CC6CA;}
</style>
<g id="XMLID_42722_">
	<g id="XMLID_42723_">
		<g id="XMLID_42739_">
			<polygon id="XMLID_42793_" class="st0" points="20,26.9 20,53.4 39.8,64.9 39.8,38.3 			"/>
			<polyline id="XMLID_46233_" class="st1" points="39.8,64.9 39.8,38.3 20,26.9 			"/>
			<polygon id="XMLID_42792_" class="st2" points="60,26.6 39.8,38.3 39.8,64.9 60,53.1 			"/>
			<polyline id="XMLID_46238_" class="st3" points="60,26.6 39.8,38.3 39.8,64.9 			"/>
			<g id="XMLID_42789_">
				<polygon id="XMLID_42791_" class="st4" points="59.2,27.9 53.6,31.1 53.6,33.8 53.8,34 59.3,30.8 59.3,28 				"/>
				<polygon id="XMLID_42790_" class="st5" points="59.3,28 53.8,31.1 53.8,34 59.3,30.8 				"/>
				<polyline id="XMLID_46239_" class="st6" points="59.3,28 53.8,31.1 53.8,34 				"/>
			</g>
			<g id="XMLID_42743_">
				<g id="XMLID_42761_">
					<g id="XMLID_42769_">
						<g id="XMLID_42780_">
							<g id="XMLID_42787_">
								<polygon id="XMLID_42788_" class="st7" points="41.8,39.4 41.8,38.1 41.7,38.1 41.7,39.3 41.1,38.7 40.9,38.7 								"/>
							</g>
							<g id="XMLID_42785_">
								<polygon id="XMLID_42786_" class="st7" points="40.8,40.2 41.8,39.4 40.7,39.4 40.7,39.4 41.7,39.4 								"/>
							</g>
							<g id="XMLID_42783_">
								<polygon id="XMLID_42784_" class="st7" points="41.7,40.5 41.8,40.5 41.8,39.4 42.4,40.1 42.5,40.1 41.7,39.3 								"/>
							</g>
							<g id="XMLID_42781_">
								<polygon id="XMLID_42782_" class="st7" points="41.7,39.4 42.8,39.4 42.8,39.4 41.8,39.4 42.8,38.3 42.7,38.3 								"/>
							</g>
						</g>
						<g id="XMLID_42778_">
							<path id="XMLID_42779_" class="st2" d="M42,38.3L42,38.3c0.7,0,0.9,0.7,0.5,1.4l0,0c-0.2,0.4-0.6,0.5-0.9,0.6l0,0
								c-0.7,0-0.9-0.7-0.5-1.4l0,0C41.4,38.6,41.7,38.3,42,38.3z"/>
						</g>
						<g id="XMLID_42776_">
							<circle id="XMLID_42777_" class="st8" cx="41.7" cy="39.4" r="0"/>
						</g>
						<g id="XMLID_42774_">
							<path id="XMLID_42775_" class="st8" d="M41.7,39.4L41.7,39.4L41.7,39.4z"/>
						</g>
						<g id="XMLID_42772_">
							<path id="XMLID_42773_" class="st8" d="M41.7,39.4L41.7,39.4L41.7,39.4z"/>
						</g>
						<g id="XMLID_42770_">
							<path id="XMLID_42771_" class="st9" d="M41.5,40.7"/>
						</g>
					</g>
					<g id="XMLID_42762_">
						<g id="XMLID_42767_">
							<path id="XMLID_42768_" class="st10" d="M41.1,39.2c0-0.1,0.1-0.2,0.1-0.4l0,0c0.2-0.2,0.5-0.5,0.8-0.5l0,0
								c0.1,0,0.2,0,0.4,0.1l0,0l0.2,0.1l0,0l0,0c0.4,0.2,0.4,0.7,0,1.2l0,0c-0.2,0.2-0.5,0.5-0.8,0.5l0,0c-0.1,0-0.2,0-0.4,0
								c-0.2-0.1-0.2-0.1-0.4-0.1C41.1,39.9,40.9,39.6,41.1,39.2L41.1,39.2z"/>
						</g>
						<g id="XMLID_42765_">
							<path id="XMLID_42766_" class="st2" d="M42.2,38.6L42.2,38.6c0.6,0,0.8,0.7,0.4,1.3l0,0c-0.2,0.2-0.5,0.5-0.8,0.5l0,0
								c-0.6,0-0.8-0.7-0.4-1.3l0,0C41.7,38.7,42,38.6,42.2,38.6z"/>
						</g>
						<g id="XMLID_42763_">
							<path id="XMLID_42764_" class="st11" d="M42.2,38.8L42.2,38.8c0.5,0,0.6,0.5,0.2,0.8l0,0c-0.1,0.2-0.4,0.4-0.6,0.4l0,0
								c-0.5,0-0.6-0.5-0.2-0.8l0,0C41.8,38.9,42,38.8,42.2,38.8z"/>
						</g>
					</g>
				</g>
				<g id="XMLID_42744_">
					<g id="XMLID_42757_">
						<path id="XMLID_42760_" class="st12" d="M43.7,37.8c0-0.1,0-0.1,0.1-0.2l0,0c0.1-0.1,0.2-0.2,0.5-0.2l0,0c0.1,0,0.1,0,0.2,0
							l0,0l0.2,0.1l0,0l0,0c0.1,0.1,0.2,0.5,0,0.7l0,0c-0.1,0.1-0.2,0.2-0.5,0.2l0,0c-0.1,0-0.1,0-0.1,0c-0.1-0.1-0.2-0.1-0.2-0.1
							C43.7,38.2,43.7,38,43.7,37.8L43.7,37.8z"/>
						<path id="XMLID_42759_" class="st7" d="M44.5,37.4L44.5,37.4c0.4,0,0.5,0.4,0.2,0.7l0,0c-0.1,0.1-0.2,0.2-0.5,0.2l0,0
							c-0.4,0-0.5-0.4-0.2-0.7l0,0C44.1,37.5,44.3,37.4,44.5,37.4z"/>
						<path id="XMLID_42758_" class="st12" d="M44.4,37.6L44.4,37.6c0.2,0,0.2,0.2,0.1,0.5l0,0c-0.1,0.1-0.1,0.1-0.2,0.1l0,0
							c-0.2,0-0.2-0.2-0.1-0.5l0,0C44.3,37.8,44.4,37.6,44.4,37.6z"/>
					</g>
					<g id="XMLID_42753_">
						<path id="XMLID_42756_" class="st12" d="M45,37c0-0.1,0-0.1,0.1-0.2l0,0c0.1-0.1,0.2-0.2,0.5-0.2l0,0c0.1,0,0.1,0,0.2,0l0,0
							l0.2,0.1l0,0l0,0c0.1,0.1,0.2,0.5,0,0.7l0,0c-0.1,0.1-0.2,0.2-0.5,0.2l0,0c-0.1,0-0.1,0-0.1,0c-0.1-0.1-0.2-0.1-0.2-0.1
							C45,37.4,45,37.3,45,37L45,37z"/>
						<path id="XMLID_42755_" class="st7" d="M45.8,36.7L45.8,36.7c0.4,0,0.5,0.4,0.2,0.7l0,0c-0.1,0.1-0.2,0.2-0.5,0.2l0,0
							c-0.4,0-0.5-0.4-0.2-0.7l0,0C45.4,36.8,45.6,36.7,45.8,36.7z"/>
						<path id="XMLID_42754_" class="st12" d="M45.7,36.9L45.7,36.9c0.2,0,0.2,0.2,0.1,0.5l0,0c-0.1,0.1-0.1,0.1-0.2,0.1l0,0
							c-0.2,0-0.2-0.2-0.1-0.5l0,0C45.6,37,45.6,36.9,45.7,36.9z"/>
					</g>
					<g id="XMLID_42749_">
						<path id="XMLID_42752_" class="st12" d="M46.3,36.3c0-0.1,0-0.1,0.1-0.2l0,0c0.1-0.1,0.2-0.2,0.5-0.2l0,0c0.1,0,0.1,0,0.2,0
							l0,0l0.2,0.1l0,0l0,0c0.1,0.1,0.2,0.5,0,0.7l0,0c-0.1,0.1-0.2,0.2-0.5,0.2l0,0c-0.1,0-0.1,0-0.1,0c-0.1-0.1-0.2-0.1-0.2-0.1
							C46.3,36.7,46.2,36.6,46.3,36.3L46.3,36.3z"/>
						<path id="XMLID_42751_" class="st7" d="M47,36L47,36c0.4,0,0.5,0.4,0.2,0.7l0,0c-0.1,0.1-0.2,0.2-0.5,0.2l0,0
							c-0.4,0-0.5-0.4-0.2-0.7l0,0C46.7,36.1,46.9,36,47,36z"/>
						<path id="XMLID_42750_" class="st12" d="M47,36.2L47,36.2c0.2,0,0.2,0.2,0.1,0.5l0,0c-0.1,0.1-0.1,0.1-0.2,0.1l0,0
							c-0.2,0-0.2-0.2-0.1-0.5l0,0C46.7,36.2,46.9,36.2,47,36.2z"/>
					</g>
					<g id="XMLID_42745_">
						<path id="XMLID_42748_" class="st12" d="M47.6,35.6c0-0.1,0-0.1,0.1-0.2l0,0c0.1-0.1,0.2-0.2,0.5-0.2l0,0c0.1,0,0.1,0,0.2,0
							l0,0l0.2,0.1l0,0l0,0c0.1,0.1,0.2,0.5,0,0.7l0,0c-0.1,0.1-0.2,0.2-0.5,0.2l0,0c-0.1,0-0.1,0-0.1,0c-0.1-0.1-0.2-0.1-0.2-0.1
							C47.6,36,47.5,35.9,47.6,35.6L47.6,35.6z"/>
						<path id="XMLID_42747_" class="st7" d="M48.3,35.3L48.3,35.3c0.4,0,0.5,0.4,0.2,0.7l0,0c-0.1,0.1-0.2,0.2-0.5,0.2l0,0
							c-0.4,0-0.5-0.4-0.2-0.7l0,0C47.9,35.4,48.2,35.3,48.3,35.3z"/>
						<path id="XMLID_42746_" class="st12" d="M48.3,35.4L48.3,35.4c0.2,0,0.2,0.2,0.1,0.5l0,0C48.3,36,48.3,36,48.2,36l0,0
							c-0.2,0-0.2-0.2-0.1-0.5l0,0C48,35.5,48.2,35.5,48.3,35.4z"/>
					</g>
				</g>
			</g>
			<polygon id="XMLID_42742_" class="st13" points="40.2,15.1 20,26.9 39.8,38.3 60,26.6 			"/>
			<polyline id="XMLID_46235_" class="st14" points="20,26.9 39.8,38.3 60,26.6 			"/>
			<polygon id="XMLID_42741_" class="st10" points="60,31 39.8,42.7 39.8,43.2 60,31.5 			"/>
			<polygon id="XMLID_42740_" class="st14" points="60,30.8 39.8,42.5 39.8,43 60,31.2 			"/>
		</g>
		<g id="XMLID_42724_">
			<g id="XMLID_42729_">
				<g id="XMLID_42732_">
					<path id="XMLID_42738_" class="st14" d="M45.2,42L45.2,42c1.7-2.2,4-3.8,6.3-3.9l0,0c0.8,0,1.5,0,2.1,0.2
						c0.5,0.2,2.2,1.3,2.6,1.5c2,1.8,2.2,5.7-0.2,9.1l0,0c-1.8,2.4-4.1,3.9-6.4,4l0,0c-0.9,0.1-1.8-0.1-2.5-0.5
						c-0.4-0.2-1.9-1.1-2.2-1.4C42.8,49.5,42.7,45.6,45.2,42z"/>
					<path id="XMLID_42737_" class="st2" d="M52.8,39.1L52.8,39.1c4.9-0.4,6.5,5.3,3.1,10.2l0,0c-1.7,2.1-4,3.7-6.3,3.8l0,0
						c-4.9,0.4-6.5-5.3-3.1-10.2l0,0C48.2,40.7,50.5,39.2,52.8,39.1z"/>
					<path id="XMLID_42736_" class="st15" d="M52.4,40.7L52.4,40.7c3.7-0.2,4.9,3.9,2.2,7.6l0,0c-1.2,1.7-3,2.8-4.7,3l0,0
						c-3.7,0.2-4.9-3.9-2.2-7.6l0,0C48.9,42,50.7,40.8,52.4,40.7z"/>
					<g id="XMLID_42733_">
						<path id="XMLID_42735_" class="st16" d="M53,48.4L53,48.4c2.4-3.2,1.5-7-1.2-7.6c0.1,0,0.4,0,0.5-0.1l0,0
							c3.7-0.2,4.9,3.9,2.2,7.6l0,0c-1.2,1.7-3,2.8-4.7,3l0,0c-0.4,0-0.7,0-1.1-0.1C50.4,50.9,52,49.8,53,48.4z"/>
						<path id="XMLID_42734_" class="st17" d="M47.7,43.7L47.7,43.7c1.1-1.5,2.6-2.6,4.1-2.8c2.7,0.6,3.6,4.3,1.2,7.6l0,0
							c-1.1,1.5-2.6,2.6-4.1,2.8C46.2,50.7,45.3,47,47.7,43.7z"/>
					</g>
				</g>
				<g id="XMLID_42730_">
					<path id="XMLID_42731_" class="st18" d="M47.7,43.7L47.7,43.7c0.7-0.9,1.5-1.7,2.4-2.1c0.1-0.1,1.4,1.5,1.4,4.3
						c0,3-1.3,5-1.5,5.1c-0.4,0.1-0.8,0.2-1.2,0.4C46.2,50.7,45.3,47,47.7,43.7z"/>
				</g>
			</g>
			<g id="XMLID_42725_">
				<polygon id="XMLID_42728_" class="st2" points="47.5,46.7 45.7,47.8 45.7,50.2 47.5,49.1 				"/>
				<g id="XMLID_42726_">
					<path id="XMLID_42727_" class="st14" d="M47.5,46.7l-1.2,0.7c0-0.4,0.1-0.7,0.1-1.1L47.5,46.7z"/>
				</g>
			</g>
		</g>
	</g>
</g>
</svg>
