<?xml version="1.0" encoding="utf-8"?>
<!-- Generator: Adobe Illustrator 20.1.0, SVG Export Plug-In . SVG Version: 6.00 Build 0)  -->
<svg version="1.1" id="Layer_1" xmlns="http://www.w3.org/2000/svg" xmlns:xlink="http://www.w3.org/1999/xlink" x="0px" y="0px"
	 viewBox="0 0 100 100" style="enable-background:new 0 0 100 100;" xml:space="preserve">
<style type="text/css">
	.st0{fill:#DDDDDC;}
	.st1{opacity:0.3;fill:#E8E7E7;}
	.st2{fill:#CECDCC;}
	.st3{opacity:0.2;fill:#CECDCC;}
	.st4{fill:#FFFFFF;}
	.st5{fill:#EFEFEF;}
	.st6{fill:#D7DDDD;}
	.st7{fill:#95D2DE;}
	.st8{fill:#A0DBEB;}
	.st9{fill:#A9DEEB;}
	.st10{opacity:0.7;fill:#92D5E0;}
	.st11{fill:#79CFE2;}
	.st12{fill:#A0DBEA;}
	.st13{fill:#92D5E0;}
	.st14{fill:#54A2B4;}
	.st15{fill:#6BBCD6;}
	.st16{fill:#9C9C9C;}
	.st17{fill:#B2B2B2;}
	.st18{fill:#BBBBBB;}
	.st19{opacity:0.2;fill:#BBBBBB;}
	.st20{fill:#777778;}
	.st21{fill:#686A6A;}
	.st22{fill:#E8E7E7;}
	.st23{fill:#B6504F;}
	.st24{fill:#CC5A5B;}
	.st25{fill:#EBECEC;}
	.st26{fill:#4A72B7;}
	.st27{fill:#5982C2;}
	.st28{fill:#C7C7C7;}
	.st29{fill:#D7D5DC;}
	.st30{opacity:0.8;fill:#D7D5DC;}
	.st31{fill:#C5C6D4;}
	.st32{fill:#C6C6CB;}
	.st33{opacity:0.3;fill:#C6C6CB;}
	.st34{fill:#9ED2DE;}
	.st35{opacity:0.6;fill:#9ED2DE;}
	.st36{fill:#AFDFE8;}
</style>
<g>
	<g id="XMLID_235_">
		<g id="XMLID_391_">
			<path id="XMLID_393_" class="st0" d="M40.7,42.1c0-0.4,0.2-0.9,0.6-1.1l7.2-4.2c0.9-0.5,2.1-0.5,3,0l7.2,4.2
				c0.4,0.2,0.6,0.6,0.6,1c0,0.4,0,25.1,0,25.4c0,0.5-0.2,0.9-0.6,1.2l-7.2,4.2c-0.9,0.5-2.1,0.5-3,0l-7.2-4.2
				c-0.4-0.2-0.6-0.6-0.6-1C40.7,67.2,40.7,42.5,40.7,42.1z"/>
			<path id="XMLID_16301_" class="st1" d="M51.5,72.8c-0.9,0.5-2.1,0.5-3,0l-7.2-4.2c-0.4-0.2-0.6-0.6-0.6-1c0-0.5,0-25.1,0-25.6
				c0-0.4,0.2-0.9,0.6-1.1l7.2-4.2c0.9-0.5,2.1-0.5,3,0l7.2,4.2c0.4,0.2,0.6,0.6,0.6,1"/>
			<path class="st2" d="M49.9,73.2c-0.5,0-0.9-0.2-1.4-0.4l-7.2-4.2c-0.4-0.2-0.6-0.6-0.6-1c0-0.5,0-25.1,0-25.6
				c0-0.4,0.2-0.9,0.6-1.1l7.2-4.2c0,0,0,0,0,0h1.3V73.2z"/>
			<path class="st3" d="M40.7,42.1c0-0.4,0.2-0.9,0.6-1.1l7.2-4.2c0,0,0,0,0,0h1.3v36.4c-0.5,0-0.9-0.2-1.4-0.4"/>
			<path id="XMLID_392_" class="st4" d="M48.5,36.9L41.3,41c-0.8,0.5-0.8,1.7,0,2.2l7.2,4.2c0.9,0.5,2.1,0.5,3,0l7.2-4.2
				c0.8-0.5,0.8-1.7,0-2.2l-7.2-4.2C50.6,36.3,49.4,36.3,48.5,36.9z"/>
			<path id="XMLID_16300_" class="st5" d="M41.3,41c-0.8,0.5-0.8,1.7,0,2.2l7.2,4.2c0.9,0.5,2.1,0.5,3,0l7.2-4.2
				c0.8-0.5,0.8-1.7,0-2.2"/>
			<path class="st3" d="M54.2,45.8l-2.6,1.5c-0.9,0.5-2.1,0.5-3,0l-3-1.7v-4.4h8.6V45.8z"/>
			<path class="st6" d="M41.3,42.7l7.2,4.2c0.9,0.5,2.1,0.5,3,0l7.2-4.2c0.3-0.2,0.5-0.5,0.6-0.9c0.1,0.5-0.1,1-0.6,1.3l-7.2,4.2
				c-0.9,0.5-2.1,0.5-3,0l-7.2-4.2c-0.5-0.3-0.7-0.8-0.6-1.3C40.8,42.2,41,42.5,41.3,42.7z"/>
		</g>
		<g id="XMLID_4704_">
			<g id="XMLID_4706_">
				<path id="XMLID_4707_" class="st7" d="M45.5,39.7c0-0.8,0.5-1.5,1.5-2.1h0c1.2-0.7,2.8-0.9,4.3-0.6l0,0c1.8,0.4,2.9,1.6,2.9,2.7
					c0,0.8,0,1.1,0,1.1c0,0.8-0.5,1.6-1.5,2.2h0c-1.2,0.7-2.8,0.9-4.3,0.6h0c-1.8-0.4-2.8-1.5-2.9-2.7V39.7z"/>
			</g>
			<g id="XMLID_347_">
				<g id="XMLID_388_">
					<path id="XMLID_390_" class="st8" d="M46.3,36.1L46.3,36.1c-3.2,1.9-2.2,5.4,1.8,6.3l0,0c1.8,0.4,3.9,0.2,5.4-0.7h0
						c3.2-1.9,2.2-5.4-1.8-6.3l0,0C49.8,35,47.8,35.2,46.3,36.1z"/>
					<path id="XMLID_389_" class="st9" d="M46.3,36.1L46.3,36.1c-3.2,1.9-2.2,5.4,1.8,6.3l0,0c1.8,0.4,3.9,0.2,5.4-0.7h0
						c3.2-1.9,2.2-5.4-1.8-6.3l0,0C49.8,35,47.8,35.2,46.3,36.1z"/>
				</g>
				<path id="XMLID_387_" class="st7" d="M44.9,36.8c-0.1-1,0.5-2,1.7-2.7l0,0c1.4-0.8,3.2-1.1,4.9-0.7l0,0c2.3,0.5,3.5,2,3.4,3.4
					c0,0.2,0,1,0,1.2c-0.1,0.9-0.6,1.8-1.7,2.4l0,0c-1.4,0.8-3.2,1.1-4.9,0.7l0,0c-2.1-0.5-3.2-1.7-3.4-3
					C44.9,37.9,44.9,37,44.9,36.8z"/>
				<g id="XMLID_380_">
					<path id="XMLID_386_" class="st9" d="M46.3,33L46.3,33c-3.2,1.9-2.2,5.4,1.8,6.3l0,0c1.8,0.4,3.9,0.2,5.4-0.7h0
						c3.2-1.9,2.2-5.4-1.8-6.3l0,0C49.8,31.9,47.8,32.1,46.3,33z"/>
				</g>
				<path id="XMLID_370_" class="st7" d="M44.9,32.3c-0.1-1,0.5-2,1.7-2.7v0c1.4-0.8,3.2-1.1,4.9-0.7l0,0c2.3,0.5,3.5,2,3.4,3.4
					c0,0.2,0,2.3,0,2.5c-0.1,0.9-0.6,1.8-1.7,2.4l0,0c-1.4,0.8-3.2,1.1-4.9,0.7l0,0c-2.1-0.5-3.2-1.7-3.4-3
					C44.9,34.7,44.9,32.5,44.9,32.3z"/>
				<path class="st10" d="M44.9,34.3c0-0.5,0-1.2,0-1.6c-0.2-0.3-0.3-0.7-0.4-1c0-0.3-0.1-0.8,0-1.1c0-1,0.6-2.1,1.9-2.9h0
					c1.5-0.9,3.5-1.1,5.4-0.7c0.1,0,0.2,0,0.2,0.1v16.3c-1.1,0.4-2.3,0.5-3.5,0.2h0c-1.7-0.4-2.7-1.3-2.9-2.4
					c-1.2-1.1-1.5-2.5-0.7-3.8c0,0,0-0.1,0-0.1C44.3,36.4,44.3,35.3,44.9,34.3z"/>
				<path class="st10" d="M49.8,43.8c-0.5,0-0.9-0.1-1.4-0.2h0c-1.7-0.4-2.7-1.3-2.9-2.4c-1.2-1.1-1.5-2.5-0.7-3.8c0,0,0-0.1,0-0.1
					c-0.6-0.9-0.6-2,0-3c0-0.5,0-1.2,0-1.6c-0.2-0.3-0.3-0.7-0.4-1c0-0.3-0.1-0.8,0-1.1c0-1,0.5-1.9,1.6-2.7h3.8V43.8z"/>
				<g id="XMLID_348_">
					<path id="XMLID_369_" class="st11" d="M46.3,27.8L46.3,27.8c1.5-0.9,3.5-1.1,5.4-0.7v0c2.2,0.5,3.5,1.8,3.7,3.2
						c0,0.3,0,0.9,0,1.1c-0.1,0.9-0.7,1.9-1.9,2.6v0c-1.5,0.9-3.5,1.1-5.4,0.7l0,0c-2.1-0.5-3.4-1.7-3.6-3c-0.1-0.3-0.1-1.1,0-1.3
						C44.5,29.4,45.1,28.5,46.3,27.8z"/>
					<path id="XMLID_368_" class="st12" d="M46.3,27.7L46.3,27.7c-3.2,1.9-2.2,5.4,1.8,6.3l0,0c1.8,0.4,3.9,0.2,5.4-0.7l0,0
						c3.2-1.9,2.2-5.4-1.8-6.3l0,0C49.8,26.6,47.8,26.8,46.3,27.7z"/>
					<path id="XMLID_367_" class="st13" d="M47.6,28L47.6,28c-2,1.2-1.4,3.4,1.1,4l0,0c1.2,0.3,2.5,0.1,3.4-0.5h0
						c2-1.2,1.4-3.4-1.1-4h0C49.9,27.3,48.6,27.4,47.6,28z"/>
					<path id="XMLID_363_" class="st14" d="M47.8,28.2L47.8,28.2c-1.9,1.1-1.3,3.2,1.1,3.8l0,0c1.1,0.3,2.3,0.1,3.2-0.4l0,0
						c1.9-1.1,1.3-3.2-1.1-3.8l0,0C49.9,27.5,48.6,27.7,47.8,28.2z"/>
					<path id="XMLID_360_" class="st15" d="M48.2,28.8L48.2,28.8c-1.5,0.9-1.1,2.6,0.9,3l0,0c0.9,0.2,1.9,0.1,2.6-0.3v0
						c1.5-0.9,1.1-2.6-0.9-3l0,0C49.9,28.2,48.9,28.3,48.2,28.8z"/>
					<path id="XMLID_16303_" class="st10" d="M48.2,28.8L48.2,28.8c-1.5,0.9-1.1,2.6,0.9,3l0,0c0.9,0.2,1.9,0.1,2.6-0.3v0"/>
				</g>
			</g>
		</g>
		<g id="XMLID_245_">
			<g id="XMLID_246_">
				<polygon id="XMLID_340_" class="st2" points="56.4,47.8 58,46.9 58,56.3 56.4,55.3 				"/>
				<polyline id="XMLID_16304_" class="st3" points="56.4,55.3 56.4,47.8 58,46.9 				"/>
				<polygon id="XMLID_338_" class="st16" points="51.9,57.9 56.4,55.3 58,56.3 51.9,59.7 				"/>
				<polygon id="XMLID_337_" class="st17" points="51.9,58.1 56.3,55.5 57.6,56.3 51.9,59.5 				"/>
				<polygon id="XMLID_336_" class="st18" points="56.4,47.8 56.4,55.3 51.9,57.9 51.9,50.4 				"/>
				<polyline id="XMLID_16305_" class="st19" points="51.9,50.4 56.4,47.8 56.4,55.3 				"/>
				<g id="XMLID_268_">
					<g id="XMLID_288_">
						<g id="XMLID_332_">
							<path id="XMLID_335_" class="st20" d="M57.3,56.3L57.3,56.3l-1.1-0.6l-0.1,0.1l0,0l0.2-0.1L57.3,56.3L57.3,56.3
								C57.3,56.3,57.3,56.3,57.3,56.3C57.3,56.3,57.3,56.3,57.3,56.3z"/>
							<path id="XMLID_334_" class="st21" d="M57.3,56.4L57.3,56.4C57.2,56.4,57.2,56.4,57.3,56.4C57.2,56.4,57.2,56.4,57.3,56.4
								l-1.1-0.6l0.1-0.1L57.3,56.4L57.3,56.4C57.3,56.3,57.3,56.3,57.3,56.4C57.3,56.4,57.3,56.4,57.3,56.4z"/>
						</g>
						<g id="XMLID_329_">
							<path id="XMLID_331_" class="st20" d="M57,56.5L57,56.5l-1.1-0.6L55.8,56l0,0l0.2-0.1L57,56.5L57,56.5
								C57,56.5,57,56.5,57,56.5C57,56.5,57,56.5,57,56.5z"/>
							<path id="XMLID_330_" class="st21" d="M57,56.6L57,56.6C56.9,56.6,56.9,56.6,57,56.6C56.9,56.6,56.9,56.6,57,56.6L55.8,56
								l0.1-0.1L57,56.6L57,56.6C57,56.5,57,56.5,57,56.6C57,56.5,57,56.6,57,56.6z"/>
						</g>
						<g id="XMLID_316_">
							<path id="XMLID_328_" class="st20" d="M56.7,56.7L56.7,56.7l-1.1-0.6l-0.1,0.1l0,0l0.2-0.1L56.7,56.7L56.7,56.7
								C56.7,56.6,56.7,56.7,56.7,56.7C56.7,56.7,56.7,56.7,56.7,56.7z"/>
							<path id="XMLID_327_" class="st21" d="M56.7,56.7L56.7,56.7C56.6,56.8,56.6,56.7,56.7,56.7C56.6,56.7,56.6,56.7,56.7,56.7
								l-1.1-0.6l0.1-0.1L56.7,56.7L56.7,56.7C56.7,56.7,56.7,56.7,56.7,56.7C56.7,56.7,56.7,56.7,56.7,56.7z"/>
						</g>
						<g id="XMLID_310_">
							<path id="XMLID_315_" class="st20" d="M56.4,56.8L56.4,56.8l-1.1-0.6l-0.1,0.1l0,0l0.2-0.1L56.4,56.8L56.4,56.8
								C56.4,56.8,56.4,56.9,56.4,56.8C56.4,56.9,56.4,56.9,56.4,56.8z"/>
							<path id="XMLID_314_" class="st21" d="M56.4,56.9L56.4,56.9C56.3,56.9,56.3,56.9,56.4,56.9C56.3,56.9,56.3,56.9,56.4,56.9
								l-1.1-0.6l0.1-0.1L56.4,56.9L56.4,56.9C56.4,56.9,56.4,56.9,56.4,56.9C56.4,56.9,56.4,56.9,56.4,56.9z"/>
						</g>
						<g id="XMLID_307_">
							<path id="XMLID_309_" class="st20" d="M56.1,57L56.1,57L55,56.4l-0.1,0.1l0,0l0.2-0.1L56.1,57L56.1,57
								C56.1,57,56.1,57,56.1,57C56.1,57,56.1,57,56.1,57z"/>
							<path id="XMLID_308_" class="st21" d="M56.1,57.1L56.1,57.1C56,57.1,56,57.1,56.1,57.1C56,57.1,56,57.1,56.1,57.1l-1.1-0.6
								l0.1-0.1L56.1,57.1L56.1,57.1C56.1,57,56.1,57,56.1,57.1C56.1,57.1,56.1,57.1,56.1,57.1z"/>
						</g>
						<g id="XMLID_304_">
							<path id="XMLID_306_" class="st20" d="M55.8,57.2L55.8,57.2l-1.1-0.6l-0.1,0.1l0,0l0.2-0.1L55.8,57.2L55.8,57.2
								C55.8,57.2,55.8,57.2,55.8,57.2C55.8,57.2,55.8,57.2,55.8,57.2z"/>
							<path id="XMLID_305_" class="st21" d="M55.8,57.3L55.8,57.3C55.7,57.3,55.7,57.3,55.8,57.3C55.7,57.2,55.7,57.2,55.8,57.3
								l-1.1-0.6l0.1-0.1L55.8,57.3L55.8,57.3C55.8,57.2,55.8,57.2,55.8,57.3C55.8,57.2,55.8,57.3,55.8,57.3z"/>
						</g>
						<g id="XMLID_301_">
							<path id="XMLID_303_" class="st20" d="M55.5,57.4L55.5,57.4l-1.1-0.6l-0.1,0.1l0,0l0.2-0.1L55.5,57.4L55.5,57.4
								C55.5,57.3,55.5,57.4,55.5,57.4C55.5,57.4,55.5,57.4,55.5,57.4z"/>
							<path id="XMLID_302_" class="st21" d="M55.5,57.4L55.5,57.4C55.4,57.4,55.4,57.4,55.5,57.4C55.4,57.4,55.4,57.4,55.5,57.4
								l-1.1-0.6l0.1-0.1L55.5,57.4L55.5,57.4C55.5,57.4,55.5,57.4,55.5,57.4C55.5,57.4,55.5,57.4,55.5,57.4z"/>
						</g>
						<g id="XMLID_298_">
							<path id="XMLID_300_" class="st20" d="M55.2,57.5L55.2,57.5l-1.1-0.6L54,57l0,0l0.2-0.1L55.2,57.5L55.2,57.5
								C55.2,57.5,55.2,57.5,55.2,57.5C55.2,57.6,55.2,57.5,55.2,57.5z"/>
							<path id="XMLID_299_" class="st21" d="M55.2,57.6L55.2,57.6C55.1,57.6,55.1,57.6,55.2,57.6C55.1,57.6,55.1,57.6,55.2,57.6
								L54,57l0.1-0.1L55.2,57.6L55.2,57.6C55.2,57.5,55.2,57.6,55.2,57.6C55.2,57.6,55.2,57.6,55.2,57.6z"/>
						</g>
						<g id="XMLID_295_">
							<path id="XMLID_297_" class="st20" d="M54.9,57.7L54.9,57.7l-1.1-0.6l-0.1,0.1l0,0l0.1-0.1L54.9,57.7L54.9,57.7
								C54.9,57.7,54.9,57.7,54.9,57.7C54.9,57.7,54.9,57.7,54.9,57.7z"/>
							<path id="XMLID_296_" class="st21" d="M54.9,57.8L54.9,57.8C54.8,57.8,54.8,57.8,54.9,57.8C54.8,57.8,54.8,57.8,54.9,57.8
								l-1.1-0.6l0.1-0.1L54.9,57.8L54.9,57.8C54.9,57.7,54.9,57.7,54.9,57.8C54.9,57.8,54.9,57.8,54.9,57.8z"/>
						</g>
						<g id="XMLID_292_">
							<path id="XMLID_294_" class="st20" d="M54.6,57.9L54.6,57.9l-1.1-0.6l-0.1,0.1l0,0l0.2-0.1L54.6,57.9L54.6,57.9
								C54.6,57.9,54.6,57.9,54.6,57.9C54.6,57.9,54.6,57.9,54.6,57.9z"/>
							<path id="XMLID_293_" class="st21" d="M54.6,58L54.6,58C54.5,58,54.5,58,54.6,58C54.5,57.9,54.5,57.9,54.6,58l-1.1-0.6
								l0.1-0.1L54.6,58L54.6,58C54.6,57.9,54.6,57.9,54.6,58C54.6,57.9,54.6,57.9,54.6,58z"/>
						</g>
						<g id="XMLID_289_">
							<path id="XMLID_291_" class="st20" d="M54.3,58.1L54.3,58.1l-1.1-0.6l-0.1,0.1l0,0l0.2-0.1L54.3,58.1L54.3,58.1
								C54.3,58,54.3,58.1,54.3,58.1C54.3,58.1,54.3,58.1,54.3,58.1z"/>
							<path id="XMLID_290_" class="st21" d="M54.3,58.1L54.3,58.1C54.2,58.1,54.2,58.1,54.3,58.1C54.2,58.1,54.2,58.1,54.3,58.1
								l-1.1-0.6l0.1-0.1L54.3,58.1L54.3,58.1C54.3,58.1,54.3,58.1,54.3,58.1C54.3,58.1,54.3,58.1,54.3,58.1z"/>
						</g>
					</g>
					<g id="XMLID_269_">
						<g id="XMLID_285_">
							<path id="XMLID_287_" class="st20" d="M54,58.2L54,58.2l-1.1-0.6l-0.1,0.1l0,0l0.2-0.1L54,58.2L54,58.2
								C54,58.2,54,58.2,54,58.2C54,58.3,54,58.2,54,58.2z"/>
							<path id="XMLID_286_" class="st21" d="M54,58.3L54,58.3C53.9,58.3,53.9,58.3,54,58.3C53.9,58.3,53.9,58.3,54,58.3l-1.1-0.6
								l0.1-0.1L54,58.3L54,58.3C54,58.2,54,58.3,54,58.3C54,58.3,54,58.3,54,58.3z"/>
						</g>
						<g id="XMLID_282_">
							<path id="XMLID_284_" class="st20" d="M53.7,58.4L53.7,58.4l-1.1-0.6l-0.1,0.1l0,0l0.2-0.1L53.7,58.4L53.7,58.4
								C53.7,58.4,53.7,58.4,53.7,58.4C53.7,58.4,53.7,58.4,53.7,58.4z"/>
							<path id="XMLID_283_" class="st21" d="M53.7,58.5L53.7,58.5C53.6,58.5,53.6,58.5,53.7,58.5C53.6,58.5,53.6,58.5,53.7,58.5
								l-1.1-0.6l0.1-0.1L53.7,58.5L53.7,58.5C53.7,58.4,53.7,58.4,53.7,58.5C53.7,58.5,53.7,58.5,53.7,58.5z"/>
						</g>
						<g id="XMLID_279_">
							<path id="XMLID_281_" class="st20" d="M53.4,58.6L53.4,58.6L52.3,58L52.2,58l0,0l0.2-0.1L53.4,58.6L53.4,58.6
								C53.4,58.6,53.4,58.6,53.4,58.6C53.4,58.6,53.4,58.6,53.4,58.6z"/>
							<path id="XMLID_280_" class="st21" d="M53.4,58.6L53.4,58.6C53.3,58.7,53.3,58.7,53.4,58.6C53.3,58.6,53.3,58.6,53.4,58.6
								L52.2,58l0.1-0.1L53.4,58.6L53.4,58.6C53.4,58.6,53.4,58.6,53.4,58.6C53.4,58.6,53.4,58.6,53.4,58.6z"/>
						</g>
						<g id="XMLID_270_">
							<path id="XMLID_278_" class="st20" d="M53.1,58.8L53.1,58.8L52,58.1l-0.1,0.1v0l0.1-0.1L53.1,58.8L53.1,58.8
								C53.1,58.7,53.1,58.8,53.1,58.8C53.1,58.8,53.1,58.8,53.1,58.8z"/>
							<path id="XMLID_277_" class="st21" d="M52,58.1l1.1,0.6l0,0c0,0,0,0,0,0c0,0,0,0-0.1,0c0,0-0.1,0-0.1,0c0,0,0,0,0,0L52,58.1
								L52,58.1L52,58.1z"/>
							<path id="XMLID_276_" class="st20" d="M52.8,58.9L52.8,58.9l-0.9-0.5v0L52.8,58.9L52.8,58.9C52.8,58.9,52.8,58.9,52.8,58.9
								C52.8,58.9,52.8,58.9,52.8,58.9z"/>
							<path id="XMLID_275_" class="st21" d="M52.8,58.9L52.8,58.9C52.8,58.9,52.8,58.9,52.8,58.9C52.8,59,52.8,59,52.8,58.9
								C52.7,59,52.7,59,52.7,59c0,0,0,0,0,0l-0.7-0.4v-0.1L52.8,58.9z"/>
							<path id="XMLID_274_" class="st20" d="M52.5,59.1L52.5,59.1l-0.6-0.3v0L52.5,59.1L52.5,59.1C52.5,59.1,52.5,59.1,52.5,59.1
								C52.5,59.1,52.5,59.1,52.5,59.1z"/>
							<path id="XMLID_273_" class="st21" d="M52.5,59.1L52.5,59.1C52.5,59.1,52.5,59.1,52.5,59.1C52.5,59.1,52.5,59.2,52.5,59.1
								c-0.1,0.1-0.1,0.1-0.1,0.1c0,0,0,0,0,0l-0.4-0.2v-0.1L52.5,59.1z"/>
							<path id="XMLID_272_" class="st20" d="M52.2,59.3L52.2,59.3l-0.3-0.1v0L52.2,59.3L52.2,59.3C52.2,59.2,52.2,59.3,52.2,59.3
								C52.2,59.3,52.2,59.3,52.2,59.3z"/>
							<path id="XMLID_271_" class="st21" d="M52.2,59.3L52.2,59.3C52.2,59.3,52.2,59.3,52.2,59.3C52.2,59.3,52.2,59.3,52.2,59.3
								c-0.1,0.1-0.1,0.1-0.1,0.1c0,0,0,0,0,0l-0.1-0.1v-0.1L52.2,59.3z"/>
						</g>
					</g>
				</g>
				<g id="XMLID_247_">
					<g id="XMLID_258_">
						<g id="XMLID_266_">
							<path id="XMLID_267_" class="st5" d="M54.3,50.8c-0.1,0-0.1-0.1-0.1-0.2l0,0c0-0.1,0.1-0.3,0.1-0.4l0,0
								c0.1-0.1,0.2-0.2,0.3-0.1c0.1,0,1.3,0.8,1.4,0.8c0.1,0,0.1,0.1,0.1,0.2l0,0c0,0.1-0.1,0.3-0.1,0.4l0,0
								c-0.1,0.1-0.2,0.1-0.3,0.1C55.6,51.6,54.3,50.9,54.3,50.8z"/>
						</g>
						<path class="st4" d="M54.7,50.2c0.1,0,1.3,0.8,1.4,0.8c0,0,0,0,0.1,0.1c0,0.1-0.1,0.1-0.1,0.1c-0.1,0.1-0.2,0.1-0.3,0.1
							c-0.1,0-1.4-0.8-1.4-0.8c0,0,0,0-0.1,0c0-0.1,0.1-0.1,0.1-0.1C54.4,50.2,54.6,50.1,54.7,50.2z"/>
						<g id="XMLID_264_">
							<path id="XMLID_265_" class="st5" d="M55.9,51.4c0-0.1,0-0.1,0.1-0.1l0,0c0.1,0,0.2-0.1,0.3,0h0c0.1,0,0.2,0.1,0.2,0.2
								c0,0.1,0,0.7,0,0.7c0,0.1,0,0.1-0.1,0.1l0,0c-0.1,0-0.2,0.1-0.3,0l0,0c-0.1,0-0.2-0.1-0.2-0.2C55.9,52,55.9,51.4,55.9,51.4z"
								/>
						</g>
						<g id="XMLID_262_">
							<path id="XMLID_263_" class="st22" d="M55.6,50.2c0-0.1,0.1-0.2,0.2-0.3l0,0c0.2-0.1,0.4-0.1,0.6-0.1l0,0
								c0.2,0.1,0.4,0.2,0.4,0.4c0,0.1,0,1.3,0,1.5c0,0.1-0.1,0.2-0.2,0.3l0,0c-0.2,0.1-0.4,0.1-0.6,0.1l0,0
								c-0.2-0.1-0.4-0.2-0.4-0.3C55.6,51.6,55.6,50.3,55.6,50.2z"/>
						</g>
						<g id="XMLID_259_">
							<path id="XMLID_261_" class="st23" d="M55.5,50c0,0,0-0.1,0.1-0.1l0.3-0.2c0.1-0.1,0.2-0.1,0.3,0l0.9,0.4
								c0,0,0.1,0.1,0.1,0.1c0,0,0,0.2,0,0.2c0,0,0,0.1-0.1,0.1l-0.5,0.3c-0.1,0.1-0.2,0.1-0.3,0l-0.7-0.5c0,0-0.1-0.1-0.1-0.1
								C55.5,50.1,55.5,50,55.5,50z"/>
							<path id="XMLID_260_" class="st24" d="M55.9,49.7l-0.3,0.2c-0.1,0.1-0.1,0.2,0,0.2l0.7,0.5c0.1,0.1,0.2,0.1,0.3,0l0.5-0.3
								c0.1-0.1,0.1-0.2,0-0.2l-0.9-0.4C56.1,49.6,56,49.6,55.9,49.7z"/>
						</g>
					</g>
					<g id="XMLID_248_">
						<g id="XMLID_256_">
							<path id="XMLID_257_" class="st5" d="M52.1,52.1C52.1,52,52,52,52,51.9l0,0c0-0.1,0.1-0.3,0.1-0.4h0c0.1-0.1,0.2-0.2,0.3-0.1
								c0.1,0,1.3,0.8,1.4,0.8c0.1,0,0.1,0.1,0.1,0.2l0,0c0,0.1-0.1,0.3-0.1,0.4l0,0c-0.1,0.1-0.2,0.1-0.3,0.1
								C53.5,52.9,52.2,52.1,52.1,52.1z"/>
						</g>
						<path class="st4" d="M52.5,51.4c0.1,0,1.3,0.8,1.4,0.8c0,0,0,0,0.1,0.1c0,0.1-0.1,0.1-0.1,0.1c-0.1,0.1-0.2,0.1-0.3,0.1
							c-0.1,0-1.4-0.8-1.4-0.8c0,0,0,0-0.1,0c0-0.1,0.1-0.1,0.1-0.1h0C52.3,51.4,52.4,51.4,52.5,51.4z"/>
						<g id="XMLID_254_">
							<path id="XMLID_255_" class="st25" d="M53.7,52.6c0-0.1,0-0.1,0.1-0.1l0,0c0.1,0,0.2-0.1,0.3,0l0,0c0.1,0,0.2,0.1,0.2,0.2
								c0,0.1,0,0.7,0,0.7c0,0.1,0,0.1-0.1,0.1l0,0c-0.1,0-0.2,0.1-0.3,0l0,0c-0.1,0-0.2-0.1-0.2-0.2C53.7,53.3,53.7,52.6,53.7,52.6
								z"/>
						</g>
						<g id="XMLID_252_">
							<path id="XMLID_253_" class="st22" d="M53.4,51.5c0-0.1,0.1-0.2,0.2-0.3l0,0c0.2-0.1,0.4-0.1,0.6-0.1l0,0
								c0.2,0.1,0.4,0.2,0.4,0.4c0,0.1,0,1.3,0,1.5c0,0.1-0.1,0.2-0.2,0.3l0,0c-0.2,0.1-0.4,0.1-0.6,0.1l0,0
								c-0.2-0.1-0.4-0.2-0.4-0.3C53.4,52.8,53.4,51.6,53.4,51.5z"/>
						</g>
						<g id="XMLID_249_">
							<path id="XMLID_251_" class="st26" d="M53.3,51.2c0,0,0-0.1,0.1-0.1l0.3-0.2c0.1-0.1,0.2-0.1,0.3,0l0.9,0.4
								c0,0,0.1,0.1,0.1,0.1c0,0,0,0.2,0,0.2c0,0,0,0.1-0.1,0.1L54.4,52c-0.1,0.1-0.2,0.1-0.3,0l-0.7-0.5c0,0-0.1-0.1-0.1-0.1
								C53.3,51.3,53.3,51.3,53.3,51.2z"/>
							<path id="XMLID_250_" class="st27" d="M53.7,50.9l-0.3,0.2c-0.1,0.1-0.1,0.2,0,0.2l0.7,0.5c0.1,0.1,0.2,0.1,0.3,0l0.5-0.3
								c0.1-0.1,0.1-0.2,0-0.2l-0.9-0.4C54,50.8,53.8,50.8,53.7,50.9z"/>
						</g>
					</g>
				</g>
			</g>
		</g>
		<g id="XMLID_236_">
			<polygon id="XMLID_244_" class="st18" points="58,58.5 58,66.8 51.9,70.3 51.9,62 			"/>
			<g id="XMLID_237_">
				<polygon id="XMLID_243_" class="st22" points="57.7,58.9 57.7,66.6 52.2,69.8 52.2,62.1 				"/>
				<polyline id="XMLID_16302_" class="st1" points="52.2,69.8 52.2,62.1 57.7,58.9 				"/>
				<polygon id="XMLID_242_" class="st18" points="57.8,59.6 57.8,66.1 57.6,66.2 57.6,59.7 				"/>
				<g id="XMLID_238_">
					<polygon id="XMLID_241_" class="st17" points="52.5,65.9 52.5,65.5 52.8,65.7 52.8,66.1 52.8,66.1 					"/>
					<polygon id="XMLID_240_" class="st18" points="54.1,64.9 54.1,65.4 52.8,66.1 52.8,65.7 					"/>
					<polygon id="XMLID_239_" class="st28" points="53.1,65.1 53.1,65.1 53.3,65.2 53.9,64.8 53.9,64.8 54.1,64.9 52.8,65.7 
						52.5,65.5 					"/>
				</g>
			</g>
		</g>
	</g>
	<g id="XMLID_16315_">
		<g id="XMLID_16329_">
			<path id="XMLID_16333_" class="st29" d="M52.9,55.2c0-0.2,0.2-0.5,0.4-0.6l0,0c0.3-0.2,0.8-0.3,1.2-0.2l0,0
				c0.5,0.1,0.8,0.5,0.8,0.8c0,0.2-0.5,1.9-0.5,2.1c0,0.2-0.1,0.3-0.3,0.4l0,0c-0.2,0.1-0.5,0.2-0.8,0.1l0,0
				c-0.3-0.1-0.5-0.3-0.5-0.5C53.3,57.1,52.9,55.4,52.9,55.2z"/>
			<path class="st30" d="M53.3,57.3c0-0.2-0.5-1.9-0.5-2.1c0-0.1,0.1-0.3,0.2-0.4c0.3-0.1,0.7-0.2,1.1-0.1c0.5,0.1,0.8,0.5,0.8,0.8
				c0,0.2-0.5,1.9-0.5,2.1c0,0.1,0,0.1-0.1,0.2c-0.2,0.1-0.4,0.1-0.6,0C53.5,57.7,53.3,57.5,53.3,57.3z"/>
			<path id="XMLID_16332_" class="st5" d="M53.3,54.6L53.3,54.6c-0.7,0.4-0.5,1.2,0.4,1.5l0,0c0.4,0.1,0.9,0,1.2-0.2l0,0
				c0.7-0.4,0.5-1.2-0.4-1.5l0,0C54.1,54.3,53.6,54.4,53.3,54.6z"/>
			<path id="XMLID_16331_" class="st5" d="M53.3,54.5L53.3,54.5c-0.8,0.5-0.5,1.3,0.4,1.5l0,0c0.4,0.1,0.9,0,1.3-0.2l0,0
				c0.8-0.5,0.5-1.3-0.4-1.5l0,0C54.1,54.2,53.6,54.3,53.3,54.5z"/>
			<path id="XMLID_16330_" class="st5" d="M53.3,54.4L53.3,54.4c-0.7,0.4-0.5,1.2,0.4,1.5l0,0c0.4,0.1,0.9,0,1.2-0.2l0,0
				c0.7-0.4,0.5-1.2-0.4-1.5l0,0C54.1,54.2,53.6,54.2,53.3,54.4z"/>
		</g>
		<path id="XMLID_16328_" class="st31" d="M53.4,54.5L53.4,54.5c-0.7,0.4-0.5,1.2,0.4,1.4l0,0c0.4,0.1,0.8,0,1.2-0.2l0,0
			c0.7-0.4,0.5-1.2-0.4-1.4l0,0C54.1,54.3,53.7,54.3,53.4,54.5z"/>
		<g id="XMLID_16323_">
			<path id="XMLID_16327_" class="st32" d="M54.5,54.8L54.5,54.8c-0.4-0.1-0.8,0-1.2,0.2l0,0c-0.2,0.1-0.3,0.3-0.4,0.4
				c-0.1-0.3,0-0.6,0.4-0.8l0,0c0.3-0.2,0.8-0.2,1.2-0.2l0,0c0.6,0.1,0.9,0.6,0.8,1C55.2,55.1,54.9,54.9,54.5,54.8z"/>
			<path class="st33" d="M53.4,54.8c0.3-0.2,0.8-0.2,1.2-0.2c0.5,0.1,0.7,0.4,0.8,0.7c0,0,0,0.1,0,0.1c-0.1-0.2-0.4-0.5-0.8-0.6
				c-0.4-0.1-0.8,0-1.2,0.2c-0.2,0.1-0.3,0.3-0.4,0.4c0,0,0-0.1,0-0.1C53,55.1,53.1,54.9,53.4,54.8z"/>
			<path id="XMLID_16326_" class="st34" d="M54.9,55.7L54.9,55.7c-0.3,0.2-0.8,0.2-1.2,0.2l0,0c-0.4-0.1-0.7-0.3-0.8-0.6
				c0.1-0.1,0.2-0.3,0.4-0.4l0,0c0.3-0.2,0.8-0.2,1.2-0.2l0,0c0.4,0.1,0.7,0.3,0.8,0.6C55.2,55.5,55.1,55.6,54.9,55.7z"/>
			<path id="XMLID_16325_" class="st35" d="M54.5,54.8"/>
			<path id="XMLID_16324_" class="st35" d="M54.9,55.7L54.9,55.7c-0.3,0.2-0.8,0.2-1.2,0.2l0,0c-0.4-0.1-0.7-0.3-0.8-0.6
				c0.1-0.1,0.2-0.3,0.4-0.4l0,0"/>
		</g>
		<path id="XMLID_16322_" class="st36" d="M54.6,55.2L54.6,55.2c-0.1,0.1-0.1,0.2,0.1,0.2l0,0c0.1,0,0.1,0,0.2,0l0,0
			c0.1-0.1,0.1-0.2-0.1-0.2l0,0C54.7,55.2,54.7,55.2,54.6,55.2z"/>
		<path id="XMLID_16321_" class="st34" d="M54.6,55.2L54.6,55.2c-0.1,0,0,0.1,0,0.1l0,0c0,0,0.1,0,0.1,0l0,0c0.1,0,0-0.1,0-0.1l0,0
			C54.7,55.2,54.7,55.2,54.6,55.2z"/>
		<path id="XMLID_16320_" class="st36" d="M53.9,55.6L53.9,55.6C53.9,55.7,53.9,55.7,53.9,55.6L53.9,55.6c0.1,0.1,0.1,0.1,0.1,0.1
			l0,0C54.1,55.7,54.1,55.6,53.9,55.6L53.9,55.6C54,55.6,53.9,55.6,53.9,55.6z"/>
		<path id="XMLID_16319_" class="st34" d="M53.9,55.6L53.9,55.6C53.9,55.7,53.9,55.7,53.9,55.6L53.9,55.6C54,55.7,54,55.7,53.9,55.6
			L53.9,55.6C54,55.7,54,55.6,53.9,55.6L53.9,55.6C54,55.6,54,55.6,53.9,55.6z"/>
		<path id="XMLID_16318_" class="st36" d="M53.5,55.1L53.5,55.1c-0.1,0,0,0.1,0,0.1l0,0c0,0,0.1,0,0.1,0l0,0c0.1,0,0-0.1,0-0.1l0,0
			C53.6,55.1,53.5,55.1,53.5,55.1z"/>
		<path id="XMLID_16317_" class="st34" d="M53.5,55.1L53.5,55.1C53.5,55.1,53.5,55.2,53.5,55.1L53.5,55.1c0.1,0.1,0.1,0.1,0.1,0.1
			l0,0C53.7,55.1,53.7,55.1,53.5,55.1L53.5,55.1C53.6,55.1,53.6,55.1,53.5,55.1z"/>
	</g>
</g>
</svg>
