<?xml version="1.0" encoding="utf-8"?>
<!-- Generator: Adobe Illustrator 21.0.0, SVG Export Plug-In . SVG Version: 6.00 Build 0)  -->
<svg version="1.1" id="Layer_1" xmlns="http://www.w3.org/2000/svg" xmlns:xlink="http://www.w3.org/1999/xlink" x="0px" y="0px"
	 viewBox="0 0 80 80" style="enable-background:new 0 0 80 80;" xml:space="preserve">
<style type="text/css">
	.st0{fill:#454441;}
	.st1{fill:#3A3A38;}
	.st2{fill:#615E5C;}
	.st3{fill:#5A5957;}
	.st4{fill:#302E2D;}
	.st5{fill:#454341;}
	.st6{fill:#4D4C4B;}
	.st7{fill:#424140;}
	.st8{fill:#1A1819;}
	.st9{fill:#333132;}
	.st10{fill:#555451;}
	.st11{fill:#484547;}
</style>
<g>
	<g id="XMLID_2370_">
		<g id="XMLID_2371_">
			<polygon id="XMLID_2373_" class="st0" points="19.3,38.3 26.7,42.6 26.7,61.4 19.3,57.1 			"/>
			<polyline id="XMLID_2737_" class="st1" points="19.3,38.3 26.7,42.6 26.7,61.4 			"/>
			<polygon id="XMLID_2372_" class="st2" points="60.7,22.9 53.3,18.6 19.3,38.3 26.7,42.6 			"/>
			<polyline id="XMLID_2755_" class="st3" points="19.3,38.3 26.7,42.6 60.7,22.9 			"/>
		</g>
	</g>
	<path id="XMLID_2366_" class="st4" d="M26.7,42.6v18.8l0.5-0.3l0,0l33.5-19.4V22.9L26.7,42.6z M27.9,43.2l15.2-8.8v16.2l-15.2,8.8
		V43.2z M59.4,41.2l-15.2,8.8V33.8L59.4,25V41.2z"/>
	<g id="XMLID_2364_">
		<polygon id="XMLID_2365_" class="st5" points="43.1,34.4 27.9,43.2 27.9,59.4 43.1,50.6 		"/>
	</g>
	<g id="XMLID_2362_">
		<polygon id="XMLID_2363_" class="st6" points="43.1,45.7 27.9,54.5 27.9,59.4 43.1,50.6 		"/>
	</g>
	<g id="XMLID_2758_">
		<polyline id="XMLID_2761_" class="st7" points="43.1,45.7 27.9,54.5 27.9,59.4 		"/>
	</g>
	<g id="XMLID_2360_">
		<polygon id="XMLID_2361_" class="st6" points="43.1,40.1 27.9,48.9 27.9,53.7 43.1,45 		"/>
	</g>
	<g id="XMLID_2756_">
		<polyline id="XMLID_2759_" class="st7" points="43.1,40.1 27.9,48.9 27.9,53.7 		"/>
	</g>
	<g id="XMLID_2358_">
		<polygon id="XMLID_2359_" class="st6" points="43.1,34.4 27.9,43.2 27.9,48.1 43.1,39.3 		"/>
	</g>
	<g id="XMLID_355_">
		<polyline id="XMLID_2757_" class="st7" points="43.1,34.4 27.9,43.2 27.9,48.1 		"/>
	</g>
	<g id="XMLID_2356_">
		<polygon id="XMLID_2357_" class="st5" points="59.4,25 44.3,33.8 44.3,49.9 59.4,41.2 		"/>
	</g>
	<g id="XMLID_2354_">
		<polygon id="XMLID_2355_" class="st6" points="59.4,36.3 44.3,45 44.3,49.9 59.4,41.2 		"/>
	</g>
	<g id="XMLID_2352_">
		<polygon id="XMLID_2353_" class="st6" points="59.4,30.6 44.3,39.4 44.3,44.3 59.4,35.5 		"/>
	</g>
	<g id="XMLID_2350_">
		<polygon id="XMLID_2351_" class="st6" points="59.4,25 44.3,33.8 44.3,38.6 59.4,29.9 		"/>
	</g>
	<g id="XMLID_2765_">
		<polyline id="XMLID_2764_" class="st7" points="59.4,36.3 44.3,45 44.3,49.9 		"/>
	</g>
	<g id="XMLID_2763_">
		<polyline id="XMLID_2762_" class="st7" points="59.4,30.6 44.3,39.4 44.3,44.3 		"/>
	</g>
	<g id="XMLID_2760_">
		<polyline id="XMLID_2767_" class="st7" points="59.4,25 44.3,33.8 44.3,38.6 		"/>
	</g>
	<g id="XMLID_2339_">
		<g id="XMLID_2345_">
			<polygon id="XMLID_2349_" class="st8" points="28.2,43.9 28.4,44 28.4,44.1 28.2,44 			"/>
			<g id="XMLID_2346_">
				<polygon id="XMLID_2348_" class="st9" points="28.4,44 28.4,44.1 43.5,35.4 43.5,35.2 				"/>
				<polygon id="XMLID_2347_" class="st3" points="43.5,35.2 43.4,35.1 28.2,43.9 28.4,44 				"/>
			</g>
		</g>
		<g id="XMLID_2340_">
			<polygon id="XMLID_2344_" class="st10" points="27.9,43.2 28.4,43.5 28.4,44 27.9,43.7 			"/>
			<g id="XMLID_2341_">
				<polygon id="XMLID_2343_" class="st11" points="28.4,43.5 28.4,44 43.5,35.2 43.5,34.7 				"/>
				<polygon id="XMLID_2342_" class="st3" points="43.5,34.7 43.1,34.4 27.9,43.2 28.4,43.5 				"/>
			</g>
		</g>
	</g>
	<g id="XMLID_2328_">
		<g id="XMLID_2334_">
			<polygon id="XMLID_2338_" class="st8" points="28.2,49.5 28.4,49.6 28.4,49.8 28.2,49.7 			"/>
			<g id="XMLID_2335_">
				<polygon id="XMLID_2337_" class="st9" points="28.4,49.6 28.4,49.8 43.5,41 43.5,40.8 				"/>
				<polygon id="XMLID_2336_" class="st3" points="43.5,40.8 43.4,40.7 28.2,49.5 28.4,49.6 				"/>
			</g>
		</g>
		<g id="XMLID_2329_">
			<polygon id="XMLID_2333_" class="st10" points="27.9,48.9 28.4,49.1 28.4,49.6 27.9,49.3 			"/>
			<g id="XMLID_2330_">
				<polygon id="XMLID_2332_" class="st11" points="28.4,49.1 28.4,49.6 43.5,40.8 43.5,40.3 				"/>
				<polygon id="XMLID_2331_" class="st3" points="43.5,40.3 43.1,40.1 27.9,48.9 28.4,49.1 				"/>
			</g>
		</g>
	</g>
	<g id="XMLID_2317_">
		<g id="XMLID_2323_">
			<polygon id="XMLID_2327_" class="st8" points="28.2,55.1 28.4,55.2 28.4,55.4 28.2,55.3 			"/>
			<g id="XMLID_2324_">
				<polygon id="XMLID_2326_" class="st9" points="28.4,55.2 28.4,55.4 43.5,46.7 43.5,46.5 				"/>
				<polygon id="XMLID_2325_" class="st3" points="43.5,46.5 43.4,46.4 28.2,55.1 28.4,55.2 				"/>
			</g>
		</g>
		<g id="XMLID_2318_">
			<polygon id="XMLID_2322_" class="st10" points="27.9,54.5 28.4,54.8 28.4,55.2 27.9,55 			"/>
			<g id="XMLID_2319_">
				<polygon id="XMLID_2321_" class="st11" points="28.4,54.8 28.4,55.2 43.5,46.5 43.5,46 				"/>
				<polygon id="XMLID_2320_" class="st3" points="43.5,46 43.1,45.7 27.9,54.5 28.4,54.8 				"/>
			</g>
		</g>
	</g>
	<g id="XMLID_2306_">
		<g id="XMLID_2312_">
			<polygon id="XMLID_2316_" class="st8" points="44.5,34.4 44.7,34.5 44.7,34.7 44.5,34.6 			"/>
			<g id="XMLID_2313_">
				<polygon id="XMLID_2315_" class="st9" points="44.7,34.5 44.7,34.7 59.9,25.9 59.9,25.7 				"/>
				<polygon id="XMLID_2314_" class="st3" points="59.9,25.7 59.7,25.6 44.5,34.4 44.7,34.5 				"/>
			</g>
		</g>
		<g id="XMLID_2307_">
			<polygon id="XMLID_2311_" class="st10" points="44.3,33.8 44.7,34 44.7,34.5 44.3,34.2 			"/>
			<g id="XMLID_2308_">
				<polygon id="XMLID_2310_" class="st11" points="44.7,34 44.7,34.5 59.9,25.7 59.9,25.2 				"/>
				<polygon id="XMLID_2309_" class="st3" points="59.9,25.2 59.4,25 44.3,33.8 44.7,34 				"/>
			</g>
		</g>
	</g>
	<g id="XMLID_2295_">
		<g id="XMLID_2301_">
			<polygon id="XMLID_2305_" class="st8" points="44.5,40 44.7,40.1 44.7,40.3 44.5,40.2 			"/>
			<g id="XMLID_2302_">
				<polygon id="XMLID_2304_" class="st9" points="44.7,40.1 44.7,40.3 59.9,31.6 59.9,31.4 				"/>
				<polygon id="XMLID_2303_" class="st3" points="59.9,31.4 59.7,31.3 44.5,40 44.7,40.1 				"/>
			</g>
		</g>
		<g id="XMLID_2296_">
			<polygon id="XMLID_2300_" class="st10" points="44.3,39.4 44.7,39.7 44.7,40.1 44.3,39.9 			"/>
			<g id="XMLID_2297_">
				<polygon id="XMLID_2299_" class="st11" points="44.7,39.7 44.7,40.1 59.9,31.4 59.9,30.9 				"/>
				<polygon id="XMLID_2298_" class="st3" points="59.9,30.9 59.4,30.6 44.3,39.4 44.7,39.7 				"/>
			</g>
		</g>
	</g>
	<g id="XMLID_2284_">
		<g id="XMLID_2290_">
			<polygon id="XMLID_2294_" class="st8" points="44.5,45.7 44.7,45.8 44.7,46 44.5,45.9 			"/>
			<g id="XMLID_2291_">
				<polygon id="XMLID_2293_" class="st9" points="44.7,45.8 44.7,46 59.9,37.2 59.9,37 				"/>
				<polygon id="XMLID_2292_" class="st3" points="59.9,37 59.7,36.9 44.5,45.7 44.7,45.8 				"/>
			</g>
		</g>
		<g id="XMLID_2285_">
			<polygon id="XMLID_2289_" class="st10" points="44.3,45 44.7,45.3 44.7,45.8 44.3,45.5 			"/>
			<g id="XMLID_2286_">
				<polygon id="XMLID_2288_" class="st11" points="44.7,45.3 44.7,45.8 59.9,37 59.9,36.5 				"/>
				<polygon id="XMLID_2287_" class="st3" points="59.9,36.5 59.4,36.3 44.3,45 44.7,45.3 				"/>
			</g>
		</g>
	</g>
</g>
</svg>
