<?xml version="1.0" encoding="utf-8"?>
<!-- Generator: Adobe Illustrator 21.0.0, SVG Export Plug-In . SVG Version: 6.00 Build 0)  -->
<svg version="1.1" id="Layer_1" xmlns="http://www.w3.org/2000/svg" xmlns:xlink="http://www.w3.org/1999/xlink" x="0px" y="0px"
	 viewBox="0 0 80 80" style="enable-background:new 0 0 80 80;" xml:space="preserve">
<style type="text/css">
	.st0{fill:#454441;}
	.st1{fill:#3A3A38;}
	.st2{fill:#615E5C;}
	.st3{fill:#5A5957;}
	.st4{fill:#302E2D;}
	.st5{fill:#454341;}
</style>
<g id="XMLID_2371_">
	<polygon id="XMLID_2373_" class="st0" points="19.3,38.3 26.7,42.6 26.7,61.4 19.3,57.1 	"/>
	<polyline id="XMLID_2737_" class="st1" points="19.3,38.3 26.7,42.6 26.7,61.4 	"/>
	<polygon id="XMLID_2372_" class="st2" points="60.7,22.9 53.3,18.6 19.3,38.3 26.7,42.6 	"/>
	<polyline id="XMLID_2755_" class="st3" points="19.3,38.3 26.7,42.6 60.7,22.9 	"/>
</g>
<path id="XMLID_2366_" class="st4" d="M26.7,42.6v18.8l0.5-0.3l0,0l33.5-19.4V22.9L26.7,42.6z M27.9,43.2l15.2-8.8v16.2l-15.2,8.8
	V43.2z M59.4,41.2l-15.2,8.8V33.8L59.4,25V41.2z"/>
<polygon id="XMLID_2365_" class="st5" points="43.1,34.4 27.9,43.2 27.9,59.4 43.1,50.6 "/>
<polygon id="XMLID_2355_" class="st5" points="59.4,25 44.3,33.8 44.3,49.9 59.4,41.2 "/>
</svg>
