<?xml version="1.0" encoding="utf-8"?>
<!-- Generator: Adobe Illustrator 21.0.0, SVG Export Plug-In . SVG Version: 6.00 Build 0)  -->
<svg version="1.1" id="Layer_1" xmlns="http://www.w3.org/2000/svg" xmlns:xlink="http://www.w3.org/1999/xlink" x="0px" y="0px"
	 viewBox="0 0 80 80" style="enable-background:new 0 0 80 80;" xml:space="preserve">
<style type="text/css">
	.st0{fill:#232326;}
	.st1{fill:#1A1A1C;}
	.st2{fill:#5A5A5A;}
	.st3{fill:#4D4D4D;}
	.st4{fill:#313133;}
	.st5{fill:#2B2B2D;}
	.st6{fill:#3A3A3A;}
	.st7{fill:#CECDCC;}
	.st8{fill:#353535;}
	.st9{fill:#404141;}
	.st10{fill:#484849;}
	.st11{fill:#5E5F5E;}
	.st12{fill:#5A5A5B;}
	.st13{fill:#656868;}
	.st14{fill:none;}
	.st15{fill:#575858;}
	.st16{fill:#606162;}
	.st17{fill:#444344;}
	.st18{fill:#444445;}
</style>
<g id="XMLID_42337_">
	<g id="XMLID_42338_">
		<g id="XMLID_42660_">
			<polygon id="XMLID_42663_" class="st0" points="48.1,37.1 48.1,44.3 41.3,48.3 41.3,41 			"/>
			<polyline id="XMLID_46170_" class="st1" points="41.3,48.3 41.3,41 48.1,37.1 			"/>
			<polygon id="XMLID_42662_" class="st2" points="48.1,37.1 38.8,31.8 32,35.7 41.3,41 			"/>
			<polyline id="XMLID_46172_" class="st3" points="32,35.7 41.3,41 48.1,37.1 			"/>
			<polygon id="XMLID_42661_" class="st4" points="32,35.7 41.3,41 41.3,48.3 32,42.9 			"/>
			<polyline id="XMLID_46171_" class="st5" points="32,35.7 41.3,41 41.3,48.3 			"/>
		</g>
		<polygon id="XMLID_42659_" class="st6" points="32.6,36.8 32.6,42.6 38.9,46.2 38.9,40.5 		"/>
		<polygon id="XMLID_42658_" class="st7" points="32.9,37.5 32.9,42.4 38.5,45.7 38.5,40.7 		"/>
		<g id="XMLID_42639_">
			<g id="XMLID_42647_">
				<g id="XMLID_42648_">
					<path id="XMLID_42657_" class="st8" d="M40.1,41.3L40.1,41.3C40,41.3,40,41.3,40.1,41.3L40.1,41.3
						C40.1,41.4,40.1,41.4,40.1,41.3L40.1,41.3C40.1,41.4,40.1,41.4,40.1,41.3L40.1,41.3C40.1,41.3,40.1,41.3,40.1,41.3z"/>
					<path id="XMLID_42656_" class="st8" d="M40.4,41.5L40.4,41.5C40.3,41.5,40.3,41.5,40.4,41.5L40.4,41.5
						C40.3,41.5,40.4,41.6,40.4,41.5L40.4,41.5C40.4,41.6,40.4,41.5,40.4,41.5L40.4,41.5C40.4,41.5,40.4,41.5,40.4,41.5z"/>
					<path id="XMLID_42655_" class="st8" d="M40.6,41.7L40.6,41.7C40.5,41.7,40.5,41.8,40.6,41.7L40.6,41.7
						C40.6,41.8,40.6,41.8,40.6,41.7L40.6,41.7C40.6,41.8,40.6,41.8,40.6,41.7L40.6,41.7C40.6,41.7,40.6,41.7,40.6,41.7z"/>
					<path id="XMLID_42654_" class="st8" d="M40.7,42L40.7,42C40.7,42,40.7,42,40.7,42L40.7,42C40.7,42.1,40.7,42.1,40.7,42L40.7,42
						C40.7,42.1,40.7,42.1,40.7,42L40.7,42C40.7,42,40.7,42,40.7,42z"/>
					<path id="XMLID_42653_" class="st8" d="M40.7,42.3L40.7,42.3C40.7,42.3,40.7,42.4,40.7,42.3L40.7,42.3
						C40.7,42.4,40.7,42.4,40.7,42.3L40.7,42.3C40.8,42.4,40.8,42.4,40.7,42.3L40.7,42.3C40.8,42.3,40.7,42.3,40.7,42.3z"/>
					<path id="XMLID_42652_" class="st8" d="M39.7,41.3L39.7,41.3C39.7,41.3,39.7,41.3,39.7,41.3L39.7,41.3
						C39.7,41.3,39.7,41.4,39.7,41.3L39.7,41.3C39.8,41.4,39.8,41.3,39.7,41.3L39.7,41.3C39.8,41.3,39.7,41.3,39.7,41.3z"/>
					<path id="XMLID_42651_" class="st8" d="M39.4,41.4L39.4,41.4C39.4,41.4,39.4,41.4,39.4,41.4L39.4,41.4
						C39.4,41.5,39.4,41.5,39.4,41.4L39.4,41.4C39.5,41.5,39.5,41.5,39.4,41.4L39.4,41.4C39.5,41.4,39.4,41.4,39.4,41.4z"/>
					<path id="XMLID_42650_" class="st8" d="M39.3,41.7L39.3,41.7C39.2,41.7,39.2,41.7,39.3,41.7L39.3,41.7
						C39.3,41.8,39.3,41.8,39.3,41.7L39.3,41.7C39.3,41.8,39.3,41.7,39.3,41.7L39.3,41.7C39.3,41.7,39.3,41.7,39.3,41.7z"/>
					<path id="XMLID_42649_" class="st8" d="M39.3,42L39.3,42C39.2,42,39.2,42,39.3,42L39.3,42C39.3,42.1,39.3,42.1,39.3,42L39.3,42
						C39.3,42.1,39.3,42.1,39.3,42L39.3,42C39.3,42,39.3,42,39.3,42z"/>
				</g>
			</g>
			<path id="XMLID_42646_" class="st8" d="M39.9,41.4L39.9,41.4c-0.5,0-0.6,0.5-0.3,1l0,0c0.2,0.2,0.4,0.4,0.6,0.4l0,0
				c0.5,0,0.6-0.5,0.3-1l0,0C40.3,41.6,40.1,41.4,39.9,41.4z"/>
			<path id="XMLID_42645_" class="st9" d="M40.5,42c0-0.1-0.1-0.1-0.1-0.2l0,0c-0.1-0.2-0.3-0.3-0.5-0.3l0,0c-0.1,0-0.2,0-0.2,0h0
				c0,0-0.1,0.1-0.2,0.1l0,0l0,0c-0.2,0.1-0.2,0.5,0,0.8l0,0c0.1,0.2,0.3,0.3,0.5,0.3l0,0c0.1,0,0.2,0,0.2,0
				c0.2-0.1,0.1-0.1,0.2-0.1C40.5,42.5,40.6,42.3,40.5,42L40.5,42z"/>
			<path id="XMLID_42644_" class="st3" d="M39.7,41.5L39.7,41.5c-0.4,0-0.6,0.5-0.3,0.9l0,0c0.1,0.2,0.3,0.3,0.5,0.3l0,0
				c0.4,0,0.6-0.5,0.3-0.9l0,0C40.1,41.7,39.9,41.6,39.7,41.5z"/>
			<g id="XMLID_42640_">
				<path id="XMLID_42641_" class="st9" d="M40,42.6C40,42.6,40,42.6,40,42.6c-0.2,0-0.3-0.1-0.4-0.3c-0.1-0.2-0.2-0.4-0.1-0.5
					c0.1-0.1,0.2-0.2,0.3-0.1c0.1,0,0.3,0.1,0.4,0.3c0.1,0.2,0.2,0.4,0.1,0.5C40.2,42.6,40.1,42.6,40,42.6z M39.7,41.7
					c-0.1,0-0.2,0-0.2,0.1c-0.1,0.1,0,0.3,0.1,0.5c0.1,0.1,0.3,0.2,0.4,0.2c0.1,0,0.2,0,0.3-0.1c0.1-0.1,0-0.3-0.1-0.5
					C40,41.8,39.9,41.7,39.7,41.7L39.7,41.7C39.7,41.7,39.7,41.7,39.7,41.7z"/>
			</g>
		</g>
		<g id="XMLID_42631_">
			<path id="XMLID_42638_" class="st8" d="M39.9,43.4L39.9,43.4c-0.5,0-0.6,0.5-0.3,1l0,0c0.2,0.2,0.4,0.4,0.6,0.4l0,0
				c0.5,0,0.6-0.5,0.3-1l0,0C40.3,43.5,40.1,43.4,39.9,43.4z"/>
			<path id="XMLID_42637_" class="st9" d="M40.5,44c0-0.1-0.1-0.1-0.1-0.2l0,0c-0.1-0.2-0.3-0.3-0.5-0.3l0,0c-0.1,0-0.2,0-0.2,0h0
				c0,0-0.1,0.1-0.2,0.1l0,0l0,0c-0.2,0.1-0.2,0.5,0,0.8l0,0c0.1,0.2,0.3,0.3,0.5,0.3l0,0c0.1,0,0.2,0,0.2,0
				c0.2-0.1,0.1-0.1,0.2-0.1C40.5,44.5,40.6,44.3,40.5,44L40.5,44z"/>
			<path id="XMLID_42636_" class="st3" d="M39.7,43.5L39.7,43.5c-0.4,0-0.6,0.5-0.3,0.9l0,0c0.1,0.2,0.3,0.3,0.5,0.3l0,0
				c0.4,0,0.6-0.5,0.3-0.9l0,0C40.1,43.7,39.9,43.5,39.7,43.5z"/>
			<g id="XMLID_42632_">
				<path id="XMLID_42633_" class="st9" d="M40,44.6C40,44.6,40,44.6,40,44.6c-0.2,0-0.3-0.1-0.4-0.3c-0.1-0.2-0.2-0.4-0.1-0.5
					c0.1-0.1,0.2-0.2,0.3-0.1c0.1,0,0.3,0.1,0.4,0.3c0.1,0.2,0.2,0.4,0.1,0.5C40.2,44.5,40.1,44.6,40,44.6z M39.7,43.7
					c-0.1,0-0.2,0-0.2,0.1c-0.1,0.1,0,0.3,0.1,0.5c0.1,0.1,0.3,0.2,0.4,0.2c0.1,0,0.2,0,0.3-0.1c0.1-0.1,0-0.3-0.1-0.5
					C40,43.8,39.9,43.7,39.7,43.7L39.7,43.7C39.7,43.7,39.7,43.7,39.7,43.7z"/>
			</g>
		</g>
		<g id="XMLID_42608_">
			<g id="XMLID_42617_">
				<g id="XMLID_42618_">
					<path id="XMLID_42630_" class="st8" d="M40.1,45.1L40.1,45.1C40,45.1,40,45.1,40.1,45.1L40.1,45.1
						C40.1,45.2,40.1,45.2,40.1,45.1L40.1,45.1C40.1,45.2,40.1,45.2,40.1,45.1L40.1,45.1C40.1,45.1,40.1,45.1,40.1,45.1z"/>
					<path id="XMLID_42629_" class="st8" d="M40.4,45.3L40.4,45.3C40.3,45.3,40.3,45.3,40.4,45.3L40.4,45.3
						C40.3,45.3,40.4,45.4,40.4,45.3L40.4,45.3C40.4,45.4,40.4,45.3,40.4,45.3L40.4,45.3C40.4,45.3,40.4,45.3,40.4,45.3z"/>
					<path id="XMLID_42628_" class="st8" d="M40.6,45.5L40.6,45.5C40.5,45.5,40.5,45.6,40.6,45.5L40.6,45.5
						C40.6,45.6,40.6,45.6,40.6,45.5L40.6,45.5C40.6,45.6,40.6,45.6,40.6,45.5L40.6,45.5C40.6,45.5,40.6,45.5,40.6,45.5z"/>
					<path id="XMLID_42627_" class="st8" d="M40.7,45.8L40.7,45.8C40.7,45.8,40.7,45.8,40.7,45.8L40.7,45.8
						C40.7,45.9,40.7,45.9,40.7,45.8L40.7,45.8C40.7,45.9,40.7,45.9,40.7,45.8L40.7,45.8C40.7,45.8,40.7,45.8,40.7,45.8z"/>
					<path id="XMLID_42626_" class="st8" d="M40.7,46.1L40.7,46.1C40.7,46.1,40.7,46.2,40.7,46.1L40.7,46.1
						C40.7,46.2,40.7,46.2,40.7,46.1L40.7,46.1C40.8,46.2,40.8,46.2,40.7,46.1L40.7,46.1C40.8,46.2,40.7,46.1,40.7,46.1z"/>
					<path id="XMLID_42625_" class="st8" d="M40.6,46.4L40.6,46.4C40.6,46.4,40.6,46.4,40.6,46.4L40.6,46.4
						C40.6,46.5,40.6,46.5,40.6,46.4L40.6,46.4C40.6,46.5,40.7,46.5,40.6,46.4L40.6,46.4C40.6,46.4,40.6,46.4,40.6,46.4z"/>
					<path id="XMLID_42624_" class="st8" d="M40.3,46.6L40.3,46.6C40.3,46.6,40.3,46.6,40.3,46.6L40.3,46.6
						C40.3,46.6,40.3,46.6,40.3,46.6L40.3,46.6C40.3,46.6,40.3,46.6,40.3,46.6L40.3,46.6C40.3,46.6,40.3,46.6,40.3,46.6z"/>
					<path id="XMLID_42623_" class="st8" d="M39.3,45.5L39.3,45.5C39.2,45.5,39.2,45.5,39.3,45.5L39.3,45.5
						C39.3,45.6,39.3,45.6,39.3,45.5L39.3,45.5C39.3,45.6,39.3,45.5,39.3,45.5L39.3,45.5C39.3,45.5,39.3,45.5,39.3,45.5z"/>
					<path id="XMLID_42622_" class="st8" d="M39.3,45.8L39.3,45.8C39.2,45.8,39.2,45.8,39.3,45.8L39.3,45.8
						C39.3,45.9,39.3,45.9,39.3,45.8L39.3,45.8C39.3,45.9,39.3,45.9,39.3,45.8L39.3,45.8C39.3,45.8,39.3,45.8,39.3,45.8z"/>
					<path id="XMLID_42621_" class="st8" d="M39.4,46.1L39.4,46.1C39.4,46.1,39.4,46.2,39.4,46.1L39.4,46.1
						C39.4,46.2,39.4,46.2,39.4,46.1L39.4,46.1C39.4,46.2,39.4,46.2,39.4,46.1L39.4,46.1C39.4,46.1,39.4,46.1,39.4,46.1z"/>
					<path id="XMLID_42620_" class="st8" d="M39.6,46.4L39.6,46.4C39.6,46.4,39.6,46.4,39.6,46.4L39.6,46.4
						C39.6,46.4,39.6,46.4,39.6,46.4L39.6,46.4C39.7,46.4,39.7,46.4,39.6,46.4L39.6,46.4C39.6,46.4,39.6,46.4,39.6,46.4z"/>
					<path id="XMLID_42619_" class="st8" d="M39.9,46.5L39.9,46.5C39.9,46.5,39.9,46.6,39.9,46.5L39.9,46.5
						C39.9,46.6,39.9,46.6,39.9,46.5L39.9,46.5C40,46.6,40,46.6,39.9,46.5L39.9,46.5C39.9,46.5,39.9,46.5,39.9,46.5z"/>
				</g>
			</g>
			<path id="XMLID_42616_" class="st8" d="M39.9,45.2L39.9,45.2c-0.5,0-0.6,0.5-0.3,1l0,0c0.2,0.2,0.4,0.4,0.6,0.4l0,0
				c0.5,0,0.6-0.5,0.3-1l0,0C40.3,45.4,40.1,45.2,39.9,45.2z"/>
			<path id="XMLID_42615_" class="st9" d="M40.5,45.8c0-0.1-0.1-0.1-0.1-0.2l0,0c-0.1-0.2-0.3-0.3-0.5-0.3l0,0c-0.1,0-0.2,0-0.2,0h0
				c0,0-0.1,0.1-0.2,0.1l0,0l0,0c-0.2,0.1-0.2,0.5,0,0.8l0,0c0.1,0.2,0.3,0.3,0.5,0.3l0,0c0.1,0,0.2,0,0.2,0
				c0.2-0.1,0.1-0.1,0.2-0.1C40.5,46.3,40.6,46.1,40.5,45.8L40.5,45.8z"/>
			<path id="XMLID_42614_" class="st3" d="M39.7,45.3L39.7,45.3c-0.4,0-0.6,0.5-0.3,0.9l0,0c0.1,0.2,0.3,0.3,0.5,0.3l0,0
				c0.4,0,0.6-0.5,0.3-0.9l0,0C40.1,45.5,39.9,45.4,39.7,45.3z"/>
			<g id="XMLID_42610_">
				<path id="XMLID_42611_" class="st9" d="M40,46.4C40,46.4,40,46.4,40,46.4c-0.2,0-0.3-0.1-0.4-0.3c-0.1-0.2-0.2-0.4-0.1-0.5
					c0.1-0.1,0.2-0.2,0.3-0.1c0.1,0,0.3,0.1,0.4,0.3c0.1,0.2,0.2,0.4,0.1,0.5C40.2,46.4,40.1,46.4,40,46.4z M39.7,45.5
					c-0.1,0-0.2,0-0.2,0.1c-0.1,0.1,0,0.3,0.1,0.5c0.1,0.1,0.3,0.2,0.4,0.2c0.1,0,0.2,0,0.3-0.1c0.1-0.1,0-0.3-0.1-0.5
					C40,45.6,39.9,45.5,39.7,45.5L39.7,45.5C39.7,45.5,39.7,45.5,39.7,45.5z"/>
			</g>
			<g id="XMLID_42609_">
			</g>
		</g>
		<g id="XMLID_42376_">
			<g id="XMLID_42603_">
				<polygon id="XMLID_42607_" class="st10" points="32.9,42 32.9,42.2 38.5,45.4 38.5,45.3 				"/>
				<polygon id="XMLID_42606_" class="st11" points="38.5,45.3 38.5,44.9 33.7,42.1 33.2,42 36.7,39.9 36.4,39.8 32.9,41.8 32.9,42 
									"/>
				<polygon id="XMLID_42605_" class="st12" points="36.7,39.9 33.2,42 33.7,42.1 37.1,40.2 				"/>
				<polygon id="XMLID_42604_" class="st13" points="37.1,40.2 33.7,42.1 38.5,44.9 38.5,41 				"/>
			</g>
			<g id="XMLID_42377_">
				<polygon id="XMLID_42602_" class="st14" points="32.9,40.9 32.9,40.8 32.9,40.8 				"/>
				<polygon id="XMLID_42601_" class="st10" points="34,40.2 33.9,40.2 38.5,42.9 38.5,42.8 				"/>
				<polygon id="XMLID_42600_" class="st3" points="38.5,42.8 38.5,42.8 34,40.2 34,40.2 				"/>
				<polygon id="XMLID_42599_" class="st3" points="34,40.2 38.5,42.8 38.5,42.8 34,40.2 				"/>
				<polygon id="XMLID_42598_" class="st10" points="33.7,40.4 33.7,40.4 38.5,43.2 38.5,43.2 				"/>
				<polygon id="XMLID_42597_" class="st3" points="38.5,43.2 38.5,43.2 33.7,40.4 33.7,40.4 				"/>
				<polygon id="XMLID_42596_" class="st3" points="33.7,40.4 38.5,43.2 38.5,43.1 33.7,40.3 				"/>
				<polygon id="XMLID_42595_" class="st10" points="33.4,40.5 33.4,40.6 38.5,43.5 38.5,43.5 				"/>
				<polygon id="XMLID_42594_" class="st3" points="38.5,43.5 38.5,43.5 33.4,40.5 33.4,40.5 				"/>
				<polygon id="XMLID_42593_" class="st3" points="33.4,40.5 38.5,43.5 38.5,43.5 33.4,40.5 				"/>
				<polygon id="XMLID_42592_" class="st10" points="33.1,40.7 33.1,40.7 38.5,43.9 38.5,43.8 				"/>
				<polygon id="XMLID_42591_" class="st3" points="38.5,43.8 38.5,43.8 33.1,40.7 33.1,40.7 				"/>
				<polygon id="XMLID_42590_" class="st3" points="33.1,40.7 33.1,40.7 38.5,43.8 38.5,43.8 				"/>
				<polygon id="XMLID_42589_" class="st3" points="33.1,40.7 38.5,43.8 38.5,43.8 33.1,40.7 				"/>
				<polygon id="XMLID_42588_" class="st10" points="35.4,39.4 35.4,39.4 38.5,41.2 38.5,41.1 				"/>
				<polygon id="XMLID_42587_" class="st3" points="38.5,41.1 38.5,41.1 35.4,39.4 35.4,39.4 				"/>
				<polygon id="XMLID_42586_" class="st3" points="35.4,39.4 35.4,39.4 38.5,41.1 38.5,41.1 				"/>
				<polygon id="XMLID_42585_" class="st3" points="35.4,39.4 38.5,41.1 38.5,41.1 35.5,39.3 				"/>
				<polygon id="XMLID_42584_" class="st10" points="35.1,39.5 35.1,39.5 38.5,41.5 38.5,41.5 				"/>
				<polygon id="XMLID_42583_" class="st3" points="38.5,41.5 38.5,41.5 35.1,39.5 35.1,39.5 				"/>
				<polygon id="XMLID_42582_" class="st3" points="35.1,39.5 35.1,39.5 38.5,41.5 38.5,41.5 				"/>
				<polygon id="XMLID_42581_" class="st3" points="35.1,39.5 38.5,41.5 38.5,41.4 35.2,39.5 				"/>
				<polygon id="XMLID_42580_" class="st10" points="34.9,39.7 34.8,39.7 38.5,41.9 38.5,41.8 				"/>
				<polygon id="XMLID_42579_" class="st3" points="38.5,41.8 38.5,41.8 34.9,39.7 34.9,39.7 				"/>
				<polygon id="XMLID_42578_" class="st3" points="34.9,39.7 34.9,39.7 38.5,41.8 38.5,41.8 				"/>
				<polygon id="XMLID_42577_" class="st3" points="34.9,39.7 38.5,41.8 38.5,41.8 34.9,39.7 				"/>
				<polygon id="XMLID_42576_" class="st10" points="34.6,39.9 34.5,39.9 38.5,42.2 38.5,42.1 				"/>
				<polygon id="XMLID_42575_" class="st3" points="38.5,42.1 38.5,42.1 34.6,39.9 34.6,39.9 				"/>
				<polygon id="XMLID_42574_" class="st3" points="34.6,39.9 34.6,39.9 38.5,42.1 38.5,42.1 				"/>
				<polygon id="XMLID_42573_" class="st3" points="34.6,39.9 38.5,42.1 38.5,42.1 34.6,39.8 				"/>
				<polygon id="XMLID_42572_" class="st10" points="34.3,40 34.2,40 38.5,42.5 38.5,42.5 				"/>
				<polygon id="XMLID_42571_" class="st3" points="38.5,42.5 38.5,42.5 34.3,40 34.3,40 				"/>
				<polygon id="XMLID_42570_" class="st3" points="34.3,40 34.3,40 38.5,42.5 38.5,42.5 				"/>
				<polygon id="XMLID_42569_" class="st3" points="34.3,40 38.5,42.5 38.5,42.4 34.3,40 				"/>
				<polygon id="XMLID_42568_" class="st10" points="33.3,40.5 33.1,40.7 33.1,40.7 33.4,40.6 33.3,40.5 				"/>
				<polygon id="XMLID_42567_" class="st10" points="33.9,40.2 33.7,40.3 33.7,40.3 33.9,40.2 33.9,40.2 				"/>
				<polygon id="XMLID_42566_" class="st10" points="34.2,40 34,40.2 34,40.2 34.2,40 34.2,40 				"/>
				<polygon id="XMLID_42565_" class="st10" points="35.4,39.3 35.5,39.3 35.6,39.3 35.5,39.3 				"/>
				<polygon id="XMLID_42564_" class="st10" points="35.4,39.4 35.1,39.5 35.2,39.5 35.4,39.4 35.4,39.4 				"/>
				<polygon id="XMLID_42563_" class="st10" points="34.5,39.9 34.3,40 34.3,40 34.5,39.9 34.5,39.9 				"/>
				<polygon id="XMLID_42562_" class="st10" points="34.8,39.7 34.6,39.8 34.6,39.8 34.8,39.7 34.8,39.7 				"/>
				<polygon id="XMLID_42561_" class="st10" points="35.1,39.5 34.9,39.7 34.9,39.7 35.1,39.5 35.1,39.5 				"/>
				<polygon id="XMLID_42560_" class="st10" points="33.6,40.4 33.4,40.5 33.4,40.5 33.7,40.4 33.6,40.4 				"/>
				<polygon id="XMLID_42559_" class="st10" points="33.9,40.2 33.9,40.2 33.9,40.2 34,40.2 33.9,40.2 				"/>
				<polygon id="XMLID_42558_" class="st10" points="34,40.2 33.9,40.2 34,40.2 34,40.2 34,40.2 				"/>
				<polygon id="XMLID_42557_" class="st10" points="34,40.2 34,40.2 34,40.2 34,40.2 34,40.2 				"/>
				<polygon id="XMLID_42556_" class="st10" points="33.6,40.4 33.6,40.4 33.7,40.4 33.7,40.4 33.7,40.3 				"/>
				<polygon id="XMLID_42555_" class="st10" points="33.7,40.3 33.7,40.3 33.7,40.4 33.7,40.4 33.7,40.3 				"/>
				<polygon id="XMLID_42554_" class="st10" points="33.7,40.3 33.7,40.3 33.7,40.4 33.7,40.3 33.7,40.3 				"/>
				<polygon id="XMLID_42553_" class="st10" points="33.3,40.5 33.3,40.5 33.4,40.6 33.4,40.5 33.4,40.5 				"/>
				<polygon id="XMLID_42552_" class="st10" points="33.4,40.5 33.4,40.5 33.4,40.5 33.4,40.5 33.4,40.5 				"/>
				<polygon id="XMLID_42551_" class="st10" points="33.4,40.5 33.4,40.5 33.4,40.5 33.4,40.5 33.4,40.5 				"/>
				<polygon id="XMLID_42550_" class="st10" points="33,40.7 33,40.7 33.1,40.7 33.1,40.7 33.1,40.7 				"/>
				<polygon id="XMLID_42549_" class="st10" points="33.1,40.7 33.1,40.7 33.1,40.7 33.1,40.7 33.1,40.7 				"/>
				<polygon id="XMLID_42548_" class="st10" points="33.1,40.7 33.1,40.7 33.1,40.7 33.1,40.7 				"/>
				<polygon id="XMLID_42547_" class="st10" points="33.1,40.7 33.1,40.7 33.1,40.7 33.1,40.7 33.1,40.7 				"/>
				<polygon id="XMLID_42546_" class="st10" points="35.4,39.4 35.4,39.4 35.4,39.4 35.4,39.4 35.4,39.3 				"/>
				<polygon id="XMLID_42545_" class="st10" points="35.4,39.3 35.4,39.3 35.4,39.4 35.4,39.4 35.4,39.3 				"/>
				<polygon id="XMLID_42544_" class="st10" points="35.4,39.3 35.4,39.3 35.4,39.4 35.4,39.4 				"/>
				<polygon id="XMLID_42543_" class="st10" points="35.4,39.3 35.4,39.4 35.5,39.3 35.4,39.3 35.4,39.3 				"/>
				<polygon id="XMLID_42542_" class="st10" points="35.1,39.5 35.1,39.5 35.1,39.5 35.1,39.5 35.1,39.5 				"/>
				<polygon id="XMLID_42541_" class="st10" points="35.1,39.5 35.1,39.5 35.1,39.5 35.1,39.5 35.1,39.5 				"/>
				<polygon id="XMLID_42540_" class="st10" points="35.1,39.5 35.1,39.5 35.1,39.5 35.1,39.5 				"/>
				<polygon id="XMLID_42539_" class="st10" points="35.1,39.5 35.1,39.5 35.1,39.5 35.2,39.5 35.1,39.5 				"/>
				<polygon id="XMLID_42538_" class="st10" points="34.8,39.7 34.8,39.7 34.8,39.7 34.9,39.7 34.8,39.7 				"/>
				<polygon id="XMLID_42537_" class="st10" points="34.8,39.7 34.8,39.7 34.9,39.7 34.9,39.7 34.8,39.7 				"/>
				<polygon id="XMLID_42536_" class="st10" points="34.8,39.7 34.8,39.7 34.9,39.7 34.9,39.7 				"/>
				<polygon id="XMLID_42535_" class="st10" points="34.8,39.7 34.8,39.7 34.9,39.7 34.9,39.7 34.9,39.7 				"/>
				<polygon id="XMLID_42532_" class="st10" points="34.5,39.9 34.5,39.9 34.5,39.9 34.6,39.9 34.5,39.8 				"/>
				<polygon id="XMLID_42531_" class="st10" points="34.5,39.8 34.5,39.8 34.6,39.9 34.6,39.9 34.5,39.8 				"/>
				<polygon id="XMLID_42530_" class="st10" points="34.5,39.8 34.5,39.8 34.6,39.9 34.6,39.9 				"/>
				<polygon id="XMLID_42529_" class="st10" points="34.5,39.8 34.5,39.8 34.6,39.9 34.6,39.8 34.6,39.8 				"/>
				<polygon id="XMLID_42525_" class="st10" points="34.2,40 34.2,40 34.2,40 34.3,40 34.2,40 				"/>
				<polygon id="XMLID_42524_" class="st10" points="34.2,40 34.2,40 34.3,40 34.3,40 34.2,40 				"/>
				<polygon id="XMLID_42522_" class="st10" points="34.2,40 34.2,40 34.3,40 34.3,40 				"/>
				<polygon id="XMLID_42521_" class="st10" points="34.2,40 34.2,40 34.3,40 34.3,40 34.3,40 				"/>
				<polygon id="XMLID_42520_" class="st3" points="34.2,40 34.2,40 34,40.2 34,40.2 				"/>
				<polygon id="XMLID_42519_" class="st3" points="35.5,39.3 35.5,39.3 35.4,39.3 35.4,39.3 				"/>
				<polygon id="XMLID_42515_" class="st3" points="33.3,40.5 33.3,40.5 33.1,40.7 33.1,40.7 				"/>
				<polygon id="XMLID_42514_" class="st3" points="34.5,39.9 34.5,39.9 34.3,40 34.3,40 				"/>
				<polygon id="XMLID_42513_" class="st3" points="34.8,39.7 34.8,39.7 34.6,39.8 34.6,39.8 				"/>
				<polygon id="XMLID_42511_" class="st3" points="35.4,39.4 35.4,39.4 35.1,39.5 35.1,39.5 				"/>
				<polygon id="XMLID_42510_" class="st3" points="35.1,39.5 35.1,39.5 34.9,39.7 34.9,39.7 				"/>
				<polygon id="XMLID_42509_" class="st3" points="33.6,40.4 33.6,40.4 33.4,40.5 33.4,40.5 				"/>
				<polygon id="XMLID_42508_" class="st3" points="33.9,40.2 33.9,40.2 33.7,40.3 33.7,40.3 				"/>
				<polygon id="XMLID_42504_" class="st3" points="33.9,40.2 33.9,40.2 33.9,40.2 33.9,40.2 				"/>
				
					<ellipse id="XMLID_42503_" transform="matrix(0.9371 -0.349 0.349 0.9371 -11.8893 14.3744)" class="st3" cx="33.9" cy="40.2" rx="0" ry="0"/>
				<polygon id="XMLID_42501_" class="st3" points="34,40.2 34,40.2 34,40.2 34,40.2 				"/>
				<polygon id="XMLID_42500_" class="st3" points="33.7,40.3 33.7,40.3 33.6,40.4 33.6,40.4 				"/>
				
					<ellipse id="XMLID_42499_" transform="matrix(0.9473 -0.3202 0.3202 0.9473 -11.1474 12.8999)" class="st3" cx="33.7" cy="40.3" rx="0" ry="0"/>
				<polygon id="XMLID_42498_" class="st3" points="33.7,40.3 33.7,40.3 33.7,40.3 33.7,40.3 				"/>
				<polygon id="XMLID_42494_" class="st3" points="33.4,40.5 33.4,40.5 33.3,40.5 33.3,40.5 				"/>
				
					<ellipse id="XMLID_42493_" transform="matrix(0.9792 -0.2029 0.2029 0.9792 -7.5274 7.613)" class="st3" cx="33.4" cy="40.5" rx="0" ry="0"/>
				<polygon id="XMLID_42492_" class="st3" points="33.4,40.5 33.4,40.5 33.4,40.5 33.4,40.5 				"/>
				<polygon id="XMLID_42491_" class="st3" points="33.1,40.7 33.1,40.7 33,40.7 33,40.7 				"/>
				
					<ellipse id="XMLID_42488_" transform="matrix(0.9876 -0.1568 0.1568 0.9876 -5.9697 5.6881)" class="st3" cx="33.1" cy="40.7" rx="0" ry="0"/>
				
					<ellipse id="XMLID_42487_" transform="matrix(0.4758 -0.8795 0.8795 0.4758 -18.4483 50.4114)" class="st3" cx="33.1" cy="40.7" rx="0" ry="0"/>
				<polygon id="XMLID_42486_" class="st3" points="33.1,40.7 33.1,40.7 33.1,40.7 33.1,40.7 				"/>
				<polygon id="XMLID_42485_" class="st3" points="35.4,39.3 35.4,39.3 35.4,39.4 35.4,39.4 				"/>
				<polygon id="XMLID_42481_" class="st3" points="35.4,39.3 35.4,39.3 35.4,39.3 35.4,39.3 				"/>
				
					<ellipse id="XMLID_42480_" transform="matrix(0.4108 -0.9117 0.9117 0.4108 -15.0081 55.4526)" class="st3" cx="35.4" cy="39.3" rx="0" ry="0"/>
				<polygon id="XMLID_42478_" class="st3" points="35.4,39.3 35.4,39.3 35.4,39.3 35.4,39.3 				"/>
				<polygon id="XMLID_42477_" class="st3" points="35.1,39.5 35.1,39.5 35.1,39.5 35.1,39.5 				"/>
				<polygon id="XMLID_42476_" class="st3" points="35.1,39.5 35.1,39.5 35.1,39.5 35.1,39.5 				"/>
				
					<ellipse id="XMLID_42475_" transform="matrix(0.5221 -0.8529 0.8529 0.5221 -16.9159 48.8211)" class="st3" cx="35.1" cy="39.5" rx="0" ry="0"/>
				<polygon id="XMLID_42471_" class="st3" points="35.1,39.5 35.1,39.5 35.1,39.5 35.1,39.5 				"/>
				<polygon id="XMLID_42470_" class="st3" points="34.8,39.7 34.8,39.7 34.8,39.7 34.8,39.7 				"/>
				
					<ellipse id="XMLID_42469_" transform="matrix(0.943 -0.3328 0.3328 0.943 -11.2182 13.8477)" class="st3" cx="34.8" cy="39.7" rx="0" ry="0"/>
				
					<ellipse id="XMLID_42467_" transform="matrix(0.5526 -0.8335 0.8335 0.5526 -17.4883 46.7683)" class="st3" cx="34.8" cy="39.7" rx="0" ry="0"/>
				<polygon id="XMLID_42465_" class="st3" points="34.8,39.7 34.9,39.7 34.9,39.7 34.8,39.7 				"/>
				<polygon id="XMLID_42464_" class="st3" points="34.5,39.8 34.5,39.8 34.5,39.9 34.5,39.9 				"/>
				
					<ellipse id="XMLID_42463_" transform="matrix(0.9448 -0.3276 0.3276 0.9448 -11.1483 13.5109)" class="st3" cx="34.5" cy="39.8" rx="0" ry="0"/>
				
					<ellipse id="XMLID_42462_" transform="matrix(0.461 -0.8874 0.8874 0.461 -16.7467 52.1141)" class="st3" cx="34.5" cy="39.8" rx="0" ry="0"/>
				<polygon id="XMLID_42458_" class="st3" points="34.5,39.8 34.6,39.8 34.6,39.8 34.5,39.8 				"/>
				<polygon id="XMLID_42457_" class="st3" points="34.2,40 34.2,40 34.2,40 34.2,40 				"/>
				
					<ellipse id="XMLID_42455_" transform="matrix(0.9835 -0.1811 0.1811 0.9835 -6.6795 6.8618)" class="st3" cx="34.2" cy="40" rx="0" ry="0"/>
				
					<ellipse id="XMLID_42454_" transform="matrix(0.488 -0.8729 0.8729 0.488 -17.392 50.3687)" class="st3" cx="34.2" cy="40" rx="0" ry="0"/>
				<polygon id="XMLID_42453_" class="st3" points="34.2,40 34.3,40 34.3,40 34.2,40 				"/>
				<polygon id="XMLID_42452_" class="st3" points="33,40.7 33,40.7 33,40.7 33,40.7 33,40.7 33.1,40.7 33.1,40.7 33.3,40.5 
					33.3,40.5 33.4,40.5 33.4,40.5 33.6,40.4 33.6,40.3 33.7,40.3 33.7,40.3 33.9,40.2 33.9,40.2 34,40.1 34,40.2 34.2,40 34.2,40 
					34.2,40 34.2,40 34.2,40 34.2,40 34.2,40 34.3,40 34.5,39.9 34.5,39.8 34.5,39.8 34.5,39.8 34.5,39.8 34.5,39.8 34.5,39.8 
					34.6,39.8 34.8,39.7 34.8,39.7 34.8,39.7 34.8,39.7 34.8,39.7 34.8,39.7 34.8,39.6 34.9,39.7 35.1,39.5 35.1,39.5 35.1,39.5 
					35.1,39.5 35.1,39.5 35.1,39.5 35.4,39.4 35.4,39.3 35.4,39.3 35.4,39.3 35.4,39.3 35.4,39.3 35.4,39.3 35.4,39.3 35.5,39.3 
					35.5,39.2 				"/>
				<polygon id="XMLID_42448_" class="st3" points="33.9,40.2 33.9,40.2 33.9,40.2 				"/>
				<polygon id="XMLID_42447_" class="st3" points="34,40.2 34,40.1 34,40.1 33.9,40.2 33.9,40.2 				"/>
				<polygon id="XMLID_42446_" class="st3" points="34,40.2 34,40.2 34,40.1 34,40.1 				"/>
				<polygon id="XMLID_42444_" class="st3" points="33.6,40.3 33.6,40.4 33.7,40.3 				"/>
				<polygon id="XMLID_42443_" class="st3" points="33.7,40.3 33.7,40.3 33.7,40.3 33.6,40.3 33.7,40.3 				"/>
				<polygon id="XMLID_42442_" class="st3" points="33.7,40.3 33.7,40.3 33.7,40.3 33.7,40.3 				"/>
				<polygon id="XMLID_42441_" class="st3" points="33.3,40.5 33.3,40.5 33.4,40.5 				"/>
				<polygon id="XMLID_42437_" class="st3" points="33.4,40.5 33.4,40.5 33.4,40.5 33.3,40.5 33.4,40.5 				"/>
				<polygon id="XMLID_42436_" class="st3" points="33.4,40.5 33.4,40.5 33.4,40.5 33.4,40.5 				"/>
				<polygon id="XMLID_42434_" class="st3" points="33,40.7 33,40.7 33,40.7 				"/>
				<polygon id="XMLID_42433_" class="st3" points="33,40.7 33,40.7 33.1,40.7 				"/>
				<polygon id="XMLID_42432_" class="st3" points="33,40.7 33,40.7 33,40.7 				"/>
				<polygon id="XMLID_42431_" class="st3" points="33.1,40.7 33.1,40.6 33,40.7 33.1,40.7 				"/>
				<polygon id="XMLID_42427_" class="st3" points="33.1,40.7 33,40.7 33,40.7 33,40.7 33.1,40.7 				"/>
				<polygon id="XMLID_42426_" class="st3" points="33.1,40.7 33.1,40.6 33.1,40.7 				"/>
				<polygon id="XMLID_42425_" class="st3" points="35.4,39.3 35.4,39.3 35.4,39.3 				"/>
				<polygon id="XMLID_42424_" class="st3" points="35.4,39.3 35.4,39.4 35.4,39.3 				"/>
				<polygon id="XMLID_42423_" class="st3" points="35.4,39.3 35.4,39.3 35.4,39.3 35.4,39.3 				"/>
				<polygon id="XMLID_42420_" class="st3" points="35.4,39.3 35.4,39.3 35.4,39.3 				"/>
				<polygon id="XMLID_42416_" class="st3" points="35.4,39.3 35.4,39.3 35.4,39.3 35.4,39.3 35.4,39.3 				"/>
				<polygon id="XMLID_42415_" class="st3" points="35.4,39.3 35.4,39.3 35.4,39.3 				"/>
				<polygon id="XMLID_42413_" class="st3" points="35.1,39.5 35.1,39.5 35.1,39.5 				"/>
				<polygon id="XMLID_42409_" class="st3" points="35.1,39.5 35.1,39.5 35.1,39.5 				"/>
				<polygon id="XMLID_42408_" class="st3" points="35.1,39.5 35.1,39.5 35.1,39.5 35.1,39.5 				"/>
				<polygon id="XMLID_42407_" class="st3" points="35.1,39.5 35.1,39.5 35.1,39.5 35.1,39.5 				"/>
				<polygon id="XMLID_42404_" class="st3" points="35.1,39.5 35.1,39.5 35.1,39.5 				"/>
				<polygon id="XMLID_42402_" class="st3" points="34.8,39.7 34.8,39.7 34.8,39.7 				"/>
				<polygon id="XMLID_42398_" class="st3" points="34.8,39.7 34.8,39.7 34.8,39.7 				"/>
				<polygon id="XMLID_42397_" class="st3" points="34.8,39.7 34.8,39.7 34.8,39.7 				"/>
				<polygon id="XMLID_42395_" class="st3" points="34.8,39.7 34.8,39.6 34.8,39.7 34.8,39.7 				"/>
				<polygon id="XMLID_42391_" class="st3" points="34.8,39.7 34.8,39.7 34.8,39.7 34.8,39.7 34.8,39.7 				"/>
				<polygon id="XMLID_42390_" class="st3" points="34.9,39.7 34.8,39.6 34.8,39.7 				"/>
				<polygon id="XMLID_42389_" class="st3" points="34.5,39.8 34.5,39.9 34.5,39.8 				"/>
				<polygon id="XMLID_42388_" class="st3" points="34.5,39.8 34.5,39.8 34.5,39.8 				"/>
				<polygon id="XMLID_42387_" class="st3" points="34.5,39.8 34.5,39.8 34.5,39.8 				"/>
				<polygon id="XMLID_42386_" class="st3" points="34.5,39.8 34.5,39.8 34.5,39.8 34.5,39.8 				"/>
				<polygon id="XMLID_42385_" class="st3" points="34.5,39.8 34.5,39.8 34.5,39.8 34.5,39.8 34.5,39.8 				"/>
				<polygon id="XMLID_42384_" class="st3" points="34.6,39.8 34.5,39.8 34.5,39.8 				"/>
				<polygon id="XMLID_42383_" class="st3" points="34.2,40 34.2,40 34.2,40 				"/>
				<polygon id="XMLID_42382_" class="st3" points="34.2,40 34.2,40 34.2,40 				"/>
				<polygon id="XMLID_42381_" class="st3" points="34.2,40 34.2,40 34.2,40 				"/>
				<polygon id="XMLID_42380_" class="st3" points="34.2,40 34.2,40 34.2,40 34.2,40 				"/>
				<polygon id="XMLID_42379_" class="st3" points="34.2,40 34.2,40 34.2,40 34.2,40 34.2,40 				"/>
				<polygon id="XMLID_42378_" class="st3" points="34.3,40 34.2,40 34.2,40 				"/>
			</g>
		</g>
		<g id="XMLID_42351_">
			<g id="XMLID_42371_">
				<polygon id="XMLID_42375_" class="st7" points="33.4,42.3 38.5,45.3 33.4,42.3 				"/>
				<polygon id="XMLID_42374_" class="st9" points="33.3,42.3 38.5,45.4 38.5,45.3 33.4,42.3 				"/>
				<polygon id="XMLID_42373_" class="st15" points="33.4,42.3 38.5,45.3 38.5,44.9 33.8,42.2 				"/>
				<polygon id="XMLID_42372_" class="st16" points="33.8,42.2 38.5,44.9 38.5,41 38.2,40.8 				"/>
			</g>
			<g id="XMLID_42352_">
				<polygon id="XMLID_42370_" class="st9" points="36.1,41.5 38.5,42.9 38.5,42.8 36.1,41.5 				"/>
				<polygon id="XMLID_42369_" class="st17" points="36.2,41.4 36.1,41.5 38.5,42.8 38.5,42.8 				"/>
				<polygon id="XMLID_42368_" class="st9" points="35.7,41.6 38.5,43.2 38.5,43.2 35.8,41.6 				"/>
				<polygon id="XMLID_42367_" class="st17" points="35.8,41.6 35.8,41.6 38.5,43.2 38.5,43.1 				"/>
				<polygon id="XMLID_42366_" class="st9" points="35.3,41.7 38.5,43.5 38.5,43.5 35.4,41.7 				"/>
				<polygon id="XMLID_42365_" class="st17" points="35.4,41.7 35.4,41.7 38.5,43.5 38.5,43.5 				"/>
				<polygon id="XMLID_42364_" class="st9" points="35,41.8 38.5,43.9 38.5,43.8 35,41.8 				"/>
				<polygon id="XMLID_42363_" class="st17" points="35.1,41.8 35,41.8 38.5,43.8 38.5,43.8 				"/>
				<polygon id="XMLID_42362_" class="st9" points="38,40.9 38.5,41.2 38.5,41.1 38,40.9 				"/>
				<polygon id="XMLID_42361_" class="st17" points="38.1,40.8 38,40.9 38.5,41.1 38.5,41.1 				"/>
				<polygon id="XMLID_42360_" class="st9" points="37.6,41 38.5,41.5 38.5,41.5 37.7,41 				"/>
				<polygon id="XMLID_42359_" class="st17" points="37.7,41 37.7,41 38.5,41.5 38.5,41.4 				"/>
				<polygon id="XMLID_42358_" class="st9" points="37.2,41.1 38.5,41.9 38.5,41.8 37.3,41.1 				"/>
				<polygon id="XMLID_42357_" class="st17" points="37.3,41.1 37.3,41.1 38.5,41.8 38.5,41.8 				"/>
				<polygon id="XMLID_42356_" class="st9" points="36.9,41.2 38.5,42.2 38.5,42.1 36.9,41.2 				"/>
				<polygon id="XMLID_42355_" class="st17" points="36.9,41.2 36.9,41.2 38.5,42.1 38.5,42.1 				"/>
				<polygon id="XMLID_42354_" class="st9" points="36.5,41.3 38.5,42.5 38.5,42.5 36.5,41.3 				"/>
				<polygon id="XMLID_42353_" class="st17" points="36.6,41.3 36.5,41.3 38.5,42.5 38.5,42.4 				"/>
			</g>
		</g>
		<g id="XMLID_42339_">
			<g id="XMLID_42348_">
				<polygon id="XMLID_42350_" class="st3" points="38.6,40.7 38.9,40.5 38.6,40.3 38.2,40.5 				"/>
				<polygon id="XMLID_42349_" class="st18" points="38.6,41 38.6,40.7 38.9,40.5 38.9,40.8 				"/>
			</g>
			<g id="XMLID_42345_">
				<polygon id="XMLID_42347_" class="st3" points="32.6,37.2 32.9,37 32.6,36.8 32.2,37 				"/>
				<polygon id="XMLID_42346_" class="st18" points="32.6,37.5 32.6,37.2 32.9,37 32.9,37.4 				"/>
			</g>
			<g id="XMLID_42340_">
				<polygon id="XMLID_42344_" class="st10" points="38.2,41.2 38.2,40.8 31.9,37.2 31.9,37.5 				"/>
				<polygon id="XMLID_42343_" class="st10" points="38.6,41 38.6,40.7 32.2,37 32.2,37 32.2,37.4 				"/>
				<polygon id="XMLID_42342_" class="st3" points="38.2,40.8 38.6,40.7 32.2,37 31.9,37.2 				"/>
				<polygon id="XMLID_42341_" class="st18" points="38.2,41.2 38.2,40.8 38.6,40.7 38.6,41 				"/>
			</g>
		</g>
	</g>
</g>
</svg>
