<?xml version="1.0" encoding="utf-8"?>
<!-- Generator: Adobe Illustrator 21.0.0, SVG Export Plug-In . SVG Version: 6.00 Build 0)  -->
<svg version="1.1" id="Layer_1" xmlns="http://www.w3.org/2000/svg" xmlns:xlink="http://www.w3.org/1999/xlink" x="0px" y="0px"
	 viewBox="0 0 80 80" style="enable-background:new 0 0 80 80;" xml:space="preserve">
<style type="text/css">
	.st0{fill:#DDDDDC;}
	.st1{opacity:0.3;fill:#E8E7E7;enable-background:new    ;}
	.st2{fill:#CECDCC;}
	.st3{opacity:0.2;fill:#CECDCC;enable-background:new    ;}
	.st4{fill:#FFFFFF;}
	.st5{fill:#EFEFEF;}
	.st6{fill:#D7DDDD;}
	.st7{fill:#95D2DE;}
	.st8{fill:#A0DBEB;}
	.st9{fill:#A9DEEB;}
	.st10{opacity:0.7;fill:#92D5E0;enable-background:new    ;}
	.st11{fill:#79CFE2;}
	.st12{fill:#A0DBEA;}
	.st13{fill:#92D5E0;}
	.st14{fill:#54A2B4;}
	.st15{fill:#6BBCD6;}
	.st16{fill:#9C9C9C;}
	.st17{fill:#B2B2B2;}
	.st18{fill:#BBBBBB;}
	.st19{opacity:0.2;fill:#BBBBBB;enable-background:new    ;}
	.st20{fill:#777778;}
	.st21{fill:#686A6A;}
	.st22{fill:#E8E7E7;}
	.st23{fill:#B6504F;}
	.st24{fill:#CC5A5B;}
	.st25{fill:#EBECEC;}
	.st26{fill:#4A72B7;}
	.st27{fill:#5982C2;}
	.st28{fill:#C7C7C7;}
	.st29{fill:#D7D5DC;}
	.st30{opacity:0.8;fill:#D7D5DC;enable-background:new    ;}
	.st31{fill:#C5C6D4;}
	.st32{fill:#C6C6CB;}
	.st33{opacity:0.3;fill:#C6C6CB;enable-background:new    ;}
	.st34{fill:#9ED2DE;}
	.st35{opacity:0.6;fill:#9ED2DE;enable-background:new    ;}
	.st36{fill:#AFDFE8;}
</style>
<g>
	<g id="XMLID_235_">
		<g id="XMLID_391_">
			<path id="XMLID_393_" class="st0" d="M32,33.2c0-0.3,0.2-0.8,0.5-0.9l6.2-3.6c0.8-0.4,1.8-0.4,2.6,0l6.2,3.6
				c0.3,0.2,0.5,0.5,0.5,0.9s0,21.6,0,21.9c0,0.4-0.2,0.8-0.5,1l-6.2,3.6c-0.8,0.4-1.8,0.4-2.6,0L32.5,56c-0.3-0.2-0.5-0.5-0.5-0.9
				C32,54.8,32,33.5,32,33.2z"/>
			<path id="XMLID_16301_" class="st1" d="M41.3,59.7c-0.8,0.4-1.8,0.4-2.6,0L32.5,56c-0.3-0.2-0.5-0.5-0.5-0.9c0-0.4,0-21.6,0-22.1
				c0-0.3,0.2-0.8,0.5-0.9l6.2-3.6c0.8-0.4,1.8-0.4,2.6,0l6.2,3.6c0.3,0.2,0.5,0.5,0.5,0.9"/>
			<path class="st2" d="M39.9,60c-0.4,0-0.8-0.2-1.2-0.3L32.5,56c-0.3-0.2-0.5-0.5-0.5-0.9c0-0.4,0-21.6,0-22.1
				c0-0.3,0.2-0.8,0.5-0.9l6.2-3.6l0,0h1.1L39.9,60L39.9,60z"/>
			<path class="st3" d="M32,33.2c0-0.3,0.2-0.8,0.5-0.9l6.2-3.6l0,0h1.1V60c-0.4,0-0.8-0.2-1.2-0.3"/>
			<path id="XMLID_392_" class="st4" d="M38.7,28.7l-6.2,3.5c-0.7,0.4-0.7,1.5,0,1.9l6.2,3.6c0.8,0.4,1.8,0.4,2.6,0l6.2-3.6
				c0.7-0.4,0.7-1.5,0-1.9l-6.2-3.6C40.5,28.2,39.5,28.2,38.7,28.7z"/>
			<path id="XMLID_16300_" class="st5" d="M32.5,32.2c-0.7,0.4-0.7,1.5,0,1.9l6.2,3.6c0.8,0.4,1.8,0.4,2.6,0l6.2-3.6
				c0.7-0.4,0.7-1.5,0-1.9"/>
			<path class="st3" d="M43.6,36.4l-2.2,1.3c-0.8,0.4-1.8,0.4-2.6,0l-2.6-1.5v-3.8h7.4C43.6,32.4,43.6,36.4,43.6,36.4z"/>
			<path class="st6" d="M32.5,33.7l6.2,3.6c0.8,0.4,1.8,0.4,2.6,0l6.2-3.6c0.3-0.2,0.4-0.4,0.5-0.8c0.1,0.4-0.1,0.9-0.5,1.1
				l-6.2,3.6c-0.8,0.4-1.8,0.4-2.6,0l-6.2-3.6c-0.4-0.3-0.6-0.7-0.5-1.1C32.1,33.3,32.2,33.5,32.5,33.7z"/>
		</g>
		<g id="XMLID_4704_">
			<g id="XMLID_4706_">
				<path id="XMLID_4707_" class="st7" d="M36.1,31.1c0-0.7,0.4-1.3,1.3-1.8l0,0c1-0.6,2.4-0.8,3.7-0.5l0,0c1.6,0.3,2.5,1.4,2.5,2.3
					c0,0.7,0,0.9,0,0.9c0,0.7-0.4,1.4-1.3,1.9l0,0c-1,0.6-2.4,0.8-3.7,0.5l0,0c-1.6-0.3-2.4-1.3-2.5-2.3V31.1z"/>
			</g>
			<g id="XMLID_347_">
				<g id="XMLID_388_">
					<path id="XMLID_390_" class="st8" d="M36.8,28L36.8,28c-2.8,1.6-1.9,4.7,1.6,5.4l0,0c1.6,0.3,3.4,0.2,4.7-0.6l0,0
						c2.8-1.6,1.9-4.7-1.6-5.4l0,0C39.8,27.1,38.1,27.2,36.8,28z"/>
					<path id="XMLID_389_" class="st9" d="M36.8,28L36.8,28c-2.8,1.6-1.9,4.7,1.6,5.4l0,0c1.6,0.3,3.4,0.2,4.7-0.6l0,0
						c2.8-1.6,1.9-4.7-1.6-5.4l0,0C39.8,27.1,38.1,27.2,36.8,28z"/>
				</g>
				<path id="XMLID_387_" class="st7" d="M35.6,28.6c-0.1-0.9,0.4-1.7,1.5-2.3l0,0c1.2-0.7,2.8-0.9,4.2-0.6l0,0c2,0.4,3,1.7,2.9,2.9
					c0,0.2,0,0.9,0,1c-0.1,0.8-0.5,1.6-1.5,2.1l0,0c-1.2,0.7-2.8,0.9-4.2,0.6l0,0c-1.8-0.4-2.8-1.5-2.9-2.6
					C35.6,29.6,35.6,28.8,35.6,28.6z"/>
				<g id="XMLID_380_">
					<path id="XMLID_386_" class="st9" d="M36.8,25.3L36.8,25.3c-2.8,1.6-1.9,4.7,1.6,5.4l0,0c1.6,0.3,3.4,0.2,4.7-0.6l0,0
						c2.8-1.6,1.9-4.7-1.6-5.4l0,0C39.8,24.4,38.1,24.6,36.8,25.3z"/>
				</g>
				<path id="XMLID_370_" class="st7" d="M35.6,24.7c-0.1-0.9,0.4-1.7,1.5-2.3l0,0c1.2-0.7,2.8-0.9,4.2-0.6l0,0c2,0.4,3,1.7,2.9,2.9
					c0,0.2,0,2,0,2.2c-0.1,0.8-0.5,1.6-1.5,2.1l0,0c-1.2,0.7-2.8,0.9-4.2,0.6l0,0c-1.8-0.4-2.8-1.5-2.9-2.6
					C35.6,26.8,35.6,24.9,35.6,24.7z"/>
				<path class="st10" d="M35.6,26.5c0-0.4,0-1,0-1.4c-0.2-0.3-0.3-0.6-0.3-0.9c0-0.3-0.1-0.7,0-0.9c0-0.9,0.5-1.8,1.6-2.5l0,0
					c1.3-0.8,3-0.9,4.7-0.6c0.1,0,0.2,0,0.2,0.1v14.1c-0.9,0.3-2,0.4-3,0.2l0,0c-1.5-0.3-2.3-1.1-2.5-2.1c-1-0.9-1.3-2.2-0.6-3.3
					v-0.1C35.1,28.3,35.1,27.3,35.6,26.5z"/>
				<path class="st10" d="M39.8,34.7c-0.4,0-0.8-0.1-1.2-0.2l0,0c-1.5-0.3-2.3-1.1-2.5-2.1c-1-0.9-1.3-2.2-0.6-3.3v-0.1
					c-0.5-0.8-0.5-1.7,0-2.6c0-0.4,0-1,0-1.4c-0.2-0.3-0.3-0.6-0.3-0.9c0-0.3-0.1-0.7,0-0.9c0-0.9,0.4-1.6,1.4-2.3h3.3
					C39.8,20.9,39.8,34.7,39.8,34.7z"/>
				<g id="XMLID_348_">
					<path id="XMLID_369_" class="st11" d="M36.8,20.9L36.8,20.9c1.3-0.8,3-0.9,4.7-0.6l0,0c1.9,0.4,3,1.6,3.2,2.8
						c0,0.3,0,0.8,0,0.9c-0.1,0.8-0.6,1.6-1.6,2.2l0,0c-1.3,0.8-3,0.9-4.7,0.6l0,0c-1.8-0.4-2.9-1.5-3.1-2.6c-0.1-0.3-0.1-0.9,0-1.1
						C35.3,22.2,35.8,21.5,36.8,20.9z"/>
					<path id="XMLID_368_" class="st12" d="M36.8,20.8L36.8,20.8c-2.8,1.6-1.9,4.7,1.6,5.4l0,0c1.6,0.3,3.4,0.2,4.7-0.6l0,0
						c2.8-1.6,1.9-4.7-1.6-5.4l0,0C39.8,19.8,38.1,20,36.8,20.8z"/>
					<path id="XMLID_367_" class="st13" d="M37.9,21L37.9,21c-1.7,1-1.2,2.9,0.9,3.4l0,0c1,0.3,2.2,0.1,2.9-0.4l0,0
						c1.7-1,1.2-2.9-0.9-3.4l0,0C39.9,20.4,38.8,20.5,37.9,21z"/>
					<path id="XMLID_363_" class="st14" d="M38.1,21.2L38.1,21.2c-1.6,0.9-1.1,2.8,0.9,3.3l0,0c0.9,0.3,2,0.1,2.8-0.3l0,0
						c1.6-0.9,1.1-2.8-0.9-3.3l0,0C39.9,20.6,38.8,20.8,38.1,21.2z"/>
					<path id="XMLID_360_" class="st15" d="M38.4,21.7L38.4,21.7c-1.3,0.8-0.9,2.2,0.8,2.6l0,0c0.8,0.2,1.6,0.1,2.2-0.3l0,0
						c1.3-0.8,0.9-2.2-0.8-2.6l0,0C39.9,21.2,39.1,21.3,38.4,21.7z"/>
					<path id="XMLID_16303_" class="st10" d="M38.4,21.7L38.4,21.7c-1.3,0.8-0.9,2.2,0.8,2.6l0,0c0.8,0.2,1.6,0.1,2.2-0.3l0,0"/>
				</g>
			</g>
		</g>
		<g id="XMLID_245_">
			<g id="XMLID_246_">
				<polygon id="XMLID_340_" class="st2" points="45.5,38.1 46.9,37.3 46.9,45.4 45.5,44.6 				"/>
				<polyline id="XMLID_16304_" class="st3" points="45.5,44.6 45.5,38.1 46.9,37.3 				"/>
				<polygon id="XMLID_338_" class="st16" points="41.6,46.8 45.5,44.6 46.9,45.4 41.6,48.4 				"/>
				<polygon id="XMLID_337_" class="st17" points="41.6,47 45.4,44.7 46.6,45.4 41.6,48.2 				"/>
				<polygon id="XMLID_336_" class="st18" points="45.5,38.1 45.5,44.6 41.6,46.8 41.6,40.3 				"/>
				<polyline id="XMLID_16305_" class="st19" points="41.6,40.3 45.5,38.1 45.5,44.6 				"/>
				<g id="XMLID_268_">
					<g id="XMLID_288_">
						<g id="XMLID_332_">
							<path id="XMLID_335_" class="st20" d="M46.3,45.4L46.3,45.4l-0.9-0.5L45.3,45l0,0l0.2-0.1L46.3,45.4L46.3,45.4L46.3,45.4
								L46.3,45.4z"/>
							<path id="XMLID_334_" class="st21" d="M46.3,45.5L46.3,45.5C46.2,45.5,46.2,45.5,46.3,45.5C46.2,45.5,46.2,45.5,46.3,45.5
								L45.3,45l0.1-0.1L46.3,45.5L46.3,45.5C46.3,45.4,46.3,45.4,46.3,45.5L46.3,45.5z"/>
						</g>
						<g id="XMLID_329_">
							<path id="XMLID_331_" class="st20" d="M46,45.6L46,45.6l-0.9-0.5L45,45.2l0,0l0.2-0.1L46,45.6L46,45.6L46,45.6L46,45.6z"/>
							<path id="XMLID_330_" class="st21" d="M46,45.7L46,45.7C45.9,45.7,45.9,45.7,46,45.7C45.9,45.7,45.9,45.7,46,45.7l-1-0.5
								l0.1-0.1L46,45.7L46,45.7C46,45.6,46,45.6,46,45.7C46,45.6,46,45.7,46,45.7z"/>
						</g>
						<g id="XMLID_316_">
							<path id="XMLID_328_" class="st20" d="M45.8,45.8L45.8,45.8l-0.9-0.5l-0.1,0.1l0,0l0.2-0.1L45.8,45.8L45.8,45.8
								C45.8,45.7,45.8,45.8,45.8,45.8L45.8,45.8z"/>
							<path id="XMLID_327_" class="st21" d="M45.8,45.8L45.8,45.8C45.7,45.9,45.7,45.8,45.8,45.8C45.7,45.8,45.7,45.8,45.8,45.8
								l-0.9-0.5l0.1-0.1L45.8,45.8L45.8,45.8L45.8,45.8L45.8,45.8z"/>
						</g>
						<g id="XMLID_310_">
							<path id="XMLID_315_" class="st20" d="M45.5,45.9L45.5,45.9l-0.9-0.5l-0.1,0.1l0,0l0.2-0.1L45.5,45.9L45.5,45.9
								C45.5,45.9,45.5,45.9,45.5,45.9C45.5,45.9,45.5,45.9,45.5,45.9z"/>
							<path id="XMLID_314_" class="st21" d="M45.5,45.9L45.5,45.9C45.4,45.9,45.4,45.9,45.5,45.9C45.4,45.9,45.4,45.9,45.5,45.9
								l-0.9-0.5l0.1-0.1L45.5,45.9L45.5,45.9L45.5,45.9L45.5,45.9z"/>
						</g>
						<g id="XMLID_307_">
							<path id="XMLID_309_" class="st20" d="M45.3,46L45.3,46l-0.9-0.5l-0.1,0.1l0,0l0.2-0.1L45.3,46L45.3,46L45.3,46L45.3,46z"/>
							<path id="XMLID_308_" class="st21" d="M45.3,46.1L45.3,46.1C45.2,46.1,45.2,46.1,45.3,46.1C45.2,46.1,45.2,46.1,45.3,46.1
								l-0.9-0.5l0.1-0.1L45.3,46.1L45.3,46.1C45.3,46,45.3,46,45.3,46.1L45.3,46.1z"/>
						</g>
						<g id="XMLID_304_">
							<path id="XMLID_306_" class="st20" d="M45,46.2L45,46.2l-0.9-0.5L44,45.8l0,0l0.2-0.1L45,46.2L45,46.2L45,46.2L45,46.2z"/>
							<path id="XMLID_305_" class="st21" d="M45,46.3L45,46.3C44.9,46.3,44.9,46.3,45,46.3C44.9,46.2,44.9,46.2,45,46.3l-0.9-0.5
								l0.1-0.1L45,46.3L45,46.3C45,46.2,45,46.2,45,46.3C45,46.2,45,46.3,45,46.3z"/>
						</g>
						<g id="XMLID_301_">
							<path id="XMLID_303_" class="st20" d="M44.7,46.4L44.7,46.4l-0.9-0.5l-0.1,0.1l0,0l0.2-0.1L44.7,46.4L44.7,46.4
								C44.7,46.3,44.7,46.4,44.7,46.4L44.7,46.4z"/>
							<path id="XMLID_302_" class="st21" d="M44.7,46.4L44.7,46.4C44.7,46.4,44.7,46.4,44.7,46.4C44.7,46.4,44.7,46.4,44.7,46.4
								l-0.9-0.5l0.1-0.1L44.7,46.4L44.7,46.4L44.7,46.4L44.7,46.4z"/>
						</g>
						<g id="XMLID_298_">
							<path id="XMLID_300_" class="st20" d="M44.5,46.5L44.5,46.5l-0.9-0.5L43.4,46l0,0l0.2-0.1L44.5,46.5L44.5,46.5L44.5,46.5
								C44.5,46.6,44.5,46.5,44.5,46.5z"/>
							<path id="XMLID_299_" class="st21" d="M44.5,46.6L44.5,46.6C44.4,46.6,44.4,46.6,44.5,46.6C44.4,46.6,44.4,46.6,44.5,46.6
								l-1-0.5l0.1-0.1L44.5,46.6L44.5,46.6C44.5,46.5,44.5,46.6,44.5,46.6L44.5,46.6z"/>
						</g>
						<g id="XMLID_295_">
							<path id="XMLID_297_" class="st20" d="M44.2,46.6L44.2,46.6l-0.9-0.5l-0.1,0.1l0,0l0.1-0.1L44.2,46.6L44.2,46.6L44.2,46.6
								L44.2,46.6z"/>
							<path id="XMLID_296_" class="st21" d="M44.2,46.7L44.2,46.7C44.1,46.7,44.1,46.7,44.2,46.7C44.1,46.7,44.1,46.7,44.2,46.7
								l-0.9-0.5l0.1-0.1L44.2,46.7L44.2,46.7C44.2,46.6,44.2,46.6,44.2,46.7L44.2,46.7z"/>
						</g>
						<g id="XMLID_292_">
							<path id="XMLID_294_" class="st20" d="M44,46.8L44,46.8L43,46.3l-0.1,0.1l0,0l0.2-0.1L44,46.8L44,46.8L44,46.8L44,46.8z"/>
							<path id="XMLID_293_" class="st21" d="M44,46.9L44,46.9C43.9,46.9,43.9,46.9,44,46.9C43.9,46.8,43.9,46.8,44,46.9L43,46.4
								l0.1-0.1L44,46.9L44,46.9C44,46.8,44,46.8,44,46.9C44,46.8,44,46.8,44,46.9z"/>
						</g>
						<g id="XMLID_289_">
							<path id="XMLID_291_" class="st20" d="M43.7,47L43.7,47l-0.9-0.5l-0.1,0.1l0,0l0.2-0.1L43.7,47L43.7,47
								C43.7,46.9,43.7,47,43.7,47L43.7,47z"/>
							<path id="XMLID_290_" class="st21" d="M43.7,47L43.7,47C43.6,47,43.6,47,43.7,47C43.6,47,43.6,47,43.7,47l-0.9-0.5l0.1-0.1
								L43.7,47L43.7,47L43.7,47L43.7,47z"/>
						</g>
					</g>
					<g id="XMLID_269_">
						<g id="XMLID_285_">
							<path id="XMLID_287_" class="st20" d="M43.4,47.1L43.4,47.1l-0.9-0.5l-0.1,0.1l0,0l0.2-0.1L43.4,47.1L43.4,47.1L43.4,47.1
								C43.4,47.2,43.4,47.1,43.4,47.1z"/>
							<path id="XMLID_286_" class="st21" d="M43.4,47.2L43.4,47.2C43.4,47.2,43.4,47.2,43.4,47.2C43.4,47.2,43.4,47.2,43.4,47.2
								l-0.9-0.5l0.1-0.1L43.4,47.2L43.4,47.2C43.4,47.1,43.4,47.2,43.4,47.2L43.4,47.2z"/>
						</g>
						<g id="XMLID_282_">
							<path id="XMLID_284_" class="st20" d="M43.2,47.2L43.2,47.2l-0.9-0.5l-0.1,0.1l0,0l0.2-0.1L43.2,47.2L43.2,47.2L43.2,47.2
								L43.2,47.2z"/>
							<path id="XMLID_283_" class="st21" d="M43.2,47.3L43.2,47.3C43.1,47.3,43.1,47.3,43.2,47.3C43.1,47.3,43.1,47.3,43.2,47.3
								l-0.9-0.5l0.1-0.1L43.2,47.3L43.2,47.3C43.2,47.2,43.2,47.2,43.2,47.3L43.2,47.3z"/>
						</g>
						<g id="XMLID_279_">
							<path id="XMLID_281_" class="st20" d="M42.9,47.4L42.9,47.4L42,46.9h-0.1l0,0l0.2-0.1L42.9,47.4L42.9,47.4L42.9,47.4
								L42.9,47.4z"/>
							<path id="XMLID_280_" class="st21" d="M42.9,47.4L42.9,47.4C42.8,47.5,42.8,47.5,42.9,47.4C42.8,47.4,42.8,47.4,42.9,47.4
								l-1-0.5l0.1-0.1L42.9,47.4L42.9,47.4L42.9,47.4L42.9,47.4z"/>
						</g>
						<g id="XMLID_270_">
							<path id="XMLID_278_" class="st20" d="M42.7,47.6L42.7,47.6L41.7,47l-0.1,0.1l0,0l0.1-0.1L42.7,47.6L42.7,47.6
								C42.7,47.5,42.7,47.6,42.7,47.6L42.7,47.6z"/>
							<path id="XMLID_277_" class="st21" d="M41.7,47l0.9,0.5l0,0l0,0c0,0,0,0-0.1,0h-0.1l0,0L41.7,47L41.7,47L41.7,47z"/>
							<path id="XMLID_276_" class="st20" d="M42.4,47.7L42.4,47.7l-0.8-0.4l0,0L42.4,47.7L42.4,47.7L42.4,47.7L42.4,47.7z"/>
							<path id="XMLID_275_" class="st21" d="M42.4,47.7L42.4,47.7L42.4,47.7C42.4,47.8,42.4,47.8,42.4,47.7
								C42.3,47.8,42.3,47.8,42.4,47.7L42.4,47.7l-0.7-0.3v-0.1L42.4,47.7z"/>
							<path id="XMLID_274_" class="st20" d="M42.2,47.8L42.2,47.8l-0.5-0.3l0,0L42.2,47.8L42.2,47.8L42.2,47.8L42.2,47.8z"/>
							<path id="XMLID_273_" class="st21" d="M42.2,47.8L42.2,47.8L42.2,47.8C42.2,47.8,42.2,47.9,42.2,47.8
								C42.1,47.9,42.1,47.9,42.2,47.8L42.2,47.8l-0.4-0.1v-0.1L42.2,47.8z"/>
							<path id="XMLID_272_" class="st20" d="M41.9,48L41.9,48l-0.3-0.1l0,0L41.9,48L41.9,48C41.9,47.9,41.9,48,41.9,48L41.9,48z"/>
							<path id="XMLID_271_" class="st21" d="M41.9,48L41.9,48L41.9,48L41.9,48C41.8,48.1,41.8,48.1,41.9,48L41.9,48h-0.2v-0.1
								L41.9,48z"/>
						</g>
					</g>
				</g>
				<g id="XMLID_247_">
					<g id="XMLID_258_">
						<g id="XMLID_266_">
							<path id="XMLID_267_" class="st5" d="M43.7,40.7c-0.1,0-0.1-0.1-0.1-0.2l0,0c0-0.1,0.1-0.3,0.1-0.3l0,0
								c0.1-0.1,0.2-0.2,0.3-0.1c0.1,0,1.1,0.7,1.2,0.7c0.1,0,0.1,0.1,0.1,0.2l0,0c0,0.1-0.1,0.3-0.1,0.3l0,0
								c-0.1,0.1-0.2,0.1-0.3,0.1S43.7,40.8,43.7,40.7z"/>
						</g>
						<path class="st4" d="M44.1,40.2c0.1,0,1.1,0.7,1.2,0.7c0,0,0,0,0.1,0.1c0,0.1-0.1,0.1-0.1,0.1c-0.1,0.1-0.2,0.1-0.3,0.1
							s-1.2-0.7-1.2-0.7s0,0-0.1,0c0-0.1,0.1-0.1,0.1-0.1C43.8,40.2,44,40.1,44.1,40.2z"/>
						<g id="XMLID_264_">
							<path id="XMLID_265_" class="st5" d="M45.1,41.2C45.1,41.1,45.1,41.1,45.1,41.2L45.1,41.2c0.2-0.1,0.3-0.2,0.3-0.1l0,0
								c0.1,0,0.2,0.1,0.2,0.2s0,0.6,0,0.6c0,0.1,0,0.1-0.1,0.1l0,0c-0.1,0-0.2,0.1-0.3,0l0,0c-0.1,0-0.2-0.1-0.2-0.2
								S45.1,41.2,45.1,41.2z"/>
						</g>
						<g id="XMLID_262_">
							<path id="XMLID_263_" class="st22" d="M44.8,40.2c0-0.1,0.1-0.2,0.2-0.3l0,0c0.2-0.1,0.3-0.1,0.5-0.1l0,0
								c0.2,0.1,0.3,0.2,0.3,0.3c0,0.1,0,1.1,0,1.3c0,0.1-0.1,0.2-0.2,0.3l0,0c-0.2,0.1-0.3,0.1-0.5,0.1l0,0
								c-0.2-0.1-0.3-0.2-0.3-0.3C44.8,41.4,44.8,40.3,44.8,40.2z"/>
						</g>
						<g id="XMLID_259_">
							<path id="XMLID_261_" class="st23" d="M44.7,40C44.7,40,44.7,39.9,44.7,40l0.3-0.3c0.1-0.1,0.2-0.1,0.3,0l0.8,0.3l0.1,0.1
								v0.2c0,0,0,0.1-0.1,0.1l-0.4,0.3c-0.1,0.1-0.2,0.1-0.3,0l-0.6-0.4l-0.1-0.1C44.7,40.1,44.7,40,44.7,40z"/>
							<path id="XMLID_260_" class="st24" d="M45.1,39.7l-0.3,0.2c-0.1,0.1-0.1,0.2,0,0.2l0.6,0.4c0.1,0.1,0.2,0.1,0.3,0l0.4-0.3
								c0.1-0.1,0.1-0.2,0-0.2l-0.8-0.3C45.3,39.7,45.2,39.7,45.1,39.7z"/>
						</g>
					</g>
					<g id="XMLID_248_">
						<g id="XMLID_256_">
							<path id="XMLID_257_" class="st5" d="M41.8,41.8c0-0.1-0.1-0.1-0.1-0.2l0,0c0-0.1,0.1-0.3,0.1-0.3l0,0
								c0.1-0.1,0.2-0.2,0.3-0.1c0.1,0,1.1,0.7,1.2,0.7c0.1,0,0.1,0.1,0.1,0.2l0,0c0,0.1-0.1,0.3-0.1,0.3l0,0
								c-0.1,0.1-0.2,0.1-0.3,0.1C43,42.5,41.9,41.8,41.8,41.8z"/>
						</g>
						<path class="st4" d="M42.2,41.2c0.1,0,1.1,0.7,1.2,0.7c0,0,0,0,0.1,0.1c0,0.1-0.1,0.1-0.1,0.1c-0.1,0.1-0.2,0.1-0.3,0.1
							s-1.2-0.7-1.2-0.7s0,0-0.1,0c0-0.1,0.1-0.1,0.1-0.1l0,0C42,41.2,42.1,41.2,42.2,41.2z"/>
						<g id="XMLID_254_">
							<path id="XMLID_255_" class="st25" d="M43.2,42.2C43.2,42.2,43.2,42.2,43.2,42.2L43.2,42.2c0.2-0.1,0.3-0.2,0.3-0.1l0,0
								c0.1,0,0.2,0.1,0.2,0.2c0,0.1,0,0.6,0,0.6c0,0.1,0,0.1-0.1,0.1l0,0c-0.1,0-0.2,0.1-0.3,0l0,0c-0.1,0-0.2-0.1-0.2-0.2V42.2z"
								/>
						</g>
						<g id="XMLID_252_">
							<path id="XMLID_253_" class="st22" d="M42.9,41.3c0-0.1,0.1-0.2,0.2-0.3l0,0c0.2-0.1,0.3-0.1,0.5-0.1l0,0
								c0.2,0.1,0.3,0.2,0.3,0.3c0,0.1,0,1.1,0,1.3c0,0.1-0.1,0.2-0.2,0.3l0,0c-0.2,0.1-0.3,0.1-0.5,0.1l0,0
								c-0.2-0.1-0.3-0.2-0.3-0.3C42.9,42.4,42.9,41.4,42.9,41.3z"/>
						</g>
						<g id="XMLID_249_">
							<path id="XMLID_251_" class="st26" d="M42.8,41C42.8,41,42.8,40.9,42.8,41l0.3-0.3c0.1-0.1,0.2-0.1,0.3,0l0.8,0.3l0.1,0.1
								v0.2c0,0,0,0.1-0.1,0.1l-0.4,0.3c-0.1,0.1-0.2,0.1-0.3,0l-0.6-0.4l-0.1-0.1C42.8,41.1,42.8,41.1,42.8,41z"/>
							<path id="XMLID_250_" class="st27" d="M43.2,40.8l-0.3,0.2c-0.1,0.1-0.1,0.2,0,0.2l0.6,0.4c0.1,0.1,0.2,0.1,0.3,0l0.4-0.3
								c0.1-0.1,0.1-0.2,0-0.2l-0.8-0.3C43.4,40.7,43.3,40.7,43.2,40.8z"/>
						</g>
					</g>
				</g>
			</g>
		</g>
		<g id="XMLID_236_">
			<polygon id="XMLID_244_" class="st18" points="46.9,47.3 46.9,54.5 41.6,57.5 41.6,50.3 			"/>
			<g id="XMLID_237_">
				<polygon id="XMLID_243_" class="st22" points="46.6,47.7 46.6,54.3 41.9,57.1 41.9,50.4 				"/>
				<polyline id="XMLID_16302_" class="st1" points="41.9,57.1 41.9,50.4 46.6,47.7 				"/>
				<polygon id="XMLID_242_" class="st18" points="46.7,48.3 46.7,53.9 46.6,54 46.6,48.4 				"/>
				<g id="XMLID_238_">
					<polygon id="XMLID_241_" class="st17" points="42.2,53.7 42.2,53.4 42.4,53.5 42.4,53.9 42.4,53.9 					"/>
					<polygon id="XMLID_240_" class="st18" points="43.5,52.8 43.5,53.3 42.4,53.9 42.4,53.5 					"/>
					<polygon id="XMLID_239_" class="st28" points="42.7,53 42.7,53 42.8,53.1 43.4,52.8 43.4,52.8 43.5,52.8 42.4,53.5 42.2,53.4 
											"/>
				</g>
			</g>
		</g>
	</g>
	<g id="XMLID_16315_">
		<g id="XMLID_16329_">
			<path id="XMLID_16333_" class="st29" d="M42.5,44.5c0-0.2,0.2-0.4,0.3-0.5l0,0c0.3-0.2,0.7-0.3,1-0.2l0,0
				c0.4,0.1,0.7,0.4,0.7,0.7c0,0.2-0.4,1.6-0.4,1.8c0,0.2-0.1,0.3-0.3,0.3l0,0c-0.2,0.1-0.4,0.2-0.7,0.1l0,0
				c-0.3-0.1-0.4-0.3-0.4-0.4C42.8,46.1,42.5,44.7,42.5,44.5z"/>
			<path class="st30" d="M42.8,46.3c0-0.2-0.4-1.6-0.4-1.8c0-0.1,0.1-0.3,0.2-0.3c0.3-0.1,0.6-0.2,0.9-0.1c0.4,0.1,0.7,0.4,0.7,0.7
				c0,0.2-0.4,1.6-0.4,1.8c0,0.1,0,0.1-0.1,0.2c-0.2,0.1-0.3,0.1-0.5,0C43,46.6,42.8,46.5,42.8,46.3z"/>
			<path id="XMLID_16332_" class="st5" d="M42.8,44L42.8,44c-0.6,0.3-0.4,1,0.3,1.3l0,0c0.3,0.1,0.8,0,1-0.2l0,0
				c0.6-0.3,0.4-1-0.3-1.3l0,0C43.5,43.7,43.1,43.8,42.8,44z"/>
			<path id="XMLID_16331_" class="st5" d="M42.8,43.9L42.8,43.9c-0.7,0.4-0.4,1.1,0.3,1.3l0,0c0.3,0.1,0.8,0,1.1-0.2l0,0
				c0.7-0.4,0.4-1.1-0.3-1.3l0,0C43.5,43.6,43.1,43.7,42.8,43.9z"/>
			<path id="XMLID_16330_" class="st5" d="M42.8,43.8L42.8,43.8c-0.6,0.3-0.4,1,0.3,1.3l0,0c0.3,0.1,0.8,0,1-0.2l0,0
				c0.6-0.3,0.4-1-0.3-1.3l0,0C43.5,43.6,43.1,43.6,42.8,43.8z"/>
		</g>
		<path id="XMLID_16328_" class="st31" d="M42.9,43.9L42.9,43.9c-0.6,0.3-0.4,1,0.3,1.2l0,0c0.3,0.1,0.7,0,1-0.2l0,0
			c0.6-0.3,0.4-1-0.3-1.2l0,0C43.5,43.7,43.2,43.7,42.9,43.9z"/>
		<g id="XMLID_16323_">
			<path id="XMLID_16327_" class="st32" d="M43.9,44.1L43.9,44.1c-0.3-0.1-0.7,0-1,0.2l0,0c-0.2,0.1-0.3,0.3-0.3,0.3
				c-0.1-0.3,0-0.5,0.3-0.7l0,0c0.3-0.2,0.7-0.2,1-0.2l0,0c0.5,0.1,0.8,0.5,0.7,0.9C44.5,44.4,44.2,44.2,43.9,44.1z"/>
			<path class="st33" d="M42.9,44.1c0.3-0.2,0.7-0.2,1-0.2c0.4,0.1,0.6,0.3,0.7,0.6v0.1c-0.1-0.2-0.3-0.4-0.7-0.5
				c-0.3-0.1-0.7,0-1,0.2c-0.2,0.1-0.3,0.3-0.3,0.3v-0.1C42.6,44.4,42.7,44.2,42.9,44.1z"/>
			<path id="XMLID_16326_" class="st34" d="M44.2,44.9L44.2,44.9c-0.3,0.2-0.7,0.2-1,0.2l0,0c-0.3-0.1-0.6-0.3-0.7-0.5
				c0.1-0.1,0.2-0.3,0.3-0.3l0,0c0.3-0.2,0.7-0.2,1-0.2l0,0c0.3,0.1,0.6,0.3,0.7,0.5C44.5,44.7,44.4,44.8,44.2,44.9z"/>
			<path id="XMLID_16325_" class="st35" d="M43.9,44.1"/>
			<path id="XMLID_16324_" class="st35" d="M44.2,44.9L44.2,44.9c-0.3,0.2-0.7,0.2-1,0.2l0,0c-0.3-0.1-0.6-0.3-0.7-0.5
				c0.1-0.1,0.2-0.3,0.3-0.3l0,0"/>
		</g>
		<path id="XMLID_16322_" class="st36" d="M44,44.5L44,44.5c-0.1,0.1-0.1,0.2,0.1,0.2l0,0c0.1,0,0.1,0,0.2,0l0,0
			c0.1-0.1,0.1-0.2-0.1-0.2l0,0C44.1,44.5,44.1,44.5,44,44.5z"/>
		<path id="XMLID_16321_" class="st34" d="M44,44.5L44,44.5C43.9,44.5,44,44.6,44,44.5L44,44.5L44,44.5L44,44.5
			C44.1,44.6,44.1,44.5,44,44.5L44,44.5C44.1,44.5,44.1,44.5,44,44.5z"/>
		<path id="XMLID_16320_" class="st36" d="M43.4,44.8L43.4,44.8C43.4,44.9,43.4,44.9,43.4,44.8L43.4,44.8
			C43.4,44.9,43.4,44.9,43.4,44.8L43.4,44.8C43.5,44.9,43.5,44.8,43.4,44.8L43.4,44.8C43.4,44.8,43.4,44.8,43.4,44.8z"/>
		<path id="XMLID_16319_" class="st34" d="M43.4,44.8L43.4,44.8C43.4,44.9,43.4,44.9,43.4,44.8L43.4,44.8
			C43.4,44.9,43.4,44.9,43.4,44.8L43.4,44.8C43.4,44.9,43.4,44.8,43.4,44.8L43.4,44.8C43.4,44.8,43.4,44.8,43.4,44.8z"/>
		<path id="XMLID_16318_" class="st36" d="M43,44.4L43,44.4C42.9,44.4,43,44.5,43,44.4L43,44.4L43,44.4L43,44.4
			C43.2,44.5,43.1,44.4,43,44.4L43,44.4L43,44.4z"/>
		<path id="XMLID_16317_" class="st34" d="M43,44.4L43,44.4C43,44.4,43,44.5,43,44.4L43,44.4C43.1,44.5,43.1,44.5,43,44.4L43,44.4
			C43.2,44.4,43.2,44.4,43,44.4L43,44.4C43.1,44.4,43.1,44.4,43,44.4z"/>
	</g>
</g>
</svg>
