<?xml version="1.0" encoding="utf-8"?>
<!-- Generator: Adobe Illustrator 21.0.0, SVG Export Plug-In . SVG Version: 6.00 Build 0)  -->
<svg version="1.1" xmlns="http://www.w3.org/2000/svg" xmlns:xlink="http://www.w3.org/1999/xlink" x="0px" y="0px"
	 viewBox="0 0 80 80" style="enable-background:new 0 0 80 80;" xml:space="preserve">
<style type="text/css">
	.st0{fill:#19191C;}
	.st1{fill:#48484A;}
	.st2{fill:#414143;}
	.st3{fill:#353538;}
	.st4{opacity:0.2;fill:#353538;}
	.st5{fill:#A4A3A3;}
	.st6{fill:#D0D1D2;}
	.st7{opacity:0.6;fill:#569DC0;}
	.st8{opacity:0.2;fill:#569DC0;}
</style>
<g id="Layer_1">
</g>
<g id="Layer_2">
	<g>
		<g>
			<g>
				<g>
					<g>
						<g>
							<polygon class="st0" points="55.6,16.4 51.8,18.6 51.8,79.2 55.6,77 							"/>
							<polyline class="st0" points="55.6,16.4 51.8,18.6 51.8,79.2 							"/>
							<polygon class="st1" points="28.2,0.6 24.4,2.8 51.8,18.6 55.6,16.4 							"/>
							<polyline class="st2" points="24.4,2.8 51.8,18.6 55.6,16.4 							"/>
						</g>
					</g>
				</g>
			</g>
			<g>
				<path class="st3" d="M24.4,2.8v60.6l27.4,15.8V18.6L24.4,2.8z M50.1,48L29.9,36.4V12.4l20.2,11.6L50.1,48z"/>
			</g>
			<g>
				<path class="st4" d="M24.4,2.8v34.9l27.4,41.5V18.6L24.4,2.8z M50.1,48L29.9,36.4V12.4l20.2,11.6L50.1,48z"/>
			</g>
			<g>
				<polygon class="st0" points="29.9,12.4 26.2,10.3 26.2,38.5 29.9,36.3 				"/>
				<g>
					<g>
						<g>
							<polygon class="st5" points="35.6,15.7 35.6,26.8 37.8,25.1 37.8,17 							"/>
						</g>
						<polygon class="st6" points="33.6,20.2 29.4,17.7 27.1,19 33.6,22.8 						"/>
						<polygon class="st3" points="27.1,19 27.1,21.9 33.6,25.6 33.6,22.8 						"/>
					</g>
					<polygon class="st7" points="33,22.4 27.1,19 27.1,10.8 33,14.2 					"/>
				</g>
				<g>
					<polygon class="st2" points="26.2,38.5 50.1,52.3 50.1,47.9 29.9,36.3 					"/>
					<polygon class="st7" points="50.1,51.3 27.1,37.9 27.1,21.9 50.1,35.1 					"/>
					<polyline class="st8" points="27.1,21.9 50.1,35.1 50.1,51.3 					"/>
				</g>
			</g>
		</g>
		<g>
			<polygon class="st3" points="35.6,15.7 35.6,26.8 33,25.3 33,14.2 			"/>
		</g>
		<g>
			<g>
				<polygon class="st5" points="44.1,20.6 44.1,31.6 46.3,30 46.3,21.9 				"/>
			</g>
			<polygon class="st6" points="42.1,25.1 37.8,22.6 35.6,23.9 42.1,27.7 			"/>
			<polygon class="st3" points="35.6,23.9 35.6,26.8 42.1,30.5 42.1,27.7 			"/>
		</g>
		<g>
			<polygon class="st3" points="44.1,20.6 44.1,31.6 41.5,30.2 41.5,19.1 			"/>
		</g>
		<g>
			<polygon class="st6" points="50.1,29.7 46.3,27.5 44.1,28.8 50.1,32.3 			"/>
			<polygon class="st3" points="44.1,28.8 44.1,31.6 50.6,35.4 50.6,32.6 			"/>
		</g>
		<polygon class="st7" points="41.5,27.3 35.6,23.9 35.6,15.7 41.5,19.1 		"/>
		<polygon class="st7" points="50.1,32.3 44.1,28.8 44.1,20.6 50.1,24.1 		"/>
	</g>
</g>
</svg>
