<?xml version="1.0" encoding="utf-8"?>
<!-- Generator: Adobe Illustrator 21.0.0, SVG Export Plug-In . SVG Version: 6.00 Build 0)  -->
<svg version="1.1" id="Layer_1" xmlns="http://www.w3.org/2000/svg" xmlns:xlink="http://www.w3.org/1999/xlink" x="0px" y="0px"
	 viewBox="0 0 80 80" style="enable-background:new 0 0 80 80;" xml:space="preserve">
<style type="text/css">
	.st0{fill:#454441;}
	.st1{fill:#3A3A38;}
	.st2{fill:#615E5C;}
	.st3{fill:#5A5957;}
	.st4{fill:#302E2D;}
	.st5{fill:#454341;}
	.st6{fill:#4D4C4B;}
	.st7{fill:#424140;}
	.st8{fill:#1A1819;}
	.st9{fill:#333132;}
	.st10{fill:#555451;}
	.st11{fill:#484547;}
</style>
<g>
	<g id="XMLID_2370_">
		<g id="XMLID_2371_">
			<polygon id="XMLID_2373_" class="st0" points="60.7,38.3 53.3,42.6 53.3,61.4 60.7,57.1 			"/>
			<polyline id="XMLID_2737_" class="st1" points="60.7,38.3 53.3,42.6 53.3,61.4 			"/>
			<polygon id="XMLID_2372_" class="st2" points="19.3,22.9 26.7,18.6 60.7,38.3 53.3,42.6 			"/>
			<polyline id="XMLID_2755_" class="st3" points="60.7,38.3 53.3,42.6 19.3,22.9 			"/>
		</g>
	</g>
	<path id="XMLID_2366_" class="st4" d="M19.3,22.9v18.8l33.5,19.4l0,0l0.5,0.3V42.6L19.3,22.9z M52.1,59.4l-15.2-8.8V34.4l15.2,8.8
		V59.4z M20.6,25l15.2,8.8v16.2l-15.2-8.8V25z"/>
	<g id="XMLID_2364_">
		<polygon id="XMLID_2365_" class="st5" points="36.9,34.4 52.1,43.2 52.1,59.4 36.9,50.6 		"/>
	</g>
	<g id="XMLID_2362_">
		<polygon id="XMLID_2363_" class="st6" points="36.9,45.7 52.1,54.5 52.1,59.4 36.9,50.6 		"/>
	</g>
	<g id="XMLID_2758_">
		<polyline id="XMLID_2761_" class="st7" points="36.9,45.7 52.1,54.5 52.1,59.4 		"/>
	</g>
	<g id="XMLID_2360_">
		<polygon id="XMLID_2361_" class="st6" points="36.9,40.1 52.1,48.9 52.1,53.7 36.9,45 		"/>
	</g>
	<g id="XMLID_2756_">
		<polyline id="XMLID_2759_" class="st7" points="36.9,40.1 52.1,48.9 52.1,53.7 		"/>
	</g>
	<g id="XMLID_2358_">
		<polygon id="XMLID_2359_" class="st6" points="36.9,34.4 52.1,43.2 52.1,48.1 36.9,39.3 		"/>
	</g>
	<g id="XMLID_355_">
		<polyline id="XMLID_2757_" class="st7" points="36.9,34.4 52.1,43.2 52.1,48.1 		"/>
	</g>
	<g id="XMLID_2356_">
		<polygon id="XMLID_2357_" class="st5" points="20.6,25 35.7,33.8 35.7,49.9 20.6,41.2 		"/>
	</g>
	<g id="XMLID_2354_">
		<polygon id="XMLID_2355_" class="st6" points="20.6,36.3 35.7,45 35.7,49.9 20.6,41.2 		"/>
	</g>
	<g id="XMLID_2352_">
		<polygon id="XMLID_2353_" class="st6" points="20.6,30.6 35.7,39.4 35.7,44.3 20.6,35.5 		"/>
	</g>
	<g id="XMLID_2350_">
		<polygon id="XMLID_2351_" class="st6" points="20.6,25 35.7,33.8 35.7,38.6 20.6,29.9 		"/>
	</g>
	<g id="XMLID_2765_">
		<polyline id="XMLID_2764_" class="st7" points="20.6,36.3 35.7,45 35.7,49.9 		"/>
	</g>
	<g id="XMLID_2763_">
		<polyline id="XMLID_2762_" class="st7" points="20.6,30.6 35.7,39.4 35.7,44.3 		"/>
	</g>
	<g id="XMLID_2760_">
		<polyline id="XMLID_2767_" class="st7" points="20.6,25 35.7,33.8 35.7,38.6 		"/>
	</g>
	<g id="XMLID_2339_">
		<g id="XMLID_2345_">
			<polygon id="XMLID_2349_" class="st8" points="51.8,43.9 51.6,44 51.6,44.1 51.8,44 			"/>
			<g id="XMLID_2346_">
				<polygon id="XMLID_2348_" class="st9" points="51.6,44 51.6,44.1 36.5,35.4 36.5,35.2 				"/>
				<polygon id="XMLID_2347_" class="st3" points="36.5,35.2 36.6,35.1 51.8,43.9 51.6,44 				"/>
			</g>
		</g>
		<g id="XMLID_2340_">
			<polygon id="XMLID_2344_" class="st10" points="52.1,43.2 51.6,43.5 51.6,44 52.1,43.7 			"/>
			<g id="XMLID_2341_">
				<polygon id="XMLID_2343_" class="st11" points="51.6,43.5 51.6,44 36.5,35.2 36.5,34.7 				"/>
				<polygon id="XMLID_2342_" class="st3" points="36.5,34.7 36.9,34.4 52.1,43.2 51.6,43.5 				"/>
			</g>
		</g>
	</g>
	<g id="XMLID_2328_">
		<g id="XMLID_2334_">
			<polygon id="XMLID_2338_" class="st8" points="51.8,49.5 51.6,49.6 51.6,49.8 51.8,49.7 			"/>
			<g id="XMLID_2335_">
				<polygon id="XMLID_2337_" class="st9" points="51.6,49.6 51.6,49.8 36.5,41 36.5,40.8 				"/>
				<polygon id="XMLID_2336_" class="st3" points="36.5,40.8 36.6,40.7 51.8,49.5 51.6,49.6 				"/>
			</g>
		</g>
		<g id="XMLID_2329_">
			<polygon id="XMLID_2333_" class="st10" points="52.1,48.9 51.6,49.1 51.6,49.6 52.1,49.3 			"/>
			<g id="XMLID_2330_">
				<polygon id="XMLID_2332_" class="st11" points="51.6,49.1 51.6,49.6 36.5,40.8 36.5,40.3 				"/>
				<polygon id="XMLID_2331_" class="st3" points="36.5,40.3 36.9,40.1 52.1,48.9 51.6,49.1 				"/>
			</g>
		</g>
	</g>
	<g id="XMLID_2317_">
		<g id="XMLID_2323_">
			<polygon id="XMLID_2327_" class="st8" points="51.8,55.1 51.6,55.2 51.6,55.4 51.8,55.3 			"/>
			<g id="XMLID_2324_">
				<polygon id="XMLID_2326_" class="st9" points="51.6,55.2 51.6,55.4 36.5,46.7 36.5,46.5 				"/>
				<polygon id="XMLID_2325_" class="st3" points="36.5,46.5 36.6,46.4 51.8,55.1 51.6,55.2 				"/>
			</g>
		</g>
		<g id="XMLID_2318_">
			<polygon id="XMLID_2322_" class="st10" points="52.1,54.5 51.6,54.8 51.6,55.2 52.1,55 			"/>
			<g id="XMLID_2319_">
				<polygon id="XMLID_2321_" class="st11" points="51.6,54.8 51.6,55.2 36.5,46.5 36.5,46 				"/>
				<polygon id="XMLID_2320_" class="st3" points="36.5,46 36.9,45.7 52.1,54.5 51.6,54.8 				"/>
			</g>
		</g>
	</g>
	<g id="XMLID_2306_">
		<g id="XMLID_2312_">
			<polygon id="XMLID_2316_" class="st8" points="35.5,34.4 35.3,34.5 35.3,34.7 35.5,34.6 			"/>
			<g id="XMLID_2313_">
				<polygon id="XMLID_2315_" class="st9" points="35.3,34.5 35.3,34.7 20.1,25.9 20.1,25.7 				"/>
				<polygon id="XMLID_2314_" class="st3" points="20.1,25.7 20.3,25.6 35.5,34.4 35.3,34.5 				"/>
			</g>
		</g>
		<g id="XMLID_2307_">
			<polygon id="XMLID_2311_" class="st10" points="35.7,33.8 35.3,34 35.3,34.5 35.7,34.2 			"/>
			<g id="XMLID_2308_">
				<polygon id="XMLID_2310_" class="st11" points="35.3,34 35.3,34.5 20.1,25.7 20.1,25.2 				"/>
				<polygon id="XMLID_2309_" class="st3" points="20.1,25.2 20.6,25 35.7,33.8 35.3,34 				"/>
			</g>
		</g>
	</g>
	<g id="XMLID_2295_">
		<g id="XMLID_2301_">
			<polygon id="XMLID_2305_" class="st8" points="35.5,40 35.3,40.1 35.3,40.3 35.5,40.2 			"/>
			<g id="XMLID_2302_">
				<polygon id="XMLID_2304_" class="st9" points="35.3,40.1 35.3,40.3 20.1,31.6 20.1,31.4 				"/>
				<polygon id="XMLID_2303_" class="st3" points="20.1,31.4 20.3,31.3 35.5,40 35.3,40.1 				"/>
			</g>
		</g>
		<g id="XMLID_2296_">
			<polygon id="XMLID_2300_" class="st10" points="35.7,39.4 35.3,39.7 35.3,40.1 35.7,39.9 			"/>
			<g id="XMLID_2297_">
				<polygon id="XMLID_2299_" class="st11" points="35.3,39.7 35.3,40.1 20.1,31.4 20.1,30.9 				"/>
				<polygon id="XMLID_2298_" class="st3" points="20.1,30.9 20.6,30.6 35.7,39.4 35.3,39.7 				"/>
			</g>
		</g>
	</g>
	<g id="XMLID_2284_">
		<g id="XMLID_2290_">
			<polygon id="XMLID_2294_" class="st8" points="35.5,45.7 35.3,45.8 35.3,46 35.5,45.9 			"/>
			<g id="XMLID_2291_">
				<polygon id="XMLID_2293_" class="st9" points="35.3,45.8 35.3,46 20.1,37.2 20.1,37 				"/>
				<polygon id="XMLID_2292_" class="st3" points="20.1,37 20.3,36.9 35.5,45.7 35.3,45.8 				"/>
			</g>
		</g>
		<g id="XMLID_2285_">
			<polygon id="XMLID_2289_" class="st10" points="35.7,45 35.3,45.3 35.3,45.8 35.7,45.5 			"/>
			<g id="XMLID_2286_">
				<polygon id="XMLID_2288_" class="st11" points="35.3,45.3 35.3,45.8 20.1,37 20.1,36.5 				"/>
				<polygon id="XMLID_2287_" class="st3" points="20.1,36.5 20.6,36.3 35.7,45 35.3,45.3 				"/>
			</g>
		</g>
	</g>
</g>
</svg>
