<?xml version="1.0" encoding="utf-8"?>
<!-- Generator: Adobe Illustrator 21.0.0, SVG Export Plug-In . SVG Version: 6.00 Build 0)  -->
<svg version="1.1" id="Layer_1" xmlns="http://www.w3.org/2000/svg" xmlns:xlink="http://www.w3.org/1999/xlink" x="0px" y="0px"
	 viewBox="0 0 80 80" style="enable-background:new 0 0 80 80;" xml:space="preserve">
<style type="text/css">
	.st0{fill:#445A5C;}
	.st1{fill:#597175;}
	.st2{fill:#10516C;}
	.st3{fill:#E8E7E7;}
	.st4{fill:#2E6E8D;}
	.st5{fill:#9F6128;}
	.st6{fill:#3394BC;}
	.st7{fill:#41575C;}
	.st8{fill:#3B4E52;}
	.st9{fill:#28393D;}
	.st10{fill:#25363A;}
</style>
<g id="XMLID_3820_">
	<g id="XMLID_3823_">
		<g id="XMLID_3825_">
			<g id="XMLID_3859_">
				<polygon id="XMLID_3863_" class="st0" points="53.3,7.9 54.1,7.4 54.1,69.1 53.3,69.6 				"/>
				<g id="XMLID_3861_">
					<polygon id="XMLID_3862_" class="st1" points="42.2,1.5 43,1 54.1,7.4 53.3,7.9 					"/>
				</g>
				<polygon id="XMLID_3860_" class="st2" points="42.2,1.5 53.3,7.9 53.3,69.5 42.2,63.1 				"/>
			</g>
			<g id="XMLID_3830_">
				<g id="XMLID_3856_">
					<polygon id="XMLID_3858_" class="st3" points="26.7,70.2 26.7,70.9 37.8,77.4 37.8,76.6 					"/>
					<polygon id="XMLID_3857_" class="st4" points="42.2,61.2 26.7,70.2 37.8,76.6 53.3,67.6 					"/>
				</g>
				<g id="XMLID_3853_">
					<polygon id="XMLID_3855_" class="st5" points="26.7,70.2 26.7,72.1 37.8,78.5 37.8,76.6 					"/>
					<polygon id="XMLID_3854_" class="st0" points="53.3,67.6 37.8,76.6 37.8,78.5 53.3,69.6 					"/>
				</g>
				<g id="XMLID_3849_">
					<polygon id="XMLID_3852_" class="st5" points="26.7,58.3 26.7,59 37.8,65.4 37.8,64.7 					"/>
					<polygon id="XMLID_3851_" class="st6" points="53.3,55.7 37.8,64.7 37.8,65.4 53.3,56.4 					"/>
					<polygon id="XMLID_3850_" class="st4" points="42.2,49.3 26.7,58.3 37.8,64.7 53.3,55.7 					"/>
				</g>
				<g id="XMLID_3845_">
					<polygon id="XMLID_3848_" class="st5" points="26.7,46.3 26.7,47 37.8,53.5 37.8,52.7 					"/>
					<polygon id="XMLID_3847_" class="st6" points="53.3,43.7 37.8,52.7 37.8,53.5 53.3,44.5 					"/>
					<polygon id="XMLID_3846_" class="st4" points="42.2,37.3 26.7,46.3 37.8,52.7 53.3,43.7 					"/>
				</g>
				<g id="XMLID_3841_">
					<polygon id="XMLID_3844_" class="st5" points="26.7,34.4 26.7,35.1 37.8,41.5 37.8,40.8 					"/>
					<polygon id="XMLID_3843_" class="st6" points="53.3,31.8 37.8,40.8 37.8,41.5 53.3,32.5 					"/>
					<polygon id="XMLID_3842_" class="st4" points="42.2,25.4 26.7,34.4 37.8,40.8 53.3,31.8 					"/>
				</g>
				<g id="XMLID_3836_">
					<g id="XMLID_3837_">
						<polygon id="XMLID_3840_" class="st5" points="26.7,22.4 26.7,23.1 37.8,29.6 37.8,28.8 						"/>
						<polygon id="XMLID_3839_" class="st6" points="53.3,19.8 37.8,28.8 37.8,29.6 53.3,20.6 						"/>
						<polygon id="XMLID_3838_" class="st4" points="42.2,13.4 26.7,22.4 37.8,28.8 53.3,19.8 						"/>
					</g>
				</g>
				<g id="XMLID_3831_">
					<polygon id="XMLID_3835_" class="st0" points="53.3,7.9 37.8,16.9 37.8,17.6 53.3,8.6 					"/>
					<polygon id="XMLID_3834_" class="st5" points="26.7,10.4 26.7,11.2 37.8,17.6 37.8,16.9 					"/>
					<g id="XMLID_3832_">
						<polygon id="XMLID_3833_" class="st7" points="42.2,1.5 26.7,10.4 37.8,16.9 53.3,7.9 						"/>
					</g>
					<g id="XMLID_4037_">
						<polyline id="XMLID_4043_" class="st8" points="26.7,10.4 37.8,16.9 53.3,7.9 						"/>
					</g>
				</g>
			</g>
			<g id="XMLID_3826_">
				<polygon id="XMLID_3829_" class="st0" points="37,17.3 37.8,16.9 37.8,78.5 37,79 				"/>
				<g id="XMLID_3827_">
					<polygon id="XMLID_3828_" class="st1" points="25.9,10.9 26.7,10.4 37.8,16.9 37,17.3 					"/>
				</g>
			</g>
		</g>
		<polygon id="XMLID_3824_" class="st9" points="25.9,10.9 37,17.3 37,79 25.9,72.6 		"/>
		<polyline id="XMLID_4040_" class="st10" points="25.9,10.9 37,17.3 37,79 		"/>
	</g>
</g>
</svg>
