<?xml version="1.0" encoding="utf-8"?>
<!-- Generator: Adobe Illustrator 21.0.0, SVG Export Plug-In . SVG Version: 6.00 Build 0)  -->
<svg version="1.1" xmlns="http://www.w3.org/2000/svg" xmlns:xlink="http://www.w3.org/1999/xlink" x="0px" y="0px"
	 viewBox="0 0 80 80" style="enable-background:new 0 0 80 80;" xml:space="preserve">
<style type="text/css">
	.st0{fill:#3B73B8;}
	.st1{fill:#3266AE;}
	.st2{fill:#26559F;}
	.st3{fill:#A4A3A3;}
	.st4{fill:#D0D1D1;}
	.st5{fill:#AEAEAE;}
	.st6{fill:#B2B2B2;}
	.st7{fill:#939291;}
</style>
<g id="Layer_2">
	<g>
		<polygon class="st0" points="54.3,63.9 54.3,4.9 29.6,19.1 29.6,78.2 		"/>
	</g>
	<polyline class="st1" points="54.3,4.9 29.6,19.1 29.6,78.2 	"/>
	<path class="st2" d="M33.6,28.7v25.9l16.8-9.7V19.4c0-4.1-4.5-4.2-8-2.2l-1.1,0.6C36.5,20.6,33.6,23.2,33.6,28.7z M35.3,28.6
		c0-4.3,2.3-6.3,6-8.5l0.9-0.5c2.8-1.6,6.3-1.5,6.3,1.7v22.5l-13.2,7.6V28.6z"/>
	<path class="st2" d="M33.6,57.3v14l16.8-9.7v-14L33.6,57.3z M35.4,58.2l13.1-7.6v10.1l-13.1,7.6V58.2z"/>
	<g>
		<path class="st3" d="M30.9,43c0-0.2,0.1-0.5,0.3-0.8l0,0c0.2-0.3,0.6-0.5,0.9-0.6c0.1,0,0.2,0,0.3,0c0.1,0,0.3,0.2,0.4,0.2
			c0.2,0.1,0.2,0.3,0.2,0.6l0,0v7.1l0,0c0,0.2-0.1,0.5-0.3,0.8c-0.2,0.3-0.6,0.5-0.9,0.6c-0.1,0-0.3,0-0.4-0.1
			c-0.1,0-0.3-0.2-0.3-0.2c-0.2-0.1-0.3-0.3-0.3-0.6l0,0V43L30.9,43z"/>
		<path class="st4" d="M31.2,43.1L31.2,43.1c0-0.2,0.1-0.5,0.3-0.8l0,0c0.2-0.3,0.6-0.5,0.9-0.6l0,0c0.4,0,0.7,0.3,0.7,0.7l0,0v7.1
			l0,0c0,0.2-0.1,0.5-0.3,0.8l0,0c-0.2,0.3-0.6,0.5-0.9,0.6l0,0c-0.4,0-0.7-0.3-0.7-0.7l0,0V43.1z"/>
		<path class="st4" d="M31.4,43.9l0-0.6c0-0.2,0.1-0.4,0.2-0.6l0,0c0.2-0.3,0.5-0.4,0.7-0.5l0,0c0.4,0,0.6,0.2,0.6,0.5l0,0.6v6.1
			l0,0c0,0.2-0.1,0.4-0.2,0.6l0,0c-0.2,0.3-0.5,0.4-0.7,0.5l0,0c-0.3,0-0.6-0.2-0.6-0.5l0-0.6V43.9z"/>
		<g id="XMLID_42264_">
			<polygon class="st3" points="32.3,45.7 33,46 33,46.5 32.3,46.1 31.7,45.7 31.7,45.3 			"/>
			<path class="st5" d="M33.6,45.7L33.6,45.7l0.6-0.4l0,0l0.5-0.3c0,0,0-0.1,0-0.1l-0.5-0.3l0.6-0.3c0,0,0,0,0,0
				c0.1-0.1,0.3-0.1,0.4-0.1c0.2,0,0.3,0.2,0.3,0.3c0,0.1,0,0.4,0,0.4c0,0.1,0,0.1-0.1,0.2l-0.5,0.3l0,0l-0.6,0.4l-0.6,0.4L33,46.5
				V46L33.6,45.7z"/>
			<path class="st6" d="M32.3,44.9l0.6,0.4l0,0l0,0l0.6-0.4l0,0l0.6-0.4l0,0l0.6-0.3c0,0,0,0,0,0c0.1-0.1,0.3-0.1,0.4-0.1
				c0.3,0.1,0.4,0.3,0.1,0.5c0,0,0,0,0,0l-0.5,0.3l0,0l-0.6,0.4l-0.6,0.4L33,46l-0.6-0.4l-0.6-0.4L32.3,44.9z"/>
		</g>
		<g>
			<path class="st3" d="M31.9,48.5c0-0.1,0-0.1,0.1-0.2l0,0c0.1-0.1,0.1-0.1,0.2-0.1c0.1,0,0.2,0.1,0.2,0.2l0,0v0.2h0
				c0,0.1,0,0.1-0.1,0.2c0,0,0,0,0,0v0.6h0c0,0,0,0.1,0,0.1c0,0-0.1,0.1-0.1,0.1c-0.1,0-0.1,0-0.1-0.1h0v-0.6
				c-0.1,0-0.1-0.1-0.1-0.1l0,0V48.5L31.9,48.5z"/>
			<g>
				<path class="st7" d="M32.1,49.5C32.1,49.5,32.1,49.4,32.1,49.5L32.1,49.5l0-0.7c0,0,0,0,0,0c0-0.1,0.1-0.1,0.1-0.2l0,0v-0.2l0,0
					c0,0,0-0.1,0-0.1c0.1,0,0.1,0.1,0.1,0.2l0,0v0.2h0c0,0.1,0,0.1-0.1,0.2c0,0,0,0,0,0v0.6l0,0C32.2,49.5,32.2,49.5,32.1,49.5
					c0,0.1,0,0.1,0,0.1c0,0-0.1,0-0.1,0c0,0,0,0,0,0C32,49.6,32,49.5,32.1,49.5z"/>
			</g>
		</g>
	</g>
</g>
<g id="Layer_1">
</g>
</svg>
