<?xml version="1.0" encoding="utf-8"?>
<!-- Generator: Adobe Illustrator 21.0.0, SVG Export Plug-In . SVG Version: 6.00 Build 0)  -->
<svg version="1.1" id="Layer_1" xmlns="http://www.w3.org/2000/svg" xmlns:xlink="http://www.w3.org/1999/xlink" x="0px" y="0px"
	 viewBox="0 0 80 80" style="enable-background:new 0 0 80 80;" xml:space="preserve">
<style type="text/css">
	.st0{fill:#DDDDDC;}
	.st1{fill:#CECDCC;}
	.st2{opacity:0.2;fill:#CECDCC;enable-background:new    ;}
	.st3{fill:#FFFFFF;}
	.st4{fill:#EFEFEF;}
	.st5{fill:#D7DDDD;}
	.st6{fill:#95D2DE;}
	.st7{fill:#A0DBEB;}
	.st8{fill:#A9DEEB;}
	.st9{opacity:0.7;fill:#92D5E0;enable-background:new    ;}
	.st10{fill:#79CFE2;}
	.st11{fill:#A0DBEA;}
	.st12{fill:#92D5E0;}
	.st13{fill:#54A2B4;}
	.st14{fill:#6BBCD6;}
</style>
<path id="XMLID_393_" class="st0" d="M48,55.2c0,0.3-0.2,0.7-0.5,0.9l-6.2,3.6c-0.8,0.4-1.8,0.4-2.6,0L32.5,56
	c-0.3-0.3-0.5-0.6-0.5-1c0-0.3,0-21.6,0-21.9c0-0.3,0.2-0.7,0.5-0.9l6.2-3.6c0.8-0.4,1.8-0.4,2.6,0l6.2,3.6c0.3,0.2,0.5,0.6,0.5,0.9
	S48,54.8,48,55.2z"/>
<path class="st1" d="M40.2,60V28.5h1.1l0,0l6.2,3.6c0.3,0.2,0.5,0.6,0.5,0.9c0,0.4,0,21.6,0,22.1c0,0.3-0.2,0.7-0.5,0.9l-6.2,3.6
	C40.9,59.8,40.5,60,40.2,60L40.2,60z"/>
<path class="st2" d="M41.4,59.7c-0.4,0.2-0.8,0.3-1.2,0.3V28.6h1.1l0,0l6.2,3.6c0.3,0.2,0.5,0.6,0.5,0.9"/>
<path id="XMLID_392_" class="st3" d="M38.7,28.6l-6.2,3.6c-0.7,0.4-0.7,1.5,0,1.9l6.2,3.6c0.8,0.4,1.8,0.4,2.6,0l6.2-3.6
	c0.7-0.4,0.7-1.5,0-1.9l-6.2-3.5C40.5,28.2,39.5,28.2,38.7,28.6z"/>
<path id="XMLID_16300_" class="st4" d="M32.5,32.2c-0.7,0.4-0.7,1.5,0,1.9l6.2,3.6c0.8,0.4,1.8,0.4,2.6,0l6.2-3.6
	c0.7-0.4,0.7-1.5,0-1.9"/>
<path class="st2" d="M36.4,32.4h7.4v3.8l-2.6,1.5c-0.8,0.4-1.8,0.4-2.6,0l-2.2-1.3C36.4,36.4,36.4,32.4,36.4,32.4z"/>
<path class="st5" d="M48,32.9c0.1,0.4-0.1,0.9-0.5,1.1l-6.2,3.6c-0.8,0.4-1.8,0.4-2.6,0l-6.2-3.6c-0.4-0.3-0.6-0.7-0.5-1.1
	c0.1,0.3,0.3,0.6,0.5,0.8l6.2,3.6c0.8,0.4,1.8,0.4,2.6,0l6.2-3.6C47.8,33.5,47.9,33.3,48,32.9z"/>
<path id="XMLID_4707_" class="st6" d="M43.9,32.2c-0.1,1-0.9,2-2.5,2.3l0,0c-1.3,0.3-2.7,0.1-3.7-0.5l0,0c-0.9-0.5-1.3-1.2-1.3-1.9
	c0,0,0-0.3,0-0.9c0-0.9,0.9-2,2.5-2.3l0,0c1.3-0.3,2.7-0.1,3.7,0.5l0,0c0.9,0.5,1.3,1.1,1.3,1.8V32.2z"/>
<path id="XMLID_390_" class="st7" d="M38.5,27.4L38.5,27.4c-3.4,0.8-4.3,3.8-1.6,5.4l0,0c1.3,0.8,3.1,0.9,4.7,0.6l0,0
	c3.4-0.8,4.3-3.8,1.6-5.4l0,0C41.9,27.2,40.2,27.1,38.5,27.4z"/>
<path id="XMLID_389_" class="st8" d="M38.5,27.4L38.5,27.4c-3.4,0.8-4.3,3.8-1.6,5.4l0,0c1.3,0.8,3.1,0.9,4.7,0.6l0,0
	c3.4-0.8,4.3-3.8,1.6-5.4l0,0C41.9,27.2,40.2,27.1,38.5,27.4z"/>
<path id="XMLID_387_" class="st6" d="M44.4,29.7c-0.2,1.1-1.1,2.2-2.9,2.6l0,0c-1.5,0.3-3,0.1-4.2-0.6l0,0c-0.9-0.5-1.4-1.3-1.5-2.1
	c0-0.2,0-0.9,0-1c-0.1-1.2,0.9-2.5,2.9-2.9l0,0c1.5-0.3,3-0.1,4.2,0.6l0,0c1,0.6,1.6,1.5,1.5,2.3C44.4,28.8,44.4,29.6,44.4,29.7z"/>
<path id="XMLID_386_" class="st8" d="M38.5,24.7L38.5,24.7c-3.4,0.8-4.3,3.8-1.6,5.4l0,0c1.3,0.8,3.1,0.9,4.7,0.6l0,0
	c3.4-0.8,4.3-3.8,1.6-5.4l0,0C41.9,24.6,40.2,24.4,38.5,24.7z"/>
<path id="XMLID_370_" class="st6" d="M44.4,27c-0.2,1.1-1.1,2.2-2.9,2.6l0,0c-1.5,0.3-3,0.1-4.2-0.6l0,0c-0.9-0.5-1.4-1.3-1.5-2.1
	c0-0.2,0-2,0-2.2c-0.1-1.2,0.9-2.5,2.9-2.9l0,0c1.5-0.3,3-0.1,4.2,0.6l0,0c1,0.6,1.6,1.5,1.5,2.3C44.4,24.9,44.4,26.8,44.4,27z"/>
<path class="st9" d="M44.4,29.1L44.4,29.1c0.7,1.2,0.4,2.4-0.6,3.4c-0.2,0.9-1,1.7-2.5,2.1l0,0c-1,0.3-2.1,0.2-3-0.2V20.3
	c0-0.1,0.1-0.1,0.2-0.1c1.6-0.3,3.4-0.2,4.7,0.6l0,0c1.1,0.7,1.6,1.6,1.6,2.5c0.1,0.3,0,0.7,0,0.9c-0.1,0.3-0.2,0.6-0.3,0.9
	c0,0.3,0,0.9,0,1.4C44.9,27.3,44.9,28.3,44.4,29.1z"/>
<path class="st9" d="M40.2,20.9h3.3c0.9,0.7,1.4,1.5,1.4,2.3c0.1,0.3,0,0.7,0,0.9c-0.1,0.3-0.2,0.6-0.3,0.9c0,0.3,0,0.9,0,1.4
	c0.5,0.9,0.5,1.8,0,2.6v0.1c0.7,1.1,0.4,2.3-0.6,3.3c-0.2,0.9-1,1.7-2.5,2.1l0,0c-0.4,0.1-0.8,0.2-1.2,0.2
	C40.2,34.7,40.2,20.9,40.2,20.9z"/>
<path id="XMLID_369_" class="st10" d="M44.7,23.1c0.1,0.2,0.1,0.9,0,1.1c-0.2,1.1-1.3,2.2-3.1,2.6l0,0C40,27.2,38.3,27,37,26.2l0,0
	c-1-0.6-1.6-1.5-1.6-2.2c0-0.2,0-0.7,0-0.9c0.2-1.2,1.3-2.3,3.2-2.8l0,0c1.6-0.3,3.4-0.2,4.7,0.6l0,0C44.2,21.5,44.7,22.2,44.7,23.1
	z"/>
<path id="XMLID_368_" class="st11" d="M38.5,20.2L38.5,20.2c-3.4,0.8-4.3,3.8-1.6,5.4l0,0c1.3,0.8,3.1,0.9,4.7,0.6l0,0
	c3.4-0.8,4.3-3.8,1.6-5.4l0,0C41.9,20,40.2,19.8,38.5,20.2z"/>
<path id="XMLID_367_" class="st12" d="M39.1,20.6L39.1,20.6c-2.2,0.5-2.7,2.4-0.9,3.4l0,0c0.8,0.5,1.9,0.7,2.9,0.4l0,0
	c2.2-0.5,2.7-2.4,0.9-3.4l0,0C41.2,20.5,40.1,20.4,39.1,20.6z"/>
<path id="XMLID_363_" class="st13" d="M39.1,20.9L39.1,20.9c-2.1,0.5-2.6,2.3-0.9,3.3l0,0c0.8,0.4,1.8,0.6,2.8,0.3l0,0
	c2.1-0.5,2.6-2.3,0.9-3.3l0,0C41.2,20.8,40.1,20.6,39.1,20.9z"/>
<path id="XMLID_360_" class="st14" d="M39.3,21.5L39.3,21.5c-1.7,0.3-2.1,1.8-0.8,2.6l0,0c0.6,0.3,1.5,0.4,2.2,0.3l0,0
	c1.7-0.3,2.1-1.8,0.8-2.6l0,0C40.9,21.3,40.1,21.2,39.3,21.5z"/>
<path id="XMLID_16303_" class="st9" d="M38.5,24.1L38.5,24.1c0.6,0.3,1.5,0.4,2.2,0.3l0,0c1.7-0.3,2.1-1.8,0.8-2.6l0,0"/>
</svg>
