<?xml version="1.0" encoding="utf-8"?>
<!-- Generator: Adobe Illustrator 21.0.0, SVG Export Plug-In . SVG Version: 6.00 Build 0)  -->
<svg version="1.1" id="Layer_1" xmlns="http://www.w3.org/2000/svg" xmlns:xlink="http://www.w3.org/1999/xlink" x="0px" y="0px"
	 viewBox="0 0 80 80" style="enable-background:new 0 0 80 80;" xml:space="preserve">
<style type="text/css">
	.st0{fill:#525354;}
	.st1{fill:#45484A;}
	.st2{opacity:0.2;fill:#3B3D3F;}
	.st3{fill:#BCBEC0;}
	.st4{opacity:0.1;}
	.st5{fill:#3B3D3F;}
	.st6{fill:#4F4F51;}
	.st7{fill:#59595C;}
	.st8{fill:#636467;}
	.st9{fill:#4E4D50;}
	.st10{opacity:0.1;fill:#3B3D3F;}
	.st11{fill:#B7B8BA;}
	.st12{fill:#464748;}
	.st13{fill:#A3A6A8;}
	.st14{fill:#229CB9;}
	.st15{fill:#1D86B7;}
	.st16{fill:#8F9194;}
	.st17{fill:#858789;}
	.st18{fill:#C6C4C3;}
	.st19{fill:#CECDCC;}
	.st20{fill:#DBDDDB;}
	.st21{fill:#E4E4E3;}
	.st22{fill:#C9C9CA;}
	.st23{fill:#4E4E4F;}
	.st24{fill:#E3E4E3;}
	.st25{fill:#BFC0C1;}
	.st26{fill:#ABABAB;}
	.st27{fill:#9A9A9C;}
	.st28{fill:#D4D4D3;}
	.st29{fill:#434445;}
	.st30{fill:#287CBD;}
	.st31{fill:#979899;}
	.st32{fill:#908E8F;}
	.st33{fill:#9D9E9F;}
	.st34{fill:#8C8C8D;}
</style>
<g id="XMLID_9678_">
	<g id="XMLID_9916_">
		<g id="XMLID_9922_">
			<polygon id="XMLID_9936_" class="st0" points="42.1,23.2 42.1,42.1 25.8,51.5 25.8,32.5 			"/>
			<polygon id="XMLID_9935_" class="st1" points="13.7,25.6 25.8,32.5 25.8,51.5 13.7,44.5 			"/>
			<polyline id="XMLID_9934_" class="st2" points="13.7,25.6 25.8,32.5 25.8,51.5 			"/>
			<g id="XMLID_9932_">
				<polygon id="XMLID_9933_" class="st3" points="16,29 16,43.7 23.5,48 23.5,33.3 				"/>
			</g>
			<g id="XMLID_9930_" class="st4">
				<polyline id="XMLID_9931_" class="st5" points="23.5,48 23.5,33.3 16,29 				"/>
			</g>
			<g id="XMLID_9924_">
				<g id="XMLID_9926_">
					<polygon id="XMLID_9929_" class="st6" points="22.7,39.1 22.7,40.3 22.7,41.2 22.4,41 22.4,40.8 22.4,39.5 22.4,39.3 					"/>
					<polygon id="XMLID_9928_" class="st7" points="22.1,39.4 22.4,39.5 22.4,40.8 22.1,40.7 					"/>
					<path id="XMLID_9927_" class="st6" d="M22.2,40.9c0.1,0.2,0.5,0.2,0.5,0.2S22.5,41,22.5,41c-0.1-0.1-0.1-0.2-0.1-0.2l-0.3-0.1
						C22.1,40.7,22.1,40.8,22.2,40.9z"/>
				</g>
				<path id="XMLID_9925_" class="st8" d="M22.3,38.9l0.3,0.2c0,0-0.1,0.1-0.2,0.2c0,0.1-0.1,0.2-0.1,0.2l-0.3-0.2
					c0,0,0-0.1,0.1-0.2C22.2,39.1,22.3,38.9,22.3,38.9z"/>
			</g>
			<polygon id="XMLID_9923_" class="st7" points="30,16.2 42.1,23.2 25.8,32.5 13.7,25.6 			"/>
		</g>
		<g id="XMLID_9917_">
			<polygon id="XMLID_9921_" class="st9" points="42.1,21.5 42.1,23.2 25.8,32.5 25.8,30.9 			"/>
			<polygon id="XMLID_9920_" class="st9" points="13.7,23.9 25.8,30.9 25.8,32.5 13.7,25.6 			"/>
			<polygon id="XMLID_9919_" class="st8" points="30,14.5 42.1,21.5 25.8,30.9 13.7,23.9 			"/>
			<polyline id="XMLID_9918_" class="st10" points="42.1,21.5 25.8,30.9 13.7,23.9 			"/>
		</g>
	</g>
	<g id="XMLID_9863_">
		<g id="XMLID_9869_">
			<polygon id="XMLID_9915_" class="st0" points="54.2,30.2 54.2,49.1 37.9,58.5 37.9,39.5 			"/>
			<polygon id="XMLID_9914_" class="st1" points="25.8,32.5 37.9,39.5 37.9,58.5 25.8,51.5 			"/>
			<polyline id="XMLID_9913_" class="st2" points="25.8,32.5 37.9,39.5 37.9,58.5 			"/>
			<g id="XMLID_9899_">
				<g id="XMLID_9906_">
					<g id="XMLID_9911_">
						<polygon id="XMLID_9912_" class="st11" points="26.6,33.7 26.6,39.1 37.2,45.2 37.2,39.8 						"/>
					</g>
					<g id="XMLID_9909_" class="st4">
						<polyline id="XMLID_9910_" class="st5" points="37.2,45.2 37.2,39.8 26.6,33.7 						"/>
					</g>
					<g id="XMLID_9907_">
						<polygon id="XMLID_9908_" class="st0" points="26.6,38.8 26.6,39.1 37.2,45.2 37.2,44.9 						"/>
					</g>
				</g>
				<g id="XMLID_9900_">
					<g id="XMLID_9902_">
						<polygon id="XMLID_9905_" class="st6" points="33,39.4 33,40.5 32.8,40.3 32.7,40.2 32.7,39.8 32.7,39.5 						"/>
						<polygon id="XMLID_9904_" class="st7" points="30.9,38.7 32.7,39.8 32.7,40.2 30.9,39.1 						"/>
						<path id="XMLID_9903_" class="st6" d="M31,39.3c0,0.1,0.1,0.1,0.2,0.2c0.1,0.1,1.8,1.1,1.8,1.1s-0.1-0.2-0.2-0.3
							c-0.1-0.1-0.1-0.1-0.1-0.1l-1.9-1.1C30.9,39.1,30.9,39.2,31,39.3z"/>
					</g>
					<path id="XMLID_9901_" class="st8" d="M31.1,38.3l1.8,1c0,0-0.1,0.1-0.2,0.2c0,0.1-0.1,0.2-0.1,0.2l-1.9-1.1c0,0,0-0.1,0.1-0.2
						C31,38.4,31.1,38.3,31.1,38.3z"/>
				</g>
			</g>
			<polygon id="XMLID_9898_" class="st7" points="42.1,23.2 54.2,30.2 37.9,39.5 25.8,32.5 			"/>
			<g id="XMLID_9884_">
				<g id="XMLID_9891_">
					<g id="XMLID_9896_">
						<polygon id="XMLID_9897_" class="st11" points="26.6,39.4 26.6,44.8 37.2,50.9 37.2,45.5 						"/>
					</g>
					<g id="XMLID_9894_" class="st4">
						<polyline id="XMLID_9895_" class="st5" points="37.2,50.9 37.2,45.5 26.6,39.4 						"/>
					</g>
					<g id="XMLID_9892_">
						<polygon id="XMLID_9893_" class="st0" points="26.6,44.5 26.6,44.8 37.2,50.9 37.2,50.6 						"/>
					</g>
				</g>
				<g id="XMLID_9885_">
					<g id="XMLID_9887_">
						<polygon id="XMLID_9890_" class="st6" points="33,45.1 33,46.3 32.8,46 32.7,45.9 32.7,45.5 32.7,45.2 						"/>
						<polygon id="XMLID_9889_" class="st7" points="30.9,44.4 32.7,45.5 32.7,45.9 30.9,44.8 						"/>
						<path id="XMLID_9888_" class="st6" d="M31,45c0,0.1,0.1,0.1,0.2,0.2c0.1,0.1,1.8,1.1,1.8,1.1s-0.1-0.2-0.2-0.3
							c-0.1-0.1-0.1-0.1-0.1-0.1l-1.9-1.1C30.9,44.8,30.9,44.9,31,45z"/>
					</g>
					<path id="XMLID_9886_" class="st8" d="M31.1,44l1.8,1c0,0-0.1,0.1-0.2,0.2c0,0.1-0.1,0.2-0.1,0.2l-1.9-1.1c0,0,0-0.1,0.1-0.2
						C31,44.1,31.1,44,31.1,44z"/>
				</g>
			</g>
			<g id="XMLID_9870_">
				<g id="XMLID_9877_">
					<g id="XMLID_9882_">
						<polygon id="XMLID_9883_" class="st11" points="26.6,45.1 26.6,50.5 37.2,56.6 37.2,51.2 						"/>
					</g>
					<g id="XMLID_9880_" class="st4">
						<polyline id="XMLID_9881_" class="st5" points="37.2,56.6 37.2,51.2 26.6,45.1 						"/>
					</g>
					<g id="XMLID_9878_">
						<polygon id="XMLID_9879_" class="st0" points="26.6,50.2 26.6,50.5 37.2,56.6 37.2,56.3 						"/>
					</g>
				</g>
				<g id="XMLID_9871_">
					<g id="XMLID_9873_">
						<polygon id="XMLID_9876_" class="st6" points="33,50.8 33,52 32.8,51.7 32.7,51.6 32.7,51.2 32.7,50.9 						"/>
						<polygon id="XMLID_9875_" class="st7" points="30.9,50.1 32.7,51.2 32.7,51.6 30.9,50.6 						"/>
						<path id="XMLID_9874_" class="st6" d="M31,50.8c0,0.1,0.1,0.1,0.2,0.2C31.3,51,33,52,33,52s-0.1-0.2-0.2-0.3
							c-0.1-0.1-0.1-0.1-0.1-0.1l-1.9-1.1C30.9,50.6,30.9,50.6,31,50.8z"/>
					</g>
					<path id="XMLID_9872_" class="st8" d="M31.1,49.7l1.8,1c0,0-0.1,0.1-0.2,0.2c0,0.1-0.1,0.2-0.1,0.2l-1.9-1.1c0,0,0-0.1,0.1-0.2
						C31,49.8,31.1,49.7,31.1,49.7z"/>
				</g>
			</g>
		</g>
		<g id="XMLID_9864_">
			<polygon id="XMLID_9868_" class="st9" points="54.2,28.5 54.2,30.2 37.9,39.5 37.9,37.9 			"/>
			<polygon id="XMLID_9867_" class="st9" points="25.8,30.9 37.9,37.9 37.9,39.5 25.8,32.5 			"/>
			<polygon id="XMLID_9866_" class="st8" points="42.1,21.5 54.2,28.5 37.9,37.9 25.8,30.9 			"/>
			<polygon id="XMLID_9865_" class="st10" points="42.1,21.5 54.2,28.5 37.9,37.9 25.8,30.9 			"/>
		</g>
	</g>
	<g id="XMLID_9841_">
		<g id="XMLID_9847_">
			<polygon id="XMLID_9862_" class="st5" points="66.3,37.1 66.3,56.1 50,65.5 50,46.5 			"/>
			<polyline id="XMLID_9861_" class="st2" points="50,65.5 50,46.5 66.3,37.1 			"/>
			<polygon id="XMLID_9860_" class="st1" points="37.9,39.5 50,46.5 50,65.5 37.9,58.5 			"/>
			<polyline id="XMLID_9859_" class="st2" points="37.9,39.5 50,46.5 50,65.5 			"/>
			<g id="XMLID_9857_">
				<polygon id="XMLID_9858_" class="st3" points="40.2,43 40.2,57.7 47.7,62 47.7,47.3 				"/>
			</g>
			<g id="XMLID_9855_" class="st4">
				<polyline id="XMLID_9856_" class="st5" points="47.7,62 47.7,47.3 40.2,43 				"/>
			</g>
			<g id="XMLID_9849_">
				<g id="XMLID_9851_">
					<polygon id="XMLID_9854_" class="st6" points="46.9,53.1 46.9,54.3 46.9,55.2 46.6,55 46.6,54.8 46.6,53.5 46.6,53.2 					"/>
					<polygon id="XMLID_9853_" class="st7" points="46.3,53.4 46.6,53.5 46.6,54.8 46.3,54.7 					"/>
					<path id="XMLID_9852_" class="st6" d="M46.4,54.9c0.1,0.2,0.5,0.2,0.5,0.2S46.7,55,46.7,55c-0.1-0.1-0.1-0.2-0.1-0.2l-0.3-0.1
						C46.3,54.7,46.3,54.8,46.4,54.9z"/>
				</g>
				<path id="XMLID_9850_" class="st8" d="M46.5,52.9l0.3,0.2c0,0-0.1,0.1-0.2,0.2c0,0.1-0.1,0.2-0.1,0.2l-0.3-0.2
					c0,0,0-0.1,0.1-0.2C46.4,53,46.5,52.9,46.5,52.9z"/>
			</g>
			<polygon id="XMLID_9848_" class="st7" points="54.2,30.2 66.3,37.1 50,46.5 37.9,39.5 			"/>
		</g>
		<g id="XMLID_9842_">
			<polygon id="XMLID_9846_" class="st12" points="66.3,35.5 66.3,37.1 50,46.5 50,44.9 			"/>
			<polygon id="XMLID_9845_" class="st9" points="37.9,37.9 50,44.9 50,46.5 37.9,39.5 			"/>
			<polygon id="XMLID_9844_" class="st8" points="54.2,28.5 66.3,35.5 50,44.9 37.9,37.9 			"/>
			<polygon id="XMLID_9843_" class="st10" points="54.2,28.5 66.3,35.5 50,44.9 37.9,37.9 			"/>
		</g>
	</g>
	<g id="XMLID_9679_">
		<g id="XMLID_9730_">
			<g id="XMLID_9827_">
				<polygon id="XMLID_9840_" class="st13" points="46.2,27.6 36.2,33.3 48.7,40.6 58.7,34.8 				"/>
				<g id="XMLID_9837_">
					<polygon id="XMLID_9839_" class="st14" points="55,36.1 46.3,31.1 39.9,34.8 48.6,39.8 					"/>
					<polygon id="XMLID_9838_" class="st15" points="55,36.1 39.9,34.8 48.6,39.8 					"/>
				</g>
				<g id="XMLID_9835_">
					<polygon id="XMLID_9836_" class="st16" points="46.3,28.3 37.5,33.4 39.9,34.8 46.3,31.1 					"/>
				</g>
				<g id="XMLID_9833_" class="st4">
					<polyline id="XMLID_9834_" class="st5" points="39.9,34.8 46.3,31.1 46.3,28.3 					"/>
				</g>
				<g id="XMLID_9831_">
					<polygon id="XMLID_9832_" class="st17" points="55,36.1 57.4,34.7 46.3,28.3 46.3,31.1 					"/>
				</g>
				<g id="XMLID_9829_" class="st4">
					<polyline id="XMLID_9830_" class="st5" points="46.3,28.3 46.3,31.1 55,36.1 					"/>
				</g>
				<polygon id="XMLID_9828_" class="st7" points="51.2,32 51.9,32.4 51.9,33.1 51.2,32.7 				"/>
			</g>
			<g id="XMLID_9744_">
				<g id="XMLID_9810_">
					<g id="XMLID_9818_">
						<polygon id="XMLID_9825_" class="st18" points="46.7,24.9 46.7,25.2 46.5,25.5 46.3,25.5 46.3,25.2 46.5,24.9 						"/>
						<polygon id="XMLID_9823_" class="st19" points="45.8,24.9 46.3,25.2 46.3,25.5 45.8,25.2 						"/>
						<polygon id="XMLID_9821_" class="st20" points="46.3,24.6 46.7,24.9 46.5,24.9 46.3,25.2 45.8,24.9 46,24.7 						"/>
						<polygon id="XMLID_9819_" class="st21" points="46.5,24.9 46.3,25.2 45.8,24.9 46,24.7 						"/>
					</g>
					<g id="XMLID_9811_">
						<polygon id="XMLID_9816_" class="st18" points="47,25.2 47,25.4 46.7,25.6 46.7,25.4 						"/>
						<path id="XMLID_9814_" class="st18" d="M46.4,25.2l0.3,0.2v0.2c0,0-0.2-0.1-0.3-0.2C46.4,25.3,46.4,25.2,46.4,25.2z"/>
						<path id="XMLID_9812_" class="st20" d="M46.7,25l0.3,0.2l-0.3,0.2l-0.3-0.2c0,0,0-0.1,0.1-0.2C46.6,25,46.7,25,46.7,25z"/>
					</g>
				</g>
				<g id="XMLID_9764_">
					<g id="XMLID_9805_">
						<path id="XMLID_9808_" class="st22" d="M47.8,27c0-0.2-0.3-0.3-0.7-0.3c-0.4,0-0.7,0.1-0.7,0.3c0,0.1,0,0.1,0,0.2
							c0,0.2,0.3,0.3,0.7,0.3c0.4,0,0.7-0.1,0.7-0.3C47.8,27,47.8,27.1,47.8,27z"/>
						<ellipse id="XMLID_9806_" class="st20" cx="47.1" cy="27" rx="0.7" ry="0.3"/>
					</g>
					<g id="XMLID_9800_">
						<path id="XMLID_9803_" class="st22" d="M47.7,25.1c0-0.2-0.3-0.3-0.6-0.3c-0.4,0-0.6,0.1-0.6,0.3c0,0.1,0,1.7,0,1.8
							c0,0.2,0.3,0.3,0.6,0.3c0.4,0,0.6-0.1,0.6-0.3C47.7,26.8,47.7,25.2,47.7,25.1z"/>
						<ellipse id="XMLID_9801_" class="st20" cx="47.1" cy="25.1" rx="0.6" ry="0.3"/>
					</g>
					<g id="XMLID_9790_">
						<path id="XMLID_9798_" class="st23" d="M44.3,22l-0.1-0.1h-0.7L43.5,22v0.5c0,0,0.1,0.1,0.4,0.1c0.3,0,0.4-0.1,0.4-0.1V22z"/>
						<g id="XMLID_9791_">
							<path id="XMLID_9796_" class="st24" d="M45.1,19.3c-0.6,0.2-1.6,0.8-1.6,2.8h0.3C43.8,21.8,44,19.9,45.1,19.3z"/>
							<path id="XMLID_9794_" class="st25" d="M45.7,19.2C45.7,19.2,45.7,19.2,45.7,19.2c-0.1,0-0.1,0-0.2,0c0,0-0.2,0-0.4,0.1
								c-1.1,0.6-1.3,2.5-1.3,2.8h0.3C44.1,20.1,45.2,19.4,45.7,19.2z"/>
							<path id="XMLID_9792_" class="st26" d="M45.7,19.2C45.7,19.2,45.7,19.2,45.7,19.2C45.7,19.2,45.7,19.2,45.7,19.2
								C45.7,19.2,45.7,19.2,45.7,19.2z"/>
						</g>
					</g>
					<g id="XMLID_9785_">
						<path id="XMLID_9788_" class="st22" d="M47.6,24.7c0-0.1-0.2-0.2-0.5-0.2c-0.3,0-0.5,0.1-0.5,0.2c0,0.1,0,0.2,0,0.3
							c0,0.1,0.2,0.2,0.5,0.2c0.3,0,0.5-0.1,0.5-0.2C47.6,24.9,47.6,24.8,47.6,24.7z"/>
						<ellipse id="XMLID_9786_" class="st20" cx="47.1" cy="24.7" rx="0.5" ry="0.2"/>
					</g>
					<g id="XMLID_9770_">
						<g id="XMLID_9777_">
							<g id="XMLID_9782_">
								<path id="XMLID_9783_" class="st27" d="M46.9,22c0-0.7,0-1.1-0.1-1.4c-0.3-1.1-1.3-0.8-1.3-0.8c0,0,0.1,0,0.1,0
									c0,0,1.1-0.1,1.1,1.7v3.3c0,0,0.1,0,0.1,0V22z"/>
							</g>
							<g id="XMLID_9778_">
								<path id="XMLID_9780_" class="st22" d="M47.3,21.5c0-1.1-0.1-1.2-0.2-1.5c-0.2-0.4-0.5-0.7-1.4-0.7c0,0,0,0,0,0
									c1.7,0,1.6,1.7,1.6,1.9c0,0.1,0,3.2,0,3.7c0,0,0.1,0,0.1,0l0,0C47.3,24.3,47.3,22.2,47.3,21.5z"/>
								<polygon id="XMLID_9779_" class="st13" points="47.3,24.8 47.3,24.8 47.3,24.8 								"/>
							</g>
						</g>
						<g id="XMLID_9774_">
							<path id="XMLID_9775_" class="st28" d="M47.1,24.8v-3.4c0-0.7-0.1-1-0.2-1.2c-0.3-0.6-0.8-0.9-1.2-1
								c-0.5,0.2-1.6,0.8-1.6,2.8h0.2c0,0,0-0.2,0-0.4c0.1-0.6,0.4-1.7,1.2-1.9c0,0,1-0.4,1.3,0.8c0.1,0.3,0.1,0.6,0.1,1.4v2.8
								C47,24.8,47,24.8,47.1,24.8C47.1,24.8,47.1,24.8,47.1,24.8z"/>
						</g>
						<g id="XMLID_9771_">
							<path id="XMLID_9772_" class="st24" d="M47.3,21c0,0,0.1-1.7-1.6-1.7c0.4,0.1,0.9,0.4,1.2,1c0.1,0.3,0.2,0.5,0.2,1.2v3.4
								c0.1,0,0.1,0,0.2,0V21z"/>
						</g>
					</g>
					<g id="XMLID_9765_">
						<path id="XMLID_9768_" class="st23" d="M44.3,22L44.3,22c-0.1,0-0.2,0.1-0.4,0.1c-0.2,0-0.4-0.1-0.4-0.1l-0.1,0v0.5
							c0,0,0.1,0.1,0.4,0.1c0.3,0,0.4-0.1,0.4-0.1V22z"/>
						<g id="XMLID_9766_">
							<path id="XMLID_9767_" class="st29" d="M43.9,22.1c-0.1,0-0.1,0-0.2,0v0.5c0,0,0.1,0,0.2,0c0.1,0,0.1,0,0.2,0V22
								C44.1,22.1,44,22.1,43.9,22.1z"/>
						</g>
					</g>
				</g>
				<g id="XMLID_9745_">
					<g id="XMLID_9757_">
						<polygon id="XMLID_9762_" class="st18" points="48,25.9 48,26.1 47.7,26.3 47.7,26 						"/>
						<path id="XMLID_9760_" class="st18" d="M47.4,25.9l0.3,0.2v0.2c0,0-0.2-0.1-0.3-0.2C47.3,26,47.4,25.9,47.4,25.9z"/>
						<path id="XMLID_9758_" class="st20" d="M47.7,25.7l0.3,0.2L47.7,26l-0.3-0.2c0,0,0-0.1,0.1-0.2C47.5,25.7,47.7,25.7,47.7,25.7
							z"/>
					</g>
					<g id="XMLID_9746_">
						<polygon id="XMLID_9755_" class="st18" points="48.5,26 48.5,26.3 48.3,26.5 48,26.6 48,26.2 48.3,26 						"/>
						<polygon id="XMLID_9753_" class="st30" points="48.4,26.1 48.4,26.3 48.3,26.4 48.2,26.4 48.2,26.2 48.3,26.1 						"/>
						<polygon id="XMLID_9751_" class="st19" points="47.6,26 48,26.2 48,26.6 47.6,26.3 						"/>
						<polygon id="XMLID_9749_" class="st20" points="48,25.7 48.5,26 48.3,26 48,26.2 47.6,26 47.8,25.7 						"/>
						<polygon id="XMLID_9747_" class="st21" points="48.3,26 48,26.2 47.6,26 47.8,25.7 						"/>
					</g>
				</g>
			</g>
			<g id="XMLID_9731_">
				<polygon id="XMLID_9743_" class="st13" points="41.6,24.9 31.6,30.7 36.4,33.4 46.3,27.7 				"/>
				<g id="XMLID_9741_">
					<polygon id="XMLID_9742_" class="st14" points="42.6,29 41.8,28.5 35.3,32.2 36.2,32.7 					"/>
				</g>
				<g id="XMLID_9739_">
					<polygon id="XMLID_9740_" class="st16" points="41.8,25.7 32.9,30.8 35.3,32.2 41.8,28.5 					"/>
				</g>
				<g id="XMLID_9737_" class="st4">
					<polyline id="XMLID_9738_" class="st5" points="35.3,32.2 41.8,28.5 41.8,25.7 					"/>
				</g>
				<g id="XMLID_9735_">
					<polygon id="XMLID_9736_" class="st17" points="42.6,29 45,27.6 41.8,25.7 41.8,28.5 					"/>
				</g>
				<g id="XMLID_9733_" class="st4">
					<polyline id="XMLID_9734_" class="st5" points="41.8,25.7 41.8,28.5 42.6,29 					"/>
				</g>
				<polygon id="XMLID_9732_" class="st7" points="42.9,27.3 43.7,27.7 43.7,28.3 42.9,27.9 				"/>
			</g>
		</g>
		<g id="XMLID_9718_">
			<g id="XMLID_9728_">
				<polygon id="XMLID_9729_" class="st13" points="41.6,24.9 31.7,19.2 21.7,24.9 31.6,30.7 				"/>
			</g>
			<g id="XMLID_9726_" class="st4">
				<polyline id="XMLID_9727_" class="st5" points="21.7,24.9 31.6,30.7 41.6,24.9 				"/>
			</g>
			<g id="XMLID_9724_">
				<path id="XMLID_9725_" class="st31" d="M39.5,24.5l-7.4-4.3c-0.3-0.2-0.7-0.2-1,0l-7.4,4.3c-0.3,0.2-0.3,0.7,0,0.9l7.4,4.3
					c0.3,0.2,0.7,0.2,1,0l7.4-4.3C39.9,25.2,39.9,24.7,39.5,24.5z"/>
			</g>
			<g id="XMLID_9722_">
				<path id="XMLID_9723_" class="st13" d="M39.4,24.6l-7.2-4.2c-0.3-0.2-0.7-0.2-1,0L24,24.6c-0.3,0.2-0.3,0.6,0,0.7l7.2,4.2
					c0.3,0.2,0.7,0.2,1,0l7.2-4.2C39.6,25.1,39.6,24.7,39.4,24.6z"/>
			</g>
			<g id="XMLID_9719_">
				<path id="XMLID_9721_" class="st32" d="M24,24.7l7.2-4.2c0.3-0.2,0.7-0.2,1,0l7.2,4.2c0.1,0.1,0.2,0.2,0.2,0.3
					c0-0.2,0-0.3-0.2-0.4l-7.2-4.2c-0.3-0.2-0.7-0.2-1,0L24,24.6c-0.2,0.1-0.2,0.3-0.2,0.4C23.8,24.9,23.8,24.8,24,24.7z"/>
				<path id="XMLID_9720_" class="st13" d="M24,25.3l7.2,4.2c0.3,0.2,0.7,0.2,1,0l7.2-4.2c0.1-0.1,0.2-0.2,0.2-0.3
					c0-0.1-0.1-0.2-0.2-0.3l-7.2-4.2c-0.3-0.2-0.7-0.2-1,0L24,24.7c-0.1,0.1-0.2,0.2-0.2,0.3C23.8,25.1,23.8,25.2,24,25.3z"/>
			</g>
		</g>
		<g id="XMLID_9680_">
			<g id="XMLID_9697_">
				<g id="XMLID_9713_">
					<g id="XMLID_9716_">
						<path id="XMLID_9717_" class="st33" d="M31.1,21.1l-0.1,0l7.4,4.3c0,0,0,0,0.1,0l0,0c0,0,0,0,0,0L31.1,21.1z"/>
					</g>
					<g id="XMLID_9714_">
						<path id="XMLID_9715_" class="st34" d="M31.1,21.1L31.1,21.1l7.3,4.3c0,0,0,0,0,0l0,0c0,0,0,0,0,0L31.1,21.1z"/>
					</g>
				</g>
				<g id="XMLID_9708_">
					<g id="XMLID_9711_">
						<path id="XMLID_9712_" class="st33" d="M30,21.7l-0.1,0l7.4,4.3c0,0,0,0,0.1,0l0,0c0,0,0,0,0,0L30,21.7z"/>
					</g>
					<g id="XMLID_9709_">
						<path id="XMLID_9710_" class="st34" d="M30,21.6L30,21.6l7.3,4.3c0,0,0,0,0,0l0,0c0,0,0,0,0,0L30,21.6z"/>
					</g>
				</g>
				<g id="XMLID_9703_">
					<g id="XMLID_9706_">
						<path id="XMLID_9707_" class="st33" d="M29,22.2l-0.1,0l7.4,4.3c0,0,0,0,0.1,0l0,0c0,0,0,0,0,0L29,22.2z"/>
					</g>
					<g id="XMLID_9704_">
						<path id="XMLID_9705_" class="st34" d="M29,22.2L29,22.2l7.3,4.3c0,0,0,0,0,0l0,0c0,0,0,0,0,0L29,22.2z"/>
					</g>
				</g>
				<g id="XMLID_9698_">
					<g id="XMLID_9701_">
						<path id="XMLID_9702_" class="st33" d="M27.9,22.8l-0.1,0l7.4,4.3c0,0,0,0,0.1,0l0,0c0,0,0,0,0,0L27.9,22.8z"/>
					</g>
					<g id="XMLID_9699_">
						<path id="XMLID_9700_" class="st34" d="M28,22.8L28,22.8l7.3,4.3c0,0,0,0,0,0l0,0c0,0,0,0,0,0L28,22.8z"/>
					</g>
				</g>
			</g>
			<g id="XMLID_9681_">
				<g id="XMLID_9692_">
					<g id="XMLID_9695_">
						<path id="XMLID_9696_" class="st33" d="M26.9,23.4l-0.1,0l7.4,4.3c0,0,0,0,0.1,0l0,0c0,0,0,0,0,0L26.9,23.4z"/>
					</g>
					<g id="XMLID_9693_">
						<path id="XMLID_9694_" class="st34" d="M26.9,23.3L26.9,23.3l7.3,4.3c0,0,0,0,0.1,0l0,0c0,0,0,0,0,0L26.9,23.3z"/>
					</g>
				</g>
				<g id="XMLID_9687_">
					<g id="XMLID_9690_">
						<path id="XMLID_9691_" class="st33" d="M25.8,23.9l-0.1,0l7.4,4.3c0,0,0,0,0.1,0l0,0c0,0,0,0,0,0L25.8,23.9z"/>
					</g>
					<g id="XMLID_9688_">
						<path id="XMLID_9689_" class="st34" d="M25.9,23.9L25.9,23.9l7.3,4.3c0,0,0,0,0,0l0,0c0,0,0,0,0,0L25.9,23.9z"/>
					</g>
				</g>
				<g id="XMLID_9682_">
					<g id="XMLID_9685_">
						<path id="XMLID_9686_" class="st33" d="M24.8,24.5l-0.1,0l7.4,4.3c0,0,0,0,0.1,0l0,0c0,0,0,0,0,0L24.8,24.5z"/>
					</g>
					<g id="XMLID_9683_">
						<path id="XMLID_9684_" class="st34" d="M24.8,24.4L24.8,24.4l7.3,4.3c0,0,0,0,0,0l0,0c0,0,0,0,0,0L24.8,24.4z"/>
					</g>
				</g>
			</g>
		</g>
	</g>
</g>
</svg>
