<?xml version="1.0" encoding="utf-8"?>
<!-- Generator: Adobe Illustrator 21.0.0, SVG Export Plug-In . SVG Version: 6.00 Build 0)  -->
<svg version="1.1" id="Layer_1" xmlns="http://www.w3.org/2000/svg" xmlns:xlink="http://www.w3.org/1999/xlink" x="0px" y="0px"
	 viewBox="0 0 80 80" style="enable-background:new 0 0 80 80;" xml:space="preserve">
<style type="text/css">
	.st0{fill:#445A5C;}
	.st1{fill:#597175;}
	.st2{fill:#10516C;}
	.st3{fill:#E8E7E7;}
	.st4{fill:#2E6E8D;}
	.st5{fill:#9F6128;}
	.st6{fill:#41575C;}
	.st7{fill:#3B4E52;}
	.st8{fill:#28393D;}
	.st9{fill:#25363A;}
</style>
<g id="XMLID_3859_">
	<polygon id="XMLID_3863_" class="st0" points="26.7,7.9 25.9,7.4 25.9,69.1 26.7,69.6 	"/>
	<g id="XMLID_3861_">
		<polygon id="XMLID_3862_" class="st1" points="37.8,1.5 37,1 25.9,7.4 26.7,7.9 		"/>
	</g>
	<polygon id="XMLID_3860_" class="st2" points="37.8,1.5 26.7,7.9 26.7,69.5 37.8,63.1 	"/>
</g>
<g id="XMLID_3856_">
	<polygon id="XMLID_3858_" class="st3" points="53.3,70.2 53.3,70.9 42.2,77.4 42.2,76.6 	"/>
	<polygon id="XMLID_3857_" class="st4" points="37.8,61.2 53.3,70.2 42.2,76.6 26.7,67.6 	"/>
</g>
<g id="XMLID_3853_">
	<polygon id="XMLID_3855_" class="st5" points="53.3,70.2 53.3,72.1 42.2,78.5 42.2,76.6 	"/>
	<polygon id="XMLID_3854_" class="st0" points="26.7,67.6 42.2,76.6 42.2,78.5 26.7,69.6 	"/>
</g>
<g id="XMLID_3831_">
	<polygon id="XMLID_3835_" class="st0" points="26.7,7.9 42.2,16.9 42.2,17.6 26.7,8.6 	"/>
	<polygon id="XMLID_3834_" class="st5" points="53.3,10.4 53.3,11.2 42.2,17.6 42.2,16.9 	"/>
	<g id="XMLID_3832_">
		<polygon id="XMLID_3833_" class="st6" points="37.8,1.5 53.3,10.4 42.2,16.9 26.7,7.9 		"/>
	</g>
	<g id="XMLID_4037_">
		<polyline id="XMLID_4043_" class="st7" points="53.3,10.4 42.2,16.9 26.7,7.9 		"/>
	</g>
</g>
<g id="XMLID_3826_">
	<polygon id="XMLID_3829_" class="st0" points="43,17.3 42.2,16.9 42.2,78.5 43,79 	"/>
	<g id="XMLID_3827_">
		<polygon id="XMLID_3828_" class="st1" points="54.1,10.9 53.3,10.4 42.2,16.9 43,17.3 		"/>
	</g>
</g>
<polygon id="XMLID_3824_" class="st8" points="54.1,10.9 43,17.3 43,79 54.1,72.6 "/>
<polyline id="XMLID_4040_" class="st9" points="54.1,10.9 43,17.3 43,79 "/>
<g>
	<g id="XMLID_3_">
		<polygon id="XMLID_6_" class="st0" points="42.9,17.3 43.7,16.9 43.7,78.5 42.9,79 		"/>
		<g id="XMLID_4_">
			<polygon id="XMLID_5_" class="st1" points="25.9,7.4 26.7,6.9 43.7,16.9 42.9,17.3 			"/>
		</g>
	</g>
	<polygon id="XMLID_2_" class="st8" points="25.9,7.4 42.9,17.3 42.9,79 25.9,69.1 	"/>
	<polyline id="XMLID_1_" class="st9" points="25.9,7.4 42.9,17.3 42.9,79 	"/>
</g>
</svg>
