<?xml version="1.0" encoding="utf-8"?>
<!-- Generator: Adobe Illustrator 21.0.0, SVG Export Plug-In . SVG Version: 6.00 Build 0)  -->
<svg version="1.1" xmlns="http://www.w3.org/2000/svg" xmlns:xlink="http://www.w3.org/1999/xlink" x="0px" y="0px"
	 viewBox="0 0 80 80" style="enable-background:new 0 0 80 80;" xml:space="preserve">
<style type="text/css">
	.st0{fill:#3B73B8;}
	.st1{fill:#3266AE;}
	.st2{fill:#26559F;}
</style>
<g id="Layer_2">
	<g>
		<polygon class="st0" points="54.3,63.9 54.3,4.9 29.6,19.1 29.6,78.2 		"/>
	</g>
	<polyline class="st1" points="54.3,4.9 29.6,19.1 29.6,78.2 	"/>
	<path class="st2" d="M33.6,28.7v25.9l16.8-9.7V19.4c0-4.1-4.5-4.2-8-2.2l-1.1,0.6C36.5,20.6,33.6,23.2,33.6,28.7z M35.3,28.6
		c0-4.3,2.3-6.3,6-8.5l0.9-0.5c2.8-1.6,6.3-1.5,6.3,1.7v22.5l-13.2,7.6V28.6z"/>
	<path class="st2" d="M33.6,57.3v14l16.8-9.7v-14L33.6,57.3z M35.4,58.2l13.1-7.6v10.1l-13.1,7.6V58.2z"/>
</g>
<g id="Layer_1">
</g>
</svg>
