<?xml version="1.0" encoding="utf-8"?>
<!-- Generator: Adobe Illustrator 21.0.0, SVG Export Plug-In . SVG Version: 6.00 Build 0)  -->
<svg version="1.1" id="Layer_1" xmlns="http://www.w3.org/2000/svg" xmlns:xlink="http://www.w3.org/1999/xlink" x="0px" y="0px"
	 viewBox="0 0 80 80" style="enable-background:new 0 0 80 80;" xml:space="preserve">
<style type="text/css">
	.st0{fill:#525354;}
	.st1{fill:#45484A;}
	.st2{opacity:0.2;fill:#3B3D3F;}
	.st3{fill:#BCBEC0;}
	.st4{opacity:0.1;}
	.st5{fill:#3B3D3F;}
	.st6{fill:#4F4F51;}
	.st7{fill:#59595C;}
	.st8{fill:#636467;}
	.st9{fill:#4E4D50;}
	.st10{opacity:0.1;fill:#3B3D3F;}
	.st11{fill:#B7B8BA;}
	.st12{fill:#464748;}
	.st13{fill:#A3A6A8;}
	.st14{fill:#229CB9;}
	.st15{fill:#1D86B7;}
	.st16{fill:#8F9194;}
	.st17{fill:#858789;}
	.st18{fill:#C6C4C3;}
	.st19{fill:#CECDCC;}
	.st20{fill:#DBDDDB;}
	.st21{fill:#E4E4E3;}
	.st22{fill:#C9C9CA;}
	.st23{fill:#4E4E4F;}
	.st24{fill:#E3E4E3;}
	.st25{fill:#BFC0C1;}
	.st26{fill:#ABABAB;}
	.st27{fill:#9A9A9C;}
	.st28{fill:#D4D4D3;}
	.st29{fill:#434445;}
	.st30{fill:#287CBD;}
	.st31{fill:#979899;}
	.st32{fill:#908E8F;}
	.st33{fill:#9D9E9F;}
	.st34{fill:#8C8C8D;}
</style>
<g id="XMLID_9678_">
	<g id="XMLID_9916_">
		<g id="XMLID_9922_">
			<polygon id="XMLID_9936_" class="st0" points="37.9,23.2 37.9,42.1 54.2,51.5 54.2,32.5 			"/>
			<polygon id="XMLID_9935_" class="st1" points="66.3,25.6 54.2,32.5 54.2,51.5 66.3,44.5 			"/>
			<polyline id="XMLID_9934_" class="st2" points="66.3,25.6 54.2,32.5 54.2,51.5 			"/>
			<g id="XMLID_9932_">
				<polygon id="XMLID_9933_" class="st3" points="64,29 64,43.7 56.5,48 56.5,33.3 				"/>
			</g>
			<g id="XMLID_9930_" class="st4">
				<polyline id="XMLID_9931_" class="st5" points="56.5,48 56.5,33.3 64,29 				"/>
			</g>
			<g id="XMLID_9924_">
				<g id="XMLID_9926_">
					<polygon id="XMLID_9929_" class="st6" points="57.3,39.1 57.3,40.3 57.3,41.2 57.6,41 57.6,40.8 57.6,39.5 57.6,39.3 					"/>
					<polygon id="XMLID_9928_" class="st7" points="57.9,39.4 57.6,39.5 57.6,40.8 57.9,40.7 					"/>
					<path id="XMLID_9927_" class="st6" d="M57.8,40.9c-0.1,0.2-0.5,0.2-0.5,0.2s0.1-0.1,0.2-0.2c0.1-0.1,0.1-0.2,0.1-0.2l0.3-0.1
						C57.9,40.7,57.9,40.8,57.8,40.9z"/>
				</g>
				<path id="XMLID_9925_" class="st8" d="M57.7,38.9l-0.3,0.2c0,0,0.1,0.1,0.2,0.2c0,0.1,0.1,0.2,0.1,0.2l0.3-0.2
					c0,0,0-0.1-0.1-0.2C57.8,39.1,57.7,38.9,57.7,38.9z"/>
			</g>
			<polygon id="XMLID_9923_" class="st7" points="50,16.2 37.9,23.2 54.2,32.5 66.3,25.6 			"/>
		</g>
		<g id="XMLID_9917_">
			<polygon id="XMLID_9921_" class="st9" points="37.9,21.5 37.9,23.2 54.2,32.5 54.2,30.9 			"/>
			<polygon id="XMLID_9920_" class="st9" points="66.3,23.9 54.2,30.9 54.2,32.5 66.3,25.6 			"/>
			<polygon id="XMLID_9919_" class="st8" points="50,14.5 37.9,21.5 54.2,30.9 66.3,23.9 			"/>
			<polyline id="XMLID_9918_" class="st10" points="37.9,21.5 54.2,30.9 66.3,23.9 			"/>
		</g>
	</g>
	<g id="XMLID_9863_">
		<g id="XMLID_9869_">
			<polygon id="XMLID_9915_" class="st0" points="25.8,30.2 25.8,49.1 42.1,58.5 42.1,39.5 			"/>
			<polygon id="XMLID_9914_" class="st1" points="54.2,32.5 42.1,39.5 42.1,58.5 54.2,51.5 			"/>
			<polyline id="XMLID_9913_" class="st2" points="54.2,32.5 42.1,39.5 42.1,58.5 			"/>
			<g id="XMLID_9899_">
				<g id="XMLID_9906_">
					<g id="XMLID_9911_">
						<polygon id="XMLID_9912_" class="st11" points="53.4,33.7 53.4,39.1 42.8,45.2 42.8,39.8 						"/>
					</g>
					<g id="XMLID_9909_" class="st4">
						<polyline id="XMLID_9910_" class="st5" points="42.8,45.2 42.8,39.8 53.4,33.7 						"/>
					</g>
					<g id="XMLID_9907_">
						<polygon id="XMLID_9908_" class="st0" points="53.4,38.8 53.4,39.1 42.8,45.2 42.8,44.9 						"/>
					</g>
				</g>
				<g id="XMLID_9900_">
					<g id="XMLID_9902_">
						<polygon id="XMLID_9905_" class="st6" points="47,39.4 47,40.5 47.2,40.3 47.3,40.2 47.3,39.8 47.3,39.5 						"/>
						<polygon id="XMLID_9904_" class="st7" points="49.1,38.7 47.3,39.8 47.3,40.2 49.1,39.1 						"/>
						<path id="XMLID_9903_" class="st6" d="M49,39.3c0,0.1-0.1,0.1-0.2,0.2c-0.1,0.1-1.8,1.1-1.8,1.1s0.1-0.2,0.2-0.3
							c0.1-0.1,0.1-0.1,0.1-0.1l1.9-1.1C49.1,39.1,49.1,39.2,49,39.3z"/>
					</g>
					<path id="XMLID_9901_" class="st8" d="M48.9,38.3l-1.8,1c0,0,0.1,0.1,0.2,0.2c0,0.1,0.1,0.2,0.1,0.2l1.9-1.1c0,0,0-0.1-0.1-0.2
						C49,38.4,48.9,38.3,48.9,38.3z"/>
				</g>
			</g>
			<polygon id="XMLID_9898_" class="st7" points="37.9,23.2 25.8,30.2 42.1,39.5 54.2,32.5 			"/>
			<g id="XMLID_9884_">
				<g id="XMLID_9891_">
					<g id="XMLID_9896_">
						<polygon id="XMLID_9897_" class="st11" points="53.4,39.4 53.4,44.8 42.8,50.9 42.8,45.5 						"/>
					</g>
					<g id="XMLID_9894_" class="st4">
						<polyline id="XMLID_9895_" class="st5" points="42.8,50.9 42.8,45.5 53.4,39.4 						"/>
					</g>
					<g id="XMLID_9892_">
						<polygon id="XMLID_9893_" class="st0" points="53.4,44.5 53.4,44.8 42.8,50.9 42.8,50.6 						"/>
					</g>
				</g>
				<g id="XMLID_9885_">
					<g id="XMLID_9887_">
						<polygon id="XMLID_9890_" class="st6" points="47,45.1 47,46.3 47.2,46 47.3,45.9 47.3,45.5 47.3,45.2 						"/>
						<polygon id="XMLID_9889_" class="st7" points="49.1,44.4 47.3,45.5 47.3,45.9 49.1,44.8 						"/>
						<path id="XMLID_9888_" class="st6" d="M49,45c0,0.1-0.1,0.1-0.2,0.2c-0.1,0.1-1.8,1.1-1.8,1.1s0.1-0.2,0.2-0.3
							c0.1-0.1,0.1-0.1,0.1-0.1l1.9-1.1C49.1,44.8,49.1,44.9,49,45z"/>
					</g>
					<path id="XMLID_9886_" class="st8" d="M48.9,44l-1.8,1c0,0,0.1,0.1,0.2,0.2c0,0.1,0.1,0.2,0.1,0.2l1.9-1.1c0,0,0-0.1-0.1-0.2
						C49,44.1,48.9,44,48.9,44z"/>
				</g>
			</g>
			<g id="XMLID_9870_">
				<g id="XMLID_9877_">
					<g id="XMLID_9882_">
						<polygon id="XMLID_9883_" class="st11" points="53.4,45.1 53.4,50.5 42.8,56.6 42.8,51.2 						"/>
					</g>
					<g id="XMLID_9880_" class="st4">
						<polyline id="XMLID_9881_" class="st5" points="42.8,56.6 42.8,51.2 53.4,45.1 						"/>
					</g>
					<g id="XMLID_9878_">
						<polygon id="XMLID_9879_" class="st0" points="53.4,50.2 53.4,50.5 42.8,56.6 42.8,56.3 						"/>
					</g>
				</g>
				<g id="XMLID_9871_">
					<g id="XMLID_9873_">
						<polygon id="XMLID_9876_" class="st6" points="47,50.8 47,52 47.2,51.7 47.3,51.6 47.3,51.2 47.3,50.9 						"/>
						<polygon id="XMLID_9875_" class="st7" points="49.1,50.1 47.3,51.2 47.3,51.6 49.1,50.6 						"/>
						<path id="XMLID_9874_" class="st6" d="M49,50.8c0,0.1-0.1,0.1-0.2,0.2C48.7,51,47,52,47,52s0.1-0.2,0.2-0.3
							c0.1-0.1,0.1-0.1,0.1-0.1l1.9-1.1C49.1,50.6,49.1,50.6,49,50.8z"/>
					</g>
					<path id="XMLID_9872_" class="st8" d="M48.9,49.7l-1.8,1c0,0,0.1,0.1,0.2,0.2c0,0.1,0.1,0.2,0.1,0.2l1.9-1.1c0,0,0-0.1-0.1-0.2
						C49,49.8,48.9,49.7,48.9,49.7z"/>
				</g>
			</g>
		</g>
		<g id="XMLID_9864_">
			<polygon id="XMLID_9868_" class="st9" points="25.8,28.5 25.8,30.2 42.1,39.5 42.1,37.9 			"/>
			<polygon id="XMLID_9867_" class="st9" points="54.2,30.9 42.1,37.9 42.1,39.5 54.2,32.5 			"/>
			<polygon id="XMLID_9866_" class="st8" points="37.9,21.5 25.8,28.5 42.1,37.9 54.2,30.9 			"/>
			<polygon id="XMLID_9865_" class="st10" points="37.9,21.5 25.8,28.5 42.1,37.9 54.2,30.9 			"/>
		</g>
	</g>
	<g id="XMLID_9841_">
		<g id="XMLID_9847_">
			<polygon id="XMLID_9862_" class="st5" points="13.7,37.1 13.7,56.1 30,65.5 30,46.5 			"/>
			<polyline id="XMLID_9861_" class="st2" points="30,65.5 30,46.5 13.7,37.1 			"/>
			<polygon id="XMLID_9860_" class="st1" points="42.1,39.5 30,46.5 30,65.5 42.1,58.5 			"/>
			<polyline id="XMLID_9859_" class="st2" points="42.1,39.5 30,46.5 30,65.5 			"/>
			<g id="XMLID_9857_">
				<polygon id="XMLID_9858_" class="st3" points="39.8,43 39.8,57.7 32.3,62 32.3,47.3 				"/>
			</g>
			<g id="XMLID_9855_" class="st4">
				<polyline id="XMLID_9856_" class="st5" points="32.3,62 32.3,47.3 39.8,43 				"/>
			</g>
			<g id="XMLID_9849_">
				<g id="XMLID_9851_">
					<polygon id="XMLID_9854_" class="st6" points="33.1,53.1 33.1,54.3 33.1,55.2 33.4,55 33.4,54.8 33.4,53.5 33.4,53.2 					"/>
					<polygon id="XMLID_9853_" class="st7" points="33.7,53.4 33.4,53.5 33.4,54.8 33.7,54.7 					"/>
					<path id="XMLID_9852_" class="st6" d="M33.6,54.9c-0.1,0.2-0.5,0.2-0.5,0.2s0.1-0.1,0.2-0.2c0.1-0.1,0.1-0.2,0.1-0.2l0.3-0.1
						C33.7,54.7,33.7,54.8,33.6,54.9z"/>
				</g>
				<path id="XMLID_9850_" class="st8" d="M33.5,52.9l-0.3,0.2c0,0,0.1,0.1,0.2,0.2c0,0.1,0.1,0.2,0.1,0.2l0.3-0.2
					c0,0,0-0.1-0.1-0.2C33.6,53,33.5,52.9,33.5,52.9z"/>
			</g>
			<polygon id="XMLID_9848_" class="st7" points="25.8,30.2 13.7,37.1 30,46.5 42.1,39.5 			"/>
		</g>
		<g id="XMLID_9842_">
			<polygon id="XMLID_9846_" class="st12" points="13.7,35.5 13.7,37.1 30,46.5 30,44.9 			"/>
			<polygon id="XMLID_9845_" class="st9" points="42.1,37.9 30,44.9 30,46.5 42.1,39.5 			"/>
			<polygon id="XMLID_9844_" class="st8" points="25.8,28.5 13.7,35.5 30,44.9 42.1,37.9 			"/>
			<polygon id="XMLID_9843_" class="st10" points="25.8,28.5 13.7,35.5 30,44.9 42.1,37.9 			"/>
		</g>
	</g>
	<g id="XMLID_9679_">
		<g id="XMLID_9730_">
			<g id="XMLID_9827_">
				<polygon id="XMLID_9840_" class="st13" points="33.8,27.6 43.8,33.3 31.3,40.6 21.3,34.8 				"/>
				<g id="XMLID_9837_">
					<polygon id="XMLID_9839_" class="st14" points="25,36.1 33.7,31.1 40.1,34.8 31.4,39.8 					"/>
					<polygon id="XMLID_9838_" class="st15" points="25,36.1 40.1,34.8 31.4,39.8 					"/>
				</g>
				<g id="XMLID_9835_">
					<polygon id="XMLID_9836_" class="st16" points="33.7,28.3 42.5,33.4 40.1,34.8 33.7,31.1 					"/>
				</g>
				<g id="XMLID_9833_" class="st4">
					<polyline id="XMLID_9834_" class="st5" points="40.1,34.8 33.7,31.1 33.7,28.3 					"/>
				</g>
				<g id="XMLID_9831_">
					<polygon id="XMLID_9832_" class="st17" points="25,36.1 22.6,34.7 33.7,28.3 33.7,31.1 					"/>
				</g>
				<g id="XMLID_9829_" class="st4">
					<polyline id="XMLID_9830_" class="st5" points="33.7,28.3 33.7,31.1 25,36.1 					"/>
				</g>
				<polygon id="XMLID_9828_" class="st7" points="28.8,32 28.1,32.4 28.1,33.1 28.8,32.7 				"/>
			</g>
			<g id="XMLID_9744_">
				<g id="XMLID_9810_">
					<g id="XMLID_9818_">
						<polygon id="XMLID_9825_" class="st18" points="33.3,24.9 33.3,25.2 33.5,25.5 33.7,25.5 33.7,25.2 33.5,24.9 						"/>
						<polygon id="XMLID_9823_" class="st19" points="34.2,24.9 33.7,25.2 33.7,25.5 34.2,25.2 						"/>
						<polygon id="XMLID_9821_" class="st20" points="33.7,24.6 33.3,24.9 33.5,24.9 33.7,25.2 34.2,24.9 34,24.7 						"/>
						<polygon id="XMLID_9819_" class="st21" points="33.5,24.9 33.7,25.2 34.2,24.9 34,24.7 						"/>
					</g>
					<g id="XMLID_9811_">
						<polygon id="XMLID_9816_" class="st18" points="33,25.2 33,25.4 33.3,25.6 33.3,25.4 						"/>
						<path id="XMLID_9814_" class="st18" d="M33.6,25.2l-0.3,0.2v0.2c0,0,0.2-0.1,0.3-0.2C33.6,25.3,33.6,25.2,33.6,25.2z"/>
						<path id="XMLID_9812_" class="st20" d="M33.3,25L33,25.2l0.3,0.2l0.3-0.2c0,0,0-0.1-0.1-0.2C33.4,25,33.3,25,33.3,25z"/>
					</g>
				</g>
				<g id="XMLID_9764_">
					<g id="XMLID_9805_">
						<path id="XMLID_9808_" class="st22" d="M32.2,27c0-0.2,0.3-0.3,0.7-0.3c0.4,0,0.7,0.1,0.7,0.3c0,0.1,0,0.1,0,0.2
							c0,0.2-0.3,0.3-0.7,0.3c-0.4,0-0.7-0.1-0.7-0.3C32.2,27,32.2,27.1,32.2,27z"/>
						<ellipse id="XMLID_9806_" class="st20" cx="32.9" cy="27" rx="0.7" ry="0.3"/>
					</g>
					<g id="XMLID_9800_">
						<path id="XMLID_9803_" class="st22" d="M32.3,25.1c0-0.2,0.3-0.3,0.6-0.3c0.4,0,0.6,0.1,0.6,0.3c0,0.1,0,1.7,0,1.8
							c0,0.2-0.3,0.3-0.6,0.3c-0.4,0-0.6-0.1-0.6-0.3C32.3,26.8,32.3,25.2,32.3,25.1z"/>
						<ellipse id="XMLID_9801_" class="st20" cx="32.9" cy="25.1" rx="0.6" ry="0.3"/>
					</g>
					<g id="XMLID_9790_">
						<path id="XMLID_9798_" class="st23" d="M35.7,22l0.1-0.1h0.7l0.1,0.1v0.5c0,0-0.1,0.1-0.4,0.1c-0.3,0-0.4-0.1-0.4-0.1V22z"/>
						<g id="XMLID_9791_">
							<path id="XMLID_9796_" class="st24" d="M34.9,19.3c0.6,0.2,1.6,0.8,1.6,2.8h-0.3C36.2,21.8,36,19.9,34.9,19.3z"/>
							<path id="XMLID_9794_" class="st25" d="M34.3,19.2C34.3,19.2,34.3,19.2,34.3,19.2c0.1,0,0.1,0,0.2,0c0,0,0.2,0,0.4,0.1
								c1.1,0.6,1.3,2.5,1.3,2.8h-0.3C35.9,20.1,34.8,19.4,34.3,19.2z"/>
							<path id="XMLID_9792_" class="st26" d="M34.3,19.2C34.3,19.2,34.3,19.2,34.3,19.2C34.3,19.2,34.3,19.2,34.3,19.2
								C34.3,19.2,34.3,19.2,34.3,19.2z"/>
						</g>
					</g>
					<g id="XMLID_9785_">
						<path id="XMLID_9788_" class="st22" d="M32.4,24.7c0-0.1,0.2-0.2,0.5-0.2c0.3,0,0.5,0.1,0.5,0.2c0,0.1,0,0.2,0,0.3
							c0,0.1-0.2,0.2-0.5,0.2c-0.3,0-0.5-0.1-0.5-0.2C32.4,24.9,32.4,24.8,32.4,24.7z"/>
						<ellipse id="XMLID_9786_" class="st20" cx="32.9" cy="24.7" rx="0.5" ry="0.2"/>
					</g>
					<g id="XMLID_9770_">
						<g id="XMLID_9777_">
							<g id="XMLID_9782_">
								<path id="XMLID_9783_" class="st27" d="M33.1,22c0-0.7,0-1.1,0.1-1.4c0.3-1.1,1.3-0.8,1.3-0.8c0,0-0.1,0-0.1,0
									c0,0-1.1-0.1-1.1,1.7v3.3c0,0-0.1,0-0.1,0V22z"/>
							</g>
							<g id="XMLID_9778_">
								<path id="XMLID_9780_" class="st22" d="M32.7,21.5c0-1.1,0.1-1.2,0.2-1.5c0.2-0.4,0.5-0.7,1.4-0.7c0,0,0,0,0,0
									c-1.7,0-1.6,1.7-1.6,1.9c0,0.1,0,3.2,0,3.7c0,0-0.1,0-0.1,0l0,0C32.7,24.3,32.7,22.2,32.7,21.5z"/>
								<polygon id="XMLID_9779_" class="st13" points="32.7,24.8 32.7,24.8 32.7,24.8 								"/>
							</g>
						</g>
						<g id="XMLID_9774_">
							<path id="XMLID_9775_" class="st28" d="M32.9,24.8v-3.4c0-0.7,0.1-1,0.2-1.2c0.3-0.6,0.8-0.9,1.2-1c0.5,0.2,1.6,0.8,1.6,2.8
								h-0.2c0,0,0-0.2,0-0.4c-0.1-0.6-0.4-1.7-1.2-1.9c0,0-1-0.4-1.3,0.8c-0.1,0.3-0.1,0.6-0.1,1.4v2.8C33,24.8,33,24.8,32.9,24.8
								C32.9,24.8,32.9,24.8,32.9,24.8z"/>
						</g>
						<g id="XMLID_9771_">
							<path id="XMLID_9772_" class="st24" d="M32.7,21c0,0-0.1-1.7,1.6-1.7c-0.4,0.1-0.9,0.4-1.2,1c-0.1,0.3-0.2,0.5-0.2,1.2v3.4
								c-0.1,0-0.1,0-0.2,0V21z"/>
						</g>
					</g>
					<g id="XMLID_9765_">
						<path id="XMLID_9768_" class="st23" d="M35.7,22L35.7,22c0.1,0,0.2,0.1,0.4,0.1c0.2,0,0.4-0.1,0.4-0.1l0.1,0v0.5
							c0,0-0.1,0.1-0.4,0.1c-0.3,0-0.4-0.1-0.4-0.1V22z"/>
						<g id="XMLID_9766_">
							<path id="XMLID_9767_" class="st29" d="M36.1,22.1c0.1,0,0.1,0,0.2,0v0.5c0,0-0.1,0-0.2,0c-0.1,0-0.1,0-0.2,0V22
								C35.9,22.1,36,22.1,36.1,22.1z"/>
						</g>
					</g>
				</g>
				<g id="XMLID_9745_">
					<g id="XMLID_9757_">
						<polygon id="XMLID_9762_" class="st18" points="32,25.9 32,26.1 32.3,26.3 32.3,26 						"/>
						<path id="XMLID_9760_" class="st18" d="M32.6,25.9L32.3,26v0.2c0,0,0.2-0.1,0.3-0.2C32.7,26,32.6,25.9,32.6,25.9z"/>
						<path id="XMLID_9758_" class="st20" d="M32.3,25.7L32,25.9l0.3,0.2l0.3-0.2c0,0,0-0.1-0.1-0.2C32.5,25.7,32.3,25.7,32.3,25.7z
							"/>
					</g>
					<g id="XMLID_9746_">
						<polygon id="XMLID_9755_" class="st18" points="31.5,26 31.5,26.3 31.7,26.5 32,26.6 32,26.2 31.7,26 						"/>
						<polygon id="XMLID_9753_" class="st30" points="31.6,26.1 31.6,26.3 31.7,26.4 31.8,26.4 31.8,26.2 31.7,26.1 						"/>
						<polygon id="XMLID_9751_" class="st19" points="32.4,26 32,26.2 32,26.6 32.4,26.3 						"/>
						<polygon id="XMLID_9749_" class="st20" points="32,25.7 31.5,26 31.7,26 32,26.2 32.4,26 32.2,25.7 						"/>
						<polygon id="XMLID_9747_" class="st21" points="31.7,26 32,26.2 32.4,26 32.2,25.7 						"/>
					</g>
				</g>
			</g>
			<g id="XMLID_9731_">
				<polygon id="XMLID_9743_" class="st13" points="38.4,24.9 48.4,30.7 43.6,33.4 33.7,27.7 				"/>
				<g id="XMLID_9741_">
					<polygon id="XMLID_9742_" class="st14" points="37.4,29 38.2,28.5 44.7,32.2 43.8,32.7 					"/>
				</g>
				<g id="XMLID_9739_">
					<polygon id="XMLID_9740_" class="st16" points="38.2,25.7 47.1,30.8 44.7,32.2 38.2,28.5 					"/>
				</g>
				<g id="XMLID_9737_" class="st4">
					<polyline id="XMLID_9738_" class="st5" points="44.7,32.2 38.2,28.5 38.2,25.7 					"/>
				</g>
				<g id="XMLID_9735_">
					<polygon id="XMLID_9736_" class="st17" points="37.4,29 35,27.6 38.2,25.7 38.2,28.5 					"/>
				</g>
				<g id="XMLID_9733_" class="st4">
					<polyline id="XMLID_9734_" class="st5" points="38.2,25.7 38.2,28.5 37.4,29 					"/>
				</g>
				<polygon id="XMLID_9732_" class="st7" points="37.1,27.3 36.3,27.7 36.3,28.3 37.1,27.9 				"/>
			</g>
		</g>
		<g id="XMLID_9718_">
			<g id="XMLID_9728_">
				<polygon id="XMLID_9729_" class="st13" points="38.4,24.9 48.3,19.2 58.3,24.9 48.4,30.7 				"/>
			</g>
			<g id="XMLID_9726_" class="st4">
				<polyline id="XMLID_9727_" class="st5" points="58.3,24.9 48.4,30.7 38.4,24.9 				"/>
			</g>
			<g id="XMLID_9724_">
				<path id="XMLID_9725_" class="st31" d="M40.5,24.5l7.4-4.3c0.3-0.2,0.7-0.2,1,0l7.4,4.3c0.3,0.2,0.3,0.7,0,0.9l-7.4,4.3
					c-0.3,0.2-0.7,0.2-1,0l-7.4-4.3C40.1,25.2,40.1,24.7,40.5,24.5z"/>
			</g>
			<g id="XMLID_9722_">
				<path id="XMLID_9723_" class="st13" d="M40.6,24.6l7.2-4.2c0.3-0.2,0.7-0.2,1,0l7.2,4.2c0.3,0.2,0.3,0.6,0,0.7l-7.2,4.2
					c-0.3,0.2-0.7,0.2-1,0l-7.2-4.2C40.4,25.1,40.4,24.7,40.6,24.6z"/>
			</g>
			<g id="XMLID_9719_">
				<path id="XMLID_9721_" class="st32" d="M56,24.7l-7.2-4.2c-0.3-0.2-0.7-0.2-1,0l-7.2,4.2c-0.1,0.1-0.2,0.2-0.2,0.3
					c0-0.2,0-0.3,0.2-0.4l7.2-4.2c0.3-0.2,0.7-0.2,1,0l7.2,4.2c0.2,0.1,0.2,0.3,0.2,0.4C56.2,24.9,56.2,24.8,56,24.7z"/>
				<path id="XMLID_9720_" class="st13" d="M56,25.3l-7.2,4.2c-0.3,0.2-0.7,0.2-1,0l-7.2-4.2c-0.1-0.1-0.2-0.2-0.2-0.3
					c0-0.1,0.1-0.2,0.2-0.3l7.2-4.2c0.3-0.2,0.7-0.2,1,0l7.2,4.2c0.1,0.1,0.2,0.2,0.2,0.3C56.2,25.1,56.2,25.2,56,25.3z"/>
			</g>
		</g>
		<g id="XMLID_9680_">
			<g id="XMLID_9697_">
				<g id="XMLID_9713_">
					<g id="XMLID_9716_">
						<path id="XMLID_9717_" class="st33" d="M48.9,21.1l0.1,0l-7.4,4.3c0,0,0,0-0.1,0l0,0c0,0,0,0,0,0L48.9,21.1z"/>
					</g>
					<g id="XMLID_9714_">
						<path id="XMLID_9715_" class="st34" d="M48.9,21.1L48.9,21.1l-7.3,4.3c0,0,0,0,0,0l0,0c0,0,0,0,0,0L48.9,21.1z"/>
					</g>
				</g>
				<g id="XMLID_9708_">
					<g id="XMLID_9711_">
						<path id="XMLID_9712_" class="st33" d="M50,21.7l0.1,0L42.7,26c0,0,0,0-0.1,0l0,0c0,0,0,0,0,0L50,21.7z"/>
					</g>
					<g id="XMLID_9709_">
						<path id="XMLID_9710_" class="st34" d="M50,21.6L50,21.6l-7.3,4.3c0,0,0,0,0,0l0,0c0,0,0,0,0,0L50,21.6z"/>
					</g>
				</g>
				<g id="XMLID_9703_">
					<g id="XMLID_9706_">
						<path id="XMLID_9707_" class="st33" d="M51,22.2l0.1,0l-7.4,4.3c0,0,0,0-0.1,0l0,0c0,0,0,0,0,0L51,22.2z"/>
					</g>
					<g id="XMLID_9704_">
						<path id="XMLID_9705_" class="st34" d="M51,22.2L51,22.2l-7.3,4.3c0,0,0,0,0,0l0,0c0,0,0,0,0,0L51,22.2z"/>
					</g>
				</g>
				<g id="XMLID_9698_">
					<g id="XMLID_9701_">
						<path id="XMLID_9702_" class="st33" d="M52.1,22.8l0.1,0l-7.4,4.3c0,0,0,0-0.1,0l0,0c0,0,0,0,0,0L52.1,22.8z"/>
					</g>
					<g id="XMLID_9699_">
						<path id="XMLID_9700_" class="st34" d="M52,22.8L52,22.8l-7.3,4.3c0,0,0,0,0,0l0,0c0,0,0,0,0,0L52,22.8z"/>
					</g>
				</g>
			</g>
			<g id="XMLID_9681_">
				<g id="XMLID_9692_">
					<g id="XMLID_9695_">
						<path id="XMLID_9696_" class="st33" d="M53.1,23.4l0.1,0l-7.4,4.3c0,0,0,0-0.1,0l0,0c0,0,0,0,0,0L53.1,23.4z"/>
					</g>
					<g id="XMLID_9693_">
						<path id="XMLID_9694_" class="st34" d="M53.1,23.3L53.1,23.3l-7.3,4.3c0,0,0,0-0.1,0l0,0c0,0,0,0,0,0L53.1,23.3z"/>
					</g>
				</g>
				<g id="XMLID_9687_">
					<g id="XMLID_9690_">
						<path id="XMLID_9691_" class="st33" d="M54.2,23.9l0.1,0l-7.4,4.3c0,0,0,0-0.1,0l0,0c0,0,0,0,0,0L54.2,23.9z"/>
					</g>
					<g id="XMLID_9688_">
						<path id="XMLID_9689_" class="st34" d="M54.1,23.9L54.1,23.9l-7.3,4.3c0,0,0,0,0,0l0,0c0,0,0,0,0,0L54.1,23.9z"/>
					</g>
				</g>
				<g id="XMLID_9682_">
					<g id="XMLID_9685_">
						<path id="XMLID_9686_" class="st33" d="M55.2,24.5l0.1,0L48,28.8c0,0,0,0-0.1,0l0,0c0,0,0,0,0,0L55.2,24.5z"/>
					</g>
					<g id="XMLID_9683_">
						<path id="XMLID_9684_" class="st34" d="M55.2,24.4L55.2,24.4l-7.3,4.3c0,0,0,0,0,0l0,0c0,0,0,0,0,0L55.2,24.4z"/>
					</g>
				</g>
			</g>
		</g>
	</g>
</g>
</svg>
