<?xml version="1.0" encoding="utf-8"?>
<!-- Generator: Adobe Illustrator 21.0.0, SVG Export Plug-In . SVG Version: 6.00 Build 0)  -->
<svg version="1.1" id="Layer_1" xmlns="http://www.w3.org/2000/svg" xmlns:xlink="http://www.w3.org/1999/xlink" x="0px" y="0px"
	 viewBox="0 0 80 80" style="enable-background:new 0 0 80 80;" xml:space="preserve">
<style type="text/css">
	.st0{fill:#AEADAD;}
	.st1{fill:#D2D2D0;}
	.st2{fill:#999999;}
	.st3{fill:#A8A7A7;}
	.st4{fill:#919F9B;}
	.st5{fill:#B6B6B7;}
	.st6{opacity:0.2;fill:#919F9B;}
	.st7{opacity:0.2;fill:#919F9B;enable-background:new    ;}
</style>
<polygon id="XMLID_22_" class="st0" points="32.1,5.6 32.1,58.7 41,53.5 41,0.5 "/>
<polygon id="XMLID_18_" class="st0" points="17.5,14 17.5,67.1 32.1,75.5 59.4,11.2 41,0.5 "/>
<g id="XMLID_19_">
	<g id="XMLID_20_">
		<polygon id="XMLID_21_" class="st1" points="42.4,1.3 33.7,6.4 32.4,5.6 41.1,0.5 		"/>
	</g>
</g>
<polygon id="XMLID_17_" class="st2" points="18.8,65.2 17.5,64.4 41.1,50.8 42.4,51.5 "/>
<polygon id="XMLID_16_" class="st3" points="33.7,6.4 33.7,56.3 32.4,55.6 32.4,5.6 "/>
<polygon id="XMLID_13_" class="st1" points="33.3,6.6 19,14.9 17.7,14.1 32,5.8 "/>
<polygon id="XMLID_12_" class="st4" points="19,14.9 19,64.8 17.7,64.1 17.7,14.1 "/>
<polygon id="XMLID_10_" class="st4" points="18.8,65.2 18.8,67.8 17.5,67.1 17.5,64.4 "/>
<polygon id="XMLID_9463_" class="st0" points="33.7,6.7 33.7,59.7 50.5,69.4 50.5,16.3 "/>
<polygon id="XMLID_9462_" class="st5" points="59.4,11.2 59.4,64.2 50.5,69.4 50.5,16.3 "/>
<polygon id="XMLID_9461_" class="st1" points="42.6,1.5 33.7,6.7 50.5,16.3 59.4,11.2 "/>
<polyline id="XMLID_9460_" class="st6" points="33.7,6.7 50.5,16.3 59.4,11.2 "/>
<polygon id="XMLID_9455_" class="st4" points="19.2,15.1 19.2,68.1 35.9,77.8 35.9,24.7 "/>
<polygon id="XMLID_9453_" class="st5" points="50.5,16.3 50.5,69.4 35.9,77.8 35.9,24.7 "/>
<polygon id="XMLID_9452_" class="st1" points="33.7,6.7 19.2,15.1 35.9,24.7 50.5,16.3 "/>
<polygon id="XMLID_9451_" class="st6" points="32.1,5.8 17.7,14.1 35.9,24.7 50.5,16.3 "/>
<polyline id="XMLID_11_" class="st7" points="35.9,77.8 36,24.9 59.4,11.2 "/>
</svg>
