<?xml version="1.0" encoding="utf-8"?>
<!-- Generator: Adobe Illustrator 21.0.0, SVG Export Plug-In . SVG Version: 6.00 Build 0)  -->
<svg version="1.1" id="Layer_1" xmlns="http://www.w3.org/2000/svg" xmlns:xlink="http://www.w3.org/1999/xlink" x="0px" y="0px"
	 viewBox="0 0 80 80" style="enable-background:new 0 0 80 80;" xml:space="preserve">
<style type="text/css">
	.st0{fill:#AEADAD;}
	.st1{fill:#D2D2D0;}
	.st2{opacity:0.2;fill:#919F9B;}
	.st3{fill:#919F9B;}
	.st4{fill:#999999;}
	.st5{fill:#A8A7A7;}
	.st6{fill:#B6B6B7;}
	.st7{fill:#C6C2C4;}
	.st8{fill:#757575;}
	.st9{fill:#C7C7C7;}
	.st10{fill:#DFDFDF;}
	.st11{fill:#B4B4B5;}
	.st12{fill:#5A5A5B;}
	.st13{fill:#95CDD6;}
	.st14{fill:#80BCC9;}
	.st15{fill:#E8E7E7;}
	.st16{fill:#ECECEE;}
	.st17{fill:#EFEFEF;}
</style>
<g id="XMLID_9394_">
	<g id="XMLID_9456_">
		<polygon id="XMLID_9463_" class="st0" points="33.7,6.7 33.7,59.7 50.5,69.4 50.5,16.3 		"/>
		<polygon id="XMLID_9462_" class="st0" points="59.4,11.2 59.4,64.2 50.5,69.4 50.5,16.3 		"/>
		<polygon id="XMLID_9461_" class="st1" points="42.6,1.5 33.7,6.7 50.5,16.3 59.4,11.2 		"/>
		<polyline id="XMLID_9460_" class="st2" points="33.7,6.7 50.5,16.3 59.4,11.2 		"/>
		<g id="XMLID_9457_">
			<g id="XMLID_9458_">
				<polygon id="XMLID_9459_" class="st1" points="59.5,11.2 50.8,16.3 52.1,17.1 60.8,12 				"/>
			</g>
		</g>
	</g>
	<g id="XMLID_9423_">
		<polygon id="XMLID_9455_" class="st3" points="19.2,15.1 19.2,68.1 35.9,77.8 35.9,24.7 		"/>
		<polyline id="XMLID_9454_" class="st2" points="35.9,77.8 35.9,24.7 19.2,15.1 		"/>
		<polygon id="XMLID_9453_" class="st0" points="50.5,16.3 50.5,69.4 35.9,77.8 35.9,24.7 		"/>
		<polygon id="XMLID_9452_" class="st1" points="33.7,6.7 19.2,15.1 35.9,24.7 50.5,16.3 		"/>
		<polygon id="XMLID_9451_" class="st2" points="33.7,6.7 19.2,15.1 35.9,24.7 50.5,16.3 		"/>
		<polygon id="XMLID_9450_" class="st4" points="60.8,62.2 59.5,61.5 35.9,75.1 37.2,75.9 		"/>
		<polygon id="XMLID_9449_" class="st5" points="50.8,16.3 50.8,66.3 52.1,67 52.1,17.1 		"/>
		<polygon id="XMLID_9448_" class="st6" points="60.8,12 52.1,17.1 52.1,67 60.8,62 		"/>
		<polyline id="XMLID_9447_" class="st2" points="60.8,12 52.1,17.1 52.1,67 		"/>
		<g id="XMLID_9441_">
			<g id="XMLID_9442_">
				<polygon id="XMLID_9446_" class="st6" points="51.7,17.3 37.4,25.6 37.4,75.5 51.7,67.2 				"/>
				<polyline id="XMLID_9445_" class="st2" points="51.7,17.3 37.4,25.6 37.4,75.5 				"/>
				<polygon id="XMLID_9444_" class="st1" points="50.4,16.5 36.1,24.8 37.4,25.6 51.7,17.3 				"/>
				<polygon id="XMLID_9443_" class="st7" points="36.1,24.8 36.1,74.8 37.4,75.5 37.4,25.6 				"/>
			</g>
		</g>
		<polygon id="XMLID_9440_" class="st7" points="35.9,75.1 35.9,77.8 37.2,78.5 37.2,75.9 		"/>
		<g id="XMLID_9424_">
			<polygon id="XMLID_9439_" class="st8" points="55.7,37.6 55.7,33.7 58.6,35.4 58.6,39.3 			"/>
			<g id="XMLID_9435_">
				<path id="XMLID_9436_" class="st9" d="M53.4,34.3v8.5l5.7-3.3V31L53.4,34.3z M53.8,34.7l4.8-2.8v7.4l-4.8,2.8V34.7z"/>
			</g>
			<g id="XMLID_9433_">
				<polygon id="XMLID_9434_" class="st1" points="53.8,38.7 55.7,37.6 58.6,39.3 53.8,42.1 				"/>
			</g>
			<g id="XMLID_9430_">
				<polygon id="XMLID_9432_" class="st10" points="55.7,38 53.8,39.1 53.8,38.7 55.7,37.6 58.6,39.3 53.8,42.1 53.8,41.7 
					57.9,39.3 				"/>
				<polygon id="XMLID_9431_" class="st1" points="55.7,38 57.9,39.3 53.8,41.7 53.8,39.1 				"/>
			</g>
			<g id="XMLID_9428_">
				<polygon id="XMLID_9429_" class="st11" points="55.7,37.6 53.8,38.7 53.8,34.8 55.7,33.7 				"/>
			</g>
			<polygon id="XMLID_9427_" class="st12" points="53.8,38.2 53.8,34.5 58.6,31.7 58.6,35.4 			"/>
			<polygon id="XMLID_9426_" class="st13" points="55.2,36.1 55.2,34.7 57.2,33.5 57.2,34.9 			"/>
			<polygon id="XMLID_9425_" class="st14" points="55.2,36.1 55.2,34.7 57.2,34.9 			"/>
		</g>
	</g>
	<polygon id="XMLID_9422_" class="st6" points="60.8,62.2 60.8,64.8 37.2,78.5 37.2,75.9 	"/>
	<g id="XMLID_9395_">
		<g id="XMLID_9409_">
			<g id="XMLID_9418_">
				<polygon id="XMLID_9421_" class="st15" points="52.6,32.7 52.6,32.9 52.9,33.1 52.9,32.9 				"/>
				<polygon id="XMLID_9420_" class="st16" points="53.2,32.7 52.9,32.9 52.9,33.1 53.2,32.9 				"/>
				<polygon id="XMLID_9419_" class="st17" points="52.9,32.5 52.6,32.7 52.9,32.9 53.2,32.7 				"/>
			</g>
			<g id="XMLID_9414_">
				<polygon id="XMLID_9417_" class="st15" points="52.6,48.3 52.6,48.5 52.9,48.7 52.9,48.5 				"/>
				<polygon id="XMLID_9416_" class="st16" points="53.2,48.3 52.9,48.5 52.9,48.7 53.2,48.5 				"/>
				<polygon id="XMLID_9415_" class="st17" points="52.9,48.1 52.6,48.3 52.9,48.5 53.2,48.3 				"/>
			</g>
			<g id="XMLID_9410_">
				<polygon id="XMLID_9413_" class="st15" points="52.9,31.8 52.9,49.6 53.2,49.8 53.2,31.9 				"/>
				<polygon id="XMLID_9412_" class="st16" points="53.6,31.8 53.2,31.9 53.2,49.8 53.6,49.6 				"/>
				<polygon id="XMLID_9411_" class="st17" points="53.2,31.6 52.9,31.8 53.2,31.9 53.6,31.8 				"/>
			</g>
		</g>
		<g id="XMLID_9396_">
			<g id="XMLID_9405_">
				<polygon id="XMLID_9408_" class="st15" points="50.2,34 50.2,34.3 50.6,34.5 50.6,34.2 				"/>
				<polygon id="XMLID_9407_" class="st16" points="50.9,34 50.6,34.2 50.6,34.5 50.9,34.3 				"/>
				<polygon id="XMLID_9406_" class="st17" points="50.6,33.8 50.2,34 50.6,34.2 50.9,34 				"/>
			</g>
			<g id="XMLID_9401_">
				<polygon id="XMLID_9404_" class="st15" points="50.2,49.7 50.2,49.9 50.6,50.1 50.6,49.9 				"/>
				<polygon id="XMLID_9403_" class="st16" points="50.9,49.7 50.6,49.9 50.6,50.1 50.9,49.9 				"/>
				<polygon id="XMLID_9402_" class="st17" points="50.6,49.5 50.2,49.7 50.6,49.9 50.9,49.7 				"/>
			</g>
			<g id="XMLID_9397_">
				<polygon id="XMLID_9400_" class="st15" points="50.6,33.1 50.6,50.9 50.9,51.1 50.9,33.3 				"/>
				<polygon id="XMLID_9399_" class="st16" points="51.2,33.1 50.9,33.3 50.9,51.1 51.2,50.9 				"/>
				<polygon id="XMLID_9398_" class="st17" points="50.9,32.9 50.6,33.1 50.9,33.3 51.2,33.1 				"/>
			</g>
		</g>
	</g>
</g>
</svg>
