<?xml version="1.0" encoding="utf-8"?>
<!-- Generator: Adobe Illustrator 21.0.0, SVG Export Plug-In . SVG Version: 6.00 Build 0)  -->
<svg version="1.1" id="Layer_1" xmlns="http://www.w3.org/2000/svg" xmlns:xlink="http://www.w3.org/1999/xlink" x="0px" y="0px"
	 viewBox="0 0 80 80" style="enable-background:new 0 0 80 80;" xml:space="preserve">
<style type="text/css">
	.st0{fill:#445A5C;}
	.st1{fill:#597175;}
	.st2{fill:#10516C;}
	.st3{fill:#E8E7E7;}
	.st4{fill:#2E6E8D;}
	.st5{fill:#9F6128;}
	.st6{fill:#3394BC;}
	.st7{fill:#41575C;}
	.st8{fill:#3B4E52;}
	.st9{fill:#28393D;}
	.st10{fill:#25363A;}
</style>
<g id="XMLID_3820_">
	<g id="XMLID_3823_">
		<g id="XMLID_3825_">
			<g id="XMLID_3859_">
				<polygon id="XMLID_3863_" class="st0" points="26.7,7.9 25.9,7.4 25.9,69.1 26.7,69.6 				"/>
				<g id="XMLID_3861_">
					<polygon id="XMLID_3862_" class="st1" points="37.8,1.5 37,1 25.9,7.4 26.7,7.9 					"/>
				</g>
				<polygon id="XMLID_3860_" class="st2" points="37.8,1.5 26.7,7.9 26.7,69.5 37.8,63.1 				"/>
			</g>
			<g id="XMLID_3830_">
				<g id="XMLID_3856_">
					<polygon id="XMLID_3858_" class="st3" points="53.3,70.2 53.3,70.9 42.2,77.4 42.2,76.6 					"/>
					<polygon id="XMLID_3857_" class="st4" points="37.8,61.2 53.3,70.2 42.2,76.6 26.7,67.6 					"/>
				</g>
				<g id="XMLID_3853_">
					<polygon id="XMLID_3855_" class="st5" points="53.3,70.2 53.3,72.1 42.2,78.5 42.2,76.6 					"/>
					<polygon id="XMLID_3854_" class="st0" points="26.7,67.6 42.2,76.6 42.2,78.5 26.7,69.6 					"/>
				</g>
				<g id="XMLID_3849_">
					<polygon id="XMLID_3852_" class="st5" points="53.3,58.3 53.3,59 42.2,65.4 42.2,64.7 					"/>
					<polygon id="XMLID_3851_" class="st6" points="26.7,55.7 42.2,64.7 42.2,65.4 26.7,56.4 					"/>
					<polygon id="XMLID_3850_" class="st4" points="37.8,49.3 53.3,58.3 42.2,64.7 26.7,55.7 					"/>
				</g>
				<g id="XMLID_3845_">
					<polygon id="XMLID_3848_" class="st5" points="53.3,46.3 53.3,47 42.2,53.5 42.2,52.7 					"/>
					<polygon id="XMLID_3847_" class="st6" points="26.7,43.7 42.2,52.7 42.2,53.5 26.7,44.5 					"/>
					<polygon id="XMLID_3846_" class="st4" points="37.8,37.3 53.3,46.3 42.2,52.7 26.7,43.7 					"/>
				</g>
				<g id="XMLID_3841_">
					<polygon id="XMLID_3844_" class="st5" points="53.3,34.4 53.3,35.1 42.2,41.5 42.2,40.8 					"/>
					<polygon id="XMLID_3843_" class="st6" points="26.7,31.8 42.2,40.8 42.2,41.5 26.7,32.5 					"/>
					<polygon id="XMLID_3842_" class="st4" points="37.8,25.4 53.3,34.4 42.2,40.8 26.7,31.8 					"/>
				</g>
				<g id="XMLID_3836_">
					<g id="XMLID_3837_">
						<polygon id="XMLID_3840_" class="st5" points="53.3,22.4 53.3,23.1 42.2,29.6 42.2,28.8 						"/>
						<polygon id="XMLID_3839_" class="st6" points="26.7,19.8 42.2,28.8 42.2,29.6 26.7,20.6 						"/>
						<polygon id="XMLID_3838_" class="st4" points="37.8,13.4 53.3,22.4 42.2,28.8 26.7,19.8 						"/>
					</g>
				</g>
				<g id="XMLID_3831_">
					<polygon id="XMLID_3835_" class="st0" points="26.7,7.9 42.2,16.9 42.2,17.6 26.7,8.6 					"/>
					<polygon id="XMLID_3834_" class="st5" points="53.3,10.4 53.3,11.2 42.2,17.6 42.2,16.9 					"/>
					<g id="XMLID_3832_">
						<polygon id="XMLID_3833_" class="st7" points="37.8,1.5 53.3,10.4 42.2,16.9 26.7,7.9 						"/>
					</g>
					<g id="XMLID_4037_">
						<polyline id="XMLID_4043_" class="st8" points="53.3,10.4 42.2,16.9 26.7,7.9 						"/>
					</g>
				</g>
			</g>
			<g id="XMLID_3826_">
				<polygon id="XMLID_3829_" class="st0" points="43,17.3 42.2,16.9 42.2,78.5 43,79 				"/>
				<g id="XMLID_3827_">
					<polygon id="XMLID_3828_" class="st1" points="54.1,10.9 53.3,10.4 42.2,16.9 43,17.3 					"/>
				</g>
			</g>
		</g>
		<polygon id="XMLID_3824_" class="st9" points="54.1,10.9 43,17.3 43,79 54.1,72.6 		"/>
		<polyline id="XMLID_4040_" class="st10" points="54.1,10.9 43,17.3 43,79 		"/>
	</g>
</g>
</svg>
