<?xml version="1.0" encoding="utf-8"?>
<!-- Generator: Adobe Illustrator 21.0.0, SVG Export Plug-In . SVG Version: 6.00 Build 0)  -->
<svg version="1.1" id="Layer_1" xmlns="http://www.w3.org/2000/svg" xmlns:xlink="http://www.w3.org/1999/xlink" x="0px" y="0px"
	 viewBox="0 0 80 80" style="enable-background:new 0 0 80 80;" xml:space="preserve">
<style type="text/css">
	.st0{fill:#AEADAD;}
	.st1{fill:#D2D2D0;}
	.st2{fill:#999999;}
	.st3{fill:#A8A7A7;}
	.st4{fill:#919F9B;}
	.st5{fill:#B6B6B7;}
	.st6{opacity:0.2;fill:#919F9B;}
	.st7{opacity:0.2;fill:#919F9B;enable-background:new    ;}
</style>
<polygon id="XMLID_22_" class="st0" points="35.9,0.5 35.9,53.5 44.8,58.7 44.8,5.6 "/>
<polygon id="XMLID_18_" class="st0" points="35.9,0.5 17.5,11.2 44.8,75.5 59.4,67.1 59.4,14 "/>
<g id="XMLID_19_">
	<g id="XMLID_20_">
		<polygon id="XMLID_21_" class="st1" points="35.8,0.5 44.5,5.6 43.2,6.4 34.5,1.3 		"/>
	</g>
</g>
<polygon id="XMLID_17_" class="st2" points="34.5,51.5 35.8,50.8 59.4,64.4 58.1,65.2 "/>
<polygon id="XMLID_16_" class="st3" points="44.5,5.6 44.5,55.6 43.2,56.3 43.2,6.4 "/>
<polygon id="XMLID_13_" class="st1" points="44.9,5.8 59.2,14.1 57.9,14.9 43.6,6.6 "/>
<polygon id="XMLID_12_" class="st4" points="59.2,14.1 59.2,64.1 57.9,64.8 57.9,14.9 "/>
<polygon id="XMLID_10_" class="st4" points="59.4,64.4 59.4,67.1 58.1,67.8 58.1,65.2 "/>
<polygon id="XMLID_9463_" class="st0" points="43.2,6.7 43.2,59.7 26.4,69.4 26.4,16.3 "/>
<polygon id="XMLID_9462_" class="st5" points="17.5,11.2 17.5,64.2 26.4,69.4 26.4,16.3 "/>
<polygon id="XMLID_9461_" class="st1" points="34.3,1.5 43.2,6.7 26.4,16.3 17.5,11.2 "/>
<polyline id="XMLID_9460_" class="st6" points="43.2,6.7 26.4,16.3 17.5,11.2 "/>
<polygon id="XMLID_9455_" class="st4" points="57.7,15.1 57.7,68.1 41,77.8 41,24.7 "/>
<polygon id="XMLID_9453_" class="st5" points="26.4,16.3 26.4,69.4 41,77.8 41,24.7 "/>
<polygon id="XMLID_9452_" class="st1" points="43.2,6.7 57.7,15.1 41,24.7 26.4,16.3 "/>
<polygon id="XMLID_9451_" class="st6" points="44.8,5.8 59.2,14.1 41,24.7 26.4,16.3 "/>
<polyline id="XMLID_11_" class="st7" points="17.5,11.2 40.9,24.9 41,77.8 "/>
</svg>
