<?xml version="1.0" encoding="utf-8"?>
<!-- Generator: Adobe Illustrator 21.0.0, SVG Export Plug-In . SVG Version: 6.00 Build 0)  -->
<svg version="1.1" id="Layer_1" xmlns="http://www.w3.org/2000/svg" xmlns:xlink="http://www.w3.org/1999/xlink" x="0px" y="0px"
	 viewBox="0 0 80 80" style="enable-background:new 0 0 80 80;" xml:space="preserve">
<style type="text/css">
	.st0{fill:#DDDDDC;}
	.st1{fill:#CECDCC;}
	.st2{opacity:0.2;fill:#CECDCC;enable-background:new    ;}
	.st3{fill:#FFFFFF;}
	.st4{fill:#EFEFEF;}
	.st5{fill:#D7DDDD;}
	.st6{fill:#95D2DE;}
	.st7{fill:#A0DBEB;}
	.st8{fill:#A9DEEB;}
	.st9{opacity:0.7;fill:#92D5E0;enable-background:new    ;}
	.st10{fill:#79CFE2;}
	.st11{fill:#A0DBEA;}
	.st12{fill:#92D5E0;}
	.st13{fill:#54A2B4;}
	.st14{fill:#6BBCD6;}
</style>
<path id="XMLID_393_" class="st0" d="M32,33.2c0-0.3,0.2-0.8,0.5-0.9l6.2-3.6c0.8-0.4,1.8-0.4,2.6,0l6.2,3.6
	c0.3,0.2,0.5,0.5,0.5,0.9s0,21.6,0,21.9c0,0.4-0.2,0.8-0.5,1l-6.2,3.6c-0.8,0.4-1.8,0.4-2.6,0L32.5,56c-0.3-0.2-0.5-0.5-0.5-0.9
	C32,54.8,32,33.5,32,33.2z"/>
<path class="st1" d="M39.9,60c-0.4,0-0.8-0.2-1.2-0.3L32.5,56c-0.3-0.2-0.5-0.5-0.5-0.9c0-0.4,0-21.6,0-22.1c0-0.3,0.2-0.8,0.5-0.9
	l6.2-3.6l0,0h1.1L39.9,60L39.9,60z"/>
<path class="st2" d="M32,33.2c0-0.3,0.2-0.8,0.5-0.9l6.2-3.6l0,0h1.1V60c-0.4,0-0.8-0.2-1.2-0.3"/>
<path id="XMLID_392_" class="st3" d="M38.7,28.7l-6.2,3.5c-0.7,0.4-0.7,1.5,0,1.9l6.2,3.6c0.8,0.4,1.8,0.4,2.6,0l6.2-3.6
	c0.7-0.4,0.7-1.5,0-1.9l-6.2-3.6C40.5,28.2,39.5,28.2,38.7,28.7z"/>
<path id="XMLID_16300_" class="st4" d="M32.5,32.2c-0.7,0.4-0.7,1.5,0,1.9l6.2,3.6c0.8,0.4,1.8,0.4,2.6,0l6.2-3.6
	c0.7-0.4,0.7-1.5,0-1.9"/>
<path class="st2" d="M43.6,36.4l-2.2,1.3c-0.8,0.4-1.8,0.4-2.6,0l-2.6-1.5v-3.8h7.4C43.6,32.4,43.6,36.4,43.6,36.4z"/>
<path class="st5" d="M32.5,33.7l6.2,3.6c0.8,0.4,1.8,0.4,2.6,0l6.2-3.6c0.3-0.2,0.4-0.4,0.5-0.8c0.1,0.4-0.1,0.9-0.5,1.1l-6.2,3.6
	c-0.8,0.4-1.8,0.4-2.6,0l-6.2-3.6c-0.4-0.3-0.6-0.7-0.5-1.1C32.1,33.3,32.2,33.5,32.5,33.7z"/>
<path id="XMLID_4707_" class="st6" d="M36.1,31.1c0-0.7,0.4-1.3,1.3-1.8l0,0c1-0.6,2.4-0.8,3.7-0.5l0,0c1.6,0.3,2.5,1.4,2.5,2.3
	c0,0.7,0,0.9,0,0.9c0,0.7-0.4,1.4-1.3,1.9l0,0c-1,0.6-2.4,0.8-3.7,0.5l0,0c-1.6-0.3-2.4-1.3-2.5-2.3V31.1z"/>
<path id="XMLID_390_" class="st7" d="M36.8,28L36.8,28c-2.8,1.6-1.9,4.7,1.6,5.4l0,0c1.6,0.3,3.4,0.2,4.7-0.6l0,0
	c2.8-1.6,1.9-4.7-1.6-5.4l0,0C39.8,27.1,38.1,27.2,36.8,28z"/>
<path id="XMLID_389_" class="st8" d="M36.8,28L36.8,28c-2.8,1.6-1.9,4.7,1.6,5.4l0,0c1.6,0.3,3.4,0.2,4.7-0.6l0,0
	c2.8-1.6,1.9-4.7-1.6-5.4l0,0C39.8,27.1,38.1,27.2,36.8,28z"/>
<path id="XMLID_387_" class="st6" d="M35.6,28.6c-0.1-0.9,0.4-1.7,1.5-2.3l0,0c1.2-0.7,2.8-0.9,4.2-0.6l0,0c2,0.4,3,1.7,2.9,2.9
	c0,0.2,0,0.9,0,1c-0.1,0.8-0.5,1.6-1.5,2.1l0,0c-1.2,0.7-2.8,0.9-4.2,0.6l0,0c-1.8-0.4-2.8-1.5-2.9-2.6
	C35.6,29.6,35.6,28.8,35.6,28.6z"/>
<path id="XMLID_386_" class="st8" d="M36.8,25.3L36.8,25.3c-2.8,1.6-1.9,4.7,1.6,5.4l0,0c1.6,0.3,3.4,0.2,4.7-0.6l0,0
	c2.8-1.6,1.9-4.7-1.6-5.4l0,0C39.8,24.4,38.1,24.6,36.8,25.3z"/>
<path id="XMLID_370_" class="st6" d="M35.6,24.7c-0.1-0.9,0.4-1.7,1.5-2.3l0,0c1.2-0.7,2.8-0.9,4.2-0.6l0,0c2,0.4,3,1.7,2.9,2.9
	c0,0.2,0,2,0,2.2c-0.1,0.8-0.5,1.6-1.5,2.1l0,0c-1.2,0.7-2.8,0.9-4.2,0.6l0,0c-1.8-0.4-2.8-1.5-2.9-2.6
	C35.6,26.8,35.6,24.9,35.6,24.7z"/>
<path class="st9" d="M35.6,26.5c0-0.4,0-1,0-1.4c-0.2-0.3-0.3-0.6-0.3-0.9c0-0.3-0.1-0.7,0-0.9c0-0.9,0.5-1.8,1.6-2.5l0,0
	c1.3-0.8,3-0.9,4.7-0.6c0.1,0,0.2,0,0.2,0.1v14.1c-0.9,0.3-2,0.4-3,0.2l0,0c-1.5-0.3-2.3-1.1-2.5-2.1c-1-0.9-1.3-2.2-0.6-3.3v-0.1
	C35.1,28.3,35.1,27.3,35.6,26.5z"/>
<path class="st9" d="M39.8,34.7c-0.4,0-0.8-0.1-1.2-0.2l0,0c-1.5-0.3-2.3-1.1-2.5-2.1c-1-0.9-1.3-2.2-0.6-3.3v-0.1
	c-0.5-0.8-0.5-1.7,0-2.6c0-0.4,0-1,0-1.4c-0.2-0.3-0.3-0.6-0.3-0.9c0-0.3-0.1-0.7,0-0.9c0-0.9,0.4-1.6,1.4-2.3h3.3
	C39.8,20.9,39.8,34.7,39.8,34.7z"/>
<path id="XMLID_369_" class="st10" d="M36.8,20.9L36.8,20.9c1.3-0.8,3-0.9,4.7-0.6l0,0c1.9,0.4,3,1.6,3.2,2.8c0,0.3,0,0.8,0,0.9
	c-0.1,0.8-0.6,1.6-1.6,2.2l0,0c-1.3,0.8-3,0.9-4.7,0.6l0,0c-1.8-0.4-2.9-1.5-3.1-2.6c-0.1-0.3-0.1-0.9,0-1.1
	C35.3,22.2,35.8,21.5,36.8,20.9z"/>
<path id="XMLID_368_" class="st11" d="M36.8,20.8L36.8,20.8c-2.8,1.6-1.9,4.7,1.6,5.4l0,0c1.6,0.3,3.4,0.2,4.7-0.6l0,0
	c2.8-1.6,1.9-4.7-1.6-5.4l0,0C39.8,19.8,38.1,20,36.8,20.8z"/>
<path id="XMLID_367_" class="st12" d="M37.9,21L37.9,21c-1.7,1-1.2,2.9,0.9,3.4l0,0c1,0.3,2.2,0.1,2.9-0.4l0,0
	c1.7-1,1.2-2.9-0.9-3.4l0,0C39.9,20.4,38.8,20.5,37.9,21z"/>
<path id="XMLID_363_" class="st13" d="M38.1,21.2L38.1,21.2c-1.6,0.9-1.1,2.8,0.9,3.3l0,0c0.9,0.3,2,0.1,2.8-0.3l0,0
	c1.6-0.9,1.1-2.8-0.9-3.3l0,0C39.9,20.6,38.8,20.8,38.1,21.2z"/>
<path id="XMLID_360_" class="st14" d="M38.4,21.7L38.4,21.7c-1.3,0.8-0.9,2.2,0.8,2.6l0,0c0.8,0.2,1.6,0.1,2.2-0.3l0,0
	c1.3-0.8,0.9-2.2-0.8-2.6l0,0C39.9,21.2,39.1,21.3,38.4,21.7z"/>
<path id="XMLID_16303_" class="st9" d="M38.4,21.7L38.4,21.7c-1.3,0.8-0.9,2.2,0.8,2.6l0,0c0.8,0.2,1.6,0.1,2.2-0.3l0,0"/>
</svg>
