<?xml version="1.0" encoding="utf-8"?>
<!-- Generator: Adobe Illustrator 21.0.0, SVG Export Plug-In . SVG Version: 6.00 Build 0)  -->
<svg version="1.1" id="Layer_1" xmlns="http://www.w3.org/2000/svg" xmlns:xlink="http://www.w3.org/1999/xlink" x="0px" y="0px"
	 viewBox="0 0 80 80" style="enable-background:new 0 0 80 80;" xml:space="preserve">
<style type="text/css">
	.st0{fill:#252726;}
	.st1{fill:#181919;}
	.st2{fill:#444748;}
	.st3{opacity:0.1;fill:#444748;}
	.st4{fill:#616161;}
	.st5{fill:#5C5D5D;}
	.st6{fill:#CECDCC;}
	.st7{fill:#9C9C9C;}
	.st8{fill:#B2B2B2;}
	.st9{fill:#99999A;}
	.st10{opacity:0.2;fill:#444748;}
	.st11{fill:#777778;}
	.st12{fill:#686A6A;}
	.st13{fill:#575858;}
	.st14{fill:#636565;}
	.st15{fill:#3A3A3A;}
	.st16{fill:#4A4A4B;}
	.st17{fill:#56A7CA;}
	.st18{opacity:0.3;fill:#56A7CA;}
	.st19{fill:#7A2B18;}
	.st20{fill:#F5F3DF;}
	.st21{fill:#E9E7D1;}
	.st22{fill:#883220;}
	.st23{fill:#66261C;}
	.st24{fill:#373A3A;}
	.st25{fill:#4F504F;}
	.st26{fill:#676969;}
	.st27{fill:#A28A32;}
	.st28{opacity:0.7;fill:#835E34;}
	.st29{fill:#C0BFAB;}
	.st30{opacity:0.5;fill:#C0BFAB;}
	.st31{fill:#353434;}
	.st32{fill:#3E3C39;}
</style>
<g>
	<g id="XMLID_1811_">
		<g id="XMLID_2069_">
			<polygon id="XMLID_2072_" class="st0" points="59.8,14.3 59.8,66.7 40.3,77.9 40.3,25.5 			"/>
			<polyline id="XMLID_16307_" class="st1" points="40.3,77.9 40.3,25.5 59.8,14.3 			"/>
			<polygon id="XMLID_2071_" class="st2" points="20.9,14.3 40.3,25.5 40.3,77.9 20.9,66.7 			"/>
			<polyline id="XMLID_16308_" class="st3" points="20.9,14.3 40.3,25.5 40.3,77.9 			"/>
			<polygon id="XMLID_2070_" class="st4" points="40.3,3.1 59.8,14.3 40.3,25.5 20.9,14.3 			"/>
			<polyline id="XMLID_16310_" class="st5" points="59.8,14.3 40.3,25.5 20.9,14.3 			"/>
		</g>
		<g id="XMLID_1993_">
			<g id="XMLID_1994_">
				<g id="XMLID_2009_">
					<polygon id="XMLID_2068_" class="st6" points="27.7,39.5 24.9,37.9 24.9,48 27.7,46.4 					"/>
					<polyline id="XMLID_16313_" class="st3" points="27.7,46.4 27.7,39.5 24.9,37.9 					"/>
					<polygon id="XMLID_2067_" class="st7" points="35.5,50.9 27.7,46.4 24.9,48 35.5,54.1 					"/>
					<polygon id="XMLID_2066_" class="st8" points="35.5,51.2 27.8,46.8 25.6,48 35.5,53.8 					"/>
					<polygon id="XMLID_2065_" class="st9" points="27.7,39.5 27.7,46.4 35.5,50.9 35.5,44 					"/>
					<polyline id="XMLID_16314_" class="st10" points="35.5,44 27.7,39.5 27.7,46.4 					"/>
					<polygon id="XMLID_2064_" class="st0" points="24.9,22.5 24.9,36.1 35.5,42.2 35.5,28.6 					"/>
					<g id="XMLID_2010_">
						<g id="XMLID_2030_">
							<g id="XMLID_2061_">
								<path id="XMLID_2063_" class="st11" d="M26.1,48.1L26.1,48.1l1.9-1.1l0.2,0.1l0.1,0L28,47L26.1,48.1L26.1,48.1
									C26.1,48.1,26.1,48.1,26.1,48.1C26.1,48.2,26.1,48.1,26.1,48.1z"/>
								<path id="XMLID_2062_" class="st12" d="M26.2,48.3L26.2,48.3c0.1,0,0.1,0,0.2,0c0,0,0,0,0,0l1.8-1L28,47.1l-1.9,1.1l0,0
									c0,0,0,0,0,0.1C26.1,48.2,26.1,48.2,26.2,48.3z"/>
							</g>
							<g id="XMLID_2058_">
								<path id="XMLID_2060_" class="st11" d="M26.7,48.4L26.7,48.4l1.9-1.1l0.2,0.1l0.1,0l-0.3-0.2L26.7,48.4L26.7,48.4
									C26.6,48.4,26.6,48.4,26.7,48.4C26.6,48.5,26.6,48.5,26.7,48.4z"/>
								<path id="XMLID_2059_" class="st12" d="M26.7,48.6L26.7,48.6c0.1,0,0.1,0,0.2,0c0,0,0,0,0,0l1.8-1l-0.2-0.1l-1.9,1.1l0,0
									c0,0,0,0,0,0.1C26.6,48.5,26.7,48.5,26.7,48.6z"/>
							</g>
							<g id="XMLID_2055_">
								<path id="XMLID_2057_" class="st11" d="M27.2,48.7L27.2,48.7l1.9-1.1l0.2,0.1l0.1,0L29,47.6L27.2,48.7L27.2,48.7
									C27.1,48.7,27.1,48.7,27.2,48.7C27.1,48.8,27.2,48.8,27.2,48.7z"/>
								<path id="XMLID_2056_" class="st12" d="M27.2,48.9L27.2,48.9c0.1,0,0.1,0,0.2,0c0,0,0,0,0,0l1.8-1L29,47.7l-1.9,1.1l0,0
									c0,0,0,0,0,0.1C27.2,48.8,27.2,48.9,27.2,48.9z"/>
							</g>
							<g id="XMLID_2052_">
								<path id="XMLID_2054_" class="st11" d="M27.7,49L27.7,49l1.9-1.1l0.2,0.1l0.1,0l-0.3-0.2L27.7,49L27.7,49
									C27.7,49,27.6,49.1,27.7,49C27.7,49.1,27.7,49.1,27.7,49z"/>
								<path id="XMLID_2053_" class="st12" d="M27.8,49.2L27.8,49.2c0.1,0,0.1,0,0.2,0c0,0,0,0,0,0l1.8-1L29.6,48L27.7,49l0,0
									c0,0,0,0,0,0.1C27.7,49.1,27.7,49.2,27.8,49.2z"/>
							</g>
							<g id="XMLID_2049_">
								<path id="XMLID_2051_" class="st11" d="M28.2,49.3L28.2,49.3l1.9-1.1l0.2,0.1l0.1,0l-0.3-0.2L28.2,49.3L28.2,49.3
									C28.2,49.3,28.2,49.4,28.2,49.3C28.2,49.4,28.2,49.4,28.2,49.3z"/>
								<path id="XMLID_2050_" class="st12" d="M28.3,49.5L28.3,49.5c0.1,0,0.1,0,0.2,0c0,0,0,0,0,0l1.8-1l-0.2-0.1l-1.9,1.1l0,0
									c0,0,0,0,0,0.1C28.2,49.4,28.2,49.5,28.3,49.5z"/>
							</g>
							<g id="XMLID_2046_">
								<path id="XMLID_2048_" class="st11" d="M28.8,49.6L28.8,49.6l1.9-1.1l0.2,0.1l0.1,0l-0.3-0.2L28.8,49.6L28.8,49.6
									C28.7,49.6,28.7,49.7,28.8,49.6C28.7,49.7,28.7,49.7,28.8,49.6z"/>
								<path id="XMLID_2047_" class="st12" d="M28.8,49.8L28.8,49.8c0.1,0,0.1,0,0.2,0c0,0,0,0,0,0l1.8-1l-0.2-0.1l-1.9,1.1l0,0
									c0,0,0,0,0,0.1C28.7,49.7,28.8,49.8,28.8,49.8z"/>
							</g>
							<g id="XMLID_2043_">
								<path id="XMLID_2045_" class="st11" d="M29.3,50L29.3,50l1.9-1.1l0.2,0.1l0.1,0l-0.3-0.2L29.3,50L29.3,50
									C29.2,49.9,29.2,50,29.3,50C29.2,50,29.3,50,29.3,50z"/>
								<path id="XMLID_2044_" class="st12" d="M29.3,50.1L29.3,50.1c0.1,0,0.1,0,0.2,0c0,0,0,0,0,0l1.8-1l-0.2-0.1L29.3,50l0,0
									c0,0,0,0,0,0.1C29.3,50,29.3,50.1,29.3,50.1z"/>
							</g>
							<g id="XMLID_2040_">
								<path id="XMLID_2042_" class="st11" d="M29.8,50.3L29.8,50.3l1.9-1.1l0.2,0.1l0.1,0l-0.3-0.2L29.8,50.3L29.8,50.3
									C29.8,50.2,29.7,50.3,29.8,50.3C29.8,50.3,29.8,50.3,29.8,50.3z"/>
								<path id="XMLID_2041_" class="st12" d="M29.9,50.4L29.9,50.4c0.1,0,0.1,0,0.2,0c0,0,0,0,0,0l1.8-1l-0.2-0.1l-1.9,1.1l0,0
									c0,0,0,0,0,0.1C29.8,50.3,29.8,50.4,29.9,50.4z"/>
							</g>
							<g id="XMLID_2037_">
								<path id="XMLID_2039_" class="st11" d="M30.3,50.6L30.3,50.6l1.9-1.1l0.2,0.1l0.1,0l-0.3-0.2L30.3,50.6L30.3,50.6
									C30.3,50.5,30.3,50.6,30.3,50.6C30.3,50.6,30.3,50.6,30.3,50.6z"/>
								<path id="XMLID_2038_" class="st12" d="M30.4,50.7L30.4,50.7c0.1,0,0.1,0,0.2,0c0,0,0,0,0,0l1.8-1l-0.2-0.1l-1.9,1.1l0,0
									c0,0,0,0,0,0.1C30.3,50.6,30.3,50.7,30.4,50.7z"/>
							</g>
							<g id="XMLID_2034_">
								<path id="XMLID_2036_" class="st11" d="M30.9,50.9L30.9,50.9l1.9-1.1l0.2,0.1l0.1,0l-0.3-0.2L30.9,50.9L30.9,50.9
									C30.8,50.8,30.8,50.9,30.9,50.9C30.8,50.9,30.8,50.9,30.9,50.9z"/>
								<path id="XMLID_2035_" class="st12" d="M30.9,51L30.9,51c0.1,0,0.1,0,0.2,0c0,0,0,0,0,0l1.8-1l-0.2-0.1l-1.9,1.1l0,0
									c0,0,0,0,0,0.1C30.8,50.9,30.9,51,30.9,51z"/>
							</g>
							<g id="XMLID_2031_">
								<path id="XMLID_2033_" class="st11" d="M31.4,51.2L31.4,51.2l1.9-1.1l0.2,0.1l0.1,0L33.2,50L31.4,51.2L31.4,51.2
									C31.3,51.1,31.3,51.2,31.4,51.2C31.3,51.2,31.4,51.2,31.4,51.2z"/>
								<path id="XMLID_2032_" class="st12" d="M31.4,51.3L31.4,51.3c0.1,0,0.1,0,0.2,0c0,0,0,0,0,0l1.8-1l-0.2-0.1l-1.9,1.1l0,0
									c0,0,0,0,0,0.1C31.3,51.2,31.4,51.3,31.4,51.3z"/>
							</g>
						</g>
						<g id="XMLID_2011_">
							<g id="XMLID_2027_">
								<path id="XMLID_2029_" class="st11" d="M31.9,51.5L31.9,51.5l1.9-1.1l0.2,0.1l0.1,0l-0.3-0.2L31.9,51.5L31.9,51.5
									C31.8,51.4,31.8,51.5,31.9,51.5C31.9,51.5,31.9,51.5,31.9,51.5z"/>
								<path id="XMLID_2028_" class="st12" d="M32,51.6L32,51.6c0.1,0,0.1,0,0.2,0c0,0,0,0,0,0l1.8-1l-0.2-0.1l-1.9,1.1l0,0
									c0,0,0,0,0,0.1C31.9,51.5,31.9,51.6,32,51.6z"/>
							</g>
							<g id="XMLID_2024_">
								<path id="XMLID_2026_" class="st11" d="M32.4,51.8L32.4,51.8l1.9-1.1l0.2,0.1l0.1,0l-0.3-0.2L32.4,51.8L32.4,51.8
									C32.4,51.7,32.4,51.8,32.4,51.8C32.4,51.8,32.4,51.8,32.4,51.8z"/>
								<path id="XMLID_2025_" class="st12" d="M32.5,51.9L32.5,51.9c0.1,0,0.1,0,0.2,0c0,0,0,0,0,0l1.8-1l-0.2-0.1l-1.9,1.1l0,0
									c0,0,0,0,0,0.1C32.4,51.9,32.4,51.9,32.5,51.9z"/>
							</g>
							<g id="XMLID_2021_">
								<path id="XMLID_2023_" class="st11" d="M33,52.1L33,52.1l1.9-1.1l0.2,0.1l0.1,0l-0.3-0.2L33,52.1L33,52.1
									C32.9,52,32.9,52.1,33,52.1C32.9,52.1,32.9,52.1,33,52.1z"/>
								<path id="XMLID_2022_" class="st12" d="M33,52.2L33,52.2c0.1,0,0.1,0,0.2,0c0,0,0,0,0,0l1.8-1L34.8,51L33,52.1l0,0
									c0,0,0,0,0,0.1C32.9,52.2,33,52.2,33,52.2z"/>
							</g>
							<g id="XMLID_2012_">
								<path id="XMLID_2020_" class="st11" d="M33.5,52.4L33.5,52.4l1.9-1.1l0.2,0.1v-0.1l-0.2-0.1L33.5,52.4L33.5,52.4
									C33.4,52.3,33.4,52.4,33.5,52.4C33.4,52.4,33.5,52.4,33.5,52.4z"/>
								<path id="XMLID_2019_" class="st12" d="M35.3,51.3l-1.9,1.1l0,0c0,0,0,0,0,0.1c0,0,0.1,0.1,0.1,0.1c0.1,0,0.1,0,0.2,0
									c0,0,0,0,0,0l1.8-1v0L35.3,51.3z"/>
								<path id="XMLID_2018_" class="st11" d="M34,52.7L34,52.7l1.5-0.9v-0.1L34,52.7L34,52.7C33.9,52.6,33.9,52.7,34,52.7
									C34,52.7,34,52.7,34,52.7z"/>
								<path id="XMLID_2017_" class="st12" d="M34,52.7L34,52.7C34,52.7,34,52.7,34,52.7c0,0.1,0,0.1,0.1,0.1c0.1,0,0.1,0,0.2,0
									c0,0,0,0,0,0l1.3-0.7v-0.2L34,52.7z"/>
								<path id="XMLID_2016_" class="st11" d="M34.5,53L34.5,53l1-0.6v-0.1L34.5,53L34.5,53C34.5,52.9,34.5,53,34.5,53
									C34.5,53,34.5,53,34.5,53z"/>
								<path id="XMLID_2015_" class="st12" d="M34.5,53L34.5,53C34.5,53,34.5,53,34.5,53c0,0.1,0,0.1,0.1,0.1c0.1,0,0.1,0,0.2,0
									c0,0,0,0,0,0l0.7-0.4v-0.2L34.5,53z"/>
								<path id="XMLID_2014_" class="st11" d="M35.1,53.3L35.1,53.3l0.4-0.3V53L35.1,53.3L35.1,53.3C35,53.2,35,53.3,35.1,53.3
									C35,53.3,35,53.3,35.1,53.3z"/>
								<path id="XMLID_2013_" class="st12" d="M35.1,53.3L35.1,53.3C35,53.3,35,53.3,35.1,53.3c0,0.1,0,0.1,0.1,0.1
									c0.1,0,0.1,0,0.2,0c0,0,0,0,0,0l0.2-0.1V53L35.1,53.3z"/>
							</g>
						</g>
					</g>
				</g>
				<g id="XMLID_1995_">
					<g id="XMLID_1996_">
						<g id="XMLID_2007_">
							<path id="XMLID_2008_" class="st13" d="M29.2,41.5c0-0.1-0.1-0.2-0.2-0.2l0,0c-0.1-0.1-0.3-0.1-0.5-0.1l0,0
								c-0.2,0-0.3,0.2-0.3,0.3c0,0.1,0,1.2,0,1.3c0,0.1,0.1,0.2,0.2,0.3l0,0c0.1,0.1,0.3,0.1,0.5,0.1l0,0c0.2,0,0.3-0.2,0.3-0.3
								C29.2,42.7,29.2,41.6,29.2,41.5z"/>
						</g>
						<g id="XMLID_2005_">
							<path id="XMLID_2006_" class="st14" d="M27.9,42.3c0,0.1,0.1,0.3,0.3,0.4c0.2,0.1,0.5,0.2,0.7,0.1c0.3-0.1,0.5-0.3,0.5-0.5
								c0-0.1,0-1.8,0-1.8l-1.5-0.9C27.9,39.7,27.9,42.2,27.9,42.3z"/>
						</g>
						<g id="XMLID_2003_">
							<path id="XMLID_2004_" class="st14" d="M32.9,44.2c0,0.1,0,0.1,0.1,0.2c0.1,0,0.2,0.1,0.3,0c0.1,0,0.2-0.1,0.2-0.2l0-1.3
								l-0.6-0.3C32.9,42.6,32.9,44.1,32.9,44.2z"/>
						</g>
						<g id="XMLID_2001_">
							<path id="XMLID_2002_" class="st14" d="M32.4,45.2c0,0.1,0,0.1,0.1,0.2c0.1,0,0.2,0.1,0.3,0c0.1,0,0.2-0.1,0.2-0.2
								c0,0,0,0.1,0-0.7l-0.6-0.1C32.4,44.9,32.4,45.1,32.4,45.2z"/>
						</g>
						<g id="XMLID_1999_">
							<path id="XMLID_2000_" class="st14" d="M32.5,44.2c0,0-0.1,0.1-0.1,0.2c0,0.1,0,0.2,0.1,0.3c0.1,0.1,0.2,0.1,0.3,0.1
								c0,0-0.1,0.1,0.6-0.4l0-0.7C32.9,43.9,32.5,44.2,32.5,44.2z"/>
						</g>
						<g id="XMLID_1997_">
							<path id="XMLID_1998_" class="st0" d="M27.4,41.1c0,0.2,0.1,0.5,0.4,0.6c0.3,0.2,0.8,0.3,1.2,0.2c0.5-0.1,0.8-0.4,0.8-0.8
								v-0.3l-2.5-1.5C27.4,40.3,27.4,41,27.4,41.1z"/>
						</g>
						<path class="st1" d="M28.4,41.9c0.2,0,0.5,0,0.7,0c0.5-0.1,0.8-0.4,0.8-0.8v-0.3l-1.6-0.9V41.9z"/>
					</g>
				</g>
			</g>
		</g>
		<g id="XMLID_1940_">
			<g id="XMLID_1974_">
				<g id="XMLID_1990_">
					<path id="XMLID_1992_" class="st15" d="M26.6,33.6L26.6,33.6c-0.2,0-0.3,0.3-0.2,0.5l0,0c0.1,0.1,0.2,0.2,0.3,0.2l0,0
						c0.2,0,0.3-0.3,0.2-0.5l0,0C26.9,33.7,26.7,33.6,26.6,33.6z"/>
					<path id="XMLID_1991_" class="st16" d="M26.7,33.7L26.7,33.7c-0.2,0-0.3,0.2-0.1,0.4l0,0c0.1,0.1,0.2,0.1,0.2,0.2l0,0
						c0.2,0,0.3-0.2,0.1-0.4l0,0C26.8,33.8,26.7,33.7,26.7,33.7z"/>
				</g>
				<g id="XMLID_1987_">
					<path id="XMLID_1989_" class="st15" d="M27.6,34.2L27.6,34.2c-0.2,0-0.3,0.3-0.2,0.5l0,0c0.1,0.1,0.2,0.2,0.3,0.2l0,0
						c0.2,0,0.3-0.3,0.2-0.5l0,0C27.9,34.3,27.8,34.2,27.6,34.2z"/>
					<path id="XMLID_1988_" class="st16" d="M27.7,34.3L27.7,34.3c-0.2,0-0.3,0.2-0.1,0.4l0,0c0.1,0.1,0.2,0.1,0.2,0.2l0,0
						c0.2,0,0.3-0.2,0.1-0.4l0,0C27.8,34.4,27.8,34.3,27.7,34.3z"/>
				</g>
				<g id="XMLID_1984_">
					<path id="XMLID_1986_" class="st15" d="M28.7,34.8L28.7,34.8c-0.2,0-0.3,0.3-0.2,0.5l0,0c0.1,0.1,0.2,0.2,0.3,0.2l0,0
						c0.2,0,0.3-0.3,0.2-0.5l0,0C28.9,34.9,28.8,34.8,28.7,34.8z"/>
					<path id="XMLID_1985_" class="st16" d="M28.7,34.9L28.7,34.9c-0.2,0-0.3,0.2-0.1,0.4l0,0c0.1,0.1,0.2,0.1,0.2,0.2l0,0
						c0.2,0,0.3-0.2,0.1-0.4l0,0C28.9,35,28.8,34.9,28.7,34.9z"/>
				</g>
				<g id="XMLID_1981_">
					<path id="XMLID_1983_" class="st15" d="M31.6,36.5L31.6,36.5c-0.2,0-0.3,0.3-0.2,0.5l0,0c0.1,0.1,0.2,0.2,0.3,0.2l0,0
						c0.2,0,0.3-0.3,0.2-0.5l0,0C31.8,36.6,31.7,36.5,31.6,36.5z"/>
					<path id="XMLID_1982_" class="st16" d="M31.6,36.6L31.6,36.6c-0.2,0-0.3,0.2-0.1,0.4l0,0c0.1,0.1,0.2,0.1,0.2,0.2l0,0
						c0.2,0,0.3-0.2,0.1-0.4l0,0C31.8,36.6,31.7,36.6,31.6,36.6z"/>
				</g>
				<g id="XMLID_1978_">
					<path id="XMLID_1980_" class="st15" d="M32.6,37.1L32.6,37.1c-0.2,0-0.3,0.3-0.2,0.5l0,0c0.1,0.1,0.2,0.2,0.3,0.2l0,0
						c0.2,0,0.3-0.3,0.2-0.5l0,0C32.9,37.2,32.7,37.1,32.6,37.1z"/>
					<path id="XMLID_1979_" class="st16" d="M32.6,37.2L32.6,37.2c-0.2,0-0.3,0.2-0.1,0.4l0,0c0.1,0.1,0.2,0.1,0.2,0.2l0,0
						c0.2,0,0.3-0.2,0.1-0.4l0,0C32.8,37.2,32.7,37.2,32.6,37.2z"/>
				</g>
				<g id="XMLID_1975_">
					<path id="XMLID_1977_" class="st15" d="M33.6,37.7L33.6,37.7c-0.2,0-0.3,0.3-0.2,0.5l0,0c0.1,0.1,0.2,0.2,0.3,0.2l0,0
						c0.2,0,0.3-0.3,0.2-0.5l0,0C33.9,37.8,33.8,37.7,33.6,37.7z"/>
					<path id="XMLID_1976_" class="st16" d="M33.7,37.8L33.7,37.8c-0.2,0-0.3,0.2-0.1,0.4l0,0c0.1,0.1,0.2,0.1,0.2,0.2l0,0
						c0.2,0,0.3-0.2,0.1-0.4l0,0C33.8,37.8,33.7,37.8,33.7,37.8z"/>
				</g>
			</g>
			<polygon id="XMLID_1973_" class="st17" points="26.4,25.5 26.4,31.8 34.1,36.2 34.1,29.9 			"/>
			<polyline id="XMLID_16306_" class="st18" points="34.1,36.2 34.1,29.9 26.4,25.5 			"/>
			<polygon class="st18" points="26.4,26.8 34.1,31.3 34.1,29.9 26.4,25.5 			"/>
			<g id="XMLID_1954_">
				<g id="XMLID_1970_">
					<path id="XMLID_1972_" class="st15" d="M26.6,34.6L26.6,34.6c-0.2,0-0.3,0.3-0.2,0.5l0,0c0.1,0.1,0.2,0.2,0.3,0.2l0,0
						c0.2,0,0.3-0.3,0.2-0.5l0,0C26.9,34.7,26.7,34.6,26.6,34.6z"/>
					<path id="XMLID_1971_" class="st16" d="M26.7,34.7L26.7,34.7c-0.2,0-0.3,0.2-0.1,0.4l0,0c0.1,0.1,0.2,0.1,0.2,0.2l0,0
						c0.2,0,0.3-0.2,0.1-0.4l0,0C26.8,34.8,26.7,34.7,26.7,34.7z"/>
				</g>
				<g id="XMLID_1967_">
					<path id="XMLID_1969_" class="st15" d="M27.6,35.2L27.6,35.2c-0.2,0-0.3,0.3-0.2,0.5l0,0c0.1,0.1,0.2,0.2,0.3,0.2l0,0
						c0.2,0,0.3-0.3,0.2-0.5l0,0C27.9,35.3,27.8,35.2,27.6,35.2z"/>
					<path id="XMLID_1968_" class="st16" d="M27.7,35.3L27.7,35.3c-0.2,0-0.3,0.2-0.1,0.4l0,0c0.1,0.1,0.2,0.1,0.2,0.2l0,0
						c0.2,0,0.3-0.2,0.1-0.4l0,0C27.8,35.4,27.8,35.3,27.7,35.3z"/>
				</g>
				<g id="XMLID_1964_">
					<path id="XMLID_1966_" class="st15" d="M28.7,35.8L28.7,35.8c-0.2,0-0.3,0.3-0.2,0.5l0,0c0.1,0.1,0.2,0.2,0.3,0.2l0,0
						c0.2,0,0.3-0.3,0.2-0.5l0,0C28.9,35.9,28.8,35.8,28.7,35.8z"/>
					<path id="XMLID_1965_" class="st16" d="M28.7,35.9L28.7,35.9c-0.2,0-0.3,0.2-0.1,0.4l0,0c0.1,0.1,0.2,0.1,0.2,0.2l0,0
						c0.2,0,0.3-0.2,0.1-0.4l0,0C28.9,36,28.8,35.9,28.7,35.9z"/>
				</g>
				<g id="XMLID_1961_">
					<path id="XMLID_1963_" class="st15" d="M31.6,37.5L31.6,37.5c-0.2,0-0.3,0.3-0.2,0.5l0,0c0.1,0.1,0.2,0.2,0.3,0.2l0,0
						c0.2,0,0.3-0.3,0.2-0.5l0,0C31.8,37.6,31.7,37.5,31.6,37.5z"/>
					<path id="XMLID_1962_" class="st16" d="M31.6,37.6L31.6,37.6c-0.2,0-0.3,0.2-0.1,0.4l0,0c0.1,0.1,0.2,0.1,0.2,0.2l0,0
						c0.2,0,0.3-0.2,0.1-0.4l0,0C31.8,37.6,31.7,37.6,31.6,37.6z"/>
				</g>
				<g id="XMLID_1958_">
					<path id="XMLID_1960_" class="st15" d="M32.6,38.1L32.6,38.1c-0.2,0-0.3,0.3-0.2,0.5l0,0c0.1,0.1,0.2,0.2,0.3,0.2l0,0
						c0.2,0,0.3-0.3,0.2-0.5l0,0C32.9,38.2,32.7,38.1,32.6,38.1z"/>
					<path id="XMLID_1959_" class="st16" d="M32.6,38.2L32.6,38.2c-0.2,0-0.3,0.2-0.1,0.4l0,0c0.1,0.1,0.2,0.1,0.2,0.2l0,0
						c0.2,0,0.3-0.2,0.1-0.4l0,0C32.8,38.2,32.7,38.2,32.6,38.2z"/>
				</g>
				<g id="XMLID_1955_">
					<path id="XMLID_1957_" class="st15" d="M33.6,38.7L33.6,38.7c-0.2,0-0.3,0.3-0.2,0.5l0,0c0.1,0.1,0.2,0.2,0.3,0.2l0,0
						c0.2,0,0.3-0.3,0.2-0.5l0,0C33.9,38.7,33.8,38.7,33.6,38.7z"/>
					<path id="XMLID_1956_" class="st16" d="M33.7,38.8L33.7,38.8c-0.2,0-0.3,0.2-0.1,0.4l0,0c0.1,0.1,0.2,0.1,0.2,0.2l0,0
						c0.2,0,0.3-0.2,0.1-0.4l0,0C33.8,38.8,33.7,38.8,33.7,38.8z"/>
				</g>
			</g>
			<g id="XMLID_1941_">
				<g id="XMLID_1951_">
					<path id="XMLID_1953_" class="st15" d="M29.9,35.7L29.9,35.7c-0.1,0-0.2,0.2-0.1,0.3l0,0c0,0.1,0.1,0.1,0.2,0.1l0,0
						c0.1,0,0.2-0.2,0.1-0.3l0,0C30,35.8,30,35.8,29.9,35.7z"/>
					<path id="XMLID_1952_" class="st16" d="M29.9,35.8L29.9,35.8c-0.1,0-0.2,0.1-0.1,0.2l0,0c0,0.1,0.1,0.1,0.1,0.1l0,0
						c0.1,0,0.2-0.1,0.1-0.2l0,0C30,35.8,30,35.8,29.9,35.8z"/>
				</g>
				<g id="XMLID_1948_">
					<path id="XMLID_1950_" class="st15" d="M30.5,36.1L30.5,36.1c-0.1,0-0.2,0.2-0.1,0.3l0,0c0,0.1,0.1,0.1,0.2,0.1l0,0
						c0.1,0,0.2-0.2,0.1-0.3l0,0C30.6,36.2,30.6,36.1,30.5,36.1z"/>
					<path id="XMLID_1949_" class="st16" d="M30.5,36.2L30.5,36.2c-0.1,0-0.2,0.1-0.1,0.2l0,0c0,0.1,0.1,0.1,0.1,0.1l0,0
						c0.1,0,0.2-0.1,0.1-0.2l0,0C30.6,36.2,30.6,36.2,30.5,36.2z"/>
				</g>
				<g id="XMLID_1945_">
					<path id="XMLID_1947_" class="st15" d="M29.9,36.4L29.9,36.4c-0.1,0-0.2,0.2-0.1,0.3l0,0c0,0.1,0.1,0.1,0.2,0.1l0,0
						c0.1,0,0.2-0.2,0.1-0.3l0,0C30,36.5,30,36.4,29.9,36.4z"/>
					<path id="XMLID_1946_" class="st16" d="M29.9,36.5L29.9,36.5c-0.1,0-0.2,0.1-0.1,0.2l0,0c0,0.1,0.1,0.1,0.1,0.1l0,0
						c0.1,0,0.2-0.1,0.1-0.2l0,0C30,36.5,30,36.5,29.9,36.5z"/>
				</g>
				<g id="XMLID_1942_">
					<path id="XMLID_1944_" class="st15" d="M30.5,36.8L30.5,36.8c-0.1,0-0.2,0.2-0.1,0.3l0,0c0,0.1,0.1,0.1,0.2,0.1l0,0
						c0.1,0,0.2-0.2,0.1-0.3l0,0C30.6,36.8,30.6,36.8,30.5,36.8z"/>
					<path id="XMLID_1943_" class="st16" d="M30.5,36.8L30.5,36.8c-0.1,0-0.2,0.1-0.1,0.2l0,0c0,0.1,0.1,0.1,0.1,0.1l0,0
						c0.1,0,0.2-0.1,0.1-0.2l0,0C30.6,36.9,30.6,36.8,30.5,36.8z"/>
				</g>
			</g>
		</g>
		<g id="XMLID_1812_">
			<g id="XMLID_1821_">
				<g id="XMLID_1922_">
					<g id="XMLID_1935_">
						<path id="XMLID_1939_" class="st19" d="M45,39.5c0-0.3-0.2-0.5-0.5-0.7v0c-0.4-0.2-0.9-0.3-1.4-0.2l0,0
							c-0.6,0.1-0.9,0.5-1,0.9c0,0.3,0.5,2.2,0.5,2.3c0,0.2,0.1,0.3,0.3,0.5l0,0c0.2,0.1,0.6,0.2,0.9,0.1l0,0
							c0.4-0.1,0.6-0.3,0.6-0.6C44.5,41.7,45,39.8,45,39.5z"/>
						<path id="XMLID_1938_" class="st20" d="M44.5,38.8L44.5,38.8c0.8,0.5,0.6,1.4-0.5,1.7l0,0c-0.5,0.1-1,0-1.4-0.2l0,0
							c-0.8-0.5-0.6-1.4,0.5-1.7l0,0C43.6,38.5,44.1,38.6,44.5,38.8z"/>
						<path id="XMLID_1937_" class="st20" d="M44.5,38.6L44.5,38.6c0.9,0.5,0.6,1.5-0.5,1.7l0,0c-0.5,0.1-1.1,0-1.5-0.2l0,0
							c-0.9-0.5-0.6-1.5,0.5-1.7l0,0C43.6,38.3,44.1,38.4,44.5,38.6z"/>
						<path id="XMLID_1936_" class="st20" d="M44.5,38.6L44.5,38.6c0.8,0.5,0.6,1.4-0.5,1.7l0,0c-0.5,0.1-1,0-1.4-0.2l0,0
							c-0.8-0.5-0.6-1.4,0.5-1.7l0,0C43.6,38.3,44.1,38.4,44.5,38.6z"/>
					</g>
					<g id="XMLID_1923_">
						<path id="XMLID_1933_" class="st21" d="M44.4,38.7L44.4,38.7c-0.4-0.2-0.9-0.3-1.3-0.2l0,0c-0.7,0.2-1,0.7-0.9,1.1
							c0,0,0,0,0,0c0,0,0,0,0,0c0.1,0.2,0.2,0.3,0.4,0.5c0.4,0.2,0.9,0.3,1.3,0.2l0,0c0.5-0.1,0.7-0.3,0.9-0.6c0,0,0,0,0,0
							c0,0,0,0,0,0C45,39.3,44.9,39,44.4,38.7z"/>
						<g id="XMLID_1924_">
							<g id="XMLID_1925_">
								<path id="XMLID_1932_" class="st22" d="M44,40.8c-0.5,0.1-1,0-1.4-0.2c-0.1-0.1-0.3-0.2-0.3-0.3c0,0,0,0.1,0,0.1
									c0.1,0.1,0.2,0.2,0.3,0.2c0.3,0.2,0.6,0.2,1,0.2C43.7,40.9,43.9,40.9,44,40.8c0.3,0,0.6-0.2,0.8-0.3c0,0,0-0.1,0-0.1
									C44.7,40.6,44.4,40.8,44,40.8z"/>
								<g id="XMLID_1928_">
									<path id="XMLID_1931_" class="st23" d="M43.6,41.2c0.2,0,0.3,0,0.5-0.1c0.3-0.1,0.5-0.2,0.7-0.3c0,0,0-0.1,0-0.1
										c-0.2,0.2-0.4,0.3-0.7,0.4c-0.5,0.1-1,0-1.4-0.2c-0.1-0.1-0.2-0.1-0.3-0.2c0,0,0,0.1,0,0.1c0.1,0.1,0.1,0.1,0.2,0.1
										C42.9,41.1,43.2,41.2,43.6,41.2z"/>
									<path id="XMLID_1930_" class="st23" d="M42.6,41.4C42.6,41.4,42.6,41.4,42.6,41.4C42.6,41.4,42.6,41.4,42.6,41.4
										C42.6,41.4,42.6,41.5,42.6,41.4c0.2,0.2,0.6,0.3,0.9,0.3c0.2,0,0.3,0,0.5-0.1c0.2,0,0.4-0.1,0.5-0.2c0,0,0-0.1,0-0.1
										c-0.2,0.1-0.3,0.2-0.5,0.2C43.6,41.7,43,41.6,42.6,41.4z"/>
									<path id="XMLID_1929_" class="st23" d="M42.7,41.9C42.7,41.9,42.7,41.9,42.7,41.9c0.3,0.2,0.6,0.3,0.9,0.3
										c0.2,0,0.3,0,0.5-0.1c0.1,0,0.3-0.1,0.4-0.1c0,0,0-0.1,0-0.1C44.3,42,44.2,42,44,42.1C43.6,42.2,43,42.1,42.7,41.9z"/>
								</g>
								<path id="XMLID_1927_" class="st22" d="M44,41.8c-0.5,0.1-1,0-1.4-0.2c0,0,0,0,0,0c0,0,0,0.1,0,0.1c0.3,0.2,0.6,0.2,1,0.2
									C43.7,42,43.9,41.9,44,41.8c0.2,0,0.3,0,0.5-0.1c0,0,0,0,0-0.1C44.4,41.7,44.2,41.8,44,41.8z"/>
								<path id="XMLID_1926_" class="st22" d="M44,41.3c-0.5,0.1-1,0-1.4-0.2c-0.1,0-0.1-0.1-0.2-0.1c0,0,0,0.1,0,0.1
									c0,0,0.1,0.1,0.1,0.1C43,41.4,43.6,41.5,44,41.3c0.2,0,0.4-0.1,0.6-0.2c0,0,0-0.1,0-0.1C44.5,41.2,44.3,41.3,44,41.3z"/>
							</g>
						</g>
					</g>
				</g>
				<g id="XMLID_1897_">
					<g id="XMLID_1914_">
						<g id="XMLID_1918_">
							<g id="XMLID_1920_">
								<path id="XMLID_1921_" class="st19" d="M42.6,40.1L42.6,40.1c0.4,0.2,0.9,0.3,1.4,0.2l0,0c0.4-0.1,0.7-0.3,0.8-0.5
									c0.1-0.3,0.1-0.6,0.1-0.7c0-0.3-0.2-0.5-0.5-0.7l0,0c-0.4-0.2-0.9-0.3-1.4-0.2l0,0c-0.6,0.1-0.9,0.5-1,0.9
									c0,0.1,0,0.3,0.1,0.6C42.3,39.8,42.5,40,42.6,40.1z"/>
							</g>
							<path id="XMLID_1919_" class="st20" d="M44.8,38.4c-0.1-0.1-0.2-0.2-0.3-0.3l0,0c-0.4-0.2-0.9-0.3-1.4-0.2l0,0
								c-0.4,0.1-0.6,0.3-0.8,0.5c-0.3,0.3-0.3,0.7-0.1,1c0.1,0.1,0.2,0.3,0.4,0.4l0,0c0.4,0.2,0.9,0.3,1.4,0.2l0,0
								c0.4-0.1,0.7-0.3,0.9-0.6C45.1,39.1,45.1,38.8,44.8,38.4z"/>
						</g>
						<g id="XMLID_1915_">
							<path id="XMLID_1916_" class="st21" d="M44.4,38.3L44.4,38.3c-0.4-0.2-0.9-0.3-1.3-0.2l0,0c-0.7,0.2-1,0.7-0.9,1.1
								c0,0,0,0,0,0c0,0,0,0,0,0c0.1,0.2,0.2,0.3,0.4,0.5c0.4,0.2,0.9,0.3,1.3,0.2l0,0c0.5-0.1,0.7-0.3,0.9-0.6c0,0,0,0,0,0
								c0,0,0,0,0,0C45,38.9,44.9,38.5,44.4,38.3z"/>
						</g>
					</g>
					<g id="XMLID_1906_">
						<g id="XMLID_1910_">
							<g id="XMLID_1912_">
								<path id="XMLID_1913_" class="st19" d="M42.6,39.6L42.6,39.6c0.4,0.2,0.9,0.3,1.4,0.2l0,0c0.4-0.1,0.7-0.3,0.8-0.5
									c0.1-0.3,0.1-0.6,0.1-0.7c0-0.3-0.2-0.5-0.5-0.7l0,0c-0.4-0.2-0.9-0.3-1.4-0.2l0,0c-0.6,0.1-0.9,0.5-1,0.9
									c0,0.1,0,0.3,0.1,0.6C42.3,39.4,42.5,39.5,42.6,39.6z"/>
							</g>
							<path id="XMLID_1911_" class="st20" d="M44.8,38c-0.1-0.1-0.2-0.2-0.3-0.3l0,0c-0.4-0.2-0.9-0.3-1.4-0.2l0,0
								c-0.4,0.1-0.6,0.3-0.8,0.5c-0.3,0.3-0.3,0.7-0.1,1c0.1,0.1,0.2,0.3,0.4,0.4l0,0c0.4,0.2,0.9,0.3,1.4,0.2l0,0
								c0.4-0.1,0.7-0.3,0.9-0.6C45.1,38.7,45.1,38.3,44.8,38z"/>
						</g>
						<g id="XMLID_1907_">
							<path id="XMLID_1908_" class="st21" d="M44.4,37.9L44.4,37.9c-0.4-0.2-0.9-0.3-1.3-0.2l0,0c-0.7,0.2-1,0.7-0.9,1.1
								c0,0,0,0,0,0c0,0,0,0,0,0c0.1,0.2,0.2,0.3,0.4,0.5c0.4,0.2,0.9,0.3,1.3,0.2l0,0c0.5-0.1,0.7-0.3,0.9-0.6c0,0,0,0,0,0
								c0,0,0,0,0,0C45,38.5,44.9,38.1,44.4,37.9z"/>
						</g>
					</g>
					<g id="XMLID_1898_">
						<g id="XMLID_1902_">
							<g id="XMLID_1904_">
								<path id="XMLID_1905_" class="st19" d="M42.6,39.2L42.6,39.2c0.4,0.2,0.9,0.3,1.4,0.2l0,0c0.4-0.1,0.7-0.3,0.8-0.5
									c0.1-0.3,0.1-0.6,0.1-0.7c0-0.3-0.2-0.5-0.5-0.7l0,0c-0.4-0.2-0.9-0.3-1.4-0.2l0,0c-0.6,0.1-0.9,0.5-1,0.9
									c0,0.1,0,0.3,0.1,0.6C42.3,39,42.5,39.1,42.6,39.2z"/>
							</g>
							<path id="XMLID_1903_" class="st20" d="M44.8,37.6c-0.1-0.1-0.2-0.2-0.3-0.3l0,0c-0.4-0.2-0.9-0.3-1.4-0.2l0,0
								c-0.4,0.1-0.6,0.3-0.8,0.5c-0.3,0.3-0.3,0.7-0.1,1c0.1,0.1,0.2,0.3,0.4,0.4l0,0c0.4,0.2,0.9,0.3,1.4,0.2l0,0
								c0.4-0.1,0.7-0.3,0.9-0.6C45.1,38.3,45.1,37.9,44.8,37.6z"/>
						</g>
						<g id="XMLID_1899_">
							<path id="XMLID_1900_" class="st21" d="M44.4,37.4L44.4,37.4c-0.4-0.2-0.9-0.3-1.3-0.2l0,0c-0.7,0.2-1,0.7-0.9,1.1
								c0,0,0,0,0,0c0,0,0,0,0,0c0.1,0.2,0.2,0.3,0.4,0.5C43,39,43.5,39.1,44,39l0,0c0.5-0.1,0.7-0.3,0.9-0.6c0,0,0,0,0,0
								c0,0,0,0,0,0C45,38.1,44.9,37.7,44.4,37.4z"/>
						</g>
					</g>
				</g>
				<g id="XMLID_1872_">
					<g id="XMLID_1889_">
						<g id="XMLID_1893_">
							<g id="XMLID_1895_">
								<path id="XMLID_1896_" class="st19" d="M42.6,38.8L42.6,38.8C43,39,43.5,39.1,44,39l0,0c0.4-0.1,0.7-0.3,0.8-0.5
									c0.1-0.3,0.1-0.6,0.1-0.7c0-0.3-0.2-0.5-0.5-0.7l0,0c-0.4-0.2-0.9-0.3-1.4-0.2l0,0c-0.6,0.1-0.9,0.5-1,0.9
									c0,0.1,0,0.3,0.1,0.6C42.3,38.6,42.5,38.7,42.6,38.8z"/>
							</g>
							<path id="XMLID_1894_" class="st20" d="M44.8,37.2c-0.1-0.1-0.2-0.2-0.3-0.3l0,0c-0.4-0.2-0.9-0.3-1.4-0.2l0,0
								c-0.4,0.1-0.6,0.3-0.8,0.5c-0.3,0.3-0.3,0.7-0.1,1c0.1,0.1,0.2,0.3,0.4,0.4l0,0c0.4,0.2,0.9,0.3,1.4,0.2l0,0
								c0.4-0.1,0.7-0.3,0.9-0.6C45.1,37.9,45.1,37.5,44.8,37.2z"/>
						</g>
						<g id="XMLID_1890_">
							<path id="XMLID_1891_" class="st21" d="M44.4,37L44.4,37c-0.4-0.2-0.9-0.3-1.3-0.2l0,0c-0.7,0.2-1,0.7-0.9,1.1c0,0,0,0,0,0
								c0,0,0,0,0,0c0.1,0.2,0.2,0.3,0.4,0.5c0.4,0.2,0.9,0.3,1.3,0.2l0,0c0.5-0.1,0.7-0.3,0.9-0.6c0,0,0,0,0,0c0,0,0,0,0,0
								C45,37.6,44.9,37.3,44.4,37z"/>
						</g>
					</g>
					<g id="XMLID_1881_">
						<g id="XMLID_1885_">
							<g id="XMLID_1887_">
								<path id="XMLID_1888_" class="st19" d="M42.6,38.4L42.6,38.4c0.4,0.2,0.9,0.3,1.4,0.2l0,0c0.4-0.1,0.7-0.3,0.8-0.5
									c0.1-0.3,0.1-0.6,0.1-0.7c0-0.3-0.2-0.5-0.5-0.7l0,0c-0.4-0.2-0.9-0.3-1.4-0.2l0,0c-0.6,0.1-0.9,0.5-1,0.9
									c0,0.1,0,0.3,0.1,0.6C42.3,38.1,42.5,38.3,42.6,38.4z"/>
							</g>
							<path id="XMLID_1886_" class="st20" d="M44.8,36.8c-0.1-0.1-0.2-0.2-0.3-0.3l0,0c-0.4-0.2-0.9-0.3-1.4-0.2l0,0
								c-0.4,0.1-0.6,0.3-0.8,0.5c-0.3,0.3-0.3,0.7-0.1,1c0.1,0.1,0.2,0.3,0.4,0.4l0,0c0.4,0.2,0.9,0.3,1.4,0.2l0,0
								c0.4-0.1,0.7-0.3,0.9-0.6C45.1,37.4,45.1,37.1,44.8,36.8z"/>
						</g>
						<g id="XMLID_1882_">
							<path id="XMLID_1883_" class="st21" d="M44.4,36.6L44.4,36.6c-0.4-0.2-0.9-0.3-1.3-0.2l0,0c-0.7,0.2-1,0.7-0.9,1.1
								c0,0,0,0,0,0c0,0,0,0,0,0c0.1,0.2,0.2,0.3,0.4,0.5c0.4,0.2,0.9,0.3,1.3,0.2l0,0c0.5-0.1,0.7-0.3,0.9-0.6c0,0,0,0,0,0
								c0,0,0,0,0,0C45,37.2,44.9,36.8,44.4,36.6z"/>
						</g>
					</g>
					<g id="XMLID_1873_">
						<g id="XMLID_1877_">
							<g id="XMLID_1879_">
								<path id="XMLID_1880_" class="st19" d="M42.6,37.9L42.6,37.9c0.4,0.2,0.9,0.3,1.4,0.2l0,0c0.4-0.1,0.7-0.3,0.8-0.5
									c0.1-0.3,0.1-0.6,0.1-0.7c0-0.3-0.2-0.5-0.5-0.7l0,0c-0.4-0.2-0.9-0.3-1.4-0.2l0,0c-0.6,0.1-0.9,0.5-1,0.9
									c0,0.1,0,0.3,0.1,0.6C42.3,37.7,42.5,37.8,42.6,37.9z"/>
							</g>
							<path id="XMLID_1878_" class="st20" d="M44.8,36.3c-0.1-0.1-0.2-0.2-0.3-0.3l0,0c-0.4-0.2-0.9-0.3-1.4-0.2l0,0
								c-0.4,0.1-0.6,0.3-0.8,0.5c-0.3,0.3-0.3,0.7-0.1,1c0.1,0.1,0.2,0.3,0.4,0.4l0,0c0.4,0.2,0.9,0.3,1.4,0.2l0,0
								c0.4-0.1,0.7-0.3,0.9-0.6C45.1,37,45.1,36.6,44.8,36.3z"/>
						</g>
						<g id="XMLID_1874_">
							<path id="XMLID_1875_" class="st21" d="M44.4,36.2L44.4,36.2c-0.4-0.2-0.9-0.3-1.3-0.2l0,0c-0.7,0.2-1,0.7-0.9,1.1
								c0,0,0,0,0,0c0,0,0,0,0,0c0.1,0.2,0.2,0.3,0.4,0.5c0.4,0.2,0.9,0.3,1.3,0.2l0,0c0.5-0.1,0.7-0.3,0.9-0.6c0,0,0,0,0,0
								c0,0,0,0,0,0C45,36.8,44.9,36.4,44.4,36.2z"/>
						</g>
					</g>
				</g>
				<g id="XMLID_1847_">
					<g id="XMLID_1864_">
						<g id="XMLID_1868_">
							<g id="XMLID_1870_">
								<path id="XMLID_1871_" class="st19" d="M42.6,37.5L42.6,37.5c0.4,0.2,0.9,0.3,1.4,0.2l0,0c0.4-0.1,0.7-0.3,0.8-0.5
									c0.1-0.3,0.1-0.6,0.1-0.7c0-0.3-0.2-0.5-0.5-0.7l0,0c-0.4-0.2-0.9-0.3-1.4-0.2l0,0c-0.6,0.1-0.9,0.5-1,0.9
									c0,0.1,0,0.3,0.1,0.6C42.3,37.3,42.5,37.4,42.6,37.5z"/>
							</g>
							<path id="XMLID_1869_" class="st20" d="M44.8,35.9c-0.1-0.1-0.2-0.2-0.3-0.3l0,0c-0.4-0.2-0.9-0.3-1.4-0.2l0,0
								c-0.4,0.1-0.6,0.3-0.8,0.5c-0.3,0.3-0.3,0.7-0.1,1c0.1,0.1,0.2,0.3,0.4,0.4l0,0c0.4,0.2,0.9,0.3,1.4,0.2l0,0
								c0.4-0.1,0.7-0.3,0.9-0.6C45.1,36.6,45.1,36.2,44.8,35.9z"/>
						</g>
						<g id="XMLID_1865_">
							<path id="XMLID_1866_" class="st21" d="M44.4,35.7L44.4,35.7c-0.4-0.2-0.9-0.3-1.3-0.2l0,0c-0.7,0.2-1,0.7-0.9,1.1
								c0,0,0,0,0,0c0,0,0,0,0,0c0.1,0.2,0.2,0.3,0.4,0.5c0.4,0.2,0.9,0.3,1.3,0.2l0,0c0.5-0.1,0.7-0.3,0.9-0.6c0,0,0,0,0,0
								c0,0,0,0,0,0C45,36.3,44.9,36,44.4,35.7z"/>
						</g>
					</g>
					<g id="XMLID_1856_">
						<g id="XMLID_1860_">
							<g id="XMLID_1862_">
								<path id="XMLID_1863_" class="st19" d="M42.6,37.1L42.6,37.1c0.4,0.2,0.9,0.3,1.4,0.2l0,0c0.4-0.1,0.7-0.3,0.8-0.5
									c0.1-0.3,0.1-0.6,0.1-0.7c0-0.3-0.2-0.5-0.5-0.7l0,0c-0.4-0.2-0.9-0.3-1.4-0.2l0,0c-0.6,0.1-0.9,0.5-1,0.9
									c0,0.1,0,0.3,0.1,0.6C42.3,36.9,42.5,37,42.6,37.1z"/>
							</g>
							<path id="XMLID_1861_" class="st20" d="M44.8,35.5c-0.1-0.1-0.2-0.2-0.3-0.3l0,0c-0.4-0.2-0.9-0.3-1.4-0.2l0,0
								c-0.4,0.1-0.6,0.3-0.8,0.5c-0.3,0.3-0.3,0.7-0.1,1c0.1,0.1,0.2,0.3,0.4,0.4l0,0c0.4,0.2,0.9,0.3,1.4,0.2l0,0
								c0.4-0.1,0.7-0.3,0.9-0.6C45.1,36.1,45.1,35.8,44.8,35.5z"/>
						</g>
						<g id="XMLID_1857_">
							<path id="XMLID_1858_" class="st21" d="M44.4,35.3L44.4,35.3c-0.4-0.2-0.9-0.3-1.3-0.2l0,0c-0.7,0.2-1,0.7-0.9,1.1
								c0,0,0,0,0,0c0,0,0,0,0,0c0.1,0.2,0.2,0.3,0.4,0.5c0.4,0.2,0.9,0.3,1.3,0.2l0,0c0.5-0.1,0.7-0.3,0.9-0.6c0,0,0,0,0,0
								c0,0,0,0,0,0C45,35.9,44.9,35.6,44.4,35.3z"/>
						</g>
					</g>
					<g id="XMLID_1848_">
						<g id="XMLID_1852_">
							<g id="XMLID_1854_">
								<path id="XMLID_1855_" class="st19" d="M42.6,36.6L42.6,36.6c0.4,0.2,0.9,0.3,1.4,0.2l0,0c0.4-0.1,0.7-0.3,0.8-0.5
									c0.1-0.3,0.1-0.6,0.1-0.7c0-0.3-0.2-0.5-0.5-0.7l0,0c-0.4-0.2-0.9-0.3-1.4-0.2l0,0c-0.6,0.1-0.9,0.5-1,0.9
									c0,0.1,0,0.3,0.1,0.6C42.3,36.4,42.5,36.5,42.6,36.6z"/>
							</g>
							<path id="XMLID_1853_" class="st20" d="M44.8,35c-0.1-0.1-0.2-0.2-0.3-0.3l0,0c-0.4-0.2-0.9-0.3-1.4-0.2l0,0
								c-0.4,0.1-0.6,0.3-0.8,0.5c-0.3,0.3-0.3,0.7-0.1,1c0.1,0.1,0.2,0.3,0.4,0.4l0,0c0.4,0.2,0.9,0.3,1.4,0.2l0,0
								c0.4-0.1,0.7-0.3,0.9-0.6C45.1,35.7,45.1,35.3,44.8,35z"/>
						</g>
						<g id="XMLID_1849_">
							<path id="XMLID_1850_" class="st21" d="M44.4,34.9L44.4,34.9c-0.4-0.2-0.9-0.3-1.3-0.2l0,0c-0.7,0.2-1,0.7-0.9,1.1
								c0,0,0,0,0,0c0,0,0,0,0,0c0.1,0.2,0.2,0.3,0.4,0.5c0.4,0.2,0.9,0.3,1.3,0.2l0,0c0.5-0.1,0.7-0.3,0.9-0.6c0,0,0,0,0,0
								c0,0,0,0,0,0C45,35.5,44.9,35.1,44.4,34.9z"/>
						</g>
					</g>
				</g>
				<g id="XMLID_1822_">
					<g id="XMLID_1839_">
						<g id="XMLID_1843_">
							<g id="XMLID_1845_">
								<path id="XMLID_1846_" class="st19" d="M42.6,36.2L42.6,36.2c0.4,0.2,0.9,0.3,1.4,0.2l0,0c0.4-0.1,0.7-0.3,0.8-0.5
									c0.1-0.3,0.1-0.6,0.1-0.7c0-0.3-0.2-0.5-0.5-0.7l0,0c-0.4-0.2-0.9-0.3-1.4-0.2l0,0c-0.6,0.1-0.9,0.5-1,0.9
									c0,0.1,0,0.3,0.1,0.6C42.3,36,42.5,36.1,42.6,36.2z"/>
							</g>
							<path id="XMLID_1844_" class="st20" d="M44.8,34.6c-0.1-0.1-0.2-0.2-0.3-0.3l0,0c-0.4-0.2-0.9-0.3-1.4-0.2l0,0
								c-0.4,0.1-0.6,0.3-0.8,0.5c-0.3,0.3-0.3,0.7-0.1,1c0.1,0.1,0.2,0.3,0.4,0.4l0,0c0.4,0.2,0.9,0.3,1.4,0.2l0,0
								c0.4-0.1,0.7-0.3,0.9-0.6C45.1,35.3,45.1,34.9,44.8,34.6z"/>
						</g>
						<g id="XMLID_1840_">
							<path id="XMLID_1841_" class="st21" d="M44.4,34.5L44.4,34.5c-0.4-0.2-0.9-0.3-1.3-0.2l0,0c-0.7,0.2-1,0.7-0.9,1.1
								c0,0,0,0,0,0c0,0,0,0,0,0c0.1,0.2,0.2,0.3,0.4,0.5C43,36,43.5,36.1,44,36l0,0c0.5-0.1,0.7-0.3,0.9-0.6c0,0,0,0,0,0
								c0,0,0,0,0,0C45,35.1,44.9,34.7,44.4,34.5z"/>
						</g>
					</g>
					<g id="XMLID_1831_">
						<g id="XMLID_1835_">
							<g id="XMLID_1837_">
								<path id="XMLID_1838_" class="st19" d="M42.6,35.8L42.6,35.8C43,36,43.5,36.1,44,36l0,0c0.4-0.1,0.7-0.3,0.8-0.5
									c0.1-0.3,0.1-0.6,0.1-0.7c0-0.3-0.2-0.5-0.5-0.7l0,0c-0.4-0.2-0.9-0.3-1.4-0.2l0,0c-0.6,0.1-0.9,0.5-1,0.9
									c0,0.1,0,0.3,0.1,0.6C42.3,35.6,42.5,35.7,42.6,35.8z"/>
							</g>
							<path id="XMLID_1836_" class="st20" d="M44.8,34.2c-0.1-0.1-0.2-0.2-0.3-0.3l0,0c-0.4-0.2-0.9-0.3-1.4-0.2l0,0
								c-0.4,0.1-0.6,0.3-0.8,0.5c-0.3,0.3-0.3,0.7-0.1,1c0.1,0.1,0.2,0.3,0.4,0.4l0,0c0.4,0.2,0.9,0.3,1.4,0.2l0,0
								c0.4-0.1,0.7-0.3,0.9-0.6C45.1,34.9,45.1,34.5,44.8,34.2z"/>
						</g>
						<g id="XMLID_1832_">
							<path id="XMLID_1833_" class="st21" d="M44.4,34L44.4,34c-0.4-0.2-0.9-0.3-1.3-0.2l0,0c-0.7,0.2-1,0.7-0.9,1.1c0,0,0,0,0,0
								c0,0,0,0,0,0c0.1,0.2,0.2,0.3,0.4,0.5c0.4,0.2,0.9,0.3,1.3,0.2l0,0c0.5-0.1,0.7-0.3,0.9-0.6c0,0,0,0,0,0c0,0,0,0,0,0
								C45,34.6,44.9,34.3,44.4,34z"/>
						</g>
					</g>
					<g id="XMLID_1823_">
						<g id="XMLID_1827_">
							<g id="XMLID_1829_">
								<path id="XMLID_1830_" class="st19" d="M42.6,35.4L42.6,35.4c0.4,0.2,0.9,0.3,1.4,0.2l0,0c0.4-0.1,0.7-0.3,0.8-0.5
									c0.1-0.3,0.1-0.6,0.1-0.7c0-0.3-0.2-0.5-0.5-0.7l0,0c-0.4-0.2-0.9-0.3-1.4-0.2l0,0c-0.6,0.1-0.9,0.5-1,0.9
									c0,0.1,0,0.3,0.1,0.6C42.3,35.2,42.5,35.3,42.6,35.4z"/>
							</g>
							<path id="XMLID_1828_" class="st20" d="M44.8,33.8c-0.1-0.1-0.2-0.2-0.3-0.3l0,0c-0.4-0.2-0.9-0.3-1.4-0.2l0,0
								c-0.4,0.1-0.6,0.3-0.8,0.5c-0.3,0.3-0.3,0.7-0.1,1c0.1,0.1,0.2,0.3,0.4,0.4l0,0c0.4,0.2,0.9,0.3,1.4,0.2l0,0
								c0.4-0.1,0.7-0.3,0.9-0.6C45.1,34.4,45.1,34.1,44.8,33.8z"/>
						</g>
						<g id="XMLID_1824_">
							<path id="XMLID_1825_" class="st21" d="M44.4,33.6L44.4,33.6c-0.4-0.2-0.9-0.3-1.3-0.2l0,0c-0.7,0.2-1,0.7-0.9,1.1
								c0,0,0,0,0,0c0,0,0,0,0,0c0.1,0.2,0.2,0.3,0.4,0.5c0.4,0.2,0.9,0.3,1.3,0.2l0,0c0.5-0.1,0.7-0.3,0.9-0.6c0,0,0,0,0,0
								c0,0,0,0,0,0C45,34.2,44.9,33.9,44.4,33.6z"/>
						</g>
					</g>
				</g>
			</g>
			<g id="XMLID_1813_">
				<g id="XMLID_1817_">
					<path id="XMLID_1818_" class="st24" d="M45.8,25.5L43,27.1V42l2.7-1.6V25.5z M43.8,40.7V27.7L45,27V40L43.8,40.7z"/>
				</g>
				<polygon id="XMLID_1816_" class="st2" points="40.3,25.5 43,27.1 43,42 40.3,40.4 				"/>
				<polygon id="XMLID_1815_" class="st25" points="43,24 45.8,25.5 43,27.1 40.3,25.5 				"/>
				<polygon id="XMLID_1814_" class="st26" points="43,24.2 45.3,25.5 43,26.9 40.8,25.5 				"/>
				<polyline id="XMLID_16309_" class="st5" points="43,26.9 40.8,25.5 43,24.2 				"/>
			</g>
		</g>
	</g>
	<g id="XMLID_1766_">
		<g id="XMLID_1767_">
			<g id="XMLID_1792_">
				<path id="XMLID_16311_" class="st19" d="M30.6,45.4c0-0.3-0.2-0.7-0.6-0.9l0,0c-0.5-0.3-1.2-0.4-1.8-0.2l0,0
					c-0.8,0.2-1.2,0.7-1.2,1.2c0,0.3,0.7,2.8,0.7,3c0,0.2,0.1,0.4,0.4,0.6l0,0c0.3,0.2,0.8,0.2,1.2,0.2l0,0c0.5-0.1,0.8-0.4,0.8-0.7
					C29.9,48.3,30.6,45.8,30.6,45.4z"/>
				<g id="XMLID_1802_">
					<g id="XMLID_1803_">
						<path id="XMLID_1810_" class="st22" d="M29.4,47.1c-0.6,0.1-1.3,0.1-1.8-0.2c-0.2-0.1-0.3-0.2-0.4-0.4c0,0.1,0,0.1,0,0.2
							c0.1,0.1,0.2,0.2,0.4,0.3c0.4,0.2,0.8,0.3,1.2,0.3C29,47.3,29.2,47.3,29.4,47.1c0.4,0,0.7-0.2,1-0.4c0-0.1,0-0.1,0-0.2
							C30.2,46.8,29.8,47,29.4,47.1z"/>
						<g id="XMLID_1806_">
							<path id="XMLID_1809_" class="st23" d="M28.8,47.6c0.2,0,0.4,0,0.6-0.1c0.3-0.1,0.6-0.2,0.9-0.4c0,0,0-0.1,0-0.1
								c-0.2,0.2-0.5,0.4-0.9,0.5c-0.6,0.1-1.3,0.1-1.8-0.2c-0.1-0.1-0.2-0.2-0.3-0.3c0,0,0,0.1,0,0.1c0.1,0.1,0.2,0.1,0.3,0.2
								C27.9,47.5,28.3,47.6,28.8,47.6z"/>
							<path id="XMLID_1808_" class="st23" d="M27.6,47.9c0,0-0.1-0.1-0.1-0.1C27.4,47.9,27.4,47.9,27.6,47.9
								C27.5,47.9,27.5,47.9,27.6,47.9c0.3,0.3,0.8,0.4,1.2,0.4c0.2,0,0.4,0,0.6-0.1c0.3-0.1,0.5-0.2,0.7-0.3c0,0,0-0.1,0-0.1
								c-0.2,0.1-0.4,0.2-0.7,0.3C28.7,48.3,28,48.2,27.6,47.9z"/>
							<path id="XMLID_1807_" class="st23" d="M27.6,48.5C27.6,48.5,27.6,48.6,27.6,48.5c0.4,0.3,0.8,0.4,1.2,0.4
								c0.2,0,0.4,0,0.6-0.1c0.2,0,0.4-0.1,0.5-0.2c0,0,0-0.1,0-0.1c-0.2,0.1-0.4,0.2-0.6,0.2C28.7,48.9,28.1,48.8,27.6,48.5z"/>
						</g>
						<path id="XMLID_1805_" class="st22" d="M29.4,48.5c-0.6,0.1-1.3,0.1-1.8-0.2c0,0,0,0,0,0c0,0,0,0.1,0,0.1
							c0.3,0.2,0.8,0.3,1.2,0.3C29,48.6,29.2,48.6,29.4,48.5c0.2,0,0.4-0.1,0.6-0.1c0,0,0-0.1,0-0.1C29.8,48.3,29.6,48.4,29.4,48.5z
							"/>
						<path id="XMLID_1804_" class="st22" d="M29.4,47.8c-0.6,0.1-1.3,0.1-1.8-0.2c-0.1,0-0.2-0.1-0.2-0.2c0,0,0,0.1,0,0.1
							c0,0,0.1,0.1,0.2,0.1C28,47.9,28.7,48,29.4,47.8c0.3,0,0.6-0.1,0.8-0.3c0,0,0-0.1,0-0.1C30,47.6,29.7,47.7,29.4,47.8z"/>
					</g>
				</g>
				<g id="XMLID_1796_">
					<path id="XMLID_1801_" class="st27" d="M28.7,49.2v-2.5c0,0-0.1,0-0.1,0L28.7,49.2C28.7,49.2,28.7,49.2,28.7,49.2z"/>
					<path id="XMLID_1800_" class="st23" d="M28.1,46.6C28.1,46.6,28.1,46.6,28.1,46.6l0.2,2.6c0,0,0.1,0,0.1,0L28.1,46.6z"/>
					<path id="XMLID_1799_" class="st23" d="M29.3,46.6C29.3,46.7,29.3,46.7,29.3,46.6L29,49.2c0,0,0.1,0,0.1,0L29.3,46.6z"/>
					<path id="XMLID_1798_" class="st27" d="M27.6,46.4C27.6,46.4,27.6,46.4,27.6,46.4C27.5,46.4,27.5,46.4,27.6,46.4l0.5,2.7
						c0,0,0.1,0,0.1,0L27.6,46.4z"/>
					<path id="XMLID_1797_" class="st27" d="M30,46.4C30,46.4,29.9,46.4,30,46.4l-0.6,2.7c0,0,0.1,0,0.1,0L30,46.4z"/>
				</g>
				<path class="st28" d="M29.9,44.5c-0.4-0.2-0.8-0.3-1.3-0.3v5c0.1,0,0.3,0,0.4,0c0.5-0.1,0.8-0.4,0.8-0.7c0-0.2,0.7-2.7,0.7-3.1
					C30.6,45.1,30.4,44.8,29.9,44.5z"/>
				<path id="XMLID_1795_" class="st20" d="M29.9,44.5L29.9,44.5c1.1,0.6,0.7,1.8-0.6,2.1l0,0c-0.6,0.1-1.3,0.1-1.8-0.2l0,0
					c-1.1-0.6-0.7-1.8,0.6-2.1l0,0C28.8,44.1,29.5,44.2,29.9,44.5z"/>
				<path id="XMLID_1794_" class="st20" d="M30,44.3L30,44.3c1.1,0.7,0.8,1.9-0.6,2.2l0,0c-0.6,0.2-1.4,0.1-1.9-0.3h0
					c-1.1-0.7-0.8-1.9,0.6-2.2l0,0C28.8,43.9,29.5,44,30,44.3z"/>
				<path id="XMLID_1793_" class="st20" d="M29.9,44.3L29.9,44.3c1.1,0.6,0.7,1.8-0.6,2.1l0,0c-0.6,0.1-1.3,0.1-1.8-0.2l0,0
					c-1.1-0.6-0.7-1.8,0.6-2.1l0,0C28.8,43.9,29.5,44,29.9,44.3z"/>
			</g>
			<g id="XMLID_1788_">
				<path id="XMLID_1791_" class="st29" d="M28.2,44.8L28.2,44.8c0.6-0.1,1.2-0.1,1.7,0.2l0,0c0.3,0.2,0.5,0.4,0.5,0.6
					c0.2-0.4,0-0.9-0.5-1.2l0,0c-0.5-0.3-1.1-0.4-1.7-0.2h0c-0.9,0.2-1.3,0.9-1.1,1.4C27.2,45.3,27.6,44.9,28.2,44.8z"/>
				<path id="XMLID_1790_" class="st30" d="M28.2,45.1L28.2,45.1c0.6-0.1,1.2-0.1,1.7,0.2l0,0c0.3,0.2,0.5,0.4,0.5,0.6
					c0.2-0.4,0-0.9-0.5-1.2l0,0c-0.5-0.3-1.1-0.4-1.7-0.2h0c-0.9,0.2-1.3,0.9-1.1,1.4C27.2,45.5,27.6,45.2,28.2,45.1z"/>
				<path id="XMLID_1789_" class="st31" d="M27.6,46.2L27.6,46.2c0.5,0.3,1.1,0.4,1.7,0.2l0,0c0.6-0.1,1-0.5,1.1-0.8
					c-0.1-0.2-0.3-0.4-0.5-0.6l0,0c-0.5-0.3-1.1-0.4-1.7-0.2h0c-0.6,0.1-1,0.5-1.1,0.8C27.1,45.8,27.3,46,27.6,46.2z"/>
			</g>
			<g id="XMLID_1784_">
				<ellipse id="XMLID_1787_" class="st32" cx="27.9" cy="45.8" rx="0.3" ry="0.2"/>
				<ellipse id="XMLID_1786_" class="st31" cx="27.9" cy="45.8" rx="0.2" ry="0.1"/>
				<path id="XMLID_1785_" class="st32" d="M27.8,45.8c0,0,0.1-0.1,0.1-0.1c0,0,0.1,0,0.1,0C28,45.7,27.9,45.7,27.8,45.8
					C27.9,45.8,27.9,45.8,27.8,45.8C27.8,45.8,27.8,45.8,27.8,45.8z"/>
			</g>
			<g id="XMLID_1780_">
				<ellipse id="XMLID_1783_" class="st32" cx="27.9" cy="45.2" rx="0.2" ry="0.1"/>
				<ellipse id="XMLID_1782_" class="st31" cx="27.9" cy="45.2" rx="0.1" ry="0.1"/>
				<path id="XMLID_1781_" class="st32" d="M27.8,45.2C27.8,45.1,27.9,45.1,27.8,45.2c0.1,0,0.1,0,0.1,0
					C28,45.1,27.9,45.1,27.8,45.2C27.9,45.2,27.9,45.2,27.8,45.2C27.8,45.2,27.8,45.2,27.8,45.2z"/>
			</g>
			<g id="XMLID_1776_">
				<ellipse id="XMLID_1779_" class="st32" cx="29.9" cy="45.8" rx="0.2" ry="0.1"/>
				<ellipse id="XMLID_1778_" class="st31" cx="29.9" cy="45.8" rx="0.1" ry="0.1"/>
				<path id="XMLID_1777_" class="st32" d="M29.8,45.8C29.8,45.8,29.8,45.7,29.8,45.8c0.1,0,0.1,0,0.1,0
					C30,45.8,29.9,45.8,29.8,45.8C29.9,45.8,29.9,45.8,29.8,45.8C29.8,45.8,29.8,45.8,29.8,45.8z"/>
			</g>
			<g id="XMLID_1772_">
				<ellipse id="XMLID_1775_" class="st32" cx="28.8" cy="46.1" rx="0.2" ry="0.1"/>
				<ellipse id="XMLID_1774_" class="st31" cx="28.8" cy="46.1" rx="0.1" ry="0.1"/>
				<path id="XMLID_1773_" class="st32" d="M28.7,46.1C28.7,46.1,28.7,46.1,28.7,46.1c0.1,0,0.1,0,0.1,0
					C28.8,46.1,28.8,46.1,28.7,46.1C28.7,46.1,28.7,46.1,28.7,46.1C28.7,46.1,28.7,46.1,28.7,46.1z"/>
			</g>
			<g id="XMLID_1768_">
				<ellipse id="XMLID_1771_" class="st32" cx="29.2" cy="45.4" rx="0.3" ry="0.1"/>
				<ellipse id="XMLID_1770_" class="st31" cx="29.2" cy="45.4" rx="0.2" ry="0.1"/>
				<path id="XMLID_1769_" class="st32" d="M29.1,45.4c0,0,0.1-0.1,0.1-0.1c0,0,0.1,0,0.1,0C29.3,45.3,29.2,45.3,29.1,45.4
					C29.2,45.4,29.2,45.4,29.1,45.4C29.1,45.4,29.1,45.4,29.1,45.4z"/>
			</g>
		</g>
	</g>
</g>
</svg>
