<?xml version="1.0" encoding="utf-8"?>
<!-- Generator: Adobe Illustrator 21.0.0, SVG Export Plug-In . SVG Version: 6.00 Build 0)  -->
<svg version="1.1" id="Layer_1" xmlns="http://www.w3.org/2000/svg" xmlns:xlink="http://www.w3.org/1999/xlink" x="0px" y="0px"
	 viewBox="0 0 80 80" style="enable-background:new 0 0 80 80;" xml:space="preserve">
<style type="text/css">
	.st0{fill:#252726;}
	.st1{fill:#181919;}
	.st2{fill:#444748;}
	.st3{opacity:0.1;fill:#444748;}
	.st4{fill:#616161;}
	.st5{fill:#5C5D5D;}
	.st6{fill:#7A2B18;}
	.st7{fill:#F5F3DF;}
	.st8{fill:#E9E7D1;}
	.st9{fill:#883220;}
	.st10{fill:#66261C;}
	.st11{fill:#373A3A;}
	.st12{fill:#4F504F;}
	.st13{fill:#676969;}
</style>
<g id="XMLID_2069_">
	<polygon id="XMLID_2072_" class="st0" points="20.9,14.3 20.9,66.7 40.3,77.9 40.3,25.5 	"/>
	<polyline id="XMLID_16307_" class="st1" points="40.3,77.9 40.3,25.5 20.9,14.3 	"/>
	<polygon id="XMLID_2071_" class="st2" points="59.8,14.3 40.3,25.5 40.3,77.9 59.8,66.7 	"/>
	<polyline id="XMLID_16308_" class="st3" points="59.8,14.3 40.3,25.5 40.3,77.9 	"/>
	<polygon id="XMLID_2070_" class="st4" points="40.3,3.1 20.9,14.3 40.3,25.5 59.8,14.3 	"/>
	<polyline id="XMLID_16310_" class="st5" points="20.9,14.3 40.3,25.5 59.8,14.3 	"/>
</g>
<g id="XMLID_1812_">
	<g id="XMLID_1821_">
		<g id="XMLID_1922_">
			<g id="XMLID_1935_">
				<path id="XMLID_1939_" class="st6" d="M18.9,29.8c0-0.3,0.2-0.5,0.5-0.7v0c0.4-0.2,0.9-0.3,1.4-0.2l0,0c0.6,0.1,0.9,0.5,1,0.9
					c0,0.3-0.5,2.2-0.5,2.3c0,0.2-0.1,0.3-0.3,0.5l0,0c-0.2,0.1-0.6,0.2-0.9,0.1l0,0c-0.4-0.1-0.6-0.3-0.6-0.6
					C19.4,32,18.9,30.1,18.9,29.8z"/>
				<path id="XMLID_1938_" class="st7" d="M19.4,29.1L19.4,29.1c-0.8,0.5-0.6,1.4,0.5,1.7l0,0c0.5,0.1,1,0,1.4-0.2l0,0
					c0.8-0.5,0.6-1.4-0.5-1.7l0,0C20.4,28.8,19.8,28.9,19.4,29.1z"/>
				<path id="XMLID_1937_" class="st7" d="M19.4,29L19.4,29c-0.9,0.5-0.6,1.5,0.5,1.7l0,0c0.5,0.1,1.1,0,1.5-0.2l0,0
					c0.9-0.5,0.6-1.5-0.5-1.7l0,0C20.4,28.7,19.8,28.8,19.4,29z"/>
				<path id="XMLID_1936_" class="st7" d="M19.4,28.9L19.4,28.9c-0.8,0.5-0.6,1.4,0.5,1.7l0,0c0.5,0.1,1,0,1.4-0.2l0,0
					c0.8-0.5,0.6-1.4-0.5-1.7l0,0C20.4,28.6,19.8,28.7,19.4,28.9z"/>
			</g>
			<g id="XMLID_1923_">
				<path id="XMLID_1933_" class="st8" d="M19.1,30C19.1,30,19.1,30,19.1,30C19.1,30,19.1,30,19.1,30c0.1,0.3,0.4,0.5,0.9,0.6l0,0
					c0.5,0.1,1,0,1.3-0.2c0.2-0.1,0.4-0.3,0.4-0.5c0,0,0,0,0,0c0,0,0,0,0,0c0.2-0.4-0.2-0.9-0.9-1.1l0,0c-0.5-0.1-1,0-1.3,0.2l0,0
					C19.1,29.3,18.9,29.7,19.1,30z"/>
				<g id="XMLID_1924_">
					<g id="XMLID_1925_">
						<path id="XMLID_1932_" class="st9" d="M19.9,31.2c0.5,0.1,1,0,1.4-0.2c0.1-0.1,0.3-0.2,0.3-0.3c0,0,0,0.1,0,0.1
							c-0.1,0.1-0.2,0.2-0.3,0.2c-0.3,0.2-0.6,0.2-1,0.2C20.2,31.3,20,31.3,19.9,31.2c-0.3,0-0.6-0.2-0.8-0.3c0,0,0-0.1,0-0.1
							C19.3,30.9,19.5,31.1,19.9,31.2z"/>
						<g id="XMLID_1928_">
							<path id="XMLID_1931_" class="st10" d="M20.3,31.5c-0.2,0-0.3,0-0.5-0.1c-0.3-0.1-0.5-0.2-0.7-0.3c0,0,0-0.1,0-0.1
								c0.2,0.2,0.4,0.3,0.7,0.4c0.5,0.1,1,0,1.4-0.2c0.1-0.1,0.2-0.1,0.3-0.2c0,0,0,0.1,0,0.1c-0.1,0.1-0.1,0.1-0.2,0.1
								C21,31.4,20.7,31.5,20.3,31.5z"/>
							<path id="XMLID_1930_" class="st10" d="M21.3,31.8C21.3,31.7,21.4,31.7,21.3,31.8C21.4,31.7,21.4,31.7,21.3,31.8
								C21.3,31.8,21.3,31.8,21.3,31.8C21,32,20.7,32,20.3,32c-0.2,0-0.3,0-0.5-0.1c-0.2,0-0.4-0.1-0.5-0.2c0,0,0-0.1,0-0.1
								c0.2,0.1,0.3,0.2,0.5,0.2C20.4,32.1,20.9,32,21.3,31.8z"/>
							<path id="XMLID_1929_" class="st10" d="M21.3,32.2C21.3,32.3,21.3,32.3,21.3,32.2c-0.3,0.2-0.6,0.3-0.9,0.3
								c-0.2,0-0.3,0-0.5-0.1c-0.1,0-0.3-0.1-0.4-0.1c0,0,0-0.1,0-0.1c0.1,0.1,0.3,0.1,0.4,0.2C20.4,32.5,20.9,32.5,21.3,32.2z"/>
						</g>
						<path id="XMLID_1927_" class="st9" d="M19.9,32.2c0.5,0.1,1,0,1.4-0.2c0,0,0,0,0,0c0,0,0,0.1,0,0.1c-0.3,0.2-0.6,0.2-1,0.2
							C20.2,32.3,20,32.3,19.9,32.2c-0.2,0-0.3,0-0.5-0.1c0,0,0,0,0-0.1C19.5,32.1,19.7,32.1,19.9,32.2z"/>
						<path id="XMLID_1926_" class="st9" d="M19.9,31.7c0.5,0.1,1,0,1.4-0.2c0.1,0,0.1-0.1,0.2-0.1c0,0,0,0.1,0,0.1
							c0,0-0.1,0.1-0.1,0.1C20.9,31.8,20.4,31.9,19.9,31.7c-0.2,0-0.4-0.1-0.6-0.2c0,0,0-0.1,0-0.1C19.4,31.5,19.6,31.6,19.9,31.7z"
							/>
					</g>
				</g>
			</g>
		</g>
		<g id="XMLID_1897_">
			<g id="XMLID_1914_">
				<g id="XMLID_1918_">
					<g id="XMLID_1920_">
						<path id="XMLID_1921_" class="st6" d="M21.3,30.4L21.3,30.4c-0.4,0.2-0.9,0.3-1.4,0.2l0,0c-0.4-0.1-0.7-0.3-0.8-0.5
							c-0.1-0.3-0.1-0.6-0.1-0.7c0-0.3,0.2-0.5,0.5-0.7l0,0c0.4-0.2,0.9-0.3,1.4-0.2l0,0c0.6,0.1,0.9,0.5,1,0.9c0,0.1,0,0.3-0.1,0.6
							C21.6,30.2,21.5,30.3,21.3,30.4z"/>
					</g>
					<path id="XMLID_1919_" class="st7" d="M19.1,28.8c0.1-0.1,0.2-0.2,0.3-0.3l0,0c0.4-0.2,0.9-0.3,1.4-0.2l0,0
						c0.4,0.1,0.6,0.3,0.8,0.5c0.3,0.3,0.3,0.7,0.1,1c-0.1,0.1-0.2,0.3-0.4,0.4l0,0c-0.4,0.2-0.9,0.3-1.4,0.2l0,0
						c-0.4-0.1-0.7-0.3-0.9-0.6C18.8,29.5,18.8,29.1,19.1,28.8z"/>
				</g>
				<g id="XMLID_1915_">
					<path id="XMLID_1916_" class="st8" d="M19.1,29.6C19.1,29.6,19.1,29.6,19.1,29.6C19.1,29.6,19.1,29.6,19.1,29.6
						c0.1,0.3,0.4,0.5,0.9,0.6l0,0c0.5,0.1,1,0,1.3-0.2c0.2-0.1,0.4-0.3,0.4-0.5c0,0,0,0,0,0c0,0,0,0,0,0c0.2-0.4-0.2-0.9-0.9-1.1
						l0,0c-0.5-0.1-1,0-1.3,0.2l0,0C19.1,28.9,18.9,29.2,19.1,29.6z"/>
				</g>
			</g>
			<g id="XMLID_1906_">
				<g id="XMLID_1910_">
					<g id="XMLID_1912_">
						<path id="XMLID_1913_" class="st6" d="M21.3,30L21.3,30c-0.4,0.2-0.9,0.3-1.4,0.2l0,0c-0.4-0.1-0.7-0.3-0.8-0.5
							c-0.1-0.3-0.1-0.6-0.1-0.7c0-0.3,0.2-0.5,0.5-0.7l0,0c0.4-0.2,0.9-0.3,1.4-0.2l0,0c0.6,0.1,0.9,0.5,1,0.9c0,0.1,0,0.3-0.1,0.6
							C21.6,29.8,21.5,29.9,21.3,30z"/>
					</g>
					<path id="XMLID_1911_" class="st7" d="M19.1,28.4c0.1-0.1,0.2-0.2,0.3-0.3l0,0c0.4-0.2,0.9-0.3,1.4-0.2l0,0
						c0.4,0.1,0.6,0.3,0.8,0.5c0.3,0.3,0.3,0.7,0.1,1c-0.1,0.1-0.2,0.3-0.4,0.4l0,0c-0.4,0.2-0.9,0.3-1.4,0.2l0,0
						c-0.4-0.1-0.7-0.3-0.9-0.6C18.8,29.1,18.8,28.7,19.1,28.4z"/>
				</g>
				<g id="XMLID_1907_">
					<path id="XMLID_1908_" class="st8" d="M19.1,29.1C19.1,29.1,19.1,29.1,19.1,29.1C19.1,29.1,19.1,29.1,19.1,29.1
						c0.1,0.3,0.4,0.5,0.9,0.6l0,0c0.5,0.1,1,0,1.3-0.2c0.2-0.1,0.4-0.3,0.4-0.5c0,0,0,0,0,0c0,0,0,0,0,0c0.2-0.4-0.2-0.9-0.9-1.1
						l0,0c-0.5-0.1-1,0-1.3,0.2l0,0C19.1,28.5,18.9,28.8,19.1,29.1z"/>
				</g>
			</g>
			<g id="XMLID_1898_">
				<g id="XMLID_1902_">
					<g id="XMLID_1904_">
						<path id="XMLID_1905_" class="st6" d="M21.3,29.6L21.3,29.6c-0.4,0.2-0.9,0.3-1.4,0.2l0,0c-0.4-0.1-0.7-0.3-0.8-0.5
							c-0.1-0.3-0.1-0.6-0.1-0.7c0-0.3,0.2-0.5,0.5-0.7l0,0c0.4-0.2,0.9-0.3,1.4-0.2l0,0c0.6,0.1,0.9,0.5,1,0.9c0,0.1,0,0.3-0.1,0.6
							C21.6,29.3,21.5,29.5,21.3,29.6z"/>
					</g>
					<path id="XMLID_1903_" class="st7" d="M19.1,27.9c0.1-0.1,0.2-0.2,0.3-0.3l0,0c0.4-0.2,0.9-0.3,1.4-0.2l0,0
						c0.4,0.1,0.6,0.3,0.8,0.5c0.3,0.3,0.3,0.7,0.1,1c-0.1,0.1-0.2,0.3-0.4,0.4l0,0c-0.4,0.2-0.9,0.3-1.4,0.2l0,0
						c-0.4-0.1-0.7-0.3-0.9-0.6C18.8,28.6,18.8,28.2,19.1,27.9z"/>
				</g>
				<g id="XMLID_1899_">
					<path id="XMLID_1900_" class="st8" d="M19.1,28.7C19.1,28.7,19.1,28.7,19.1,28.7C19.1,28.7,19.1,28.7,19.1,28.7
						c0.1,0.3,0.4,0.5,0.9,0.6l0,0c0.5,0.1,1,0,1.3-0.2c0.2-0.1,0.4-0.3,0.4-0.5c0,0,0,0,0,0c0,0,0,0,0,0c0.2-0.4-0.2-0.9-0.9-1.1
						l0,0c-0.5-0.1-1,0-1.3,0.2l0,0C19.1,28,18.9,28.4,19.1,28.7z"/>
				</g>
			</g>
		</g>
		<g id="XMLID_1872_">
			<g id="XMLID_1889_">
				<g id="XMLID_1893_">
					<g id="XMLID_1895_">
						<path id="XMLID_1896_" class="st6" d="M21.3,29.1L21.3,29.1c-0.4,0.2-0.9,0.3-1.4,0.2l0,0c-0.4-0.1-0.7-0.3-0.8-0.5
							c-0.1-0.3-0.1-0.6-0.1-0.7c0-0.3,0.2-0.5,0.5-0.7l0,0c0.4-0.2,0.9-0.3,1.4-0.2l0,0c0.6,0.1,0.9,0.5,1,0.9c0,0.1,0,0.3-0.1,0.6
							C21.6,28.9,21.5,29,21.3,29.1z"/>
					</g>
					<path id="XMLID_1894_" class="st7" d="M19.1,27.5c0.1-0.1,0.2-0.2,0.3-0.3l0,0c0.4-0.2,0.9-0.3,1.4-0.2l0,0
						c0.4,0.1,0.6,0.3,0.8,0.5c0.3,0.3,0.3,0.7,0.1,1c-0.1,0.1-0.2,0.3-0.4,0.4l0,0c-0.4,0.2-0.9,0.3-1.4,0.2l0,0
						c-0.4-0.1-0.7-0.3-0.9-0.6C18.8,28.2,18.8,27.8,19.1,27.5z"/>
				</g>
				<g id="XMLID_1890_">
					<path id="XMLID_1891_" class="st8" d="M19.1,28.3C19.1,28.3,19.1,28.3,19.1,28.3C19.1,28.3,19.1,28.3,19.1,28.3
						c0.1,0.3,0.4,0.5,0.9,0.6l0,0c0.5,0.1,1,0,1.3-0.2c0.2-0.1,0.4-0.3,0.4-0.5c0,0,0,0,0,0c0,0,0,0,0,0c0.2-0.4-0.2-0.9-0.9-1.1
						l0,0c-0.5-0.1-1,0-1.3,0.2l0,0C19.1,27.6,18.9,28,19.1,28.3z"/>
				</g>
			</g>
			<g id="XMLID_1881_">
				<g id="XMLID_1885_">
					<g id="XMLID_1887_">
						<path id="XMLID_1888_" class="st6" d="M21.3,28.7L21.3,28.7c-0.4,0.2-0.9,0.3-1.4,0.2l0,0c-0.4-0.1-0.7-0.3-0.8-0.5
							c-0.1-0.3-0.1-0.6-0.1-0.7c0-0.3,0.2-0.5,0.5-0.7l0,0c0.4-0.2,0.9-0.3,1.4-0.2l0,0c0.6,0.1,0.9,0.5,1,0.9c0,0.1,0,0.3-0.1,0.6
							C21.6,28.5,21.5,28.6,21.3,28.7z"/>
					</g>
					<path id="XMLID_1886_" class="st7" d="M19.1,27.1c0.1-0.1,0.2-0.2,0.3-0.3l0,0c0.4-0.2,0.9-0.3,1.4-0.2l0,0
						c0.4,0.1,0.6,0.3,0.8,0.5c0.3,0.3,0.3,0.7,0.1,1c-0.1,0.1-0.2,0.3-0.4,0.4l0,0c-0.4,0.2-0.9,0.3-1.4,0.2l0,0
						c-0.4-0.1-0.7-0.3-0.9-0.6C18.8,27.8,18.8,27.4,19.1,27.1z"/>
				</g>
				<g id="XMLID_1882_">
					<path id="XMLID_1883_" class="st8" d="M19.1,27.9C19.1,27.9,19.1,27.9,19.1,27.9C19.1,27.9,19.1,27.9,19.1,27.9
						c0.1,0.3,0.4,0.5,0.9,0.6l0,0c0.5,0.1,1,0,1.3-0.2c0.2-0.1,0.4-0.3,0.4-0.5c0,0,0,0,0,0c0,0,0,0,0,0c0.2-0.4-0.2-0.9-0.9-1.1
						l0,0c-0.5-0.1-1,0-1.3,0.2l0,0C19.1,27.2,18.9,27.5,19.1,27.9z"/>
				</g>
			</g>
			<g id="XMLID_1873_">
				<g id="XMLID_1877_">
					<g id="XMLID_1879_">
						<path id="XMLID_1880_" class="st6" d="M21.3,28.3L21.3,28.3c-0.4,0.2-0.9,0.3-1.4,0.2l0,0c-0.4-0.1-0.7-0.3-0.8-0.5
							c-0.1-0.3-0.1-0.6-0.1-0.7c0-0.3,0.2-0.5,0.5-0.7l0,0c0.4-0.2,0.9-0.3,1.4-0.2l0,0c0.6,0.1,0.9,0.5,1,0.9c0,0.1,0,0.3-0.1,0.6
							C21.6,28.1,21.5,28.2,21.3,28.3z"/>
					</g>
					<path id="XMLID_1878_" class="st7" d="M19.1,26.7c0.1-0.1,0.2-0.2,0.3-0.3l0,0c0.4-0.2,0.9-0.3,1.4-0.2l0,0
						c0.4,0.1,0.6,0.3,0.8,0.5c0.3,0.3,0.3,0.7,0.1,1c-0.1,0.1-0.2,0.3-0.4,0.4l0,0c-0.4,0.2-0.9,0.3-1.4,0.2l0,0
						c-0.4-0.1-0.7-0.3-0.9-0.6C18.8,27.3,18.8,27,19.1,26.7z"/>
				</g>
				<g id="XMLID_1874_">
					<path id="XMLID_1875_" class="st8" d="M19.1,27.4C19.1,27.4,19.1,27.4,19.1,27.4C19.1,27.4,19.1,27.4,19.1,27.4
						c0.1,0.3,0.4,0.5,0.9,0.6l0,0c0.5,0.1,1,0,1.3-0.2c0.2-0.1,0.4-0.3,0.4-0.5c0,0,0,0,0,0c0,0,0,0,0,0c0.2-0.4-0.2-0.9-0.9-1.1
						l0,0c-0.5-0.1-1,0-1.3,0.2l0,0C19.1,26.8,18.9,27.1,19.1,27.4z"/>
				</g>
			</g>
		</g>
		<g id="XMLID_1847_">
			<g id="XMLID_1864_">
				<g id="XMLID_1868_">
					<g id="XMLID_1870_">
						<path id="XMLID_1871_" class="st6" d="M21.3,27.8L21.3,27.8c-0.4,0.2-0.9,0.3-1.4,0.2l0,0c-0.4-0.1-0.7-0.3-0.8-0.5
							c-0.1-0.3-0.1-0.6-0.1-0.7c0-0.3,0.2-0.5,0.5-0.7l0,0c0.4-0.2,0.9-0.3,1.4-0.2l0,0c0.6,0.1,0.9,0.5,1,0.9c0,0.1,0,0.3-0.1,0.6
							C21.6,27.6,21.5,27.7,21.3,27.8z"/>
					</g>
					<path id="XMLID_1869_" class="st7" d="M19.1,26.2c0.1-0.1,0.2-0.2,0.3-0.3l0,0c0.4-0.2,0.9-0.3,1.4-0.2l0,0
						c0.4,0.1,0.6,0.3,0.8,0.5c0.3,0.3,0.3,0.7,0.1,1c-0.1,0.1-0.2,0.3-0.4,0.4l0,0c-0.4,0.2-0.9,0.3-1.4,0.2l0,0
						c-0.4-0.1-0.7-0.3-0.9-0.6C18.8,26.9,18.8,26.5,19.1,26.2z"/>
				</g>
				<g id="XMLID_1865_">
					<path id="XMLID_1866_" class="st8" d="M19.1,27C19.1,27,19.1,27,19.1,27C19.1,27,19.1,27,19.1,27c0.1,0.3,0.4,0.5,0.9,0.6l0,0
						c0.5,0.1,1,0,1.3-0.2c0.2-0.1,0.4-0.3,0.4-0.5c0,0,0,0,0,0c0,0,0,0,0,0c0.2-0.4-0.2-0.9-0.9-1.1l0,0c-0.5-0.1-1,0-1.3,0.2l0,0
						C19.1,26.3,18.9,26.7,19.1,27z"/>
				</g>
			</g>
			<g id="XMLID_1856_">
				<g id="XMLID_1860_">
					<g id="XMLID_1862_">
						<path id="XMLID_1863_" class="st6" d="M21.3,27.4L21.3,27.4c-0.4,0.2-0.9,0.3-1.4,0.2l0,0c-0.4-0.1-0.7-0.3-0.8-0.5
							c-0.1-0.3-0.1-0.6-0.1-0.7c0-0.3,0.2-0.5,0.5-0.7l0,0c0.4-0.2,0.9-0.3,1.4-0.2l0,0c0.6,0.1,0.9,0.5,1,0.9c0,0.1,0,0.3-0.1,0.6
							C21.6,27.2,21.5,27.3,21.3,27.4z"/>
					</g>
					<path id="XMLID_1861_" class="st7" d="M19.1,25.8c0.1-0.1,0.2-0.2,0.3-0.3l0,0c0.4-0.2,0.9-0.3,1.4-0.2l0,0
						c0.4,0.1,0.6,0.3,0.8,0.5c0.3,0.3,0.3,0.7,0.1,1c-0.1,0.1-0.2,0.3-0.4,0.4l0,0c-0.4,0.2-0.9,0.3-1.4,0.2l0,0
						c-0.4-0.1-0.7-0.3-0.9-0.6C18.8,26.5,18.8,26.1,19.1,25.8z"/>
				</g>
				<g id="XMLID_1857_">
					<path id="XMLID_1858_" class="st8" d="M19.1,26.6C19.1,26.6,19.1,26.6,19.1,26.6C19.1,26.6,19.1,26.6,19.1,26.6
						c0.1,0.3,0.4,0.5,0.9,0.6l0,0c0.5,0.1,1,0,1.3-0.2c0.2-0.1,0.4-0.3,0.4-0.5c0,0,0,0,0,0c0,0,0,0,0,0c0.2-0.4-0.2-0.9-0.9-1.1
						l0,0c-0.5-0.1-1,0-1.3,0.2l0,0C19.1,25.9,18.9,26.3,19.1,26.6z"/>
				</g>
			</g>
			<g id="XMLID_1848_">
				<g id="XMLID_1852_">
					<g id="XMLID_1854_">
						<path id="XMLID_1855_" class="st6" d="M21.3,27L21.3,27c-0.4,0.2-0.9,0.3-1.4,0.2l0,0c-0.4-0.1-0.7-0.3-0.8-0.5
							c-0.1-0.3-0.1-0.6-0.1-0.7c0-0.3,0.2-0.5,0.5-0.7l0,0c0.4-0.2,0.9-0.3,1.4-0.2l0,0c0.6,0.1,0.9,0.5,1,0.9c0,0.1,0,0.3-0.1,0.6
							C21.6,26.8,21.5,26.9,21.3,27z"/>
					</g>
					<path id="XMLID_1853_" class="st7" d="M19.1,25.4c0.1-0.1,0.2-0.2,0.3-0.3l0,0c0.4-0.2,0.9-0.3,1.4-0.2l0,0
						c0.4,0.1,0.6,0.3,0.8,0.5c0.3,0.3,0.3,0.7,0.1,1c-0.1,0.1-0.2,0.3-0.4,0.4l0,0c-0.4,0.2-0.9,0.3-1.4,0.2l0,0
						c-0.4-0.1-0.7-0.3-0.9-0.6C18.8,26.1,18.8,25.7,19.1,25.4z"/>
				</g>
				<g id="XMLID_1849_">
					<path id="XMLID_1850_" class="st8" d="M19.1,26.1C19.1,26.1,19.1,26.1,19.1,26.1C19.1,26.1,19.1,26.1,19.1,26.1
						c0.1,0.3,0.4,0.5,0.9,0.6l0,0c0.5,0.1,1,0,1.3-0.2c0.2-0.1,0.4-0.3,0.4-0.5c0,0,0,0,0,0c0,0,0,0,0,0c0.2-0.4-0.2-0.9-0.9-1.1
						l0,0c-0.5-0.1-1,0-1.3,0.2l0,0C19.1,25.5,18.9,25.8,19.1,26.1z"/>
				</g>
			</g>
		</g>
		<g id="XMLID_1822_">
			<g id="XMLID_1839_">
				<g id="XMLID_1843_">
					<g id="XMLID_1845_">
						<path id="XMLID_1846_" class="st6" d="M21.3,26.6L21.3,26.6c-0.4,0.2-0.9,0.3-1.4,0.2l0,0c-0.4-0.1-0.7-0.3-0.8-0.5
							c-0.1-0.3-0.1-0.6-0.1-0.7c0-0.3,0.2-0.5,0.5-0.7l0,0c0.4-0.2,0.9-0.3,1.4-0.2l0,0c0.6,0.1,0.9,0.5,1,0.9c0,0.1,0,0.3-0.1,0.6
							C21.6,26.3,21.5,26.5,21.3,26.6z"/>
					</g>
					<path id="XMLID_1844_" class="st7" d="M19.1,25c0.1-0.1,0.2-0.2,0.3-0.3l0,0c0.4-0.2,0.9-0.3,1.4-0.2l0,0
						c0.4,0.1,0.6,0.3,0.8,0.5c0.3,0.3,0.3,0.7,0.1,1c-0.1,0.1-0.2,0.3-0.4,0.4l0,0c-0.4,0.2-0.9,0.3-1.4,0.2l0,0
						c-0.4-0.1-0.7-0.3-0.9-0.6C18.8,25.6,18.8,25.3,19.1,25z"/>
				</g>
				<g id="XMLID_1840_">
					<path id="XMLID_1841_" class="st8" d="M19.1,25.7C19.1,25.7,19.1,25.7,19.1,25.7C19.1,25.7,19.1,25.7,19.1,25.7
						c0.1,0.3,0.4,0.5,0.9,0.6l0,0c0.5,0.1,1,0,1.3-0.2c0.2-0.1,0.4-0.3,0.4-0.5c0,0,0,0,0,0c0,0,0,0,0,0c0.2-0.4-0.2-0.9-0.9-1.1
						l0,0c-0.5-0.1-1,0-1.3,0.2l0,0C19.1,25,18.9,25.4,19.1,25.7z"/>
				</g>
			</g>
			<g id="XMLID_1831_">
				<g id="XMLID_1835_">
					<g id="XMLID_1837_">
						<path id="XMLID_1838_" class="st6" d="M21.3,26.1L21.3,26.1c-0.4,0.2-0.9,0.3-1.4,0.2l0,0c-0.4-0.1-0.7-0.3-0.8-0.5
							c-0.1-0.3-0.1-0.6-0.1-0.7c0-0.3,0.2-0.5,0.5-0.7l0,0c0.4-0.2,0.9-0.3,1.4-0.2l0,0c0.6,0.1,0.9,0.5,1,0.9c0,0.1,0,0.3-0.1,0.6
							C21.6,25.9,21.5,26,21.3,26.1z"/>
					</g>
					<path id="XMLID_1836_" class="st7" d="M19.1,24.5c0.1-0.1,0.2-0.2,0.3-0.3l0,0c0.4-0.2,0.9-0.3,1.4-0.2l0,0
						c0.4,0.1,0.6,0.3,0.8,0.5c0.3,0.3,0.3,0.7,0.1,1c-0.1,0.1-0.2,0.3-0.4,0.4l0,0c-0.4,0.2-0.9,0.3-1.4,0.2l0,0
						c-0.4-0.1-0.7-0.3-0.9-0.6C18.8,25.2,18.8,24.8,19.1,24.5z"/>
				</g>
				<g id="XMLID_1832_">
					<path id="XMLID_1833_" class="st8" d="M19.1,25.3C19.1,25.3,19.1,25.3,19.1,25.3C19.1,25.3,19.1,25.3,19.1,25.3
						c0.1,0.3,0.4,0.5,0.9,0.6l0,0c0.5,0.1,1,0,1.3-0.2c0.2-0.1,0.4-0.3,0.4-0.5c0,0,0,0,0,0c0,0,0,0,0,0c0.2-0.4-0.2-0.9-0.9-1.1
						l0,0c-0.5-0.1-1,0-1.3,0.2l0,0C19.1,24.6,18.9,25,19.1,25.3z"/>
				</g>
			</g>
			<g id="XMLID_1823_">
				<g id="XMLID_1827_">
					<g id="XMLID_1829_">
						<path id="XMLID_1830_" class="st6" d="M21.3,25.7L21.3,25.7c-0.4,0.2-0.9,0.3-1.4,0.2l0,0c-0.4-0.1-0.7-0.3-0.8-0.5
							c-0.1-0.3-0.1-0.6-0.1-0.7c0-0.3,0.2-0.5,0.5-0.7l0,0c0.4-0.2,0.9-0.3,1.4-0.2l0,0c0.6,0.1,0.9,0.5,1,0.9c0,0.1,0,0.3-0.1,0.6
							C21.6,25.5,21.5,25.6,21.3,25.7z"/>
					</g>
					<path id="XMLID_1828_" class="st7" d="M19.1,24.1c0.1-0.1,0.2-0.2,0.3-0.3l0,0c0.4-0.2,0.9-0.3,1.4-0.2l0,0
						c0.4,0.1,0.6,0.3,0.8,0.5c0.3,0.3,0.3,0.7,0.1,1c-0.1,0.1-0.2,0.3-0.4,0.4l0,0c-0.4,0.2-0.9,0.3-1.4,0.2l0,0
						c-0.4-0.1-0.7-0.3-0.9-0.6C18.8,24.8,18.8,24.4,19.1,24.1z"/>
				</g>
				<g id="XMLID_1824_">
					<path id="XMLID_1825_" class="st8" d="M19.1,24.9C19.1,24.9,19.1,24.9,19.1,24.9C19.1,24.9,19.1,24.9,19.1,24.9
						c0.1,0.3,0.4,0.5,0.9,0.6l0,0c0.5,0.1,1,0,1.3-0.2c0.2-0.1,0.4-0.3,0.4-0.5c0,0,0,0,0,0c0,0,0,0,0,0c0.2-0.4-0.2-0.9-0.9-1.1
						l0,0c-0.5-0.1-1,0-1.3,0.2l0,0C19.1,24.2,18.9,24.6,19.1,24.9z"/>
				</g>
			</g>
		</g>
	</g>
	<g id="XMLID_1813_">
		<g id="XMLID_1817_">
			<path id="XMLID_1818_" class="st11" d="M18.2,30.7l2.7,1.6V17.5l-2.7-1.6V30.7z M18.9,30.4V17.3l1.2,0.7v13.1L18.9,30.4z"/>
		</g>
		<polygon id="XMLID_1816_" class="st2" points="23.6,15.9 20.9,17.5 20.9,32.3 23.6,30.7 		"/>
		<polygon id="XMLID_1815_" class="st12" points="20.9,14.3 18.2,15.9 20.9,17.5 23.6,15.9 		"/>
		<polygon id="XMLID_1814_" class="st13" points="20.9,14.6 18.6,15.9 20.9,17.2 23.2,15.9 		"/>
		<polyline id="XMLID_16309_" class="st5" points="20.9,17.2 23.2,15.9 20.9,14.6 		"/>
	</g>
</g>
</svg>
