<?xml version="1.0" encoding="utf-8"?>
<!-- Generator: Adobe Illustrator 21.0.0, SVG Export Plug-In . SVG Version: 6.00 Build 0)  -->
<svg version="1.1" id="Layer_1" xmlns="http://www.w3.org/2000/svg" xmlns:xlink="http://www.w3.org/1999/xlink" x="0px" y="0px"
	 viewBox="0 0 80 80" style="enable-background:new 0 0 80 80;" xml:space="preserve">
<style type="text/css">
	.st0{fill:#FFCB24;}
	.st1{fill:#2690A8;}
	.st2{fill:#135F7A;}
	.st3{fill:#248D9B;}
	.st4{fill:#31B59B;}
	.st5{fill:#52D8BF;}
	.st6{fill:#187F87;}
	.st7{fill:#6A9599;}
	.st8{fill:#79A4AA;}
	.st9{fill:#FFAF22;}
	.st10{fill:#FFC524;}
	.st11{fill:#84AEB7;}
	.st12{opacity:0.3;}
	.st13{enable-background:new    ;}
	.st14{fill:#A6C5C9;}
	.st15{fill:#CAEDEF;}
	.st16{fill:#B5DEE2;}
	.st17{opacity:0.2;fill:#79A4AA;}
	.st18{fill:#0C4C68;}
</style>
<g>
	<polygon class="st0" points="45.1,33.4 34.2,33.6 16.3,54.6 65,56.1 	"/>
	<g>
		<g>
			<ellipse class="st1" cx="40" cy="26.4" rx="11.2" ry="8.4"/>
			<path class="st2" d="M51.2,26.4c0-2.7-1.8-5.2-4.5-6.7c-1.8-1-4-1.5-6.4-1.5c-6.2,0-8.9,3.3-9.1,8c-0.2,4.8,2.6,7.2,5.4,8.3
				c1.1,0.2,2.2,0.4,3.3,0.4C46.2,34.8,51.2,31,51.2,26.4z"/>
			<g>
				<path class="st3" d="M32.1,29.7c-4.4-2.5-4.4-6.7,0-9.2c4.4-2.5,11.5-2.5,15.9,0c4.4,2.5,4.4,6.7,0,9.2
					C43.6,32.3,36.5,32.3,32.1,29.7z"/>
				<g>
					<path class="st4" d="M48,29.7c-4.4,2.5-11.5,2.5-15.9,0c-2.2-1.3-3.3-2.9-3.3-4.6V27c0,0,0,0,0,0l0.1,0.6
						c0.2,1.5,1.3,2.7,3.2,3.8c4.4,2.5,11.6,2.8,15.9,0.3c1.9-1.1,3-2.6,3.2-4l0.1-0.6c0,0,0,0,0,0v-1.9
						C51.2,26.8,50.2,28.5,48,29.7z"/>
				</g>
				<path class="st5" d="M48,29.7c-4.4,2.5-11.5,2.5-15.9,0c-2.2-1.3-3.3-2.9-3.3-4.6v0.7c0,1.7,1.1,3.3,3.3,4.6
					c4.4,2.5,11.6,2.5,15.9,0c2.2-1.3,3.3-2.9,3.3-4.6v-0.7C51.2,26.8,50.2,28.5,48,29.7z"/>
				<g>
					<path class="st6" d="M48,20.5c4.4,2.5,4.4,6.7,0,9.2c-4.4,2.5-11.5,2.5-15.9,0"/>
				</g>
			</g>
		</g>
		<g>
			<path class="st7" d="M20.4,29.3c10.8,6.2,28.5,6.2,39.3,0c10.8-6.2,10.8-16.4,0-22.7c-10.8-6.2-28.5-6.2-39.3,0
				C9.6,12.8,9.6,23,20.4,29.3z"/>
			<path class="st8" d="M59.6,5.7c-10.8-6.2-28.5-6.2-39.3,0c-10.8,6.2-10.8,16.4,0,22.7c9.2,5.3,23.5,6.1,34.2,2.3
				c1.8-0.6,3.5-1.4,5.1-2.3C70.4,22.1,70.4,11.9,59.6,5.7z"/>
			<path class="st9" d="M59.6,51.6c-10.8-6.2-28.5-6.2-39.3,0c-10.8,6.2-10.8,16.4,0,22.7c9.2,5.3,23.5,6.1,34.2,2.3
				c1.8-0.6,3.5-1.4,5.1-2.3C70.4,68.1,70.4,57.9,59.6,51.6z"/>
			<path class="st10" d="M20.4,74.3c9.2,5.3,23.5,6.1,34.2,2.3c1.8-0.6,3.5-1.4,5.1-2.3c10.8-6.2,10.8-16.4,0-22.7"/>
			<path class="st11" d="M20.4,5.7c-10.8,6.2-10.8,16.4,0,22.7L39,12.5l20.7-6.8C48.8-0.6,31.2-0.6,20.4,5.7z"/>
			<g class="st12">
				<g class="st13">
					<g>
						<path class="st14" d="M56.4,6.3c-1.4-0.8-3.6-0.8-5,0c-1.4,0.8-1.4,2.1,0,2.9c1.4,0.8,3.6,0.8,5,0C57.8,8.4,57.8,7.1,56.4,6.3
							"/>
						<path class="st14" d="M29.2,22.2c-1.4-0.8-3.6-0.8-5,0c-1.4,0.8-1.4,2.1,0,2.9c1.4,0.8,3.6,0.8,5,0
							C30.5,24.2,30.5,22.9,29.2,22.2"/>
						<path class="st14" d="M62.1,14.2c-0.6-0.4-1.5-0.6-2.5-0.6c-1.9,0-3.5,0.9-3.5,2c0,0.6,0.4,1.1,1,1.4c0.6,0.4,1.5,0.6,2.5,0.6
							c1.9,0,3.5-0.9,3.5-2C63.2,15.1,62.8,14.6,62.1,14.2"/>
						<path class="st14" d="M23.4,14.2c-0.6-0.4-1.5-0.6-2.5-0.6c-1.9,0-3.5,0.9-3.5,2c0,0.6,0.4,1.1,1,1.4c0.6,0.4,1.5,0.6,2.5,0.6
							c1.9,0,3.5-0.9,3.5-2C24.5,15.1,24.1,14.6,23.4,14.2"/>
						<path class="st14" d="M56.5,22.2c-1.4-0.8-3.6-0.8-5,0c-1.4,0.8-1.4,2.1,0,2.9c1.4,0.8,3.6,0.8,5,0
							C57.9,24.2,57.9,22.9,56.5,22.2"/>
						<path class="st14" d="M29.1,6.3c-1.4-0.8-3.6-0.8-5,0c-1.4,0.8-1.4,2.1,0,2.9c1.4,0.8,3.6,0.8,5,0C30.4,8.4,30.4,7.1,29.1,6.3
							"/>
						<path class="st14" d="M42.8,25.4c-0.6-0.4-1.5-0.6-2.5-0.6c-1.9,0-3.5,0.9-3.5,2c0,0.6,0.4,1.1,1,1.4c0.6,0.4,1.5,0.6,2.5,0.6
							c1.9,0,3.5-0.9,3.5-2C43.9,26.3,43.5,25.8,42.8,25.4"/>
						<path class="st14" d="M42.7,3c-0.6-0.4-1.5-0.6-2.5-0.6c-1.9,0-3.5,0.9-3.5,2c0,0.6,0.4,1.1,1,1.4c0.6,0.4,1.5,0.6,2.5,0.6
							c1.9,0,3.5-0.9,3.5-2C43.8,3.9,43.4,3.4,42.7,3"/>
						<path class="st14" d="M49.3,10.5c-0.8-0.4-2-0.4-2.8,0c-0.8,0.4-0.8,1.2,0,1.6c0.8,0.4,2,0.4,2.8,0C50,11.6,50,10.9,49.3,10.5
							"/>
						<path class="st14" d="M34.1,19.3c-0.8-0.4-2-0.4-2.8,0c-0.8,0.4-0.8,1.2,0,1.6c0.8,0.4,2,0.4,2.8,0
							C34.9,20.4,34.9,19.7,34.1,19.3"/>
						<path class="st14" d="M52.5,14.9c-0.4-0.2-0.8-0.3-1.4-0.3c-1.1,0-1.9,0.5-1.9,1.1c0,0.3,0.2,0.6,0.6,0.8
							c0.4,0.2,0.8,0.3,1.4,0.3c1.1,0,2-0.5,1.9-1.1C53,15.4,52.8,15.1,52.5,14.9"/>
						<path class="st14" d="M30.9,14.9c-0.4-0.2-0.8-0.3-1.4-0.3c-1.1,0-2,0.5-1.9,1.1c0,0.3,0.2,0.6,0.6,0.8
							c0.4,0.2,0.8,0.3,1.4,0.3c1.1,0,1.9-0.5,1.9-1.1C31.5,15.4,31.3,15.1,30.9,14.9"/>
						<path class="st14" d="M49.3,19.3c-0.8-0.4-2-0.5-2.8,0c-0.8,0.4-0.7,1.2,0,1.6c0.8,0.4,2,0.4,2.8,0
							C50.1,20.4,50.1,19.7,49.3,19.3"/>
						<path class="st14" d="M34.1,10.5c-0.8-0.4-2-0.4-2.8,0c-0.8,0.4-0.7,1.2,0,1.6c0.8,0.4,2,0.4,2.8,0
							C34.8,11.6,34.8,10.9,34.1,10.5"/>
						<path class="st14" d="M41.7,21.1c-0.4-0.2-0.8-0.3-1.4-0.3c-1.1,0-2,0.5-1.9,1.1c0,0.3,0.2,0.6,0.6,0.8
							c0.4,0.2,0.8,0.3,1.4,0.3c1.1,0,1.9-0.5,1.9-1.1C42.3,21.6,42.1,21.3,41.7,21.1"/>
						<path class="st14" d="M41.7,8.6c-0.4-0.2-0.8-0.3-1.4-0.3c-1.1,0-2,0.5-1.9,1.1c0,0.3,0.2,0.6,0.6,0.8
							c0.4,0.2,0.8,0.3,1.4,0.3c1.1,0,2-0.5,1.9-1.1C42.2,9.1,42,8.8,41.7,8.6"/>
					</g>
				</g>
			</g>
		</g>
		<g>
			<g>
				<path class="st15" d="M52.5,13.3v0.1C52.5,13.4,52.5,13.4,52.5,13.3v-0.5h0c0-0.1,0-0.2,0-0.2c0-5.2-5.6-9.3-12.5-9.3
					c-0.2,0-0.4,0-0.6,0c-0.1,0-0.1,0-0.2,0c-0.1,0-0.3,0-0.4,0c-0.1,0-0.1,0-0.2,0c-0.2,0-0.4,0-0.6,0.1c0,0,0,0,0,0
					c-0.2,0-0.3,0-0.5,0.1c-0.1,0-0.1,0-0.2,0c-0.1,0-0.3,0-0.4,0.1c-0.1,0-0.1,0-0.2,0c-0.2,0-0.3,0.1-0.5,0.1
					c-5.1,1.2-8.8,4.7-8.8,8.9c0,0.1,0,0.2,0,0.2h0v0.6c0,0,0,0,0,0v-0.1c0,1.9,1.2,3.7,3.6,5.1c4.9,2.8,12.8,2.8,17.6,0
					C51.2,17,52.5,15.2,52.5,13.3z"/>
				<path class="st16" d="M40,3.2c-0.2,0-0.4,0-0.6,0c-0.1,0-0.1,0-0.2,0c-0.1,0-0.3,0-0.4,0c-0.1,0-0.1,0-0.2,0c0,0-0.1,0-0.1,0
					c-4.6,1.8-7.9,8.5-7.9,12.5c0,0.1,0,0.2,0,0.2h0v0.5c0,0.6,0.1,1.2,0.4,1.8c0.1,0,0.1,0.1,0.2,0.1c4.9,2.8,12.8,2.8,17.6,0
					c2.4-1.4,3.7-3.3,3.7-5.1v-0.5h0c0-0.1,0-0.2,0-0.2C52.5,7.4,46.9,3.2,40,3.2z"/>
				<path class="st17" d="M48.9,7.1C44,4.3,36,4.3,31.1,7.1c-4.9,2.8-4.9,7.4,0,10.2c4.2,2.4,10.6,2.8,15.4,1c0.8-0.3,1.6-0.6,2.3-1
					C53.7,14.5,53.7,9.9,48.9,7.1z"/>
			</g>
			<g>
				<path class="st2" d="M48.9,17.3c-4.8,2.8-12.8,2.8-17.6,0c-2.4-1.4-3.6-3.2-3.7-5.1v2.1c0,0,0,0,0,0l0.1,0.6
					c0.3,1.6,1.4,3,3.6,4.2c4.9,2.8,12.8,3.1,17.6,0.3c2.1-1.2,3.3-2.8,3.5-4.5l0.1-0.6c0,0,0,0,0,0v-2.1
					C52.5,14.1,51.3,15.9,48.9,17.3z"/>
			</g>
			<path class="st18" d="M48.9,18.9c-4.8,2.8-12.8,2.5-17.6-0.3c-2.2-1.2-3.3-2.6-3.6-4.2l-0.1-0.6v0.5c0,0,0,0,0,0l0.1,0.6
				c0.3,1.6,1.4,3,3.6,4.2c4.9,2.8,12.8,3.1,17.6,0.3c2.1-1.2,3.3-2.8,3.5-4.5l0.1-0.6c0,0,0,0,0,0v-0.5l-0.1,0.6
				C52.1,16,51,17.6,48.9,18.9z"/>
		</g>
	</g>
</g>
</svg>
