<?xml version="1.0" encoding="utf-8"?>
<!-- Generator: Adobe Illustrator 21.0.0, SVG Export Plug-In . SVG Version: 6.00 Build 0)  -->
<svg version="1.1" id="Layer_1" xmlns="http://www.w3.org/2000/svg" xmlns:xlink="http://www.w3.org/1999/xlink" x="0px" y="0px"
	 viewBox="0 0 80 80" style="enable-background:new 0 0 80 80;" xml:space="preserve">
<style type="text/css">
	.st0{fill:#0B3A60;}
	.st1{fill:#0D2C49;}
	.st2{fill:#084F77;}
	.st3{fill:#FF8500;}
	.st4{fill:#8CADB5;}
	.st5{fill:#7C949B;}
	.st6{fill:#80ADB2;}
	.st7{fill:#99C2C4;}
	.st8{fill:#6F9193;}
	.st9{fill:#F96992;}
	.st10{fill:#E8587B;}
	.st11{fill:#C2CCB0;}
	.st12{fill:#B9C1A7;}
	.st13{fill:#B1B79E;}
	.st14{fill:#B23B5E;}
	.st15{fill:#A01C48;}
	.st16{fill:#CE3863;}
</style>
<path class="st0" d="M32.5,0L32.5,0C32.5,0,32.5,0,32.5,0z"/>
<g>
	<polygon class="st1" points="15.5,28.9 15.5,31.9 24.5,37 24.5,34.1 	"/>
	<polygon class="st2" points="18.1,27.4 15.5,28.9 24.5,34.1 27.1,32.6 	"/>
	<g>
		<polyline class="st3" points="27.1,32.6 24.5,34.1 24.5,37 27.1,35.5 		"/>
	</g>
</g>
<g>
	<polygon class="st1" points="27.9,21.8 27.9,24.7 36.9,29.9 36.9,26.9 	"/>
	<polygon class="st2" points="30.5,20.3 27.9,21.8 36.9,27 39.5,25.5 	"/>
	<g>
		<polyline class="st3" points="39.5,25.5 36.9,27 36.9,29.9 39.5,28.4 		"/>
	</g>
</g>
<g>
	<polygon class="st4" points="23.7,46.1 22.5,46.8 22.5,66.8 23.7,66.1 	"/>
	<polygon class="st5" points="21.3,46.1 22.5,46.8 22.5,66.8 21.3,66.1 	"/>
</g>
<g>
	<g>
		<g>
			<path class="st2" d="M57.7,68.3c-2.8-1.6-5.1-5.6-5.1-8.9c0-3.3,2.3-4.6,5.1-3c2.8,1.6,5.1,5.6,5.1,8.9
				C62.8,68.6,60.5,70,57.7,68.3z"/>
			<polygon class="st2" points="57.4,70.9 61.2,68.8 61.2,61.3 57.4,59.1 			"/>
			<polygon class="st2" points="54.1,56.1 50.3,58.3 50.3,65.9 54.1,68.2 			"/>
		</g>
		<path class="st1" d="M53.9,70.5c-2.8-1.6-5.1-5.6-5.1-8.9c0-3.3,2.3-4.6,5.1-3c2.8,1.6,5.1,5.6,5.1,8.9
			C59,70.8,56.7,72.2,53.9,70.5z"/>
		<path class="st0" d="M53.9,58.6c2.8,1.6,5.1,5.6,5.1,8.9c0,3.3-2.3,4.6-5.1,3"/>
	</g>
	<g>
		<path class="st6" d="M53.9,68c-1.6-0.9-3-3.3-3-5.1c0-1.9,1.3-2.7,2.9-1.7c1.6,0.9,3,3.3,3,5.1C56.9,68.2,55.5,69,53.9,68z"/>
		<path class="st7" d="M56.9,66.3c0,1.9-1.3,2.7-2.9,1.7c-1.6-0.9-3-3.3-3-5.1"/>
		<path class="st8" d="M53.9,61.2c1.6,0.9,3,3.3,3,5.1c0,1.9-1.3,2.7-2.9,1.7"/>
	</g>
</g>
<g>
	<polygon class="st9" points="21.3,32 48.7,48 48.7,72.1 21.3,56.2 	"/>
	<polyline class="st10" points="21.3,32 48.7,48 48.7,72.1 	"/>
	<g>
		<polygon class="st11" points="37,23 21.3,32 48.7,48 64.5,38.8 		"/>
	</g>
	<g>
		<polyline class="st12" points="21.3,32 48.7,48 64.5,38.8 		"/>
	</g>
	<polygon class="st13" points="48.7,48 48.8,47.9 48.8,37.1 37,37.1 37,41.1 	"/>
	<polygon class="st14" points="64.5,38.8 48.7,48 48.7,72.1 64.5,63 	"/>
	<polyline class="st15" points="64.5,38.8 48.7,48 48.7,72.1 	"/>
	<polygon class="st10" points="48.7,67.3 64.5,58.2 64.5,57 48.7,66.1 	"/>
	<polygon class="st10" points="48.7,62.2 64.5,53.1 64.5,51.9 48.7,61 	"/>
	<polygon class="st10" points="48.7,57 64.5,47.9 64.5,46.7 48.7,55.8 	"/>
	<polygon class="st10" points="48.7,51.9 64.5,42.8 64.5,41.6 48.7,50.7 	"/>
</g>
<g>
	<path class="st15" d="M47.3,43.4c1.2,0.7,3.2,0.7,4.4,0c1.2-0.7,1.2-1.8,0-2.5c-1.2-0.7-3.2-0.7-4.4,0
		C46.1,41.6,46.1,42.7,47.3,43.4z"/>
	<rect x="46.4" y="40.3" class="st15" width="6.2" height="1.9"/>
	<path class="st10" d="M51.1,41.7c0.2-0.1,0.4-0.2,0.6-0.3c1.2-0.7,1.2-1.8,0-2.5c-1.2-0.7-3.2-0.7-4.4,0c-1.2,0.7-1.2,1.8,0,2.5
		C48.4,42,49.9,42.1,51.1,41.7"/>
</g>
<g>
	<path class="st14" d="M47.7,31.3H35.8v3.5c0,0,0,0,0,0V35h0c0,0.8,0.6,1.7,1.7,2.3c2.3,1.3,6.1,1.3,8.4,0c1.1-0.6,1.7-1.5,1.7-2.3
		h0V31.3z"/>
	<path class="st15" d="M47.7,33.5H37.6V37c0,0,0,0,0,0v0.1h0c0,0,0,0.1,0,0.1c2.3,1.3,6.1,1.3,8.4,0c1.1-0.6,1.7-1.5,1.7-2.3h0V33.5
		z"/>
	<path class="st9" d="M46,28.7c-2.3-1.3-6.1-1.3-8.4,0c-2.3,1.3-2.3,3.5,0,4.9c2,1.1,5,1.3,7.3,0.5c0.4-0.1,0.8-0.3,1.1-0.5
		C48.3,32.2,48.3,30,46,28.7z"/>
	<path class="st10" d="M37.6,33.5c2,1.1,5,1.3,7.3,0.5c0.4-0.1,0.8-0.3,1.1-0.5c2.3-1.3,2.3-3.5,0-4.9"/>
</g>
<g>
	<path class="st15" d="M53.5,39.8c1.2,0.7,3.2,0.7,4.4,0c1.2-0.7,1.2-1.8,0-2.5c-1.2-0.7-3.2-0.7-4.4,0C52.3,38,52.3,39.2,53.5,39.8
		z"/>
	<rect x="52.6" y="36.7" class="st15" width="6.2" height="1.9"/>
	<path class="st10" d="M57.3,38.1c0.2-0.1,0.4-0.2,0.6-0.3c1.2-0.7,1.2-1.8,0-2.5c-1.2-0.7-3.2-0.7-4.4,0c-1.2,0.7-1.2,1.8,0,2.5
		C54.5,38.5,56.1,38.6,57.3,38.1"/>
</g>
<g>
	<g>
		<g>
			<path class="st2" d="M42.4,77.2c-2.8-1.6-5.1-5.6-5.1-8.9c0-3.3,2.3-4.6,5.1-3c2.8,1.6,5.1,5.6,5.1,8.9
				C47.5,77.5,45.2,78.8,42.4,77.2z"/>
			<polygon class="st2" points="42.1,79.8 45.8,77.6 45.8,70.1 42.1,67.9 			"/>
			<polygon class="st2" points="38.8,64.9 34.9,67.1 34.9,74.7 38.8,77 			"/>
		</g>
		<path class="st1" d="M38.5,79.3c-2.8-1.6-5.1-5.6-5.1-8.9c0-3.3,2.3-4.6,5.1-3c2.8,1.6,5.1,5.6,5.1,8.9
			C43.6,79.6,41.4,81,38.5,79.3z"/>
		<path class="st0" d="M38.5,67.5c2.8,1.6,5.1,5.6,5.1,8.9c0,3.3-2.3,4.6-5.1,3"/>
	</g>
	<g>
		<path class="st6" d="M38.5,76.8c-1.6-0.9-3-3.3-3-5.1c0-1.9,1.3-2.7,2.9-1.7c1.6,0.9,3,3.3,3,5.1C41.5,77,40.2,77.8,38.5,76.8z"/>
		<path class="st7" d="M41.5,75.1c0,1.9-1.3,2.7-2.9,1.7c-1.6-0.9-3-3.3-3-5.1"/>
		<path class="st8" d="M38.5,70c1.6,0.9,3,3.3,3,5.1c0,1.9-1.3,2.7-2.9,1.7"/>
	</g>
</g>
<g>
	<polygon class="st4" points="37.8,10.9 37,11.3 37,23.9 37.8,23.4 	"/>
	<polygon class="st5" points="36.3,10.9 37,11.3 37,23.9 36.3,23.4 	"/>
</g>
<polygon class="st10" points="37.2,18.9 30.9,15.3 37.2,0.4 "/>
<polygon class="st15" points="37.2,18.9 43.4,15.3 37.2,0.4 "/>
<polygon class="st14" points="37.2,16.7 37.2,0.4 31.6,13.5 "/>
<polygon class="st16" points="37.2,16.7 42.7,13.5 37.2,0.4 "/>
<polygon class="st10" points="37.2,14.3 37.2,0.4 32.5,11.6 "/>
<polygon class="st15" points="37.2,14.3 41.8,11.6 37.2,0.4 "/>
<polygon class="st14" points="37.2,11.8 37.2,0.4 33.3,9.6 "/>
<polygon class="st16" points="37.2,11.8 41,9.6 37.2,0.4 "/>
<polygon class="st10" points="37.2,9.4 37.2,0.4 34.1,7.6 "/>
<polygon class="st15" points="37.2,9.4 40.2,7.6 37.2,0.4 "/>
<polygon class="st14" points="37.2,7 37.2,0.4 34.9,5.7 "/>
<polygon class="st16" points="37.2,7 39.4,5.7 37.2,0.4 "/>
<polygon class="st10" points="37.2,4.5 37.2,0.4 35.8,3.7 "/>
<polygon class="st15" points="37.2,4.5 38.5,3.7 37.2,0.4 "/>
</svg>
