<?xml version="1.0" encoding="utf-8"?>
<!-- Generator: Adobe Illustrator 21.0.0, SVG Export Plug-In . SVG Version: 6.00 Build 0)  -->
<svg version="1.1" id="Layer_1" xmlns="http://www.w3.org/2000/svg" xmlns:xlink="http://www.w3.org/1999/xlink" x="0px" y="0px"
	 viewBox="0 0 80 80" style="enable-background:new 0 0 80 80;" xml:space="preserve">
<style type="text/css">
	.st0{fill:#729AA0;}
	.st1{fill:#60888C;}
	.st2{fill:#A3CCD3;}
	.st3{fill:#14CEED;}
	.st4{fill:#15B8EA;}
	.st5{fill:#0EA7DD;}
	.st6{fill:#0F97DB;}
	.st7{fill:#5C6A6D;}
	.st8{fill:#424B4C;}
	.st9{fill:#333C3D;}
	.st10{fill:#212828;}
	.st11{fill:#6E7F82;}
	.st12{fill:#495456;}
	.st13{fill:#202828;}
	.st14{fill:#0F0402;}
	.st15{fill:#1A7EE2;}
	.st16{fill:#1C9DF4;}
	.st17{fill:#0658BA;}
	.st18{fill:#43D3FF;}
	.st19{fill:#444738;}
	.st20{fill:#A2CE02;}
	.st21{fill:#0B66D3;}
	.st22{fill:#C49427;}
	.st23{fill:#31B5FF;}
	.st24{fill:#19B8F7;}
	.st25{fill:#71F8FF;}
	.st26{fill:#0691CE;}
</style>
<g>
	<g>
		<g>
			<path class="st0" d="M74.7,49.1c-1.8-2.5-4.5-4.8-8-6.8c-14.7-8.5-38.8-8.5-53.5,0c-3.5,2-6.2,4.3-8,6.8h-3v8c0,0.4,0,0.8,0,1.1
				v0.2h0c0.3,5.3,4,10.6,11,14.7c14.7,8.5,38.7,8.5,53.5,0c7-4.1,10.7-9.4,11-14.7h0v-9.3H74.7z"/>
			<line class="st0" x1="2.3" y1="58.3" x2="2.3" y2="58.4"/>
			<path class="st1" d="M5.3,49.1"/>
			<path class="st1" d="M66.7,73.1c7-4.1,10.7-9.4,11-14.7h0v-9.3h-3c-1.8-2.5-4.5-4.8-8-6.8"/>
			<path class="st2" d="M59.8,68.4c2.5-0.9,4.8-1.9,6.9-3.2c14.7-8.5,14.7-22.4,0-30.9c-14.7-8.5-38.8-8.5-53.5,0
				c-14.7,8.5-14.7,22.4,0,30.9C25.8,72.5,45.2,73.5,59.8,68.4"/>
			<path class="st0" d="M63.5,35.8c-13-7.5-34.1-7.5-47,0c-13,7.5-13,19.7,0,27.2c11.1,6.4,28.1,7.3,40.9,2.8
				c2.2-0.8,4.2-1.7,6.1-2.8C76.5,55.4,76.5,43.2,63.5,35.8z"/>
			<path class="st1" d="M57.4,65.7c2.2-0.8,4.2-1.7,6.1-2.8c12.9-7.5,12.9-19.7,0-27.2c-13-7.5-34.1-7.5-47,0"/>
			<path class="st3" d="M63.5,38.8c-13-7.5-34.1-7.5-47,0c-5.8,3.3-9,7.6-9.6,12c0.6,4.4,3.8,8.7,9.6,12c11.1,6.4,28.1,7.3,40.9,2.8
				c2.2-0.8,4.2-1.7,6.1-2.8c5.8-3.3,9-7.6,9.6-12C72.5,46.5,69.3,42.2,63.5,38.8z"/>
			<path class="st4" d="M63.5,41.7c-13-7.5-34.1-7.5-47,0c-5.2,3-8.3,6.7-9.3,10.6c1,3.9,4.1,7.6,9.3,10.6
				c11.1,6.4,28.1,7.3,40.9,2.8c2.2-0.8,4.2-1.7,6.1-2.8c5.2-3,8.2-6.7,9.3-10.6C71.8,48.4,68.7,44.7,63.5,41.7z"/>
			<path class="st4" d="M57.4,65.7c2.2-0.8,4.2-1.7,6.1-2.8c5.8-3.3,9-7.6,9.6-12c-0.6-4.4-3.8-8.7-9.6-12c-13-7.5-34.1-7.5-47,0"/>
			<path class="st5" d="M64.9,62.1c0.2-0.1,0.4-0.3,0.6-0.4c0.1-0.1,0.2-0.2,0.4-0.3c0.2-0.1,0.3-0.3,0.5-0.4
				c0.1-0.1,0.3-0.2,0.4-0.3c0.2-0.1,0.3-0.2,0.5-0.4c0.1-0.1,0.3-0.2,0.4-0.3c0.1-0.1,0.3-0.2,0.4-0.3c0.1-0.1,0.3-0.2,0.4-0.3
				c0.1-0.1,0.2-0.2,0.3-0.3c0.1-0.1,0.3-0.2,0.4-0.4c0.1-0.1,0.2-0.2,0.3-0.3c0.1-0.1,0.3-0.3,0.4-0.4c0,0,0.1-0.1,0.1-0.1
				c0.5-0.6,1-1.2,1.4-1.9c0,0,0-0.1,0.1-0.1c0.1-0.2,0.2-0.4,0.3-0.6c0,0,0.1-0.1,0.1-0.1c0.1-0.2,0.2-0.4,0.3-0.6
				c0,0,0-0.1,0.1-0.1c0.1-0.2,0.2-0.4,0.3-0.6c0,0,0-0.1,0.1-0.1c0.1-0.2,0.2-0.4,0.2-0.6c0,0,0-0.1,0-0.1c0.1-0.2,0.1-0.4,0.2-0.7
				c0,0,0,0,0,0c-1-3.9-4.1-7.6-9.3-10.6c-12.2-7-31.6-7.4-44.6-1.3l38.5,25.3c2.2-0.8,4.2-1.7,6.1-2.8c0.3-0.2,0.7-0.4,1-0.6
				C64.6,62.2,64.7,62.2,64.9,62.1z"/>
		</g>
		<path class="st6" d="M60.5,48.3c-0.2-2.9-2.1-5.8-6-8c-8-4.6-21.1-4.6-29.1,0c-3.8,2.2-5.8,5.1-6,8h0v0.1c0,0.2,0,0.4,0,0.6v3.7
			c0,0.2,0,0.4,0,0.6v0.1h0c0.2,2.9,2.2,5.8,6,8c8,4.6,21.1,4.6,29.1,0c3.8-2.2,5.8-5.1,6-8h0L60.5,48.3L60.5,48.3z"/>
		<g>
			<g>
				<path class="st7" d="M45,24.8H35v9.2c0,0,0,0,0,0v16h0c0.1,0.7,0.5,1.4,1.5,1.9c1.9,1.1,5.1,1.1,7.1,0c0.9-0.5,1.4-1.2,1.5-1.9
					h0V24.8z"/>
				<path class="st8" d="M35.5,50.5C35.5,50.5,35.5,50.5,35.5,50.5v0.2h0c0,0.1,0,0.3,0.1,0.4c0.2,0.3,0.5,0.5,0.9,0.7
					c1.9,1.1,5.1,1.1,7.1,0c0.9-0.5,1.4-1.2,1.5-1.9h0V24.8h-9.5V50.5z"/>
				<path class="st9" d="M36.1,51.1C36.1,51.2,36.1,51.2,36.1,51.1v0.3h0c0,0.1,0,0.1,0,0.2c0.1,0.1,0.2,0.2,0.4,0.2
					c1.9,1.1,5.1,1.1,7.1,0c0.9-0.5,1.4-1.2,1.5-1.9h0V24.8h-8.9V51.1z"/>
				<path class="st10" d="M39.9,52.1C39.9,52.1,39.9,52.1,39.9,52.1v0.3h0c0,0.1,0,0.2,0,0.2c0,0,0,0,0,0c1.3,0,2.6-0.3,3.6-0.8
					c0.9-0.5,1.4-1.2,1.5-1.9h0V24.8h-5.1V52.1z"/>
				<g>
					<path class="st11" d="M43.5,33.3c-2,1.1-5.1,1.1-7.1,0c-0.9-0.5-1.4-1.2-1.5-1.9h0v2.5c0,0,0,0,0,0v16h0
						c0.1,0.7,0.5,1.4,1.5,1.9c1.9,1.1,5.1,1.1,7.1,0c0.9-0.5,1.4-1.2,1.5-1.9h0V31.4h0C44.9,32.1,44.5,32.8,43.5,33.3z"/>
				</g>
				<path class="st6" d="M43.5,59.8c-2,1.1-5.1,1.1-7.1,0c-0.9-0.5-1.4-1.2-1.5-1.9h0v2.5c0,0,0,0,0,0v7.9c3.3,0.3,6.7,0.3,10,0
					V57.9h0C44.9,58.6,44.5,59.3,43.5,59.8z"/>
				<g>
					<path class="st7" d="M43.5,33.3c-2,1.1-5.1,1.1-7.1,0c-0.1-0.1-0.3-0.2-0.4-0.3v18.1c0,0,0,0,0,0.1v0.2h0c0,0.1,0,0.1,0,0.2h0
						c0.1,0,0.1,0.1,0.2,0.1c0,0,0,0,0,0c0.1,0,0.1,0.1,0.2,0.1c1.9,1.1,5.1,1.1,7.1,0c0.9-0.5,1.4-1.2,1.5-1.9h0V31.4h0
						C44.9,32.1,44.5,32.8,43.5,33.3z"/>
					<path class="st12" d="M39.9,52.1C39.9,52.1,39.9,52.1,39.9,52.1v0.3h0c0,0.1,0,0.2,0,0.2c0,0,0,0,0,0l0,0c0.5,0,1,0,1.4-0.1h0
						c0.1,0,0.3-0.1,0.4-0.1c0,0,0,0,0,0c0.1,0,0.3-0.1,0.4-0.1c0,0,0,0,0.1,0c0.1,0,0.2-0.1,0.3-0.1c0,0,0.1,0,0.1,0
						c0.1,0,0.2-0.1,0.3-0.1c0,0,0.1,0,0.1,0c0.1-0.1,0.3-0.1,0.4-0.2c0.9-0.5,1.4-1.2,1.5-1.9h0V31.4h0c-0.1,0.7-0.5,1.4-1.5,1.9"
						/>
				</g>
				<path class="st13" d="M42.6,27c0.3-0.1,0.6-0.3,0.9-0.4c1.9-1.1,1.9-3,0-4.1c-2-1.1-5.1-1.1-7.1,0c-2,1.1-2,3,0,4.1
					C38.1,27.6,40.7,27.7,42.6,27"/>
				<path class="st14" d="M43,23.9"/>
			</g>
		</g>
		<g>
			<path class="st0" d="M58.9,23.3c-1-1.4-2.4-2.6-4.3-3.7c-8-4.6-21.1-4.6-29.1,0c-1.9,1.1-3.4,2.4-4.4,3.7h-1.6v4.4
				c0,0.2,0,0.4,0,0.6v0.1h0c0.2,2.9,2.2,5.8,6,8c8,4.6,21.1,4.6,29.1,0c3.8-2.2,5.8-5.1,6-8h0v-5.1H58.9z"/>
			<line class="st0" x1="19.5" y1="28.2" x2="19.5" y2="28.3"/>
			<path class="st1" d="M21.1,23.3"/>
			<path class="st1" d="M54.5,36.3c3.8-2.2,5.8-5.1,6-8h0v-5.1h-1.7c-1-1.4-2.4-2.6-4.3-3.7"/>
			<path class="st2" d="M50.8,33.7c1.3-0.5,2.6-1,3.8-1.7c8-4.6,8-12.2,0-16.8c-8-4.6-21.1-4.6-29.1,0c-8,4.6-8,12.2,0,16.8
				C32.3,36,42.9,36.5,50.8,33.7"/>
			<path class="st0" d="M52.8,16c-7-4.1-18.5-4.1-25.6,0c-7,4.1-7,10.7,0,14.8c6,3.5,15.3,4,22.3,1.5c1.2-0.4,2.3-0.9,3.3-1.5
				C59.8,26.7,59.8,20.1,52.8,16z"/>
			<path class="st1" d="M49.5,32.3c1.2-0.4,2.3-0.9,3.3-1.5c7-4.1,7-10.7,0-14.8c-7-4.1-18.5-4.1-25.6,0"/>
			<path class="st3" d="M52.8,17.7c-7-4.1-18.5-4.1-25.6,0c-3.2,1.8-4.9,4.2-5.2,6.6c0.3,2.4,2.1,4.7,5.2,6.6c6,3.5,15.3,4,22.3,1.5
				c1.2-0.4,2.3-0.9,3.3-1.5c3.2-1.8,4.9-4.2,5.2-6.6C57.7,21.8,55.9,19.5,52.8,17.7z"/>
			<path class="st4" d="M52.8,19.2c-7-4.1-18.5-4.1-25.6,0c-2.8,1.6-4.5,3.7-5.1,5.8c0.6,2.1,2.2,4.1,5.1,5.8c6,3.5,15.3,4,22.3,1.5
				c1.2-0.4,2.3-0.9,3.3-1.5c2.8-1.6,4.5-3.7,5.1-5.8C57.3,22.9,55.6,20.8,52.8,19.2z"/>
			<path class="st4" d="M49.5,32.3c1.2-0.4,2.3-0.9,3.3-1.5c3.2-1.8,4.9-4.2,5.2-6.6c-0.3-2.4-2.1-4.7-5.2-6.6
				c-7-4.1-18.5-4.1-25.6,0"/>
			<path class="st5" d="M53.5,30.3c0.1-0.1,0.2-0.1,0.3-0.2c0.1,0,0.1-0.1,0.2-0.1c0.1-0.1,0.2-0.1,0.3-0.2c0.1-0.1,0.1-0.1,0.2-0.2
				c0.1-0.1,0.2-0.1,0.2-0.2c0.1-0.1,0.1-0.1,0.2-0.2c0.1-0.1,0.1-0.1,0.2-0.2c0.1-0.1,0.1-0.1,0.2-0.2c0.1-0.1,0.1-0.1,0.2-0.2
				c0.1-0.1,0.1-0.1,0.2-0.2c0.1-0.1,0.1-0.1,0.1-0.2c0.1-0.1,0.1-0.2,0.2-0.2c0,0,0-0.1,0.1-0.1c0.3-0.3,0.5-0.7,0.7-1c0,0,0,0,0,0
				c0.1-0.1,0.1-0.2,0.2-0.3c0,0,0-0.1,0-0.1c0.1-0.1,0.1-0.2,0.2-0.3c0,0,0-0.1,0-0.1c0.1-0.1,0.1-0.2,0.1-0.3c0,0,0,0,0-0.1
				c0-0.1,0.1-0.2,0.1-0.3c0,0,0,0,0-0.1c0-0.1,0.1-0.2,0.1-0.4c0,0,0,0,0,0c-0.6-2.1-2.2-4.1-5.1-5.8c-6.6-3.8-17.2-4-24.3-0.7
				l20.9,13.7c1.2-0.4,2.3-0.9,3.3-1.5c0.2-0.1,0.4-0.2,0.5-0.3C53.4,30.4,53.5,30.4,53.5,30.3z"/>
		</g>
		<g>
			<g>
				<g>
					<g>
						<polygon class="st15" points="38.4,23.3 40,24.2 40,28 38.4,27 						"/>
						<polygon class="st16" points="41.6,23.3 40,24.2 40,28 41.6,27 						"/>
						<polygon class="st17" points="38.4,23.3 38.4,26.3 40,27.3 40,25.4 40,25.4 40,24.2 						"/>
						<polygon class="st18" points="40,25.4 40,25.4 40,27.3 41.6,26.3 41.6,23.3 40,24.2 						"/>
						<g>
							<path class="st6" d="M40,33.8v-6.2l-1.6-0.9v7.1C38.9,33.8,39.4,33.8,40,33.8z"/>
							<path class="st6" d="M40,33.8c0.5,0,1.1,0,1.6,0v-7.1L40,27.6V33.8z"/>
						</g>
					</g>
				</g>
				<g>
					<g>
						<polyline class="st19" points="35.2,20.2 35.2,18.4 40,21.1 						"/>
						<path class="st20" d="M40,21.1"/>
					</g>
					<g>
						<polygon class="st15" points="35.2,18.4 35.2,20.2 35.2,22.1 40,24.9 40,23 40,23 40,21.1 						"/>
						<polyline class="st21" points="40,24.9 40,23 40,23 40,21.1 35.2,18.4 						"/>
						<path class="st22" d="M40,23"/>
						<polygon class="st23" points="40,21.1 40,23 40,23 40,24.9 44.8,22.1 44.8,20.2 44.8,18.4 						"/>
						<polyline class="st16" points="44.8,20.2 44.8,18.4 40,21.1 40,23 40,23 40,24.9 						"/>
					</g>
					<g>
						<path class="st22" d="M40,24.9"/>
					</g>
					<polygon class="st24" points="35.2,18.4 40,21.1 41.9,20 44.8,18.4 40,15.6 					"/>
				</g>
			</g>
			<g>
				<g>
					<g>
						<polygon class="st15" points="37.5,12.3 40,13.8 40,19.6 37.5,18.2 						"/>
						<polygon class="st16" points="42.5,12.3 40,13.8 40,19.6 42.5,18.2 						"/>
						<polygon class="st17" points="37.5,12.3 37.5,17.1 40,18.6 40,15.7 40,15.7 40,13.8 						"/>
						<polygon class="st18" points="40,15.7 40,15.7 40,18.6 42.5,17.1 42.5,12.3 40,13.8 						"/>
					</g>
				</g>
				<g>
					<g>
						<polyline class="st19" points="32.6,7.7 32.6,4.8 40,9.1 						"/>
						<path class="st20" d="M40,9.1"/>
					</g>
					<g>
						<polygon class="st15" points="32.6,4.8 32.6,7.7 32.6,10.5 40,14.8 40,12 40,12 40,9.1 						"/>
						<polyline class="st21" points="40,14.8 40,12 40,12 40,9.1 32.6,4.8 						"/>
						<path class="st22" d="M40,12"/>
						<polygon class="st23" points="40,9.1 40,12 40,12 40,14.8 47.4,10.5 47.4,7.7 47.4,4.8 						"/>
						<polyline class="st16" points="47.4,7.7 47.4,4.8 40,9.1 40,12 40,12 40,14.8 						"/>
					</g>
					<g>
						<path class="st22" d="M40,14.8"/>
					</g>
					<polygon class="st24" points="32.6,4.8 40,9.1 43,7.4 47.4,4.8 40,0.5 					"/>
				</g>
			</g>
		</g>
	</g>
	<g>
		<g>
			<path class="st25" d="M29.4,48.9c0.4,0,0.8,0.1,1.2,0.3c0.3,0.2,0.5,0.5,0.5,0.8c0,0.3-0.2,0.6-0.5,0.8c-0.1,0-0.2,0-0.2-0.1
				c0-0.1,0-0.2,0.1-0.2c0.2-0.1,0.4-0.3,0.4-0.5c0-0.2-0.1-0.3-0.4-0.5c-0.5-0.3-1.5-0.3-2,0c-0.2,0.1-0.4,0.3-0.4,0.5
				c0,0.2,0.1,0.3,0.4,0.5c0.1,0,0.1,0.2,0.1,0.2c0,0.1-0.2,0.1-0.2,0.1c-0.3-0.2-0.5-0.5-0.5-0.8c0-0.3,0.2-0.6,0.5-0.8
				C28.6,49,29,48.9,29.4,48.9z"/>
		</g>
		<g>
			<path class="st25" d="M28.9,49.6C29,49.6,29,49.6,28.9,49.6c0.1,0.1,0.1,0.1,0,0.1c-0.1,0.1-0.2,0.1-0.2,0.2
				c0,0.1,0.1,0.2,0.2,0.2c0.2,0.1,0.6,0.1,0.9,0C30,50.1,30,50,30,49.9c0-0.1-0.1-0.2-0.2-0.2c0,0-0.1-0.1,0-0.1c0,0,0.1,0,0.1,0
				c0.2,0.1,0.2,0.2,0.2,0.3c0,0.1-0.1,0.3-0.2,0.3c-0.3,0.2-0.8,0.2-1,0c-0.2-0.1-0.2-0.2-0.2-0.3C28.7,49.8,28.8,49.7,28.9,49.6
				C28.9,49.6,28.9,49.6,28.9,49.6z"/>
		</g>
	</g>
	<g>
		<g>
			<path class="st25" d="M47.4,25c0.4,0,0.8,0.1,1.2,0.3c0.3,0.2,0.5,0.5,0.5,0.8c0,0.3-0.2,0.6-0.5,0.8c-0.1,0-0.2,0-0.2-0.1
				c0-0.1,0-0.2,0.1-0.2c0.2-0.1,0.4-0.3,0.4-0.5c0-0.2-0.1-0.3-0.4-0.5c-0.5-0.3-1.5-0.3-2,0c-0.2,0.1-0.4,0.3-0.4,0.5
				c0,0.2,0.1,0.3,0.4,0.5c0.1,0,0.1,0.2,0.1,0.2c0,0.1-0.2,0.1-0.2,0.1c-0.3-0.2-0.5-0.5-0.5-0.8c0-0.3,0.2-0.6,0.5-0.8
				C46.6,25.1,47,25,47.4,25z"/>
		</g>
		<g>
			<path class="st25" d="M47,25.7C47,25.7,47,25.7,47,25.7c0.1,0.1,0.1,0.1,0,0.1c-0.1,0.1-0.2,0.1-0.2,0.2c0,0.1,0.1,0.2,0.2,0.2
				c0.2,0.1,0.6,0.1,0.9,0c0.1-0.1,0.2-0.1,0.2-0.2c0-0.1-0.1-0.2-0.2-0.2c0,0-0.1-0.1,0-0.1c0,0,0.1,0,0.1,0
				c0.2,0.1,0.2,0.2,0.2,0.3c0,0.1-0.1,0.3-0.2,0.3c-0.3,0.2-0.8,0.2-1,0c-0.2-0.1-0.2-0.2-0.2-0.3C46.7,25.9,46.8,25.8,47,25.7
				C46.9,25.7,46.9,25.7,47,25.7z"/>
		</g>
	</g>
	<g>
		<g>
			<path class="st26" d="M18.1,44.4c1,0,2,0.2,2.7,0.6c0.8,0.5,1.2,1.1,1.2,1.8c0,0.7-0.4,1.4-1.3,1.8c-0.2,0.1-0.4,0-0.6-0.1
				c-0.1-0.2,0-0.4,0.2-0.6c0.5-0.3,0.8-0.7,0.8-1.1c0-0.4-0.3-0.8-0.8-1.1c-1.3-0.7-3.4-0.7-4.7,0c-0.5,0.3-0.8,0.7-0.8,1.1
				c0,0.4,0.3,0.8,0.8,1.1c0.2,0.1,0.3,0.4,0.2,0.6c-0.1,0.2-0.4,0.3-0.6,0.1c-0.8-0.5-1.2-1.1-1.2-1.8c0-0.7,0.4-1.3,1.3-1.8
				C16.1,44.6,17.1,44.4,18.1,44.4z"/>
		</g>
		<g>
			<path class="st26" d="M17,46c0.1,0,0.1,0,0.2,0.1c0.1,0.1,0,0.2-0.1,0.2c-0.2,0.1-0.4,0.3-0.4,0.5c0,0.2,0.1,0.4,0.4,0.5
				c0.6,0.3,1.5,0.3,2.1,0c0.2-0.1,0.4-0.3,0.4-0.5c0-0.2-0.1-0.4-0.4-0.5c-0.1-0.1-0.1-0.2-0.1-0.2c0.1-0.1,0.2-0.1,0.2-0.1
				c0.4,0.2,0.6,0.5,0.6,0.8c0,0.3-0.2,0.6-0.6,0.8c-0.7,0.4-1.8,0.4-2.4,0c-0.4-0.2-0.6-0.5-0.6-0.8C16.3,46.5,16.5,46.2,17,46
				C16.9,46,16.9,46,17,46z"/>
		</g>
	</g>
	<g>
		<g>
			<path class="st26" d="M25,40.7c1,0,2,0.2,2.7,0.6c0.8,0.5,1.2,1.1,1.2,1.8c0,0.7-0.4,1.4-1.3,1.8c-0.2,0.1-0.4,0-0.6-0.1
				c-0.1-0.2,0-0.4,0.2-0.6c0.5-0.3,0.8-0.7,0.8-1.1c0-0.4-0.3-0.8-0.8-1.1c-1.3-0.7-3.4-0.7-4.7,0c-0.5,0.3-0.8,0.7-0.8,1.1
				c0,0.4,0.3,0.8,0.8,1.1c0.2,0.1,0.3,0.4,0.2,0.6c-0.1,0.2-0.4,0.3-0.6,0.1c-0.8-0.5-1.2-1.1-1.2-1.8c0-0.7,0.4-1.3,1.3-1.8
				C23,40.9,24,40.7,25,40.7z"/>
		</g>
		<g>
			<path class="st26" d="M23.9,42.3c0.1,0,0.1,0,0.2,0.1c0.1,0.1,0,0.2-0.1,0.2c-0.2,0.1-0.4,0.3-0.4,0.5c0,0.2,0.1,0.4,0.4,0.5
				c0.6,0.3,1.5,0.3,2.1,0c0.2-0.1,0.4-0.3,0.4-0.5c0-0.2-0.1-0.4-0.4-0.5c-0.1-0.1-0.1-0.2-0.1-0.2c0.1-0.1,0.2-0.1,0.2-0.1
				c0.4,0.2,0.6,0.5,0.6,0.8c0,0.3-0.2,0.6-0.6,0.8c-0.7,0.4-1.8,0.4-2.4,0c-0.4-0.2-0.6-0.5-0.6-0.8C23.2,42.9,23.4,42.6,23.9,42.3
				C23.8,42.4,23.8,42.3,23.9,42.3z"/>
		</g>
	</g>
	<g>
		<g>
			<path class="st26" d="M27.2,59.8c0.6,0,1.1,0.1,1.5,0.4c0.4,0.3,0.7,0.6,0.7,1c0,0.4-0.2,0.8-0.7,1c-0.1,0.1-0.2,0-0.3-0.1
				c-0.1-0.1,0-0.2,0.1-0.3c0.3-0.2,0.5-0.4,0.5-0.6c0-0.2-0.2-0.4-0.5-0.6c-0.7-0.4-1.9-0.4-2.6,0c-0.3,0.2-0.5,0.4-0.5,0.6
				c0,0.2,0.2,0.4,0.5,0.6c0.1,0.1,0.1,0.2,0.1,0.3c-0.1,0.1-0.2,0.1-0.3,0.1c-0.4-0.3-0.7-0.6-0.7-1c0-0.4,0.3-0.7,0.7-1
				C26.1,59.9,26.7,59.8,27.2,59.8z"/>
		</g>
		<g>
			<path class="st26" d="M26.6,60.7C26.6,60.7,26.7,60.7,26.6,60.7c0.1,0.1,0.1,0.2,0,0.2c-0.1,0.1-0.2,0.2-0.2,0.3
				c0,0.1,0.1,0.2,0.2,0.3c0.3,0.2,0.8,0.2,1.2,0c0.1-0.1,0.2-0.2,0.2-0.3c0-0.1-0.1-0.2-0.2-0.3c0,0-0.1-0.1,0-0.1
				c0,0,0.1-0.1,0.1,0c0.2,0.1,0.3,0.3,0.3,0.4c0,0.2-0.1,0.3-0.3,0.5c-0.4,0.2-1,0.2-1.4,0c-0.2-0.1-0.3-0.3-0.3-0.5
				C26.2,60.9,26.3,60.8,26.6,60.7C26.5,60.7,26.6,60.7,26.6,60.7z"/>
		</g>
	</g>
	<g>
		<g>
			<path class="st26" d="M39.5,29.4c0.6,0,1.1,0.1,1.5,0.4c0.4,0.3,0.7,0.6,0.7,1c0,0.4-0.2,0.8-0.7,1c-0.1,0.1-0.2,0-0.3-0.1
				c-0.1-0.1,0-0.2,0.1-0.3c0.3-0.2,0.5-0.4,0.5-0.6c0-0.2-0.2-0.4-0.5-0.6c-0.7-0.4-1.9-0.4-2.6,0c-0.3,0.2-0.5,0.4-0.5,0.6
				c0,0.2,0.2,0.4,0.5,0.6c0.1,0.1,0.1,0.2,0.1,0.3c-0.1,0.1-0.2,0.1-0.3,0.1c-0.4-0.3-0.7-0.6-0.7-1c0-0.4,0.3-0.7,0.7-1
				C38.4,29.5,39,29.4,39.5,29.4z"/>
		</g>
		<g>
			<path class="st26" d="M38.9,30.3C38.9,30.3,39,30.3,38.9,30.3c0.1,0.1,0.1,0.2,0,0.2c-0.1,0.1-0.2,0.2-0.2,0.3
				c0,0.1,0.1,0.2,0.2,0.3c0.3,0.2,0.8,0.2,1.2,0c0.1-0.1,0.2-0.2,0.2-0.3c0-0.1-0.1-0.2-0.2-0.3c0,0-0.1-0.1,0-0.1
				c0,0,0.1-0.1,0.1,0c0.2,0.1,0.3,0.3,0.3,0.4c0,0.2-0.1,0.3-0.3,0.5c-0.4,0.2-1,0.2-1.4,0c-0.2-0.1-0.3-0.3-0.3-0.5
				C38.5,30.6,38.7,30.5,38.9,30.3C38.9,30.3,38.9,30.3,38.9,30.3z"/>
		</g>
	</g>
	<g>
		<g>
			<path class="st26" d="M51.4,55.6c0.6,0,1.1,0.1,1.5,0.4c0.4,0.3,0.7,0.6,0.7,1c0,0.4-0.2,0.8-0.7,1c-0.1,0.1-0.2,0-0.3-0.1
				c-0.1-0.1,0-0.2,0.1-0.3c0.3-0.2,0.5-0.4,0.5-0.6c0-0.2-0.2-0.4-0.5-0.6c-0.7-0.4-1.9-0.4-2.6,0c-0.3,0.2-0.5,0.4-0.5,0.6
				c0,0.2,0.2,0.4,0.5,0.6c0.1,0.1,0.1,0.2,0.1,0.3c-0.1,0.1-0.2,0.1-0.3,0.1c-0.4-0.3-0.7-0.6-0.7-1c0-0.4,0.3-0.7,0.7-1
				C50.3,55.7,50.8,55.6,51.4,55.6z"/>
		</g>
		<g>
			<path class="st26" d="M50.7,56.5C50.8,56.5,50.8,56.5,50.7,56.5c0.1,0.1,0.1,0.2,0,0.2c-0.1,0.1-0.2,0.2-0.2,0.3
				c0,0.1,0.1,0.2,0.2,0.3c0.3,0.2,0.8,0.2,1.2,0c0.1-0.1,0.2-0.2,0.2-0.3c0-0.1-0.1-0.2-0.2-0.3c0,0-0.1-0.1,0-0.1
				c0,0,0.1-0.1,0.1,0c0.2,0.1,0.3,0.3,0.3,0.4c0,0.2-0.1,0.3-0.3,0.5c-0.4,0.2-1,0.2-1.4,0c-0.2-0.1-0.3-0.3-0.3-0.5
				C50.4,56.8,50.5,56.6,50.7,56.5C50.7,56.5,50.7,56.5,50.7,56.5z"/>
		</g>
	</g>
	<g>
		<g>
			<path class="st26" d="M29.4,20.5c0.6,0,1.1,0.1,1.5,0.4c0.4,0.3,0.7,0.6,0.7,1c0,0.4-0.2,0.8-0.7,1c-0.1,0.1-0.2,0-0.3-0.1
				c-0.1-0.1,0-0.2,0.1-0.3c0.3-0.2,0.5-0.4,0.5-0.6c0-0.2-0.2-0.4-0.5-0.6c-0.7-0.4-1.9-0.4-2.6,0c-0.3,0.2-0.5,0.4-0.5,0.6
				c0,0.2,0.2,0.4,0.5,0.6c0.1,0.1,0.1,0.2,0.1,0.3c-0.1,0.1-0.2,0.1-0.3,0.1c-0.4-0.3-0.7-0.6-0.7-1c0-0.4,0.3-0.7,0.7-1
				C28.3,20.6,28.9,20.5,29.4,20.5z"/>
		</g>
		<g>
			<path class="st26" d="M28.8,21.4C28.8,21.4,28.9,21.4,28.8,21.4c0.1,0.1,0.1,0.2,0,0.2c-0.1,0.1-0.2,0.2-0.2,0.3
				c0,0.1,0.1,0.2,0.2,0.3c0.3,0.2,0.8,0.2,1.2,0c0.1-0.1,0.2-0.2,0.2-0.3c0-0.1-0.1-0.2-0.2-0.3c0,0-0.1-0.1,0-0.1
				c0,0,0.1-0.1,0.1,0c0.2,0.1,0.3,0.3,0.3,0.4c0,0.2-0.1,0.3-0.3,0.5c-0.4,0.2-1,0.2-1.4,0c-0.2-0.1-0.3-0.3-0.3-0.5
				C28.4,21.7,28.6,21.5,28.8,21.4C28.8,21.4,28.8,21.4,28.8,21.4z"/>
		</g>
	</g>
	<g>
		<g>
			<path class="st25" d="M17.1,51.1c0.9,0,1.9,0.2,2.6,0.6c0.8,0.4,1.2,1.1,1.2,1.7c0,0.7-0.4,1.3-1.2,1.7c-0.2,0.1-0.4,0-0.5-0.1
				c-0.1-0.2,0-0.4,0.1-0.5c0.5-0.3,0.8-0.7,0.8-1.1c0-0.4-0.3-0.8-0.8-1c-1.2-0.7-3.3-0.7-4.5,0c-0.5,0.3-0.8,0.7-0.8,1.1
				c0,0.4,0.3,0.8,0.8,1.1c0.2,0.1,0.3,0.3,0.1,0.5c-0.1,0.2-0.3,0.3-0.5,0.1c-0.8-0.4-1.2-1.1-1.2-1.7c0-0.7,0.4-1.3,1.2-1.7
				C15.2,51.3,16.2,51.1,17.1,51.1z"/>
		</g>
		<g>
			<path class="st25" d="M16,52.6c0.1,0,0.1,0,0.2,0.1c0,0.1,0,0.2-0.1,0.2c-0.2,0.1-0.4,0.3-0.4,0.5c0,0.2,0.1,0.3,0.4,0.5
				c0.5,0.3,1.5,0.3,2,0c0.2-0.1,0.4-0.3,0.4-0.5c0-0.2-0.1-0.3-0.4-0.5c-0.1,0-0.1-0.2-0.1-0.2c0-0.1,0.2-0.1,0.2-0.1
				c0.3,0.2,0.5,0.5,0.5,0.8c0,0.3-0.2,0.6-0.5,0.8c-0.6,0.4-1.7,0.4-2.3,0c-0.3-0.2-0.5-0.5-0.5-0.8C15.4,53.1,15.6,52.8,16,52.6
				C16,52.6,16,52.6,16,52.6z"/>
		</g>
	</g>
	<g>
		<g>
			<path class="st25" d="M58.9,43.5c0.9,0,1.9,0.2,2.6,0.6c0.8,0.4,1.2,1.1,1.2,1.7c0,0.7-0.4,1.3-1.2,1.7c-0.2,0.1-0.4,0-0.5-0.1
				c-0.1-0.2,0-0.4,0.1-0.5c0.5-0.3,0.8-0.7,0.8-1.1c0-0.4-0.3-0.8-0.8-1c-1.2-0.7-3.3-0.7-4.5,0c-0.5,0.3-0.8,0.7-0.8,1.1
				c0,0.4,0.3,0.8,0.8,1.1c0.2,0.1,0.3,0.3,0.1,0.5c-0.1,0.2-0.3,0.3-0.5,0.1c-0.8-0.4-1.2-1.1-1.2-1.7c0-0.7,0.4-1.3,1.2-1.7
				C57,43.7,58,43.5,58.9,43.5z"/>
		</g>
		<g>
			<path class="st25" d="M57.8,45c0.1,0,0.1,0,0.2,0.1c0,0.1,0,0.2-0.1,0.2c-0.2,0.1-0.4,0.3-0.4,0.5c0,0.2,0.1,0.3,0.4,0.5
				c0.5,0.3,1.5,0.3,2,0c0.2-0.1,0.4-0.3,0.4-0.5c0-0.2-0.1-0.3-0.4-0.5c-0.1,0-0.1-0.2-0.1-0.2c0-0.1,0.2-0.1,0.2-0.1
				c0.3,0.2,0.5,0.5,0.5,0.8c0,0.3-0.2,0.6-0.5,0.8c-0.6,0.4-1.7,0.4-2.3,0c-0.3-0.2-0.5-0.5-0.5-0.8C57.2,45.5,57.4,45.3,57.8,45
				C57.7,45,57.8,45,57.8,45z"/>
		</g>
	</g>
	<g>
		<g>
			<path class="st25" d="M61.8,53.1c0.9,0,1.9,0.2,2.6,0.6c0.8,0.4,1.2,1.1,1.2,1.7c0,0.7-0.4,1.3-1.2,1.7c-0.2,0.1-0.4,0-0.5-0.1
				c-0.1-0.2,0-0.4,0.1-0.5c0.5-0.3,0.8-0.7,0.8-1.1c0-0.4-0.3-0.8-0.8-1c-1.2-0.7-3.3-0.7-4.5,0c-0.5,0.3-0.8,0.7-0.8,1.1
				c0,0.4,0.3,0.8,0.8,1.1c0.2,0.1,0.3,0.3,0.1,0.5c-0.1,0.2-0.3,0.3-0.5,0.1c-0.8-0.4-1.2-1.1-1.2-1.7c0-0.7,0.4-1.3,1.2-1.7
				C59.9,53.3,60.9,53.1,61.8,53.1z"/>
		</g>
		<g>
			<path class="st25" d="M60.7,54.7c0.1,0,0.1,0,0.2,0.1c0,0.1,0,0.2-0.1,0.2c-0.2,0.1-0.4,0.3-0.4,0.5c0,0.2,0.1,0.3,0.4,0.5
				c0.5,0.3,1.5,0.3,2,0c0.2-0.1,0.4-0.3,0.4-0.5c0-0.2-0.1-0.3-0.4-0.5c-0.1,0-0.1-0.2-0.1-0.2c0-0.1,0.2-0.1,0.2-0.1
				c0.3,0.2,0.5,0.5,0.5,0.8c0,0.3-0.2,0.6-0.5,0.8c-0.6,0.4-1.7,0.4-2.3,0c-0.3-0.2-0.5-0.5-0.5-0.8C60.1,55.2,60.3,54.9,60.7,54.7
				C60.7,54.7,60.7,54.7,60.7,54.7z"/>
		</g>
	</g>
	<g>
		<g>
			<path class="st25" d="M33.3,26c0.4,0,0.8,0.1,1.1,0.3c0.3,0.2,0.5,0.5,0.5,0.8c0,0.3-0.2,0.6-0.5,0.8c-0.1,0-0.2,0-0.2-0.1
				c0-0.1,0-0.2,0.1-0.2c0.2-0.1,0.4-0.3,0.4-0.5c0-0.2-0.1-0.3-0.3-0.5c-0.5-0.3-1.4-0.3-2,0C32.1,26.7,32,26.8,32,27
				c0,0.2,0.1,0.3,0.4,0.5c0.1,0,0.1,0.2,0.1,0.2c0,0.1-0.2,0.1-0.2,0.1c-0.3-0.2-0.5-0.5-0.5-0.8c0-0.3,0.2-0.6,0.5-0.8
				C32.5,26,32.9,26,33.3,26z"/>
		</g>
		<g>
			<path class="st25" d="M32.8,26.6C32.9,26.6,32.9,26.6,32.8,26.6c0.1,0.1,0.1,0.1,0,0.1c-0.1,0.1-0.2,0.1-0.2,0.2
				c0,0.1,0.1,0.1,0.2,0.2c0.2,0.1,0.6,0.1,0.9,0c0.1-0.1,0.2-0.1,0.2-0.2c0-0.1-0.1-0.1-0.2-0.2c0,0,0-0.1,0-0.1c0,0,0.1,0,0.1,0
				c0.2,0.1,0.2,0.2,0.2,0.3c0,0.1-0.1,0.3-0.2,0.3c-0.3,0.2-0.7,0.2-1,0c-0.2-0.1-0.2-0.2-0.2-0.3C32.6,26.9,32.7,26.7,32.8,26.6
				C32.8,26.6,32.8,26.6,32.8,26.6z"/>
		</g>
	</g>
</g>
</svg>
