<?xml version="1.0" encoding="utf-8"?>
<!-- Generator: Adobe Illustrator 21.0.0, SVG Export Plug-In . SVG Version: 6.00 Build 0)  -->
<svg version="1.1" id="Layer_1" xmlns="http://www.w3.org/2000/svg" xmlns:xlink="http://www.w3.org/1999/xlink" x="0px" y="0px"
	 viewBox="0 0 80 80" style="enable-background:new 0 0 80 80;" xml:space="preserve">
<style type="text/css">
	.st0{fill:#252726;}
	.st1{fill:#181919;}
	.st2{fill:#444748;}
	.st3{opacity:0.1;fill:#444748;}
	.st4{fill:#616161;}
	.st5{fill:#5C5D5D;}
	.st6{fill:#CECDCC;}
	.st7{fill:#9C9C9C;}
	.st8{fill:#B2B2B2;}
	.st9{fill:#99999A;}
	.st10{opacity:0.2;fill:#444748;}
	.st11{fill:#777778;}
	.st12{fill:#686A6A;}
	.st13{fill:#575858;}
	.st14{fill:#636565;}
	.st15{fill:#3A3A3A;}
	.st16{fill:#4A4A4B;}
	.st17{fill:#56A7CA;}
	.st18{opacity:0.3;fill:#56A7CA;}
	.st19{fill:#7A2B18;}
	.st20{fill:#F5F3DF;}
	.st21{fill:#E9E7D1;}
	.st22{fill:#883220;}
	.st23{fill:#66261C;}
	.st24{fill:#373A3A;}
	.st25{fill:#4F504F;}
	.st26{fill:#676969;}
	.st27{fill:#A28A32;}
	.st28{opacity:0.7;fill:#835E34;}
	.st29{fill:#C0BFAB;}
	.st30{opacity:0.5;fill:#C0BFAB;}
	.st31{fill:#353434;}
	.st32{fill:#3E3C39;}
</style>
<g>
	<g id="XMLID_1811_">
		<g id="XMLID_2069_">
			<polygon id="XMLID_2072_" class="st0" points="20.9,14.3 20.9,66.7 40.3,77.9 40.3,25.5 			"/>
			<polyline id="XMLID_16307_" class="st1" points="40.3,77.9 40.3,25.5 20.9,14.3 			"/>
			<polygon id="XMLID_2071_" class="st2" points="59.8,14.3 40.3,25.5 40.3,77.9 59.8,66.7 			"/>
			<polyline id="XMLID_16308_" class="st3" points="59.8,14.3 40.3,25.5 40.3,77.9 			"/>
			<polygon id="XMLID_2070_" class="st4" points="40.3,3.1 20.9,14.3 40.3,25.5 59.8,14.3 			"/>
			<polyline id="XMLID_16310_" class="st5" points="20.9,14.3 40.3,25.5 59.8,14.3 			"/>
		</g>
		<g id="XMLID_1993_">
			<g id="XMLID_1994_">
				<g id="XMLID_2009_">
					<polygon id="XMLID_2068_" class="st6" points="52.9,39.5 55.7,37.9 55.7,48 52.9,46.4 					"/>
					<polyline id="XMLID_16313_" class="st3" points="52.9,46.4 52.9,39.5 55.7,37.9 					"/>
					<polygon id="XMLID_2067_" class="st7" points="45.1,50.9 52.9,46.4 55.7,48 45.1,54.1 					"/>
					<polygon id="XMLID_2066_" class="st8" points="45.1,51.2 52.9,46.8 55,48 45.1,53.8 					"/>
					<polygon id="XMLID_2065_" class="st9" points="52.9,39.5 52.9,46.4 45.1,50.9 45.1,44 					"/>
					<polyline id="XMLID_16314_" class="st10" points="45.1,44 52.9,39.5 52.9,46.4 					"/>
					<polygon id="XMLID_2064_" class="st0" points="55.7,22.5 55.7,36.1 45.1,42.2 45.1,28.6 					"/>
					<g id="XMLID_2010_">
						<g id="XMLID_2030_">
							<g id="XMLID_2061_">
								<path id="XMLID_2063_" class="st11" d="M54.5,48.1L54.5,48.1l-1.9-1.1l-0.2,0.1l-0.1,0l0.3-0.2L54.5,48.1L54.5,48.1
									C54.6,48.1,54.6,48.1,54.5,48.1C54.5,48.2,54.5,48.1,54.5,48.1z"/>
								<path id="XMLID_2062_" class="st12" d="M54.4,48.3L54.4,48.3c-0.1,0-0.1,0-0.2,0c0,0,0,0,0,0l-1.8-1l0.2-0.1l1.9,1.1l0,0
									c0,0,0,0,0,0.1C54.5,48.2,54.5,48.2,54.4,48.3z"/>
							</g>
							<g id="XMLID_2058_">
								<path id="XMLID_2060_" class="st11" d="M54,48.4L54,48.4l-1.9-1.1l-0.2,0.1l-0.1,0l0.3-0.2L54,48.4L54,48.4
									C54,48.4,54.1,48.4,54,48.4C54,48.5,54,48.5,54,48.4z"/>
								<path id="XMLID_2059_" class="st12" d="M53.9,48.6L53.9,48.6c-0.1,0-0.1,0-0.2,0c0,0,0,0,0,0l-1.8-1l0.2-0.1l1.9,1.1l0,0
									c0,0,0,0,0,0.1C54,48.5,54,48.5,53.9,48.6z"/>
							</g>
							<g id="XMLID_2055_">
								<path id="XMLID_2057_" class="st11" d="M53.5,48.7L53.5,48.7l-1.9-1.1l-0.2,0.1l-0.1,0l0.3-0.2L53.5,48.7L53.5,48.7
									C53.5,48.7,53.5,48.7,53.5,48.7C53.5,48.8,53.5,48.8,53.5,48.7z"/>
								<path id="XMLID_2056_" class="st12" d="M53.4,48.9L53.4,48.9c-0.1,0-0.1,0-0.2,0c0,0,0,0,0,0l-1.8-1l0.2-0.1l1.9,1.1l0,0
									c0,0,0,0,0,0.1C53.5,48.8,53.5,48.9,53.4,48.9z"/>
							</g>
							<g id="XMLID_2052_">
								<path id="XMLID_2054_" class="st11" d="M52.9,49L52.9,49L51.1,48l-0.2,0.1l-0.1,0l0.3-0.2L52.9,49L52.9,49
									C53,49,53,49.1,52.9,49C53,49.1,53,49.1,52.9,49z"/>
								<path id="XMLID_2053_" class="st12" d="M52.9,49.2L52.9,49.2c-0.1,0-0.1,0-0.2,0c0,0,0,0,0,0l-1.8-1l0.2-0.1l1.9,1.1l0,0
									c0,0,0,0,0,0.1C53,49.1,52.9,49.2,52.9,49.2z"/>
							</g>
							<g id="XMLID_2049_">
								<path id="XMLID_2051_" class="st11" d="M52.4,49.3L52.4,49.3l-1.9-1.1l-0.2,0.1l-0.1,0l0.3-0.2L52.4,49.3L52.4,49.3
									C52.5,49.3,52.5,49.4,52.4,49.3C52.4,49.4,52.4,49.4,52.4,49.3z"/>
								<path id="XMLID_2050_" class="st12" d="M52.4,49.5L52.4,49.5c-0.1,0-0.1,0-0.2,0c0,0,0,0,0,0l-1.8-1l0.2-0.1l1.9,1.1l0,0
									c0,0,0,0,0,0.1C52.4,49.4,52.4,49.5,52.4,49.5z"/>
							</g>
							<g id="XMLID_2046_">
								<path id="XMLID_2048_" class="st11" d="M51.9,49.6L51.9,49.6L50,48.6l-0.2,0.1l-0.1,0l0.3-0.2L51.9,49.6L51.9,49.6
									C51.9,49.6,52,49.7,51.9,49.6C51.9,49.7,51.9,49.7,51.9,49.6z"/>
								<path id="XMLID_2047_" class="st12" d="M51.8,49.8L51.8,49.8c-0.1,0-0.1,0-0.2,0c0,0,0,0,0,0l-1.8-1l0.2-0.1l1.9,1.1l0,0
									c0,0,0,0,0,0.1C51.9,49.7,51.9,49.8,51.8,49.8z"/>
							</g>
							<g id="XMLID_2043_">
								<path id="XMLID_2045_" class="st11" d="M51.4,50L51.4,50l-1.9-1.1L49.3,49l-0.1,0l0.3-0.2L51.4,50L51.4,50
									C51.4,49.9,51.4,50,51.4,50C51.4,50,51.4,50,51.4,50z"/>
								<path id="XMLID_2044_" class="st12" d="M51.3,50.1L51.3,50.1c-0.1,0-0.1,0-0.2,0c0,0,0,0,0,0l-1.8-1l0.2-0.1l1.9,1.1l0,0
									c0,0,0,0,0,0.1C51.4,50,51.4,50.1,51.3,50.1z"/>
							</g>
							<g id="XMLID_2040_">
								<path id="XMLID_2042_" class="st11" d="M50.8,50.3L50.8,50.3L49,49.2l-0.2,0.1l-0.1,0l0.3-0.2L50.8,50.3L50.8,50.3
									C50.9,50.2,50.9,50.3,50.8,50.3C50.9,50.3,50.9,50.3,50.8,50.3z"/>
								<path id="XMLID_2041_" class="st12" d="M50.8,50.4L50.8,50.4c-0.1,0-0.1,0-0.2,0c0,0,0,0,0,0l-1.8-1l0.2-0.1l1.9,1.1l0,0
									c0,0,0,0,0,0.1C50.9,50.3,50.8,50.4,50.8,50.4z"/>
							</g>
							<g id="XMLID_2037_">
								<path id="XMLID_2039_" class="st11" d="M50.3,50.6L50.3,50.6l-1.9-1.1l-0.2,0.1l-0.1,0l0.3-0.2L50.3,50.6L50.3,50.6
									C50.4,50.5,50.4,50.6,50.3,50.6C50.4,50.6,50.3,50.6,50.3,50.6z"/>
								<path id="XMLID_2038_" class="st12" d="M50.3,50.7L50.3,50.7c-0.1,0-0.1,0-0.2,0c0,0,0,0,0,0l-1.8-1l0.2-0.1l1.9,1.1l0,0
									c0,0,0,0,0,0.1C50.3,50.6,50.3,50.7,50.3,50.7z"/>
							</g>
							<g id="XMLID_2034_">
								<path id="XMLID_2036_" class="st11" d="M49.8,50.9L49.8,50.9l-1.9-1.1l-0.2,0.1l-0.1,0l0.3-0.2L49.8,50.9L49.8,50.9
									C49.8,50.8,49.9,50.9,49.8,50.9C49.8,50.9,49.8,50.9,49.8,50.9z"/>
								<path id="XMLID_2035_" class="st12" d="M49.7,51L49.7,51c-0.1,0-0.1,0-0.2,0c0,0,0,0,0,0l-1.8-1l0.2-0.1l1.9,1.1l0,0
									c0,0,0,0,0,0.1C49.8,50.9,49.8,51,49.7,51z"/>
							</g>
							<g id="XMLID_2031_">
								<path id="XMLID_2033_" class="st11" d="M49.3,51.2L49.3,51.2l-1.9-1.1l-0.2,0.1l-0.1,0l0.3-0.2L49.3,51.2L49.3,51.2
									C49.3,51.1,49.3,51.2,49.3,51.2C49.3,51.2,49.3,51.2,49.3,51.2z"/>
								<path id="XMLID_2032_" class="st12" d="M49.2,51.3L49.2,51.3c-0.1,0-0.1,0-0.2,0c0,0,0,0,0,0l-1.8-1l0.2-0.1l1.9,1.1l0,0
									c0,0,0,0,0,0.1C49.3,51.2,49.3,51.3,49.2,51.3z"/>
							</g>
						</g>
						<g id="XMLID_2011_">
							<g id="XMLID_2027_">
								<path id="XMLID_2029_" class="st11" d="M48.7,51.5L48.7,51.5l-1.9-1.1l-0.2,0.1l-0.1,0l0.3-0.2L48.7,51.5L48.7,51.5
									C48.8,51.4,48.8,51.5,48.7,51.5C48.8,51.5,48.8,51.5,48.7,51.5z"/>
								<path id="XMLID_2028_" class="st12" d="M48.7,51.6L48.7,51.6c-0.1,0-0.1,0-0.2,0c0,0,0,0,0,0l-1.8-1l0.2-0.1l1.9,1.1l0,0
									c0,0,0,0,0,0.1C48.8,51.5,48.7,51.6,48.7,51.6z"/>
							</g>
							<g id="XMLID_2024_">
								<path id="XMLID_2026_" class="st11" d="M48.2,51.8L48.2,51.8l-1.9-1.1l-0.2,0.1l-0.1,0l0.3-0.2L48.2,51.8L48.2,51.8
									C48.3,51.7,48.3,51.8,48.2,51.8C48.3,51.8,48.2,51.8,48.2,51.8z"/>
								<path id="XMLID_2025_" class="st12" d="M48.2,51.9L48.2,51.9c-0.1,0-0.1,0-0.2,0c0,0,0,0,0,0l-1.8-1l0.2-0.1l1.9,1.1l0,0
									c0,0,0,0,0,0.1C48.2,51.9,48.2,51.9,48.2,51.9z"/>
							</g>
							<g id="XMLID_2021_">
								<path id="XMLID_2023_" class="st11" d="M47.7,52.1L47.7,52.1L45.8,51l-0.2,0.1l-0.1,0l0.3-0.2L47.7,52.1L47.7,52.1
									C47.7,52,47.8,52.1,47.7,52.1C47.7,52.1,47.7,52.1,47.7,52.1z"/>
								<path id="XMLID_2022_" class="st12" d="M47.6,52.2L47.6,52.2c-0.1,0-0.1,0-0.2,0c0,0,0,0,0,0l-1.8-1l0.2-0.1l1.9,1.1l0,0
									c0,0,0,0,0,0.1C47.7,52.2,47.7,52.2,47.6,52.2z"/>
							</g>
							<g id="XMLID_2012_">
								<path id="XMLID_2020_" class="st11" d="M47.2,52.4L47.2,52.4l-1.9-1.1l-0.2,0.1v-0.1l0.2-0.1L47.2,52.4L47.2,52.4
									C47.2,52.3,47.2,52.4,47.2,52.4C47.2,52.4,47.2,52.4,47.2,52.4z"/>
								<path id="XMLID_2019_" class="st12" d="M45.3,51.3l1.9,1.1l0,0c0,0,0,0,0,0.1c0,0-0.1,0.1-0.1,0.1c-0.1,0-0.1,0-0.2,0
									c0,0,0,0,0,0l-1.8-1v0L45.3,51.3z"/>
								<path id="XMLID_2018_" class="st11" d="M46.6,52.7L46.6,52.7l-1.5-0.9v-0.1L46.6,52.7L46.6,52.7
									C46.7,52.6,46.7,52.7,46.6,52.7C46.7,52.7,46.7,52.7,46.6,52.7z"/>
								<path id="XMLID_2017_" class="st12" d="M46.6,52.7L46.6,52.7C46.7,52.7,46.7,52.7,46.6,52.7c0,0.1,0,0.1-0.1,0.1
									c-0.1,0-0.1,0-0.2,0c0,0,0,0,0,0l-1.3-0.7v-0.2L46.6,52.7z"/>
								<path id="XMLID_2016_" class="st11" d="M46.1,53L46.1,53l-1-0.6v-0.1L46.1,53L46.1,53C46.2,52.9,46.2,53,46.1,53
									C46.2,53,46.1,53,46.1,53z"/>
								<path id="XMLID_2015_" class="st12" d="M46.1,53L46.1,53C46.1,53,46.2,53,46.1,53c0,0.1,0,0.1-0.1,0.1c-0.1,0-0.1,0-0.2,0
									c0,0,0,0,0,0l-0.7-0.4v-0.2L46.1,53z"/>
								<path id="XMLID_2014_" class="st11" d="M45.6,53.3L45.6,53.3L45.1,53V53L45.6,53.3L45.6,53.3C45.6,53.2,45.7,53.3,45.6,53.3
									C45.6,53.3,45.6,53.3,45.6,53.3z"/>
								<path id="XMLID_2013_" class="st12" d="M45.6,53.3L45.6,53.3C45.6,53.3,45.6,53.3,45.6,53.3c0,0.1,0,0.1-0.1,0.1
									c-0.1,0-0.1,0-0.2,0c0,0,0,0,0,0l-0.2-0.1V53L45.6,53.3z"/>
							</g>
						</g>
					</g>
				</g>
				<g id="XMLID_1995_">
					<g id="XMLID_1996_">
						<g id="XMLID_2007_">
							<path id="XMLID_2008_" class="st13" d="M51.5,41.5c0-0.1,0.1-0.2,0.2-0.2l0,0c0.1-0.1,0.3-0.1,0.5-0.1l0,0
								c0.2,0,0.3,0.2,0.3,0.3c0,0.1,0,1.2,0,1.3c0,0.1-0.1,0.2-0.2,0.3l0,0c-0.1,0.1-0.3,0.1-0.5,0.1l0,0c-0.2,0-0.3-0.2-0.3-0.3
								C51.5,42.7,51.5,41.6,51.5,41.5z"/>
						</g>
						<g id="XMLID_2005_">
							<path id="XMLID_2006_" class="st14" d="M52.7,42.3c0,0.1-0.1,0.3-0.3,0.4c-0.2,0.1-0.5,0.2-0.7,0.1c-0.3-0.1-0.5-0.3-0.5-0.5
								c0-0.1,0-1.8,0-1.8l1.5-0.9C52.7,39.7,52.7,42.2,52.7,42.3z"/>
						</g>
						<g id="XMLID_2003_">
							<path id="XMLID_2004_" class="st14" d="M47.7,44.2c0,0.1,0,0.1-0.1,0.2c-0.1,0-0.2,0.1-0.3,0c-0.1,0-0.2-0.1-0.2-0.2l0-1.3
								l0.6-0.3C47.7,42.6,47.7,44.1,47.7,44.2z"/>
						</g>
						<g id="XMLID_2001_">
							<path id="XMLID_2002_" class="st14" d="M48.2,45.2c0,0.1,0,0.1-0.1,0.2c-0.1,0-0.2,0.1-0.3,0c-0.1,0-0.2-0.1-0.2-0.2
								c0,0,0,0.1,0-0.7l0.6-0.1C48.2,44.9,48.2,45.1,48.2,45.2z"/>
						</g>
						<g id="XMLID_1999_">
							<path id="XMLID_2000_" class="st14" d="M48.2,44.2c0,0,0.1,0.1,0.1,0.2c0,0.1,0,0.2-0.1,0.3c-0.1,0.1-0.2,0.1-0.3,0.1
								c0,0,0.1,0.1-0.6-0.4l0-0.7C47.7,43.9,48.1,44.2,48.2,44.2z"/>
						</g>
						<g id="XMLID_1997_">
							<path id="XMLID_1998_" class="st0" d="M53.2,41.1c0,0.2-0.1,0.5-0.4,0.6c-0.3,0.2-0.8,0.3-1.2,0.2c-0.5-0.1-0.8-0.4-0.8-0.8
								v-0.3l2.5-1.5C53.2,40.3,53.2,41,53.2,41.1z"/>
						</g>
						<path class="st1" d="M52.3,41.9c-0.2,0-0.5,0-0.7,0c-0.5-0.1-0.8-0.4-0.8-0.8v-0.3l1.6-0.9V41.9z"/>
					</g>
				</g>
			</g>
		</g>
		<g id="XMLID_1940_">
			<g id="XMLID_1974_">
				<g id="XMLID_1990_">
					<path id="XMLID_1992_" class="st15" d="M54,33.6L54,33.6c0.2,0,0.3,0.3,0.2,0.5l0,0c-0.1,0.1-0.2,0.2-0.3,0.2l0,0
						c-0.2,0-0.3-0.3-0.2-0.5l0,0C53.8,33.7,53.9,33.6,54,33.6z"/>
					<path id="XMLID_1991_" class="st16" d="M54,33.7L54,33.7c0.2,0,0.3,0.2,0.1,0.4l0,0c-0.1,0.1-0.2,0.1-0.2,0.2l0,0
						c-0.2,0-0.3-0.2-0.1-0.4l0,0C53.8,33.8,53.9,33.7,54,33.7z"/>
				</g>
				<g id="XMLID_1987_">
					<path id="XMLID_1989_" class="st15" d="M53,34.2L53,34.2c0.2,0,0.3,0.3,0.2,0.5l0,0c-0.1,0.1-0.2,0.2-0.3,0.2l0,0
						c-0.2,0-0.3-0.3-0.2-0.5l0,0C52.8,34.3,52.9,34.2,53,34.2z"/>
					<path id="XMLID_1988_" class="st16" d="M53,34.3L53,34.3c0.2,0,0.3,0.2,0.1,0.4l0,0c-0.1,0.1-0.2,0.1-0.2,0.2l0,0
						c-0.2,0-0.3-0.2-0.1-0.4l0,0C52.8,34.4,52.9,34.3,53,34.3z"/>
				</g>
				<g id="XMLID_1984_">
					<path id="XMLID_1986_" class="st15" d="M52,34.8L52,34.8c0.2,0,0.3,0.3,0.2,0.5l0,0c-0.1,0.1-0.2,0.2-0.3,0.2l0,0
						c-0.2,0-0.3-0.3-0.2-0.5l0,0C51.7,34.9,51.9,34.8,52,34.8z"/>
					<path id="XMLID_1985_" class="st16" d="M52,34.9L52,34.9c0.2,0,0.3,0.2,0.1,0.4l0,0c-0.1,0.1-0.2,0.1-0.2,0.2l0,0
						c-0.2,0-0.3-0.2-0.1-0.4l0,0C51.8,35,51.9,34.9,52,34.9z"/>
				</g>
				<g id="XMLID_1981_">
					<path id="XMLID_1983_" class="st15" d="M49,36.5L49,36.5c0.2,0,0.3,0.3,0.2,0.5l0,0c-0.1,0.1-0.2,0.2-0.3,0.2l0,0
						c-0.2,0-0.3-0.3-0.2-0.5l0,0C48.8,36.6,48.9,36.5,49,36.5z"/>
					<path id="XMLID_1982_" class="st16" d="M49,36.6L49,36.6c0.2,0,0.3,0.2,0.1,0.4l0,0c-0.1,0.1-0.2,0.1-0.2,0.2l0,0
						c-0.2,0-0.3-0.2-0.1-0.4l0,0C48.8,36.6,48.9,36.6,49,36.6z"/>
				</g>
				<g id="XMLID_1978_">
					<path id="XMLID_1980_" class="st15" d="M48,37.1L48,37.1c0.2,0,0.3,0.3,0.2,0.5l0,0c-0.1,0.1-0.2,0.2-0.3,0.2l0,0
						c-0.2,0-0.3-0.3-0.2-0.5l0,0C47.8,37.2,47.9,37.1,48,37.1z"/>
					<path id="XMLID_1979_" class="st16" d="M48,37.2L48,37.2c0.2,0,0.3,0.2,0.1,0.4l0,0c-0.1,0.1-0.2,0.1-0.2,0.2l0,0
						c-0.2,0-0.3-0.2-0.1-0.4l0,0C47.8,37.2,47.9,37.2,48,37.2z"/>
				</g>
				<g id="XMLID_1975_">
					<path id="XMLID_1977_" class="st15" d="M47,37.7L47,37.7c0.2,0,0.3,0.3,0.2,0.5l0,0c-0.1,0.1-0.2,0.2-0.3,0.2l0,0
						c-0.2,0-0.3-0.3-0.2-0.5l0,0C46.8,37.8,46.9,37.7,47,37.7z"/>
					<path id="XMLID_1976_" class="st16" d="M47,37.8L47,37.8c0.2,0,0.3,0.2,0.1,0.4l0,0c-0.1,0.1-0.2,0.1-0.2,0.2l0,0
						c-0.2,0-0.3-0.2-0.1-0.4l0,0C46.8,37.8,46.9,37.8,47,37.8z"/>
				</g>
			</g>
			<polygon id="XMLID_1973_" class="st17" points="54.3,25.5 54.3,31.8 46.6,36.2 46.6,29.9 			"/>
			<polyline id="XMLID_16306_" class="st18" points="46.6,36.2 46.6,29.9 54.3,25.5 			"/>
			<polygon class="st18" points="54.3,26.8 46.6,31.3 46.6,29.9 54.3,25.5 			"/>
			<g id="XMLID_1954_">
				<g id="XMLID_1970_">
					<path id="XMLID_1972_" class="st15" d="M54,34.6L54,34.6c0.2,0,0.3,0.3,0.2,0.5l0,0c-0.1,0.1-0.2,0.2-0.3,0.2l0,0
						c-0.2,0-0.3-0.3-0.2-0.5l0,0C53.8,34.7,53.9,34.6,54,34.6z"/>
					<path id="XMLID_1971_" class="st16" d="M54,34.7L54,34.7c0.2,0,0.3,0.2,0.1,0.4l0,0c-0.1,0.1-0.2,0.1-0.2,0.2l0,0
						c-0.2,0-0.3-0.2-0.1-0.4l0,0C53.8,34.8,53.9,34.7,54,34.7z"/>
				</g>
				<g id="XMLID_1967_">
					<path id="XMLID_1969_" class="st15" d="M53,35.2L53,35.2c0.2,0,0.3,0.3,0.2,0.5l0,0c-0.1,0.1-0.2,0.2-0.3,0.2l0,0
						c-0.2,0-0.3-0.3-0.2-0.5l0,0C52.8,35.3,52.9,35.2,53,35.2z"/>
					<path id="XMLID_1968_" class="st16" d="M53,35.3L53,35.3c0.2,0,0.3,0.2,0.1,0.4l0,0c-0.1,0.1-0.2,0.1-0.2,0.2l0,0
						c-0.2,0-0.3-0.2-0.1-0.4l0,0C52.8,35.4,52.9,35.3,53,35.3z"/>
				</g>
				<g id="XMLID_1964_">
					<path id="XMLID_1966_" class="st15" d="M52,35.8L52,35.8c0.2,0,0.3,0.3,0.2,0.5l0,0c-0.1,0.1-0.2,0.2-0.3,0.2l0,0
						c-0.2,0-0.3-0.3-0.2-0.5l0,0C51.7,35.9,51.9,35.8,52,35.8z"/>
					<path id="XMLID_1965_" class="st16" d="M52,35.9L52,35.9c0.2,0,0.3,0.2,0.1,0.4l0,0c-0.1,0.1-0.2,0.1-0.2,0.2l0,0
						c-0.2,0-0.3-0.2-0.1-0.4l0,0C51.8,36,51.9,35.9,52,35.9z"/>
				</g>
				<g id="XMLID_1961_">
					<path id="XMLID_1963_" class="st15" d="M49,37.5L49,37.5c0.2,0,0.3,0.3,0.2,0.5l0,0c-0.1,0.1-0.2,0.2-0.3,0.2l0,0
						c-0.2,0-0.3-0.3-0.2-0.5l0,0C48.8,37.6,48.9,37.5,49,37.5z"/>
					<path id="XMLID_1962_" class="st16" d="M49,37.6L49,37.6c0.2,0,0.3,0.2,0.1,0.4l0,0c-0.1,0.1-0.2,0.1-0.2,0.2l0,0
						c-0.2,0-0.3-0.2-0.1-0.4l0,0C48.8,37.6,48.9,37.6,49,37.6z"/>
				</g>
				<g id="XMLID_1958_">
					<path id="XMLID_1960_" class="st15" d="M48,38.1L48,38.1c0.2,0,0.3,0.3,0.2,0.5l0,0c-0.1,0.1-0.2,0.2-0.3,0.2l0,0
						c-0.2,0-0.3-0.3-0.2-0.5l0,0C47.8,38.2,47.9,38.1,48,38.1z"/>
					<path id="XMLID_1959_" class="st16" d="M48,38.2L48,38.2c0.2,0,0.3,0.2,0.1,0.4l0,0c-0.1,0.1-0.2,0.1-0.2,0.2l0,0
						c-0.2,0-0.3-0.2-0.1-0.4l0,0C47.8,38.2,47.9,38.2,48,38.2z"/>
				</g>
				<g id="XMLID_1955_">
					<path id="XMLID_1957_" class="st15" d="M47,38.7L47,38.7c0.2,0,0.3,0.3,0.2,0.5l0,0c-0.1,0.1-0.2,0.2-0.3,0.2l0,0
						c-0.2,0-0.3-0.3-0.2-0.5l0,0C46.8,38.7,46.9,38.7,47,38.7z"/>
					<path id="XMLID_1956_" class="st16" d="M47,38.8L47,38.8c0.2,0,0.3,0.2,0.1,0.4l0,0c-0.1,0.1-0.2,0.1-0.2,0.2l0,0
						c-0.2,0-0.3-0.2-0.1-0.4l0,0C46.8,38.8,46.9,38.8,47,38.8z"/>
				</g>
			</g>
			<g id="XMLID_1941_">
				<g id="XMLID_1951_">
					<path id="XMLID_1953_" class="st15" d="M50.8,35.7L50.8,35.7c0.1,0,0.2,0.2,0.1,0.3l0,0c0,0.1-0.1,0.1-0.2,0.1l0,0
						c-0.1,0-0.2-0.2-0.1-0.3l0,0C50.6,35.8,50.7,35.8,50.8,35.7z"/>
					<path id="XMLID_1952_" class="st16" d="M50.7,35.8L50.7,35.8c0.1,0,0.2,0.1,0.1,0.2l0,0c0,0.1-0.1,0.1-0.1,0.1l0,0
						c-0.1,0-0.2-0.1-0.1-0.2l0,0C50.6,35.8,50.7,35.8,50.7,35.8z"/>
				</g>
				<g id="XMLID_1948_">
					<path id="XMLID_1950_" class="st15" d="M50.1,36.1L50.1,36.1c0.1,0,0.2,0.2,0.1,0.3l0,0c0,0.1-0.1,0.1-0.2,0.1l0,0
						c-0.1,0-0.2-0.2-0.1-0.3l0,0C50,36.2,50.1,36.1,50.1,36.1z"/>
					<path id="XMLID_1949_" class="st16" d="M50.1,36.2L50.1,36.2c0.1,0,0.2,0.1,0.1,0.2l0,0c0,0.1-0.1,0.1-0.1,0.1l0,0
						c-0.1,0-0.2-0.1-0.1-0.2l0,0C50,36.2,50.1,36.2,50.1,36.2z"/>
				</g>
				<g id="XMLID_1945_">
					<path id="XMLID_1947_" class="st15" d="M50.8,36.4L50.8,36.4c0.1,0,0.2,0.2,0.1,0.3l0,0c0,0.1-0.1,0.1-0.2,0.1l0,0
						c-0.1,0-0.2-0.2-0.1-0.3l0,0C50.6,36.5,50.7,36.4,50.8,36.4z"/>
					<path id="XMLID_1946_" class="st16" d="M50.7,36.5L50.7,36.5c0.1,0,0.2,0.1,0.1,0.2l0,0c0,0.1-0.1,0.1-0.1,0.1l0,0
						c-0.1,0-0.2-0.1-0.1-0.2l0,0C50.6,36.5,50.7,36.5,50.7,36.5z"/>
				</g>
				<g id="XMLID_1942_">
					<path id="XMLID_1944_" class="st15" d="M50.1,36.8L50.1,36.8c0.1,0,0.2,0.2,0.1,0.3l0,0c0,0.1-0.1,0.1-0.2,0.1l0,0
						c-0.1,0-0.2-0.2-0.1-0.3l0,0C50,36.8,50.1,36.8,50.1,36.8z"/>
					<path id="XMLID_1943_" class="st16" d="M50.1,36.8L50.1,36.8c0.1,0,0.2,0.1,0.1,0.2l0,0c0,0.1-0.1,0.1-0.1,0.1l0,0
						c-0.1,0-0.2-0.1-0.1-0.2l0,0C50,36.9,50.1,36.8,50.1,36.8z"/>
				</g>
			</g>
		</g>
		<g id="XMLID_1812_">
			<g id="XMLID_1821_">
				<g id="XMLID_1922_">
					<g id="XMLID_1935_">
						<path id="XMLID_1939_" class="st19" d="M35.7,39.5c0-0.3,0.2-0.5,0.5-0.7v0c0.4-0.2,0.9-0.3,1.4-0.2l0,0
							c0.6,0.1,0.9,0.5,1,0.9c0,0.3-0.5,2.2-0.5,2.3c0,0.2-0.1,0.3-0.3,0.5l0,0c-0.2,0.1-0.6,0.2-0.9,0.1l0,0
							c-0.4-0.1-0.6-0.3-0.6-0.6C36.2,41.7,35.6,39.8,35.7,39.5z"/>
						<path id="XMLID_1938_" class="st20" d="M36.1,38.8L36.1,38.8c-0.8,0.5-0.6,1.4,0.5,1.7l0,0c0.5,0.1,1,0,1.4-0.2l0,0
							c0.8-0.5,0.6-1.4-0.5-1.7l0,0C37.1,38.5,36.5,38.6,36.1,38.8z"/>
						<path id="XMLID_1937_" class="st20" d="M36.1,38.6L36.1,38.6c-0.9,0.5-0.6,1.5,0.5,1.7l0,0c0.5,0.1,1.1,0,1.5-0.2l0,0
							c0.9-0.5,0.6-1.5-0.5-1.7l0,0C37.1,38.3,36.5,38.4,36.1,38.6z"/>
						<path id="XMLID_1936_" class="st20" d="M36.1,38.6L36.1,38.6c-0.8,0.5-0.6,1.4,0.5,1.7l0,0c0.5,0.1,1,0,1.4-0.2l0,0
							c0.8-0.5,0.6-1.4-0.5-1.7l0,0C37.1,38.3,36.5,38.4,36.1,38.6z"/>
					</g>
					<g id="XMLID_1923_">
						<path id="XMLID_1933_" class="st21" d="M35.8,39.7C35.8,39.6,35.8,39.6,35.8,39.7C35.8,39.6,35.8,39.6,35.8,39.7
							c0.1,0.3,0.4,0.5,0.9,0.6l0,0c0.5,0.1,1,0,1.3-0.2c0.2-0.1,0.4-0.3,0.4-0.5c0,0,0,0,0,0c0,0,0,0,0,0c0.2-0.4-0.2-0.9-0.9-1.1
							l0,0c-0.5-0.1-1,0-1.3,0.2l0,0C35.8,39,35.7,39.3,35.8,39.7z"/>
						<g id="XMLID_1924_">
							<g id="XMLID_1925_">
								<path id="XMLID_1932_" class="st22" d="M36.6,40.8c0.5,0.1,1,0,1.4-0.2c0.1-0.1,0.3-0.2,0.3-0.3c0,0,0,0.1,0,0.1
									c-0.1,0.1-0.2,0.2-0.3,0.2c-0.3,0.2-0.6,0.2-1,0.2C36.9,40.9,36.7,40.9,36.6,40.8c-0.3,0-0.6-0.2-0.8-0.3c0,0,0-0.1,0-0.1
									C36,40.6,36.3,40.8,36.6,40.8z"/>
								<g id="XMLID_1928_">
									<path id="XMLID_1931_" class="st23" d="M37.1,41.2c-0.2,0-0.3,0-0.5-0.1c-0.3-0.1-0.5-0.2-0.7-0.3c0,0,0-0.1,0-0.1
										c0.2,0.2,0.4,0.3,0.7,0.4c0.5,0.1,1,0,1.4-0.2c0.1-0.1,0.2-0.1,0.3-0.2c0,0,0,0.1,0,0.1c-0.1,0.1-0.1,0.1-0.2,0.1
										C37.8,41.1,37.4,41.2,37.1,41.2z"/>
									<path id="XMLID_1930_" class="st23" d="M38,41.4C38,41.4,38.1,41.4,38,41.4C38.1,41.4,38.1,41.4,38,41.4
										C38.1,41.4,38.1,41.5,38,41.4c-0.2,0.2-0.6,0.3-0.9,0.3c-0.2,0-0.3,0-0.5-0.1c-0.2,0-0.4-0.1-0.5-0.2c0,0,0-0.1,0-0.1
										c0.2,0.1,0.3,0.2,0.5,0.2C37.1,41.7,37.6,41.6,38,41.4z"/>
									<path id="XMLID_1929_" class="st23" d="M38,41.9C38,41.9,38,41.9,38,41.9c-0.3,0.2-0.6,0.3-0.9,0.3c-0.2,0-0.3,0-0.5-0.1
										c-0.1,0-0.3-0.1-0.4-0.1c0,0,0-0.1,0-0.1c0.1,0.1,0.3,0.1,0.4,0.2C37.1,42.2,37.6,42.1,38,41.9z"/>
								</g>
								<path id="XMLID_1927_" class="st22" d="M36.6,41.8c0.5,0.1,1,0,1.4-0.2c0,0,0,0,0,0c0,0,0,0.1,0,0.1c-0.3,0.2-0.6,0.2-1,0.2
									C36.9,42,36.7,41.9,36.6,41.8c-0.2,0-0.3,0-0.5-0.1c0,0,0,0,0-0.1C36.3,41.7,36.4,41.8,36.6,41.8z"/>
								<path id="XMLID_1926_" class="st22" d="M36.6,41.3c0.5,0.1,1,0,1.4-0.2c0.1,0,0.1-0.1,0.2-0.1c0,0,0,0.1,0,0.1
									c0,0-0.1,0.1-0.1,0.1C37.6,41.4,37.1,41.5,36.6,41.3c-0.2,0-0.4-0.1-0.6-0.2c0,0,0-0.1,0-0.1C36.1,41.2,36.4,41.3,36.6,41.3
									z"/>
							</g>
						</g>
					</g>
				</g>
				<g id="XMLID_1897_">
					<g id="XMLID_1914_">
						<g id="XMLID_1918_">
							<g id="XMLID_1920_">
								<path id="XMLID_1921_" class="st19" d="M38,40.1L38,40.1c-0.4,0.2-0.9,0.3-1.4,0.2l0,0c-0.4-0.1-0.7-0.3-0.8-0.5
									c-0.1-0.3-0.1-0.6-0.1-0.7c0-0.3,0.2-0.5,0.5-0.7l0,0c0.4-0.2,0.9-0.3,1.4-0.2l0,0c0.6,0.1,0.9,0.5,1,0.9
									c0,0.1,0,0.3-0.1,0.6C38.3,39.8,38.2,40,38,40.1z"/>
							</g>
							<path id="XMLID_1919_" class="st20" d="M35.8,38.4c0.1-0.1,0.2-0.2,0.3-0.3l0,0c0.4-0.2,0.9-0.3,1.4-0.2l0,0
								c0.4,0.1,0.6,0.3,0.8,0.5c0.3,0.3,0.3,0.7,0.1,1c-0.1,0.1-0.2,0.3-0.4,0.4l0,0c-0.4,0.2-0.9,0.3-1.4,0.2l0,0
								c-0.4-0.1-0.7-0.3-0.9-0.6C35.5,39.1,35.5,38.8,35.8,38.4z"/>
						</g>
						<g id="XMLID_1915_">
							<path id="XMLID_1916_" class="st21" d="M35.8,39.2C35.8,39.2,35.8,39.2,35.8,39.2C35.8,39.2,35.8,39.2,35.8,39.2
								c0.1,0.3,0.4,0.5,0.9,0.6l0,0c0.5,0.1,1,0,1.3-0.2c0.2-0.1,0.4-0.3,0.4-0.5c0,0,0,0,0,0c0,0,0,0,0,0c0.2-0.4-0.2-0.9-0.9-1.1
								l0,0c-0.5-0.1-1,0-1.3,0.2l0,0C35.8,38.5,35.7,38.9,35.8,39.2z"/>
						</g>
					</g>
					<g id="XMLID_1906_">
						<g id="XMLID_1910_">
							<g id="XMLID_1912_">
								<path id="XMLID_1913_" class="st19" d="M38,39.6L38,39.6c-0.4,0.2-0.9,0.3-1.4,0.2l0,0c-0.4-0.1-0.7-0.3-0.8-0.5
									c-0.1-0.3-0.1-0.6-0.1-0.7c0-0.3,0.2-0.5,0.5-0.7l0,0c0.4-0.2,0.9-0.3,1.4-0.2l0,0c0.6,0.1,0.9,0.5,1,0.9
									c0,0.1,0,0.3-0.1,0.6C38.3,39.4,38.2,39.5,38,39.6z"/>
							</g>
							<path id="XMLID_1911_" class="st20" d="M35.8,38c0.1-0.1,0.2-0.2,0.3-0.3l0,0c0.4-0.2,0.9-0.3,1.4-0.2l0,0
								c0.4,0.1,0.6,0.3,0.8,0.5c0.3,0.3,0.3,0.7,0.1,1c-0.1,0.1-0.2,0.3-0.4,0.4l0,0c-0.4,0.2-0.9,0.3-1.4,0.2l0,0
								c-0.4-0.1-0.7-0.3-0.9-0.6C35.5,38.7,35.5,38.3,35.8,38z"/>
						</g>
						<g id="XMLID_1907_">
							<path id="XMLID_1908_" class="st21" d="M35.8,38.8C35.8,38.8,35.8,38.8,35.8,38.8C35.8,38.8,35.8,38.8,35.8,38.8
								c0.1,0.3,0.4,0.5,0.9,0.6l0,0c0.5,0.1,1,0,1.3-0.2c0.2-0.1,0.4-0.3,0.4-0.5c0,0,0,0,0,0c0,0,0,0,0,0c0.2-0.4-0.2-0.9-0.9-1.1
								l0,0c-0.5-0.1-1,0-1.3,0.2l0,0C35.8,38.1,35.7,38.5,35.8,38.8z"/>
						</g>
					</g>
					<g id="XMLID_1898_">
						<g id="XMLID_1902_">
							<g id="XMLID_1904_">
								<path id="XMLID_1905_" class="st19" d="M38,39.2L38,39.2c-0.4,0.2-0.9,0.3-1.4,0.2l0,0c-0.4-0.1-0.7-0.3-0.8-0.5
									c-0.1-0.3-0.1-0.6-0.1-0.7c0-0.3,0.2-0.5,0.5-0.7l0,0c0.4-0.2,0.9-0.3,1.4-0.2l0,0c0.6,0.1,0.9,0.5,1,0.9
									c0,0.1,0,0.3-0.1,0.6C38.3,39,38.2,39.1,38,39.2z"/>
							</g>
							<path id="XMLID_1903_" class="st20" d="M35.8,37.6c0.1-0.1,0.2-0.2,0.3-0.3l0,0c0.4-0.2,0.9-0.3,1.4-0.2l0,0
								c0.4,0.1,0.6,0.3,0.8,0.5c0.3,0.3,0.3,0.7,0.1,1c-0.1,0.1-0.2,0.3-0.4,0.4l0,0c-0.4,0.2-0.9,0.3-1.4,0.2l0,0
								c-0.4-0.1-0.7-0.3-0.9-0.6C35.5,38.3,35.5,37.9,35.8,37.6z"/>
						</g>
						<g id="XMLID_1899_">
							<path id="XMLID_1900_" class="st21" d="M35.8,38.4C35.8,38.4,35.8,38.4,35.8,38.4C35.8,38.4,35.8,38.4,35.8,38.4
								c0.1,0.3,0.4,0.5,0.9,0.6l0,0c0.5,0.1,1,0,1.3-0.2c0.2-0.1,0.4-0.3,0.4-0.5c0,0,0,0,0,0c0,0,0,0,0,0c0.2-0.4-0.2-0.9-0.9-1.1
								l0,0c-0.5-0.1-1,0-1.3,0.2l0,0C35.8,37.7,35.7,38.1,35.8,38.4z"/>
						</g>
					</g>
				</g>
				<g id="XMLID_1872_">
					<g id="XMLID_1889_">
						<g id="XMLID_1893_">
							<g id="XMLID_1895_">
								<path id="XMLID_1896_" class="st19" d="M38,38.8L38,38.8c-0.4,0.2-0.9,0.3-1.4,0.2l0,0c-0.4-0.1-0.7-0.3-0.8-0.5
									c-0.1-0.3-0.1-0.6-0.1-0.7c0-0.3,0.2-0.5,0.5-0.7l0,0c0.4-0.2,0.9-0.3,1.4-0.2l0,0c0.6,0.1,0.9,0.5,1,0.9
									c0,0.1,0,0.3-0.1,0.6C38.3,38.6,38.2,38.7,38,38.8z"/>
							</g>
							<path id="XMLID_1894_" class="st20" d="M35.8,37.2c0.1-0.1,0.2-0.2,0.3-0.3l0,0c0.4-0.2,0.9-0.3,1.4-0.2l0,0
								c0.4,0.1,0.6,0.3,0.8,0.5c0.3,0.3,0.3,0.7,0.1,1c-0.1,0.1-0.2,0.3-0.4,0.4l0,0c-0.4,0.2-0.9,0.3-1.4,0.2l0,0
								c-0.4-0.1-0.7-0.3-0.9-0.6C35.5,37.9,35.5,37.5,35.8,37.2z"/>
						</g>
						<g id="XMLID_1890_">
							<path id="XMLID_1891_" class="st21" d="M35.8,37.9C35.8,37.9,35.8,37.9,35.8,37.9C35.8,37.9,35.8,37.9,35.8,37.9
								c0.1,0.3,0.4,0.5,0.9,0.6l0,0c0.5,0.1,1,0,1.3-0.2c0.2-0.1,0.4-0.3,0.4-0.5c0,0,0,0,0,0c0,0,0,0,0,0c0.2-0.4-0.2-0.9-0.9-1.1
								l0,0c-0.5-0.1-1,0-1.3,0.2l0,0C35.8,37.3,35.7,37.6,35.8,37.9z"/>
						</g>
					</g>
					<g id="XMLID_1881_">
						<g id="XMLID_1885_">
							<g id="XMLID_1887_">
								<path id="XMLID_1888_" class="st19" d="M38,38.4L38,38.4c-0.4,0.2-0.9,0.3-1.4,0.2l0,0c-0.4-0.1-0.7-0.3-0.8-0.5
									c-0.1-0.3-0.1-0.6-0.1-0.7c0-0.3,0.2-0.5,0.5-0.7l0,0c0.4-0.2,0.9-0.3,1.4-0.2l0,0c0.6,0.1,0.9,0.5,1,0.9
									c0,0.1,0,0.3-0.1,0.6C38.3,38.1,38.2,38.3,38,38.4z"/>
							</g>
							<path id="XMLID_1886_" class="st20" d="M35.8,36.8c0.1-0.1,0.2-0.2,0.3-0.3l0,0c0.4-0.2,0.9-0.3,1.4-0.2l0,0
								c0.4,0.1,0.6,0.3,0.8,0.5c0.3,0.3,0.3,0.7,0.1,1c-0.1,0.1-0.2,0.3-0.4,0.4l0,0c-0.4,0.2-0.9,0.3-1.4,0.2l0,0
								c-0.4-0.1-0.7-0.3-0.9-0.6C35.5,37.4,35.5,37.1,35.8,36.8z"/>
						</g>
						<g id="XMLID_1882_">
							<path id="XMLID_1883_" class="st21" d="M35.8,37.5C35.8,37.5,35.8,37.5,35.8,37.5C35.8,37.5,35.8,37.5,35.8,37.5
								c0.1,0.3,0.4,0.5,0.9,0.6l0,0c0.5,0.1,1,0,1.3-0.2c0.2-0.1,0.4-0.3,0.4-0.5c0,0,0,0,0,0c0,0,0,0,0,0c0.2-0.4-0.2-0.9-0.9-1.1
								l0,0c-0.5-0.1-1,0-1.3,0.2l0,0C35.8,36.8,35.7,37.2,35.8,37.5z"/>
						</g>
					</g>
					<g id="XMLID_1873_">
						<g id="XMLID_1877_">
							<g id="XMLID_1879_">
								<path id="XMLID_1880_" class="st19" d="M38,37.9L38,37.9c-0.4,0.2-0.9,0.3-1.4,0.2l0,0c-0.4-0.1-0.7-0.3-0.8-0.5
									c-0.1-0.3-0.1-0.6-0.1-0.7c0-0.3,0.2-0.5,0.5-0.7l0,0c0.4-0.2,0.9-0.3,1.4-0.2l0,0c0.6,0.1,0.9,0.5,1,0.9
									c0,0.1,0,0.3-0.1,0.6C38.3,37.7,38.2,37.8,38,37.9z"/>
							</g>
							<path id="XMLID_1878_" class="st20" d="M35.8,36.3c0.1-0.1,0.2-0.2,0.3-0.3l0,0c0.4-0.2,0.9-0.3,1.4-0.2l0,0
								c0.4,0.1,0.6,0.3,0.8,0.5c0.3,0.3,0.3,0.7,0.1,1c-0.1,0.1-0.2,0.3-0.4,0.4l0,0c-0.4,0.2-0.9,0.3-1.4,0.2l0,0
								c-0.4-0.1-0.7-0.3-0.9-0.6C35.5,37,35.5,36.6,35.8,36.3z"/>
						</g>
						<g id="XMLID_1874_">
							<path id="XMLID_1875_" class="st21" d="M35.8,37.1C35.8,37.1,35.8,37.1,35.8,37.1C35.8,37.1,35.8,37.1,35.8,37.1
								c0.1,0.3,0.4,0.5,0.9,0.6l0,0c0.5,0.1,1,0,1.3-0.2c0.2-0.1,0.4-0.3,0.4-0.5c0,0,0,0,0,0c0,0,0,0,0,0c0.2-0.4-0.2-0.9-0.9-1.1
								l0,0c-0.5-0.1-1,0-1.3,0.2l0,0C35.8,36.4,35.7,36.8,35.8,37.1z"/>
						</g>
					</g>
				</g>
				<g id="XMLID_1847_">
					<g id="XMLID_1864_">
						<g id="XMLID_1868_">
							<g id="XMLID_1870_">
								<path id="XMLID_1871_" class="st19" d="M38,37.5L38,37.5c-0.4,0.2-0.9,0.3-1.4,0.2l0,0c-0.4-0.1-0.7-0.3-0.8-0.5
									c-0.1-0.3-0.1-0.6-0.1-0.7c0-0.3,0.2-0.5,0.5-0.7l0,0c0.4-0.2,0.9-0.3,1.4-0.2l0,0c0.6,0.1,0.9,0.5,1,0.9
									c0,0.1,0,0.3-0.1,0.6C38.3,37.3,38.2,37.4,38,37.5z"/>
							</g>
							<path id="XMLID_1869_" class="st20" d="M35.8,35.9c0.1-0.1,0.2-0.2,0.3-0.3l0,0c0.4-0.2,0.9-0.3,1.4-0.2l0,0
								c0.4,0.1,0.6,0.3,0.8,0.5c0.3,0.3,0.3,0.7,0.1,1c-0.1,0.1-0.2,0.3-0.4,0.4l0,0c-0.4,0.2-0.9,0.3-1.4,0.2l0,0
								c-0.4-0.1-0.7-0.3-0.9-0.6C35.5,36.6,35.5,36.2,35.8,35.9z"/>
						</g>
						<g id="XMLID_1865_">
							<path id="XMLID_1866_" class="st21" d="M35.8,36.7C35.8,36.7,35.8,36.7,35.8,36.7C35.8,36.7,35.8,36.7,35.8,36.7
								c0.1,0.3,0.4,0.5,0.9,0.6l0,0c0.5,0.1,1,0,1.3-0.2c0.2-0.1,0.4-0.3,0.4-0.5c0,0,0,0,0,0c0,0,0,0,0,0c0.2-0.4-0.2-0.9-0.9-1.1
								l0,0c-0.5-0.1-1,0-1.3,0.2l0,0C35.8,36,35.7,36.3,35.8,36.7z"/>
						</g>
					</g>
					<g id="XMLID_1856_">
						<g id="XMLID_1860_">
							<g id="XMLID_1862_">
								<path id="XMLID_1863_" class="st19" d="M38,37.1L38,37.1c-0.4,0.2-0.9,0.3-1.4,0.2l0,0c-0.4-0.1-0.7-0.3-0.8-0.5
									c-0.1-0.3-0.1-0.6-0.1-0.7c0-0.3,0.2-0.5,0.5-0.7l0,0c0.4-0.2,0.9-0.3,1.4-0.2l0,0c0.6,0.1,0.9,0.5,1,0.9
									c0,0.1,0,0.3-0.1,0.6C38.3,36.9,38.2,37,38,37.1z"/>
							</g>
							<path id="XMLID_1861_" class="st20" d="M35.8,35.5c0.1-0.1,0.2-0.2,0.3-0.3l0,0c0.4-0.2,0.9-0.3,1.4-0.2l0,0
								c0.4,0.1,0.6,0.3,0.8,0.5c0.3,0.3,0.3,0.7,0.1,1c-0.1,0.1-0.2,0.3-0.4,0.4l0,0c-0.4,0.2-0.9,0.3-1.4,0.2l0,0
								c-0.4-0.1-0.7-0.3-0.9-0.6C35.5,36.1,35.5,35.8,35.8,35.5z"/>
						</g>
						<g id="XMLID_1857_">
							<path id="XMLID_1858_" class="st21" d="M35.8,36.2C35.8,36.2,35.8,36.2,35.8,36.2C35.8,36.2,35.8,36.2,35.8,36.2
								c0.1,0.3,0.4,0.5,0.9,0.6l0,0c0.5,0.1,1,0,1.3-0.2c0.2-0.1,0.4-0.3,0.4-0.5c0,0,0,0,0,0c0,0,0,0,0,0c0.2-0.4-0.2-0.9-0.9-1.1
								l0,0c-0.5-0.1-1,0-1.3,0.2l0,0C35.8,35.6,35.7,35.9,35.8,36.2z"/>
						</g>
					</g>
					<g id="XMLID_1848_">
						<g id="XMLID_1852_">
							<g id="XMLID_1854_">
								<path id="XMLID_1855_" class="st19" d="M38,36.6L38,36.6c-0.4,0.2-0.9,0.3-1.4,0.2l0,0c-0.4-0.1-0.7-0.3-0.8-0.5
									c-0.1-0.3-0.1-0.6-0.1-0.7c0-0.3,0.2-0.5,0.5-0.7l0,0c0.4-0.2,0.9-0.3,1.4-0.2l0,0c0.6,0.1,0.9,0.5,1,0.9
									c0,0.1,0,0.3-0.1,0.6C38.3,36.4,38.2,36.5,38,36.6z"/>
							</g>
							<path id="XMLID_1853_" class="st20" d="M35.8,35c0.1-0.1,0.2-0.2,0.3-0.3l0,0c0.4-0.2,0.9-0.3,1.4-0.2l0,0
								c0.4,0.1,0.6,0.3,0.8,0.5c0.3,0.3,0.3,0.7,0.1,1c-0.1,0.1-0.2,0.3-0.4,0.4l0,0c-0.4,0.2-0.9,0.3-1.4,0.2l0,0
								c-0.4-0.1-0.7-0.3-0.9-0.6C35.5,35.7,35.5,35.3,35.8,35z"/>
						</g>
						<g id="XMLID_1849_">
							<path id="XMLID_1850_" class="st21" d="M35.8,35.8C35.8,35.8,35.8,35.8,35.8,35.8C35.8,35.8,35.8,35.8,35.8,35.8
								c0.1,0.3,0.4,0.5,0.9,0.6l0,0c0.5,0.1,1,0,1.3-0.2c0.2-0.1,0.4-0.3,0.4-0.5c0,0,0,0,0,0c0,0,0,0,0,0c0.2-0.4-0.2-0.9-0.9-1.1
								l0,0c-0.5-0.1-1,0-1.3,0.2l0,0C35.8,35.1,35.7,35.5,35.8,35.8z"/>
						</g>
					</g>
				</g>
				<g id="XMLID_1822_">
					<g id="XMLID_1839_">
						<g id="XMLID_1843_">
							<g id="XMLID_1845_">
								<path id="XMLID_1846_" class="st19" d="M38,36.2L38,36.2c-0.4,0.2-0.9,0.3-1.4,0.2l0,0c-0.4-0.1-0.7-0.3-0.8-0.5
									c-0.1-0.3-0.1-0.6-0.1-0.7c0-0.3,0.2-0.5,0.5-0.7l0,0c0.4-0.2,0.9-0.3,1.4-0.2l0,0c0.6,0.1,0.9,0.5,1,0.9
									c0,0.1,0,0.3-0.1,0.6C38.3,36,38.2,36.1,38,36.2z"/>
							</g>
							<path id="XMLID_1844_" class="st20" d="M35.8,34.6c0.1-0.1,0.2-0.2,0.3-0.3l0,0c0.4-0.2,0.9-0.3,1.4-0.2l0,0
								c0.4,0.1,0.6,0.3,0.8,0.5c0.3,0.3,0.3,0.7,0.1,1c-0.1,0.1-0.2,0.3-0.4,0.4l0,0c-0.4,0.2-0.9,0.3-1.4,0.2l0,0
								c-0.4-0.1-0.7-0.3-0.9-0.6C35.5,35.3,35.5,34.9,35.8,34.6z"/>
						</g>
						<g id="XMLID_1840_">
							<path id="XMLID_1841_" class="st21" d="M35.8,35.4C35.8,35.4,35.8,35.4,35.8,35.4C35.8,35.4,35.8,35.4,35.8,35.4
								c0.1,0.3,0.4,0.5,0.9,0.6l0,0c0.5,0.1,1,0,1.3-0.2c0.2-0.1,0.4-0.3,0.4-0.5c0,0,0,0,0,0c0,0,0,0,0,0c0.2-0.4-0.2-0.9-0.9-1.1
								l0,0c-0.5-0.1-1,0-1.3,0.2l0,0C35.8,34.7,35.7,35.1,35.8,35.4z"/>
						</g>
					</g>
					<g id="XMLID_1831_">
						<g id="XMLID_1835_">
							<g id="XMLID_1837_">
								<path id="XMLID_1838_" class="st19" d="M38,35.8L38,35.8c-0.4,0.2-0.9,0.3-1.4,0.2l0,0c-0.4-0.1-0.7-0.3-0.8-0.5
									c-0.1-0.3-0.1-0.6-0.1-0.7c0-0.3,0.2-0.5,0.5-0.7l0,0c0.4-0.2,0.9-0.3,1.4-0.2l0,0c0.6,0.1,0.9,0.5,1,0.9
									c0,0.1,0,0.3-0.1,0.6C38.3,35.6,38.2,35.7,38,35.8z"/>
							</g>
							<path id="XMLID_1836_" class="st20" d="M35.8,34.2c0.1-0.1,0.2-0.2,0.3-0.3l0,0c0.4-0.2,0.9-0.3,1.4-0.2l0,0
								c0.4,0.1,0.6,0.3,0.8,0.5c0.3,0.3,0.3,0.7,0.1,1c-0.1,0.1-0.2,0.3-0.4,0.4l0,0c-0.4,0.2-0.9,0.3-1.4,0.2l0,0
								c-0.4-0.1-0.7-0.3-0.9-0.6C35.5,34.9,35.5,34.5,35.8,34.2z"/>
						</g>
						<g id="XMLID_1832_">
							<path id="XMLID_1833_" class="st21" d="M35.8,35C35.8,35,35.8,35,35.8,35C35.8,35,35.8,35,35.8,35c0.1,0.3,0.4,0.5,0.9,0.6
								l0,0c0.5,0.1,1,0,1.3-0.2c0.2-0.1,0.4-0.3,0.4-0.5c0,0,0,0,0,0c0,0,0,0,0,0c0.2-0.4-0.2-0.9-0.9-1.1l0,0
								c-0.5-0.1-1,0-1.3,0.2l0,0C35.8,34.3,35.7,34.6,35.8,35z"/>
						</g>
					</g>
					<g id="XMLID_1823_">
						<g id="XMLID_1827_">
							<g id="XMLID_1829_">
								<path id="XMLID_1830_" class="st19" d="M38,35.4L38,35.4c-0.4,0.2-0.9,0.3-1.4,0.2l0,0c-0.4-0.1-0.7-0.3-0.8-0.5
									c-0.1-0.3-0.1-0.6-0.1-0.7c0-0.3,0.2-0.5,0.5-0.7l0,0c0.4-0.2,0.9-0.3,1.4-0.2l0,0c0.6,0.1,0.9,0.5,1,0.9
									c0,0.1,0,0.3-0.1,0.6C38.3,35.2,38.2,35.3,38,35.4z"/>
							</g>
							<path id="XMLID_1828_" class="st20" d="M35.8,33.8c0.1-0.1,0.2-0.2,0.3-0.3l0,0c0.4-0.2,0.9-0.3,1.4-0.2l0,0
								c0.4,0.1,0.6,0.3,0.8,0.5c0.3,0.3,0.3,0.7,0.1,1c-0.1,0.1-0.2,0.3-0.4,0.4l0,0c-0.4,0.2-0.9,0.3-1.4,0.2l0,0
								c-0.4-0.1-0.7-0.3-0.9-0.6C35.5,34.4,35.5,34.1,35.8,33.8z"/>
						</g>
						<g id="XMLID_1824_">
							<path id="XMLID_1825_" class="st21" d="M35.8,34.5C35.8,34.5,35.8,34.5,35.8,34.5C35.8,34.5,35.8,34.5,35.8,34.5
								c0.1,0.3,0.4,0.5,0.9,0.6l0,0c0.5,0.1,1,0,1.3-0.2c0.2-0.1,0.4-0.3,0.4-0.5c0,0,0,0,0,0c0,0,0,0,0,0c0.2-0.4-0.2-0.9-0.9-1.1
								l0,0c-0.5-0.1-1,0-1.3,0.2l0,0C35.8,33.9,35.7,34.2,35.8,34.5z"/>
						</g>
					</g>
				</g>
			</g>
			<g id="XMLID_1813_">
				<g id="XMLID_1817_">
					<path id="XMLID_1818_" class="st24" d="M34.9,40.4l2.7,1.6V27.1l-2.7-1.6V40.4z M35.6,40V27l1.2,0.7v13.1L35.6,40z"/>
				</g>
				<polygon id="XMLID_1816_" class="st2" points="40.3,25.5 37.6,27.1 37.6,42 40.3,40.4 				"/>
				<polygon id="XMLID_1815_" class="st25" points="37.6,24 34.9,25.5 37.6,27.1 40.3,25.5 				"/>
				<polygon id="XMLID_1814_" class="st26" points="37.6,24.2 35.3,25.5 37.6,26.9 39.9,25.5 				"/>
				<polyline id="XMLID_16309_" class="st5" points="37.6,26.9 39.9,25.5 37.6,24.2 				"/>
			</g>
		</g>
	</g>
	<g id="XMLID_1766_">
		<g id="XMLID_1767_">
			<g id="XMLID_1792_">
				<path id="XMLID_16311_" class="st19" d="M50.1,45.4c0-0.3,0.2-0.7,0.6-0.9l0,0c0.5-0.3,1.2-0.4,1.8-0.2l0,0
					c0.8,0.2,1.2,0.7,1.2,1.2c0,0.3-0.7,2.8-0.7,3c0,0.2-0.1,0.4-0.4,0.6l0,0c-0.3,0.2-0.8,0.2-1.2,0.2l0,0
					c-0.5-0.1-0.8-0.4-0.8-0.7C50.7,48.3,50,45.8,50.1,45.4z"/>
				<g id="XMLID_1802_">
					<g id="XMLID_1803_">
						<path id="XMLID_1810_" class="st22" d="M51.3,47.1c0.6,0.1,1.3,0.1,1.8-0.2c0.2-0.1,0.3-0.2,0.4-0.4c0,0.1,0,0.1,0,0.2
							c-0.1,0.1-0.2,0.2-0.4,0.3c-0.4,0.2-0.8,0.3-1.2,0.3C51.7,47.3,51.5,47.3,51.3,47.1c-0.4,0-0.7-0.2-1-0.4c0-0.1,0-0.1,0-0.2
							C50.5,46.8,50.8,47,51.3,47.1z"/>
						<g id="XMLID_1806_">
							<path id="XMLID_1809_" class="st23" d="M51.9,47.6c-0.2,0-0.4,0-0.6-0.1c-0.3-0.1-0.6-0.2-0.9-0.4c0,0,0-0.1,0-0.1
								c0.2,0.2,0.5,0.4,0.9,0.5c0.6,0.1,1.3,0.1,1.8-0.2c0.1-0.1,0.2-0.2,0.3-0.3c0,0,0,0.1,0,0.1c-0.1,0.1-0.2,0.1-0.3,0.2
								C52.8,47.5,52.3,47.6,51.9,47.6z"/>
							<path id="XMLID_1808_" class="st23" d="M53.1,47.9c0,0,0.1-0.1,0.1-0.1C53.2,47.9,53.2,47.9,53.1,47.9
								C53.2,47.9,53.1,47.9,53.1,47.9c-0.3,0.3-0.8,0.4-1.2,0.4c-0.2,0-0.4,0-0.6-0.1c-0.3-0.1-0.5-0.2-0.7-0.3c0,0,0-0.1,0-0.1
								c0.2,0.1,0.4,0.2,0.7,0.3C51.9,48.3,52.6,48.2,53.1,47.9z"/>
							<path id="XMLID_1807_" class="st23" d="M53.1,48.5C53.1,48.5,53.1,48.6,53.1,48.5c-0.4,0.3-0.8,0.4-1.2,0.4
								c-0.2,0-0.4,0-0.6-0.1c-0.2,0-0.4-0.1-0.5-0.2c0,0,0-0.1,0-0.1c0.2,0.1,0.4,0.2,0.6,0.2C51.9,48.9,52.6,48.8,53.1,48.5z"/>
						</g>
						<path id="XMLID_1805_" class="st22" d="M51.3,48.5c0.6,0.1,1.3,0.1,1.8-0.2c0,0,0,0,0,0c0,0,0,0.1,0,0.1
							c-0.3,0.2-0.8,0.3-1.2,0.3C51.7,48.6,51.5,48.6,51.3,48.5c-0.2,0-0.4-0.1-0.6-0.1c0,0,0-0.1,0-0.1
							C50.8,48.3,51.1,48.4,51.3,48.5z"/>
						<path id="XMLID_1804_" class="st22" d="M51.3,47.8c0.6,0.1,1.3,0.1,1.8-0.2c0.1,0,0.2-0.1,0.2-0.2c0,0,0,0.1,0,0.1
							c0,0-0.1,0.1-0.2,0.1C52.6,47.9,51.9,48,51.3,47.8c-0.3,0-0.6-0.1-0.8-0.3c0,0,0-0.1,0-0.1C50.7,47.6,51,47.7,51.3,47.8z"/>
					</g>
				</g>
				<g id="XMLID_1796_">
					<path id="XMLID_1801_" class="st27" d="M51.9,49.2v-2.5c0,0,0.1,0,0.1,0L51.9,49.2C52,49.2,51.9,49.2,51.9,49.2z"/>
					<path id="XMLID_1800_" class="st23" d="M52.5,46.6C52.5,46.6,52.6,46.6,52.5,46.6l-0.2,2.6c0,0-0.1,0-0.1,0L52.5,46.6z"/>
					<path id="XMLID_1799_" class="st23" d="M51.3,46.6C51.3,46.7,51.4,46.7,51.3,46.6l0.4,2.6c0,0-0.1,0-0.1,0L51.3,46.6z"/>
					<path id="XMLID_1798_" class="st27" d="M53,46.4C53.1,46.4,53.1,46.4,53,46.4C53.1,46.4,53.1,46.4,53,46.4l-0.5,2.7
						c0,0-0.1,0-0.1,0L53,46.4z"/>
					<path id="XMLID_1797_" class="st27" d="M50.7,46.4C50.7,46.4,50.7,46.4,50.7,46.4l0.6,2.7c0,0-0.1,0-0.1,0L50.7,46.4z"/>
				</g>
				<path class="st28" d="M50.7,44.5c0.4-0.2,0.8-0.3,1.3-0.3v5c-0.1,0-0.3,0-0.4,0c-0.5-0.1-0.8-0.4-0.8-0.7c0-0.2-0.7-2.7-0.7-3.1
					C50.1,45.1,50.3,44.8,50.7,44.5z"/>
				<path id="XMLID_1795_" class="st20" d="M50.7,44.5L50.7,44.5c-1.1,0.6-0.7,1.8,0.6,2.1l0,0c0.6,0.1,1.3,0.1,1.8-0.2l0,0
					c1.1-0.6,0.7-1.8-0.6-2.1l0,0C51.9,44.1,51.2,44.2,50.7,44.5z"/>
				<path id="XMLID_1794_" class="st20" d="M50.6,44.3L50.6,44.3c-1.1,0.7-0.8,1.9,0.6,2.2l0,0c0.6,0.2,1.4,0.1,1.9-0.3h0
					c1.1-0.7,0.8-1.9-0.6-2.2l0,0C51.9,43.9,51.2,44,50.6,44.3z"/>
				<path id="XMLID_1793_" class="st20" d="M50.7,44.3L50.7,44.3c-1.1,0.6-0.7,1.8,0.6,2.1l0,0c0.6,0.1,1.3,0.1,1.8-0.2l0,0
					c1.1-0.6,0.7-1.8-0.6-2.1l0,0C51.9,43.9,51.2,44,50.7,44.3z"/>
			</g>
			<g id="XMLID_1788_">
				<path id="XMLID_1791_" class="st29" d="M52.5,44.8L52.5,44.8c-0.6-0.1-1.2-0.1-1.7,0.2l0,0c-0.3,0.2-0.5,0.4-0.5,0.6
					c-0.2-0.4,0-0.9,0.5-1.2l0,0c0.5-0.3,1.1-0.4,1.7-0.2h0c0.9,0.2,1.3,0.9,1.1,1.4C53.4,45.3,53.1,44.9,52.5,44.8z"/>
				<path id="XMLID_1790_" class="st30" d="M52.5,45.1L52.5,45.1c-0.6-0.1-1.2-0.1-1.7,0.2l0,0c-0.3,0.2-0.5,0.4-0.5,0.6
					c-0.2-0.4,0-0.9,0.5-1.2l0,0c0.5-0.3,1.1-0.4,1.7-0.2h0c0.9,0.2,1.3,0.9,1.1,1.4C53.4,45.5,53.1,45.2,52.5,45.1z"/>
				<path id="XMLID_1789_" class="st31" d="M53,46.2L53,46.2c-0.5,0.3-1.1,0.4-1.7,0.2l0,0c-0.6-0.1-1-0.5-1.1-0.8
					c0.1-0.2,0.3-0.4,0.5-0.6l0,0c0.5-0.3,1.1-0.4,1.7-0.2h0c0.6,0.1,1,0.5,1.1,0.8C53.5,45.8,53.3,46,53,46.2z"/>
			</g>
			<g id="XMLID_1784_">
				<ellipse id="XMLID_1787_" class="st32" cx="52.7" cy="45.8" rx="0.3" ry="0.2"/>
				<ellipse id="XMLID_1786_" class="st31" cx="52.7" cy="45.8" rx="0.2" ry="0.1"/>
				<path id="XMLID_1785_" class="st32" d="M52.8,45.8c0,0-0.1-0.1-0.1-0.1c0,0-0.1,0-0.1,0C52.6,45.7,52.7,45.7,52.8,45.8
					C52.8,45.8,52.8,45.8,52.8,45.8C52.8,45.8,52.8,45.8,52.8,45.8z"/>
			</g>
			<g id="XMLID_1780_">
				<ellipse id="XMLID_1783_" class="st32" cx="52.7" cy="45.2" rx="0.2" ry="0.1"/>
				<ellipse id="XMLID_1782_" class="st31" cx="52.7" cy="45.2" rx="0.1" ry="0.1"/>
				<path id="XMLID_1781_" class="st32" d="M52.8,45.2C52.8,45.1,52.8,45.1,52.8,45.2c-0.1,0-0.1,0-0.1,0
					C52.7,45.1,52.7,45.1,52.8,45.2C52.8,45.2,52.8,45.2,52.8,45.2C52.8,45.2,52.8,45.2,52.8,45.2z"/>
			</g>
			<g id="XMLID_1776_">
				<ellipse id="XMLID_1779_" class="st32" cx="50.7" cy="45.8" rx="0.2" ry="0.1"/>
				<ellipse id="XMLID_1778_" class="st31" cx="50.7" cy="45.8" rx="0.1" ry="0.1"/>
				<path id="XMLID_1777_" class="st32" d="M50.8,45.8C50.8,45.8,50.8,45.7,50.8,45.8c-0.1,0-0.1,0-0.1,0
					C50.7,45.8,50.7,45.8,50.8,45.8C50.8,45.8,50.8,45.8,50.8,45.8C50.8,45.8,50.8,45.8,50.8,45.8z"/>
			</g>
			<g id="XMLID_1772_">
				<ellipse id="XMLID_1775_" class="st32" cx="51.9" cy="46.1" rx="0.2" ry="0.1"/>
				<ellipse id="XMLID_1774_" class="st31" cx="51.9" cy="46.1" rx="0.1" ry="0.1"/>
				<path id="XMLID_1773_" class="st32" d="M52,46.1C52,46.1,51.9,46.1,52,46.1c-0.1,0-0.1,0-0.1,0C51.8,46.1,51.9,46.1,52,46.1
					C51.9,46.1,51.9,46.1,52,46.1C52,46.1,52,46.1,52,46.1z"/>
			</g>
			<g id="XMLID_1768_">
				<ellipse id="XMLID_1771_" class="st32" cx="51.4" cy="45.4" rx="0.3" ry="0.1"/>
				<ellipse id="XMLID_1770_" class="st31" cx="51.4" cy="45.4" rx="0.2" ry="0.1"/>
				<path id="XMLID_1769_" class="st32" d="M51.5,45.4c0,0-0.1-0.1-0.1-0.1c0,0-0.1,0-0.1,0C51.3,45.3,51.4,45.3,51.5,45.4
					C51.5,45.4,51.5,45.4,51.5,45.4C51.5,45.4,51.5,45.4,51.5,45.4z"/>
			</g>
		</g>
	</g>
</g>
</svg>
