<?xml version="1.0" encoding="utf-8"?>
<!-- Generator: Adobe Illustrator 21.0.0, SVG Export Plug-In . SVG Version: 6.00 Build 0)  -->
<svg version="1.1" id="Layer_1" xmlns="http://www.w3.org/2000/svg" xmlns:xlink="http://www.w3.org/1999/xlink" x="0px" y="0px"
	 viewBox="0 0 80 80" style="enable-background:new 0 0 80 80;" xml:space="preserve">
<style type="text/css">
	.st0{fill:#252726;}
	.st1{fill:#181919;}
	.st2{fill:#444748;}
	.st3{opacity:0.1;fill:#444748;}
	.st4{fill:#616161;}
	.st5{fill:#5C5D5D;}
	.st6{fill:#7A2B18;}
	.st7{fill:#F5F3DF;}
	.st8{fill:#E9E7D1;}
	.st9{fill:#883220;}
	.st10{fill:#66261C;}
	.st11{fill:#373A3A;}
	.st12{fill:#4F504F;}
	.st13{fill:#676969;}
</style>
<g id="XMLID_2069_">
	<polygon id="XMLID_2072_" class="st0" points="57,14.3 57,66.7 37.6,77.9 37.6,25.5 	"/>
	<polyline id="XMLID_16307_" class="st1" points="37.6,77.9 37.6,25.5 57,14.3 	"/>
	<polygon id="XMLID_2071_" class="st2" points="18.2,14.3 37.6,25.5 37.6,77.9 18.2,66.7 	"/>
	<polyline id="XMLID_16308_" class="st3" points="18.2,14.3 37.6,25.5 37.6,77.9 	"/>
	<polygon id="XMLID_2070_" class="st4" points="37.6,3.1 57,14.3 37.6,25.5 18.2,14.3 	"/>
	<polyline id="XMLID_16310_" class="st5" points="57,14.3 37.6,25.5 18.2,14.3 	"/>
</g>
<g id="XMLID_1812_">
	<g id="XMLID_1821_">
		<g id="XMLID_1922_">
			<g id="XMLID_1935_">
				<path id="XMLID_1939_" class="st6" d="M59,29.8c0-0.3-0.2-0.5-0.5-0.7v0c-0.4-0.2-0.9-0.3-1.4-0.2l0,0c-0.6,0.1-0.9,0.5-1,0.9
					c0,0.3,0.5,2.2,0.5,2.3c0,0.2,0.1,0.3,0.3,0.5l0,0c0.2,0.1,0.6,0.2,0.9,0.1l0,0c0.4-0.1,0.6-0.3,0.6-0.6
					C58.5,32,59,30.1,59,29.8z"/>
				<path id="XMLID_1938_" class="st7" d="M58.5,29.1L58.5,29.1c0.8,0.5,0.6,1.4-0.5,1.7l0,0c-0.5,0.1-1,0-1.4-0.2l0,0
					c-0.8-0.5-0.6-1.4,0.5-1.7l0,0C57.6,28.8,58.1,28.9,58.5,29.1z"/>
				<path id="XMLID_1937_" class="st7" d="M58.5,29L58.5,29c0.9,0.5,0.6,1.5-0.5,1.7l0,0c-0.5,0.1-1.1,0-1.5-0.2l0,0
					C55.7,30,56,29,57.1,28.8l0,0C57.6,28.7,58.1,28.8,58.5,29z"/>
				<path id="XMLID_1936_" class="st7" d="M58.5,28.9L58.5,28.9c0.8,0.5,0.6,1.4-0.5,1.7l0,0c-0.5,0.1-1,0-1.4-0.2l0,0
					c-0.8-0.5-0.6-1.4,0.5-1.7l0,0C57.6,28.6,58.1,28.7,58.5,28.9z"/>
			</g>
			<g id="XMLID_1923_">
				<path id="XMLID_1933_" class="st8" d="M58.4,29.1L58.4,29.1c-0.4-0.2-0.9-0.3-1.3-0.2l0,0c-0.7,0.2-1,0.7-0.9,1.1c0,0,0,0,0,0
					c0,0,0,0,0,0c0.1,0.2,0.2,0.3,0.4,0.5c0.4,0.2,0.9,0.3,1.3,0.2l0,0c0.5-0.1,0.7-0.3,0.9-0.6c0,0,0,0,0,0c0,0,0,0,0,0
					C59,29.7,58.9,29.3,58.4,29.1z"/>
				<g id="XMLID_1924_">
					<g id="XMLID_1925_">
						<path id="XMLID_1932_" class="st9" d="M58,31.2c-0.5,0.1-1,0-1.4-0.2c-0.1-0.1-0.3-0.2-0.3-0.3c0,0,0,0.1,0,0.1
							c0.1,0.1,0.2,0.2,0.3,0.2c0.3,0.2,0.6,0.2,1,0.2C57.7,31.3,57.9,31.3,58,31.2c0.3,0,0.6-0.2,0.8-0.3c0,0,0-0.1,0-0.1
							C58.7,30.9,58.4,31.1,58,31.2z"/>
						<g id="XMLID_1928_">
							<path id="XMLID_1931_" class="st10" d="M57.6,31.5c0.2,0,0.3,0,0.5-0.1c0.3-0.1,0.5-0.2,0.7-0.3c0,0,0-0.1,0-0.1
								c-0.2,0.2-0.4,0.3-0.7,0.4c-0.5,0.1-1,0-1.4-0.2c-0.1-0.1-0.2-0.1-0.3-0.2c0,0,0,0.1,0,0.1c0.1,0.1,0.1,0.1,0.2,0.1
								C56.9,31.4,57.2,31.5,57.6,31.5z"/>
							<path id="XMLID_1930_" class="st10" d="M56.6,31.8C56.6,31.7,56.6,31.7,56.6,31.8C56.5,31.7,56.6,31.7,56.6,31.8
								C56.6,31.8,56.6,31.8,56.6,31.8c0.2,0.2,0.6,0.3,0.9,0.3c0.2,0,0.3,0,0.5-0.1c0.2,0,0.4-0.1,0.5-0.2c0,0,0-0.1,0-0.1
								c-0.2,0.1-0.3,0.2-0.5,0.2C57.6,32.1,57,32,56.6,31.8z"/>
							<path id="XMLID_1929_" class="st10" d="M56.6,32.2C56.6,32.3,56.7,32.3,56.6,32.2c0.3,0.2,0.6,0.3,0.9,0.3
								c0.2,0,0.3,0,0.5-0.1c0.1,0,0.3-0.1,0.4-0.1c0,0,0-0.1,0-0.1c-0.1,0.1-0.3,0.1-0.4,0.2C57.6,32.5,57,32.5,56.6,32.2z"/>
						</g>
						<path id="XMLID_1927_" class="st9" d="M58,32.2c-0.5,0.1-1,0-1.4-0.2c0,0,0,0,0,0c0,0,0,0.1,0,0.1c0.3,0.2,0.6,0.2,1,0.2
							C57.7,32.3,57.9,32.3,58,32.2c0.2,0,0.3,0,0.5-0.1c0,0,0,0,0-0.1C58.4,32.1,58.2,32.1,58,32.2z"/>
						<path id="XMLID_1926_" class="st9" d="M58,31.7c-0.5,0.1-1,0-1.4-0.2c-0.1,0-0.1-0.1-0.2-0.1c0,0,0,0.1,0,0.1
							c0,0,0.1,0.1,0.1,0.1C57,31.8,57.6,31.9,58,31.7c0.2,0,0.4-0.1,0.6-0.2c0,0,0-0.1,0-0.1C58.5,31.5,58.3,31.6,58,31.7z"/>
					</g>
				</g>
			</g>
		</g>
		<g id="XMLID_1897_">
			<g id="XMLID_1914_">
				<g id="XMLID_1918_">
					<g id="XMLID_1920_">
						<path id="XMLID_1921_" class="st6" d="M56.6,30.4L56.6,30.4c0.4,0.2,0.9,0.3,1.4,0.2l0,0c0.4-0.1,0.7-0.3,0.8-0.5
							c0.1-0.3,0.1-0.6,0.1-0.7c0-0.3-0.2-0.5-0.5-0.7l0,0c-0.4-0.2-0.9-0.3-1.4-0.2l0,0c-0.6,0.1-0.9,0.5-1,0.9
							c0,0.1,0,0.3,0.1,0.6C56.3,30.2,56.5,30.3,56.6,30.4z"/>
					</g>
					<path id="XMLID_1919_" class="st7" d="M58.8,28.8c-0.1-0.1-0.2-0.2-0.3-0.3l0,0c-0.4-0.2-0.9-0.3-1.4-0.2l0,0
						c-0.4,0.1-0.6,0.3-0.8,0.5c-0.3,0.3-0.3,0.7-0.1,1c0.1,0.1,0.2,0.3,0.4,0.4l0,0c0.4,0.2,0.9,0.3,1.4,0.2l0,0
						c0.4-0.1,0.7-0.3,0.9-0.6C59.1,29.5,59.1,29.1,58.8,28.8z"/>
				</g>
				<g id="XMLID_1915_">
					<path id="XMLID_1916_" class="st8" d="M58.4,28.6L58.4,28.6c-0.4-0.2-0.9-0.3-1.3-0.2l0,0c-0.7,0.2-1,0.7-0.9,1.1c0,0,0,0,0,0
						c0,0,0,0,0,0c0.1,0.2,0.2,0.3,0.4,0.5c0.4,0.2,0.9,0.3,1.3,0.2l0,0c0.5-0.1,0.7-0.3,0.9-0.6c0,0,0,0,0,0c0,0,0,0,0,0
						C59,29.2,58.9,28.9,58.4,28.6z"/>
				</g>
			</g>
			<g id="XMLID_1906_">
				<g id="XMLID_1910_">
					<g id="XMLID_1912_">
						<path id="XMLID_1913_" class="st6" d="M56.6,30L56.6,30c0.4,0.2,0.9,0.3,1.4,0.2l0,0c0.4-0.1,0.7-0.3,0.8-0.5
							c0.1-0.3,0.1-0.6,0.1-0.7c0-0.3-0.2-0.5-0.5-0.7l0,0c-0.4-0.2-0.9-0.3-1.4-0.2l0,0c-0.6,0.1-0.9,0.5-1,0.9
							c0,0.1,0,0.3,0.1,0.6C56.3,29.8,56.5,29.9,56.6,30z"/>
					</g>
					<path id="XMLID_1911_" class="st7" d="M58.8,28.4c-0.1-0.1-0.2-0.2-0.3-0.3l0,0c-0.4-0.2-0.9-0.3-1.4-0.2l0,0
						c-0.4,0.1-0.6,0.3-0.8,0.5c-0.3,0.3-0.3,0.7-0.1,1c0.1,0.1,0.2,0.3,0.4,0.4l0,0C57,30,57.5,30,58,29.9l0,0
						c0.4-0.1,0.7-0.3,0.9-0.6C59.1,29.1,59.1,28.7,58.8,28.4z"/>
				</g>
				<g id="XMLID_1907_">
					<path id="XMLID_1908_" class="st8" d="M58.4,28.2L58.4,28.2c-0.4-0.2-0.9-0.3-1.3-0.2l0,0c-0.7,0.2-1,0.7-0.9,1.1c0,0,0,0,0,0
						c0,0,0,0,0,0c0.1,0.2,0.2,0.3,0.4,0.5c0.4,0.2,0.9,0.3,1.3,0.2l0,0c0.5-0.1,0.7-0.3,0.9-0.6c0,0,0,0,0,0c0,0,0,0,0,0
						C59,28.8,58.9,28.5,58.4,28.2z"/>
				</g>
			</g>
			<g id="XMLID_1898_">
				<g id="XMLID_1902_">
					<g id="XMLID_1904_">
						<path id="XMLID_1905_" class="st6" d="M56.6,29.6L56.6,29.6c0.4,0.2,0.9,0.3,1.4,0.2l0,0c0.4-0.1,0.7-0.3,0.8-0.5
							c0.1-0.3,0.1-0.6,0.1-0.7c0-0.3-0.2-0.5-0.5-0.7l0,0c-0.4-0.2-0.9-0.3-1.4-0.2l0,0c-0.6,0.1-0.9,0.5-1,0.9
							c0,0.1,0,0.3,0.1,0.6C56.3,29.3,56.5,29.5,56.6,29.6z"/>
					</g>
					<path id="XMLID_1903_" class="st7" d="M58.8,27.9c-0.1-0.1-0.2-0.2-0.3-0.3l0,0c-0.4-0.2-0.9-0.3-1.4-0.2l0,0
						c-0.4,0.1-0.6,0.3-0.8,0.5c-0.3,0.3-0.3,0.7-0.1,1c0.1,0.1,0.2,0.3,0.4,0.4l0,0c0.4,0.2,0.9,0.3,1.4,0.2l0,0
						c0.4-0.1,0.7-0.3,0.9-0.6C59.1,28.6,59.1,28.2,58.8,27.9z"/>
				</g>
				<g id="XMLID_1899_">
					<path id="XMLID_1900_" class="st8" d="M58.4,27.8L58.4,27.8c-0.4-0.2-0.9-0.3-1.3-0.2l0,0c-0.7,0.2-1,0.7-0.9,1.1c0,0,0,0,0,0
						c0,0,0,0,0,0c0.1,0.2,0.2,0.3,0.4,0.5c0.4,0.2,0.9,0.3,1.3,0.2l0,0c0.5-0.1,0.7-0.3,0.9-0.6c0,0,0,0,0,0c0,0,0,0,0,0
						C59,28.4,58.9,28,58.4,27.8z"/>
				</g>
			</g>
		</g>
		<g id="XMLID_1872_">
			<g id="XMLID_1889_">
				<g id="XMLID_1893_">
					<g id="XMLID_1895_">
						<path id="XMLID_1896_" class="st6" d="M56.6,29.1L56.6,29.1c0.4,0.2,0.9,0.3,1.4,0.2l0,0c0.4-0.1,0.7-0.3,0.8-0.5
							c0.1-0.3,0.1-0.6,0.1-0.7c0-0.3-0.2-0.5-0.5-0.7l0,0c-0.4-0.2-0.9-0.3-1.4-0.2l0,0c-0.6,0.1-0.9,0.5-1,0.9
							c0,0.1,0,0.3,0.1,0.6C56.3,28.9,56.5,29,56.6,29.1z"/>
					</g>
					<path id="XMLID_1894_" class="st7" d="M58.8,27.5c-0.1-0.1-0.2-0.2-0.3-0.3l0,0c-0.4-0.2-0.9-0.3-1.4-0.2l0,0
						c-0.4,0.1-0.6,0.3-0.8,0.5c-0.3,0.3-0.3,0.7-0.1,1c0.1,0.1,0.2,0.3,0.4,0.4l0,0c0.4,0.2,0.9,0.3,1.4,0.2l0,0
						c0.4-0.1,0.7-0.3,0.9-0.6C59.1,28.2,59.1,27.8,58.8,27.5z"/>
				</g>
				<g id="XMLID_1890_">
					<path id="XMLID_1891_" class="st8" d="M58.4,27.4L58.4,27.4c-0.4-0.2-0.9-0.3-1.3-0.2l0,0c-0.7,0.2-1,0.7-0.9,1.1c0,0,0,0,0,0
						c0,0,0,0,0,0c0.1,0.2,0.2,0.3,0.4,0.5c0.4,0.2,0.9,0.3,1.3,0.2l0,0c0.5-0.1,0.7-0.3,0.9-0.6c0,0,0,0,0,0c0,0,0,0,0,0
						C59,28,58.9,27.6,58.4,27.4z"/>
				</g>
			</g>
			<g id="XMLID_1881_">
				<g id="XMLID_1885_">
					<g id="XMLID_1887_">
						<path id="XMLID_1888_" class="st6" d="M56.6,28.7L56.6,28.7c0.4,0.2,0.9,0.3,1.4,0.2l0,0c0.4-0.1,0.7-0.3,0.8-0.5
							c0.1-0.3,0.1-0.6,0.1-0.7c0-0.3-0.2-0.5-0.5-0.7l0,0c-0.4-0.2-0.9-0.3-1.4-0.2l0,0c-0.6,0.1-0.9,0.5-1,0.9
							c0,0.1,0,0.3,0.1,0.6C56.3,28.5,56.5,28.6,56.6,28.7z"/>
					</g>
					<path id="XMLID_1886_" class="st7" d="M58.8,27.1c-0.1-0.1-0.2-0.2-0.3-0.3l0,0c-0.4-0.2-0.9-0.3-1.4-0.2l0,0
						c-0.4,0.1-0.6,0.3-0.8,0.5c-0.3,0.3-0.3,0.7-0.1,1c0.1,0.1,0.2,0.3,0.4,0.4l0,0c0.4,0.2,0.9,0.3,1.4,0.2l0,0
						c0.4-0.1,0.7-0.3,0.9-0.6C59.1,27.8,59.1,27.4,58.8,27.1z"/>
				</g>
				<g id="XMLID_1882_">
					<path id="XMLID_1883_" class="st8" d="M58.4,26.9L58.4,26.9c-0.4-0.2-0.9-0.3-1.3-0.2l0,0c-0.7,0.2-1,0.7-0.9,1.1c0,0,0,0,0,0
						c0,0,0,0,0,0c0.1,0.2,0.2,0.3,0.4,0.5c0.4,0.2,0.9,0.3,1.3,0.2l0,0c0.5-0.1,0.7-0.3,0.9-0.6c0,0,0,0,0,0c0,0,0,0,0,0
						C59,27.5,58.9,27.2,58.4,26.9z"/>
				</g>
			</g>
			<g id="XMLID_1873_">
				<g id="XMLID_1877_">
					<g id="XMLID_1879_">
						<path id="XMLID_1880_" class="st6" d="M56.6,28.3L56.6,28.3c0.4,0.2,0.9,0.3,1.4,0.2l0,0c0.4-0.1,0.7-0.3,0.8-0.5
							c0.1-0.3,0.1-0.6,0.1-0.7c0-0.3-0.2-0.5-0.5-0.7l0,0c-0.4-0.2-0.9-0.3-1.4-0.2l0,0c-0.6,0.1-0.9,0.5-1,0.9
							c0,0.1,0,0.3,0.1,0.6C56.3,28.1,56.5,28.2,56.6,28.3z"/>
					</g>
					<path id="XMLID_1878_" class="st7" d="M58.8,26.7c-0.1-0.1-0.2-0.2-0.3-0.3l0,0c-0.4-0.2-0.9-0.3-1.4-0.2l0,0
						c-0.4,0.1-0.6,0.3-0.8,0.5c-0.3,0.3-0.3,0.7-0.1,1c0.1,0.1,0.2,0.3,0.4,0.4l0,0c0.4,0.2,0.9,0.3,1.4,0.2l0,0
						c0.4-0.1,0.7-0.3,0.9-0.6C59.1,27.3,59.1,27,58.8,26.7z"/>
				</g>
				<g id="XMLID_1874_">
					<path id="XMLID_1875_" class="st8" d="M58.4,26.5L58.4,26.5c-0.4-0.2-0.9-0.3-1.3-0.2l0,0c-0.7,0.2-1,0.7-0.9,1.1c0,0,0,0,0,0
						c0,0,0,0,0,0c0.1,0.2,0.2,0.3,0.4,0.5c0.4,0.2,0.9,0.3,1.3,0.2l0,0c0.5-0.1,0.7-0.3,0.9-0.6c0,0,0,0,0,0c0,0,0,0,0,0
						C59,27.1,58.9,26.8,58.4,26.5z"/>
				</g>
			</g>
		</g>
		<g id="XMLID_1847_">
			<g id="XMLID_1864_">
				<g id="XMLID_1868_">
					<g id="XMLID_1870_">
						<path id="XMLID_1871_" class="st6" d="M56.6,27.8L56.6,27.8c0.4,0.2,0.9,0.3,1.4,0.2l0,0c0.4-0.1,0.7-0.3,0.8-0.5
							c0.1-0.3,0.1-0.6,0.1-0.7c0-0.3-0.2-0.5-0.5-0.7l0,0c-0.4-0.2-0.9-0.3-1.4-0.2l0,0c-0.6,0.1-0.9,0.5-1,0.9
							c0,0.1,0,0.3,0.1,0.6C56.3,27.6,56.5,27.7,56.6,27.8z"/>
					</g>
					<path id="XMLID_1869_" class="st7" d="M58.8,26.2c-0.1-0.1-0.2-0.2-0.3-0.3l0,0c-0.4-0.2-0.9-0.3-1.4-0.2l0,0
						c-0.4,0.1-0.6,0.3-0.8,0.5c-0.3,0.3-0.3,0.7-0.1,1c0.1,0.1,0.2,0.3,0.4,0.4l0,0c0.4,0.2,0.9,0.3,1.4,0.2l0,0
						c0.4-0.1,0.7-0.3,0.9-0.6C59.1,26.9,59.1,26.5,58.8,26.2z"/>
				</g>
				<g id="XMLID_1865_">
					<path id="XMLID_1866_" class="st8" d="M58.4,26.1L58.4,26.1c-0.4-0.2-0.9-0.3-1.3-0.2l0,0c-0.7,0.2-1,0.7-0.9,1.1c0,0,0,0,0,0
						c0,0,0,0,0,0c0.1,0.2,0.2,0.3,0.4,0.5c0.4,0.2,0.9,0.3,1.3,0.2l0,0c0.5-0.1,0.7-0.3,0.9-0.6c0,0,0,0,0,0c0,0,0,0,0,0
						C59,26.7,58.9,26.3,58.4,26.1z"/>
				</g>
			</g>
			<g id="XMLID_1856_">
				<g id="XMLID_1860_">
					<g id="XMLID_1862_">
						<path id="XMLID_1863_" class="st6" d="M56.6,27.4L56.6,27.4c0.4,0.2,0.9,0.3,1.4,0.2l0,0c0.4-0.1,0.7-0.3,0.8-0.5
							c0.1-0.3,0.1-0.6,0.1-0.7c0-0.3-0.2-0.5-0.5-0.7l0,0c-0.4-0.2-0.9-0.3-1.4-0.2l0,0c-0.6,0.1-0.9,0.5-1,0.9
							c0,0.1,0,0.3,0.1,0.6C56.3,27.2,56.5,27.3,56.6,27.4z"/>
					</g>
					<path id="XMLID_1861_" class="st7" d="M58.8,25.8c-0.1-0.1-0.2-0.2-0.3-0.3l0,0c-0.4-0.2-0.9-0.3-1.4-0.2l0,0
						c-0.4,0.1-0.6,0.3-0.8,0.5c-0.3,0.3-0.3,0.7-0.1,1c0.1,0.1,0.2,0.3,0.4,0.4l0,0c0.4,0.2,0.9,0.3,1.4,0.2l0,0
						c0.4-0.1,0.7-0.3,0.9-0.6C59.1,26.5,59.1,26.1,58.8,25.8z"/>
				</g>
				<g id="XMLID_1857_">
					<path id="XMLID_1858_" class="st8" d="M58.4,25.7L58.4,25.7c-0.4-0.2-0.9-0.3-1.3-0.2l0,0c-0.7,0.2-1,0.7-0.9,1.1c0,0,0,0,0,0
						c0,0,0,0,0,0c0.1,0.2,0.2,0.3,0.4,0.5c0.4,0.2,0.9,0.3,1.3,0.2l0,0c0.5-0.1,0.7-0.3,0.9-0.6c0,0,0,0,0,0c0,0,0,0,0,0
						C59,26.3,58.9,25.9,58.4,25.7z"/>
				</g>
			</g>
			<g id="XMLID_1848_">
				<g id="XMLID_1852_">
					<g id="XMLID_1854_">
						<path id="XMLID_1855_" class="st6" d="M56.6,27L56.6,27c0.4,0.2,0.9,0.3,1.4,0.2l0,0c0.4-0.1,0.7-0.3,0.8-0.5
							c0.1-0.3,0.1-0.6,0.1-0.7c0-0.3-0.2-0.5-0.5-0.7l0,0c-0.4-0.2-0.9-0.3-1.4-0.2l0,0c-0.6,0.1-0.9,0.5-1,0.9
							c0,0.1,0,0.3,0.1,0.6C56.3,26.8,56.5,26.9,56.6,27z"/>
					</g>
					<path id="XMLID_1853_" class="st7" d="M58.8,25.4c-0.1-0.1-0.2-0.2-0.3-0.3l0,0c-0.4-0.2-0.9-0.3-1.4-0.2l0,0
						c-0.4,0.1-0.6,0.3-0.8,0.5c-0.3,0.3-0.3,0.7-0.1,1c0.1,0.1,0.2,0.3,0.4,0.4l0,0C57,27,57.5,27,58,26.9l0,0
						c0.4-0.1,0.7-0.3,0.9-0.6C59.1,26.1,59.1,25.7,58.8,25.4z"/>
				</g>
				<g id="XMLID_1849_">
					<path id="XMLID_1850_" class="st8" d="M58.4,25.2L58.4,25.2c-0.4-0.2-0.9-0.3-1.3-0.2l0,0c-0.7,0.2-1,0.7-0.9,1.1c0,0,0,0,0,0
						c0,0,0,0,0,0c0.1,0.2,0.2,0.3,0.4,0.5c0.4,0.2,0.9,0.3,1.3,0.2l0,0c0.5-0.1,0.7-0.3,0.9-0.6c0,0,0,0,0,0c0,0,0,0,0,0
						C59,25.8,58.9,25.5,58.4,25.2z"/>
				</g>
			</g>
		</g>
		<g id="XMLID_1822_">
			<g id="XMLID_1839_">
				<g id="XMLID_1843_">
					<g id="XMLID_1845_">
						<path id="XMLID_1846_" class="st6" d="M56.6,26.6L56.6,26.6c0.4,0.2,0.9,0.3,1.4,0.2l0,0c0.4-0.1,0.7-0.3,0.8-0.5
							c0.1-0.3,0.1-0.6,0.1-0.7c0-0.3-0.2-0.5-0.5-0.7l0,0c-0.4-0.2-0.9-0.3-1.4-0.2l0,0c-0.6,0.1-0.9,0.5-1,0.9
							c0,0.1,0,0.3,0.1,0.6C56.3,26.3,56.5,26.5,56.6,26.6z"/>
					</g>
					<path id="XMLID_1844_" class="st7" d="M58.8,25c-0.1-0.1-0.2-0.2-0.3-0.3l0,0c-0.4-0.2-0.9-0.3-1.4-0.2l0,0
						c-0.4,0.1-0.6,0.3-0.8,0.5c-0.3,0.3-0.3,0.7-0.1,1c0.1,0.1,0.2,0.3,0.4,0.4l0,0c0.4,0.2,0.9,0.3,1.4,0.2l0,0
						c0.4-0.1,0.7-0.3,0.9-0.6C59.1,25.6,59.1,25.3,58.8,25z"/>
				</g>
				<g id="XMLID_1840_">
					<path id="XMLID_1841_" class="st8" d="M58.4,24.8L58.4,24.8c-0.4-0.2-0.9-0.3-1.3-0.2l0,0c-0.7,0.2-1,0.7-0.9,1.1c0,0,0,0,0,0
						c0,0,0,0,0,0c0.1,0.2,0.2,0.3,0.4,0.5c0.4,0.2,0.9,0.3,1.3,0.2l0,0c0.5-0.1,0.7-0.3,0.9-0.6c0,0,0,0,0,0c0,0,0,0,0,0
						C59,25.4,58.9,25,58.4,24.8z"/>
				</g>
			</g>
			<g id="XMLID_1831_">
				<g id="XMLID_1835_">
					<g id="XMLID_1837_">
						<path id="XMLID_1838_" class="st6" d="M56.6,26.1L56.6,26.1c0.4,0.2,0.9,0.3,1.4,0.2l0,0c0.4-0.1,0.7-0.3,0.8-0.5
							c0.1-0.3,0.1-0.6,0.1-0.7c0-0.3-0.2-0.5-0.5-0.7l0,0c-0.4-0.2-0.9-0.3-1.4-0.2l0,0c-0.6,0.1-0.9,0.5-1,0.9
							c0,0.1,0,0.3,0.1,0.6C56.3,25.9,56.5,26,56.6,26.1z"/>
					</g>
					<path id="XMLID_1836_" class="st7" d="M58.8,24.5c-0.1-0.1-0.2-0.2-0.3-0.3l0,0c-0.4-0.2-0.9-0.3-1.4-0.2l0,0
						c-0.4,0.1-0.6,0.3-0.8,0.5c-0.3,0.3-0.3,0.7-0.1,1c0.1,0.1,0.2,0.3,0.4,0.4l0,0c0.4,0.2,0.9,0.3,1.4,0.2l0,0
						c0.4-0.1,0.7-0.3,0.9-0.6C59.1,25.2,59.1,24.8,58.8,24.5z"/>
				</g>
				<g id="XMLID_1832_">
					<path id="XMLID_1833_" class="st8" d="M58.4,24.4L58.4,24.4c-0.4-0.2-0.9-0.3-1.3-0.2l0,0c-0.7,0.2-1,0.7-0.9,1.1c0,0,0,0,0,0
						c0,0,0,0,0,0c0.1,0.2,0.2,0.3,0.4,0.5C57,26,57.5,26,58,25.9l0,0c0.5-0.1,0.7-0.3,0.9-0.6c0,0,0,0,0,0c0,0,0,0,0,0
						C59,25,58.9,24.6,58.4,24.4z"/>
				</g>
			</g>
			<g id="XMLID_1823_">
				<g id="XMLID_1827_">
					<g id="XMLID_1829_">
						<path id="XMLID_1830_" class="st6" d="M56.6,25.7L56.6,25.7c0.4,0.2,0.9,0.3,1.4,0.2l0,0c0.4-0.1,0.7-0.3,0.8-0.5
							c0.1-0.3,0.1-0.6,0.1-0.7c0-0.3-0.2-0.5-0.5-0.7l0,0c-0.4-0.2-0.9-0.3-1.4-0.2l0,0c-0.6,0.1-0.9,0.5-1,0.9
							c0,0.1,0,0.3,0.1,0.6C56.3,25.5,56.5,25.6,56.6,25.7z"/>
					</g>
					<path id="XMLID_1828_" class="st7" d="M58.8,24.1c-0.1-0.1-0.2-0.2-0.3-0.3l0,0c-0.4-0.2-0.9-0.3-1.4-0.2l0,0
						c-0.4,0.1-0.6,0.3-0.8,0.5c-0.3,0.3-0.3,0.7-0.1,1c0.1,0.1,0.2,0.3,0.4,0.4l0,0c0.4,0.2,0.9,0.3,1.4,0.2l0,0
						c0.4-0.1,0.7-0.3,0.9-0.6C59.1,24.8,59.1,24.4,58.8,24.1z"/>
				</g>
				<g id="XMLID_1824_">
					<path id="XMLID_1825_" class="st8" d="M58.4,23.9L58.4,23.9c-0.4-0.2-0.9-0.3-1.3-0.2l0,0c-0.7,0.2-1,0.7-0.9,1.1c0,0,0,0,0,0
						c0,0,0,0,0,0c0.1,0.2,0.2,0.3,0.4,0.5c0.4,0.2,0.9,0.3,1.3,0.2l0,0c0.5-0.1,0.7-0.3,0.9-0.6c0,0,0,0,0,0c0,0,0,0,0,0
						C59,24.6,58.9,24.2,58.4,23.9z"/>
				</g>
			</g>
		</g>
	</g>
	<g id="XMLID_1813_">
		<g id="XMLID_1817_">
			<path id="XMLID_1818_" class="st11" d="M59.8,15.9L57,17.5v14.9l2.7-1.6V15.9z M57.8,31.1V18l1.2-0.7v13.1L57.8,31.1z"/>
		</g>
		<polygon id="XMLID_1816_" class="st2" points="54.3,15.9 57,17.5 57,32.3 54.3,30.7 		"/>
		<polygon id="XMLID_1815_" class="st12" points="57,14.3 59.8,15.9 57,17.5 54.3,15.9 		"/>
		<polygon id="XMLID_1814_" class="st13" points="57,14.6 59.3,15.9 57,17.2 54.8,15.9 		"/>
		<polyline id="XMLID_16309_" class="st5" points="57,17.2 54.8,15.9 57,14.6 		"/>
	</g>
</g>
</svg>
