<?xml version="1.0" encoding="utf-8"?>
<!-- Generator: Adobe Illustrator 21.0.0, SVG Export Plug-In . SVG Version: 6.00 Build 0)  -->
<svg version="1.1" id="Layer_1" xmlns="http://www.w3.org/2000/svg" xmlns:xlink="http://www.w3.org/1999/xlink" x="0px" y="0px"
	 viewBox="0 0 80 80" style="enable-background:new 0 0 80 80;" xml:space="preserve">
<style type="text/css">
	.st0{opacity:0.3;fill:#7ECDC8;}
	.st1{fill:#BBBBBB;}
	.st2{fill:#CBCACA;}
	.st3{fill:#D5D6D6;}
	.st4{fill:#E3E4E3;}
	.st5{fill:#BFC0C1;}
	.st6{fill:#ABABAB;}
	.st7{fill:#9A9A9C;}
	.st8{fill:#C9C9CA;}
	.st9{fill:#A3A6A8;}
	.st10{fill:#D4D4D3;}
	.st11{fill:#BBBBBA;}
	.st12{fill:#DBDDDB;}
	.st13{fill:#C6C4C3;}
	.st14{fill:#858485;}
	.st15{opacity:0.3;}
	.st16{fill:#7ECDC8;}
	.st17{fill:#FFFFFF;}
	.st18{fill:#E8E7E7;}
	.st19{fill:#ECECEE;}
	.st20{fill:#E3E2E3;}
	.st21{fill:#636467;}
	.st22{fill:#7A7D80;}
	.st23{opacity:0.1;fill:#7ECDC8;}
	.st24{opacity:0.6;fill:#7ECDC8;}
	.st25{fill:#8D8A8A;}
	.st26{fill:#AEADAD;}
	.st27{fill:#ADB0B5;}
</style>
<g id="XMLID_1757_">
	<g id="XMLID_131_">
		<g id="XMLID_156_">
			<polygon id="XMLID_217_" class="st0" points="40,2.9 21.2,13.7 21.2,68.2 40,57.3 			"/>
			<g id="XMLID_158_">
				<g id="XMLID_210_">
					<path id="XMLID_215_" class="st1" d="M46.7,8.4L46.7,8.4c0.5-0.3,0.7-0.6,0.7-1c0,0,0-0.3,0-0.3c0-0.5-0.5-0.8-1.4-1l0,0
						c-0.7-0.2-1.4-0.1-2,0.3l0,0c-0.4,0.2-0.7,0.5-0.7,0.8c0,0,0,0.2,0,0.2c0,0.6,0.5,1.1,1.4,1.3l0,0C45.4,8.8,46.1,8.7,46.7,8.4z
						"/>
					<path id="XMLID_213_" class="st2" d="M46.7,8.1L46.7,8.1c1.2-0.7,0.8-2-0.7-2.3l0,0c-0.7-0.2-1.4-0.1-2,0.3l0,0
						c-1.2,0.7-0.8,2,0.7,2.3l0,0C45.4,8.6,46.1,8.5,46.7,8.1z"/>
					<path id="XMLID_211_" class="st3" d="M46,5.8L46,5.8c-0.7-0.2-1.4-0.1-2,0.3l0,0c-1.2,0.7-0.8,2,0.7,2.3l0,0
						C45.4,8.6,47.5,6.1,46,5.8z"/>
				</g>
				<g id="XMLID_185_">
					<g id="XMLID_186_">
						<g id="XMLID_202_">
							<g id="XMLID_203_">
								<path id="XMLID_208_" class="st4" d="M46.8,3.9C46.1,4.1,45,4.8,45,6.9h0.3C45.3,6.6,45.5,4.5,46.8,3.9z"/>
								<path id="XMLID_206_" class="st5" d="M47.4,3.8C47.4,3.8,47.3,3.8,47.4,3.8c-0.1,0-0.1,0-0.2,0c0,0-0.2,0-0.4,0.1
									c-1.2,0.7-1.4,2.8-1.5,3.1h0.3C45.6,4.7,46.8,4,47.4,3.8z"/>
								<path id="XMLID_204_" class="st6" d="M47.4,3.8C47.4,3.8,47.4,3.8,47.4,3.8C47.4,3.8,47.4,3.8,47.4,3.8
									C47.3,3.8,47.4,3.8,47.4,3.8z"/>
							</g>
						</g>
						<g id="XMLID_187_">
							<g id="XMLID_194_">
								<g id="XMLID_199_">
									<path id="XMLID_200_" class="st7" d="M48.7,6.8c0-0.8,0-1.2-0.1-1.5c-0.4-1.3-1.4-0.9-1.5-0.9c0.1,0,0.1,0,0.2,0
										c0,0,1.3-0.1,1.3,1.9v25.6c0,0,0.1,0,0.1,0V6.8z"/>
								</g>
								<g id="XMLID_195_">
									<path id="XMLID_197_" class="st8" d="M49.2,6.3c0-1.2-0.1-1.4-0.3-1.7c-0.2-0.4-0.5-0.7-1.5-0.8c0,0,0,0,0,0
										c1.8,0,1.7,1.9,1.7,2.1c0,0.1,0,25.6,0,26.1c0,0,0.1,0,0.1,0c0,0,0,0,0,0C49.2,31.4,49.2,7,49.2,6.3z"/>
									<polygon id="XMLID_196_" class="st9" points="49.2,31.9 49.2,31.9 49.2,31.9 									"/>
								</g>
							</g>
							<g id="XMLID_191_">
								<path id="XMLID_192_" class="st10" d="M48.9,32V6.2c0-0.8-0.1-1.1-0.2-1.4c-0.3-0.6-0.9-0.9-1.3-1.1
									c-0.5,0.2-1.7,0.9-1.8,3.1h0.2c0,0,0-0.2,0-0.5c0.1-0.7,0.5-1.9,1.4-2.1c0,0,1.1-0.4,1.5,0.9c0.1,0.3,0.1,0.7,0.1,1.5V32
									C48.8,32,48.8,32,48.9,32C48.9,32,48.9,32,48.9,32z"/>
							</g>
							<g id="XMLID_188_">
								<path id="XMLID_189_" class="st4" d="M49.1,5.7c0,0,0.1-1.9-1.8-1.9c0.4,0.1,1,0.5,1.3,1.1c0.1,0.3,0.2,0.6,0.2,1.4V32
									c0.1,0,0.2,0,0.2,0V5.7z"/>
							</g>
						</g>
					</g>
				</g>
				<g id="XMLID_159_">
					<g id="XMLID_179_">
						<path id="XMLID_183_" class="st11" d="M50,31.2L50,31.2c-0.4,0-0.5,0.4-0.2,0.8l0,0c0.1,0.2,0.3,0.3,0.5,0.3l0,0
							c0.4,0,0.5-0.4,0.2-0.8l0,0C50.4,31.4,50.2,31.3,50,31.2z"/>
						<g id="XMLID_180_">
							<path id="XMLID_181_" class="st8" d="M50.4,31.8c0,0,0-0.1-0.1-0.1l0,0c-0.1-0.1-0.2-0.2-0.3-0.2l0,0c-0.1,0-0.1,0-0.1,0l0,0
								c0,0-1.6,0.9-1.6,0.9l0,0l0,0c-0.1,0.1-0.1,0.3,0,0.5l0,0c0.1,0.1,0.2,0.2,0.3,0.2l0,0c0,0,0.1,0,0.1,0
								c0.1-0.1,1.6-0.9,1.6-1C50.4,32.1,50.5,31.9,50.4,31.8L50.4,31.8z"/>
						</g>
					</g>
					<g id="XMLID_173_">
						<path id="XMLID_177_" class="st11" d="M47.7,29.9L47.7,29.9c-0.4,0-0.5,0.4-0.2,0.8l0,0c0.1,0.2,0.3,0.3,0.5,0.3l0,0
							c0.4,0,0.5-0.4,0.2-0.8l0,0C48.1,30,47.9,29.9,47.7,29.9z"/>
						<g id="XMLID_174_">
							<path id="XMLID_175_" class="st8" d="M48.1,30.5c0,0,0-0.1-0.1-0.1l0,0c-0.1-0.1-0.2-0.2-0.3-0.2l0,0c-0.1,0-0.1,0-0.1,0h0
								c0,0-1.6,0.9-1.6,0.9l0,0l0,0c-0.1,0.1-0.1,0.3,0,0.5l0,0c0.1,0.1,0.2,0.2,0.3,0.2l0,0c0,0,0.1,0,0.1,0
								c0.1-0.1,1.6-0.9,1.6-1C48.1,30.7,48.2,30.6,48.1,30.5L48.1,30.5z"/>
						</g>
					</g>
					<path id="XMLID_171_" class="st12" d="M44.8,30.4c0-0.1,0.1-0.2,0.1-0.2l0,0c0.1-0.2,0.4-0.3,0.6-0.3l0,0c0.1,0,0.2,0,0.2,0
						l0,0c0,0,5.1,3,5.1,3l0,0l0,0c0.2,0.1,0.3,0.5,0,0.8l0,0c-0.1,0.2-0.4,0.3-0.6,0.4l0,0c-0.1,0-0.2,0-0.2,0
						c-0.2-0.1-5.1-3-5.2-3C44.7,30.9,44.7,30.6,44.8,30.4L44.8,30.4z"/>
					<g id="XMLID_168_">
						<path id="XMLID_170_" class="st13" d="M45.9,30.7c0.2-0.2,0.4-0.4,0.6-0.4c0,0,0.1,0,0.1,0c0.1,0,0.1,0.1,0.2,0.1l0,0
							c-0.1,0-0.2-0.1-0.3-0.1C46.3,30.4,46.1,30.6,45.9,30.7c-0.1,0.2-0.2,0.4-0.1,0.6c0,0.1,0.1,0.2,0.2,0.3c0,0-0.1-0.1-0.1-0.1
							c0-0.1-0.1-0.1-0.1-0.2C45.7,31.2,45.8,30.9,45.9,30.7z"/>
						<path id="XMLID_169_" class="st13" d="M46.1,30.8c0.2-0.2,0.4-0.4,0.6-0.4c0,0,0.1,0,0.1,0c0,0,0.1,0.1,0.1,0.1
							c-0.1,0-0.1,0-0.2,0C46.5,30.5,46.3,30.7,46.1,30.8C46,31.1,46,31.3,46,31.4c0,0.1,0.1,0.2,0.2,0.3l0,0c0,0-0.1-0.1-0.1-0.1
							c0-0.1-0.1-0.1-0.1-0.2C45.9,31.3,46,31,46.1,30.8z"/>
					</g>
					<g id="XMLID_165_">
						<path id="XMLID_167_" class="st13" d="M48.9,32.5c0.2-0.2,0.4-0.4,0.6-0.4c0,0,0.1,0,0.1,0c0.1,0,0.1,0.1,0.2,0.1l0,0
							c-0.1,0-0.2-0.1-0.3-0.1C49.3,32.2,49.1,32.3,48.9,32.5c-0.1,0.2-0.2,0.4-0.1,0.6c0,0.1,0.1,0.2,0.2,0.3l0,0
							c0,0-0.1-0.1-0.1-0.1c0-0.1-0.1-0.1-0.1-0.2C48.7,32.9,48.8,32.7,48.9,32.5z"/>
						<path id="XMLID_166_" class="st13" d="M49.1,32.6c0.2-0.2,0.4-0.4,0.6-0.4c0,0,0.1,0,0.1,0c0,0,0.1,0.1,0.1,0.1
							c-0.1,0-0.1,0-0.2,0C49.5,32.3,49.3,32.4,49.1,32.6C49,32.8,48.9,33,49,33.2c0,0.1,0.1,0.2,0.2,0.3l0,0c0,0-0.1-0.1-0.1-0.1
							c0-0.1-0.1-0.1-0.1-0.2C48.9,33,49,32.8,49.1,32.6z"/>
					</g>
					<g id="XMLID_162_">
						<path id="XMLID_163_" class="st14" d="M49.9,33.7c0,0-4.4-2.6-5.2-3c0,0,0-0.1,0-0.1C45.7,31.1,50,33.6,49.9,33.7L49.9,33.7z"
							/>
					</g>
					<path id="XMLID_160_" class="st13" d="M50.5,32.8L50.5,32.8c0.4,0,0.6,0.5,0.3,0.9l0,0c-0.1,0.2-0.4,0.3-0.6,0.4l0,0
						c-0.4,0-0.6-0.5-0.3-0.9l0,0C50.1,32.9,50.3,32.8,50.5,32.8z"/>
				</g>
			</g>
			<g class="st15">
				<polygon class="st16" points="21.2,20.8 40,31.6 40,29.8 22.8,19.9 40,9.9 40,8.1 21.2,19 				"/>
				<polygon class="st16" points="40,29.8 40,31.6 58.8,20.7 58.8,18.9 				"/>
			</g>
			<g class="st15">
				<polygon class="st16" points="21.2,26.8 40,37.5 40,35.7 22.8,25.8 40,15.9 40,14 21.2,24.9 				"/>
				<polygon class="st16" points="40,35.7 40,37.5 58.8,26.7 58.8,24.8 				"/>
			</g>
			<g class="st15">
				<polygon class="st16" points="21.2,32.7 40,43.5 40,41.6 22.8,31.8 40,21.8 40,20 21.2,30.8 				"/>
				<polygon class="st16" points="40,41.6 40,43.5 58.8,32.6 58.8,30.8 				"/>
			</g>
			<polygon id="XMLID_157_" class="st17" points="40,2.9 21.2,13.7 21.2,11.9 40,1 			"/>
		</g>
		<g id="XMLID_140_">
			<g id="XMLID_145_">
				<polygon id="XMLID_155_" class="st18" points="21.3,68.2 21.3,64.7 40,53.8 40,57.3 				"/>
				<polygon id="XMLID_154_" class="st19" points="58.7,68.2 40,57.3 40,53.8 58.7,64.7 				"/>
				<polygon id="XMLID_153_" class="st18" points="40,54.5 21.3,65.4 40,76.2 58.7,65.4 				"/>
				<polygon id="XMLID_152_" class="st20" points="40,56.8 21.3,67.7 40,78.5 58.7,67.7 				"/>
				<polygon id="XMLID_151_" class="st19" points="40,53.8 21.3,64.7 22.4,65.3 41.2,54.5 				"/>
				<polygon id="XMLID_150_" class="st19" points="57.6,64 38.8,74.8 40,75.5 58.7,64.7 				"/>
				<polygon id="XMLID_149_" class="st19" points="40,75.5 21.3,64.7 22.4,64 41.2,74.8 				"/>
				<polygon id="XMLID_148_" class="st19" points="57.6,65.3 38.8,54.5 40,53.8 58.7,64.7 				"/>
				<polygon id="XMLID_147_" class="st20" points="21.3,64.7 21.3,68.2 40,79 40,75.5 				"/>
				<polygon id="XMLID_146_" class="st18" points="58.7,64.7 40,75.5 40,79 58.7,68.2 				"/>
			</g>
			<g id="XMLID_141_">
				<path id="XMLID_144_" class="st21" d="M38.9,58.2L38.9,58.2c-1,0.6-0.7,1.6,0.5,1.9l0,0c0.6,0.1,1.2,0,1.6-0.2l0,0
					c1-0.6,0.7-1.6-0.5-1.9l0,0C40,57.9,39.4,58,38.9,58.2z"/>
				<path id="XMLID_143_" class="st22" d="M39.2,58.4L39.2,58.4c-0.8,0.4-0.5,1.3,0.4,1.5l0,0c0.4,0.1,0.9,0,1.3-0.2l0,0
					c0.8-0.4,0.5-1.3-0.4-1.5l0,0C40,58.1,39.5,58.2,39.2,58.4z"/>
				<path id="XMLID_142_" class="st21" d="M39.3,58.8L39.3,58.8c-0.3,0.2-0.2,0.5,0.2,0.6l0,0c0.2,0,0.4,0,0.5-0.1l0,0
					c0.3-0.2,0.2-0.5-0.2-0.6l0,0C39.7,58.7,39.5,58.7,39.3,58.8z"/>
			</g>
		</g>
		<g id="XMLID_136_">
			<polygon id="XMLID_139_" class="st0" points="40,24.5 21.2,13.7 21.2,68.2 40,79 			"/>
			<polyline id="XMLID_138_" class="st23" points="40,79 40,24.5 21.2,13.7 			"/>
			<polygon id="XMLID_137_" class="st17" points="40,24.5 21.2,13.7 21.2,11.9 40,22.7 			"/>
		</g>
		<g id="XMLID_132_">
			<polygon id="XMLID_135_" class="st24" points="58.8,13.6 40,24.5 40,79 58.8,68.1 			"/>
			<polyline id="XMLID_134_" class="st23" points="58.8,13.6 40,24.5 40,79 			"/>
			<polygon id="XMLID_133_" class="st17" points="58.8,13.6 40,24.5 40,22.7 58.8,11.8 			"/>
		</g>
	</g>
	<g id="XMLID_1758_">
		<g id="XMLID_1759_">
			<g id="XMLID_84_">
				<polygon id="XMLID_130_" class="st25" points="38.6,44.3 38.6,44.5 38.3,44.6 38.3,44.4 				"/>
				<polygon id="XMLID_86_" class="st26" points="38.3,44.1 38.6,44.3 38.3,44.4 38.1,44.3 				"/>
			</g>
			<g id="XMLID_1764_">
				<polygon id="XMLID_2_" class="st25" points="38.6,49.9 38.6,50.1 38.3,50.2 38.3,50 				"/>
				<polygon id="XMLID_1765_" class="st26" points="38.3,49.7 38.6,49.9 38.3,50 38.1,49.9 				"/>
			</g>
			<g id="XMLID_1760_">
				<polygon id="XMLID_1763_" class="st25" points="38.3,43.5 38.3,50.9 38.1,51 38.1,43.7 				"/>
				<polygon id="XMLID_1762_" class="st27" points="37.8,43.5 38.1,43.7 38.1,51 37.8,50.9 				"/>
				<polygon id="XMLID_1761_" class="st26" points="38.1,43.4 38.3,43.5 38.1,43.7 37.8,43.5 				"/>
			</g>
		</g>
	</g>
</g>
</svg>
