<?xml version="1.0" encoding="utf-8"?>
<!-- Generator: Adobe Illustrator 21.0.0, SVG Export Plug-In . SVG Version: 6.00 Build 0)  -->
<svg version="1.1" id="Layer_1" xmlns="http://www.w3.org/2000/svg" xmlns:xlink="http://www.w3.org/1999/xlink" x="0px" y="0px"
	 viewBox="0 0 80 80" style="enable-background:new 0 0 80 80;" xml:space="preserve">
<style type="text/css">
	.st0{fill:#50504E;}
	.st1{fill:#C3BEB6;}
	.st2{fill:#ADA69C;}
	.st3{opacity:0.2;fill:#ADA69C;enable-background:new    ;}
	.st4{fill:#97908A;}
	.st5{fill:#9F988F;}
	.st6{fill:#D1CAC1;}
	.st7{fill:#232B33;}
	.st8{fill:#101416;}
	.st9{fill:#3F4D5A;}
	.st10{fill:#353F48;}
	.st11{fill:#989189;}
	.st12{fill:#BAB6B0;}
	.st13{fill:#9D9993;}
	.st14{fill:#CAC8C4;}
</style>
<g id="XMLID_2229_">
	<g id="XMLID_2240_">
		<g id="XMLID_2241_">
			<g id="XMLID_2242_">
				<g id="XMLID_2243_">
					<path id="XMLID_2244_" class="st0" d="M39.7,77.5c0,0.2,0.2,0.4,0.5,0.5l0,0c0.3,0.1,0.6,0,0.8-0.1l0,0
						c0.2-0.1,0.3-0.3,0.3-0.4v-3.8c0-0.2-0.2-0.4-0.5-0.5l0,0c-0.3-0.1-0.6,0-0.8,0.1l0,0c-0.2,0.1-0.3,0.3-0.3,0.4V77.5z"/>
				</g>
			</g>
		</g>
	</g>
	<g id="XMLID_2235_">
		<g id="XMLID_2236_">
			<g id="XMLID_2237_">
				<g id="XMLID_2238_">
					<path id="XMLID_2239_" class="st0" d="M51.1,71.1c0,0.2,0.2,0.4,0.5,0.5l0,0c0.3,0.1,0.6,0,0.8-0.1l0,0
						c0.2-0.1,0.3-0.3,0.3-0.4v-3.8c0-0.2-0.2-0.4-0.5-0.5l0,0c-0.3-0.1-0.6,0-0.8,0.1l0,0c-0.2,0.1-0.3,0.3-0.3,0.4V71.1z"/>
				</g>
			</g>
		</g>
	</g>
	<g id="XMLID_2230_">
		<g id="XMLID_2231_">
			<g id="XMLID_2232_">
				<g id="XMLID_2233_">
					<path id="XMLID_2234_" class="st0" d="M28.5,71.1c0,0.2,0.2,0.4,0.5,0.5l0,0c0.3,0.1,0.6,0,0.8-0.1l0,0
						c0.2-0.1,0.3-0.3,0.3-0.4v-3.8c0-0.2-0.2-0.4-0.5-0.5l0,0c-0.3-0.1-0.6,0-0.8,0.1l0,0c-0.2,0.1-0.3,0.3-0.3,0.4V71.1z"/>
				</g>
			</g>
		</g>
	</g>
</g>
<g id="XMLID_2223_">
	<path id="XMLID_2228_" class="st1" d="M28,69.6c0.1,0.3,0.2,0.6,0.5,0.8l10.8,6.3c0.7,0.4,1.6,0.4,2.3,0l10.8-6.3
		c0.3-0.2,0.5-0.5,0.5-0.8s0-4.7,0-5s-0.1-0.5-0.4-0.7l-10.8-6.3c-0.7-0.4-1.6-0.4-2.3,0l-10.8,6.3c-0.4,0.2-0.5,0.5-0.5,0.8
		S28.1,69.3,28,69.6z"/>
	<path class="st2" d="M28.1,69.5c0.1,0.3,0.2,0.6,0.5,0.8l10.8,6.3c0.4,0.2,0.8,0.3,1.2,0.3V57.3c-0.4,0-0.8,0.1-1.2,0.3l-10.8,6.3
		c-0.4,0.2-0.5,0.5-0.5,0.8S28.1,69.3,28.1,69.5z"/>
	<path class="st3" d="M28.1,69.5c0.1,0.3,0.2,0.6,0.5,0.8l10.8,6.3c0.4,0.2,0.8,0.3,1.2,0.3V57.3c-0.4,0-0.8,0.1-1.2,0.3l-10.8,6.3
		c-0.4,0.2-0.5,0.5-0.5,0.8S28.1,69.3,28.1,69.5z"/>
	<g id="XMLID_2224_">
		<path id="XMLID_2227_" class="st4" d="M28.2,64.5c0,0.1,0,0.6,0,0.7c0,0.2,0.2,0.5,0.4,0.6l10.8,6.3c0.7,0.4,1.6,0.4,2.3,0
			l10.8-6.3c0.2-0.1,0.4-0.4,0.4-0.6c0-0.1,0-0.5,0-0.6c0-0.3-0.1-0.5-0.4-0.7l-10.8-6.3c-0.7-0.4-1.6-0.4-2.3,0l-10.8,6.3
			C28.3,64.1,28.1,64.3,28.2,64.5z"/>
		<g id="XMLID_2225_">
			<path id="XMLID_2226_" class="st5" d="M41.7,57.7L52.5,64c0.6,0.4,0.6,1.3,0,1.6l-10.8,6.3c-0.7,0.4-1.6,0.4-2.3,0l-10.8-6.3
				c-0.6-0.4-0.6-1.3,0-1.6l10.8-6.3C40.1,57.2,41,57.2,41.7,57.7z"/>
		</g>
	</g>
</g>
<g id="XMLID_2217_">
	<path id="XMLID_2222_" class="st1" d="M28,64.7c0.1,0.3,0.2,0.6,0.5,0.8l10.8,6.3c0.7,0.4,1.6,0.4,2.3,0l10.8-6.3
		c0.3-0.2,0.5-0.5,0.5-0.8c0-0.3,0-4.7,0-5s-0.1-0.5-0.4-0.7l-10.8-6.3c-0.7-0.4-1.6-0.4-2.3,0L28.6,59c-0.4,0.2-0.5,0.5-0.5,0.8
		S28.1,64.4,28,64.7z"/>
	<path class="st2" d="M28.1,64.6c0.1,0.3,0.2,0.6,0.5,0.8l10.8,6.3c0.4,0.2,0.8,0.3,1.2,0.3V52.4c-0.4,0-0.8,0.1-1.2,0.3L28.6,59
		c-0.4,0.2-0.5,0.5-0.5,0.8S28.1,64.4,28.1,64.6z"/>
	<path class="st3" d="M28.1,64.6c0.1,0.3,0.2,0.6,0.5,0.8l10.8,6.3c0.4,0.2,0.8,0.3,1.2,0.3V52.4c-0.4,0-0.8,0.1-1.2,0.3L28.6,59
		c-0.4,0.2-0.5,0.5-0.5,0.8S28.1,64.4,28.1,64.6z"/>
	<g id="XMLID_2218_">
		<path id="XMLID_2221_" class="st4" d="M28.2,59.7c0,0.1,0,0.6,0,0.7c0,0.2,0.2,0.5,0.4,0.6l10.8,6.3c0.7,0.4,1.6,0.4,2.3,0
			L52.5,61c0.2-0.1,0.4-0.4,0.4-0.6c0-0.1,0-0.5,0-0.6c0-0.3-0.1-0.5-0.4-0.7l-10.8-6.3c-0.7-0.4-1.6-0.4-2.3,0l-10.8,6.3
			C28.3,59.2,28.1,59.5,28.2,59.7z"/>
		<g id="XMLID_2219_">
			<path id="XMLID_2220_" class="st5" d="M41.7,52.8l10.8,6.3c0.6,0.4,0.6,1.3,0,1.6L41.7,67c-0.7,0.4-1.6,0.4-2.3,0l-10.8-6.3
				c-0.6-0.4-0.6-1.3,0-1.6l10.8-6.3C40.1,52.4,41,52.4,41.7,52.8z"/>
		</g>
	</g>
</g>
<g id="XMLID_2211_">
	<path id="XMLID_2216_" class="st6" d="M28,59.9c0.1,0.3,0.2,0.6,0.5,0.8L39.3,67c0.7,0.4,1.6,0.4,2.3,0l10.8-6.3
		c0.3-0.2,0.5-0.5,0.5-0.8s0-4.7,0-5s-0.1-0.5-0.4-0.7l-10.8-6.3c-0.7-0.4-1.6-0.4-2.3,0l-10.8,6.3c-0.4,0.2-0.5,0.5-0.5,0.8
		S28.1,59.5,28,59.9z"/>
	<path id="XMLID_16079_" class="st1" d="M52.9,54.8c0-0.3-0.1-0.5-0.4-0.7l-10.8-6.3c-0.7-0.4-1.6-0.4-2.3,0l-10.8,6.3
		c-0.4,0.2-0.5,0.5-0.5,0.8c0,0.3,0,4.6,0,4.9c0.1,0.3,0.2,0.6,0.5,0.8l10.8,6.3c0.7,0.4,1.6,0.4,2.3,0"/>
	<path class="st2" d="M28.1,59.8c0.1,0.3,0.2,0.6,0.5,0.8l10.8,6.3c0.4,0.2,0.8,0.3,1.2,0.3V47.6c-0.4,0-0.8,0.1-1.2,0.3l-10.8,6.3
		c-0.4,0.2-0.5,0.5-0.5,0.8S28.1,59.5,28.1,59.8z"/>
	<path class="st3" d="M28.1,59.8"/>
	<path class="st3" d="M39.4,66.9c0.4,0.2,0.8,0.3,1.2,0.3V47.6c-0.4,0-0.8,0.1-1.2,0.3l-10.8,6.3c-0.4,0.2-0.5,0.5-0.5,0.8"/>
	<g id="XMLID_2212_">
		<path id="XMLID_2215_" class="st4" d="M28.2,54.8c0,0.1,0,0.6,0,0.7c0,0.2,0.2,0.5,0.4,0.6l10.8,6.3c0.7,0.4,1.6,0.4,2.3,0
			l10.8-6.3c0.2-0.1,0.4-0.4,0.4-0.6c0-0.1,0-0.5,0-0.6c0-0.3-0.1-0.5-0.4-0.7l-10.8-6.3c-0.7-0.4-1.6-0.4-2.3,0l-10.8,6.3
			C28.3,54.4,28.1,54.6,28.2,54.8z"/>
		<g id="XMLID_2213_">
			<path id="XMLID_2214_" class="st5" d="M41.7,47.8l10.8,6.3c0.6,0.4,0.6,1.3,0,1.6L41.7,62c-0.7,0.4-1.6,0.4-2.3,0l-10.8-6.2
				c-0.6-0.4-0.6-1.3,0-1.6l10.8-6.3C40.1,47.5,41,47.5,41.7,47.8z"/>
		</g>
	</g>
</g>
<g id="XMLID_2203_">
	<path id="XMLID_2207_" class="st6" d="M28.1,54.9c0.1,0.3,0.2,0.6,0.5,0.8L39.4,62c0.7,0.4,1.6,0.4,2.3,0l10.7-6.2
		c0.3-0.2,0.5-0.5,0.5-0.8s0-6.3,0-6.6s-0.1-0.5-0.4-0.7l-10.8-6.3c-0.7-0.4-1.6-0.4-2.3,0l-10.8,6.3c-0.4,0.2-0.5,0.5-0.5,0.8
		S28.1,54.7,28.1,54.9z"/>
	<path id="XMLID_16078_" class="st1" d="M52.9,48.3c0-0.3-0.1-0.5-0.4-0.7l-10.8-6.3c-0.7-0.4-1.6-0.4-2.3,0l-10.8,6.3
		c-0.4,0.2-0.5,0.5-0.5,0.8s0,6.2,0,6.5c0.1,0.3,0.2,0.6,0.5,0.8L39.4,62c0.7,0.4,1.6,0.4,2.3,0"/>
	<path class="st2" d="M28.1,54.9c0.1,0.3,0.2,0.6,0.5,0.8L39.4,62c0.4,0.2,0.8,0.3,1.2,0.3V41.1c-0.4,0-0.8,0.1-1.2,0.3l-10.8,6.3
		c-0.4,0.2-0.5,0.5-0.5,0.8S28.1,54.7,28.1,54.9z"/>
	<path class="st3" d="M39.4,62c0.4,0.2,0.8,0.3,1.2,0.3V41.1c-0.4,0-0.8,0.1-1.2,0.3l-10.8,6.3c-0.4,0.2-0.5,0.5-0.5,0.8"/>
	<g id="XMLID_2204_">
		<g id="XMLID_2205_">
			<path id="XMLID_2206_" class="st5" d="M41.7,41.5l10.8,6.3c0.6,0.4,0.6,1.3,0,1.6l-10.8,6.3c-0.7,0.4-1.6,0.4-2.3,0l-10.8-6.3
				c-0.6-0.4-0.6-1.3,0-1.6l10.8-6.3C40.1,41,41,41,41.7,41.5z"/>
		</g>
	</g>
</g>
<g id="XMLID_2201_">
	<path id="XMLID_2202_" class="st7" d="M28,48.6c0.1,0.3,0.2,0.6,0.5,0.8l10.8,6.3c0.7,0.4,1.6,0.4,2.3,0l10.8-6.3
		c0.3-0.2,0.5-0.5,0.5-0.8s0-4.3,0-4.6s-0.1-0.5-0.4-0.7L41.7,37c-0.7-0.4-1.6-0.4-2.3,0l-10.8,6.3c-0.4,0.2-0.5,0.5-0.5,0.8
		C28.1,44.4,28.1,48.2,28,48.6z"/>
</g>
<path class="st8" d="M40.5,55.9V40h-6.4l-5.5,3.2c-0.4,0.2-0.5,0.5-0.5,0.8s0,4.2,0,4.5c0.1,0.3,0.2,0.6,0.5,0.8l10.8,6.3
	C39.8,55.8,40.2,55.9,40.5,55.9L40.5,55.9z"/>
<g id="XMLID_2198_">
	<g id="XMLID_2199_">
		<path id="XMLID_2200_" class="st9" d="M41.7,37l10.8,6.3c0.6,0.4,0.6,1.3,0,1.6l-10.8,6.3c-0.7,0.4-1.6,0.4-2.3,0l-10.8-6.3
			c-0.6-0.4-0.6-1.3,0-1.6L39.4,37C40.1,36.6,41,36.6,41.7,37z"/>
	</g>
</g>
<g id="XMLID_16080_">
	<g id="XMLID_16081_">
		<path id="XMLID_16082_" class="st10" d="M52.5,43.3c0.6,0.4,0.6,1.3,0,1.6l-10.8,6.3c-0.7,0.4-1.6,0.4-2.3,0l-10.8-6.3
			c-0.6-0.4-0.6-1.3,0-1.6"/>
	</g>
</g>
<polygon id="XMLID_2105_" class="st11" points="29.2,44 37.8,48.9 49.5,42.2 49.5,41.3 40.9,36.3 29.2,43.1 "/>
<polygon class="st3" points="37.9,38.1 29.2,43.1 29.2,44 37.8,48.9 37.9,48.9 "/>
<polygon id="XMLID_2104_" class="st12" points="49.5,41.3 37.8,48 29.2,43.1 40.9,36.3 "/>
<polygon id="XMLID_2103_" class="st2" points="38,38 46.6,43 49.5,41.3 49.5,40 40.9,35 38,36.7 "/>
<polygon id="XMLID_2102_" class="st13" points="38,38 46.6,43 46.6,41.7 38,36.7 "/>
<polygon id="XMLID_2101_" class="st14" points="49.5,40 46.6,41.7 38,36.7 40.9,35 "/>
<polyline id="XMLID_16085_" class="st1" points="40.9,35 49.5,40 46.6,41.7 "/>
<polygon id="XMLID_2100_" class="st13" points="29.2,43.1 37.8,48 46.6,43 46.6,42.5 38,37.5 29.2,42.6 "/>
<polygon id="XMLID_2099_" class="st14" points="46.6,42.5 37.8,47.6 29.2,42.6 38,37.5 "/>
<polyline id="XMLID_16084_" class="st1" points="38,37.5 46.6,42.5 37.8,47.6 "/>
</svg>
