<?xml version="1.0" encoding="utf-8"?>
<!-- Generator: Adobe Illustrator 21.0.0, SVG Export Plug-In . SVG Version: 6.00 Build 0)  -->
<svg version="1.1" id="Layer_1" xmlns="http://www.w3.org/2000/svg" xmlns:xlink="http://www.w3.org/1999/xlink" x="0px" y="0px"
	 viewBox="0 0 80 80" style="enable-background:new 0 0 80 80;" xml:space="preserve">
<style type="text/css">
	.st0{fill:#50504E;}
	.st1{fill:#C3BEB6;}
	.st2{fill:#ADA69C;}
	.st3{opacity:0.2;fill:#ADA69C;}
	.st4{fill:#97908A;}
	.st5{fill:#9F988F;}
	.st6{fill:#D1CAC1;}
	.st7{fill:#A6A29C;}
	.st8{fill:#232B33;}
	.st9{fill:#101416;}
	.st10{fill:#3F4D5A;}
	.st11{fill:#353F48;}
	.st12{fill:#1F2C35;}
	.st13{fill:#20673E;}
	.st14{fill:#2E8358;}
	.st15{fill:#FFFFFF;}
	.st16{fill:#EFEFEF;}
	.st17{fill:#B5B5B6;}
	.st18{fill:#ECECEE;}
	.st19{fill:#D1D2D3;}
	.st20{fill:#868787;}
	.st21{fill:#95CDD6;}
	.st22{fill:#80BCC9;}
	.st23{fill:#939291;}
	.st24{fill:#139A79;}
	.st25{fill:#1BA880;}
	.st26{fill:#989189;}
	.st27{fill:#BAB6B0;}
	.st28{fill:#9D9993;}
	.st29{fill:#CAC8C4;}
</style>
<g id="XMLID_2098_">
	<g id="XMLID_2229_">
		<g id="XMLID_2240_">
			<g id="XMLID_2241_">
				<g id="XMLID_2242_">
					<g id="XMLID_2243_">
						<path id="XMLID_2244_" class="st0" d="M41.2,73.7c0-0.1-0.1-0.3-0.3-0.4l0,0c-0.2-0.1-0.5-0.2-0.8-0.1l0,0
							c-0.3,0.1-0.5,0.3-0.5,0.5l0,3.8c0,0.1,0.1,0.3,0.3,0.4l0,0c0.2,0.1,0.5,0.2,0.8,0.1l0,0c0.3-0.1,0.5-0.3,0.5-0.5L41.2,73.7z"
							/>
					</g>
				</g>
			</g>
		</g>
		<g id="XMLID_2235_">
			<g id="XMLID_2236_">
				<g id="XMLID_2237_">
					<g id="XMLID_2238_">
						<path id="XMLID_2239_" class="st0" d="M29.8,67.3c0-0.1-0.1-0.3-0.3-0.4l0,0c-0.2-0.1-0.5-0.2-0.8-0.1l0,0
							c-0.3,0.1-0.5,0.3-0.5,0.5l0,3.8c0,0.1,0.1,0.3,0.3,0.4h0c0.2,0.1,0.5,0.2,0.8,0.1l0,0c0.3-0.1,0.5-0.3,0.5-0.5L29.8,67.3z"/>
					</g>
				</g>
			</g>
		</g>
		<g id="XMLID_2230_">
			<g id="XMLID_2231_">
				<g id="XMLID_2232_">
					<g id="XMLID_2233_">
						<path id="XMLID_2234_" class="st0" d="M52.4,67.3c0-0.1-0.1-0.3-0.3-0.4l0,0c-0.2-0.1-0.5-0.2-0.8-0.1l0,0
							c-0.3,0.1-0.5,0.3-0.5,0.5l0,3.8c0,0.1,0.1,0.3,0.3,0.4l0,0c0.2,0.1,0.5,0.2,0.8,0.1l0,0c0.3-0.1,0.5-0.3,0.5-0.5L52.4,67.3z"
							/>
					</g>
				</g>
			</g>
		</g>
	</g>
	<g id="XMLID_2223_">
		<path id="XMLID_2228_" class="st1" d="M52.8,64.7c0-0.3-0.1-0.6-0.5-0.8l-10.8-6.3c-0.7-0.4-1.6-0.4-2.3,0l-10.8,6.3
			c-0.3,0.2-0.4,0.4-0.4,0.7c0,0.3,0,4.7,0,5c0,0.3,0.2,0.6,0.5,0.8l10.8,6.3c0.7,0.4,1.6,0.4,2.3,0l10.8-6.3
			c0.3-0.2,0.4-0.5,0.5-0.8C52.8,69.3,52.8,65,52.8,64.7z"/>
		<path class="st2" d="M52.8,64.7c0-0.3-0.1-0.6-0.5-0.8l-10.8-6.3c-0.4-0.2-0.8-0.3-1.2-0.3v19.6c0.4,0,0.8-0.1,1.2-0.3l10.8-6.3
			c0.3-0.2,0.4-0.5,0.5-0.8C52.8,69.3,52.8,65,52.8,64.7z"/>
		<path class="st3" d="M52.8,64.7c0-0.3-0.1-0.6-0.5-0.8l-10.8-6.3c-0.4-0.2-0.8-0.3-1.2-0.3v19.6c0.4,0,0.8-0.1,1.2-0.3l10.8-6.3
			c0.3-0.2,0.4-0.5,0.5-0.8C52.8,69.3,52.8,65,52.8,64.7z"/>
		<g id="XMLID_2224_">
			<path id="XMLID_2227_" class="st4" d="M52.3,63.9l-10.8-6.3c-0.7-0.4-1.6-0.4-2.3,0l-10.8,6.3c-0.3,0.2-0.4,0.4-0.4,0.7
				c0,0.1,0,0.5,0,0.6c0,0.2,0.2,0.5,0.4,0.6l10.8,6.3c0.7,0.4,1.6,0.4,2.3,0l10.8-6.3c0.2-0.1,0.4-0.4,0.4-0.6c0-0.1,0-0.6,0-0.7
				C52.8,64.3,52.6,64.1,52.3,63.9z"/>
			<g id="XMLID_2225_">
				<path id="XMLID_2226_" class="st5" d="M41.5,57.7l10.8,6.3c0.6,0.3,0.6,1.2,0,1.6l-10.8,6.3c-0.7,0.4-1.6,0.4-2.3,0l-10.8-6.3
					c-0.6-0.3-0.6-1.2,0-1.6l10.8-6.3C39.9,57.2,40.8,57.2,41.5,57.7z"/>
			</g>
		</g>
	</g>
	<g id="XMLID_2217_">
		<path id="XMLID_2222_" class="st1" d="M52.8,59.8c0-0.3-0.1-0.6-0.5-0.8l-10.8-6.3c-0.7-0.4-1.6-0.4-2.3,0l-10.8,6.3
			c-0.3,0.2-0.4,0.4-0.4,0.7c0,0.3,0,4.7,0,5c0,0.3,0.2,0.6,0.5,0.8l10.8,6.3c0.7,0.4,1.6,0.4,2.3,0l10.8-6.3
			c0.3-0.2,0.4-0.5,0.5-0.8C52.8,64.4,52.8,60.1,52.8,59.8z"/>
		<path class="st2" d="M52.8,59.8c0-0.3-0.1-0.6-0.5-0.8l-10.8-6.3c-0.4-0.2-0.8-0.3-1.2-0.3v19.6c0.4,0,0.8-0.1,1.2-0.3l10.8-6.3
			c0.3-0.2,0.4-0.5,0.5-0.8C52.8,64.4,52.8,60.1,52.8,59.8z"/>
		<path class="st3" d="M52.8,59.8c0-0.3-0.1-0.6-0.5-0.8l-10.8-6.3c-0.4-0.2-0.8-0.3-1.2-0.3v19.6c0.4,0,0.8-0.1,1.2-0.3l10.8-6.3
			c0.3-0.2,0.4-0.5,0.5-0.8C52.8,64.4,52.8,60.1,52.8,59.8z"/>
		<g id="XMLID_2218_">
			<path id="XMLID_2221_" class="st4" d="M52.3,59.1l-10.8-6.3c-0.7-0.4-1.6-0.4-2.3,0l-10.8,6.3c-0.3,0.2-0.4,0.4-0.4,0.7
				c0,0.1,0,0.5,0,0.6c0,0.2,0.2,0.5,0.4,0.6l10.8,6.3c0.7,0.4,1.6,0.4,2.3,0L52.3,61c0.2-0.1,0.4-0.4,0.4-0.6c0-0.1,0-0.6,0-0.7
				C52.8,59.5,52.6,59.2,52.3,59.1z"/>
			<g id="XMLID_2219_">
				<path id="XMLID_2220_" class="st5" d="M41.5,52.8l10.8,6.3c0.6,0.3,0.6,1.2,0,1.6l-10.8,6.3c-0.7,0.4-1.6,0.4-2.3,0l-10.8-6.3
					c-0.6-0.3-0.6-1.2,0-1.6l10.8-6.3C39.9,52.4,40.8,52.4,41.5,52.8z"/>
			</g>
		</g>
	</g>
	<g id="XMLID_2211_">
		<path id="XMLID_2216_" class="st6" d="M52.8,55c0-0.3-0.1-0.6-0.5-0.8l-10.8-6.3c-0.7-0.4-1.6-0.4-2.3,0l-10.8,6.3
			c-0.3,0.2-0.4,0.4-0.4,0.7c0,0.3,0,4.7,0,5c0,0.3,0.2,0.6,0.5,0.8l10.8,6.3c0.7,0.4,1.6,0.4,2.3,0l10.8-6.3
			c0.3-0.2,0.4-0.5,0.5-0.8C52.8,59.5,52.8,55.3,52.8,55z"/>
		<path id="XMLID_16079_" class="st1" d="M39.2,66.9c0.7,0.4,1.6,0.4,2.3,0l10.8-6.3c0.3-0.2,0.4-0.5,0.5-0.8c0-0.3,0-4.6,0-4.9
			c0-0.3-0.1-0.6-0.5-0.8l-10.8-6.3c-0.7-0.4-1.6-0.4-2.3,0l-10.8,6.3c-0.3,0.2-0.4,0.4-0.4,0.7"/>
		<path class="st2" d="M52.8,55c0-0.3-0.1-0.6-0.5-0.8l-10.8-6.3c-0.4-0.2-0.8-0.3-1.2-0.3v19.6c0.4,0,0.8-0.1,1.2-0.3l10.8-6.3
			c0.3-0.2,0.4-0.5,0.5-0.8C52.8,59.5,52.8,55.3,52.8,55z"/>
		<path class="st3" d="M52.8,59.8"/>
		<path class="st3" d="M52.8,55c0-0.3-0.1-0.6-0.5-0.8l-10.8-6.3c-0.4-0.2-0.8-0.3-1.2-0.3v19.6c0.4,0,0.8-0.1,1.2-0.3"/>
		<g id="XMLID_2212_">
			<path id="XMLID_2215_" class="st4" d="M52.3,54.2l-10.8-6.3c-0.7-0.4-1.6-0.4-2.3,0l-10.8,6.3c-0.3,0.2-0.4,0.4-0.4,0.7
				c0,0.1,0,0.5,0,0.6c0,0.2,0.2,0.5,0.4,0.6l10.8,6.3c0.7,0.4,1.6,0.4,2.3,0l10.8-6.3c0.2-0.1,0.4-0.4,0.4-0.6c0-0.1,0-0.6,0-0.7
				C52.8,54.6,52.6,54.4,52.3,54.2z"/>
			<g id="XMLID_2213_">
				<path id="XMLID_2214_" class="st5" d="M41.5,47.9l10.8,6.3c0.6,0.3,0.6,1.2,0,1.6L41.5,62c-0.7,0.4-1.6,0.4-2.3,0l-10.8-6.3
					c-0.6-0.3-0.6-1.2,0-1.6l10.8-6.3C39.9,47.5,40.8,47.5,41.5,47.9z"/>
			</g>
		</g>
	</g>
	<polygon id="XMLID_2210_" class="st7" points="31.3,60.9 36.6,64 36.6,64.7 31.3,61.6 	"/>
	<polygon id="XMLID_2209_" class="st7" points="31.3,65.8 36.6,68.8 36.6,69.6 31.3,66.5 	"/>
	<polygon id="XMLID_2208_" class="st7" points="31.3,70.4 36.6,73.5 36.6,74.2 31.3,71.2 	"/>
	<g id="XMLID_2203_">
		<path id="XMLID_2207_" class="st6" d="M52.8,48.5c0-0.3-0.1-0.6-0.5-0.8l-10.8-6.3c-0.7-0.4-1.6-0.4-2.3,0l-10.8,6.3
			c-0.3,0.2-0.4,0.4-0.4,0.7c0,0.3,0,6.3,0,6.6c0,0.3,0.2,0.6,0.5,0.8L39.2,62c0.7,0.4,1.6,0.4,2.3,0l10.8-6.3
			c0.3-0.2,0.4-0.5,0.5-0.8C52.8,54.7,52.8,48.8,52.8,48.5z"/>
		<path id="XMLID_16078_" class="st1" d="M39.2,62c0.7,0.4,1.6,0.4,2.3,0l10.8-6.3c0.3-0.2,0.4-0.5,0.5-0.8c0-0.3,0-6.2,0-6.5
			c0-0.3-0.1-0.6-0.5-0.8l-10.8-6.3c-0.7-0.4-1.6-0.4-2.3,0l-10.8,6.3c-0.3,0.2-0.4,0.4-0.4,0.7"/>
		<path class="st2" d="M52.8,48.5c0-0.3-0.1-0.6-0.5-0.8l-10.8-6.3c-0.4-0.2-0.8-0.3-1.2-0.3v21.2c0.4,0,0.8-0.1,1.2-0.3l10.8-6.3
			c0.3-0.2,0.4-0.5,0.5-0.8C52.8,54.7,52.8,48.8,52.8,48.5z"/>
		<path class="st3" d="M52.8,48.5c0-0.3-0.1-0.6-0.5-0.8l-10.8-6.3c-0.4-0.2-0.8-0.3-1.2-0.3v21.2c0.4,0,0.8-0.1,1.2-0.3"/>
		<g id="XMLID_2204_">
			<g id="XMLID_2205_">
				<path id="XMLID_2206_" class="st5" d="M41.5,41.5l10.8,6.3c0.6,0.3,0.6,1.2,0,1.6l-10.8,6.3c-0.7,0.4-1.6,0.4-2.3,0l-10.8-6.3
					c-0.6-0.3-0.6-1.2,0-1.6l10.8-6.3C39.9,41,40.8,41,41.5,41.5z"/>
			</g>
		</g>
	</g>
	<g id="XMLID_2201_">
		<path id="XMLID_2202_" class="st8" d="M52.8,44.1c0-0.3-0.1-0.6-0.5-0.8L41.5,37c-0.7-0.4-1.6-0.4-2.3,0l-10.8,6.3
			c-0.3,0.2-0.4,0.4-0.4,0.7c0,0.3,0,4.3,0,4.6c0,0.3,0.2,0.6,0.5,0.8l10.8,6.3c0.7,0.4,1.6,0.4,2.3,0l10.8-6.3
			c0.3-0.2,0.4-0.5,0.5-0.8C52.8,48.2,52.8,44.4,52.8,44.1z"/>
	</g>
	<path class="st9" d="M40.3,55.9c0.4,0,0.8-0.1,1.2-0.3l10.8-6.3c0.3-0.2,0.4-0.5,0.5-0.8c0-0.3,0-4.2,0-4.5c0-0.3-0.1-0.6-0.5-0.8
		L46.8,40h-6.4V55.9z"/>
	<g id="XMLID_2198_">
		<g id="XMLID_2199_">
			<path id="XMLID_2200_" class="st10" d="M41.5,37l10.8,6.3c0.6,0.3,0.6,1.2,0,1.6l-10.8,6.3c-0.7,0.4-1.6,0.4-2.3,0l-10.8-6.3
				c-0.6-0.3-0.6-1.2,0-1.6L39.2,37C39.9,36.6,40.8,36.6,41.5,37z"/>
		</g>
	</g>
	<g id="XMLID_16080_">
		<g id="XMLID_16081_">
			<path id="XMLID_16082_" class="st11" d="M52.3,43.3c0.6,0.3,0.6,1.2,0,1.6l-10.8,6.3c-0.7,0.4-1.6,0.4-2.3,0l-10.8-6.3
				c-0.6-0.3-0.6-1.2,0-1.6"/>
		</g>
	</g>
	<g id="XMLID_2170_">
		<polygon id="XMLID_2197_" class="st12" points="43.8,49.7 43.8,56.4 46,57.6 46,51 		"/>
		<polygon id="XMLID_2196_" class="st8" points="46,51 46,57.6 55.9,51.9 55.9,45.3 		"/>
		<polygon id="XMLID_2195_" class="st13" points="47.7,51.1 47.7,53.3 54.2,49.6 54.2,47.4 		"/>
		<g id="XMLID_2193_">
			<polygon id="XMLID_2194_" class="st14" points="47.7,51.1 47.7,53.3 54.1,49.6 52.2,48.5 			"/>
		</g>
		<polygon id="XMLID_2192_" class="st12" points="54.3,57.2 46,56.4 46,55.2 54.3,55.9 		"/>
		<polygon id="XMLID_2191_" class="st8" points="54.3,57.2 54.3,55.9 64.1,50.2 64.1,51.5 		"/>
		<polygon id="XMLID_2190_" class="st10" points="54.3,55.9 46,55.2 55.9,49.5 64.1,50.2 		"/>
		<polyline id="XMLID_16086_" class="st11" points="54.3,55.9 46,55.2 55.9,49.5 		"/>
		<g id="XMLID_2172_">
			<polygon id="XMLID_2189_" class="st15" points="55.4,54.3 49.5,53.8 54.4,51 60.3,51.5 			"/>
			<polyline id="XMLID_16087_" class="st16" points="55.4,54.3 49.5,53.8 54.4,51 			"/>
			<g id="XMLID_2182_">
				<polygon id="XMLID_2188_" class="st17" points="55.3,54 55.1,54 59.1,51.7 59.3,51.7 				"/>
				<polygon id="XMLID_2187_" class="st17" points="55,54 54.9,54 58.8,51.7 59,51.7 				"/>
				<polygon id="XMLID_2186_" class="st17" points="54.7,53.9 54.6,53.9 58.5,51.6 58.7,51.6 				"/>
				<polygon id="XMLID_2185_" class="st17" points="53.9,53.9 53.7,53.9 57.7,51.6 57.8,51.6 				"/>
				<polygon id="XMLID_2184_" class="st17" points="53.6,53.8 53.4,53.8 57.4,51.5 57.5,51.5 				"/>
				<polygon id="XMLID_2183_" class="st17" points="53.3,53.8 53.1,53.8 57.1,51.5 57.3,51.5 				"/>
			</g>
			<g id="XMLID_2173_">
				<polygon id="XMLID_2181_" class="st17" points="53,53.8 52.8,53.8 56.8,51.5 57,51.5 				"/>
				<polygon id="XMLID_2180_" class="st17" points="52.7,53.8 52.6,53.7 56.5,51.4 56.7,51.5 				"/>
				<polygon id="XMLID_2179_" class="st17" points="52.4,53.7 52.3,53.7 56.2,51.4 56.4,51.4 				"/>
				<polygon id="XMLID_2178_" class="st17" points="52.1,53.7 52,53.7 56,51.4 56.1,51.4 				"/>
				<polygon id="XMLID_2177_" class="st17" points="51.8,53.7 51.7,53.7 55.7,51.4 55.8,51.4 				"/>
				<polygon id="XMLID_2176_" class="st17" points="51.5,53.6 51.4,53.6 55.4,51.3 55.5,51.4 				"/>
				<polygon id="XMLID_2175_" class="st17" points="51.3,53.6 51.1,53.6 55.1,51.3 55.2,51.3 				"/>
				<polygon id="XMLID_2174_" class="st17" points="51,53.6 50.8,53.6 54.8,51.3 54.9,51.3 				"/>
			</g>
		</g>
		<polygon id="XMLID_2171_" class="st11" points="46,51 43.8,49.7 52,45 54.1,46.3 		"/>
	</g>
	<polygon id="XMLID_2169_" class="st10" points="55.9,45.3 51,42.5 49.3,43.5 54.1,46.3 	"/>
	<g id="XMLID_2106_">
		<path id="XMLID_2168_" class="st18" d="M28.9,46l3.9,2.2c0.1,0.1,0.2,0.2,0.2,0.4v2.2c0,0.2-0.2,0.3-0.3,0.2l-3.9-2.2
			c-0.1-0.1-0.2-0.2-0.2-0.4v-2.2C28.6,46,28.8,45.9,28.9,46z"/>
		<path id="XMLID_16077_" class="st19" d="M28.6,46.1c0-0.2,0.2-0.3,0.3-0.2l3.9,2.2c0.1,0.1,0.2,0.2,0.2,0.4v2.2
			c0,0.2-0.2,0.3-0.3,0.2"/>
		<g id="XMLID_2164_">
			<polygon id="XMLID_2167_" class="st20" points="29.1,46.5 31,47.6 31,49.5 29.1,48.4 			"/>
			<polygon id="XMLID_2166_" class="st21" points="29.2,46.8 30.9,47.7 30.9,49.3 29.2,48.3 			"/>
			<polygon id="XMLID_2165_" class="st22" points="30.9,47.7 30.9,49.3 29.2,48.3 			"/>
		</g>
		<g id="XMLID_2107_">
			<g id="XMLID_2114_">
				<g id="XMLID_2158_">
					<g id="XMLID_2159_">
						<path id="XMLID_2163_" class="st20" d="M31.3,47.8L31.3,47.8c-0.1,0-0.2,0.1-0.1,0.3l0,0c0,0.1,0.1,0.1,0.2,0.1l0,0
							c0.1,0,0.2-0.1,0.1-0.3l0,0C31.4,47.8,31.3,47.8,31.3,47.8z"/>
						<path id="XMLID_2162_" class="st18" d="M31.3,47.8L31.3,47.8c-0.1,0-0.2,0.1-0.1,0.2l0,0c0,0.1,0.1,0.1,0.1,0.1l0,0
							c0.1,0,0.2-0.1,0.1-0.2l0,0C31.4,47.9,31.3,47.8,31.3,47.8z"/>
						<path id="XMLID_2161_" class="st20" d="M31.3,47.8L31.3,47.8c-0.1,0-0.1,0.1-0.1,0.2l0,0c0,0,0.1,0.1,0.1,0.1l0,0
							c0.1,0,0.1-0.1,0.1-0.2l0,0C31.4,47.9,31.3,47.8,31.3,47.8z"/>
						<path id="XMLID_2160_" class="st23" d="M31.3,47.9L31.3,47.9c-0.1,0-0.1,0.1-0.1,0.2l0,0C31.3,48.1,31.3,47.9,31.3,47.9z"/>
					</g>
				</g>
				<g id="XMLID_2152_">
					<g id="XMLID_2153_">
						<path id="XMLID_2157_" class="st20" d="M31.3,48.3L31.3,48.3c-0.1,0-0.2,0.1-0.1,0.3l0,0c0,0.1,0.1,0.1,0.2,0.1l0,0
							c0.1,0,0.2-0.1,0.1-0.3l0,0C31.4,48.3,31.3,48.3,31.3,48.3z"/>
						<path id="XMLID_2156_" class="st18" d="M31.3,48.3L31.3,48.3c-0.1,0-0.2,0.1-0.1,0.2l0,0c0,0.1,0.1,0.1,0.1,0.1l0,0
							c0.1,0,0.2-0.1,0.1-0.2l0,0C31.4,48.3,31.3,48.3,31.3,48.3z"/>
						<path id="XMLID_2155_" class="st20" d="M31.3,48.3L31.3,48.3c-0.1,0-0.1,0.1-0.1,0.2l0,0c0,0,0.1,0.1,0.1,0.1l0,0
							c0.1,0,0.1-0.1,0.1-0.2l0,0C31.4,48.4,31.3,48.3,31.3,48.3z"/>
						<path id="XMLID_2154_" class="st23" d="M31.3,48.3L31.3,48.3c-0.1,0-0.1,0.1-0.1,0.2l0,0C31.3,48.6,31.3,48.4,31.3,48.3z"/>
					</g>
				</g>
				<g id="XMLID_2146_">
					<g id="XMLID_2147_">
						<path id="XMLID_2151_" class="st20" d="M31.3,48.8L31.3,48.8c-0.1,0-0.2,0.1-0.1,0.3l0,0c0,0.1,0.1,0.1,0.2,0.1l0,0
							c0.1,0,0.2-0.1,0.1-0.3l0,0C31.4,48.8,31.3,48.8,31.3,48.8z"/>
						<path id="XMLID_2150_" class="st18" d="M31.3,48.8L31.3,48.8c-0.1,0-0.2,0.1-0.1,0.2l0,0c0,0.1,0.1,0.1,0.1,0.1l0,0
							c0.1,0,0.2-0.1,0.1-0.2l0,0C31.4,48.8,31.3,48.8,31.3,48.8z"/>
						<path id="XMLID_2149_" class="st20" d="M31.3,48.8L31.3,48.8c-0.1,0-0.1,0.1-0.1,0.2l0,0c0,0,0.1,0.1,0.1,0.1l0,0
							c0.1,0,0.1-0.1,0.1-0.2l0,0C31.4,48.8,31.3,48.8,31.3,48.8z"/>
						<path id="XMLID_2148_" class="st23" d="M31.3,48.8L31.3,48.8c-0.1,0-0.1,0.1-0.1,0.2l0,0C31.3,49,31.3,48.8,31.3,48.8z"/>
					</g>
				</g>
				<g id="XMLID_2140_">
					<g id="XMLID_2141_">
						<path id="XMLID_2145_" class="st20" d="M31.7,48.1L31.7,48.1c-0.1,0-0.2,0.1-0.1,0.3l0,0c0,0.1,0.1,0.1,0.2,0.1l0,0
							c0.1,0,0.2-0.1,0.1-0.3l0,0C31.8,48.1,31.8,48.1,31.7,48.1z"/>
						<path id="XMLID_2144_" class="st18" d="M31.7,48.1L31.7,48.1c-0.1,0-0.2,0.1-0.1,0.2l0,0c0,0.1,0.1,0.1,0.1,0.1l0,0
							c0.1,0,0.2-0.1,0.1-0.2l0,0C31.8,48.1,31.8,48.1,31.7,48.1z"/>
						<path id="XMLID_2143_" class="st20" d="M31.7,48.1L31.7,48.1c-0.1,0-0.1,0.1-0.1,0.2l0,0c0,0,0.1,0.1,0.1,0.1l0,0
							c0.1,0,0.1-0.1,0.1-0.2l0,0C31.8,48.1,31.8,48.1,31.7,48.1z"/>
						<path id="XMLID_2142_" class="st23" d="M31.7,48.1L31.7,48.1c-0.1,0-0.1,0.1-0.1,0.2l0,0C31.7,48.3,31.8,48.1,31.7,48.1z"/>
					</g>
				</g>
				<g id="XMLID_2134_">
					<g id="XMLID_2135_">
						<path id="XMLID_2139_" class="st20" d="M31.7,48.5L31.7,48.5c-0.1,0-0.2,0.1-0.1,0.3l0,0c0,0.1,0.1,0.1,0.2,0.1l0,0
							c0.1,0,0.2-0.1,0.1-0.3l0,0C31.8,48.6,31.8,48.5,31.7,48.5z"/>
						<path id="XMLID_2138_" class="st18" d="M31.7,48.6L31.7,48.6c-0.1,0-0.2,0.1-0.1,0.2l0,0c0,0.1,0.1,0.1,0.1,0.1l0,0
							c0.1,0,0.2-0.1,0.1-0.2l0,0C31.8,48.6,31.8,48.6,31.7,48.6z"/>
						<path id="XMLID_2137_" class="st20" d="M31.7,48.6L31.7,48.6c-0.1,0-0.1,0.1-0.1,0.2l0,0c0,0,0.1,0.1,0.1,0.1l0,0
							c0.1,0,0.1-0.1,0.1-0.2l0,0C31.8,48.6,31.8,48.6,31.7,48.6z"/>
						<path id="XMLID_2136_" class="st23" d="M31.7,48.6L31.7,48.6c-0.1,0-0.1,0.1-0.1,0.2l0,0C31.7,48.8,31.8,48.6,31.7,48.6z"/>
					</g>
				</g>
				<g id="XMLID_2128_">
					<g id="XMLID_2129_">
						<path id="XMLID_2133_" class="st20" d="M31.7,49L31.7,49c-0.1,0-0.2,0.1-0.1,0.3l0,0c0,0.1,0.1,0.1,0.2,0.1l0,0
							c0.1,0,0.2-0.1,0.1-0.3l0,0C31.8,49.1,31.8,49,31.7,49z"/>
						<path id="XMLID_2132_" class="st18" d="M31.7,49L31.7,49c-0.1,0-0.2,0.1-0.1,0.2l0,0c0,0.1,0.1,0.1,0.1,0.1l0,0
							c0.1,0,0.2-0.1,0.1-0.2l0,0C31.8,49.1,31.8,49.1,31.7,49z"/>
						<path id="XMLID_2131_" class="st20" d="M31.7,49.1L31.7,49.1c-0.1,0-0.1,0.1-0.1,0.2l0,0c0,0,0.1,0.1,0.1,0.1l0,0
							c0.1,0,0.1-0.1,0.1-0.2l0,0C31.8,49.1,31.8,49.1,31.7,49.1z"/>
						<path id="XMLID_2130_" class="st23" d="M31.7,49.1L31.7,49.1c-0.1,0-0.1,0.1-0.1,0.2l0,0C31.7,49.3,31.8,49.1,31.7,49.1z"/>
					</g>
				</g>
				<g id="XMLID_2115_">
					<g id="XMLID_2122_">
						<g id="XMLID_2123_">
							<path id="XMLID_2127_" class="st20" d="M31.3,49.2L31.3,49.2c-0.1,0-0.2,0.1-0.1,0.3l0,0c0,0.1,0.1,0.1,0.2,0.1l0,0
								c0.1,0,0.2-0.1,0.1-0.3l0,0C31.4,49.3,31.3,49.2,31.3,49.2z"/>
							<path id="XMLID_2126_" class="st18" d="M31.3,49.3L31.3,49.3c-0.1,0-0.2,0.1-0.1,0.2l0,0c0,0.1,0.1,0.1,0.1,0.1l0,0
								c0.1,0,0.2-0.1,0.1-0.2l0,0C31.4,49.3,31.3,49.3,31.3,49.3z"/>
							<path id="XMLID_2125_" class="st20" d="M31.3,49.3L31.3,49.3c-0.1,0-0.1,0.1-0.1,0.2l0,0c0,0,0.1,0.1,0.1,0.1l0,0
								c0.1,0,0.1-0.1,0.1-0.2l0,0C31.4,49.3,31.3,49.3,31.3,49.3z"/>
							<path id="XMLID_2124_" class="st23" d="M31.3,49.3L31.3,49.3c-0.1,0-0.1,0.1-0.1,0.2l0,0C31.3,49.5,31.3,49.3,31.3,49.3z"/>
						</g>
					</g>
					<g id="XMLID_2116_">
						<g id="XMLID_2117_">
							<path id="XMLID_2121_" class="st20" d="M31.7,49.5L31.7,49.5c-0.1,0-0.2,0.1-0.1,0.3l0,0c0,0.1,0.1,0.1,0.2,0.1l0,0
								c0.1,0,0.2-0.1,0.1-0.3l0,0C31.8,49.5,31.8,49.5,31.7,49.5z"/>
							<path id="XMLID_2120_" class="st18" d="M31.7,49.5L31.7,49.5c-0.1,0-0.2,0.1-0.1,0.2l0,0c0,0.1,0.1,0.1,0.1,0.1l0,0
								c0.1,0,0.2-0.1,0.1-0.2l0,0C31.8,49.6,31.8,49.5,31.7,49.5z"/>
							<path id="XMLID_2119_" class="st20" d="M31.7,49.6L31.7,49.6c-0.1,0-0.1,0.1-0.1,0.2l0,0c0,0,0.1,0.1,0.1,0.1l0,0
								c0.1,0,0.1-0.1,0.1-0.2l0,0C31.8,49.6,31.8,49.6,31.7,49.6z"/>
							<path id="XMLID_2118_" class="st23" d="M31.7,49.6L31.7,49.6c-0.1,0-0.1,0.1-0.1,0.2l0,0C31.7,49.8,31.8,49.6,31.7,49.6z"/>
						</g>
					</g>
				</g>
			</g>
			<g id="XMLID_2108_">
				<g id="XMLID_2109_">
					<path id="XMLID_2113_" class="st20" d="M32.3,49.7L32.3,49.7c-0.2,0-0.3,0.2-0.1,0.4l0,0c0.1,0.1,0.2,0.1,0.2,0.2l0,0
						c0.2,0,0.3-0.2,0.1-0.4l0,0C32.5,49.8,32.4,49.7,32.3,49.7z"/>
					<path id="XMLID_2112_" class="st18" d="M32.3,49.7L32.3,49.7c-0.2,0-0.2,0.2-0.1,0.3l0,0c0.1,0.1,0.1,0.1,0.2,0.1l0,0
						c0.2,0,0.2-0.2,0.1-0.3l0,0C32.5,49.8,32.4,49.7,32.3,49.7z"/>
					<path id="XMLID_2111_" class="st24" d="M32.3,49.8L32.3,49.8c-0.1,0-0.2,0.2-0.1,0.3l0,0c0,0.1,0.1,0.1,0.2,0.1l0,0
						c0.1,0,0.2-0.2,0.1-0.3l0,0C32.5,49.8,32.4,49.8,32.3,49.8z"/>
					<path id="XMLID_2110_" class="st25" d="M32.3,49.8L32.3,49.8c-0.1,0-0.2,0.1-0.1,0.2l0,0C32.3,50.1,32.4,49.8,32.3,49.8z"/>
				</g>
			</g>
		</g>
	</g>
	<polygon id="XMLID_2105_" class="st26" points="51.7,43.1 40,36.3 31.4,41.3 31.4,42.2 43.1,48.9 51.7,44 	"/>
	<polygon class="st3" points="43,48.9 43.1,48.9 51.7,44 51.7,43.1 43,38.1 	"/>
	<polygon id="XMLID_2104_" class="st27" points="40,36.3 51.7,43.1 43.1,48 31.4,41.3 	"/>
	<polygon id="XMLID_2103_" class="st2" points="42.9,36.7 40,35 31.4,40 31.4,41.3 34.3,43 42.9,38 	"/>
	<polygon id="XMLID_2102_" class="st28" points="42.9,36.7 34.3,41.7 34.3,43 42.9,38 	"/>
	<polygon id="XMLID_2101_" class="st29" points="40,35 42.9,36.7 34.3,41.7 31.4,40 	"/>
	<polyline id="XMLID_16085_" class="st1" points="34.3,41.7 31.4,40 40,35 	"/>
	<polygon id="XMLID_2100_" class="st28" points="51.7,42.6 42.9,37.5 34.3,42.5 34.3,43 43.1,48 51.7,43.1 	"/>
	<polygon id="XMLID_2099_" class="st29" points="42.9,37.5 51.7,42.6 43.1,47.6 34.3,42.5 	"/>
	<polyline id="XMLID_16084_" class="st1" points="43.1,47.6 34.3,42.5 42.9,37.5 	"/>
</g>
</svg>
