<?xml version="1.0" encoding="utf-8"?>
<!-- Generator: Adobe Illustrator 21.0.0, SVG Export Plug-In . SVG Version: 6.00 Build 0)  -->
<svg version="1.1" id="Layer_1" xmlns="http://www.w3.org/2000/svg" xmlns:xlink="http://www.w3.org/1999/xlink" x="0px" y="0px"
	 viewBox="0 0 80 80" style="enable-background:new 0 0 80 80;" xml:space="preserve">
<style type="text/css">
	.st0{fill:#50504E;}
	.st1{fill:#C3BEB6;}
	.st2{fill:#ADA69C;}
	.st3{opacity:0.2;fill:#ADA69C;enable-background:new    ;}
	.st4{fill:#97908A;}
	.st5{fill:#9F988F;}
	.st6{fill:#D1CAC1;}
	.st7{fill:#232B33;}
	.st8{fill:#101416;}
	.st9{fill:#3F4D5A;}
	.st10{fill:#353F48;}
	.st11{fill:#989189;}
	.st12{fill:#BAB6B0;}
	.st13{fill:#9D9993;}
	.st14{fill:#CAC8C4;}
</style>
<g id="XMLID_2229_">
	<g id="XMLID_2240_">
		<g id="XMLID_2241_">
			<g id="XMLID_2242_">
				<g id="XMLID_2243_">
					<path id="XMLID_2244_" class="st0" d="M41.2,73.7c0-0.1-0.1-0.3-0.3-0.4l0,0c-0.2-0.1-0.5-0.2-0.8-0.1l0,0
						c-0.3,0.1-0.5,0.3-0.5,0.5v3.8c0,0.1,0.1,0.3,0.3,0.4l0,0c0.2,0.1,0.5,0.2,0.8,0.1l0,0c0.3-0.1,0.5-0.3,0.5-0.5V73.7z"/>
				</g>
			</g>
		</g>
	</g>
	<g id="XMLID_2235_">
		<g id="XMLID_2236_">
			<g id="XMLID_2237_">
				<g id="XMLID_2238_">
					<path id="XMLID_2239_" class="st0" d="M29.8,67.3c0-0.1-0.1-0.3-0.3-0.4l0,0c-0.2-0.1-0.5-0.2-0.8-0.1l0,0
						c-0.3,0.1-0.5,0.3-0.5,0.5v3.8c0,0.1,0.1,0.3,0.3,0.4l0,0c0.2,0.1,0.5,0.2,0.8,0.1l0,0c0.3-0.1,0.5-0.3,0.5-0.5V67.3z"/>
				</g>
			</g>
		</g>
	</g>
	<g id="XMLID_2230_">
		<g id="XMLID_2231_">
			<g id="XMLID_2232_">
				<g id="XMLID_2233_">
					<path id="XMLID_2234_" class="st0" d="M52.4,67.3c0-0.1-0.1-0.3-0.3-0.4l0,0c-0.2-0.1-0.5-0.2-0.8-0.1l0,0
						c-0.3,0.1-0.5,0.3-0.5,0.5v3.8c0,0.1,0.1,0.3,0.3,0.4l0,0c0.2,0.1,0.5,0.2,0.8,0.1l0,0c0.3-0.1,0.5-0.3,0.5-0.5V67.3z"/>
				</g>
			</g>
		</g>
	</g>
</g>
<g id="XMLID_2223_">
	<path id="XMLID_2228_" class="st1" d="M52.8,64.7c0-0.3-0.1-0.6-0.5-0.8l-10.8-6.3c-0.7-0.4-1.6-0.4-2.3,0l-10.8,6.3
		c-0.3,0.2-0.4,0.4-0.4,0.7s0,4.7,0,5s0.2,0.6,0.5,0.8l10.8,6.3c0.7,0.4,1.6,0.4,2.3,0l10.8-6.3c0.3-0.2,0.4-0.5,0.5-0.8
		C52.8,69.3,52.8,65,52.8,64.7z"/>
	<path class="st2" d="M52.8,64.7c0-0.3-0.1-0.6-0.5-0.8l-10.8-6.3c-0.4-0.2-0.8-0.3-1.2-0.3v19.6c0.4,0,0.8-0.1,1.2-0.3l10.8-6.3
		c0.3-0.2,0.4-0.5,0.5-0.8C52.8,69.3,52.8,65,52.8,64.7z"/>
	<path class="st3" d="M52.8,64.7c0-0.3-0.1-0.6-0.5-0.8l-10.8-6.3c-0.4-0.2-0.8-0.3-1.2-0.3v19.6c0.4,0,0.8-0.1,1.2-0.3l10.8-6.3
		c0.3-0.2,0.4-0.5,0.5-0.8C52.8,69.3,52.8,65,52.8,64.7z"/>
	<g id="XMLID_2224_">
		<path id="XMLID_2227_" class="st4" d="M52.3,63.9l-10.8-6.3c-0.7-0.4-1.6-0.4-2.3,0l-10.8,6.3c-0.3,0.2-0.4,0.4-0.4,0.7
			c0,0.1,0,0.5,0,0.6c0,0.2,0.2,0.5,0.4,0.6l10.8,6.3c0.7,0.4,1.6,0.4,2.3,0l10.8-6.3c0.2-0.1,0.4-0.4,0.4-0.6c0-0.1,0-0.6,0-0.7
			C52.8,64.3,52.6,64.1,52.3,63.9z"/>
		<g id="XMLID_2225_">
			<path id="XMLID_2226_" class="st5" d="M41.5,57.7L52.3,64c0.6,0.3,0.6,1.2,0,1.6l-10.8,6.3c-0.7,0.4-1.6,0.4-2.3,0l-10.8-6.3
				c-0.6-0.3-0.6-1.2,0-1.6l10.8-6.3C39.9,57.2,40.8,57.2,41.5,57.7z"/>
		</g>
	</g>
</g>
<g id="XMLID_2217_">
	<path id="XMLID_2222_" class="st1" d="M52.8,59.8c0-0.3-0.1-0.6-0.5-0.8l-10.8-6.3c-0.7-0.4-1.6-0.4-2.3,0L28.4,59
		c-0.3,0.2-0.4,0.4-0.4,0.7s0,4.7,0,5c0,0.3,0.2,0.6,0.5,0.8l10.8,6.3c0.7,0.4,1.6,0.4,2.3,0l10.8-6.3c0.3-0.2,0.4-0.5,0.5-0.8
		C52.8,64.4,52.8,60.1,52.8,59.8z"/>
	<path class="st2" d="M52.8,59.8c0-0.3-0.1-0.6-0.5-0.8l-10.8-6.3c-0.4-0.2-0.8-0.3-1.2-0.3V72c0.4,0,0.8-0.1,1.2-0.3l10.8-6.3
		c0.3-0.2,0.4-0.5,0.5-0.8C52.8,64.4,52.8,60.1,52.8,59.8z"/>
	<path class="st3" d="M52.8,59.8c0-0.3-0.1-0.6-0.5-0.8l-10.8-6.3c-0.4-0.2-0.8-0.3-1.2-0.3V72c0.4,0,0.8-0.1,1.2-0.3l10.8-6.3
		c0.3-0.2,0.4-0.5,0.5-0.8C52.8,64.4,52.8,60.1,52.8,59.8z"/>
	<g id="XMLID_2218_">
		<path id="XMLID_2221_" class="st4" d="M52.3,59.1l-10.8-6.3c-0.7-0.4-1.6-0.4-2.3,0l-10.8,6.3c-0.3,0.2-0.4,0.4-0.4,0.7
			c0,0.1,0,0.5,0,0.6c0,0.2,0.2,0.5,0.4,0.6l10.8,6.3c0.7,0.4,1.6,0.4,2.3,0L52.3,61c0.2-0.1,0.4-0.4,0.4-0.6c0-0.1,0-0.6,0-0.7
			C52.8,59.5,52.6,59.2,52.3,59.1z"/>
		<g id="XMLID_2219_">
			<path id="XMLID_2220_" class="st5" d="M41.5,52.8l10.8,6.3c0.6,0.3,0.6,1.2,0,1.6L41.5,67c-0.7,0.4-1.6,0.4-2.3,0l-10.8-6.3
				c-0.6-0.3-0.6-1.2,0-1.6l10.8-6.3C39.9,52.4,40.8,52.4,41.5,52.8z"/>
		</g>
	</g>
</g>
<g id="XMLID_2211_">
	<path id="XMLID_2216_" class="st6" d="M52.8,55c0-0.3-0.1-0.6-0.5-0.8l-10.8-6.3c-0.7-0.4-1.6-0.4-2.3,0l-10.8,6.3
		c-0.3,0.2-0.4,0.4-0.4,0.7s0,4.7,0,5s0.2,0.6,0.5,0.8L39.3,67c0.7,0.4,1.6,0.4,2.3,0l10.8-6.3c0.3-0.2,0.4-0.5,0.5-0.8
		C52.8,59.5,52.8,55.3,52.8,55z"/>
	<path id="XMLID_16079_" class="st1" d="M39.2,66.9c0.7,0.4,1.6,0.4,2.3,0l10.8-6.3c0.3-0.2,0.4-0.5,0.5-0.8c0-0.3,0-4.6,0-4.9
		c0-0.3-0.1-0.6-0.5-0.8l-10.8-6.3c-0.7-0.4-1.6-0.4-2.3,0l-10.8,6.3c-0.3,0.2-0.4,0.4-0.4,0.7"/>
	<path class="st2" d="M52.8,55c0-0.3-0.1-0.6-0.5-0.8l-10.8-6.3c-0.4-0.2-0.8-0.3-1.2-0.3v19.6c0.4,0,0.8-0.1,1.2-0.3l10.8-6.3
		c0.3-0.2,0.4-0.5,0.5-0.8C52.8,59.5,52.8,55.3,52.8,55z"/>
	<path class="st3" d="M52.8,59.8"/>
	<path class="st3" d="M52.8,55c0-0.3-0.1-0.6-0.5-0.8l-10.8-6.3c-0.4-0.2-0.8-0.3-1.2-0.3v19.6c0.4,0,0.8-0.1,1.2-0.3"/>
	<g id="XMLID_2212_">
		<path id="XMLID_2215_" class="st4" d="M52.3,54.2l-10.8-6.3c-0.7-0.4-1.6-0.4-2.3,0l-10.8,6.3c-0.3,0.2-0.4,0.4-0.4,0.7
			c0,0.1,0,0.5,0,0.6c0,0.2,0.2,0.5,0.4,0.6l10.8,6.3c0.7,0.4,1.6,0.4,2.3,0l10.8-6.3c0.2-0.1,0.4-0.4,0.4-0.6c0-0.1,0-0.6,0-0.7
			C52.8,54.6,52.6,54.4,52.3,54.2z"/>
		<g id="XMLID_2213_">
			<path id="XMLID_2214_" class="st5" d="M41.5,47.9l10.8,6.3c0.6,0.3,0.6,1.2,0,1.6L41.5,62c-0.7,0.4-1.6,0.4-2.3,0l-10.8-6.3
				c-0.6-0.3-0.6-1.2,0-1.6l10.8-6.3C39.9,47.5,40.8,47.5,41.5,47.9z"/>
		</g>
	</g>
</g>
<g id="XMLID_2203_">
	<path id="XMLID_2207_" class="st6" d="M52.8,48.5c0-0.3-0.1-0.6-0.5-0.8l-10.8-6.3c-0.7-0.4-1.6-0.4-2.3,0l-10.8,6.3
		c-0.3,0.2-0.4,0.4-0.4,0.7s0,6.3,0,6.6s0.2,0.6,0.5,0.8L39.2,62c0.7,0.4,1.6,0.4,2.3,0l10.8-6.3c0.3-0.2,0.4-0.5,0.5-0.8
		C52.8,54.7,52.8,48.8,52.8,48.5z"/>
	<path id="XMLID_16078_" class="st1" d="M39.2,62c0.7,0.4,1.6,0.4,2.3,0l10.8-6.3c0.3-0.2,0.4-0.5,0.5-0.8c0-0.3,0-6.2,0-6.5
		s-0.1-0.6-0.5-0.8l-10.8-6.3c-0.7-0.4-1.6-0.4-2.3,0l-10.8,6.3C28.1,47.8,28,48,28,48.3"/>
	<path class="st2" d="M52.8,48.5c0-0.3-0.1-0.6-0.5-0.8l-10.8-6.3c-0.4-0.2-0.8-0.3-1.2-0.3v21.2c0.4,0,0.8-0.1,1.2-0.3l10.8-6.3
		c0.3-0.2,0.4-0.5,0.5-0.8C52.8,54.7,52.8,48.8,52.8,48.5z"/>
	<path class="st3" d="M52.8,48.5c0-0.3-0.1-0.6-0.5-0.8l-10.8-6.3c-0.4-0.2-0.8-0.3-1.2-0.3v21.2c0.4,0,0.8-0.1,1.2-0.3"/>
	<g id="XMLID_2204_">
		<g id="XMLID_2205_">
			<path id="XMLID_2206_" class="st5" d="M41.5,41.5l10.8,6.3c0.6,0.3,0.6,1.2,0,1.6l-10.8,6.3c-0.7,0.4-1.6,0.4-2.3,0l-10.8-6.3
				c-0.6-0.3-0.6-1.2,0-1.6l10.8-6.3C39.9,41,40.8,41,41.5,41.5z"/>
		</g>
	</g>
</g>
<g id="XMLID_2201_">
	<path id="XMLID_2202_" class="st7" d="M52.8,44.1c0-0.3-0.1-0.6-0.5-0.8L41.5,37c-0.7-0.4-1.6-0.4-2.3,0l-10.8,6.3
		C28.1,43.5,28,43.7,28,44s0,4.3,0,4.6s0.2,0.6,0.5,0.8l10.8,6.3c0.7,0.4,1.6,0.4,2.3,0l10.8-6.3c0.3-0.2,0.4-0.5,0.5-0.8
		C52.8,48.2,52.8,44.4,52.8,44.1z"/>
</g>
<path class="st8" d="M40.3,55.9c0.4,0,0.8-0.1,1.2-0.3l10.8-6.3c0.3-0.2,0.4-0.5,0.5-0.8c0-0.3,0-4.2,0-4.5s-0.1-0.6-0.5-0.8
	L46.8,40h-6.4L40.3,55.9L40.3,55.9z"/>
<g id="XMLID_2198_">
	<g id="XMLID_2199_">
		<path id="XMLID_2200_" class="st9" d="M41.5,37l10.8,6.3c0.6,0.3,0.6,1.2,0,1.6l-10.8,6.3c-0.7,0.4-1.6,0.4-2.3,0l-10.8-6.3
			c-0.6-0.3-0.6-1.2,0-1.6L39.2,37C39.9,36.6,40.8,36.6,41.5,37z"/>
	</g>
</g>
<g id="XMLID_16080_">
	<g id="XMLID_16081_">
		<path id="XMLID_16082_" class="st10" d="M52.3,43.3c0.6,0.3,0.6,1.2,0,1.6l-10.8,6.3c-0.7,0.4-1.6,0.4-2.3,0l-10.8-6.3
			c-0.6-0.3-0.6-1.2,0-1.6"/>
	</g>
</g>
<polygon id="XMLID_2105_" class="st11" points="51.7,43.1 40,36.3 31.4,41.3 31.4,42.2 43.1,48.9 51.7,44 "/>
<polygon class="st3" points="43,48.9 43.1,48.9 51.7,44 51.7,43.1 43,38.1 "/>
<polygon id="XMLID_2104_" class="st12" points="40,36.3 51.7,43.1 43.1,48 31.4,41.3 "/>
<polygon id="XMLID_2103_" class="st2" points="42.9,36.7 40,35 31.4,40 31.4,41.3 34.3,43 42.9,38 "/>
<polygon id="XMLID_2102_" class="st13" points="42.9,36.7 34.3,41.7 34.3,43 42.9,38 "/>
<polygon id="XMLID_2101_" class="st14" points="40,35 42.9,36.7 34.3,41.7 31.4,40 "/>
<polyline id="XMLID_16085_" class="st1" points="34.3,41.7 31.4,40 40,35 "/>
<polygon id="XMLID_2100_" class="st13" points="51.7,42.6 42.9,37.5 34.3,42.5 34.3,43 43.1,48 51.7,43.1 "/>
<polygon id="XMLID_2099_" class="st14" points="42.9,37.5 51.7,42.6 43.1,47.6 34.3,42.5 "/>
<polyline id="XMLID_16084_" class="st1" points="43.1,47.6 34.3,42.5 42.9,37.5 "/>
</svg>
