<?xml version="1.0" encoding="utf-8"?>
<!-- Generator: Adobe Illustrator 21.0.0, SVG Export Plug-In . SVG Version: 6.00 Build 0)  -->
<svg version="1.1" id="Layer_1" xmlns="http://www.w3.org/2000/svg" xmlns:xlink="http://www.w3.org/1999/xlink" x="0px" y="0px"
	 viewBox="0 0 80 80" style="enable-background:new 0 0 80 80;" xml:space="preserve">
<style type="text/css">
	.st0{fill:#50504E;}
	.st1{fill:#C3BEB6;}
	.st2{fill:#ADA69C;}
	.st3{opacity:0.2;fill:#ADA69C;}
	.st4{fill:#97908A;}
	.st5{fill:#9F988F;}
	.st6{fill:#D1CAC1;}
	.st7{fill:#A6A29C;}
	.st8{fill:#232B33;}
	.st9{fill:#101416;}
	.st10{fill:#3F4D5A;}
	.st11{fill:#353F48;}
	.st12{fill:#1F2C35;}
	.st13{fill:#20673E;}
	.st14{fill:#2E8358;}
	.st15{fill:#FFFFFF;}
	.st16{fill:#EFEFEF;}
	.st17{fill:#B5B5B6;}
	.st18{fill:#ECECEE;}
	.st19{fill:#D1D2D3;}
	.st20{fill:#868787;}
	.st21{fill:#95CDD6;}
	.st22{fill:#80BCC9;}
	.st23{fill:#939291;}
	.st24{fill:#139A79;}
	.st25{fill:#1BA880;}
	.st26{fill:#989189;}
	.st27{fill:#BAB6B0;}
	.st28{fill:#9D9993;}
	.st29{fill:#CAC8C4;}
</style>
<g id="XMLID_1_">
	<g id="XMLID_142_">
		<g id="XMLID_153_">
			<g id="XMLID_154_">
				<g id="XMLID_155_">
					<g id="XMLID_156_">
						<path id="XMLID_157_" class="st0" d="M39.7,73.7c0-0.1,0.1-0.3,0.3-0.4l0,0c0.2-0.1,0.5-0.2,0.8-0.1l0,0
							c0.3,0.1,0.5,0.3,0.5,0.5l0,3.8c0,0.1-0.1,0.3-0.3,0.4l0,0c-0.2,0.1-0.5,0.2-0.8,0.1l0,0c-0.3-0.1-0.5-0.3-0.5-0.5L39.7,73.7z
							"/>
					</g>
				</g>
			</g>
		</g>
		<g id="XMLID_148_">
			<g id="XMLID_149_">
				<g id="XMLID_150_">
					<g id="XMLID_151_">
						<path id="XMLID_152_" class="st0" d="M51,67.3c0-0.1,0.1-0.3,0.3-0.4l0,0c0.2-0.1,0.5-0.2,0.8-0.1l0,0
							c0.3,0.1,0.5,0.3,0.5,0.5l0,3.8c0,0.1-0.1,0.3-0.3,0.4h0c-0.2,0.1-0.5,0.2-0.8,0.1l0,0c-0.3-0.1-0.5-0.3-0.5-0.5L51,67.3z"/>
					</g>
				</g>
			</g>
		</g>
		<g id="XMLID_143_">
			<g id="XMLID_144_">
				<g id="XMLID_145_">
					<g id="XMLID_146_">
						<path id="XMLID_147_" class="st0" d="M28.5,67.3c0-0.1,0.1-0.3,0.3-0.4l0,0c0.2-0.1,0.5-0.2,0.8-0.1l0,0
							c0.3,0.1,0.5,0.3,0.5,0.5l0,3.8c0,0.1-0.1,0.3-0.3,0.4l0,0c-0.2,0.1-0.5,0.2-0.8,0.1l0,0c-0.3-0.1-0.5-0.3-0.5-0.5L28.5,67.3z
							"/>
					</g>
				</g>
			</g>
		</g>
	</g>
	<g id="XMLID_136_">
		<path id="XMLID_141_" class="st1" d="M28.1,64.7c0-0.3,0.1-0.6,0.5-0.8l10.8-6.3c0.7-0.4,1.6-0.4,2.3,0l10.8,6.3
			c0.3,0.2,0.4,0.4,0.4,0.7c0,0.3,0,4.7,0,5c0,0.3-0.2,0.6-0.5,0.8l-10.8,6.3c-0.7,0.4-1.6,0.4-2.3,0l-10.8-6.3
			c-0.3-0.2-0.4-0.5-0.5-0.8C28.1,69.3,28.1,65,28.1,64.7z"/>
		<path class="st2" d="M28.1,64.7c0-0.3,0.1-0.6,0.5-0.8l10.8-6.3c0.4-0.2,0.8-0.3,1.2-0.3v19.6c-0.4,0-0.8-0.1-1.2-0.3l-10.8-6.3
			c-0.3-0.2-0.4-0.5-0.5-0.8C28.1,69.3,28.1,65,28.1,64.7z"/>
		<path class="st3" d="M28.1,64.7c0-0.3,0.1-0.6,0.5-0.8l10.8-6.3c0.4-0.2,0.8-0.3,1.2-0.3v19.6c-0.4,0-0.8-0.1-1.2-0.3l-10.8-6.3
			c-0.3-0.2-0.4-0.5-0.5-0.8C28.1,69.3,28.1,65,28.1,64.7z"/>
		<g id="XMLID_137_">
			<path id="XMLID_140_" class="st4" d="M28.5,63.9l10.8-6.3c0.7-0.4,1.6-0.4,2.3,0l10.8,6.3c0.3,0.2,0.4,0.4,0.4,0.7
				c0,0.1,0,0.5,0,0.6c0,0.2-0.2,0.5-0.4,0.6l-10.8,6.3c-0.7,0.4-1.6,0.4-2.3,0l-10.8-6.3c-0.2-0.1-0.4-0.4-0.4-0.6
				c0-0.1,0-0.6,0-0.7C28.1,64.3,28.3,64.1,28.5,63.9z"/>
			<g id="XMLID_138_">
				<path id="XMLID_139_" class="st5" d="M39.4,57.7l-10.8,6.3c-0.6,0.3-0.6,1.2,0,1.6l10.8,6.3c0.7,0.4,1.6,0.4,2.3,0l10.8-6.3
					c0.6-0.3,0.6-1.2,0-1.6l-10.8-6.3C41,57.2,40.1,57.2,39.4,57.7z"/>
			</g>
		</g>
	</g>
	<g id="XMLID_130_">
		<path id="XMLID_135_" class="st1" d="M28.1,59.8c0-0.3,0.1-0.6,0.5-0.8l10.8-6.3c0.7-0.4,1.6-0.4,2.3,0l10.8,6.3
			c0.3,0.2,0.4,0.4,0.4,0.7c0,0.3,0,4.7,0,5c0,0.3-0.2,0.6-0.5,0.8l-10.8,6.3c-0.7,0.4-1.6,0.4-2.3,0l-10.8-6.3
			c-0.3-0.2-0.4-0.5-0.5-0.8C28.1,64.4,28.1,60.1,28.1,59.8z"/>
		<path class="st2" d="M28.1,59.8c0-0.3,0.1-0.6,0.5-0.8l10.8-6.3c0.4-0.2,0.8-0.3,1.2-0.3v19.6c-0.4,0-0.8-0.1-1.2-0.3l-10.8-6.3
			c-0.3-0.2-0.4-0.5-0.5-0.8C28.1,64.4,28.1,60.1,28.1,59.8z"/>
		<path class="st3" d="M28.1,59.8c0-0.3,0.1-0.6,0.5-0.8l10.8-6.3c0.4-0.2,0.8-0.3,1.2-0.3v19.6c-0.4,0-0.8-0.1-1.2-0.3l-10.8-6.3
			c-0.3-0.2-0.4-0.5-0.5-0.8C28.1,64.4,28.1,60.1,28.1,59.8z"/>
		<g id="XMLID_131_">
			<path id="XMLID_134_" class="st4" d="M28.5,59.1l10.8-6.3c0.7-0.4,1.6-0.4,2.3,0l10.8,6.3c0.3,0.2,0.4,0.4,0.4,0.7
				c0,0.1,0,0.5,0,0.6c0,0.2-0.2,0.5-0.4,0.6l-10.8,6.3c-0.7,0.4-1.6,0.4-2.3,0L28.5,61c-0.2-0.1-0.4-0.4-0.4-0.6c0-0.1,0-0.6,0-0.7
				C28.1,59.5,28.3,59.2,28.5,59.1z"/>
			<g id="XMLID_132_">
				<path id="XMLID_133_" class="st5" d="M39.4,52.8l-10.8,6.3c-0.6,0.3-0.6,1.2,0,1.6l10.8,6.3c0.7,0.4,1.6,0.4,2.3,0l10.8-6.3
					c0.6-0.3,0.6-1.2,0-1.6l-10.8-6.3C41,52.4,40.1,52.4,39.4,52.8z"/>
			</g>
		</g>
	</g>
	<g id="XMLID_123_">
		<path id="XMLID_129_" class="st6" d="M28.1,55c0-0.3,0.1-0.6,0.5-0.8l10.8-6.3c0.7-0.4,1.6-0.4,2.3,0l10.8,6.3
			c0.3,0.2,0.4,0.4,0.4,0.7c0,0.3,0,4.7,0,5c0,0.3-0.2,0.6-0.5,0.8l-10.8,6.3c-0.7,0.4-1.6,0.4-2.3,0l-10.8-6.3
			c-0.3-0.2-0.4-0.5-0.5-0.8C28.1,59.5,28.1,55.3,28.1,55z"/>
		<path id="XMLID_128_" class="st1" d="M41.7,66.9c-0.7,0.4-1.6,0.4-2.3,0l-10.8-6.3c-0.3-0.2-0.4-0.5-0.5-0.8c0-0.3,0-4.6,0-4.9
			c0-0.3,0.1-0.6,0.5-0.8l10.8-6.3c0.7-0.4,1.6-0.4,2.3,0l10.8,6.3c0.3,0.2,0.4,0.4,0.4,0.7"/>
		<path class="st2" d="M28.1,55c0-0.3,0.1-0.6,0.5-0.8l10.8-6.3c0.4-0.2,0.8-0.3,1.2-0.3v19.6c-0.4,0-0.8-0.1-1.2-0.3l-10.8-6.3
			c-0.3-0.2-0.4-0.5-0.5-0.8C28.1,59.5,28.1,55.3,28.1,55z"/>
		<path class="st3" d="M28.1,59.8"/>
		<path class="st3" d="M28.1,55c0-0.3,0.1-0.6,0.5-0.8l10.8-6.3c0.4-0.2,0.8-0.3,1.2-0.3v19.6c-0.4,0-0.8-0.1-1.2-0.3"/>
		<g id="XMLID_124_">
			<path id="XMLID_127_" class="st4" d="M28.5,54.2l10.8-6.3c0.7-0.4,1.6-0.4,2.3,0l10.8,6.3c0.3,0.2,0.4,0.4,0.4,0.7
				c0,0.1,0,0.5,0,0.6c0,0.2-0.2,0.5-0.4,0.6l-10.8,6.3c-0.7,0.4-1.6,0.4-2.3,0l-10.8-6.3c-0.2-0.1-0.4-0.4-0.4-0.6
				c0-0.1,0-0.6,0-0.7C28.1,54.6,28.3,54.4,28.5,54.2z"/>
			<g id="XMLID_125_">
				<path id="XMLID_126_" class="st5" d="M39.4,47.9l-10.8,6.3c-0.6,0.3-0.6,1.2,0,1.6L39.4,62c0.7,0.4,1.6,0.4,2.3,0l10.8-6.3
					c0.6-0.3,0.6-1.2,0-1.6l-10.8-6.3C41,47.5,40.1,47.5,39.4,47.9z"/>
			</g>
		</g>
	</g>
	<polygon id="XMLID_122_" class="st7" points="49.6,60.9 44.3,64 44.3,64.7 49.6,61.6 	"/>
	<polygon id="XMLID_121_" class="st7" points="49.6,65.8 44.3,68.8 44.3,69.6 49.6,66.5 	"/>
	<polygon id="XMLID_120_" class="st7" points="49.6,70.4 44.3,73.5 44.3,74.2 49.6,71.1 	"/>
	<g id="XMLID_114_">
		<path id="XMLID_119_" class="st6" d="M28.1,48.5c0-0.3,0.1-0.6,0.5-0.8l10.8-6.3c0.7-0.4,1.6-0.4,2.3,0l10.8,6.3
			c0.3,0.2,0.4,0.4,0.4,0.7c0,0.3,0,6.3,0,6.6c0,0.3-0.2,0.6-0.5,0.8L41.7,62c-0.7,0.4-1.6,0.4-2.3,0l-10.8-6.3
			c-0.3-0.2-0.4-0.5-0.5-0.8C28.1,54.7,28.1,48.8,28.1,48.5z"/>
		<path id="XMLID_118_" class="st1" d="M41.7,62c-0.7,0.4-1.6,0.4-2.3,0l-10.8-6.3c-0.3-0.2-0.4-0.5-0.5-0.8c0-0.3,0-6.2,0-6.5
			c0-0.3,0.1-0.6,0.5-0.8l10.8-6.3c0.7-0.4,1.6-0.4,2.3,0l10.8,6.3c0.3,0.2,0.4,0.4,0.4,0.7"/>
		<path class="st2" d="M28.1,48.5c0-0.3,0.1-0.6,0.5-0.8l10.8-6.3c0.4-0.2,0.8-0.3,1.2-0.3v21.2c-0.4,0-0.8-0.1-1.2-0.3l-10.8-6.3
			c-0.3-0.2-0.4-0.5-0.5-0.8C28.1,54.7,28.1,48.8,28.1,48.5z"/>
		<path class="st3" d="M28.1,48.5c0-0.3,0.1-0.6,0.5-0.8l10.8-6.3c0.4-0.2,0.8-0.3,1.2-0.3v21.2c-0.4,0-0.8-0.1-1.2-0.3"/>
		<g id="XMLID_115_">
			<g id="XMLID_116_">
				<path id="XMLID_117_" class="st5" d="M39.4,41.5l-10.8,6.3c-0.6,0.3-0.6,1.2,0,1.6l10.8,6.3c0.7,0.4,1.6,0.4,2.3,0l10.8-6.3
					c0.6-0.3,0.6-1.2,0-1.6l-10.8-6.3C41,41,40.1,41,39.4,41.5z"/>
			</g>
		</g>
	</g>
	<g id="XMLID_112_">
		<path id="XMLID_113_" class="st8" d="M28.1,44.1c0-0.3,0.1-0.6,0.5-0.8L39.4,37c0.7-0.4,1.6-0.4,2.3,0l10.8,6.3
			c0.3,0.2,0.4,0.4,0.4,0.7c0,0.3,0,4.3,0,4.6c0,0.3-0.2,0.6-0.5,0.8l-10.8,6.3c-0.7,0.4-1.6,0.4-2.3,0l-10.8-6.3
			c-0.3-0.2-0.4-0.5-0.5-0.8C28.1,48.2,28.1,44.4,28.1,44.1z"/>
	</g>
	<path class="st9" d="M40.5,55.9c-0.4,0-0.8-0.1-1.2-0.3l-10.8-6.3c-0.3-0.2-0.4-0.5-0.5-0.8c0-0.3,0-4.2,0-4.5
		c0-0.3,0.1-0.6,0.5-0.8l5.6-3.2h6.4V55.9z"/>
	<g id="XMLID_109_">
		<g id="XMLID_110_">
			<path id="XMLID_111_" class="st10" d="M39.4,37l-10.8,6.3c-0.6,0.3-0.6,1.2,0,1.6l10.8,6.3c0.7,0.4,1.6,0.4,2.3,0l10.8-6.3
				c0.6-0.3,0.6-1.2,0-1.6L41.7,37C41,36.6,40.1,36.6,39.4,37z"/>
		</g>
	</g>
	<g id="XMLID_106_">
		<g id="XMLID_107_">
			<path id="XMLID_108_" class="st11" d="M28.5,43.3c-0.6,0.3-0.6,1.2,0,1.6l10.8,6.3c0.7,0.4,1.6,0.4,2.3,0l10.8-6.3
				c0.6-0.3,0.6-1.2,0-1.6"/>
		</g>
	</g>
	<g id="XMLID_76_">
		<polygon id="XMLID_105_" class="st12" points="37,49.7 37,56.4 34.9,57.6 34.9,51 		"/>
		<polygon id="XMLID_104_" class="st8" points="34.9,51 34.9,57.6 25,51.9 25,45.3 		"/>
		<polygon id="XMLID_103_" class="st13" points="33.2,51.1 33.2,53.3 26.7,49.6 26.7,47.4 		"/>
		<g id="XMLID_101_">
			<polygon id="XMLID_102_" class="st14" points="33.2,51.1 33.2,53.3 26.7,49.6 28.6,48.5 			"/>
		</g>
		<polygon id="XMLID_100_" class="st12" points="26.6,57.1 34.9,56.4 34.9,55.2 26.6,55.9 		"/>
		<polygon id="XMLID_99_" class="st8" points="26.6,57.1 26.6,55.9 16.7,50.2 16.7,51.5 		"/>
		<polygon id="XMLID_98_" class="st10" points="26.6,55.9 34.9,55.2 25,49.5 16.7,50.2 		"/>
		<polyline id="XMLID_97_" class="st11" points="26.6,55.9 34.9,55.2 25,49.5 		"/>
		<g id="XMLID_78_">
			<polygon id="XMLID_96_" class="st15" points="25.5,54.3 31.4,53.8 26.5,51 20.6,51.5 			"/>
			<polyline id="XMLID_95_" class="st16" points="25.5,54.3 31.4,53.8 26.5,51 			"/>
			<g id="XMLID_88_">
				<polygon id="XMLID_94_" class="st17" points="25.6,54 25.7,54 21.7,51.7 21.6,51.7 				"/>
				<polygon id="XMLID_93_" class="st17" points="25.9,54 26,54 22,51.7 21.9,51.7 				"/>
				<polygon id="XMLID_92_" class="st17" points="26.1,53.9 26.3,53.9 22.3,51.6 22.2,51.6 				"/>
				<polygon id="XMLID_91_" class="st17" points="27,53.9 27.2,53.8 23.2,51.5 23,51.6 				"/>
				<polygon id="XMLID_90_" class="st17" points="27.3,53.8 27.4,53.8 23.5,51.5 23.3,51.5 				"/>
				<polygon id="XMLID_89_" class="st17" points="27.6,53.8 27.7,53.8 23.8,51.5 23.6,51.5 				"/>
			</g>
			<g id="XMLID_79_">
				<polygon id="XMLID_87_" class="st17" points="27.9,53.8 28,53.8 24,51.5 23.9,51.5 				"/>
				<polygon id="XMLID_86_" class="st17" points="28.2,53.8 28.3,53.7 24.3,51.4 24.2,51.5 				"/>
				<polygon id="XMLID_85_" class="st17" points="28.5,53.7 28.6,53.7 24.6,51.4 24.5,51.4 				"/>
				<polygon id="XMLID_84_" class="st17" points="28.7,53.7 28.9,53.7 24.9,51.4 24.8,51.4 				"/>
				<polygon id="XMLID_83_" class="st17" points="29,53.7 29.2,53.7 25.2,51.4 25.1,51.4 				"/>
				<polygon id="XMLID_82_" class="st17" points="29.3,53.6 29.5,53.6 25.5,51.3 25.3,51.3 				"/>
				<polygon id="XMLID_81_" class="st17" points="29.6,53.6 29.7,53.6 25.8,51.3 25.6,51.3 				"/>
				<polygon id="XMLID_80_" class="st17" points="29.9,53.6 30,53.6 26.1,51.3 25.9,51.3 				"/>
			</g>
		</g>
		<polygon id="XMLID_77_" class="st11" points="34.9,51 37,49.7 28.9,45 26.7,46.3 		"/>
	</g>
	<polygon id="XMLID_75_" class="st10" points="25,45.3 29.8,42.5 31.5,43.5 26.7,46.3 	"/>
	<g id="XMLID_11_">
		<path id="XMLID_74_" class="st18" d="M51.9,45.9l-3.9,2.2c-0.1,0.1-0.2,0.2-0.2,0.4v2.2c0,0.2,0.2,0.3,0.3,0.2l3.9-2.2
			c0.1-0.1,0.2-0.2,0.2-0.4v-2.2C52.3,46,52.1,45.9,51.9,45.9z"/>
		<path id="XMLID_73_" class="st19" d="M52.3,46.1c0-0.2-0.2-0.3-0.3-0.2l-3.9,2.2c-0.1,0.1-0.2,0.2-0.2,0.4v2.2
			c0,0.2,0.2,0.3,0.3,0.2"/>
		<g id="XMLID_69_">
			<polygon id="XMLID_72_" class="st20" points="51.8,46.5 49.8,47.6 49.8,49.5 51.8,48.4 			"/>
			<polygon id="XMLID_71_" class="st21" points="51.6,46.7 50,47.7 50,49.3 51.6,48.3 			"/>
			<polygon id="XMLID_70_" class="st22" points="50,47.7 50,49.3 51.6,48.3 			"/>
		</g>
		<g id="XMLID_12_">
			<g id="XMLID_19_">
				<g id="XMLID_63_">
					<g id="XMLID_64_">
						<path id="XMLID_68_" class="st20" d="M49.6,47.8L49.6,47.8c0.1,0,0.2,0.1,0.1,0.3l0,0c0,0.1-0.1,0.1-0.2,0.1l0,0
							c-0.1,0-0.2-0.1-0.1-0.3l0,0C49.5,47.8,49.5,47.8,49.6,47.8z"/>
						<path id="XMLID_67_" class="st18" d="M49.6,47.8L49.6,47.8c0.1,0,0.2,0.1,0.1,0.2l0,0c0,0.1-0.1,0.1-0.1,0.1l0,0
							c-0.1,0-0.2-0.1-0.1-0.2l0,0C49.5,47.9,49.5,47.8,49.6,47.8z"/>
						<path id="XMLID_66_" class="st20" d="M49.6,47.8L49.6,47.8c0.1,0,0.1,0.1,0.1,0.2l0,0c0,0-0.1,0.1-0.1,0.1l0,0
							c-0.1,0-0.1-0.1-0.1-0.2l0,0C49.5,47.9,49.5,47.8,49.6,47.8z"/>
						<path id="XMLID_65_" class="st23" d="M49.6,47.9L49.6,47.9c0.1,0,0.1,0.1,0.1,0.2l0,0C49.6,48.1,49.5,47.9,49.6,47.9z"/>
					</g>
				</g>
				<g id="XMLID_57_">
					<g id="XMLID_58_">
						<path id="XMLID_62_" class="st20" d="M49.6,48.3L49.6,48.3c0.1,0,0.2,0.1,0.1,0.3l0,0c0,0.1-0.1,0.1-0.2,0.1l0,0
							c-0.1,0-0.2-0.1-0.1-0.3l0,0C49.5,48.3,49.5,48.3,49.6,48.3z"/>
						<path id="XMLID_61_" class="st18" d="M49.6,48.3L49.6,48.3c0.1,0,0.2,0.1,0.1,0.2l0,0c0,0.1-0.1,0.1-0.1,0.1l0,0
							c-0.1,0-0.2-0.1-0.1-0.2l0,0C49.5,48.3,49.5,48.3,49.6,48.3z"/>
						<path id="XMLID_60_" class="st20" d="M49.6,48.3L49.6,48.3c0.1,0,0.1,0.1,0.1,0.2l0,0c0,0-0.1,0.1-0.1,0.1l0,0
							c-0.1,0-0.1-0.1-0.1-0.2l0,0C49.5,48.4,49.5,48.3,49.6,48.3z"/>
						<path id="XMLID_59_" class="st23" d="M49.6,48.3L49.6,48.3c0.1,0,0.1,0.1,0.1,0.2l0,0C49.6,48.6,49.5,48.3,49.6,48.3z"/>
					</g>
				</g>
				<g id="XMLID_51_">
					<g id="XMLID_52_">
						<path id="XMLID_56_" class="st20" d="M49.6,48.8L49.6,48.8c0.1,0,0.2,0.1,0.1,0.3l0,0c0,0.1-0.1,0.1-0.2,0.1l0,0
							c-0.1,0-0.2-0.1-0.1-0.3l0,0C49.5,48.8,49.5,48.8,49.6,48.8z"/>
						<path id="XMLID_55_" class="st18" d="M49.6,48.8L49.6,48.8c0.1,0,0.2,0.1,0.1,0.2l0,0c0,0.1-0.1,0.1-0.1,0.1l0,0
							c-0.1,0-0.2-0.1-0.1-0.2l0,0C49.5,48.8,49.5,48.8,49.6,48.8z"/>
						<path id="XMLID_54_" class="st20" d="M49.6,48.8L49.6,48.8c0.1,0,0.1,0.1,0.1,0.2l0,0c0,0-0.1,0.1-0.1,0.1l0,0
							c-0.1,0-0.1-0.1-0.1-0.2l0,0C49.5,48.8,49.5,48.8,49.6,48.8z"/>
						<path id="XMLID_53_" class="st23" d="M49.6,48.8L49.6,48.8c0.1,0,0.1,0.1,0.1,0.2l0,0C49.6,49,49.5,48.8,49.6,48.8z"/>
					</g>
				</g>
				<g id="XMLID_45_">
					<g id="XMLID_46_">
						<path id="XMLID_50_" class="st20" d="M49.1,48.1L49.1,48.1c0.1,0,0.2,0.1,0.1,0.3l0,0c0,0.1-0.1,0.1-0.2,0.1l0,0
							c-0.1,0-0.2-0.1-0.1-0.3l0,0C49,48.1,49.1,48.1,49.1,48.1z"/>
						<path id="XMLID_49_" class="st18" d="M49.1,48.1L49.1,48.1c0.1,0,0.2,0.1,0.1,0.2l0,0c0,0.1-0.1,0.1-0.1,0.1l0,0
							c-0.1,0-0.2-0.1-0.1-0.2l0,0C49,48.1,49.1,48.1,49.1,48.1z"/>
						<path id="XMLID_48_" class="st20" d="M49.1,48.1L49.1,48.1c0.1,0,0.1,0.1,0.1,0.2l0,0c0,0-0.1,0.1-0.1,0.1l0,0
							c-0.1,0-0.1-0.1-0.1-0.2l0,0C49,48.1,49.1,48.1,49.1,48.1z"/>
						<path id="XMLID_47_" class="st23" d="M49.1,48.1L49.1,48.1c0.1,0,0.1,0.1,0.1,0.2l0,0C49.2,48.3,49.1,48.1,49.1,48.1z"/>
					</g>
				</g>
				<g id="XMLID_39_">
					<g id="XMLID_40_">
						<path id="XMLID_44_" class="st20" d="M49.1,48.5L49.1,48.5c0.1,0,0.2,0.1,0.1,0.3l0,0c0,0.1-0.1,0.1-0.2,0.1l0,0
							c-0.1,0-0.2-0.1-0.1-0.3l0,0C49,48.6,49.1,48.5,49.1,48.5z"/>
						<path id="XMLID_43_" class="st18" d="M49.1,48.6L49.1,48.6c0.1,0,0.2,0.1,0.1,0.2l0,0c0,0.1-0.1,0.1-0.1,0.1l0,0
							c-0.1,0-0.2-0.1-0.1-0.2l0,0C49,48.6,49.1,48.6,49.1,48.6z"/>
						<path id="XMLID_42_" class="st20" d="M49.1,48.6L49.1,48.6c0.1,0,0.1,0.1,0.1,0.2l0,0c0,0-0.1,0.1-0.1,0.1l0,0
							c-0.1,0-0.1-0.1-0.1-0.2l0,0C49,48.6,49.1,48.6,49.1,48.6z"/>
						<path id="XMLID_41_" class="st23" d="M49.1,48.6L49.1,48.6c0.1,0,0.1,0.1,0.1,0.2l0,0C49.2,48.8,49.1,48.6,49.1,48.6z"/>
					</g>
				</g>
				<g id="XMLID_33_">
					<g id="XMLID_34_">
						<path id="XMLID_38_" class="st20" d="M49.1,49L49.1,49c0.1,0,0.2,0.1,0.1,0.3l0,0c0,0.1-0.1,0.1-0.2,0.1l0,0
							c-0.1,0-0.2-0.1-0.1-0.3l0,0C49,49.1,49.1,49,49.1,49z"/>
						<path id="XMLID_37_" class="st18" d="M49.1,49L49.1,49c0.1,0,0.2,0.1,0.1,0.2l0,0c0,0.1-0.1,0.1-0.1,0.1l0,0
							c-0.1,0-0.2-0.1-0.1-0.2l0,0C49,49.1,49.1,49,49.1,49z"/>
						<path id="XMLID_36_" class="st20" d="M49.1,49.1L49.1,49.1c0.1,0,0.1,0.1,0.1,0.2l0,0c0,0-0.1,0.1-0.1,0.1l0,0
							c-0.1,0-0.1-0.1-0.1-0.2l0,0C49,49.1,49.1,49.1,49.1,49.1z"/>
						<path id="XMLID_35_" class="st23" d="M49.1,49.1L49.1,49.1c0.1,0,0.1,0.1,0.1,0.2l0,0C49.2,49.3,49.1,49.1,49.1,49.1z"/>
					</g>
				</g>
				<g id="XMLID_20_">
					<g id="XMLID_27_">
						<g id="XMLID_28_">
							<path id="XMLID_32_" class="st20" d="M49.6,49.2L49.6,49.2c0.1,0,0.2,0.1,0.1,0.3l0,0c0,0.1-0.1,0.1-0.2,0.1l0,0
								c-0.1,0-0.2-0.1-0.1-0.3l0,0C49.5,49.3,49.5,49.2,49.6,49.2z"/>
							<path id="XMLID_31_" class="st18" d="M49.6,49.3L49.6,49.3c0.1,0,0.2,0.1,0.1,0.2l0,0c0,0.1-0.1,0.1-0.1,0.1l0,0
								c-0.1,0-0.2-0.1-0.1-0.2l0,0C49.5,49.3,49.5,49.3,49.6,49.3z"/>
							<path id="XMLID_30_" class="st20" d="M49.6,49.3L49.6,49.3c0.1,0,0.1,0.1,0.1,0.2l0,0c0,0-0.1,0.1-0.1,0.1l0,0
								c-0.1,0-0.1-0.1-0.1-0.2l0,0C49.5,49.3,49.5,49.3,49.6,49.3z"/>
							<path id="XMLID_29_" class="st23" d="M49.6,49.3L49.6,49.3c0.1,0,0.1,0.1,0.1,0.2l0,0C49.6,49.5,49.5,49.3,49.6,49.3z"/>
						</g>
					</g>
					<g id="XMLID_21_">
						<g id="XMLID_22_">
							<path id="XMLID_26_" class="st20" d="M49.1,49.5L49.1,49.5c0.1,0,0.2,0.1,0.1,0.3l0,0c0,0.1-0.1,0.1-0.2,0.1l0,0
								c-0.1,0-0.2-0.1-0.1-0.3l0,0C49,49.5,49.1,49.5,49.1,49.5z"/>
							<path id="XMLID_25_" class="st18" d="M49.1,49.5L49.1,49.5c0.1,0,0.2,0.1,0.1,0.2l0,0c0,0.1-0.1,0.1-0.1,0.1l0,0
								c-0.1,0-0.2-0.1-0.1-0.2l0,0C49,49.6,49.1,49.5,49.1,49.5z"/>
							<path id="XMLID_24_" class="st20" d="M49.1,49.5L49.1,49.5c0.1,0,0.1,0.1,0.1,0.2l0,0c0,0-0.1,0.1-0.1,0.1l0,0
								c-0.1,0-0.1-0.1-0.1-0.2l0,0C49,49.6,49.1,49.6,49.1,49.5z"/>
							<path id="XMLID_23_" class="st23" d="M49.1,49.6L49.1,49.6c0.1,0,0.1,0.1,0.1,0.2l0,0C49.2,49.8,49.1,49.6,49.1,49.6z"/>
						</g>
					</g>
				</g>
			</g>
			<g id="XMLID_13_">
				<g id="XMLID_14_">
					<path id="XMLID_18_" class="st20" d="M48.5,49.7L48.5,49.7c0.2,0,0.3,0.2,0.1,0.4l0,0c-0.1,0.1-0.2,0.1-0.2,0.2l0,0
						c-0.2,0-0.3-0.2-0.1-0.4l0,0C48.4,49.8,48.5,49.7,48.5,49.7z"/>
					<path id="XMLID_17_" class="st18" d="M48.5,49.7L48.5,49.7c0.2,0,0.2,0.2,0.1,0.3l0,0c-0.1,0.1-0.1,0.1-0.2,0.1l0,0
						c-0.2,0-0.2-0.2-0.1-0.3l0,0C48.4,49.8,48.5,49.7,48.5,49.7z"/>
					<path id="XMLID_16_" class="st24" d="M48.5,49.8L48.5,49.8c0.1,0,0.2,0.2,0.1,0.3l0,0c0,0.1-0.1,0.1-0.2,0.1l0,0
						c-0.1,0-0.2-0.2-0.1-0.3l0,0C48.4,49.8,48.5,49.8,48.5,49.8z"/>
					<path id="XMLID_15_" class="st25" d="M48.5,49.8L48.5,49.8c0.1,0,0.2,0.1,0.1,0.2l0,0C48.6,50.1,48.5,49.8,48.5,49.8z"/>
				</g>
			</g>
		</g>
	</g>
	<polygon id="XMLID_10_" class="st26" points="29.2,43.1 40.8,36.3 49.4,41.3 49.4,42.2 37.8,48.9 29.2,43.9 	"/>
	<polygon class="st3" points="37.9,48.9 37.8,48.9 29.2,43.9 29.2,43.1 37.9,38 	"/>
	<polygon id="XMLID_9_" class="st27" points="40.8,36.3 29.2,43.1 37.8,48 49.4,41.3 	"/>
	<polygon id="XMLID_8_" class="st2" points="37.9,36.7 40.8,35 49.4,40 49.4,41.3 46.5,43 37.9,38 	"/>
	<polygon id="XMLID_7_" class="st28" points="37.9,36.7 46.5,41.7 46.5,43 37.9,38 	"/>
	<polygon id="XMLID_6_" class="st29" points="40.8,35 37.9,36.7 46.5,41.7 49.4,40 	"/>
	<polyline id="XMLID_5_" class="st1" points="46.5,41.7 49.4,40 40.8,35 	"/>
	<polygon id="XMLID_4_" class="st28" points="29.2,42.6 37.9,37.5 46.5,42.5 46.5,43 37.8,48 29.2,43.1 	"/>
	<polygon id="XMLID_3_" class="st29" points="37.9,37.5 29.2,42.6 37.8,47.6 46.5,42.5 	"/>
	<polyline id="XMLID_2_" class="st1" points="37.8,47.6 46.5,42.5 37.9,37.5 	"/>
</g>
</svg>
