<?xml version="1.0" encoding="utf-8"?>
<!-- Generator: Adobe Illustrator 21.0.0, SVG Export Plug-In . SVG Version: 6.00 Build 0)  -->
<svg version="1.1" id="Layer_1" xmlns="http://www.w3.org/2000/svg" xmlns:xlink="http://www.w3.org/1999/xlink" x="0px" y="0px"
	 viewBox="0 0 80 80" style="enable-background:new 0 0 80 80;" xml:space="preserve">
<style type="text/css">
	.st0{fill:#949897;}
	.st1{fill:#C3C2C2;}
	.st2{fill:#FFFFFF;}
	.st3{fill:#ECECEE;}
	.st4{fill:#616262;}
	.st5{fill:#3BAD62;}
	.st6{fill:#4DA3DA;}
	.st7{fill:#C45149;}
	.st8{fill:#D2D8D8;}
	.st9{fill:#EFEFEF;}
	.st10{fill:#B2B2B2;}
	.st11{fill:#C6C4C3;}
	.st12{fill:#D1D2D3;}
</style>
<g id="XMLID_2073_">
	<path id="XMLID_2097_" class="st0" d="M53.7,18.2c0-0.2-0.1-0.4-0.3-0.4c-0.1-0.1-0.8-0.4-0.9-0.4c-0.1,0-0.3,0-0.4,0l-27.7,16
		c-0.4,0.2-0.7,0.7-0.7,1.1v26.3l0.8,0.5l19.8-12.2l9.2-5.3V18.2z"/>
	<g id="XMLID_2087_">
		<path id="XMLID_2096_" class="st1" d="M53,17.8l-27.7,16c-0.4,0.2-0.7,0.7-0.7,1.1v25.7l29.1-16.8V18.2
			C53.7,17.8,53.3,17.6,53,17.8z"/>
		<polygon id="XMLID_2095_" class="st2" points="53,18.6 25.4,34.6 25.4,59.2 53,43.2 		"/>
		<polyline id="XMLID_16145_" class="st3" points="25.4,34.6 25.4,59.2 53,43.2 		"/>
		<g id="XMLID_2088_">
			<g id="XMLID_2094_">
				<path class="st4" d="M52.3,36.9c-0.7-0.2-1.4-0.5-2.1-0.7c-0.5-0.1-0.9-0.3-1.4-0.4c-0.3-0.1-0.6-0.1-0.8,0
					c-0.9,0.4-1.8,0.8-2.7,1.2c-0.4,0.2-0.8,0.3-1.2,0.5c-0.1,0-0.1,0-0.2,0c-0.2,0-0.3-0.1-0.5-0.1c-1-0.3-1.9-0.6-2.9-0.9
					c-0.2-0.1-0.6-0.1-0.8,0c-0.2,0.2-0.4,0.4-0.6,0.6c-0.7,0.8-1.3,1.5-2,2.3c-0.3,0.3-0.6,0.7-0.9,1c-0.1,0.1-0.2,0.2-0.3,0.2
					c0,0-0.1,0-0.1,0c0,0,0,0,0,0c-0.6-0.1-1.1-0.3-1.6-0.5c-0.9-0.3-1.8-0.6-2.7-0.9c-0.9-0.3-1.8-0.6-2.6-0.8
					c-0.4-0.1-1-0.4-1.4-0.4c-0.3,0-0.3,0.4,0,0.4c0.1,0,0,0,0,0c0,0,0.1,0,0.1,0c0.1,0,0.2,0.1,0.3,0.1c0.3,0.1,0.7,0.2,1,0.3
					c1,0.3,1.9,0.6,2.9,0.9c0.9,0.3,1.9,0.6,2.8,0.9c0.3,0.1,0.6,0.2,0.9,0.3c0.2,0,0.3,0.1,0.5,0c0.3-0.1,0.5-0.3,0.7-0.5
					c0.3-0.3,0.7-0.7,1-1c0.7-0.7,1.3-1.5,2-2.2c0.1-0.1,0.2-0.2,0.3-0.3c0,0,0,0,0.1-0.1c0,0,0,0,0,0c0.4,0,0.8,0.1,1.1,0.2
					c0.9,0.3,1.8,0.6,2.8,0.8c0.2,0.1,0.4,0,0.7-0.1c0.4-0.1,0.8-0.3,1.2-0.5c0.8-0.4,1.7-0.8,2.5-1.1c0.2-0.1,0.5,0,0.8,0
					c0.5,0.1,1,0.2,1.4,0.4c0.6,0.2,1.3,0.4,1.9,0.6C52.5,37.4,52.6,37,52.3,36.9L52.3,36.9z"/>
			</g>
			<circle id="XMLID_2093_" class="st5" cx="48.2" cy="36.1" r="0.7"/>
			<circle id="XMLID_2092_" class="st6" cx="43.9" cy="37.8" r="0.7"/>
			<circle id="XMLID_2091_" class="st5" cx="39.7" cy="36.8" r="0.7"/>
			<circle id="XMLID_2090_" class="st7" cx="35.6" cy="41" r="0.7"/>
			<circle id="XMLID_2089_" class="st5" cx="27.2" cy="38.4" r="0.7"/>
		</g>
	</g>
	<g id="XMLID_2083_">
		<g id="XMLID_2085_">
			<polygon id="XMLID_2086_" class="st0" points="25.7,61.2 25.7,61.9 24.7,61.3 24.7,60.6 			"/>
		</g>
		<polygon id="XMLID_2084_" class="st8" points="53.7,43.8 24.7,60.6 25.7,61.2 54.8,44.4 		"/>
	</g>
	<g id="XMLID_2079_">
		<g id="XMLID_2081_">
			<polygon id="XMLID_2082_" class="st0" points="26.8,61.8 26.8,62.5 25.7,61.9 25.7,61.2 			"/>
		</g>
		<polygon id="XMLID_2080_" class="st9" points="54.8,44.4 25.7,61.2 26.8,61.8 55.8,45 		"/>
	</g>
	<g id="XMLID_2074_">
		<g id="XMLID_2077_">
			<polygon id="XMLID_2078_" class="st10" points="27.1,61.6 27.1,62.7 26.8,62.5 26.8,61.4 			"/>
		</g>
		<polygon id="XMLID_2076_" class="st11" points="56.2,44.8 27.1,61.6 27.1,62.7 56.2,45.9 		"/>
		<polygon id="XMLID_2075_" class="st12" points="55.8,44.6 26.8,61.4 27.1,61.6 56.2,44.8 		"/>
	</g>
</g>
</svg>
