<?xml version="1.0" encoding="utf-8"?>
<!-- Generator: Adobe Illustrator 21.0.0, SVG Export Plug-In . SVG Version: 6.00 Build 0)  -->
<svg version="1.1" id="Layer_1" xmlns="http://www.w3.org/2000/svg" xmlns:xlink="http://www.w3.org/1999/xlink" x="0px" y="0px"
	 viewBox="0 0 80 80" style="enable-background:new 0 0 80 80;" xml:space="preserve">
<style type="text/css">
	.st0{fill:#351C0A;}
	.st1{fill:#563112;}
	.st2{fill:#2B1507;}
	.st3{fill:#774D1E;}
	.st4{fill:#6B4118;}
</style>
<g id="XMLID_22486_">
	<g id="XMLID_22857_">
		<polygon id="XMLID_23303_" class="st0" points="46.2,48.7 45.2,49.2 45.2,68 46.2,67.4 		"/>
		<polygon id="XMLID_23302_" class="st1" points="44.2,48.7 45.2,49.2 45.2,68 44.2,67.4 		"/>
	</g>
	<g id="XMLID_22509_">
		<polygon id="XMLID_22856_" class="st0" points="70.5,34.7 69.4,35.2 69.4,54 70.5,53.4 		"/>
		<polygon id="XMLID_22855_" class="st1" points="68.5,34.7 69.4,35.2 69.4,54 68.5,53.4 		"/>
	</g>
	<g id="XMLID_22499_">
		<polygon id="XMLID_22508_" class="st0" points="11.6,28.6 10.6,29.2 10.6,47.9 11.6,47.3 		"/>
		<polygon id="XMLID_22507_" class="st1" points="9.6,28.6 10.6,29.2 10.6,47.9 9.6,47.3 		"/>
	</g>
	<g id="XMLID_22487_">
		<polygon id="XMLID_22498_" class="st1" points="70.5,32.7 34.8,12 9.6,26.6 9.6,28.6 45.2,49.2 70.5,34.7 		"/>
		<polygon id="XMLID_22497_" class="st0" points="70.5,32.7 45.2,47.2 45.2,49.2 70.5,34.7 		"/>
		<polyline id="XMLID_39297_" class="st2" points="70.5,32.7 45.2,47.2 45.2,49.2 		"/>
		<polygon id="XMLID_22488_" class="st3" points="34.8,12 70.5,32.7 45.2,47.2 9.6,26.6 		"/>
		<polyline id="XMLID_39296_" class="st4" points="70.5,32.7 45.2,47.2 9.6,26.6 		"/>
	</g>
</g>
</svg>
