<?xml version="1.0" encoding="utf-8"?>
<!-- Generator: Adobe Illustrator 21.0.0, SVG Export Plug-In . SVG Version: 6.00 Build 0)  -->
<svg version="1.1" id="Layer_1" xmlns="http://www.w3.org/2000/svg" xmlns:xlink="http://www.w3.org/1999/xlink" x="0px" y="0px"
	 viewBox="0 0 80 80" style="enable-background:new 0 0 80 80;" xml:space="preserve">
<style type="text/css">
	.st0{fill:#618184;}
	.st1{fill:#4C7070;}
	.st2{opacity:0.2;fill:#4C7070;}
	.st3{fill:#8CA3A8;}
	.st4{fill:#719196;}
	.st5{opacity:0.2;fill:#5C767A;}
	.st6{fill:#ABB7B7;}
	.st7{fill:#EFF0F0;}
	.st8{fill:#D7DDDD;}
</style>
<g id="XMLID_5361_">
	<g id="XMLID_5369_">
		<path id="XMLID_5371_" class="st0" d="M44.5,57.1L44.5,57.1c-1.8-1.1-4.4-1.4-6.6-0.9l0,0c-2.9,0.7-4.5,2.5-4.5,4.3
			c0,0.4,0,0.2,0,0.6c0,1.2,0.8,2.4,2.3,3.4l0,0c1.8,1.1,4.4,1.4,6.6,0.9l0,0c2.9-0.7,4.5-2.5,4.5-4.3c0-0.4,0-0.1,0-0.6
			C46.8,59.2,46.1,58,44.5,57.1z"/>
		<path class="st0" d="M44.5,57.1L44.5,57.1c-1.8-1.1-4.4-1.4-6.6-0.9c-4.9,1.1-6.1,5.5-2.2,7.8c1.8,1.1,4.4,1.4,6.6,0.9
			C47.3,63.8,48.5,59.4,44.5,57.1z"/>
		<path class="st1" d="M35.7,64c1.8,1.1,4.4,1.4,6.6,0.9c4.9-1.1,6.1-5.5,2.2-7.8h0"/>
		<path class="st2" d="M38.8,56c0,3.9,0,7.3,0,9c0.9,0.1,1.8,0.1,2.7,0c0-1.8,0-5.1,0-9C40.6,55.9,39.7,55.9,38.8,56z"/>
	</g>
	<g id="XMLID_5365_">
		<g id="XMLID_5366_">
			<path id="XMLID_5368_" class="st3" d="M41.1,24L41.1,24c-0.4-0.2-0.9-0.3-1.3-0.2l0,0c-0.6,0.1-0.9,0.5-0.9,0.9
				c0,0.1,0,35.3,0,35.4c0,0.2,0.2,0.5,0.5,0.7l0,0c0.4,0.2,0.9,0.3,1.3,0.2l0,0c0.6-0.1,0.9-0.5,0.9-0.9c0-0.1,0-35.3,0-35.3
				C41.5,24.4,41.4,24.2,41.1,24z"/>
		</g>
	</g>
	<path class="st4" d="M41.4,24.3c-0.2,0-0.3,0-0.5,0c-0.6,0.1-0.9,0.5-0.9,0.9c0,0.1,0,35.3,0,35.4c0,0.1,0,0.2,0.1,0.3
		c0.2,0,0.3,0,0.5,0c0.6-0.1,0.9-0.5,0.9-0.9c0-0.1,0-35.3,0-35.3C41.5,24.6,41.5,24.4,41.4,24.3z"/>
	<path class="st0" d="M41.5,60c0-0.1,0-32.3,0-35.1c-0.5,0.2-0.8,0.5-0.8,0.8c0,0.1,0,32.3,0,35.2C41.3,60.7,41.5,60.4,41.5,60z"/>
	<path class="st5" d="M41.1,24c-0.4-0.2-0.9-0.3-1.3-0.2c-0.6,0.1-0.9,0.5-0.9,0.9c0,0,0,4.3,0,9.8c0,4.2,0,7.1,0,7.1
		c0,0.2,0.2,0.5,0.5,0.7c0.4,0.2,0.9,0.3,1.3,0.2c0.6-0.1,0.9-0.5,0.9-0.9c0,0,0-5.8,0-12.7c0-2.5,0-4.2,0-4.2
		C41.5,24.4,41.4,24.2,41.1,24z"/>
	<g id="XMLID_5362_">
		<path id="XMLID_5364_" class="st6" d="M56.5,23.6c0-5.1-7.4-9.2-16.5-9.2c-9.1,0-16.5,4.1-16.5,9.2c0,0.3,0,1.2,0,1.5
			c0,5.1,7.4,9.2,16.5,9.2c9.1,0,16.5-4.1,16.5-9.2C56.5,24.8,56.5,23.9,56.5,23.6z"/>
		<ellipse id="XMLID_5363_" class="st7" cx="40" cy="23.6" rx="16.5" ry="9.2"/>
		<path id="XMLID_5370_" class="st8" d="M56.5,23.6c0,5.1-7.4,9.2-16.5,9.2c-9.1,0-16.5-4.1-16.5-9.2"/>
	</g>
</g>
</svg>
