<?xml version="1.0" encoding="utf-8"?>
<!-- Generator: Adobe Illustrator 21.0.0, SVG Export Plug-In . SVG Version: 6.00 Build 0)  -->
<svg version="1.1" id="Layer_1" xmlns="http://www.w3.org/2000/svg" xmlns:xlink="http://www.w3.org/1999/xlink" x="0px" y="0px"
	 viewBox="0 0 80 80" style="enable-background:new 0 0 80 80;" xml:space="preserve">
<style type="text/css">
	.st0{fill:#C5C7C9;}
	.st1{fill:#9C9FA0;}
	.st2{fill:#EFF0F0;}
	.st3{fill:#1B1E1E;}
	.st4{fill:#252828;}
	.st5{fill:#474847;}
	.st6{fill:#3F4040;}
	.st7{fill:#3A3A3A;}
	.st8{fill:#353535;}
	.st9{fill:#1F2121;}
	.st10{fill:#2A2B2A;}
	.st11{fill:#393A39;}
</style>
<g>
	<g id="XMLID_55747_">
		<g id="XMLID_55803_">
			<g id="XMLID_55807_">
				<path id="XMLID_55809_" class="st0" d="M34.3,31.4c0-0.2,0.1-0.3,0.3-0.5l0,0c0.3-0.2,0.6-0.2,0.9-0.1v0
					c0.4,0.1,0.6,0.3,0.6,0.6c0,0.2,0,4.1,0,4.3c0,0.2-0.1,0.4-0.3,0.5c-0.3,0.2-0.6,0.2-0.9,0.1l0,0c-0.4-0.1-0.6-0.3-0.6-0.6V31.4
					z"/>
				<path class="st1" d="M34.6,30.9c0.3-0.2,0.6-0.2,0.9-0.1v0c0.4,0.1,0.6,0.3,0.6,0.6c0,0,0,0.2,0,0.4c0,0.8,0,1.5,0,1.5
					c0,0.2-0.1,0.4-0.3,0.5c-0.3,0.2-0.6,0.2-0.9,0.1c-0.4-0.1-0.6-0.3-0.6-0.6v-2C34.3,31.2,34.4,31.1,34.6,30.9z"/>
				<path id="XMLID_55808_" class="st2" d="M34.6,30.9L34.6,30.9c-0.6,0.3-0.4,0.9,0.3,1.1l0,0c0.3,0.1,0.7,0,0.9-0.1l0,0
					c0.6-0.3,0.4-0.9-0.3-1.1v0C35.2,30.7,34.9,30.8,34.6,30.9z"/>
			</g>
		</g>
		<g id="XMLID_55786_">
			<path id="XMLID_55789_" class="st3" d="M29.6,33.4L29.6,33.4c0,0,4.5-2.6,4.5-2.6l0,0c0.4-0.2,0.9-0.3,1.4-0.2l0,0
				c1,0.2,1.3,1.2,0.5,1.6c0,0-4.5,2.6-4.5,2.6l0,0c-0.4,0.2-0.9,0.3-1.4,0.2l0,0C29.1,34.8,28.8,33.9,29.6,33.4z"/>
			<path id="XMLID_55788_" class="st4" d="M29,33.5c0-0.3,0.2-0.5,0.5-0.7l0,0c0,0,4.7-2.8,4.7-2.8l0,0c0.4-0.2,0.9-0.3,1.4-0.2v0
				c0.6,0.1,0.9,0.5,1,0.9c0,0.1,0,0.4,0,0.4c0,0.3-0.2,0.5-0.5,0.7c0,0-4.7,2.7-4.7,2.7c-0.4,0.2-0.9,0.3-1.4,0.2l0,0
				c-0.6-0.1-0.9-0.5-1-0.9C29,33.8,29,33.5,29,33.5z"/>
			<path id="XMLID_55787_" class="st5" d="M29.6,32.4L29.6,32.4c0,0,4.5-2.6,4.5-2.6l0,0c0.4-0.2,0.9-0.3,1.4-0.2l0,0
				c1,0.2,1.3,1.2,0.5,1.6c0,0-4.5,2.6-4.5,2.6l0,0c-0.4,0.2-0.9,0.3-1.4,0.2l0,0C29.1,33.8,28.8,32.8,29.6,32.4z"/>
			<path id="XMLID_39098_" class="st6" d="M31.5,33.8L31.5,33.8c-0.4,0.2-0.9,0.3-1.4,0.2l0,0c-1-0.2-1.3-1.2-0.5-1.6l0,0
				c0,0,4.5-2.6,4.5-2.6l0,0c0.4-0.2,0.9-0.3,1.4-0.2l0,0"/>
		</g>
	</g>
	<g id="XMLID_55755_">
		<path id="XMLID_55785_" class="st5" d="M37.3,49.3L37.3,49.3c-0.7,0.4-0.5,1.2,0.4,1.4l0,0c0.4,0.1,0.9,0,1.2-0.2l0,0
			c0.7-0.4,0.5-1.2-0.4-1.4l0,0C38.1,49,37.6,49.1,37.3,49.3z"/>
		<path id="XMLID_55784_" class="st5" d="M37.3,49.3L37.3,49.3c-0.7,0.4-0.5,1.2,0.4,1.4l0,0c0.4,0.1,0.9,0,1.2-0.2l0,0
			c0.7-0.4,0.5-1.2-0.4-1.4l0,0C38.1,49,37.6,49.1,37.3,49.3z"/>
		<path id="XMLID_55783_" class="st5" d="M34.7,44.4L34.7,44.4c-0.7,0.4-0.5,1.2,0.4,1.4l0,0c0.4,0.1,0.9,0,1.2-0.2l0,0
			c0.7-0.4,0.5-1.2-0.4-1.4l0,0C35.5,44.2,35,44.2,34.7,44.4z"/>
		<path id="XMLID_55782_" class="st5" d="M44.3,45.9L44.3,45.9c-0.7,0.4-0.5,1.2,0.4,1.4l0,0c0.4,0.1,0.9,0,1.2-0.2l0,0
			c0.7-0.4,0.5-1.2-0.4-1.4l0,0C45.2,45.7,44.7,45.7,44.3,45.9z"/>
		<path id="XMLID_55781_" class="st5" d="M43.7,53.3L43.7,53.3c-0.7,0.4-0.5,1.2,0.4,1.4l0,0c0.4,0.1,0.9,0,1.2-0.2l0,0
			c0.7-0.4,0.5-1.2-0.4-1.4l0,0C44.5,53.1,44,53.1,43.7,53.3z"/>
		<path id="XMLID_55780_" class="st5" d="M34.9,55L34.9,55c-0.7,0.4-0.5,1.2,0.4,1.4l0,0c0.4,0.1,0.9,0,1.2-0.2l0,0
			c0.7-0.4,0.5-1.2-0.4-1.4v0C35.7,54.7,35.2,54.8,34.9,55z"/>
		<path id="XMLID_55779_" class="st5" d="M28.9,49.1L28.9,49.1c-0.7,0.4-0.5,1.2,0.4,1.4l0,0c0.4,0.1,0.9,0,1.2-0.2l0,0
			c0.7-0.4,0.5-1.2-0.4-1.4l0,0C29.7,48.8,29.3,48.9,28.9,49.1z"/>
		<path id="XMLID_55778_" class="st7" d="M44.3,46.6L44.3,46.6c-0.7,0.4-0.5,1.2,0.4,1.4l0,0c0.4,0.1,0.9,0,1.2-0.2l0,0
			c0.7-0.4,0.5-1.2-0.4-1.4l0,0C45.2,46.4,44.7,46.4,44.3,46.6z"/>
		<path id="XMLID_55777_" class="st7" d="M34.7,45.1L34.7,45.1c-0.7,0.4-0.5,1.2,0.4,1.4l0,0c0.4,0.1,0.9,0,1.2-0.2l0,0
			c0.7-0.4,0.5-1.2-0.4-1.4l0,0C35.5,44.9,35,44.9,34.7,45.1z"/>
		<path id="XMLID_55776_" class="st7" d="M43.7,54L43.7,54c-0.7,0.4-0.5,1.2,0.4,1.4l0,0c0.4,0.1,0.9,0,1.2-0.2l0,0
			c0.7-0.4,0.5-1.2-0.4-1.4l0,0C44.5,53.8,44,53.8,43.7,54z"/>
		<path id="XMLID_55775_" class="st7" d="M34.9,55.7L34.9,55.7c-0.7,0.4-0.5,1.2,0.4,1.4l0,0c0.4,0.1,0.9,0,1.2-0.2l0,0
			c0.7-0.4,0.5-1.2-0.4-1.4l0,0C35.7,55.4,35.2,55.5,34.9,55.7z"/>
		<path id="XMLID_55774_" class="st7" d="M28.9,49.8L28.9,49.8c-0.7,0.4-0.5,1.2,0.4,1.4l0,0c0.4,0.1,0.9,0,1.2-0.2l0,0
			c0.7-0.4,0.5-1.2-0.4-1.4l0,0C29.7,49.5,29.3,49.6,28.9,49.8z"/>
		<path id="XMLID_55773_" class="st7" d="M44.3,47L44.3,47c-0.7,0.4-0.5,1.2,0.4,1.4l0,0c0.4,0.1,0.9,0,1.2-0.2l0,0
			c0.7-0.4,0.5-1.2-0.4-1.4l0,0C45.2,46.8,44.7,46.8,44.3,47z"/>
		<path id="XMLID_55772_" class="st7" d="M34.7,45.5L34.7,45.5c-0.7,0.4-0.5,1.2,0.4,1.4l0,0c0.4,0.1,0.9,0,1.2-0.2l0,0
			c0.7-0.4,0.5-1.2-0.4-1.4l0,0C35.5,45.3,35,45.3,34.7,45.5z"/>
		<path id="XMLID_55771_" class="st7" d="M43.7,54.4L43.7,54.4c-0.7,0.4-0.5,1.2,0.4,1.4l0,0c0.4,0.1,0.9,0,1.2-0.2l0,0
			c0.7-0.4,0.5-1.2-0.4-1.4l0,0C44.5,54.2,44,54.2,43.7,54.4z"/>
		<path id="XMLID_55770_" class="st7" d="M34.9,56.1L34.9,56.1c-0.7,0.4-0.5,1.2,0.4,1.4l0,0c0.4,0.1,0.9,0,1.2-0.2l0,0
			c0.7-0.4,0.5-1.2-0.4-1.4l0,0C35.7,55.8,35.2,55.9,34.9,56.1z"/>
		<path id="XMLID_55769_" class="st7" d="M28.9,50.2L28.9,50.2c-0.7,0.4-0.5,1.2,0.4,1.4l0,0c0.4,0.1,0.9,0,1.2-0.2v0
			c0.7-0.4,0.5-1.2-0.4-1.4l0,0C29.7,49.9,29.3,50,28.9,50.2z"/>
		<path id="XMLID_55768_" class="st5" d="M38.2,50.3l0.5-0.4l6.5,3.4c0,0,0,0,0,0l0.1,0l0,0c0.5,0.3,0.6,0.9,0,1.3l0,0
			c-0.3,0.2-0.8,0.3-1.2,0.2l0,0c-0.3-0.1-0.5-0.2-0.6-0.3L38.2,50.3z"/>
		<path id="XMLID_55767_" class="st5" d="M38.2,49.4l6.3-3.6l0,0c0.3-0.2,0.7-0.2,1.1-0.1l0,0c0.9,0.2,1.1,1,0.4,1.4l0,0
			c-0.2,0.1-0.4,0.2-0.6,0.2l-6.7,2.5L38.2,49.4z"/>
		<path id="XMLID_55766_" class="st5" d="M34.3,45.2L34.3,45.2c-0.1-0.3,0.1-0.6,0.4-0.8l0,0c0.3-0.2,0.8-0.3,1.2-0.2l0,0
			c0.5,0.1,0.8,0.4,0.8,0.7l0,0l0,0c0,0,0,0,0,0.1l1.5,4.5l-0.5,0l-3.3-4.2C34.3,45.4,34.3,45.3,34.3,45.2L34.3,45.2z"/>
		<path id="XMLID_55765_" class="st5" d="M28.9,49.1c0.3-0.2,0.7-0.2,1-0.2l0,0l7.9,0.7l-0.1,0.5L30,50.5c-0.1,0-0.3,0-0.4,0l0,0
			l0,0c-0.1,0-0.2,0-0.3,0C28.4,50.3,28.2,49.5,28.9,49.1z"/>
		<path id="XMLID_55764_" class="st5" d="M34.5,55.4L34.5,55.4L34.5,55.4C34.5,55.3,34.5,55.3,34.5,55.4l3.4-5.5l0.5,0.1l-1.4,5.7
			l0,0c0,0.2-0.1,0.5-0.4,0.6l0,0c-0.3,0.2-0.8,0.3-1.2,0.2C34.6,56.3,34.3,55.8,34.5,55.4z"/>
		<path id="XMLID_55763_" class="st5" d="M37.3,49.3L37.3,49.3c-0.7,0.4-0.5,1.2,0.4,1.4l0,0c0.4,0.1,0.9,0,1.2-0.2l0,0
			c0.7-0.4,0.5-1.2-0.4-1.4l0,0C38.1,49,37.6,49.1,37.3,49.3z"/>
		<path id="XMLID_55762_" class="st5" d="M38.2,50.3l0.5-0.4l6.5,3.4c0,0,0,0,0,0l0.1,0l0,0c0.5,0.3,0.6,0.9,0,1.3l0,0
			c-0.3,0.2-0.8,0.3-1.2,0.2l0,0c-0.3-0.1-0.5-0.2-0.6-0.3L38.2,50.3z"/>
		<path id="XMLID_55761_" class="st5" d="M38.2,49.4l6.3-3.6l0,0c0.3-0.2,0.7-0.2,1.1-0.1l0,0c0.9,0.2,1.1,1,0.4,1.4l0,0
			c-0.2,0.1-0.4,0.2-0.6,0.2l-6.7,2.5L38.2,49.4z"/>
		<path id="XMLID_55760_" class="st5" d="M34.3,45.2L34.3,45.2c-0.1-0.3,0.1-0.6,0.4-0.8l0,0c0.3-0.2,0.8-0.3,1.2-0.2l0,0
			c0.5,0.1,0.8,0.4,0.8,0.7l0,0l0,0c0,0,0,0,0,0.1l1.5,4.5l-0.5,0l-3.3-4.2C34.3,45.4,34.3,45.3,34.3,45.2L34.3,45.2z"/>
		<path id="XMLID_55759_" class="st5" d="M28.9,49.1c0.3-0.2,0.7-0.2,1-0.2l0,0l7.9,0.7l-0.1,0.5L30,50.5c-0.1,0-0.3,0-0.4,0l0,0
			l0,0c-0.1,0-0.2,0-0.3,0C28.4,50.3,28.2,49.5,28.9,49.1z"/>
		<path id="XMLID_55758_" class="st5" d="M34.5,55.4L34.5,55.4L34.5,55.4C34.5,55.3,34.5,55.3,34.5,55.4l3.4-5.5l0.5,0.1l-1.4,5.7
			l0,0c0,0.2-0.1,0.5-0.4,0.6l0,0c-0.3,0.2-0.8,0.3-1.2,0.2C34.6,56.3,34.3,55.8,34.5,55.4z"/>
		<path id="XMLID_55757_" class="st4" d="M28.9,48.5c0.3-0.2,0.7-0.2,1-0.2l0,0l7,0.6c0.1-0.1,0.1-0.2,0.3-0.2l-2.9-3.3
			c0-0.1-0.1-0.1-0.1-0.2l0,0h0c0-0.1,0-0.1,0-0.2c0-0.1,0-0.5,0-0.6c0-0.2,0.2-0.4,0.4-0.6c0.3-0.2,0.8-0.3,1.2-0.2l0,0
			c0.5,0.1,0.8,0.4,0.8,0.7l0,0l0,0c0,0,0,0,0,0.1l1.5,4c0.1,0,0.2,0,0.3,0l0,0c0.1,0,0.1,0,0.1,0l5.8-3.3l0,0
			c0.3-0.2,0.7-0.2,1.1-0.1c0.5,0.1,0.8,0.4,0.8,0.7c0,0.1,0,0.6,0,0.7c0,0.2-0.1,0.5-0.4,0.6l0,0c-0.2,0.1-0.4,0.2-0.6,0.2l-6,2.3
			l5.9,3.1c0,0,0,0,0,0l0.1,0l0,0c0.3,0.2,0.4,0.4,0.4,0.6c0,0.1,0,0.6,0,0.7c0,0.2-0.2,0.4-0.4,0.6l0,0c-0.3,0.2-0.8,0.3-1.2,0.2
			l0,0c-0.3-0.1-0.5-0.2-0.6-0.3l-4.8-3.8c-0.2,0.1-0.4,0.1-0.5,0.1l-1.2,4.9l0,0c0,0.2-0.1,0.5-0.4,0.6c-0.3,0.2-0.8,0.3-1.2,0.2
			c-0.5-0.1-0.8-0.4-0.8-0.7c0-0.1,0-0.6,0-0.7c0-0.1,0-0.2,0.1-0.2l0,0l0,0c0,0,0,0,0-0.1l2.6-4.3c-0.1-0.1-0.2-0.2-0.2-0.3
			L30,50.5c-0.1,0-0.3,0-0.4,0l0,0l0,0c-0.1,0-0.2,0-0.3,0c-0.5-0.1-0.8-0.4-0.8-0.8c0-0.1,0-0.6,0-0.7
			C28.5,48.8,28.7,48.6,28.9,48.5z"/>
		<path id="XMLID_55756_" class="st8" d="M28.9,48.5c0.3-0.2,0.7-0.2,1-0.2l0,0l7,0.6c0.1-0.1,0.2-0.2,0.3-0.2l0,0
			c0.1,0,0.1-0.1,0.2-0.1l-3.1-3.7c0-0.1-0.1-0.1-0.1-0.2l0,0h0c-0.1-0.3,0.1-0.6,0.4-0.8c0.3-0.2,0.8-0.3,1.2-0.2l0,0
			c0.5,0.1,0.8,0.4,0.8,0.7l0,0l0,0c0,0,0,0,0,0.1l1.5,4c0.1,0,0.2,0,0.3,0l0,0c0.1,0,0.1,0,0.1,0l5.8-3.3l0,0
			c0.3-0.2,0.7-0.2,1.1-0.1c0.9,0.2,1.1,1,0.4,1.4l0,0c-0.2,0.1-0.4,0.2-0.6,0.2l-6.1,2.3c0.1,0.2,0.1,0.3,0,0.5l6,3.1c0,0,0,0,0,0
			l0.1,0l0,0c0.5,0.3,0.6,0.9,0,1.3l0,0c-0.3,0.2-0.8,0.3-1.2,0.2l0,0c-0.3-0.1-0.5-0.2-0.6-0.3l-4.8-3.8c-0.2,0.1-0.4,0.1-0.5,0.1
			L36.9,55l0,0c0,0.2-0.1,0.5-0.4,0.6c-0.3,0.2-0.8,0.3-1.2,0.2c-0.7-0.2-1-0.7-0.8-1.1l0,0l0,0c0,0,0,0,0-0.1l2.9-4.7
			c-0.2-0.1-0.4-0.3-0.5-0.4L30,49.9c-0.1,0-0.3,0-0.4,0l0,0l0,0c-0.1,0-0.2,0-0.3,0C28.4,49.7,28.2,48.9,28.9,48.5z"/>
	</g>
	<path id="XMLID_55754_" class="st0" d="M38.1,36.2l0.9,0.6c0,0,0,12.1,0,12.4c0,0.3-0.3,0.7-0.9,0.7c-0.6,0-0.9-0.4-0.9-0.7
		c0-0.3,0-12.4,0-12.4L38.1,36.2z"/>
	<path id="XMLID_39095_" class="st1" d="M38.1,33.5l0.9,0.6c0,0,0,12.1,0,12.4c0,0.3-0.3,0.7-0.9,0.7c-0.6,0-0.9-0.4-0.9-0.7
		c0-0.3,0-12.4,0-12.4L38.1,33.5z"/>
	<g id="XMLID_55746_">
		<path id="XMLID_55745_" class="st9" d="M30.6,36.5l5.7-2.3c2.1-1.4,4.8-1.5,7-0.3l2.2,1.3c0.9,0.5,1.4,1.4,1.4,2.3
			c0,0.3,0,1.5,0,1.8c0,0.6-0.3,1.2-0.7,1.6c-0.2,0.3-5.6,4.3-5.6,4.3c-2,0.9-4.2,0.8-6.2-0.1l-3.7-2.2c-0.7-0.6-1.1-1.2-1.3-1.9
			c-0.1-0.5-0.1-2.1-0.1-2.4C29.5,37.7,29.9,37,30.6,36.5z"/>
		<path class="st3" d="M30.6,36.5l5.7-2.3c0.6-0.4,1.2-0.7,1.8-0.9v12.5c-1.3,0.1-2.6-0.2-3.7-0.7l-3.7-2.2
			c-0.7-0.6-1.1-1.2-1.3-1.9c-0.1-0.5-0.1-2.1-0.1-2.4C29.5,37.7,29.9,37,30.6,36.5z"/>
		<path id="XMLID_55744_" class="st4" d="M36.3,34.1l-5.7,2.3c-1.7,1.2-1.6,3.7,0.2,4.7l3.7,2.2c1.9,1.1,4.2,1.2,6.1,0.2
			c0,0,5.3-3.9,5.6-4.2c1.2-1.2,1-3.4-0.6-4.4l-2.2-1.3C41.1,32.6,38.4,32.7,36.3,34.1z"/>
		<path id="XMLID_55738_" class="st10" d="M30.6,35.8c-1.7,1.2-1.6,3.7,0.2,4.7l3.7,2.2c1.9,1.1,4.2,1.2,6.1,0.2c0,0,5.4-4,5.7-4.3
			c1.1-1.3,0.9-3.3-0.7-4.3l-2.2-1.3c-1.6-0.9-3.6-1.1-5.3-0.6C37.4,32.9,30.6,35.8,30.6,35.8z"/>
	</g>
	<g id="XMLID_55750_">
		<path id="XMLID_55795_" class="st5" d="M39.3,26.8l1-6.5c0.3-2.5,3-4.3,5-3.4l2.6,1.2c2.1,0.9,3.3,3,3.4,5.5l0.2,7.7
			c0,2.6-2.9,4.9-5.1,3.9l-3.8-1.7C40.2,32.4,38.9,29.8,39.3,26.8z"/>
		<path id="XMLID_55794_" class="st6" d="M38.5,27l1-6.5c0.3-2.5,3-4.3,5-3.4l2.6,1.2c2.1,0.9,3.3,3,3.4,5.5l0.2,7.7
			c0,2.6-2.9,4.9-5.1,3.9l-3.8-1.7C39.4,32.6,38.1,30,38.5,27z"/>
		<path id="XMLID_55793_" class="st11" d="M37.9,27.5l0.5-3.2l0.5-3.2c0.3-2.5,3-4.3,5-3.4l2.6,1.2c2.1,0.9,3.3,3,3.4,5.5l0.1,2.1
			l0,0.9l0.1,4.7c0,2.6-2.9,4.9-5.1,3.9l-3.8-1.7C38.7,33.1,37.5,30.5,37.9,27.5z"/>
		<g id="XMLID_55749_">
			<path id="XMLID_55751_" class="st4" d="M37,27.4l0.9-3.7l0.4-2.5c0.3-2.5,3-4.3,5-3.4l2.6,1.2c2.1,0.9,3.3,3,3.4,5.5l0.1,2.1
				l0,0.9l0.3,4.5c0,2.6-3,4.5-5.2,3.5l-3.8-1.7C38.1,32.7,36.5,30.4,37,27.4z"/>
			<path id="XMLID_39089_" class="st3" d="M45.9,19c2.1,0.9,3.3,3,3.4,5.5l0.1,2.1l0,0.9l0.3,4.5c0,2.6-3,4.5-5.2,3.5l-3.8-1.7
				c-2.4-1.1-4-3.4-3.6-6.4l0.9-3.7"/>
			<path id="XMLID_55752_" class="st3" d="M44.4,35.6l-3.8-1.7c-1.2-0.6-2.2-1.4-2.9-2.5c-0.7-1.2-0.9-2.5-0.8-4l0.9-3.7l0.4-2.5
				c0.2-1.3,1-2.5,2.3-3.2c1-0.5,2-0.6,2.9-0.3l2.6,1.2c2.1,0.9,3.4,3,3.4,5.6l0.1,3l0.3,4.5c0,1.2-0.7,2.4-1.8,3.2
				c-0.7,0.4-1.5,0.7-2.2,0.7C45.2,35.8,44.8,35.7,44.4,35.6z M40.5,18.1c-1.2,0.7-2,1.9-2.2,3.1l-0.4,2.5L37,27.4
				c-0.2,1.4,0.1,2.7,0.7,3.9c0.6,1.1,1.6,1.9,2.8,2.4l3.8,1.7c1,0.4,2.3,0.3,3.4-0.4c1.1-0.7,1.7-1.9,1.7-3l-0.3-4.5l-0.1-3
				c0-2.5-1.3-4.5-3.3-5.4l-2.6-1.2c-0.3-0.1-0.7-0.2-1.1-0.2C41.6,17.7,41,17.8,40.5,18.1z"/>
		</g>
	</g>
	<g id="XMLID_55748_">
		<g id="XMLID_55796_">
			<g id="XMLID_55800_">
				<path id="XMLID_55802_" class="st0" d="M44.1,37.1c0-0.2,0.1-0.3,0.3-0.5l0,0c0.3-0.2,0.6-0.2,0.9-0.1l0,0
					c0.4,0.1,0.6,0.3,0.6,0.6c0,0.2,0,4.1,0,4.3c0,0.2-0.1,0.4-0.3,0.5c-0.3,0.2-0.6,0.2-0.9,0.1l0,0c-0.4-0.1-0.6-0.3-0.6-0.6V37.1
					z"/>
				<path class="st1" d="M44.5,36.6c0.3-0.2,0.6-0.2,0.9-0.1c0.4,0.1,0.6,0.3,0.6,0.6c0,0,0,0.2,0,0.4c0,0.8,0,1.5,0,1.5
					c0,0.2-0.1,0.4-0.3,0.5c-0.3,0.2-0.6,0.2-0.9,0.1c-0.4-0.1-0.6-0.3-0.6-0.6v-2C44.1,36.9,44.3,36.8,44.5,36.6z"/>
				<path id="XMLID_55801_" class="st2" d="M44.5,36.6L44.5,36.6c-0.6,0.3-0.4,0.9,0.3,1.1l0,0c0.3,0.1,0.7,0,0.9-0.1l0,0
					c0.6-0.3,0.4-0.9-0.3-1.1l0,0C45.1,36.4,44.7,36.5,44.5,36.6z"/>
			</g>
		</g>
		<g id="XMLID_55740_">
			<path id="XMLID_55743_" class="st3" d="M39.5,39.1L39.5,39.1c0,0,4.5-2.6,4.5-2.6l0,0c0.4-0.2,0.9-0.3,1.4-0.2l0,0
				c1,0.2,1.3,1.2,0.5,1.6c0,0-4.5,2.6-4.5,2.6l0,0c-0.4,0.2-0.9,0.3-1.4,0.2l0,0C38.9,40.5,38.7,39.6,39.5,39.1z"/>
			<path id="XMLID_55742_" class="st4" d="M38.8,39.2c0-0.3,0.2-0.5,0.5-0.7l0,0c0,0,4.7-2.8,4.7-2.8l0,0c0.4-0.2,0.9-0.3,1.4-0.2
				l0,0c0.6,0.1,0.9,0.5,1,0.9c0,0.1,0,0.4,0,0.4c0,0.3-0.2,0.5-0.5,0.7c0,0-4.7,2.7-4.7,2.7c-0.4,0.2-0.9,0.3-1.4,0.2l0,0
				c-0.6-0.1-0.9-0.5-1-0.9C38.8,39.5,38.8,39.2,38.8,39.2z"/>
			<path id="XMLID_55741_" class="st5" d="M39.5,38.1L39.5,38.1c0,0,4.5-2.6,4.5-2.6l0,0c0.4-0.2,0.9-0.3,1.4-0.2l0,0
				c1,0.2,1.3,1.2,0.5,1.6c0,0-4.5,2.6-4.5,2.6l0,0c-0.4,0.2-0.9,0.3-1.4,0.2l0,0C38.9,39.5,38.7,38.6,39.5,38.1z"/>
			<path id="XMLID_39097_" class="st6" d="M41.4,39.5L41.4,39.5c-0.4,0.2-0.9,0.3-1.4,0.2l0,0c-1-0.2-1.3-1.2-0.5-1.6l0,0
				c0,0,4.5-2.6,4.5-2.6l0,0c0.4-0.2,0.9-0.3,1.4-0.2l0,0"/>
		</g>
	</g>
</g>
</svg>
