<?xml version="1.0" encoding="utf-8"?>
<!-- Generator: Adobe Illustrator 21.0.0, SVG Export Plug-In . SVG Version: 6.00 Build 0)  -->
<svg version="1.1" id="Layer_1" xmlns="http://www.w3.org/2000/svg" xmlns:xlink="http://www.w3.org/1999/xlink" x="0px" y="0px"
	 viewBox="0 0 80 80" style="enable-background:new 0 0 80 80;" xml:space="preserve">
<style type="text/css">
	.st0{fill:#C5C7C9;}
	.st1{fill:#9C9FA0;}
	.st2{fill:#EFF0F0;}
	.st3{fill:#1B1E1E;}
	.st4{fill:#252828;}
	.st5{fill:#474847;}
	.st6{fill:#3F4040;}
	.st7{fill:#3A3A3A;}
	.st8{fill:#353535;}
	.st9{fill:#1F2121;}
	.st10{fill:#2A2B2A;}
	.st11{fill:#393A39;}
</style>
<g>
	<g id="XMLID_55747_">
		<g id="XMLID_55803_">
			<g id="XMLID_55807_">
				<path id="XMLID_55809_" class="st0" d="M45.7,31.4c0-0.2-0.1-0.3-0.3-0.5l0,0c-0.3-0.2-0.6-0.2-0.9-0.1v0
					c-0.4,0.1-0.6,0.3-0.6,0.6c0,0.2,0,4.1,0,4.3c0,0.2,0.1,0.4,0.3,0.5c0.3,0.2,0.6,0.2,0.9,0.1l0,0c0.4-0.1,0.6-0.3,0.6-0.6V31.4z
					"/>
				<path class="st1" d="M45.4,30.9c-0.3-0.2-0.6-0.2-0.9-0.1v0c-0.4,0.1-0.6,0.3-0.6,0.6c0,0,0,0.2,0,0.4c0,0.8,0,1.5,0,1.5
					c0,0.2,0.1,0.4,0.3,0.5c0.3,0.2,0.6,0.2,0.9,0.1c0.4-0.1,0.6-0.3,0.6-0.6v-2C45.7,31.2,45.6,31.1,45.4,30.9z"/>
				<path id="XMLID_55808_" class="st2" d="M45.4,30.9L45.4,30.9c0.6,0.3,0.4,0.9-0.3,1.1l0,0c-0.3,0.1-0.7,0-0.9-0.1l0,0
					c-0.6-0.3-0.4-0.9,0.3-1.1v0C44.8,30.7,45.1,30.8,45.4,30.9z"/>
			</g>
		</g>
		<g id="XMLID_55786_">
			<path id="XMLID_55789_" class="st3" d="M50.4,33.4L50.4,33.4c0,0-4.5-2.6-4.5-2.6l0,0c-0.4-0.2-0.9-0.3-1.4-0.2l0,0
				c-1,0.2-1.3,1.2-0.5,1.6c0,0,4.5,2.6,4.5,2.6l0,0c0.4,0.2,0.9,0.3,1.4,0.2l0,0C50.9,34.8,51.2,33.9,50.4,33.4z"/>
			<path id="XMLID_55788_" class="st4" d="M51,33.5c0-0.3-0.2-0.5-0.5-0.7l0,0c0,0-4.7-2.8-4.7-2.8l0,0c-0.4-0.2-0.9-0.3-1.4-0.2v0
				c-0.6,0.1-0.9,0.5-1,0.9c0,0.1,0,0.4,0,0.4c0,0.3,0.2,0.5,0.5,0.7c0,0,4.7,2.7,4.7,2.7c0.4,0.2,0.9,0.3,1.4,0.2l0,0
				c0.6-0.1,0.9-0.5,1-0.9C51,33.8,51,33.5,51,33.5z"/>
			<path id="XMLID_55787_" class="st5" d="M50.4,32.4L50.4,32.4c0,0-4.5-2.6-4.5-2.6l0,0c-0.4-0.2-0.9-0.3-1.4-0.2l0,0
				c-1,0.2-1.3,1.2-0.5,1.6c0,0,4.5,2.6,4.5,2.6l0,0c0.4,0.2,0.9,0.3,1.4,0.2l0,0C50.9,33.8,51.2,32.8,50.4,32.4z"/>
			<path id="XMLID_39098_" class="st6" d="M48.5,33.8L48.5,33.8c0.4,0.2,0.9,0.3,1.4,0.2l0,0c1-0.2,1.3-1.2,0.5-1.6l0,0
				c0,0-4.5-2.6-4.5-2.6l0,0c-0.4-0.2-0.9-0.3-1.4-0.2l0,0"/>
		</g>
	</g>
	<g id="XMLID_55755_">
		<path id="XMLID_55785_" class="st5" d="M42.7,49.3L42.7,49.3c0.7,0.4,0.5,1.2-0.4,1.4l0,0c-0.4,0.1-0.9,0-1.2-0.2l0,0
			c-0.7-0.4-0.5-1.2,0.4-1.4l0,0C41.9,49,42.4,49.1,42.7,49.3z"/>
		<path id="XMLID_55784_" class="st5" d="M42.7,49.3L42.7,49.3c0.7,0.4,0.5,1.2-0.4,1.4l0,0c-0.4,0.1-0.9,0-1.2-0.2l0,0
			c-0.7-0.4-0.5-1.2,0.4-1.4l0,0C41.9,49,42.4,49.1,42.7,49.3z"/>
		<path id="XMLID_55783_" class="st5" d="M45.3,44.4L45.3,44.4c0.7,0.4,0.5,1.2-0.4,1.4l0,0c-0.4,0.1-0.9,0-1.2-0.2l0,0
			c-0.7-0.4-0.5-1.2,0.4-1.4l0,0C44.5,44.2,45,44.2,45.3,44.4z"/>
		<path id="XMLID_55782_" class="st5" d="M35.7,45.9L35.7,45.9c0.7,0.4,0.5,1.2-0.4,1.4l0,0c-0.4,0.1-0.9,0-1.2-0.2l0,0
			c-0.7-0.4-0.5-1.2,0.4-1.4l0,0C34.8,45.7,35.3,45.7,35.7,45.9z"/>
		<path id="XMLID_55781_" class="st5" d="M36.3,53.3L36.3,53.3c0.7,0.4,0.5,1.2-0.4,1.4l0,0c-0.4,0.1-0.9,0-1.2-0.2l0,0
			c-0.7-0.4-0.5-1.2,0.4-1.4l0,0C35.5,53.1,36,53.1,36.3,53.3z"/>
		<path id="XMLID_55780_" class="st5" d="M45.1,55L45.1,55c0.7,0.4,0.5,1.2-0.4,1.4l0,0c-0.4,0.1-0.9,0-1.2-0.2l0,0
			c-0.7-0.4-0.5-1.2,0.4-1.4v0C44.3,54.7,44.8,54.8,45.1,55z"/>
		<path id="XMLID_55779_" class="st5" d="M51.1,49.1L51.1,49.1c0.7,0.4,0.5,1.2-0.4,1.4l0,0c-0.4,0.1-0.9,0-1.2-0.2l0,0
			c-0.7-0.4-0.5-1.2,0.4-1.4l0,0C50.3,48.8,50.7,48.9,51.1,49.1z"/>
		<path id="XMLID_55778_" class="st7" d="M35.7,46.6L35.7,46.6c0.7,0.4,0.5,1.2-0.4,1.4l0,0c-0.4,0.1-0.9,0-1.2-0.2l0,0
			c-0.7-0.4-0.5-1.2,0.4-1.4l0,0C34.8,46.4,35.3,46.4,35.7,46.6z"/>
		<path id="XMLID_55777_" class="st7" d="M45.3,45.1L45.3,45.1c0.7,0.4,0.5,1.2-0.4,1.4l0,0c-0.4,0.1-0.9,0-1.2-0.2l0,0
			C43,46,43.2,45.2,44.1,45l0,0C44.5,44.9,45,44.9,45.3,45.1z"/>
		<path id="XMLID_55776_" class="st7" d="M36.3,54L36.3,54c0.7,0.4,0.5,1.2-0.4,1.4l0,0c-0.4,0.1-0.9,0-1.2-0.2l0,0
			c-0.7-0.4-0.5-1.2,0.4-1.4l0,0C35.5,53.8,36,53.8,36.3,54z"/>
		<path id="XMLID_55775_" class="st7" d="M45.1,55.7L45.1,55.7c0.7,0.4,0.5,1.2-0.4,1.4l0,0c-0.4,0.1-0.9,0-1.2-0.2l0,0
			c-0.7-0.4-0.5-1.2,0.4-1.4l0,0C44.3,55.4,44.8,55.5,45.1,55.7z"/>
		<path id="XMLID_55774_" class="st7" d="M51.1,49.8L51.1,49.8c0.7,0.4,0.5,1.2-0.4,1.4l0,0c-0.4,0.1-0.9,0-1.2-0.2l0,0
			c-0.7-0.4-0.5-1.2,0.4-1.4l0,0C50.3,49.5,50.7,49.6,51.1,49.8z"/>
		<path id="XMLID_55773_" class="st7" d="M35.7,47L35.7,47c0.7,0.4,0.5,1.2-0.4,1.4l0,0c-0.4,0.1-0.9,0-1.2-0.2l0,0
			c-0.7-0.4-0.5-1.2,0.4-1.4l0,0C34.8,46.8,35.3,46.8,35.7,47z"/>
		<path id="XMLID_55772_" class="st7" d="M45.3,45.5L45.3,45.5c0.7,0.4,0.5,1.2-0.4,1.4l0,0c-0.4,0.1-0.9,0-1.2-0.2l0,0
			c-0.7-0.4-0.5-1.2,0.4-1.4l0,0C44.5,45.3,45,45.3,45.3,45.5z"/>
		<path id="XMLID_55771_" class="st7" d="M36.3,54.4L36.3,54.4c0.7,0.4,0.5,1.2-0.4,1.4l0,0c-0.4,0.1-0.9,0-1.2-0.2l0,0
			c-0.7-0.4-0.5-1.2,0.4-1.4l0,0C35.5,54.2,36,54.2,36.3,54.4z"/>
		<path id="XMLID_55770_" class="st7" d="M45.1,56.1L45.1,56.1c0.7,0.4,0.5,1.2-0.4,1.4l0,0c-0.4,0.1-0.9,0-1.2-0.2l0,0
			c-0.7-0.4-0.5-1.2,0.4-1.4l0,0C44.3,55.8,44.8,55.9,45.1,56.1z"/>
		<path id="XMLID_55769_" class="st7" d="M51.1,50.2L51.1,50.2c0.7,0.4,0.5,1.2-0.4,1.4l0,0c-0.4,0.1-0.9,0-1.2-0.2v0
			c-0.7-0.4-0.5-1.2,0.4-1.4l0,0C50.3,49.9,50.7,50,51.1,50.2z"/>
		<path id="XMLID_55768_" class="st5" d="M41.8,50.3l-0.5-0.4l-6.5,3.4c0,0,0,0,0,0l-0.1,0l0,0c-0.5,0.3-0.6,0.9,0,1.3l0,0
			c0.3,0.2,0.8,0.3,1.2,0.2l0,0c0.3-0.1,0.5-0.2,0.6-0.3L41.8,50.3z"/>
		<path id="XMLID_55767_" class="st5" d="M41.8,49.4l-6.3-3.6l0,0c-0.3-0.2-0.7-0.2-1.1-0.1l0,0c-0.9,0.2-1.1,1-0.4,1.4l0,0
			c0.2,0.1,0.4,0.2,0.6,0.2l6.7,2.5L41.8,49.4z"/>
		<path id="XMLID_55766_" class="st5" d="M45.7,45.2L45.7,45.2c0.1-0.3-0.1-0.6-0.4-0.8l0,0c-0.3-0.2-0.8-0.3-1.2-0.2l0,0
			c-0.5,0.1-0.8,0.4-0.8,0.7l0,0l0,0c0,0,0,0,0,0.1l-1.5,4.5l0.5,0l3.3-4.2C45.7,45.4,45.7,45.3,45.7,45.2L45.7,45.2z"/>
		<path id="XMLID_55765_" class="st5" d="M51.1,49.1c-0.3-0.2-0.7-0.2-1-0.2l0,0l-7.9,0.7l0.1,0.5l7.7,0.4c0.1,0,0.3,0,0.4,0l0,0
			l0,0c0.1,0,0.2,0,0.3,0C51.6,50.3,51.8,49.5,51.1,49.1z"/>
		<path id="XMLID_55764_" class="st5" d="M45.5,55.4L45.5,55.4L45.5,55.4C45.5,55.3,45.5,55.3,45.5,55.4l-3.4-5.5l-0.5,0.1l1.4,5.7
			l0,0c0,0.2,0.1,0.5,0.4,0.6l0,0c0.3,0.2,0.8,0.3,1.2,0.2C45.4,56.3,45.7,55.8,45.5,55.4z"/>
		<path id="XMLID_55763_" class="st5" d="M42.7,49.3L42.7,49.3c0.7,0.4,0.5,1.2-0.4,1.4l0,0c-0.4,0.1-0.9,0-1.2-0.2l0,0
			c-0.7-0.4-0.5-1.2,0.4-1.4l0,0C41.9,49,42.4,49.1,42.7,49.3z"/>
		<path id="XMLID_55762_" class="st5" d="M41.8,50.3l-0.5-0.4l-6.5,3.4c0,0,0,0,0,0l-0.1,0l0,0c-0.5,0.3-0.6,0.9,0,1.3l0,0
			c0.3,0.2,0.8,0.3,1.2,0.2l0,0c0.3-0.1,0.5-0.2,0.6-0.3L41.8,50.3z"/>
		<path id="XMLID_55761_" class="st5" d="M41.8,49.4l-6.3-3.6l0,0c-0.3-0.2-0.7-0.2-1.1-0.1l0,0c-0.9,0.2-1.1,1-0.4,1.4l0,0
			c0.2,0.1,0.4,0.2,0.6,0.2l6.7,2.5L41.8,49.4z"/>
		<path id="XMLID_55760_" class="st5" d="M45.7,45.2L45.7,45.2c0.1-0.3-0.1-0.6-0.4-0.8l0,0c-0.3-0.2-0.8-0.3-1.2-0.2l0,0
			c-0.5,0.1-0.8,0.4-0.8,0.7l0,0l0,0c0,0,0,0,0,0.1l-1.5,4.5l0.5,0l3.3-4.2C45.7,45.4,45.7,45.3,45.7,45.2L45.7,45.2z"/>
		<path id="XMLID_55759_" class="st5" d="M51.1,49.1c-0.3-0.2-0.7-0.2-1-0.2l0,0l-7.9,0.7l0.1,0.5l7.7,0.4c0.1,0,0.3,0,0.4,0l0,0
			l0,0c0.1,0,0.2,0,0.3,0C51.6,50.3,51.8,49.5,51.1,49.1z"/>
		<path id="XMLID_55758_" class="st5" d="M45.5,55.4L45.5,55.4L45.5,55.4C45.5,55.3,45.5,55.3,45.5,55.4l-3.4-5.5l-0.5,0.1l1.4,5.7
			l0,0c0,0.2,0.1,0.5,0.4,0.6l0,0c0.3,0.2,0.8,0.3,1.2,0.2C45.4,56.3,45.7,55.8,45.5,55.4z"/>
		<path id="XMLID_55757_" class="st4" d="M51.1,48.5c-0.3-0.2-0.7-0.2-1-0.2l0,0l-7,0.6c-0.1-0.1-0.1-0.2-0.3-0.2l2.9-3.3
			c0-0.1,0.1-0.1,0.1-0.2l0,0h0c0-0.1,0-0.1,0-0.2c0-0.1,0-0.5,0-0.6c0-0.2-0.2-0.4-0.4-0.6c-0.3-0.2-0.8-0.3-1.2-0.2l0,0
			c-0.5,0.1-0.8,0.4-0.8,0.7l0,0l0,0c0,0,0,0,0,0.1l-1.5,4c-0.1,0-0.2,0-0.3,0l0,0c-0.1,0-0.1,0-0.1,0l-5.8-3.3l0,0
			c-0.3-0.2-0.7-0.2-1.1-0.1c-0.5,0.1-0.8,0.4-0.8,0.7c0,0.1,0,0.6,0,0.7c0,0.2,0.1,0.5,0.4,0.6l0,0c0.2,0.1,0.4,0.2,0.6,0.2l6,2.3
			l-5.9,3.1c0,0,0,0,0,0l-0.1,0l0,0c-0.3,0.2-0.4,0.4-0.4,0.6c0,0.1,0,0.6,0,0.7c0,0.2,0.2,0.4,0.4,0.6l0,0c0.3,0.2,0.8,0.3,1.2,0.2
			l0,0c0.3-0.1,0.5-0.2,0.6-0.3l4.8-3.8c0.2,0.1,0.4,0.1,0.5,0.1l1.2,4.9l0,0c0,0.2,0.1,0.5,0.4,0.6c0.3,0.2,0.8,0.3,1.2,0.2
			c0.5-0.1,0.8-0.4,0.8-0.7c0-0.1,0-0.6,0-0.7c0-0.1,0-0.2-0.1-0.2l0,0l0,0c0,0,0,0,0-0.1l-2.6-4.3c0.1-0.1,0.2-0.2,0.2-0.3l6.9,0.4
			c0.1,0,0.3,0,0.4,0l0,0l0,0c0.1,0,0.2,0,0.3,0c0.5-0.1,0.8-0.4,0.8-0.8c0-0.1,0-0.6,0-0.7C51.5,48.8,51.3,48.6,51.1,48.5z"/>
		<path id="XMLID_55756_" class="st8" d="M51.1,48.5c-0.3-0.2-0.7-0.2-1-0.2l0,0l-7,0.6c-0.1-0.1-0.2-0.2-0.3-0.2l0,0
			c-0.1,0-0.1-0.1-0.2-0.1l3.1-3.7c0-0.1,0.1-0.1,0.1-0.2l0,0h0c0.1-0.3-0.1-0.6-0.4-0.8c-0.3-0.2-0.8-0.3-1.2-0.2l0,0
			c-0.5,0.1-0.8,0.4-0.8,0.7l0,0l0,0c0,0,0,0,0,0.1l-1.5,4c-0.1,0-0.2,0-0.3,0l0,0c-0.1,0-0.1,0-0.1,0l-5.8-3.3l0,0
			c-0.3-0.2-0.7-0.2-1.1-0.1c-0.9,0.2-1.1,1-0.4,1.4l0,0c0.2,0.1,0.4,0.2,0.6,0.2l6.1,2.3c-0.1,0.2-0.1,0.3,0,0.5l-6,3.1
			c0,0,0,0,0,0l-0.1,0l0,0c-0.5,0.3-0.6,0.9,0,1.3l0,0c0.3,0.2,0.8,0.3,1.2,0.2l0,0c0.3-0.1,0.5-0.2,0.6-0.3l4.8-3.8
			c0.2,0.1,0.4,0.1,0.5,0.1l1.2,4.9l0,0c0,0.2,0.1,0.5,0.4,0.6c0.3,0.2,0.8,0.3,1.2,0.2c0.7-0.2,1-0.7,0.8-1.1l0,0l0,0
			c0,0,0,0,0-0.1L42.6,50c0.2-0.1,0.4-0.3,0.5-0.4l6.9,0.4c0.1,0,0.3,0,0.4,0l0,0l0,0c0.1,0,0.2,0,0.3,0
			C51.6,49.7,51.8,48.9,51.1,48.5z"/>
	</g>
	<path id="XMLID_55754_" class="st0" d="M41.9,36.2l-0.9,0.6c0,0,0,12.1,0,12.4c0,0.3,0.3,0.7,0.9,0.7c0.6,0,0.9-0.4,0.9-0.7
		c0-0.3,0-12.4,0-12.4L41.9,36.2z"/>
	<path id="XMLID_39095_" class="st1" d="M41.9,33.5l-0.9,0.6c0,0,0,12.1,0,12.4c0,0.3,0.3,0.7,0.9,0.7c0.6,0,0.9-0.4,0.9-0.7
		c0-0.3,0-12.4,0-12.4L41.9,33.5z"/>
	<g id="XMLID_55746_">
		<path id="XMLID_55745_" class="st9" d="M49.4,36.5l-5.7-2.3c-2.1-1.4-4.8-1.5-7-0.3l-2.2,1.3c-0.9,0.5-1.4,1.4-1.4,2.3
			c0,0.3,0,1.5,0,1.8c0,0.6,0.3,1.2,0.7,1.6c0.2,0.3,5.6,4.3,5.6,4.3c2,0.9,4.2,0.8,6.2-0.1l3.7-2.2c0.7-0.6,1.1-1.2,1.3-1.9
			c0.1-0.5,0.1-2.1,0.1-2.4C50.5,37.7,50.1,37,49.4,36.5z"/>
		<path class="st3" d="M49.4,36.5l-5.7-2.3c-0.6-0.4-1.2-0.7-1.8-0.9v12.5c1.3,0.1,2.6-0.2,3.7-0.7l3.7-2.2c0.7-0.6,1.1-1.2,1.3-1.9
			c0.1-0.5,0.1-2.1,0.1-2.4C50.5,37.7,50.1,37,49.4,36.5z"/>
		<path id="XMLID_55744_" class="st4" d="M43.7,34.1l5.7,2.3c1.7,1.2,1.6,3.7-0.2,4.7l-3.7,2.2c-1.9,1.1-4.2,1.2-6.1,0.2
			c0,0-5.3-3.9-5.6-4.2c-1.2-1.2-1-3.4,0.6-4.4l2.2-1.3C38.9,32.6,41.6,32.7,43.7,34.1z"/>
		<path id="XMLID_55738_" class="st10" d="M49.4,35.8c1.7,1.2,1.6,3.7-0.2,4.7l-3.7,2.2c-1.9,1.1-4.2,1.2-6.1,0.2c0,0-5.4-4-5.7-4.3
			c-1.1-1.3-0.9-3.3,0.7-4.3l2.2-1.3c1.6-0.9,3.6-1.1,5.3-0.6C42.6,32.9,49.4,35.8,49.4,35.8z"/>
	</g>
	<g id="XMLID_55750_">
		<path id="XMLID_55795_" class="st5" d="M40.7,26.8l-1-6.5c-0.3-2.5-3-4.3-5-3.4L32.1,18c-2.1,0.9-3.3,3-3.4,5.5l-0.2,7.7
			c0,2.6,2.9,4.9,5.1,3.9l3.8-1.7C39.8,32.4,41.1,29.8,40.7,26.8z"/>
		<path id="XMLID_55794_" class="st6" d="M41.5,27l-1-6.5c-0.3-2.5-3-4.3-5-3.4l-2.6,1.2c-2.1,0.9-3.3,3-3.4,5.5l-0.2,7.7
			c0,2.6,2.9,4.9,5.1,3.9l3.8-1.7C40.6,32.6,41.9,30,41.5,27z"/>
		<path id="XMLID_55793_" class="st11" d="M42.1,27.5l-0.5-3.2L41.2,21c-0.3-2.5-3-4.3-5-3.4l-2.6,1.2c-2.1,0.9-3.3,3-3.4,5.5
			l-0.1,2.1l0,0.9L29.9,32c0,2.6,2.9,4.9,5.1,3.9l3.8-1.7C41.3,33.1,42.5,30.5,42.1,27.5z"/>
		<g id="XMLID_55749_">
			<path id="XMLID_55751_" class="st4" d="M43,27.4l-0.9-3.7l-0.4-2.5c-0.3-2.5-3-4.3-5-3.4L34.1,19c-2.1,0.9-3.3,3-3.4,5.5
				l-0.1,2.1l0,0.9L30.4,32c0,2.6,3,4.5,5.2,3.5l3.8-1.7C41.9,32.7,43.5,30.4,43,27.4z"/>
			<path id="XMLID_39089_" class="st3" d="M34.1,19c-2.1,0.9-3.3,3-3.4,5.5l-0.1,2.1l0,0.9L30.4,32c0,2.6,3,4.5,5.2,3.5l3.8-1.7
				c2.4-1.1,4-3.4,3.6-6.4l-0.9-3.7"/>
			<path id="XMLID_55752_" class="st3" d="M34.3,35.8c-0.7,0-1.5-0.2-2.2-0.7c-1.1-0.7-1.8-1.9-1.8-3.2l0.3-4.5l0.1-3
				c0-2.5,1.3-4.6,3.4-5.6l2.6-1.2c0.9-0.4,1.9-0.3,2.9,0.3c1.2,0.7,2.1,1.9,2.3,3.2l0.4,2.5l0.9,3.7c0.2,1.4-0.1,2.8-0.8,4
				c-0.6,1.1-1.6,1.9-2.9,2.5l-3.8,1.7C35.2,35.7,34.8,35.8,34.3,35.8z M37.8,17.7c-0.4,0-0.7,0.1-1.1,0.2L34.2,19
				c-2.1,0.9-3.3,3-3.3,5.4l-0.1,3L30.5,32c0,1.2,0.6,2.3,1.7,3c1.1,0.7,2.3,0.9,3.4,0.4l3.8-1.7c1.2-0.5,2.2-1.4,2.8-2.4
				c0.7-1.1,0.9-2.5,0.7-3.9l-0.9-3.7l-0.4-2.5c-0.2-1.3-1-2.5-2.2-3.1C39,17.8,38.4,17.7,37.8,17.7z"/>
		</g>
	</g>
	<g id="XMLID_55748_">
		<g id="XMLID_55796_">
			<g id="XMLID_55800_">
				<path id="XMLID_55802_" class="st0" d="M35.9,37.1c0-0.2-0.1-0.3-0.3-0.5l0,0c-0.3-0.2-0.6-0.2-0.9-0.1l0,0
					c-0.4,0.1-0.6,0.3-0.6,0.6c0,0.2,0,4.1,0,4.3c0,0.2,0.1,0.4,0.3,0.5c0.3,0.2,0.6,0.2,0.9,0.1l0,0c0.4-0.1,0.6-0.3,0.6-0.6V37.1z
					"/>
				<path class="st1" d="M35.5,36.6c-0.3-0.2-0.6-0.2-0.9-0.1c-0.4,0.1-0.6,0.3-0.6,0.6c0,0,0,0.2,0,0.4c0,0.8,0,1.5,0,1.5
					c0,0.2,0.1,0.4,0.3,0.5c0.3,0.2,0.6,0.2,0.9,0.1c0.4-0.1,0.6-0.3,0.6-0.6v-2C35.9,36.9,35.7,36.8,35.5,36.6z"/>
				<path id="XMLID_55801_" class="st2" d="M35.5,36.6L35.5,36.6c0.6,0.3,0.4,0.9-0.3,1.1l0,0c-0.3,0.1-0.7,0-0.9-0.1l0,0
					c-0.6-0.3-0.4-0.9,0.3-1.1l0,0C34.9,36.4,35.3,36.5,35.5,36.6z"/>
			</g>
		</g>
		<g id="XMLID_55740_">
			<path id="XMLID_55743_" class="st3" d="M40.5,39.1L40.5,39.1c0,0-4.5-2.6-4.5-2.6l0,0c-0.4-0.2-0.9-0.3-1.4-0.2l0,0
				c-1,0.2-1.3,1.2-0.5,1.6c0,0,4.5,2.6,4.5,2.6l0,0c0.4,0.2,0.9,0.3,1.4,0.2l0,0C41.1,40.5,41.3,39.6,40.5,39.1z"/>
			<path id="XMLID_55742_" class="st4" d="M41.2,39.2c0-0.3-0.2-0.5-0.5-0.7l0,0c0,0-4.7-2.8-4.7-2.8l0,0c-0.4-0.2-0.9-0.3-1.4-0.2
				l0,0c-0.6,0.1-0.9,0.5-1,0.9c0,0.1,0,0.4,0,0.4c0,0.3,0.2,0.5,0.5,0.7c0,0,4.7,2.7,4.7,2.7c0.4,0.2,0.9,0.3,1.4,0.2l0,0
				c0.6-0.1,0.9-0.5,1-0.9C41.2,39.5,41.2,39.2,41.2,39.2z"/>
			<path id="XMLID_55741_" class="st5" d="M40.5,38.1L40.5,38.1c0,0-4.5-2.6-4.5-2.6l0,0c-0.4-0.2-0.9-0.3-1.4-0.2l0,0
				c-1,0.2-1.3,1.2-0.5,1.6c0,0,4.5,2.6,4.5,2.6l0,0c0.4,0.2,0.9,0.3,1.4,0.2l0,0C41.1,39.5,41.3,38.6,40.5,38.1z"/>
			<path id="XMLID_39097_" class="st6" d="M38.6,39.5L38.6,39.5c0.4,0.2,0.9,0.3,1.4,0.2l0,0c1-0.2,1.3-1.2,0.5-1.6l0,0
				c0,0-4.5-2.6-4.5-2.6l0,0c-0.4-0.2-0.9-0.3-1.4-0.2l0,0"/>
		</g>
	</g>
</g>
</svg>
