<?xml version="1.0" encoding="utf-8"?>
<!-- Generator: Adobe Illustrator 21.0.0, SVG Export Plug-In . SVG Version: 6.00 Build 0)  -->
<svg version="1.1" id="Layer_1" xmlns="http://www.w3.org/2000/svg" xmlns:xlink="http://www.w3.org/1999/xlink" x="0px" y="0px"
	 viewBox="0 0 80 80" style="enable-background:new 0 0 80 80;" xml:space="preserve">
<style type="text/css">
	.st0{fill:#434443;}
	.st1{fill:#EFEFEF;}
	.st2{fill:#1C1E1E;}
	.st3{fill:#252828;}
	.st4{fill:#404141;}
	.st5{fill:#474948;}
	.st6{fill:#3A3A3A;}
	.st7{fill:#353535;}
	.st8{fill:#C5C6C7;}
	.st9{fill:#9C9EA0;}
	.st10{fill:#4F504F;}
	.st11{fill:#393A39;}
	.st12{fill:#2A2B2A;}
</style>
<g id="XMLID_17023_">
	<g id="XMLID_17074_">
		<g id="XMLID_17078_">
			<path id="XMLID_17080_" class="st0" d="M44.5,32.4c0-0.2-0.1-0.3-0.3-0.5l0,0c-0.3-0.2-0.6-0.2-1-0.1v0c-0.4,0.1-0.6,0.4-0.7,0.6
				c0,0.2,0,4.2,0,4.3c0,0.2,0.1,0.4,0.3,0.5c0.3,0.2,0.6,0.2,1,0.1l0,0c0.4-0.1,0.6-0.3,0.7-0.6V32.4z"/>
			<path id="XMLID_17079_" class="st1" d="M44.1,31.9L44.1,31.9c0.6,0.3,0.4,1-0.3,1.1l0,0c-0.3,0.1-0.7,0-1-0.1l0,0
				c-0.6-0.3-0.4-1,0.3-1.1l0,0C43.5,31.7,43.9,31.8,44.1,31.9z"/>
		</g>
		<path id="XMLID_17077_" class="st2" d="M44.5,31.7L44.5,31.7c0,0-4.6-2.6-4.6-2.6l0,0c-0.4-0.2-0.9-0.3-1.4-0.2l0,0
			c-1,0.2-1.3,1.2-0.5,1.7c0,0,4.5,2.6,4.6,2.6l0,0c0.4,0.2,0.9,0.3,1.4,0.2l0,0C45,33.2,45.3,32.2,44.5,31.7z"/>
		<path id="XMLID_17076_" class="st3" d="M45.1,31.8c0-0.3-0.2-0.5-0.5-0.7l0,0c0,0-4.8-2.8-4.8-2.8l0,0c-0.4-0.2-1-0.3-1.5-0.2l0,0
			c-0.6,0.1-1,0.5-1,0.9c0,0.1,0,0.4,0,0.4c0,0.3,0.2,0.5,0.5,0.7c0,0,4.8,2.8,4.8,2.8c0.4,0.2,1,0.3,1.5,0.2l0,0
			c0.6-0.1,0.9-0.5,1-0.9C45.1,32.1,45.1,31.8,45.1,31.8z"/>
		<path id="XMLID_17075_" class="st4" d="M44.5,30.6L44.5,30.6c0,0-4.6-2.6-4.6-2.6l0,0c-0.4-0.2-0.9-0.3-1.4-0.2l0,0
			c-1,0.2-1.3,1.2-0.5,1.7c0,0,4.5,2.6,4.6,2.6l0,0c0.4,0.2,0.9,0.3,1.4,0.2l0,0C45,32.1,45.3,31.1,44.5,30.6z"/>
	</g>
	<g id="XMLID_17043_">
		<path id="XMLID_17073_" class="st5" d="M39,49.7L39,49.7c0.7,0.4,0.5,1.3-0.4,1.5l0,0c-0.4,0.1-0.9,0-1.2-0.2l0,0
			c-0.7-0.4-0.5-1.3,0.4-1.5h0C38.1,49.4,38.6,49.5,39,49.7z"/>
		<path id="XMLID_17072_" class="st5" d="M39,49.7L39,49.7c0.7,0.4,0.5,1.3-0.4,1.5l0,0c-0.4,0.1-0.9,0-1.2-0.2l0,0
			c-0.7-0.4-0.5-1.3,0.4-1.5h0C38.1,49.4,38.6,49.5,39,49.7z"/>
		<path id="XMLID_17071_" class="st5" d="M41.6,44.8L41.6,44.8c0.7,0.4,0.5,1.3-0.4,1.5l0,0c-0.4,0.1-0.9,0-1.2-0.2l0,0
			c-0.7-0.4-0.5-1.3,0.4-1.5l0,0C40.8,44.6,41.3,44.6,41.6,44.8z"/>
		<path id="XMLID_17070_" class="st5" d="M31.8,46.3L31.8,46.3c0.7,0.4,0.5,1.3-0.4,1.5l0,0c-0.4,0.1-0.9,0-1.2-0.2l0,0
			c-0.7-0.4-0.5-1.3,0.4-1.5l0,0C31,46.1,31.5,46.1,31.8,46.3z"/>
		<path id="XMLID_17069_" class="st5" d="M32.5,53.8L32.5,53.8c0.7,0.4,0.5,1.3-0.4,1.5l0,0c-0.4,0.1-0.9,0-1.2-0.2l0,0
			c-0.7-0.4-0.5-1.3,0.4-1.5l0,0C31.7,53.6,32.1,53.6,32.5,53.8z"/>
		<path id="XMLID_17068_" class="st5" d="M41.4,55.5L41.4,55.5c0.7,0.4,0.5,1.3-0.4,1.5l0,0c-0.4,0.1-0.9,0-1.2-0.2l0,0
			c-0.7-0.4-0.5-1.3,0.4-1.5l0,0C40.6,55.3,41.1,55.3,41.4,55.5z"/>
		<path id="XMLID_17067_" class="st5" d="M47.5,49.5L47.5,49.5c0.7,0.4,0.5,1.3-0.4,1.5l0,0c-0.4,0.1-0.9,0-1.2-0.2l0,0
			c-0.7-0.4-0.5-1.3,0.4-1.5l0,0C46.6,49.2,47.1,49.3,47.5,49.5z"/>
		<path id="XMLID_17066_" class="st6" d="M31.8,47L31.8,47c0.7,0.4,0.5,1.3-0.4,1.5l0,0c-0.4,0.1-0.9,0-1.2-0.2l0,0
			c-0.7-0.4-0.5-1.3,0.4-1.5l0,0C31,46.8,31.5,46.8,31.8,47z"/>
		<path id="XMLID_17065_" class="st6" d="M41.6,45.5L41.6,45.5c0.7,0.4,0.5,1.3-0.4,1.5l0,0c-0.4,0.1-0.9,0-1.2-0.2l0,0
			c-0.7-0.4-0.5-1.3,0.4-1.5l0,0C40.8,45.3,41.3,45.3,41.6,45.5z"/>
		<path id="XMLID_17064_" class="st6" d="M32.5,54.5L32.5,54.5c0.7,0.4,0.5,1.3-0.4,1.5l0,0c-0.4,0.1-0.9,0-1.2-0.2l0,0
			c-0.7-0.4-0.5-1.3,0.4-1.5l0,0C31.7,54.3,32.1,54.3,32.5,54.5z"/>
		<path id="XMLID_17063_" class="st6" d="M41.4,56.2L41.4,56.2c0.7,0.4,0.5,1.3-0.4,1.5l0,0c-0.4,0.1-0.9,0-1.2-0.2l0,0
			c-0.7-0.4-0.5-1.3,0.4-1.5l0,0C40.6,56,41.1,56,41.4,56.2z"/>
		<path id="XMLID_17062_" class="st6" d="M47.5,50.2L47.5,50.2c0.7,0.4,0.5,1.3-0.4,1.5l0,0c-0.4,0.1-0.9,0-1.2-0.2l0,0
			c-0.7-0.4-0.5-1.3,0.4-1.5l0,0C46.6,49.9,47.1,50,47.5,50.2z"/>
		<path id="XMLID_17061_" class="st6" d="M31.8,47.4L31.8,47.4c0.7,0.4,0.5,1.3-0.4,1.5l0,0c-0.4,0.1-0.9,0-1.2-0.2l0,0
			c-0.7-0.4-0.5-1.3,0.4-1.5l0,0C31,47.2,31.5,47.2,31.8,47.4z"/>
		<path id="XMLID_17060_" class="st6" d="M41.6,45.9L41.6,45.9c0.7,0.4,0.5,1.3-0.4,1.5l0,0c-0.4,0.1-0.9,0-1.2-0.2l0,0
			c-0.7-0.4-0.5-1.3,0.4-1.5l0,0C40.8,45.7,41.3,45.7,41.6,45.9z"/>
		<path id="XMLID_17059_" class="st6" d="M32.5,54.9L32.5,54.9c0.7,0.4,0.5,1.3-0.4,1.5l0,0c-0.4,0.1-0.9,0-1.2-0.2l0,0
			c-0.7-0.4-0.5-1.3,0.4-1.5l0,0C31.7,54.7,32.1,54.7,32.5,54.9z"/>
		<path id="XMLID_17058_" class="st6" d="M41.4,56.6L41.4,56.6c0.7,0.4,0.5,1.3-0.4,1.5l0,0c-0.4,0.1-0.9,0-1.2-0.2l0,0
			c-0.7-0.4-0.5-1.3,0.4-1.5l0,0C40.6,56.4,41.1,56.4,41.4,56.6z"/>
		<path id="XMLID_17057_" class="st6" d="M47.5,50.6L47.5,50.6c0.7,0.4,0.5,1.3-0.4,1.5l0,0c-0.4,0.1-0.9,0-1.2-0.2l0,0
			c-0.7-0.4-0.5-1.3,0.4-1.5l0,0C46.6,50.3,47.1,50.4,47.5,50.6z"/>
		<path id="XMLID_17056_" class="st5" d="M38,50.8l-0.5-0.4l-6.6,3.5c0,0,0,0,0,0l-0.1,0l0,0c-0.5,0.3-0.6,0.9,0,1.3l0,0
			c0.3,0.2,0.8,0.3,1.2,0.2l0,0c0.3-0.1,0.5-0.2,0.6-0.3L38,50.8z"/>
		<path id="XMLID_17055_" class="st5" d="M38.1,49.9l-6.4-3.6l0,0c-0.3-0.2-0.8-0.2-1.1-0.1l0,0c-0.9,0.2-1.2,1-0.4,1.5l0,0
			c0.2,0.1,0.4,0.2,0.6,0.2l6.7,2.5L38.1,49.9z"/>
		<path id="XMLID_17054_" class="st5" d="M42.1,45.6L42.1,45.6c0.1-0.3-0.1-0.6-0.4-0.8l0,0c-0.3-0.2-0.8-0.3-1.2-0.2l0,0
			c-0.5,0.1-0.8,0.4-0.8,0.7l0,0l0,0c0,0,0,0.1,0,0.1L38,50l0.6,0l3.4-4.2C42,45.8,42,45.7,42.1,45.6L42.1,45.6z"/>
		<path id="XMLID_17053_" class="st5" d="M47.5,49.5c-0.3-0.2-0.7-0.2-1.1-0.2l0,0l-8,0.7l0.1,0.6l7.8,0.4c0.1,0,0.3,0,0.4,0l0,0
			l0,0c0.1,0,0.2,0,0.3,0C48,50.7,48.2,49.9,47.5,49.5z"/>
		<path id="XMLID_17052_" class="st5" d="M41.8,55.9L41.8,55.9L41.8,55.9C41.8,55.8,41.8,55.8,41.8,55.9l-3.4-5.6l-0.5,0.1l1.4,5.8
			l0,0c0,0.2,0.1,0.5,0.4,0.7l0,0c0.3,0.2,0.8,0.3,1.2,0.2C41.7,56.8,42,56.3,41.8,55.9z"/>
		<path id="XMLID_17051_" class="st5" d="M39,49.7L39,49.7c0.7,0.4,0.5,1.3-0.4,1.5l0,0c-0.4,0.1-0.9,0-1.2-0.2l0,0
			c-0.7-0.4-0.5-1.3,0.4-1.5h0C38.1,49.4,38.6,49.5,39,49.7z"/>
		<path id="XMLID_17050_" class="st5" d="M38,50.8l-0.5-0.4l-6.6,3.5c0,0,0,0,0,0l-0.1,0l0,0c-0.5,0.3-0.6,0.9,0,1.3l0,0
			c0.3,0.2,0.8,0.3,1.2,0.2l0,0c0.3-0.1,0.5-0.2,0.6-0.3L38,50.8z"/>
		<path id="XMLID_17049_" class="st5" d="M38.1,49.9l-6.4-3.6l0,0c-0.3-0.2-0.8-0.2-1.1-0.1l0,0c-0.9,0.2-1.2,1-0.4,1.5l0,0
			c0.2,0.1,0.4,0.2,0.6,0.2l6.7,2.5L38.1,49.9z"/>
		<path id="XMLID_17048_" class="st5" d="M42.1,45.6L42.1,45.6c0.1-0.3-0.1-0.6-0.4-0.8l0,0c-0.3-0.2-0.8-0.3-1.2-0.2l0,0
			c-0.5,0.1-0.8,0.4-0.8,0.7l0,0l0,0c0,0,0,0.1,0,0.1L38,50l0.6,0l3.4-4.2C42,45.8,42,45.7,42.1,45.6L42.1,45.6z"/>
		<path id="XMLID_17047_" class="st5" d="M47.5,49.5c-0.3-0.2-0.7-0.2-1.1-0.2l0,0l-8,0.7l0.1,0.6l7.8,0.4c0.1,0,0.3,0,0.4,0l0,0
			l0,0c0.1,0,0.2,0,0.3,0C48,50.7,48.2,49.9,47.5,49.5z"/>
		<path id="XMLID_17046_" class="st5" d="M41.8,55.9L41.8,55.9L41.8,55.9C41.8,55.8,41.8,55.8,41.8,55.9l-3.4-5.6l-0.5,0.1l1.4,5.8
			l0,0c0,0.2,0.1,0.5,0.4,0.7l0,0c0.3,0.2,0.8,0.3,1.2,0.2C41.7,56.8,42,56.3,41.8,55.9z"/>
		<path id="XMLID_17045_" class="st3" d="M47.5,48.9c-0.3-0.2-0.7-0.2-1.1-0.2l0,0l-7.1,0.6c-0.1-0.1-0.1-0.2-0.3-0.2l3-3.3
			c0-0.1,0.1-0.1,0.1-0.2l0,0h0c0-0.1,0-0.1,0-0.2c0-0.1,0-0.5,0-0.6c0-0.2-0.2-0.4-0.4-0.6c-0.3-0.2-0.8-0.3-1.2-0.2l0,0
			c-0.5,0.1-0.8,0.4-0.8,0.7h0l0,0c0,0,0,0.1,0,0.1l-1.5,4c-0.1,0-0.2,0-0.3,0h0c-0.1,0-0.1,0-0.1,0l-5.8-3.3l0,0
			c-0.3-0.2-0.8-0.2-1.1-0.1c-0.5,0.1-0.8,0.4-0.8,0.7c0,0.1,0,0.6,0,0.7c0,0.2,0.1,0.5,0.4,0.7l0,0c0.2,0.1,0.4,0.2,0.6,0.2
			l6.1,2.3l-6,3.1c0,0,0,0,0,0l-0.1,0l0,0c-0.3,0.2-0.4,0.4-0.4,0.6c0,0.1,0,0.6,0,0.7c0,0.2,0.2,0.4,0.4,0.6l0,0
			c0.3,0.2,0.8,0.3,1.2,0.2l0,0c0.3-0.1,0.5-0.2,0.6-0.3l4.8-3.8c0.2,0.1,0.4,0.1,0.5,0.1l1.2,5l0,0c0,0.2,0.1,0.5,0.4,0.7
			c0.3,0.2,0.8,0.3,1.2,0.2c0.5-0.1,0.8-0.4,0.8-0.8c0-0.1,0-0.6,0-0.7c0-0.1,0-0.2-0.1-0.2l0,0l0,0c0,0,0,0,0-0.1l-2.6-4.3
			c0.1-0.1,0.2-0.2,0.2-0.3l7,0.4c0.1,0,0.3,0,0.4,0l0,0l0,0c0.1,0,0.2,0,0.3,0c0.5-0.1,0.8-0.4,0.9-0.8c0-0.1,0-0.6,0-0.7
			C47.9,49.3,47.7,49.1,47.5,48.9z"/>
		<path id="XMLID_17044_" class="st7" d="M47.5,48.9c-0.3-0.2-0.7-0.2-1.1-0.2l0,0l-7.1,0.6c-0.1-0.1-0.2-0.2-0.3-0.2l0,0
			c-0.1,0-0.1-0.1-0.2-0.1l3.2-3.8c0-0.1,0.1-0.1,0.1-0.2l0,0h0c0.1-0.3-0.1-0.6-0.4-0.8c-0.3-0.2-0.8-0.3-1.2-0.2l0,0
			c-0.5,0.1-0.8,0.4-0.8,0.7h0l0,0c0,0,0,0.1,0,0.1l-1.5,4c-0.1,0-0.2,0-0.3,0h0c-0.1,0-0.1,0-0.1,0l-5.8-3.3l0,0
			c-0.3-0.2-0.8-0.2-1.1-0.1c-0.9,0.2-1.2,1-0.4,1.5l0,0c0.2,0.1,0.4,0.2,0.6,0.2l6.1,2.3c-0.1,0.2-0.1,0.3,0,0.5l-6.1,3.2
			c0,0,0,0,0,0l-0.1,0l0,0c-0.5,0.3-0.6,0.9,0,1.3l0,0c0.3,0.2,0.8,0.3,1.2,0.2l0,0c0.3-0.1,0.5-0.2,0.6-0.3l4.8-3.8
			c0.2,0.1,0.4,0.1,0.5,0.1l1.2,5l0,0c0,0.2,0.1,0.5,0.4,0.7c0.3,0.2,0.8,0.3,1.2,0.2c0.7-0.2,1-0.7,0.8-1.1l0,0l0,0c0,0,0,0,0-0.1
			l-2.9-4.8c0.2-0.1,0.4-0.3,0.5-0.4l7,0.4c0.1,0,0.3,0,0.4,0l0,0l0,0c0.1,0,0.2,0,0.3,0C48,50.2,48.2,49.3,47.5,48.9z"/>
	</g>
	<path id="XMLID_17042_" class="st8" d="M38.1,36.4L37.2,37c0,0,0,12.3,0,12.6c0,0.3,0.3,0.7,0.9,0.7c0.6,0,0.9-0.4,0.9-0.7
		c0-0.3,0-12.6,0-12.6L38.1,36.4z"/>
	<path id="XMLID_17041_" class="st9" d="M38.1,32.3l-0.9,0.6c0,0,0,12.3,0,12.6c0,0.3,0.3,0.7,0.9,0.7c0.6,0,0.9-0.4,0.9-0.7
		c0-0.3,0-12.6,0-12.6L38.1,32.3z"/>
	<path id="XMLID_17040_" class="st3" d="M44.9,35.5l-4.5-3.1c-2.1-1.4-4.9-1.5-7.1-0.3l-3.5,2c-0.9,0.5-1.4,1.4-1.4,2.3
		c0,0.3,0,1.5,0,1.8c0.1,1,0.6,1.9,1.6,2.4l6.1,2.8c2,0.9,4.3,0.9,6.2-0.1l2.4-1.4c0.7-0.6,1.1-1.2,1.3-2c0.1-0.5,0.1-2.1,0.1-2.5
		C46.1,36.7,45.7,36,44.9,35.5z"/>
	<path id="XMLID_17039_" class="st7" d="M40.4,32.3l4.5,3.1c1.7,1.2,1.6,3.8-0.2,4.8l-2.4,1.4c-1.9,1.1-4.2,1.2-6.2,0.2L30,39.1
		c-2.1-1-2.2-3.9-0.2-5l3.5-2C35.6,30.8,38.3,30.9,40.4,32.3z"/>
	<path id="XMLID_17038_" class="st10" d="M40.4,31.7l4.5,3.1c1.7,1.2,1.6,3.8-0.2,4.8L42.3,41c-1.9,1.1-4.2,1.2-6.2,0.2L30,38.5
		c-2.1-1-2.2-3.9-0.2-5l3.5-2C35.6,30.1,38.3,30.2,40.4,31.7z"/>
	<path id="XMLID_17037_" class="st5" d="M40.4,31.7l4.5,3.1c1.7,1.2,1.6,3.8-0.2,4.8L42.3,41c-1.9,1.1-4.2,1.2-6.2,0.2L30,38.5"/>
	<g id="XMLID_17032_">
		<path id="XMLID_17036_" class="st11" d="M49.3,22.1c-0.8-0.3-1.7-0.4-2.6-0.1l-3.1,1.2c-2.5,0.9-4.3,3-4.9,5.5c0,0-0.2,1-0.7,2.5
			c-0.5,1.5-2,3.5-2.5,4.7c-0.4,1.2,0.2,2.5,1,3.3c0.5,0.5,2.7,1.6,3.2,1.8c0.8,0.4,1.8,0.5,2.7,0.1l4.5-1.7
			c2.9-1.1,4.8-3.7,5.1-6.7l0.5-6.5c0.1-1.2-0.4-2.2-1.2-2.9C50.9,23,49.8,22.4,49.3,22.1z"/>
		<path id="XMLID_17035_" class="st12" d="M51.6,32.4l0.5-6.5c0.2-2.5-2.2-4.4-4.6-3.5l-3.1,1.2c-2.5,0.9-4.3,3-4.9,5.5l-2,7.8
			c-0.6,2.7,1.9,4.9,4.5,4l4.5-1.7C49.4,38,51.3,35.4,51.6,32.4z"/>
		<path id="XMLID_17034_" class="st3" d="M52.2,32.9l0.5-6.5c0.2-2.5-2.2-4.4-4.6-3.5L45,24c-2.5,0.9-4.3,3-4.9,5.5l-2,7.8
			c-0.6,2.7,1.9,4.9,4.5,4l4.5-1.7C49.9,38.5,51.9,35.9,52.2,32.9z"/>
		<path id="XMLID_17033_" class="st2" d="M45,24c-2.5,0.9-4.3,3-4.9,5.5l-2,7.8c-0.6,2.7,1.9,4.9,4.5,4l4.5-1.7"/>
	</g>
	<g id="XMLID_17024_">
		<g id="XMLID_17029_">
			<path id="XMLID_17031_" class="st8" d="M34.5,38.2c0-0.2-0.1-0.3-0.3-0.5l0,0c-0.3-0.2-0.6-0.2-1-0.1v0c-0.4,0.1-0.6,0.4-0.7,0.6
				c0,0.2,0,4.2,0,4.3c0,0.2,0.1,0.4,0.3,0.5c0.3,0.2,0.6,0.2,1,0.1l0,0c0.4-0.1,0.6-0.3,0.7-0.6V38.2z"/>
			<path class="st9" d="M34.1,37.7c-0.3-0.2-0.6-0.2-1-0.1v0c-0.4,0.1-0.6,0.4-0.7,0.6c0,0,0,0.2,0,0.4c0,0.9,0,1.6,0,1.7
				c0,0.2,0.1,0.4,0.3,0.5c0.3,0.2,0.6,0.2,1,0.1c0.4-0.1,0.6-0.3,0.7-0.6v-2.2C34.4,38,34.3,37.8,34.1,37.7z"/>
			<path id="XMLID_17030_" class="st1" d="M34.1,37.7L34.1,37.7c0.6,0.3,0.4,1-0.3,1.1l0,0c-0.3,0.1-0.7,0-1-0.1l0,0
				c-0.6-0.3-0.4-1,0.3-1.1l0,0C33.5,37.5,33.9,37.6,34.1,37.7z"/>
		</g>
		<path id="XMLID_17028_" class="st2" d="M34.4,37.5L34.4,37.5c0,0-4.6-2.6-4.6-2.6l0,0c-0.4-0.2-0.9-0.3-1.4-0.2l0,0
			c-1,0.2-1.3,1.2-0.5,1.7c0,0,4.5,2.6,4.6,2.6l0,0c0.4,0.2,0.9,0.3,1.4,0.2l0,0C35,38.9,35.3,38,34.4,37.5z"/>
		<path id="XMLID_17027_" class="st3" d="M35.1,37.6c0-0.3-0.2-0.5-0.5-0.7l0,0c0,0-4.8-2.8-4.8-2.8l0,0c-0.4-0.2-1-0.3-1.5-0.2l0,0
			c-0.6,0.1-1,0.5-1,0.9c0,0.1,0,0.4,0,0.4c0,0.3,0.2,0.5,0.5,0.7c0,0,4.8,2.8,4.8,2.8c0.4,0.2,1,0.3,1.5,0.2l0,0
			c0.6-0.1,0.9-0.5,1-0.9C35.1,37.9,35.1,37.6,35.1,37.6z"/>
		<path id="XMLID_17026_" class="st5" d="M34.4,36.4L34.4,36.4c0,0-4.6-2.6-4.6-2.6l0,0c-0.4-0.2-0.9-0.3-1.4-0.2l0,0
			c-1,0.2-1.3,1.2-0.5,1.7c0,0,4.5,2.6,4.6,2.6l0,0c0.4,0.2,0.9,0.3,1.4,0.2l0,0C35,37.8,35.3,36.9,34.4,36.4z"/>
		<path id="XMLID_17025_" class="st4" d="M28,35.3c0,0,4.5,2.6,4.6,2.6l0,0c0.4,0.2,0.9,0.3,1.4,0.2l0,0c1-0.2,1.3-1.2,0.5-1.7l0,0"
			/>
	</g>
</g>
</svg>
