<?xml version="1.0" encoding="utf-8"?>
<!-- Generator: Adobe Illustrator 21.0.0, SVG Export Plug-In . SVG Version: 6.00 Build 0)  -->
<svg version="1.1" id="Layer_1" xmlns="http://www.w3.org/2000/svg" xmlns:xlink="http://www.w3.org/1999/xlink" x="0px" y="0px"
	 viewBox="0 0 80 80" style="enable-background:new 0 0 80 80;" xml:space="preserve">
<style type="text/css">
	.st0{fill:#434443;}
	.st1{fill:#EFEFEF;}
	.st2{fill:#1C1E1E;}
	.st3{fill:#252828;}
	.st4{fill:#404141;}
	.st5{fill:#474948;}
	.st6{fill:#3A3A3A;}
	.st7{fill:#353535;}
	.st8{fill:#C5C6C7;}
	.st9{fill:#9C9EA0;}
	.st10{fill:#4F504F;}
	.st11{fill:#393A39;}
	.st12{fill:#2A2B2A;}
</style>
<g id="XMLID_17023_">
	<g id="XMLID_17074_">
		<g id="XMLID_17078_">
			<path id="XMLID_17080_" class="st0" d="M35.5,32.4c0-0.2,0.1-0.3,0.3-0.5l0,0c0.3-0.2,0.6-0.2,1-0.1v0c0.4,0.1,0.6,0.4,0.7,0.6
				c0,0.2,0,4.2,0,4.3c0,0.2-0.1,0.4-0.3,0.5c-0.3,0.2-0.6,0.2-1,0.1l0,0c-0.4-0.1-0.6-0.3-0.7-0.6V32.4z"/>
			<path id="XMLID_17079_" class="st1" d="M35.9,31.9L35.9,31.9c-0.6,0.3-0.4,1,0.3,1.1l0,0c0.3,0.1,0.7,0,1-0.1l0,0
				c0.6-0.3,0.4-1-0.3-1.1l0,0C36.5,31.7,36.1,31.8,35.9,31.9z"/>
		</g>
		<path id="XMLID_17077_" class="st2" d="M35.5,31.7L35.5,31.7c0,0,4.6-2.6,4.6-2.6l0,0c0.4-0.2,0.9-0.3,1.4-0.2l0,0
			c1,0.2,1.3,1.2,0.5,1.7c0,0-4.5,2.6-4.6,2.6l0,0c-0.4,0.2-0.9,0.3-1.4,0.2l0,0C35,33.2,34.7,32.2,35.5,31.7z"/>
		<path id="XMLID_17076_" class="st3" d="M34.9,31.8c0-0.3,0.2-0.5,0.5-0.7l0,0c0,0,4.8-2.8,4.8-2.8l0,0c0.4-0.2,1-0.3,1.5-0.2l0,0
			c0.6,0.1,1,0.5,1,0.9c0,0.1,0,0.4,0,0.4c0,0.3-0.2,0.5-0.5,0.7c0,0-4.8,2.8-4.8,2.8c-0.4,0.2-1,0.3-1.5,0.2l0,0
			c-0.6-0.1-0.9-0.5-1-0.9C34.9,32.1,34.9,31.8,34.9,31.8z"/>
		<path id="XMLID_17075_" class="st4" d="M35.5,30.6L35.5,30.6c0,0,4.6-2.6,4.6-2.6l0,0c0.4-0.2,0.9-0.3,1.4-0.2l0,0
			c1,0.2,1.3,1.2,0.5,1.7c0,0-4.5,2.6-4.6,2.6l0,0c-0.4,0.2-0.9,0.3-1.4,0.2l0,0C35,32.1,34.7,31.1,35.5,30.6z"/>
	</g>
	<g id="XMLID_17043_">
		<path id="XMLID_17073_" class="st5" d="M41,49.7L41,49.7c-0.7,0.4-0.5,1.3,0.4,1.5l0,0c0.4,0.1,0.9,0,1.2-0.2l0,0
			c0.7-0.4,0.5-1.3-0.4-1.5h0C41.9,49.4,41.4,49.5,41,49.7z"/>
		<path id="XMLID_17072_" class="st5" d="M41,49.7L41,49.7c-0.7,0.4-0.5,1.3,0.4,1.5l0,0c0.4,0.1,0.9,0,1.2-0.2l0,0
			c0.7-0.4,0.5-1.3-0.4-1.5h0C41.9,49.4,41.4,49.5,41,49.7z"/>
		<path id="XMLID_17071_" class="st5" d="M38.4,44.8L38.4,44.8c-0.7,0.4-0.5,1.3,0.4,1.5l0,0c0.4,0.1,0.9,0,1.2-0.2l0,0
			c0.7-0.4,0.5-1.3-0.4-1.5l0,0C39.2,44.6,38.7,44.6,38.4,44.8z"/>
		<path id="XMLID_17070_" class="st5" d="M48.2,46.3L48.2,46.3c-0.7,0.4-0.5,1.3,0.4,1.5l0,0c0.4,0.1,0.9,0,1.2-0.2l0,0
			c0.7-0.4,0.5-1.3-0.4-1.5l0,0C49,46.1,48.5,46.1,48.2,46.3z"/>
		<path id="XMLID_17069_" class="st5" d="M47.5,53.8L47.5,53.8c-0.7,0.4-0.5,1.3,0.4,1.5l0,0c0.4,0.1,0.9,0,1.2-0.2l0,0
			c0.7-0.4,0.5-1.3-0.4-1.5l0,0C48.3,53.6,47.9,53.6,47.5,53.8z"/>
		<path id="XMLID_17068_" class="st5" d="M38.6,55.5L38.6,55.5C37.8,56,38.1,56.8,39,57l0,0c0.4,0.1,0.9,0,1.2-0.2l0,0
			c0.7-0.4,0.5-1.3-0.4-1.5l0,0C39.4,55.3,38.9,55.3,38.6,55.5z"/>
		<path id="XMLID_17067_" class="st5" d="M32.5,49.5L32.5,49.5C31.8,49.9,32,50.7,33,51l0,0c0.4,0.1,0.9,0,1.2-0.2l0,0
			c0.7-0.4,0.5-1.3-0.4-1.5l0,0C33.4,49.2,32.9,49.3,32.5,49.5z"/>
		<path id="XMLID_17066_" class="st6" d="M48.2,47L48.2,47c-0.7,0.4-0.5,1.3,0.4,1.5l0,0c0.4,0.1,0.9,0,1.2-0.2l0,0
			c0.7-0.4,0.5-1.3-0.4-1.5l0,0C49,46.8,48.5,46.8,48.2,47z"/>
		<path id="XMLID_17065_" class="st6" d="M38.4,45.5L38.4,45.5c-0.7,0.4-0.5,1.3,0.4,1.5l0,0c0.4,0.1,0.9,0,1.2-0.2l0,0
			c0.7-0.4,0.5-1.3-0.4-1.5l0,0C39.2,45.3,38.7,45.3,38.4,45.5z"/>
		<path id="XMLID_17064_" class="st6" d="M47.5,54.5L47.5,54.5C46.8,55,47,55.8,47.9,56l0,0c0.4,0.1,0.9,0,1.2-0.2l0,0
			c0.7-0.4,0.5-1.3-0.4-1.5l0,0C48.3,54.3,47.9,54.3,47.5,54.5z"/>
		<path id="XMLID_17063_" class="st6" d="M38.6,56.2L38.6,56.2c-0.7,0.4-0.5,1.3,0.4,1.5l0,0c0.4,0.1,0.9,0,1.2-0.2l0,0
			c0.7-0.4,0.5-1.3-0.4-1.5l0,0C39.4,56,38.9,56,38.6,56.2z"/>
		<path id="XMLID_17062_" class="st6" d="M32.5,50.2L32.5,50.2c-0.7,0.4-0.5,1.3,0.4,1.5l0,0c0.4,0.1,0.9,0,1.2-0.2l0,0
			c0.7-0.4,0.5-1.3-0.4-1.5l0,0C33.4,49.9,32.9,50,32.5,50.2z"/>
		<path id="XMLID_17061_" class="st6" d="M48.2,47.4L48.2,47.4c-0.7,0.4-0.5,1.3,0.4,1.5l0,0c0.4,0.1,0.9,0,1.2-0.2l0,0
			c0.7-0.4,0.5-1.3-0.4-1.5l0,0C49,47.2,48.5,47.2,48.2,47.4z"/>
		<path id="XMLID_17060_" class="st6" d="M38.4,45.9L38.4,45.9c-0.7,0.4-0.5,1.3,0.4,1.5l0,0c0.4,0.1,0.9,0,1.2-0.2l0,0
			c0.7-0.4,0.5-1.3-0.4-1.5l0,0C39.2,45.7,38.7,45.7,38.4,45.9z"/>
		<path id="XMLID_17059_" class="st6" d="M47.5,54.9L47.5,54.9c-0.7,0.4-0.5,1.3,0.4,1.5l0,0c0.4,0.1,0.9,0,1.2-0.2l0,0
			c0.7-0.4,0.5-1.3-0.4-1.5l0,0C48.3,54.7,47.9,54.7,47.5,54.9z"/>
		<path id="XMLID_17058_" class="st6" d="M38.6,56.6L38.6,56.6c-0.7,0.4-0.5,1.3,0.4,1.5l0,0c0.4,0.1,0.9,0,1.2-0.2l0,0
			c0.7-0.4,0.5-1.3-0.4-1.5l0,0C39.4,56.4,38.9,56.4,38.6,56.6z"/>
		<path id="XMLID_17057_" class="st6" d="M32.5,50.6L32.5,50.6C31.8,51,32,51.9,33,52.1l0,0c0.4,0.1,0.9,0,1.2-0.2l0,0
			c0.7-0.4,0.5-1.3-0.4-1.5l0,0C33.4,50.3,32.9,50.4,32.5,50.6z"/>
		<path id="XMLID_17056_" class="st5" d="M42,50.8l0.5-0.4l6.6,3.5c0,0,0,0,0,0l0.1,0l0,0c0.5,0.3,0.6,0.9,0,1.3l0,0
			c-0.3,0.2-0.8,0.3-1.2,0.2l0,0c-0.3-0.1-0.5-0.2-0.6-0.3L42,50.8z"/>
		<path id="XMLID_17055_" class="st5" d="M41.9,49.9l6.4-3.6l0,0c0.3-0.2,0.8-0.2,1.1-0.1l0,0c0.9,0.2,1.2,1,0.4,1.5l0,0
			c-0.2,0.1-0.4,0.2-0.6,0.2l-6.7,2.5L41.9,49.9z"/>
		<path id="XMLID_17054_" class="st5" d="M37.9,45.6L37.9,45.6c-0.1-0.3,0.1-0.6,0.4-0.8l0,0c0.3-0.2,0.8-0.3,1.2-0.2l0,0
			c0.5,0.1,0.8,0.4,0.8,0.7l0,0l0,0c0,0,0,0.1,0,0.1L42,50l-0.6,0L38,45.8C38,45.8,38,45.7,37.9,45.6L37.9,45.6z"/>
		<path id="XMLID_17053_" class="st5" d="M32.5,49.5c0.3-0.2,0.7-0.2,1.1-0.2l0,0l8,0.7l-0.1,0.6L33.7,51c-0.1,0-0.3,0-0.4,0l0,0
			l0,0c-0.1,0-0.2,0-0.3,0C32,50.7,31.8,49.9,32.5,49.5z"/>
		<path id="XMLID_17052_" class="st5" d="M38.2,55.9L38.2,55.9L38.2,55.9C38.2,55.8,38.2,55.8,38.2,55.9l3.4-5.6l0.5,0.1l-1.4,5.8
			l0,0c0,0.2-0.1,0.5-0.4,0.7l0,0C39.9,57,39.4,57.1,39,57C38.3,56.8,38,56.3,38.2,55.9z"/>
		<path id="XMLID_17051_" class="st5" d="M41,49.7L41,49.7c-0.7,0.4-0.5,1.3,0.4,1.5l0,0c0.4,0.1,0.9,0,1.2-0.2l0,0
			c0.7-0.4,0.5-1.3-0.4-1.5h0C41.9,49.4,41.4,49.5,41,49.7z"/>
		<path id="XMLID_17050_" class="st5" d="M42,50.8l0.5-0.4l6.6,3.5c0,0,0,0,0,0l0.1,0l0,0c0.5,0.3,0.6,0.9,0,1.3l0,0
			c-0.3,0.2-0.8,0.3-1.2,0.2l0,0c-0.3-0.1-0.5-0.2-0.6-0.3L42,50.8z"/>
		<path id="XMLID_17049_" class="st5" d="M41.9,49.9l6.4-3.6l0,0c0.3-0.2,0.8-0.2,1.1-0.1l0,0c0.9,0.2,1.2,1,0.4,1.5l0,0
			c-0.2,0.1-0.4,0.2-0.6,0.2l-6.7,2.5L41.9,49.9z"/>
		<path id="XMLID_17048_" class="st5" d="M37.9,45.6L37.9,45.6c-0.1-0.3,0.1-0.6,0.4-0.8l0,0c0.3-0.2,0.8-0.3,1.2-0.2l0,0
			c0.5,0.1,0.8,0.4,0.8,0.7l0,0l0,0c0,0,0,0.1,0,0.1L42,50l-0.6,0L38,45.8C38,45.8,38,45.7,37.9,45.6L37.9,45.6z"/>
		<path id="XMLID_17047_" class="st5" d="M32.5,49.5c0.3-0.2,0.7-0.2,1.1-0.2l0,0l8,0.7l-0.1,0.6L33.7,51c-0.1,0-0.3,0-0.4,0l0,0
			l0,0c-0.1,0-0.2,0-0.3,0C32,50.7,31.8,49.9,32.5,49.5z"/>
		<path id="XMLID_17046_" class="st5" d="M38.2,55.9L38.2,55.9L38.2,55.9C38.2,55.8,38.2,55.8,38.2,55.9l3.4-5.6l0.5,0.1l-1.4,5.8
			l0,0c0,0.2-0.1,0.5-0.4,0.7l0,0C39.9,57,39.4,57.1,39,57C38.3,56.8,38,56.3,38.2,55.9z"/>
		<path id="XMLID_17045_" class="st3" d="M32.5,48.9c0.3-0.2,0.7-0.2,1.1-0.2l0,0l7.1,0.6c0.1-0.1,0.1-0.2,0.3-0.2l-3-3.3
			c0-0.1-0.1-0.1-0.1-0.2l0,0h0c0-0.1,0-0.1,0-0.2c0-0.1,0-0.5,0-0.6c0-0.2,0.2-0.4,0.4-0.6c0.3-0.2,0.8-0.3,1.2-0.2l0,0
			c0.5,0.1,0.8,0.4,0.8,0.7h0l0,0c0,0,0,0.1,0,0.1l1.5,4c0.1,0,0.2,0,0.3,0h0c0.1,0,0.1,0,0.1,0l5.8-3.3l0,0
			c0.3-0.2,0.8-0.2,1.1-0.1c0.5,0.1,0.8,0.4,0.8,0.7c0,0.1,0,0.6,0,0.7c0,0.2-0.1,0.5-0.4,0.7l0,0c-0.2,0.1-0.4,0.2-0.6,0.2
			l-6.1,2.3l6,3.1c0,0,0,0,0,0l0.1,0l0,0c0.3,0.2,0.4,0.4,0.4,0.6c0,0.1,0,0.6,0,0.7c0,0.2-0.2,0.4-0.4,0.6l0,0
			c-0.3,0.2-0.8,0.3-1.2,0.2l0,0c-0.3-0.1-0.5-0.2-0.6-0.3l-4.8-3.8c-0.2,0.1-0.4,0.1-0.5,0.1l-1.2,5l0,0c0,0.2-0.1,0.5-0.4,0.7
			C39.9,57,39.4,57.1,39,57c-0.5-0.1-0.8-0.4-0.8-0.8c0-0.1,0-0.6,0-0.7c0-0.1,0-0.2,0.1-0.2l0,0l0,0c0,0,0,0,0-0.1l2.6-4.3
			c-0.1-0.1-0.2-0.2-0.2-0.3l-7,0.4c-0.1,0-0.3,0-0.4,0l0,0l0,0c-0.1,0-0.2,0-0.3,0c-0.5-0.1-0.8-0.4-0.9-0.8c0-0.1,0-0.6,0-0.7
			C32.1,49.3,32.3,49.1,32.5,48.9z"/>
		<path id="XMLID_17044_" class="st7" d="M32.5,48.9c0.3-0.2,0.7-0.2,1.1-0.2l0,0l7.1,0.6c0.1-0.1,0.2-0.2,0.3-0.2l0,0
			c0.1,0,0.1-0.1,0.2-0.1L38,45.2c0-0.1-0.1-0.1-0.1-0.2l0,0h0c-0.1-0.3,0.1-0.6,0.4-0.8c0.3-0.2,0.8-0.3,1.2-0.2l0,0
			c0.5,0.1,0.8,0.4,0.8,0.7h0l0,0c0,0,0,0.1,0,0.1l1.5,4c0.1,0,0.2,0,0.3,0h0c0.1,0,0.1,0,0.1,0l5.8-3.3l0,0
			c0.3-0.2,0.8-0.2,1.1-0.1c0.9,0.2,1.2,1,0.4,1.5l0,0c-0.2,0.1-0.4,0.2-0.6,0.2l-6.1,2.3c0.1,0.2,0.1,0.3,0,0.5l6.1,3.2
			c0,0,0,0,0,0l0.1,0l0,0c0.5,0.3,0.6,0.9,0,1.3l0,0c-0.3,0.2-0.8,0.3-1.2,0.2l0,0c-0.3-0.1-0.5-0.2-0.6-0.3l-4.8-3.8
			c-0.2,0.1-0.4,0.1-0.5,0.1l-1.2,5l0,0c0,0.2-0.1,0.5-0.4,0.7c-0.3,0.2-0.8,0.3-1.2,0.2c-0.7-0.2-1-0.7-0.8-1.1l0,0l0,0
			c0,0,0,0,0-0.1l2.9-4.8c-0.2-0.1-0.4-0.3-0.5-0.4l-7,0.4c-0.1,0-0.3,0-0.4,0l0,0l0,0c-0.1,0-0.2,0-0.3,0
			C32,50.2,31.8,49.3,32.5,48.9z"/>
	</g>
	<path id="XMLID_17042_" class="st8" d="M41.9,36.4l0.9,0.6c0,0,0,12.3,0,12.6c0,0.3-0.3,0.7-0.9,0.7c-0.6,0-0.9-0.4-0.9-0.7
		c0-0.3,0-12.6,0-12.6L41.9,36.4z"/>
	<path id="XMLID_17041_" class="st9" d="M41.9,32.3l0.9,0.6c0,0,0,12.3,0,12.6c0,0.3-0.3,0.7-0.9,0.7c-0.6,0-0.9-0.4-0.9-0.7
		c0-0.3,0-12.6,0-12.6L41.9,32.3z"/>
	<path id="XMLID_17040_" class="st3" d="M35.1,35.5l4.5-3.1c2.1-1.4,4.9-1.5,7.1-0.3l3.5,2c0.9,0.5,1.4,1.4,1.4,2.3
		c0,0.3,0,1.5,0,1.8c-0.1,1-0.6,1.9-1.6,2.4l-6.1,2.8c-2,0.9-4.3,0.9-6.2-0.1l-2.4-1.4c-0.7-0.6-1.1-1.2-1.3-2
		c-0.1-0.5-0.1-2.1-0.1-2.5C33.9,36.7,34.3,36,35.1,35.5z"/>
	<path id="XMLID_17039_" class="st7" d="M39.6,32.3l-4.5,3.1c-1.7,1.2-1.6,3.8,0.2,4.8l2.4,1.4c1.9,1.1,4.2,1.2,6.2,0.2l6.1-2.8
		c2.1-1,2.2-3.9,0.2-5l-3.5-2C44.4,30.8,41.7,30.9,39.6,32.3z"/>
	<path id="XMLID_17038_" class="st10" d="M39.6,31.7l-4.5,3.1c-1.7,1.2-1.6,3.8,0.2,4.8l2.4,1.4c1.9,1.1,4.2,1.2,6.2,0.2l6.1-2.8
		c2.1-1,2.2-3.9,0.2-5l-3.5-2C44.4,30.1,41.7,30.2,39.6,31.7z"/>
	<path id="XMLID_17037_" class="st5" d="M39.6,31.7l-4.5,3.1c-1.7,1.2-1.6,3.8,0.2,4.8l2.4,1.4c1.9,1.1,4.2,1.2,6.2,0.2l6.1-2.8"/>
	<g id="XMLID_17032_">
		<path id="XMLID_17036_" class="st11" d="M30.7,22.1c0.8-0.3,1.7-0.4,2.6-0.1l3.1,1.2c2.5,0.9,4.3,3,4.9,5.5c0,0,0.2,1,0.7,2.5
			c0.5,1.5,2,3.5,2.5,4.7c0.4,1.2-0.2,2.5-1,3.3c-0.5,0.5-2.7,1.6-3.2,1.8c-0.8,0.4-1.8,0.5-2.7,0.1l-4.5-1.7
			c-2.9-1.1-4.8-3.7-5.1-6.7l-0.5-6.5c-0.1-1.2,0.4-2.2,1.2-2.9C29.1,23,30.2,22.4,30.7,22.1z"/>
		<path id="XMLID_17035_" class="st12" d="M28.4,32.4l-0.5-6.5c-0.2-2.5,2.2-4.4,4.6-3.5l3.1,1.2c2.5,0.9,4.3,3,4.9,5.5l2,7.8
			c0.6,2.7-1.9,4.9-4.5,4l-4.5-1.7C30.6,38,28.7,35.4,28.4,32.4z"/>
		<path id="XMLID_17034_" class="st3" d="M27.8,32.9l-0.5-6.5c-0.2-2.5,2.2-4.4,4.6-3.5L35,24c2.5,0.9,4.3,3,4.9,5.5l2,7.8
			c0.6,2.7-1.9,4.9-4.5,4l-4.5-1.7C30.1,38.5,28.1,35.9,27.8,32.9z"/>
		<path id="XMLID_17033_" class="st2" d="M35,24c2.5,0.9,4.3,3,4.9,5.5l2,7.8c0.6,2.7-1.9,4.9-4.5,4l-4.5-1.7"/>
	</g>
	<g id="XMLID_17024_">
		<g id="XMLID_17029_">
			<path id="XMLID_17031_" class="st8" d="M45.5,38.2c0-0.2,0.1-0.3,0.3-0.5l0,0c0.3-0.2,0.6-0.2,1-0.1v0c0.4,0.1,0.6,0.4,0.7,0.6
				c0,0.2,0,4.2,0,4.3c0,0.2-0.1,0.4-0.3,0.5c-0.3,0.2-0.6,0.2-1,0.1l0,0c-0.4-0.1-0.6-0.3-0.7-0.6V38.2z"/>
			<path class="st9" d="M45.9,37.7c0.3-0.2,0.6-0.2,1-0.1v0c0.4,0.1,0.6,0.4,0.7,0.6c0,0,0,0.2,0,0.4c0,0.9,0,1.6,0,1.7
				c0,0.2-0.1,0.4-0.3,0.5c-0.3,0.2-0.6,0.2-1,0.1c-0.4-0.1-0.6-0.3-0.7-0.6v-2.2C45.6,38,45.7,37.8,45.9,37.7z"/>
			<path id="XMLID_17030_" class="st1" d="M45.9,37.7L45.9,37.7c-0.6,0.3-0.4,1,0.3,1.1l0,0c0.3,0.1,0.7,0,1-0.1l0,0
				c0.6-0.3,0.4-1-0.3-1.1l0,0C46.5,37.5,46.1,37.6,45.9,37.7z"/>
		</g>
		<path id="XMLID_17028_" class="st2" d="M45.6,37.5L45.6,37.5c0,0,4.6-2.6,4.6-2.6l0,0c0.4-0.2,0.9-0.3,1.4-0.2l0,0
			c1,0.2,1.3,1.2,0.5,1.7c0,0-4.5,2.6-4.6,2.6l0,0c-0.4,0.2-0.9,0.3-1.4,0.2l0,0C45,38.9,44.7,38,45.6,37.5z"/>
		<path id="XMLID_17027_" class="st3" d="M44.9,37.6c0-0.3,0.2-0.5,0.5-0.7l0,0c0,0,4.8-2.8,4.8-2.8l0,0c0.4-0.2,1-0.3,1.5-0.2l0,0
			c0.6,0.1,1,0.5,1,0.9c0,0.1,0,0.4,0,0.4c0,0.3-0.2,0.5-0.5,0.7c0,0-4.8,2.8-4.8,2.8c-0.4,0.2-1,0.3-1.5,0.2l0,0
			c-0.6-0.1-0.9-0.5-1-0.9C44.9,37.9,44.9,37.6,44.9,37.6z"/>
		<path id="XMLID_17026_" class="st5" d="M45.6,36.4L45.6,36.4c0,0,4.6-2.6,4.6-2.6l0,0c0.4-0.2,0.9-0.3,1.4-0.2l0,0
			c1,0.2,1.3,1.2,0.5,1.7c0,0-4.5,2.6-4.6,2.6l0,0c-0.4,0.2-0.9,0.3-1.4,0.2l0,0C45,37.8,44.7,36.9,45.6,36.4z"/>
		<path id="XMLID_17025_" class="st4" d="M52,35.3c0,0-4.5,2.6-4.6,2.6l0,0c-0.4,0.2-0.9,0.3-1.4,0.2l0,0c-1-0.2-1.3-1.2-0.5-1.7
			l0,0"/>
	</g>
</g>
</svg>
