<?xml version="1.0" encoding="utf-8"?>
<!-- Generator: Adobe Illustrator 21.0.0, SVG Export Plug-In . SVG Version: 6.00 Build 0)  -->
<svg version="1.1" id="Layer_1" xmlns="http://www.w3.org/2000/svg" xmlns:xlink="http://www.w3.org/1999/xlink" x="0px" y="0px"
	 viewBox="0 0 80 80" style="enable-background:new 0 0 80 80;" xml:space="preserve">
<style type="text/css">
	.st0{fill:#B7B7B7;}
	.st1{fill:#E5E5E4;}
	.st2{fill:#929191;}
	.st3{fill:#B2B2B2;}
	.st4{fill:#7C7B7B;}
	.st5{fill:#444444;}
	.st6{fill:#1B1E1E;}
	.st7{opacity:0.3;fill:#3D3D3D;}
	.st8{fill:#252828;}
	.st9{opacity:0.3;fill:#424243;}
	.st10{opacity:0.3;fill:#3A3A3A;}
</style>
<g id="XMLID_5212_">
	<g id="XMLID_5255_">
		<g id="XMLID_5260_">
			<path id="XMLID_5261_" class="st0" d="M41,28.7c0.4,1.1,1.5,3.7,1.9,4.6c0.5,0.9,2.4,2,3.3,2.2c0.1,0,0.2,0,0.4,0
				c0.1,0,0.3,0,0.4-0.1c0.1,0,0.8-0.3,1-0.4c0.1,0,0.2-0.1,0.2-0.1c0.5-0.4,1.2-1.4,1.7-2.1c0.4-0.5,0.5-1.3,0.3-2.1
				c-0.2-0.8-0.6-1.5-1.3-1.9l0,0c0,0-4.2-2.5-5-3c-0.3-0.2-0.6-0.3-0.9-0.2c-0.2,0-1.1,0.4-1.2,0.5c-0.1,0-0.3,0.1-0.4,0.2
				C40.9,26.7,40.6,27.7,41,28.7z M44.6,32.5c-0.4-0.8-1.4-3.3-1.8-4.4c-0.2-0.4-0.1-0.9,0-1.2c0.8,0.5,4.8,2.9,4.8,2.9
				c0.9,0.6,1.2,2.2,0.7,2.9c-0.4,0.5-0.8,1.1-1.1,1.5C46.3,33.9,44.9,33.1,44.6,32.5z"/>
		</g>
		<g id="XMLID_5256_">
			<path id="XMLID_5257_" class="st1" d="M41,28.7c0.4,1.1,1.5,3.7,1.9,4.6c0.5,0.9,2.4,2,3.3,2.2c0.1,0,0.2,0,0.4,0
				c0.2,0,0.4,0,0.6-0.2c0.5-0.4,1.2-1.4,1.7-2.1c0.4-0.5,0.5-1.3,0.3-2.1c-0.2-0.8-0.6-1.5-1.3-1.9l0,0c0,0-4.2-2.5-5-3
				c-0.5-0.3-1.1-0.3-1.5,0.1C40.9,26.7,40.6,27.7,41,28.7z M42.7,26.8c0.7,0.5,4.8,2.9,4.8,2.9c0.9,0.6,1.2,2.2,0.7,2.9
				c-0.5,0.7-1.2,1.6-1.5,1.9c-0.4,0.3-2.7-1-3.1-1.8c-0.4-0.8-1.4-3.3-1.8-4.4C41.4,27.5,42,26.4,42.7,26.8z"/>
		</g>
	</g>
	<g id="XMLID_5247_">
		<path id="XMLID_5254_" class="st2" d="M41.5,52l-6.2,6.2c0,0-0.5,0.4-0.9-0.6l5.8-6.6l-5.5-0.5c0,0-0.5-0.1-0.4-1.2h15.5
			c0.1,1.2-0.4,1.2-0.4,1.2L43.7,51l5.8,6.6c-0.5,1-0.9,0.6-0.9,0.6L42.4,52H41.5z"/>
		<polygon id="XMLID_5253_" class="st3" points="41.5,50.5 35.3,57.1 34.4,57.6 42,49 49.5,57.6 48.6,57.1 42.4,50.5 		"/>
		<polygon id="XMLID_5252_" class="st3" points="39.7,49.8 34.6,49.6 34.2,49.3 49.7,49.3 49.3,49.6 44.1,49.8 		"/>
		<g id="XMLID_5250_">
			<path id="XMLID_5251_" class="st3" d="M42,50.7c0.7,0,1.3-0.4,1.3-0.9l0,0c0-0.5-0.6-0.9-1.3-0.9c-0.7,0-1.3,0.4-1.3,0.9l0,0
				C40.7,50.3,41.3,50.7,42,50.7z"/>
		</g>
		<g id="XMLID_5248_">
			<path id="XMLID_5249_" class="st2" d="M42,50.1c0.4,0,0.7-0.2,0.7-0.6v-5.9c0-0.4-0.3-0.7-0.7-0.7c-0.4,0-0.7,0.3-0.7,0.7v5.9
				C41.3,49.9,41.6,50.1,42,50.1z"/>
		</g>
		<g id="XMLID_39154_">
			<path id="XMLID_39158_" class="st4" d="M42,48.8c0.4,0,0.7-0.2,0.7-0.6v-5.9c0-0.4-0.3-0.7-0.7-0.7c-0.4,0-0.7,0.3-0.7,0.7v5.9
				C41.3,48.6,41.6,48.8,42,48.8z"/>
		</g>
	</g>
	<g id="XMLID_5244_">
		<path id="XMLID_5246_" class="st5" d="M26.8,21.5c0.1,1.4,0.1,3.4,0.1,5.8c0,2.8,0.5,9.7,3,13.6c2,3,8,5.9,8,5.9
			c0.7,0.3,1,0.7,1.3,1c0.3,0.4,0.5,0.8,0.6,1.1c0,0,1.5-4.2-1-8.6c-1.6-2.8-7.1-13.7-9.8-18.9c-1.3-2.4-2.5-2.2-2.5-2.2
			S26.7,20,26.8,21.5z"/>
		<path id="XMLID_5245_" class="st6" d="M26.4,19.1c1.2,0.5,0.9,3.6,0.9,7.8c0,2.8,0.5,9.7,3,13.6c2,3,8,5.9,8,5.9
			c1.8,0.8,1.4,2.3,1.4,2.3l13.8-8c0,0,0.2-1.5-1.6-2.2c0,0-6.2-2.3-8.4-5.2c-2.9-3.7-3.9-10.5-4.1-13.3c-0.3-4.2-0.4-7.4-1.6-7.7
			L26.4,19.1z"/>
	</g>
	<g id="XMLID_5222_">
		<g id="XMLID_5223_">
			<path id="XMLID_5243_" class="st7" d="M52.7,38.7l-14,7.7c-0.2,0.1-0.3,0-0.3,0c0,0-0.1-0.1-0.3-0.1l14-7.7
				C52.2,38.6,52.4,38.7,52.7,38.7z"/>
			<path id="XMLID_5242_" class="st7" d="M49.3,37.2c0.2,0.1,0.3,0.2,0.5,0.2l-13.7,7.6c0,0,0,0-0.1,0l-0.2-0.4L49.3,37.2z"/>
			<path id="XMLID_5241_" class="st7" d="M47.4,36.2l-13.5,7.5c-0.3,0-0.4-0.1-0.5-0.2L46.8,36C46.9,36.1,47.1,36.2,47.4,36.2z"/>
			<path id="XMLID_5240_" class="st7" d="M45.1,34.6l-13.3,7.3c-0.2,0-0.4-0.1-0.5-0.2l13.2-7.3C44.7,34.5,44.8,34.6,45.1,34.6z"/>
			<path id="XMLID_5239_" class="st7" d="M43.2,32.8l-13.6,7.5c-0.1-0.1-0.2-0.3-0.1-0.5L43,32.3C43,32.5,43.1,32.6,43.2,32.8z"/>
			<g id="XMLID_5225_">
				<path id="XMLID_5238_" class="st8" d="M26.4,19.1l11.5-6.8c0.8,0.2,1.1,1.6,1.3,3.7l-11.8,6.5C27.3,20.7,27.1,19.4,26.4,19.1z"
					/>
				<path id="XMLID_5237_" class="st8" d="M26.4,19.1l11.5-6.8c0.4,0.1,0.7,0.6,0.9,1.4l-11.7,6.4C26.9,19.6,26.7,19.3,26.4,19.1z"
					/>
				<path id="XMLID_5236_" class="st8" d="M41.7,29.9L28.8,37c-0.2-0.8-0.4-1.5-0.6-2.3l12.7-7C41.1,28.4,41.4,29.2,41.7,29.9z"/>
				<path id="XMLID_5235_" class="st8" d="M27.4,23.1l11.8-6.6c0.1,0.6,0.1,1.3,0.1,2l-12,6.6C27.4,24.4,27.4,23.7,27.4,23.1z"/>
				<path id="XMLID_5234_" class="st8" d="M40.8,27.2l-12.7,7c-0.2-0.9-0.3-1.8-0.4-2.7l12.5-6.9C40.3,25.4,40.5,26.3,40.8,27.2z"/>
				<path id="XMLID_5233_" class="st8" d="M27.4,27c0-0.4,0-0.9,0-1.3l12-6.7c0,0.3,0,0.7,0.1,1c0,0.3,0.1,0.7,0.1,1.2L27.4,28
					C27.4,27.6,27.4,27.3,27.4,27z"/>
				<path id="XMLID_5232_" class="st8" d="M39.6,21.7c0.1,0.7,0.2,1.5,0.4,2.4L27.6,31c-0.1-0.9-0.2-1.8-0.2-2.5L39.6,21.7z"/>
				<path id="XMLID_5231_" class="st9" d="M42,30.2l-12.9,7.1C29,37.2,29,37,28.9,36.9l12.9-7.1C41.9,29.9,41.9,30.1,42,30.2z"/>
				<path id="XMLID_5230_" class="st10" d="M41,27.5l-12.7,7c-0.2,0-0.2-0.2-0.2-0.4l12.7-7C40.8,27.3,40.8,27.5,41,27.5z"/>
				<path id="XMLID_5229_" class="st10" d="M40.2,24.5l-12.5,6.9c0-0.2,0-0.3-0.1-0.5L40.2,24C40.2,24.2,40.2,24.3,40.2,24.5z"/>
				<path id="XMLID_5228_" class="st7" d="M27.5,27.9l12.2-6.8c-0.1,0.3-0.1,0.4-0.1,0.6l-12.3,6.8C27.4,28.3,27.4,28.2,27.5,27.9z"
					/>
				<path id="XMLID_5227_" class="st7" d="M27.4,25.2l12-6.6c0,0.2,0,0.3,0.2,0.4l-12,6.7C27.4,25.5,27.4,25.3,27.4,25.2z"/>
				<path id="XMLID_5226_" class="st7" d="M27.5,22.4l11.8-6.5c0,0.2,0,0.3,0,0.5L27.5,23C27.5,22.8,27.5,22.6,27.5,22.4z"/>
			</g>
			<path id="XMLID_5224_" class="st7" d="M27,19.9l11.7-6.5c0,0.1,0.1,0.3,0.2,0.3l-11.7,6.5C27.1,20.2,27.1,20.1,27,19.9z"/>
		</g>
	</g>
	<g id="XMLID_5213_">
		<g id="XMLID_5218_">
			<path id="XMLID_5219_" class="st0" d="M27.8,37.5c0.4,1.1,1.5,3.7,1.9,4.6c0.5,0.9,2.4,2,3.3,2.2c0.1,0,0.2,0,0.4,0
				c0.1,0,0.3,0,0.4-0.1c0.1,0,0.8-0.3,1-0.4c0.1,0,0.2-0.1,0.2-0.1c0.5-0.4,1.2-1.4,1.7-2.1c0.4-0.5,0.5-1.3,0.3-2.1
				c-0.2-0.8-0.6-1.5-1.3-1.9l0,0c0,0-4.2-2.5-5-3c-0.3-0.2-0.6-0.3-0.9-0.2c-0.2,0-1.1,0.4-1.2,0.5c-0.1,0-0.3,0.1-0.4,0.2
				C27.7,35.5,27.5,36.6,27.8,37.5z M31.4,41.3C31,40.5,30,38,29.6,36.9c-0.2-0.4-0.1-0.9,0-1.2c0.8,0.5,4.8,2.9,4.8,2.9
				c0.9,0.6,1.2,2.2,0.7,2.9C34.7,42,34.3,42.6,34,43C33.1,42.8,31.7,41.9,31.4,41.3z"/>
		</g>
		<g id="XMLID_5214_">
			<path id="XMLID_5215_" class="st1" d="M27.8,37.5c0.4,1.1,1.5,3.7,1.9,4.6c0.5,0.9,2.4,2,3.3,2.2c0.1,0,0.2,0,0.4,0
				c0.2,0,0.4,0,0.6-0.2c0.5-0.4,1.2-1.4,1.7-2.1c0.4-0.5,0.5-1.3,0.3-2.1c-0.2-0.8-0.6-1.5-1.3-1.9l0,0c0,0-4.2-2.5-5-3
				c-0.5-0.3-1.1-0.3-1.5,0.1C27.7,35.5,27.5,36.6,27.8,37.5z M29.6,35.7c0.7,0.5,4.8,2.9,4.8,2.9c0.9,0.6,1.2,2.2,0.7,2.9
				c-0.5,0.7-1.2,1.6-1.5,1.9c-0.4,0.3-2.7-1-3.1-1.8c-0.4-0.8-1.4-3.3-1.8-4.4C28.3,36.3,28.8,35.2,29.6,35.7z"/>
		</g>
	</g>
</g>
</svg>
