<?xml version="1.0" encoding="utf-8"?>
<!-- Generator: Adobe Illustrator 21.0.0, SVG Export Plug-In . SVG Version: 6.00 Build 0)  -->
<svg version="1.1" id="Layer_1" xmlns="http://www.w3.org/2000/svg" xmlns:xlink="http://www.w3.org/1999/xlink" x="0px" y="0px"
	 viewBox="0 0 80 80" style="enable-background:new 0 0 80 80;" xml:space="preserve">
<style type="text/css">
	.st0{fill:#B6B6B7;}
	.st1{fill:#E4E4E3;}
	.st2{fill:#919090;}
	.st3{fill:#B2B2B2;}
	.st4{fill:#7C7C7C;}
	.st5{fill:#383939;}
	.st6{fill:#252828;}
	.st7{fill:#1C1E1E;}
	.st8{fill:#444A4A;}
	.st9{fill:#4D5151;}
	.st10{fill:#393A39;}
</style>
<g id="XMLID_16148_">
	<g id="XMLID_16181_">
		<g id="XMLID_16186_">
			<path id="XMLID_16187_" class="st0" d="M43.1,33.6c0.4,1.1,1.5,3.7,1.9,4.5c0.4,0.9,2.3,2,3.3,2.2c0.1,0,0.2,0,0.4,0
				c0.1,0,0.3,0,0.4-0.1c0.1,0,0.8-0.3,1-0.4c0.1,0,0.2-0.1,0.2-0.1c0.5-0.4,1.2-1.3,1.7-2.1c0.4-0.5,0.5-1.3,0.3-2.1
				c-0.2-0.8-0.6-1.5-1.2-1.9l0,0c0,0-4.1-2.5-4.9-3c-0.3-0.2-0.6-0.2-0.9-0.2c-0.2,0-1.1,0.4-1.2,0.4c-0.1,0-0.3,0.1-0.4,0.2
				C43,31.6,42.8,32.7,43.1,33.6z M46.7,37.3c-0.4-0.8-1.4-3.2-1.8-4.3c-0.1-0.4-0.1-0.9,0-1.2c0.8,0.5,4.7,2.9,4.7,2.9
				c0.9,0.6,1.2,2.2,0.7,2.9c-0.3,0.5-0.8,1.1-1.1,1.5C48.3,38.8,46.9,37.9,46.7,37.3z"/>
		</g>
		<g id="XMLID_16182_">
			<path id="XMLID_16183_" class="st1" d="M43.1,33.6c0.4,1.1,1.5,3.7,1.9,4.5c0.4,0.9,2.3,2,3.3,2.2c0.1,0,0.2,0,0.4,0
				c0.2,0,0.4,0,0.6-0.2c0.5-0.4,1.2-1.3,1.7-2.1c0.4-0.5,0.5-1.3,0.3-2.1c-0.2-0.8-0.6-1.5-1.2-1.9l0,0c0,0-4.1-2.5-4.9-3
				c-0.5-0.3-1.1-0.3-1.5,0.1C43,31.6,42.8,32.7,43.1,33.6z M44.8,31.8c0.7,0.5,4.7,2.9,4.7,2.9c0.9,0.6,1.2,2.2,0.7,2.9
				c-0.5,0.7-1.1,1.6-1.5,1.9c-0.4,0.3-2.7-1-3.1-1.7c-0.4-0.8-1.4-3.2-1.8-4.3C43.6,32.5,44.1,31.4,44.8,31.8z"/>
		</g>
	</g>
	<g id="XMLID_16158_">
		<g id="XMLID_16170_">
			<g id="XMLID_16173_">
				<path id="XMLID_16180_" class="st2" d="M42.5,52l6.1,6.1c0,0,0.5,0.4,0.9-0.6l-5.7-6.5l5.5-0.5c0,0,0.5-0.1,0.4-1.2H34.4
					c-0.1,1.2,0.4,1.2,0.4,1.2l5.5,0.5l-5.7,6.5c0.5,1,0.9,0.6,0.9,0.6l6.1-6.1H42.5z"/>
				<polygon id="XMLID_16179_" class="st3" points="42.5,50.6 48.6,57.1 49.5,57.5 42,49.1 34.6,57.5 35.5,57.1 41.6,50.6 				"/>
				<polygon id="XMLID_16178_" class="st3" points="44.2,49.9 49.3,49.7 49.6,49.4 34.4,49.4 34.8,49.7 39.9,49.9 				"/>
				<g id="XMLID_16176_">
					<path id="XMLID_16177_" class="st3" d="M42,50.7c-0.7,0-1.2-0.4-1.2-0.9l0,0c0-0.5,0.6-0.9,1.2-0.9s1.2,0.4,1.2,0.9l0,0
						C43.2,50.4,42.7,50.7,42,50.7z"/>
				</g>
				<g id="XMLID_16174_">
					<path id="XMLID_16175_" class="st2" d="M42,50.2c-0.4,0-0.7-0.2-0.7-0.6v-5.8c0-0.4,0.3-0.7,0.7-0.7c0.4,0,0.7,0.3,0.7,0.7v5.8
						C42.7,50,42.4,50.2,42,50.2z"/>
				</g>
				<g id="XMLID_39096_">
					<path id="XMLID_39108_" class="st4" d="M42,48c-0.4,0-0.7-0.2-0.7-0.6v-5.8c0-0.4,0.3-0.7,0.7-0.7c0.4,0,0.7,0.3,0.7,0.7v5.8
						C42.7,47.8,42.4,48,42,48z"/>
				</g>
			</g>
			<path id="XMLID_16172_" class="st5" d="M43.8,34.4c0,0-1.4-0.6-1.8-0.8c-0.4-0.2-1.3-0.4-2.1,0.1l-12,7.3l0.8,0.1l8,4.5
				c0,0,3.4,1.4,5.6-1.4C44,41.9,43.8,34.4,43.8,34.4z"/>
			<path id="XMLID_16171_" class="st6" d="M55,16.8c0,0-3.1,1.4-5.7,3c-2.6,1.5-5.1,3.3-5.1,3.3s-0.6,0.7-0.6,1c0,2.2,0,12.4,0,14.2
				c0,1.9-0.2,4.1-1.8,6c0,0-1.8,2.8-5.8,0.9l-7.2-4.1c-0.7-0.4-1.3-0.2-1.2,0.6c0,0.1,0,0.2,0,0.2c0,0,0,0,0,0
				c0-0.2,0.1-0.3,0.2-0.4c0.2-0.2,0.6-0.1,0.9,0.1l6.5,3.6c3,1.9,5.4,0.5,5.4,0.5l11.3-6.6c0.9-0.6,1.4-1,1.8-1.6
				c1.1-1.4,1.3-4.2,1.3-6.1V18.5C55,16.9,55,16.8,55,16.8z"/>
			<path id="XMLID_39103_" class="st7" d="M44.2,23.1c0,0-0.6,0.7-0.6,1c0,2.2,0,12.4,0,14.2c0,1.9-0.2,4.1-1.8,6
				c0,0-1.8,2.8-5.8,0.9l-7.2-4.1c-0.7-0.4-1.3-0.2-1.2,0.6c0,0.1,0,0.2,0,0.2c0,0,0,0,0,0c0-0.2,0.1-0.3,0.2-0.4
				c0.2-0.2,0.6-0.1,0.9,0.1l6.5,3.6c3,1.9,5.4,0.5,5.4,0.5l11.3-6.6c0.9-0.6,1.4-1,1.8-1.6c1.1-1.4,1.3-4.2,1.3-6.1"/>
		</g>
		<g id="XMLID_16159_">
			<path id="XMLID_16169_" class="st5" d="M42.2,44.2c-1.4,1.8-3.3,1.9-4.5,1.7l5.3-3.3C42.8,43.2,42.5,43.8,42.2,44.2z"/>
			<path id="XMLID_16168_" class="st8" d="M43.6,38.8l-9.1,5.7l-2.3-1.3L43.8,36C43.8,36.7,43.7,37.7,43.6,38.8z"/>
			<path id="XMLID_16167_" class="st8" d="M43.8,34.4c0,0,0,0.5,0,1.2L32,43l-2.2-1.3l12.7-8C43,34.1,43.8,34.4,43.8,34.4z"/>
			<path id="XMLID_16166_" class="st8" d="M43.1,42.2l-5.8,3.6c-0.4-0.1-0.7-0.2-0.7-0.2l-1.8-1l8.7-5.5
				C43.5,40.2,43.3,41.2,43.1,42.2z"/>
			<path id="XMLID_16165_" class="st8" d="M28.6,41.1L27.8,41l12-7.3c0.8-0.5,1.7-0.3,2.1-0.1c0.1,0,0.1,0.1,0.2,0.1l-12.6,8
				L28.6,41.1z"/>
			<path id="XMLID_16164_" class="st9" d="M42.1,33.7c0.1,0,0.2,0.1,0.3,0.1l-12.7,8l-0.3-0.2L42.1,33.7z"/>
			<path id="XMLID_16163_" class="st9" d="M43.8,36l-11.5,7.2L32,43l11.8-7.4C43.8,35.7,43.8,35.8,43.8,36z"/>
			<path id="XMLID_16162_" class="st9" d="M43.6,39.1l-8.7,5.5l-0.3-0.2l9.1-5.7C43.6,38.9,43.6,39,43.6,39.1z"/>
			<path id="XMLID_16161_" class="st9" d="M43,42.6l-5.3,3.3c-0.2,0-0.3-0.1-0.4-0.1l5.8-3.6C43,42.3,43,42.5,43,42.6z"/>
			<path id="XMLID_16160_" class="st10" d="M44.2,22.5c-0.5,0.4-0.7,0.8-0.7,1.2c0,2.8,0.1,12.9,0.1,14.6c0,1.9-0.2,4.1-1.8,6
				c0,0-1.8,2.8-5.8,0.9l-7.2-4.1c-0.7-0.4-1.3-0.2-1.2,0.6c0,0.1,0,0.2,0,0.2c0,0,0,0,0,0c0-0.2,0.1-0.3,0.2-0.4
				c0.2-0.2,0.6-0.1,0.9,0.1l6.5,3.6c3,1.9,5.4,0.5,5.4,0.5s2.4-1,3.2-3.9c0.8-2.7,0.2-13.6,0.1-18.1c0,0,0-0.6,0.5-0.7
				c0.6-0.1,2.3-1.5,4.6-2.9c2.3-1.4,3.9-2.2,6.4-2.9c0.3-0.1-0.2-0.5-0.4-0.5C51.2,17.4,44.2,22.5,44.2,22.5z"/>
		</g>
	</g>
	<g id="XMLID_16149_">
		<g id="XMLID_16154_">
			<path id="XMLID_16155_" class="st0" d="M33.4,40.3c0.4,1.1,1.5,3.7,1.9,4.5c0.4,0.9,2.3,2,3.3,2.2c0.1,0,0.2,0,0.4,0
				c0.1,0,0.3,0,0.4-0.1c0.1,0,0.8-0.3,1-0.4c0.1,0,0.2-0.1,0.2-0.1c0.5-0.4,1.2-1.3,1.7-2.1c0.4-0.5,0.5-1.3,0.3-2.1
				c-0.2-0.8-0.6-1.5-1.2-1.9l0,0c0,0-4.1-2.5-4.9-3c-0.3-0.2-0.6-0.2-0.9-0.2c-0.2,0-1.1,0.4-1.2,0.4c-0.1,0-0.3,0.1-0.4,0.2
				C33.3,38.3,33.1,39.4,33.4,40.3z M36.9,44c-0.4-0.8-1.4-3.2-1.8-4.3c-0.1-0.4-0.1-0.9,0-1.2c0.8,0.5,4.7,2.9,4.7,2.9
				c0.9,0.6,1.2,2.2,0.7,2.9c-0.3,0.5-0.8,1.1-1.1,1.5C38.6,45.5,37.2,44.6,36.9,44z"/>
		</g>
		<g id="XMLID_16150_">
			<path id="XMLID_16151_" class="st1" d="M33.4,40.3c0.4,1.1,1.5,3.7,1.9,4.5c0.4,0.9,2.3,2,3.3,2.2c0.1,0,0.2,0,0.4,0
				c0.2,0,0.4,0,0.6-0.2c0.5-0.4,1.2-1.3,1.7-2.1c0.4-0.5,0.5-1.3,0.3-2.1c-0.2-0.8-0.6-1.5-1.2-1.9l0,0c0,0-4.1-2.5-4.9-3
				c-0.5-0.3-1.1-0.3-1.5,0.1C33.3,38.3,33.1,39.4,33.4,40.3z M35.1,38.5c0.7,0.5,4.7,2.9,4.7,2.9c0.9,0.6,1.2,2.2,0.7,2.9
				C40,45,39.4,45.8,39,46.1c-0.4,0.3-2.7-1-3.1-1.7c-0.4-0.8-1.4-3.2-1.8-4.3C33.8,39.2,34.4,38,35.1,38.5z"/>
		</g>
	</g>
</g>
</svg>
