<?xml version="1.0" encoding="utf-8"?>
<!-- Generator: Adobe Illustrator 21.0.0, SVG Export Plug-In . SVG Version: 6.00 Build 0)  -->
<svg version="1.1" id="Layer_1" xmlns="http://www.w3.org/2000/svg" xmlns:xlink="http://www.w3.org/1999/xlink" x="0px" y="0px"
	 viewBox="0 0 80 80" style="enable-background:new 0 0 80 80;" xml:space="preserve">
<style type="text/css">
	.st0{fill:#B7B7B7;}
	.st1{fill:#E5E5E4;}
	.st2{fill:#929191;}
	.st3{fill:#B2B2B2;}
	.st4{fill:#7C7B7B;}
	.st5{fill:#444444;}
	.st6{fill:#1B1E1E;}
	.st7{opacity:0.3;fill:#3D3D3D;}
	.st8{fill:#252828;}
	.st9{opacity:0.3;fill:#424243;}
	.st10{opacity:0.3;fill:#3A3A3A;}
</style>
<g id="XMLID_1_">
	<g id="XMLID_46_">
		<g id="XMLID_51_">
			<path id="XMLID_52_" class="st0" d="M42.4,26.1C42.3,26,42.1,26,42,25.9c-0.2-0.1-1-0.4-1.2-0.5c-0.3,0-0.6,0-0.9,0.2
				c-0.8,0.5-4.9,3-5,3l0,0c-0.6,0.4-1.1,1.1-1.3,1.9c-0.2,0.8,0,1.6,0.3,2.1c0.5,0.8,1.2,1.8,1.7,2.1c0.1,0.1,0.1,0.1,0.2,0.1
				c0.1,0.1,0.9,0.4,1,0.4c0.1,0.1,0.3,0.1,0.4,0.1c0.2,0,0.3,0,0.4,0c1-0.2,2.8-1.3,3.3-2.2c0.4-0.9,1.5-3.5,1.9-4.6
				C43.3,27.7,43,26.6,42.4,26.1z M36.8,34.2c-0.3-0.4-0.8-1-1.1-1.5c-0.5-0.7-0.2-2.3,0.7-2.9c0,0,4-2.4,4.8-2.9
				c0.1,0.3,0.2,0.8,0,1.2c-0.4,1.1-1.4,3.6-1.8,4.4C39,33,37.6,33.9,36.8,34.2z"/>
		</g>
		<g id="XMLID_47_">
			<path id="XMLID_48_" class="st1" d="M42.4,26.1c-0.4-0.4-1-0.4-1.5-0.1c-0.8,0.5-4.9,3-5,3l0,0c-0.6,0.4-1.1,1.1-1.3,1.9
				c-0.2,0.8,0,1.6,0.3,2.1c0.5,0.8,1.2,1.8,1.7,2.1c0.2,0.2,0.4,0.2,0.6,0.2c0.2,0,0.3,0,0.4,0c1-0.2,2.8-1.3,3.3-2.2
				c0.4-0.9,1.5-3.5,1.9-4.6C43.3,27.7,43,26.6,42.4,26.1z M42.1,28.5c-0.4,1.1-1.4,3.6-1.8,4.4c-0.4,0.8-2.7,2.1-3.1,1.8
				c-0.4-0.3-1-1.2-1.5-1.9c-0.5-0.7-0.2-2.3,0.7-2.9c0,0,4.1-2.5,4.8-2.9C41.9,26.3,42.5,27.5,42.1,28.5z"/>
		</g>
	</g>
	<g id="XMLID_36_">
		<path id="XMLID_45_" class="st2" d="M42.4,51.9l6.2,6.2c0,0,0.5,0.4,0.9-0.6L43.7,51l5.5-0.5c0,0,0.5-0.1,0.4-1.2H34.2
			c-0.1,1.2,0.4,1.2,0.4,1.2l5.5,0.5l-5.8,6.6c0.5,1,0.9,0.6,0.9,0.6l6.2-6.2H42.4z"/>
		<polygon id="XMLID_44_" class="st3" points="42.4,50.5 48.6,57.1 49.5,57.5 41.9,48.9 34.4,57.5 35.3,57.1 41.5,50.5 		"/>
		<polygon id="XMLID_43_" class="st3" points="44.2,49.8 49.3,49.6 49.7,49.3 34.2,49.3 34.6,49.6 39.8,49.8 		"/>
		<g id="XMLID_41_">
			<path id="XMLID_42_" class="st3" d="M41.9,50.7c-0.7,0-1.3-0.4-1.3-0.9l0,0c0-0.5,0.6-0.9,1.3-0.9c0.7,0,1.3,0.4,1.3,0.9l0,0
				C43.2,50.3,42.6,50.7,41.9,50.7z"/>
		</g>
		<g id="XMLID_39_">
			<path id="XMLID_40_" class="st2" d="M41.9,50.1c-0.4,0-0.7-0.2-0.7-0.6v-5.9c0-0.4,0.3-0.7,0.7-0.7c0.4,0,0.7,0.3,0.7,0.7v5.9
				C42.6,49.9,42.3,50.1,41.9,50.1z"/>
		</g>
		<g id="XMLID_37_">
			<path id="XMLID_38_" class="st4" d="M41.9,48.8c-0.4,0-0.7-0.2-0.7-0.6v-5.9c0-0.4,0.3-0.7,0.7-0.7c0.4,0,0.7,0.3,0.7,0.7v5.9
				C42.6,48.6,42.3,48.8,41.9,48.8z"/>
		</g>
	</g>
	<g id="XMLID_33_">
		<path id="XMLID_35_" class="st5" d="M57.1,21.5c-0.1,1.4-0.1,3.4-0.1,5.8c0,2.8-0.5,9.7-3,13.6c-2,3-8,5.9-8,5.9
			c-0.7,0.3-1,0.7-1.3,1c-0.3,0.4-0.5,0.8-0.6,1.1c0,0-1.5-4.2,1-8.6c1.6-2.8,7.1-13.7,9.8-18.9c1.3-2.4,2.5-2.2,2.5-2.2
			S57.2,20,57.1,21.5z"/>
		<path id="XMLID_34_" class="st6" d="M57.5,19.1c-1.2,0.5-0.9,3.6-0.9,7.8c0,2.8-0.5,9.7-3,13.6c-2,3-8,5.9-8,5.9
			c-1.8,0.8-1.4,2.3-1.4,2.3l-13.8-8c0,0-0.2-1.5,1.6-2.2c0,0,6.2-2.3,8.4-5.2c2.9-3.7,3.9-10.5,4.1-13.3c0.3-4.2,0.4-7.4,1.6-7.7
			L57.5,19.1z"/>
	</g>
	<g id="XMLID_11_">
		<g id="XMLID_12_">
			<path id="XMLID_32_" class="st7" d="M31.2,38.7l14,7.7c0.2,0.1,0.3,0,0.3,0c0,0,0.1-0.1,0.3-0.1l-14-7.7
				C31.7,38.6,31.5,38.7,31.2,38.7z"/>
			<path id="XMLID_31_" class="st7" d="M34.5,37.2c-0.2,0.1-0.3,0.2-0.5,0.2L47.8,45c0,0,0,0,0.1,0l0.2-0.4L34.5,37.2z"/>
			<path id="XMLID_30_" class="st7" d="M36.5,36.1L50,43.6c0.3,0,0.4-0.1,0.5-0.2L37.1,36C37,36.1,36.8,36.2,36.5,36.1z"/>
			<path id="XMLID_29_" class="st7" d="M38.8,34.6l13.3,7.3c0.2,0,0.4-0.1,0.5-0.2l-13.2-7.3C39.2,34.5,39.1,34.6,38.8,34.6z"/>
			<path id="XMLID_28_" class="st7" d="M40.7,32.7l13.6,7.5c0.1-0.1,0.2-0.3,0.1-0.5l-13.6-7.5C40.9,32.5,40.8,32.6,40.7,32.7z"/>
			<g id="XMLID_14_">
				<path id="XMLID_27_" class="st8" d="M57.5,19.1L46,12.3c-0.8,0.2-1.1,1.6-1.3,3.7l11.8,6.5C56.6,20.7,56.8,19.4,57.5,19.1z"/>
				<path id="XMLID_26_" class="st8" d="M57.5,19.1L46,12.3c-0.4,0.1-0.7,0.6-0.9,1.4l11.7,6.4C56.9,19.6,57.1,19.2,57.5,19.1z"/>
				<path id="XMLID_25_" class="st8" d="M42.2,29.9L55.1,37c0.2-0.8,0.4-1.5,0.6-2.3l-12.7-7C42.8,28.4,42.5,29.1,42.2,29.9z"/>
				<path id="XMLID_24_" class="st8" d="M56.5,23.1l-11.8-6.6c-0.1,0.6-0.1,1.3-0.1,2l12,6.6C56.5,24.4,56.5,23.7,56.5,23.1z"/>
				<path id="XMLID_23_" class="st8" d="M43.1,27.2l12.7,7c0.2-0.9,0.3-1.8,0.4-2.7l-12.5-6.9C43.6,25.4,43.4,26.3,43.1,27.2z"/>
				<path id="XMLID_22_" class="st8" d="M56.5,27c0-0.4,0-0.9,0-1.3l-12-6.7c0,0.3,0,0.7-0.1,1c0,0.3-0.1,0.7-0.1,1.2L56.5,28
					C56.5,27.6,56.5,27.3,56.5,27z"/>
				<path id="XMLID_21_" class="st8" d="M44.2,21.7c-0.1,0.7-0.2,1.5-0.4,2.4L56.3,31c0.1-0.9,0.2-1.8,0.2-2.5L44.2,21.7z"/>
				<path id="XMLID_20_" class="st9" d="M41.9,30.2l12.9,7.1c0.1-0.1,0.1-0.3,0.2-0.5l-12.9-7.1C42,29.9,42,30,41.9,30.2z"/>
				<path id="XMLID_19_" class="st10" d="M42.9,27.5l12.7,7c0.2,0,0.2-0.2,0.2-0.4l-12.7-7C43.1,27.3,43,27.5,42.9,27.5z"/>
				<path id="XMLID_18_" class="st10" d="M43.6,24.5l12.5,6.9c0-0.2,0-0.3,0.1-0.5L43.7,24C43.7,24.1,43.7,24.3,43.6,24.5z"/>
				<path id="XMLID_17_" class="st7" d="M56.4,27.8l-12.2-6.8c0.1,0.3,0.1,0.4,0.1,0.6l12.3,6.8C56.5,28.3,56.5,28.1,56.4,27.8z"/>
				<path id="XMLID_16_" class="st7" d="M56.5,25.1l-12-6.6c0,0.2,0,0.3-0.2,0.4l12,6.7C56.5,25.5,56.5,25.3,56.5,25.1z"/>
				<path id="XMLID_15_" class="st7" d="M56.4,22.4l-11.8-6.5c0,0.2,0,0.3,0,0.5L56.4,23C56.4,22.8,56.4,22.6,56.4,22.4z"/>
			</g>
			<path id="XMLID_13_" class="st7" d="M56.8,19.9l-11.7-6.5c0,0.1-0.1,0.3-0.2,0.3l11.7,6.5C56.8,20.2,56.8,20,56.8,19.9z"/>
		</g>
	</g>
	<g id="XMLID_2_">
		<g id="XMLID_7_">
			<path id="XMLID_8_" class="st0" d="M55.5,35c-0.1-0.1-0.2-0.2-0.4-0.2c-0.2-0.1-1-0.4-1.2-0.5c-0.3,0-0.6,0-0.9,0.2
				c-0.8,0.5-4.9,3-5,3l0,0c-0.6,0.4-1.1,1.1-1.3,1.9c-0.2,0.8,0,1.6,0.3,2.1c0.5,0.8,1.2,1.8,1.7,2.1c0.1,0.1,0.1,0.1,0.2,0.1
				c0.1,0.1,0.9,0.4,1,0.4c0.1,0.1,0.3,0.1,0.4,0.1c0.2,0,0.3,0,0.4,0c1-0.2,2.8-1.3,3.3-2.2c0.4-0.9,1.5-3.5,1.9-4.6
				C56.4,36.5,56.2,35.5,55.5,35z M49.9,43c-0.3-0.4-0.8-1-1.1-1.5c-0.5-0.7-0.2-2.3,0.7-2.9c0,0,4-2.4,4.8-2.9
				c0.1,0.3,0.2,0.8,0,1.2c-0.4,1.1-1.4,3.6-1.8,4.4C52.2,41.8,50.8,42.7,49.9,43z"/>
		</g>
		<g id="XMLID_3_">
			<path id="XMLID_4_" class="st1" d="M55.5,35c-0.4-0.4-1-0.4-1.5-0.1c-0.8,0.5-4.9,3-5,3l0,0c-0.6,0.4-1.1,1.1-1.3,1.9
				c-0.2,0.8,0,1.6,0.3,2.1c0.5,0.8,1.2,1.8,1.7,2.1c0.2,0.2,0.4,0.2,0.6,0.2c0.2,0,0.3,0,0.4,0c1-0.2,2.8-1.3,3.3-2.2
				c0.4-0.9,1.5-3.5,1.9-4.6C56.4,36.5,56.2,35.5,55.5,35z M55.3,37.3c-0.4,1.1-1.4,3.6-1.8,4.4c-0.4,0.8-2.7,2.1-3.1,1.8
				c-0.4-0.3-1-1.2-1.5-1.9c-0.5-0.7-0.2-2.3,0.7-2.9c0,0,4.1-2.5,4.8-2.9C55,35.2,55.6,36.3,55.3,37.3z"/>
		</g>
	</g>
</g>
</svg>
