<?xml version="1.0" encoding="utf-8"?>
<!-- Generator: Adobe Illustrator 21.0.0, SVG Export Plug-In . SVG Version: 6.00 Build 0)  -->
<svg version="1.1" id="Layer_1" xmlns="http://www.w3.org/2000/svg" xmlns:xlink="http://www.w3.org/1999/xlink" x="0px" y="0px"
	 viewBox="0 0 65 65" style="enable-background:new 0 0 65 65;" xml:space="preserve">
<style type="text/css">
	.st0{fill:#FFFFFF;}
</style>
<g>
	<path class="st0" d="M32.6,64.1c-4.4,0-8.6-0.6-12.7-2.1c-4.6-1.6-7-4.6-7.3-9.7c-0.6-8.5-1.7-17-2.5-25.5c-0.1-0.5,0-1-0.1-1.5
		c-0.2-2-0.4-3.9-1.8-5.7c-2.5-3.3-1.5-9.4,1.7-12.1c2.8-2.3,6.1-3.3,9.5-4.1c0.9-0.2,1,0.1,1,1c0,2.1-1.1,2.9-3,3.4
		c-1.6,0.5-3.2,1.2-4.6,2.2c-2.8,1.8-2.9,4.6,0,6.2c2.7,1.5,5.6,2.6,8.6,3.2c8.7,1.8,17.4,1.7,26-0.8c2-0.6,4-1.6,5.7-2.8
		c2.2-1.6,2.2-3.8,0-5.4c-1.8-1.3-4-2.1-6.1-2.9c-1.3-0.6-2.5-2.4-2.1-3.7c0-0.2,0.6-0.4,0.9-0.3c3.6,0.8,7.2,1.9,10,4.5
		c1.6,1.5,2.5,3.3,2.5,5.6c0,2.8,0,5.5-2.2,7.7c-0.4,0.4-0.4,1.1-0.5,1.7c-0.7,6.1-1.3,12.3-1.9,18.4c-0.5,4.4-1,8.9-1.3,13.3
		c-0.2,2.3-1.3,4-3,5.3c-3,2.3-6.6,3.1-10.2,3.6C36.9,63.8,34.8,63.9,32.6,64.1z M22.9,52.7c-0.2-1.8-0.4-4.1-0.7-6.4
		c-0.6-5.8-1.1-11.6-1.8-17.4c-0.1-1.1-1-2.2-1.8-3c-0.4-0.4-1.6-0.5-2.3-0.2c-0.5,0.2-0.8,1.3-0.7,1.9c0.3,3.6,0.6,7.2,1,10.8
		c0.5,5,1,10,1.6,14.9c0.2,1.9,1.6,3,3.1,2.7C23.3,55.9,23,54.5,22.9,52.7z M42.2,54.5c0.1,0.2,0.4,1.3,1,1.4c0.8,0.2,2,0.1,2.5-0.4
		c0.7-0.6,1.2-1.7,1.3-2.7c0.9-8.2,1.8-16.4,2.6-24.6c0.1-0.8-0.4-2.3-0.9-2.5c-0.8-0.2-2,0.2-2.8,0.7c-0.6,0.4-1,1.5-1.1,2.3
		c-0.5,3.7-0.9,7.4-1.2,11.2C43.2,44.6,42.8,49.2,42.2,54.5z M34.9,43c0-4.3,0-8.5,0-12.8c0-1.9-0.6-2.5-2.3-2.5
		c-1.7,0-2.3,0.7-2.3,2.5c0,8.4,0,16.8,0,25.2c0,1.8,0.8,2.8,2.3,2.8c1.5,0,2.3-0.9,2.3-2.8C34.9,51.3,34.9,47.1,34.9,43z"/>
	<path class="st0" d="M41.9,8.3c0,0.6,0,1.2,0,1.8c0.1,1.4-0.7,2-2,2c-1.3,0-2.1-0.5-2.1-2c0-1,0-2,0-3c-0.1-1.3-0.7-2-2.1-2
		c-2,0-4.1,0-6.1,0c-1.4,0-2,0.7-2.1,2c-0.1,1.1,0,2.2-0.1,3.3c-0.1,1.2-0.9,1.8-1.9,1.6c-0.8-0.2-2.1-0.8-2.1-1.3
		c-0.2-2-0.2-4,0.3-5.9c0.6-2.2,2.3-3.7,4.7-3.8C30.9,0.9,33.5,0.9,36,1c3.8,0.2,5.9,2.5,5.9,6.3C41.9,7.6,41.9,8,41.9,8.3z"/>
</g>
</svg>
