<?xml version="1.0" encoding="utf-8"?>
<!-- Generator: Adobe Illustrator 21.0.0, SVG Export Plug-In . SVG Version: 6.00 Build 0)  -->
<svg version="1.1" id="Layer_1" xmlns="http://www.w3.org/2000/svg" xmlns:xlink="http://www.w3.org/1999/xlink" x="0px" y="0px"
	 viewBox="0 0 20 20" style="enable-background:new 0 0 20 20;" xml:space="preserve">
<style type="text/css">
	.st0{fill:#003A4F;stroke:#003A4F;stroke-width:0.5;stroke-miterlimit:10;}
</style>
<g id="Layer_2">
</g>
<g id="circle-cheveron-right">
	<path class="st0" d="M10,0.5c-5.2,0-9.5,4.3-9.5,9.5s4.3,9.5,9.5,9.5s9.5-4.3,9.5-9.5S15.2,0.5,10,0.5z M10,18.8
		c-4.9,0-8.8-4-8.8-8.8c0-4.9,4-8.8,8.8-8.8c4.9,0,8.8,4,8.8,8.8C18.8,14.9,14.9,18.8,10,18.8z"/>
	<path class="st0" d="M9.6,5.7C9.5,5.5,9.3,5.5,9.1,5.6C9,5.7,8.9,5.9,9,6.1l2.6,4L9,14c-0.1,0.2-0.1,0.4,0.1,0.5
		c0.1,0,0.1,0.1,0.2,0.1c0.1,0,0.2-0.1,0.3-0.2l2.7-4.1c0.1-0.1,0.1-0.3,0-0.4L9.6,5.7z"/>
</g>
</svg>
