<?xml version="1.0" encoding="utf-8"?>
<!-- Generator: Adobe Illustrator 21.0.0, SVG Export Plug-In . SVG Version: 6.00 Build 0)  -->
<svg version="1.1" id="Layer_1" xmlns="http://www.w3.org/2000/svg" xmlns:xlink="http://www.w3.org/1999/xlink" x="0px" y="0px"
	 viewBox="0 0 20 20" style="enable-background:new 0 0 20 20;" xml:space="preserve">
<style type="text/css">
	.st0{fill:#FFFFFF;stroke:#FFFFFF;stroke-miterlimit:10;}
</style>
<g id="Layer_2">
</g>
<path class="st0" d="M18.3,10c0,4.3-3.1,7.8-7.4,8.3c-5,0.5-8.6-3.1-9.1-7.5c0-0.2,0-0.4,0.1-0.5c0.2-0.2,0.5,0,0.5,0.3
	c0.3,4,3.8,7.2,7.9,7.1c3.8-0.2,7.1-3.1,7.3-6.9c0.3-3.2-1.1-5.8-3.8-7.4c-2.8-1.7-6.4-1.3-8.9,1C4.5,4.8,4.2,5.1,3.9,5.5
	C3.7,5.7,3.7,5.9,4,5.9C5,6.1,6,6.3,7,6.6c0.1,0,0.1,0,0.2,0.1c0.3,0.1,0.5,0.2,0.5,0.5C7.4,7.4,7.2,7.4,7,7.3
	C5.7,7,4.4,6.6,3.1,6.3C2.9,6.2,2.8,6.2,2.7,5.9C2.4,4.7,2.1,3.5,1.8,2.3C1.8,2.1,1.7,1.8,1.9,1.8c0.4-0.1,0.4,0.2,0.5,0.5
	C2.7,3.1,2.9,4,3.1,5.1c0,0.1,0.1,0.1,0.1,0.2c0.1-0.1,0.1-0.1,0.2-0.2C5,2.9,7.2,1.8,9.8,1.8c3.4,0,5.9,1.5,7.5,4.4
	C18,7.4,18.3,8.7,18.3,10z"/>
</svg>
