<?xml version="1.0" encoding="utf-8"?>
<!-- Generator: Adobe Illustrator 21.0.0, SVG Export Plug-In . SVG Version: 6.00 Build 0)  -->
<svg version="1.1" id="Layer_1" xmlns="http://www.w3.org/2000/svg" xmlns:xlink="http://www.w3.org/1999/xlink" x="0px" y="0px"
	 viewBox="0 0 20 20" style="enable-background:new 0 0 20 20;" xml:space="preserve">
<style type="text/css">
	.st0{fill:#003A4F;stroke:#003A4F;stroke-width:0.5;stroke-miterlimit:10;}
</style>
<g id="Layer_2">
</g>
<g id="horizontal-orbit_1_">
	<path class="st0" d="M0.3,9.7c0,1.5,1.9,2.8,4.8,3.5l-1.7,2.3L4,16L6,13.2c0.1-0.1,0.1-0.2,0-0.3L4.7,9.6L4.1,9.8l1.1,2.7
		C2.6,11.9,1,10.8,1,9.7c0-1.6,3.6-3.4,9-3.4c0,0,0,0,0,0V5.6c0,0,0,0,0,0C4.6,5.6,0.3,7.4,0.3,9.7z"/>
	<path class="st0" d="M14.6,6.1L16,4.4L15.5,4l-1.8,2.2c-0.1,0.1-0.1,0.2-0.1,0.3l0.8,2.8l0.6-0.2l-0.7-2.4C17.3,7.4,19,8.6,19,9.7
		c0,1.6-3.6,3.4-8.9,3.4v0.7c5.4,0,9.6-1.8,9.6-4.1C19.7,8.1,17.7,6.8,14.6,6.1z"/>
</g>
</svg>
