<?xml version="1.0" encoding="utf-8"?>
<!-- Generator: Adobe Illustrator 21.0.0, SVG Export Plug-In . SVG Version: 6.00 Build 0)  -->
<svg version="1.1" id="Layer_1" xmlns="http://www.w3.org/2000/svg" xmlns:xlink="http://www.w3.org/1999/xlink" x="0px" y="0px"
	 viewBox="0 0 20 20" style="enable-background:new 0 0 20 20;" xml:space="preserve">
<style type="text/css">
	.st0{fill:#FFFFFF;stroke:#FFFFFF;stroke-width:0.7;stroke-miterlimit:10;}
</style>
<g id="Layer_2">
</g>
<g id="download-photo">
	<path class="st0" d="M16.1,2.3h-2.3c-0.2-0.3-1.5-1.7-2.4-1.7H8.6C7.7,0.6,6.4,2,6.2,2.3H3.9C2.9,2.3,2.2,3,2.2,4v5.9
		c0,1,0.8,1.7,1.7,1.7h5.7V18l-1.7-1.7l-0.5,0.5l2.6,2.6l2.6-2.6l-0.5-0.5l-1.7,1.7v-6.4h5.8c1,0,1.7-0.8,1.7-1.7V4
		C17.8,3,17.1,2.3,16.1,2.3z M17.1,9.9c0,0.6-0.5,1-1,1H3.9c-0.6,0-1-0.5-1-1V4c0-0.6,0.5-1,1-1h2.6l0.2-0.2
		c0.8-0.9,1.6-1.5,1.9-1.5h2.8c0.3,0,1.1,0.6,1.9,1.5L13.5,3h2.6c0.6,0,1,0.5,1,1V9.9z"/>
	<path class="st0" d="M10,3.9c-1.6,0-2.9,1.3-2.9,2.9c0,1.6,1.3,2.9,2.9,2.9c1.6,0,2.9-1.3,2.9-2.9C12.9,5.2,11.6,3.9,10,3.9z M10,9
		C8.8,9,7.8,8,7.8,6.8c0-1.2,1-2.2,2.2-2.2s2.2,1,2.2,2.2C12.2,8,11.2,9,10,9z"/>
</g>
</svg>
