<?xml version="1.0" encoding="utf-8"?>
<!-- Generator: Adobe Illustrator 20.1.0, SVG Export Plug-In . SVG Version: 6.00 Build 0)  -->
<svg version="1.1" id="Layer_1" xmlns="http://www.w3.org/2000/svg" xmlns:xlink="http://www.w3.org/1999/xlink" x="0px" y="0px"
	 viewBox="0 0 100 100" style="enable-background:new 0 0 100 100;" xml:space="preserve">
<style type="text/css">
	.st0{fill:#DDDDDC;}
	.st1{opacity:0.3;fill:#E8E7E7;}
	.st2{fill:#CECDCC;}
	.st3{opacity:0.2;fill:#CECDCC;}
	.st4{fill:#FFFFFF;}
	.st5{fill:#EFEFEF;}
	.st6{fill:#D7DDDD;}
	.st7{fill:#95D2DE;}
	.st8{fill:#A0DBEB;}
	.st9{fill:#A9DEEB;}
	.st10{opacity:0.7;fill:#92D5E0;}
	.st11{fill:#79CFE2;}
	.st12{fill:#A0DBEA;}
	.st13{fill:#92D5E0;}
	.st14{fill:#54A2B4;}
	.st15{fill:#6BBCD6;}
	.st16{fill:#9C9C9C;}
	.st17{fill:#B2B2B2;}
	.st18{fill:#BBBBBB;}
	.st19{opacity:0.2;fill:#BBBBBB;}
	.st20{fill:#777778;}
	.st21{fill:#686A6A;}
	.st22{fill:#E8E7E7;}
	.st23{fill:#B6504F;}
	.st24{fill:#CC5A5B;}
	.st25{fill:#EBECEC;}
	.st26{fill:#4A72B7;}
	.st27{fill:#5982C2;}
	.st28{fill:#C7C7C7;}
	.st29{fill:#D7D5DC;}
	.st30{opacity:0.8;fill:#D7D5DC;}
	.st31{fill:#C5C6D4;}
	.st32{fill:#C6C6CB;}
	.st33{opacity:0.3;fill:#C6C6CB;}
	.st34{fill:#9ED2DE;}
	.st35{opacity:0.6;fill:#9ED2DE;}
	.st36{fill:#AFDFE8;}
</style>
<g>
	<g id="XMLID_235_">
		<g id="XMLID_391_">
			<path id="XMLID_393_" class="st0" d="M59.3,42.1c0-0.4-0.2-0.9-0.6-1.1l-7.2-4.2c-0.9-0.5-2.1-0.5-3,0L41.3,41
				c-0.4,0.2-0.6,0.6-0.6,1c0,0.4,0,25.1,0,25.4c0,0.5,0.2,0.9,0.6,1.2l7.2,4.2c0.9,0.5,2.1,0.5,3,0l7.2-4.2c0.4-0.2,0.6-0.6,0.6-1
				C59.3,67.2,59.3,42.5,59.3,42.1z"/>
			<path id="XMLID_16301_" class="st1" d="M48.5,72.8c0.9,0.5,2.1,0.5,3,0l7.2-4.2c0.4-0.2,0.6-0.6,0.6-1c0-0.5,0-25.1,0-25.6
				c0-0.4-0.2-0.9-0.6-1.1l-7.2-4.2c-0.9-0.5-2.1-0.5-3,0L41.3,41c-0.4,0.2-0.6,0.6-0.6,1"/>
			<path class="st2" d="M50.1,73.2c0.5,0,0.9-0.2,1.4-0.4l7.2-4.2c0.4-0.2,0.6-0.6,0.6-1c0-0.5,0-25.1,0-25.6c0-0.4-0.2-0.9-0.6-1.1
				l-7.2-4.2c0,0,0,0,0,0h-1.3V73.2z"/>
			<path class="st3" d="M59.3,42.1c0-0.4-0.2-0.9-0.6-1.1l-7.2-4.2c0,0,0,0,0,0h-1.3v36.4c0.5,0,0.9-0.2,1.4-0.4"/>
			<path id="XMLID_392_" class="st4" d="M51.5,36.9l7.2,4.2c0.8,0.5,0.8,1.7,0,2.2l-7.2,4.2c-0.9,0.5-2.1,0.5-3,0l-7.2-4.2
				c-0.8-0.5-0.8-1.7,0-2.2l7.2-4.2C49.4,36.3,50.6,36.3,51.5,36.9z"/>
			<path id="XMLID_16300_" class="st5" d="M58.7,41c0.8,0.5,0.8,1.7,0,2.2l-7.2,4.2c-0.9,0.5-2.1,0.5-3,0l-7.2-4.2
				c-0.8-0.5-0.8-1.7,0-2.2"/>
			<path class="st3" d="M45.8,45.8l2.6,1.5c0.9,0.5,2.1,0.5,3,0l3-1.7v-4.4h-8.6V45.8z"/>
			<path class="st6" d="M58.7,42.7l-7.2,4.2c-0.9,0.5-2.1,0.5-3,0l-7.2-4.2c-0.3-0.2-0.5-0.5-0.6-0.9c-0.1,0.5,0.1,1,0.6,1.3
				l7.2,4.2c0.9,0.5,2.1,0.5,3,0l7.2-4.2c0.5-0.3,0.7-0.8,0.6-1.3C59.2,42.2,59,42.5,58.7,42.7z"/>
		</g>
		<g id="XMLID_4704_">
			<g id="XMLID_4706_">
				<path id="XMLID_4707_" class="st7" d="M54.5,39.7c0-0.8-0.5-1.5-1.5-2.1h0c-1.2-0.7-2.8-0.9-4.3-0.6l0,0
					c-1.8,0.4-2.9,1.6-2.9,2.7c0,0.8,0,1.1,0,1.1c0,0.8,0.5,1.6,1.5,2.2h0c1.2,0.7,2.8,0.9,4.3,0.6h0c1.8-0.4,2.8-1.5,2.9-2.7V39.7z
					"/>
			</g>
			<g id="XMLID_347_">
				<g id="XMLID_388_">
					<path id="XMLID_390_" class="st8" d="M53.7,36.1L53.7,36.1c3.2,1.9,2.2,5.4-1.8,6.3l0,0c-1.8,0.4-3.9,0.2-5.4-0.7h0
						c-3.2-1.9-2.2-5.4,1.8-6.3l0,0C50.2,35,52.2,35.2,53.7,36.1z"/>
					<path id="XMLID_389_" class="st9" d="M53.7,36.1L53.7,36.1c3.2,1.9,2.2,5.4-1.8,6.3l0,0c-1.8,0.4-3.9,0.2-5.4-0.7h0
						c-3.2-1.9-2.2-5.4,1.8-6.3l0,0C50.2,35,52.2,35.2,53.7,36.1z"/>
				</g>
				<path id="XMLID_387_" class="st7" d="M55.1,36.8c0.1-1-0.5-2-1.7-2.7l0,0c-1.4-0.8-3.2-1.1-4.9-0.7l0,0c-2.3,0.5-3.5,2-3.4,3.4
					c0,0.2,0,1,0,1.2c0.1,0.9,0.6,1.8,1.7,2.4l0,0c1.4,0.8,3.2,1.1,4.9,0.7l0,0c2.1-0.5,3.2-1.7,3.4-3C55.1,37.9,55.1,37,55.1,36.8z
					"/>
				<g id="XMLID_380_">
					<path id="XMLID_386_" class="st9" d="M53.7,33L53.7,33c3.2,1.9,2.2,5.4-1.8,6.3l0,0c-1.8,0.4-3.9,0.2-5.4-0.7h0
						c-3.2-1.9-2.2-5.4,1.8-6.3l0,0C50.2,31.9,52.2,32.1,53.7,33z"/>
				</g>
				<path id="XMLID_370_" class="st7" d="M55.1,32.3c0.1-1-0.5-2-1.7-2.7v0c-1.4-0.8-3.2-1.1-4.9-0.7l0,0c-2.3,0.5-3.5,2-3.4,3.4
					c0,0.2,0,2.3,0,2.5c0.1,0.9,0.6,1.8,1.7,2.4l0,0c1.4,0.8,3.2,1.1,4.9,0.7l0,0c2.1-0.5,3.2-1.7,3.4-3
					C55.1,34.7,55.1,32.5,55.1,32.3z"/>
				<path class="st10" d="M55.1,34.3c0-0.5,0-1.2,0-1.6c0.2-0.3,0.3-0.7,0.4-1c0-0.3,0.1-0.8,0-1.1c0-1-0.6-2.1-1.9-2.9h0
					c-1.5-0.9-3.5-1.1-5.4-0.7c-0.1,0-0.2,0-0.2,0.1v16.3c1.1,0.4,2.3,0.5,3.5,0.2h0c1.7-0.4,2.7-1.3,2.9-2.4
					c1.2-1.1,1.5-2.5,0.7-3.8c0,0,0-0.1,0-0.1C55.7,36.4,55.7,35.3,55.1,34.3z"/>
				<path class="st10" d="M50.2,43.8c0.5,0,0.9-0.1,1.4-0.2h0c1.7-0.4,2.7-1.3,2.9-2.4c1.2-1.1,1.5-2.5,0.7-3.8c0,0,0-0.1,0-0.1
					c0.6-0.9,0.6-2,0-3c0-0.5,0-1.2,0-1.6c0.2-0.3,0.3-0.7,0.4-1c0-0.3,0.1-0.8,0-1.1c0-1-0.5-1.9-1.6-2.7h-3.8V43.8z"/>
				<g id="XMLID_348_">
					<path id="XMLID_369_" class="st11" d="M53.7,27.8L53.7,27.8c-1.5-0.9-3.5-1.1-5.4-0.7v0c-2.2,0.5-3.5,1.8-3.7,3.2
						c0,0.3,0,0.9,0,1.1c0.1,0.9,0.7,1.9,1.9,2.6v0c1.5,0.9,3.5,1.1,5.4,0.7l0,0c2.1-0.5,3.4-1.7,3.6-3c0.1-0.3,0.1-1.1,0-1.3
						C55.5,29.4,54.9,28.5,53.7,27.8z"/>
					<path id="XMLID_368_" class="st12" d="M53.7,27.7L53.7,27.7c3.2,1.9,2.2,5.4-1.8,6.3l0,0c-1.8,0.4-3.9,0.2-5.4-0.7l0,0
						c-3.2-1.9-2.2-5.4,1.8-6.3l0,0C50.2,26.6,52.2,26.8,53.7,27.7z"/>
					<path id="XMLID_367_" class="st13" d="M52.4,28L52.4,28c2,1.2,1.4,3.4-1.1,4l0,0c-1.2,0.3-2.5,0.1-3.4-0.5h0
						c-2-1.2-1.4-3.4,1.1-4h0C50.1,27.3,51.4,27.4,52.4,28z"/>
					<path id="XMLID_363_" class="st14" d="M52.2,28.2L52.2,28.2c1.9,1.1,1.3,3.2-1.1,3.8l0,0c-1.1,0.3-2.3,0.1-3.2-0.4l0,0
						c-1.9-1.1-1.3-3.2,1.1-3.8l0,0C50.1,27.5,51.4,27.7,52.2,28.2z"/>
					<path id="XMLID_360_" class="st15" d="M51.8,28.8L51.8,28.8c1.5,0.9,1.1,2.6-0.9,3l0,0c-0.9,0.2-1.9,0.1-2.6-0.3v0
						c-1.5-0.9-1.1-2.6,0.9-3l0,0C50.1,28.2,51.1,28.3,51.8,28.8z"/>
					<path id="XMLID_16303_" class="st10" d="M51.8,28.8L51.8,28.8c1.5,0.9,1.1,2.6-0.9,3l0,0c-0.9,0.2-1.9,0.1-2.6-0.3v0"/>
				</g>
			</g>
		</g>
		<g id="XMLID_245_">
			<g id="XMLID_246_">
				<polygon id="XMLID_340_" class="st2" points="43.6,47.8 42,46.9 42,56.3 43.6,55.3 				"/>
				<polyline id="XMLID_16304_" class="st3" points="43.6,55.3 43.6,47.8 42,46.9 				"/>
				<polygon id="XMLID_338_" class="st16" points="48.1,57.9 43.6,55.3 42,56.3 48.1,59.7 				"/>
				<polygon id="XMLID_337_" class="st17" points="48.1,58.1 43.7,55.5 42.4,56.3 48.1,59.5 				"/>
				<polygon id="XMLID_336_" class="st18" points="43.6,47.8 43.6,55.3 48.1,57.9 48.1,50.4 				"/>
				<polyline id="XMLID_16305_" class="st19" points="48.1,50.4 43.6,47.8 43.6,55.3 				"/>
				<g id="XMLID_268_">
					<g id="XMLID_288_">
						<g id="XMLID_332_">
							<path id="XMLID_335_" class="st20" d="M42.7,56.3L42.7,56.3l1.1-0.6l0.1,0.1l0,0l-0.2-0.1L42.7,56.3L42.7,56.3
								C42.7,56.3,42.7,56.3,42.7,56.3C42.7,56.3,42.7,56.3,42.7,56.3z"/>
							<path id="XMLID_334_" class="st21" d="M42.7,56.4L42.7,56.4C42.8,56.4,42.8,56.4,42.7,56.4C42.8,56.4,42.8,56.4,42.7,56.4
								l1.1-0.6l-0.1-0.1L42.7,56.4L42.7,56.4C42.7,56.3,42.7,56.3,42.7,56.4C42.7,56.4,42.7,56.4,42.7,56.4z"/>
						</g>
						<g id="XMLID_329_">
							<path id="XMLID_331_" class="st20" d="M43,56.5L43,56.5l1.1-0.6l0.1,0.1l0,0l-0.2-0.1L43,56.5L43,56.5
								C43,56.5,43,56.5,43,56.5C43,56.5,43,56.5,43,56.5z"/>
							<path id="XMLID_330_" class="st21" d="M43,56.6L43,56.6C43.1,56.6,43.1,56.6,43,56.6C43.1,56.6,43.1,56.6,43,56.6l1.1-0.6
								l-0.1-0.1L43,56.6L43,56.6C43,56.5,43,56.5,43,56.6C43,56.5,43,56.6,43,56.6z"/>
						</g>
						<g id="XMLID_316_">
							<path id="XMLID_328_" class="st20" d="M43.3,56.7L43.3,56.7l1.1-0.6l0.1,0.1l0,0L44.4,56L43.3,56.7L43.3,56.7
								C43.3,56.6,43.3,56.7,43.3,56.7C43.3,56.7,43.3,56.7,43.3,56.7z"/>
							<path id="XMLID_327_" class="st21" d="M43.3,56.7L43.3,56.7C43.4,56.8,43.4,56.7,43.3,56.7C43.4,56.7,43.4,56.7,43.3,56.7
								l1.1-0.6l-0.1-0.1L43.3,56.7L43.3,56.7C43.3,56.7,43.3,56.7,43.3,56.7C43.3,56.7,43.3,56.7,43.3,56.7z"/>
						</g>
						<g id="XMLID_310_">
							<path id="XMLID_315_" class="st20" d="M43.6,56.8L43.6,56.8l1.1-0.6l0.1,0.1l0,0l-0.2-0.1L43.6,56.8L43.6,56.8
								C43.6,56.8,43.6,56.9,43.6,56.8C43.6,56.9,43.6,56.9,43.6,56.8z"/>
							<path id="XMLID_314_" class="st21" d="M43.6,56.9L43.6,56.9C43.7,56.9,43.7,56.9,43.6,56.9C43.7,56.9,43.7,56.9,43.6,56.9
								l1.1-0.6l-0.1-0.1L43.6,56.9L43.6,56.9C43.6,56.9,43.6,56.9,43.6,56.9C43.6,56.9,43.6,56.9,43.6,56.9z"/>
						</g>
						<g id="XMLID_307_">
							<path id="XMLID_309_" class="st20" d="M43.9,57L43.9,57l1.1-0.6l0.1,0.1l0,0L45,56.4L43.9,57L43.9,57
								C43.9,57,43.9,57,43.9,57C43.9,57,43.9,57,43.9,57z"/>
							<path id="XMLID_308_" class="st21" d="M43.9,57.1L43.9,57.1C44,57.1,44,57.1,43.9,57.1C44,57.1,44,57.1,43.9,57.1l1.1-0.6
								L45,56.4L43.9,57.1L43.9,57.1C43.9,57,43.9,57,43.9,57.1C43.9,57.1,43.9,57.1,43.9,57.1z"/>
						</g>
						<g id="XMLID_304_">
							<path id="XMLID_306_" class="st20" d="M44.2,57.2L44.2,57.2l1.1-0.6l0.1,0.1l0,0l-0.2-0.1L44.2,57.2L44.2,57.2
								C44.2,57.2,44.2,57.2,44.2,57.2C44.2,57.2,44.2,57.2,44.2,57.2z"/>
							<path id="XMLID_305_" class="st21" d="M44.2,57.3L44.2,57.3C44.3,57.3,44.3,57.3,44.2,57.3C44.3,57.2,44.3,57.2,44.2,57.3
								l1.1-0.6l-0.1-0.1L44.2,57.3L44.2,57.3C44.2,57.2,44.2,57.2,44.2,57.3C44.2,57.2,44.2,57.3,44.2,57.3z"/>
						</g>
						<g id="XMLID_301_">
							<path id="XMLID_303_" class="st20" d="M44.5,57.4L44.5,57.4l1.1-0.6l0.1,0.1l0,0l-0.2-0.1L44.5,57.4L44.5,57.4
								C44.5,57.3,44.5,57.4,44.5,57.4C44.5,57.4,44.5,57.4,44.5,57.4z"/>
							<path id="XMLID_302_" class="st21" d="M44.5,57.4L44.5,57.4C44.6,57.4,44.6,57.4,44.5,57.4C44.6,57.4,44.6,57.4,44.5,57.4
								l1.1-0.6l-0.1-0.1L44.5,57.4L44.5,57.4C44.5,57.4,44.5,57.4,44.5,57.4C44.5,57.4,44.5,57.4,44.5,57.4z"/>
						</g>
						<g id="XMLID_298_">
							<path id="XMLID_300_" class="st20" d="M44.8,57.5L44.8,57.5l1.1-0.6L46,57l0,0l-0.2-0.1L44.8,57.5L44.8,57.5
								C44.8,57.5,44.8,57.5,44.8,57.5C44.8,57.6,44.8,57.5,44.8,57.5z"/>
							<path id="XMLID_299_" class="st21" d="M44.8,57.6L44.8,57.6C44.9,57.6,44.9,57.6,44.8,57.6C44.9,57.6,44.9,57.6,44.8,57.6
								L46,57l-0.1-0.1L44.8,57.6L44.8,57.6C44.8,57.5,44.8,57.6,44.8,57.6C44.8,57.6,44.8,57.6,44.8,57.6z"/>
						</g>
						<g id="XMLID_295_">
							<path id="XMLID_297_" class="st20" d="M45.1,57.7L45.1,57.7l1.1-0.6l0.1,0.1l0,0l-0.1-0.1L45.1,57.7L45.1,57.7
								C45.1,57.7,45.1,57.7,45.1,57.7C45.1,57.7,45.1,57.7,45.1,57.7z"/>
							<path id="XMLID_296_" class="st21" d="M45.1,57.8L45.1,57.8C45.2,57.8,45.2,57.8,45.1,57.8C45.2,57.8,45.2,57.8,45.1,57.8
								l1.1-0.6l-0.1-0.1L45.1,57.8L45.1,57.8C45.1,57.7,45.1,57.7,45.1,57.8C45.1,57.8,45.1,57.8,45.1,57.8z"/>
						</g>
						<g id="XMLID_292_">
							<path id="XMLID_294_" class="st20" d="M45.4,57.9L45.4,57.9l1.1-0.6l0.1,0.1l0,0l-0.2-0.1L45.4,57.9L45.4,57.9
								C45.4,57.9,45.4,57.9,45.4,57.9C45.4,57.9,45.4,57.9,45.4,57.9z"/>
							<path id="XMLID_293_" class="st21" d="M45.4,58L45.4,58C45.5,58,45.5,58,45.4,58C45.5,57.9,45.5,57.9,45.4,58l1.1-0.6
								l-0.1-0.1L45.4,58L45.4,58C45.4,57.9,45.4,57.9,45.4,58C45.4,57.9,45.4,57.9,45.4,58z"/>
						</g>
						<g id="XMLID_289_">
							<path id="XMLID_291_" class="st20" d="M45.7,58.1L45.7,58.1l1.1-0.6l0.1,0.1l0,0l-0.2-0.1L45.7,58.1L45.7,58.1
								C45.7,58,45.7,58.1,45.7,58.1C45.7,58.1,45.7,58.1,45.7,58.1z"/>
							<path id="XMLID_290_" class="st21" d="M45.7,58.1L45.7,58.1C45.8,58.1,45.8,58.1,45.7,58.1C45.8,58.1,45.8,58.1,45.7,58.1
								l1.1-0.6l-0.1-0.1L45.7,58.1L45.7,58.1C45.7,58.1,45.7,58.1,45.7,58.1C45.7,58.1,45.7,58.1,45.7,58.1z"/>
						</g>
					</g>
					<g id="XMLID_269_">
						<g id="XMLID_285_">
							<path id="XMLID_287_" class="st20" d="M46,58.2L46,58.2l1.1-0.6l0.1,0.1l0,0l-0.2-0.1L46,58.2L46,58.2
								C46,58.2,46,58.2,46,58.2C46,58.3,46,58.2,46,58.2z"/>
							<path id="XMLID_286_" class="st21" d="M46,58.3L46,58.3C46.1,58.3,46.1,58.3,46,58.3C46.1,58.3,46.1,58.3,46,58.3l1.1-0.6
								l-0.1-0.1L46,58.3L46,58.3C46,58.2,46,58.3,46,58.3C46,58.3,46,58.3,46,58.3z"/>
						</g>
						<g id="XMLID_282_">
							<path id="XMLID_284_" class="st20" d="M46.3,58.4L46.3,58.4l1.1-0.6l0.1,0.1l0,0l-0.2-0.1L46.3,58.4L46.3,58.4
								C46.3,58.4,46.3,58.4,46.3,58.4C46.3,58.4,46.3,58.4,46.3,58.4z"/>
							<path id="XMLID_283_" class="st21" d="M46.3,58.5L46.3,58.5C46.4,58.5,46.4,58.5,46.3,58.5C46.4,58.5,46.4,58.5,46.3,58.5
								l1.1-0.6l-0.1-0.1L46.3,58.5L46.3,58.5C46.3,58.4,46.3,58.4,46.3,58.5C46.3,58.5,46.3,58.5,46.3,58.5z"/>
						</g>
						<g id="XMLID_279_">
							<path id="XMLID_281_" class="st20" d="M46.6,58.6L46.6,58.6l1.1-0.6l0.1,0.1l0,0l-0.2-0.1L46.6,58.6L46.6,58.6
								C46.6,58.6,46.6,58.6,46.6,58.6C46.6,58.6,46.6,58.6,46.6,58.6z"/>
							<path id="XMLID_280_" class="st21" d="M46.6,58.6L46.6,58.6C46.7,58.7,46.7,58.7,46.6,58.6C46.7,58.6,46.7,58.6,46.6,58.6
								l1.1-0.6L47.7,58L46.6,58.6L46.6,58.6C46.6,58.6,46.6,58.6,46.6,58.6C46.6,58.6,46.6,58.6,46.6,58.6z"/>
						</g>
						<g id="XMLID_270_">
							<path id="XMLID_278_" class="st20" d="M46.9,58.8L46.9,58.8l1.1-0.6l0.1,0.1v0L48,58.1L46.9,58.8L46.9,58.8
								C46.9,58.7,46.9,58.8,46.9,58.8C46.9,58.8,46.9,58.8,46.9,58.8z"/>
							<path id="XMLID_277_" class="st21" d="M48,58.1l-1.1,0.6l0,0c0,0,0,0,0,0c0,0,0,0,0.1,0c0,0,0.1,0,0.1,0c0,0,0,0,0,0L48,58.1
								L48,58.1L48,58.1z"/>
							<path id="XMLID_276_" class="st20" d="M47.2,58.9L47.2,58.9l0.9-0.5v0L47.2,58.9L47.2,58.9C47.2,58.9,47.2,58.9,47.2,58.9
								C47.2,58.9,47.2,58.9,47.2,58.9z"/>
							<path id="XMLID_275_" class="st21" d="M47.2,58.9L47.2,58.9C47.2,58.9,47.2,58.9,47.2,58.9C47.2,59,47.2,59,47.2,58.9
								c0.1,0.1,0.1,0.1,0.1,0.1c0,0,0,0,0,0l0.7-0.4v-0.1L47.2,58.9z"/>
							<path id="XMLID_274_" class="st20" d="M47.5,59.1L47.5,59.1l0.6-0.3v0L47.5,59.1L47.5,59.1C47.5,59.1,47.5,59.1,47.5,59.1
								C47.5,59.1,47.5,59.1,47.5,59.1z"/>
							<path id="XMLID_273_" class="st21" d="M47.5,59.1L47.5,59.1C47.5,59.1,47.5,59.1,47.5,59.1C47.5,59.1,47.5,59.2,47.5,59.1
								c0.1,0.1,0.1,0.1,0.1,0.1c0,0,0,0,0,0l0.4-0.2v-0.1L47.5,59.1z"/>
							<path id="XMLID_272_" class="st20" d="M47.8,59.3L47.8,59.3l0.3-0.1v0L47.8,59.3L47.8,59.3C47.8,59.2,47.8,59.3,47.8,59.3
								C47.8,59.3,47.8,59.3,47.8,59.3z"/>
							<path id="XMLID_271_" class="st21" d="M47.8,59.3L47.8,59.3C47.8,59.3,47.8,59.3,47.8,59.3C47.8,59.3,47.8,59.3,47.8,59.3
								c0.1,0.1,0.1,0.1,0.1,0.1c0,0,0,0,0,0l0.1-0.1v-0.1L47.8,59.3z"/>
						</g>
					</g>
				</g>
				<g id="XMLID_247_">
					<g id="XMLID_258_">
						<g id="XMLID_266_">
							<path id="XMLID_267_" class="st5" d="M45.7,50.8c0.1,0,0.1-0.1,0.1-0.2l0,0c0-0.1-0.1-0.3-0.1-0.4l0,0
								c-0.1-0.1-0.2-0.2-0.3-0.1c-0.1,0-1.3,0.8-1.4,0.8c-0.1,0-0.1,0.1-0.1,0.2l0,0c0,0.1,0.1,0.3,0.1,0.4l0,0
								c0.1,0.1,0.2,0.1,0.3,0.1C44.4,51.6,45.7,50.9,45.7,50.8z"/>
						</g>
						<path class="st4" d="M45.3,50.2c-0.1,0-1.3,0.8-1.4,0.8c0,0,0,0-0.1,0.1c0,0.1,0.1,0.1,0.1,0.1c0.1,0.1,0.2,0.1,0.3,0.1
							c0.1,0,1.4-0.8,1.4-0.8c0,0,0,0,0.1,0c0-0.1-0.1-0.1-0.1-0.1C45.6,50.2,45.4,50.1,45.3,50.2z"/>
						<g id="XMLID_264_">
							<path id="XMLID_265_" class="st5" d="M44.1,51.4c0-0.1,0-0.1-0.1-0.1l0,0c-0.1,0-0.2-0.1-0.3,0h0c-0.1,0-0.2,0.1-0.2,0.2
								c0,0.1,0,0.7,0,0.7c0,0.1,0,0.1,0.1,0.1l0,0c0.1,0,0.2,0.1,0.3,0l0,0c0.1,0,0.2-0.1,0.2-0.2C44.1,52,44.1,51.4,44.1,51.4z"/>
						</g>
						<g id="XMLID_262_">
							<path id="XMLID_263_" class="st22" d="M44.4,50.2c0-0.1-0.1-0.2-0.2-0.3l0,0c-0.2-0.1-0.4-0.1-0.6-0.1l0,0
								c-0.2,0.1-0.4,0.2-0.4,0.4c0,0.1,0,1.3,0,1.5c0,0.1,0.1,0.2,0.2,0.3l0,0c0.2,0.1,0.4,0.1,0.6,0.1l0,0
								c0.2-0.1,0.4-0.2,0.4-0.3C44.4,51.6,44.4,50.3,44.4,50.2z"/>
						</g>
						<g id="XMLID_259_">
							<path id="XMLID_261_" class="st23" d="M44.5,50c0,0,0-0.1-0.1-0.1l-0.3-0.2c-0.1-0.1-0.2-0.1-0.3,0L42.9,50
								c0,0-0.1,0.1-0.1,0.1c0,0,0,0.2,0,0.2c0,0,0,0.1,0.1,0.1l0.5,0.3c0.1,0.1,0.2,0.1,0.3,0l0.7-0.5c0,0,0.1-0.1,0.1-0.1
								C44.5,50.1,44.5,50,44.5,50z"/>
							<path id="XMLID_260_" class="st24" d="M44.1,49.7l0.3,0.2c0.1,0.1,0.1,0.2,0,0.2l-0.7,0.5c-0.1,0.1-0.2,0.1-0.3,0l-0.5-0.3
								c-0.1-0.1-0.1-0.2,0-0.2l0.9-0.4C43.9,49.6,44,49.6,44.1,49.7z"/>
						</g>
					</g>
					<g id="XMLID_248_">
						<g id="XMLID_256_">
							<path id="XMLID_257_" class="st5" d="M47.9,52.1c0.1,0,0.1-0.1,0.1-0.2l0,0c0-0.1-0.1-0.3-0.1-0.4h0
								c-0.1-0.1-0.2-0.2-0.3-0.1c-0.1,0-1.3,0.8-1.4,0.8c-0.1,0-0.1,0.1-0.1,0.2l0,0c0,0.1,0.1,0.3,0.1,0.4l0,0
								c0.1,0.1,0.2,0.1,0.3,0.1C46.5,52.9,47.8,52.1,47.9,52.1z"/>
						</g>
						<path class="st4" d="M47.5,51.4c-0.1,0-1.3,0.8-1.4,0.8c0,0,0,0-0.1,0.1c0,0.1,0.1,0.1,0.1,0.1c0.1,0.1,0.2,0.1,0.3,0.1
							c0.1,0,1.4-0.8,1.4-0.8c0,0,0,0,0.1,0c0-0.1-0.1-0.1-0.1-0.1h0C47.7,51.4,47.6,51.4,47.5,51.4z"/>
						<g id="XMLID_254_">
							<path id="XMLID_255_" class="st25" d="M46.3,52.6c0-0.1,0-0.1-0.1-0.1l0,0c-0.1,0-0.2-0.1-0.3,0l0,0c-0.1,0-0.2,0.1-0.2,0.2
								c0,0.1,0,0.7,0,0.7c0,0.1,0,0.1,0.1,0.1l0,0c0.1,0,0.2,0.1,0.3,0l0,0c0.1,0,0.2-0.1,0.2-0.2C46.3,53.3,46.3,52.6,46.3,52.6z"
								/>
						</g>
						<g id="XMLID_252_">
							<path id="XMLID_253_" class="st22" d="M46.6,51.5c0-0.1-0.1-0.2-0.2-0.3l0,0c-0.2-0.1-0.4-0.1-0.6-0.1l0,0
								c-0.2,0.1-0.4,0.2-0.4,0.4c0,0.1,0,1.3,0,1.5c0,0.1,0.1,0.2,0.2,0.3l0,0c0.2,0.1,0.4,0.1,0.6,0.1l0,0
								c0.2-0.1,0.4-0.2,0.4-0.3C46.6,52.8,46.6,51.6,46.6,51.5z"/>
						</g>
						<g id="XMLID_249_">
							<path id="XMLID_251_" class="st26" d="M46.7,51.2c0,0,0-0.1-0.1-0.1l-0.3-0.2c-0.1-0.1-0.2-0.1-0.3,0L45,51.3
								c0,0-0.1,0.1-0.1,0.1c0,0,0,0.2,0,0.2c0,0,0,0.1,0.1,0.1l0.5,0.3c0.1,0.1,0.2,0.1,0.3,0l0.7-0.5c0,0,0.1-0.1,0.1-0.1
								C46.7,51.3,46.7,51.3,46.7,51.2z"/>
							<path id="XMLID_250_" class="st27" d="M46.3,50.9l0.3,0.2c0.1,0.1,0.1,0.2,0,0.2l-0.7,0.5c-0.1,0.1-0.2,0.1-0.3,0L45,51.5
								c-0.1-0.1-0.1-0.2,0-0.2l0.9-0.4C46,50.8,46.2,50.8,46.3,50.9z"/>
						</g>
					</g>
				</g>
			</g>
		</g>
		<g id="XMLID_236_">
			<polygon id="XMLID_244_" class="st18" points="42,58.5 42,66.8 48.1,70.3 48.1,62 			"/>
			<g id="XMLID_237_">
				<polygon id="XMLID_243_" class="st22" points="42.3,58.9 42.3,66.6 47.8,69.8 47.8,62.1 				"/>
				<polyline id="XMLID_16302_" class="st1" points="47.8,69.8 47.8,62.1 42.3,58.9 				"/>
				<polygon id="XMLID_242_" class="st18" points="42.2,59.6 42.2,66.1 42.4,66.2 42.4,59.7 				"/>
				<g id="XMLID_238_">
					<polygon id="XMLID_241_" class="st17" points="47.5,65.9 47.5,65.5 47.2,65.7 47.2,66.1 47.2,66.1 					"/>
					<polygon id="XMLID_240_" class="st18" points="45.9,64.9 45.9,65.4 47.2,66.1 47.2,65.7 					"/>
					<polygon id="XMLID_239_" class="st28" points="46.9,65.1 46.9,65.1 46.7,65.2 46.1,64.8 46.1,64.8 45.9,64.9 47.2,65.7 
						47.5,65.5 					"/>
				</g>
			</g>
		</g>
	</g>
	<g id="XMLID_16315_">
		<g id="XMLID_16329_">
			<path id="XMLID_16333_" class="st29" d="M47.1,55.2c0-0.2-0.2-0.5-0.4-0.6l0,0c-0.3-0.2-0.8-0.3-1.2-0.2l0,0
				c-0.5,0.1-0.8,0.5-0.8,0.8c0,0.2,0.5,1.9,0.5,2.1c0,0.2,0.1,0.3,0.3,0.4l0,0c0.2,0.1,0.5,0.2,0.8,0.1l0,0
				c0.3-0.1,0.5-0.3,0.5-0.5C46.7,57.1,47.1,55.4,47.1,55.2z"/>
			<path class="st30" d="M46.7,57.3c0-0.2,0.5-1.9,0.5-2.1c0-0.1-0.1-0.3-0.2-0.4c-0.3-0.1-0.7-0.2-1.1-0.1
				c-0.5,0.1-0.8,0.5-0.8,0.8c0,0.2,0.5,1.9,0.5,2.1c0,0.1,0,0.1,0.1,0.2c0.2,0.1,0.4,0.1,0.6,0C46.5,57.7,46.7,57.5,46.7,57.3z"/>
			<path id="XMLID_16332_" class="st5" d="M46.7,54.6L46.7,54.6c0.7,0.4,0.5,1.2-0.4,1.5l0,0c-0.4,0.1-0.9,0-1.2-0.2l0,0
				c-0.7-0.4-0.5-1.2,0.4-1.5l0,0C45.9,54.3,46.4,54.4,46.7,54.6z"/>
			<path id="XMLID_16331_" class="st5" d="M46.7,54.5L46.7,54.5c0.8,0.5,0.5,1.3-0.4,1.5l0,0c-0.4,0.1-0.9,0-1.3-0.2l0,0
				c-0.8-0.5-0.5-1.3,0.4-1.5l0,0C45.9,54.2,46.4,54.3,46.7,54.5z"/>
			<path id="XMLID_16330_" class="st5" d="M46.7,54.4L46.7,54.4c0.7,0.4,0.5,1.2-0.4,1.5l0,0c-0.4,0.1-0.9,0-1.2-0.2l0,0
				c-0.7-0.4-0.5-1.2,0.4-1.5l0,0C45.9,54.2,46.4,54.2,46.7,54.4z"/>
		</g>
		<path id="XMLID_16328_" class="st31" d="M46.6,54.5L46.6,54.5c0.7,0.4,0.5,1.2-0.4,1.4l0,0c-0.4,0.1-0.8,0-1.2-0.2l0,0
			c-0.7-0.4-0.5-1.2,0.4-1.4l0,0C45.9,54.3,46.3,54.3,46.6,54.5z"/>
		<g id="XMLID_16323_">
			<path id="XMLID_16327_" class="st32" d="M45.5,54.8L45.5,54.8c0.4-0.1,0.8,0,1.2,0.2l0,0c0.2,0.1,0.3,0.3,0.4,0.4
				c0.1-0.3,0-0.6-0.4-0.8l0,0c-0.3-0.2-0.8-0.2-1.2-0.2l0,0c-0.6,0.1-0.9,0.6-0.8,1C44.8,55.1,45.1,54.9,45.5,54.8z"/>
			<path class="st33" d="M46.6,54.8c-0.3-0.2-0.8-0.2-1.2-0.2c-0.5,0.1-0.7,0.4-0.8,0.7c0,0,0,0.1,0,0.1c0.1-0.2,0.4-0.5,0.8-0.6
				c0.4-0.1,0.8,0,1.2,0.2c0.2,0.1,0.3,0.3,0.4,0.4c0,0,0-0.1,0-0.1C47,55.1,46.9,54.9,46.6,54.8z"/>
			<path id="XMLID_16326_" class="st34" d="M45.1,55.7L45.1,55.7c0.3,0.2,0.8,0.2,1.2,0.2l0,0c0.4-0.1,0.7-0.3,0.8-0.6
				c-0.1-0.1-0.2-0.3-0.4-0.4l0,0c-0.3-0.2-0.8-0.2-1.2-0.2l0,0c-0.4,0.1-0.7,0.3-0.8,0.6C44.8,55.5,44.9,55.6,45.1,55.7z"/>
			<path id="XMLID_16325_" class="st35" d="M45.5,54.8"/>
			<path id="XMLID_16324_" class="st35" d="M45.1,55.7L45.1,55.7c0.3,0.2,0.8,0.2,1.2,0.2l0,0c0.4-0.1,0.7-0.3,0.8-0.6
				c-0.1-0.1-0.2-0.3-0.4-0.4l0,0"/>
		</g>
		<path id="XMLID_16322_" class="st36" d="M45.4,55.2L45.4,55.2c0.1,0.1,0.1,0.2-0.1,0.2l0,0c-0.1,0-0.1,0-0.2,0l0,0
			c-0.1-0.1-0.1-0.2,0.1-0.2l0,0C45.3,55.2,45.3,55.2,45.4,55.2z"/>
		<path id="XMLID_16321_" class="st34" d="M45.4,55.2L45.4,55.2c0.1,0,0,0.1,0,0.1l0,0c0,0-0.1,0-0.1,0l0,0c-0.1,0,0-0.1,0-0.1l0,0
			C45.3,55.2,45.3,55.2,45.4,55.2z"/>
		<path id="XMLID_16320_" class="st36" d="M46.1,55.6L46.1,55.6C46.1,55.7,46.1,55.7,46.1,55.6L46.1,55.6C46,55.7,46,55.7,46,55.7
			l0,0C45.9,55.7,45.9,55.6,46.1,55.6L46.1,55.6C46,55.6,46.1,55.6,46.1,55.6z"/>
		<path id="XMLID_16319_" class="st34" d="M46.1,55.6L46.1,55.6C46.1,55.7,46.1,55.7,46.1,55.6L46.1,55.6C46,55.7,46,55.7,46.1,55.6
			L46.1,55.6C46,55.7,46,55.6,46.1,55.6L46.1,55.6C46,55.6,46,55.6,46.1,55.6z"/>
		<path id="XMLID_16318_" class="st36" d="M46.5,55.1L46.5,55.1c0.1,0,0,0.1,0,0.1l0,0c0,0-0.1,0-0.1,0l0,0c-0.1,0,0-0.1,0-0.1l0,0
			C46.4,55.1,46.5,55.1,46.5,55.1z"/>
		<path id="XMLID_16317_" class="st34" d="M46.5,55.1L46.5,55.1C46.5,55.1,46.5,55.2,46.5,55.1L46.5,55.1c-0.1,0.1-0.1,0.1-0.1,0.1
			l0,0C46.3,55.1,46.3,55.1,46.5,55.1L46.5,55.1C46.4,55.1,46.4,55.1,46.5,55.1z"/>
	</g>
</g>
</svg>
