<?xml version="1.0" encoding="utf-8"?>
<!-- Generator: Adobe Illustrator 21.0.0, SVG Export Plug-In . SVG Version: 6.00 Build 0)  -->
<svg version="1.1" id="Layer_1" xmlns="http://www.w3.org/2000/svg" xmlns:xlink="http://www.w3.org/1999/xlink" x="0px" y="0px"
	 viewBox="0 0 100 100" style="enable-background:new 0 0 100 100;" xml:space="preserve">
<style type="text/css">
	.st0{fill:#DDDDDC;}
	.st1{fill:#CECDCC;}
	.st2{opacity:0.2;fill:#CECDCC;enable-background:new    ;}
	.st3{fill:#FFFFFF;}
	.st4{fill:#EFEFEF;}
	.st5{fill:#D7DDDD;}
	.st6{fill:#95D2DE;}
	.st7{fill:#A0DBEB;}
	.st8{fill:#A9DEEB;}
	.st9{opacity:0.7;fill:#92D5E0;enable-background:new    ;}
	.st10{fill:#79CFE2;}
	.st11{fill:#A0DBEA;}
	.st12{fill:#92D5E0;}
	.st13{fill:#54A2B4;}
	.st14{fill:#6BBCD6;}
</style>
<path id="XMLID_393_" class="st0" d="M59.3,67.6c0,0.4-0.2,0.8-0.6,1l-7.2,4.2c-0.9,0.5-2.1,0.5-3,0l-7.2-4.2
	c-0.4-0.3-0.6-0.7-0.6-1.2c0-0.3,0-25,0-25.4s0.2-0.8,0.6-1l7.2-4.2c0.9-0.5,2.1-0.5,3,0l7.2,4.2c0.4,0.2,0.6,0.7,0.6,1.1
	S59.3,67.2,59.3,67.6z"/>
<path class="st1" d="M50.2,73.2V36.7h1.3l0,0l7.2,4.2c0.4,0.2,0.6,0.7,0.6,1.1c0,0.5,0,25.1,0,25.6c0,0.4-0.2,0.8-0.6,1l-7.2,4.2
	c-0.5,0.2-0.9,0.4-1.4,0.4H50.2z"/>
<path class="st2" d="M51.6,72.8c-0.5,0.2-0.9,0.4-1.4,0.4V36.8h1.3l0,0l7.2,4.2c0.4,0.2,0.6,0.7,0.6,1.1"/>
<path id="XMLID_392_" class="st3" d="M48.5,36.8L41.3,41c-0.8,0.5-0.8,1.7,0,2.2l7.2,4.2c0.9,0.5,2.1,0.5,3,0l7.2-4.2
	c0.8-0.5,0.8-1.7,0-2.2l-7.2-4.1C50.6,36.3,49.4,36.3,48.5,36.8z"/>
<path id="XMLID_16300_" class="st4" d="M41.3,41c-0.8,0.5-0.8,1.7,0,2.2l7.2,4.2c0.9,0.5,2.1,0.5,3,0l7.2-4.2c0.8-0.5,0.8-1.7,0-2.2
	"/>
<path class="st2" d="M45.8,41.2h8.6v4.4l-3,1.7c-0.9,0.5-2.1,0.5-3,0l-2.6-1.5C45.8,45.8,45.8,41.2,45.8,41.2z"/>
<path class="st5" d="M59.3,41.8c0.1,0.5-0.1,1-0.6,1.3l-7.2,4.2c-0.9,0.5-2.1,0.5-3,0l-7.2-4.2c-0.5-0.3-0.7-0.8-0.6-1.3
	c0.1,0.4,0.3,0.7,0.6,0.9l7.2,4.2c0.9,0.5,2.1,0.5,3,0l7.2-4.2C59,42.5,59.2,42.2,59.3,41.8z"/>
<path id="XMLID_4707_" class="st6" d="M54.5,40.9c-0.1,1.2-1.1,2.3-2.9,2.7l0,0c-1.5,0.3-3.1,0.1-4.3-0.6l0,0
	c-1-0.6-1.5-1.4-1.5-2.2c0,0,0-0.3,0-1.1c0-1.1,1.1-2.3,2.9-2.7l0,0c1.5-0.3,3.1-0.1,4.3,0.6l0,0c1,0.6,1.5,1.3,1.5,2.1V40.9z"/>
<path id="XMLID_390_" class="st7" d="M48.3,35.4L48.3,35.4c-4,0.9-5,4.4-1.8,6.3l0,0c1.5,0.9,3.6,1.1,5.4,0.7l0,0
	c4-0.9,5-4.4,1.8-6.3l0,0C52.2,35.2,50.2,35,48.3,35.4z"/>
<path id="XMLID_389_" class="st8" d="M48.3,35.4L48.3,35.4c-4,0.9-5,4.4-1.8,6.3l0,0c1.5,0.9,3.6,1.1,5.4,0.7l0,0
	c4-0.9,5-4.4,1.8-6.3l0,0C52.2,35.2,50.2,35,48.3,35.4z"/>
<path id="XMLID_387_" class="st6" d="M55.1,38.1c-0.2,1.3-1.3,2.5-3.4,3l0,0c-1.7,0.4-3.5,0.1-4.9-0.7l0,0c-1.1-0.6-1.6-1.5-1.7-2.4
	c0-0.2,0-1,0-1.2c-0.1-1.4,1.1-2.9,3.4-3.4l0,0c1.7-0.4,3.5-0.1,4.9,0.7l0,0c1.2,0.7,1.8,1.7,1.7,2.7C55.1,37,55.1,37.9,55.1,38.1z"
	/>
<path id="XMLID_386_" class="st8" d="M48.3,32.3L48.3,32.3c-4,0.9-5,4.4-1.8,6.3l0,0c1.5,0.9,3.6,1.1,5.4,0.7l0,0
	c4-0.9,5-4.4,1.8-6.3l0,0C52.2,32.1,50.2,31.9,48.3,32.3z"/>
<path id="XMLID_370_" class="st6" d="M55.1,34.9c-0.2,1.3-1.3,2.5-3.4,3l0,0c-1.7,0.4-3.5,0.1-4.9-0.7l0,0c-1.1-0.6-1.6-1.5-1.7-2.4
	c0-0.2,0-2.3,0-2.5c-0.1-1.4,1.1-2.9,3.4-3.4l0,0c1.7-0.4,3.5-0.1,4.9,0.7l0,0c1.2,0.7,1.8,1.7,1.7,2.7
	C55.1,32.5,55.1,34.7,55.1,34.9z"/>
<path class="st9" d="M55.1,37.3L55.1,37.3c0.8,1.4,0.5,2.8-0.7,3.9c-0.2,1.1-1.2,2-2.9,2.4l0,0c-1.2,0.3-2.4,0.2-3.5-0.2V27.1
	c0-0.1,0.1-0.1,0.2-0.1c1.9-0.4,3.9-0.2,5.4,0.7l0,0c1.3,0.8,1.9,1.9,1.9,2.9c0.1,0.3,0,0.8,0,1.1c-0.1,0.3-0.2,0.7-0.4,1
	c0,0.4,0,1.1,0,1.6C55.7,35.3,55.7,36.4,55.1,37.3z"/>
<path class="st9" d="M50.2,27.9H54c1.1,0.8,1.6,1.7,1.6,2.7c0.1,0.3,0,0.8,0,1.1c-0.1,0.3-0.2,0.7-0.4,1c0,0.4,0,1.1,0,1.6
	c0.6,1,0.6,2.1,0,3v0.1c0.8,1.3,0.5,2.7-0.7,3.8c-0.2,1.1-1.2,2-2.9,2.4l0,0c-0.5,0.1-0.9,0.2-1.4,0.2
	C50.2,43.8,50.2,27.9,50.2,27.9z"/>
<path id="XMLID_369_" class="st10" d="M55.5,30.4c0.1,0.2,0.1,1,0,1.3c-0.2,1.3-1.5,2.5-3.6,3l0,0C50,35.1,48,34.9,46.5,34l0,0
	c-1.2-0.7-1.8-1.7-1.9-2.6c0-0.2,0-0.8,0-1.1c0.2-1.4,1.5-2.7,3.7-3.2l0,0c1.9-0.4,3.9-0.2,5.4,0.7l0,0
	C54.9,28.5,55.5,29.4,55.5,30.4z"/>
<path id="XMLID_368_" class="st11" d="M48.3,27L48.3,27c-4,0.9-5,4.4-1.8,6.3l0,0c1.5,0.9,3.6,1.1,5.4,0.7l0,0c4-0.9,5-4.4,1.8-6.3
	l0,0C52.2,26.8,50.2,26.6,48.3,27z"/>
<path id="XMLID_367_" class="st12" d="M49,27.5L49,27.5c-2.5,0.6-3.1,2.8-1.1,4l0,0c0.9,0.6,2.2,0.8,3.4,0.5l0,0
	c2.5-0.6,3.1-2.8,1.1-4l0,0C51.4,27.4,50.1,27.3,49,27.5z"/>
<path id="XMLID_363_" class="st13" d="M49,27.8L49,27.8c-2.4,0.6-3,2.7-1.1,3.8l0,0c0.9,0.5,2.1,0.7,3.2,0.4l0,0
	c2.4-0.6,3-2.7,1.1-3.8l0,0C51.4,27.7,50.1,27.5,49,27.8z"/>
<path id="XMLID_360_" class="st14" d="M49.2,28.5L49.2,28.5c-2,0.4-2.4,2.1-0.9,3l0,0c0.7,0.4,1.7,0.5,2.6,0.3l0,0
	c2-0.4,2.4-2.1,0.9-3l0,0C51.1,28.3,50.1,28.2,49.2,28.5z"/>
<path id="XMLID_16303_" class="st9" d="M48.3,31.5L48.3,31.5c0.7,0.4,1.7,0.5,2.6,0.3l0,0c2-0.4,2.4-2.1,0.9-3l0,0"/>
</svg>
